<svg width="608" height="500" viewBox="0 0 608 500" fill="none" xmlns="http://www.w3.org/2000/svg">
<g filter="url(#filter0_d_920_8628)">
<path d="M588.156 374.374C446.422 281.308 588.156 82.3948 588.156 12.6181C588.156 -57.1586 444.699 191.354 403.682 58.0681C362.666 -75.2174 96.9685 287.312 22.1294 374.374C-130.047 551.404 729.891 467.44 588.156 374.374Z" fill="#07F9A2"/>
</g>
<g clip-path="url(#clip0_920_8628)">
<path d="M572.476 382.4H47.0823V382.65H572.476V382.4Z" fill="#E0E0E0"/>
<path d="M189.538 392.99H153.391V393.24H189.538V392.99Z" fill="#E0E0E0"/>
<path d="M145.688 393.11H125.345V393.36H145.688V393.11Z" fill="#E0E0E0"/>
<path d="M272.203 392.53H230.97V392.78H272.203V392.53Z" fill="#E0E0E0"/>
<path d="M377.618 388.97H255.958V389.22H377.618V388.97Z" fill="#E0E0E0"/>
<path d="M481.762 389.1H426.081V389.35H481.762V389.1Z" fill="#E0E0E0"/>
<path d="M296.119 337.8H93.2224C91.633 337.797 90.1095 337.195 88.9866 336.124C87.8636 335.054 87.2329 333.603 87.2329 332.09V60.66C87.2468 59.156 87.8836 57.718 89.005 56.6582C90.1265 55.5985 91.642 55.0026 93.2224 55H296.119C297.71 55 299.237 55.6016 300.362 56.6724C301.487 57.7433 302.119 59.1956 302.119 60.71V332.09C302.119 333.604 301.487 335.057 300.362 336.128C299.237 337.198 297.71 337.8 296.119 337.8ZM93.2224 55.2C91.7026 55.2026 90.246 55.7791 89.1723 56.8027C88.0987 57.8264 87.4956 59.2136 87.4956 60.66V332.09C87.4956 333.536 88.0987 334.924 89.1723 335.947C90.246 336.971 91.7026 337.547 93.2224 337.55H296.119C297.64 337.547 299.098 336.971 300.173 335.948C301.248 334.924 301.854 333.537 301.856 332.09V60.66C301.854 59.2127 301.248 57.8255 300.173 56.8021C299.098 55.7787 297.64 55.2026 296.119 55.2H93.2224Z" fill="#E0E0E0"/>
<path d="M523.415 337.8H320.508C318.917 337.797 317.393 337.195 316.268 336.125C315.144 335.054 314.511 333.604 314.508 332.09V60.66C314.524 59.1551 315.164 57.7171 316.287 56.6576C317.41 55.5981 318.926 55.0025 320.508 55H523.415C524.994 55.0052 526.507 55.6022 527.626 56.6617C528.745 57.7212 529.38 59.1578 529.394 60.66V332.09C529.394 333.601 528.765 335.05 527.644 336.121C526.523 337.191 525.003 337.795 523.415 337.8ZM320.508 55.2C318.987 55.2026 317.529 55.7787 316.454 56.8021C315.379 57.8255 314.773 59.2127 314.771 60.66V332.09C314.773 333.537 315.379 334.924 316.454 335.948C317.529 336.971 318.987 337.547 320.508 337.55H523.415C524.936 337.547 526.394 336.971 527.469 335.948C528.544 334.924 529.15 333.537 529.152 332.09V60.66C529.15 59.2127 528.544 57.8255 527.469 56.8021C526.394 55.7787 524.936 55.2026 523.415 55.2H320.508Z" fill="#E0E0E0"/>
<path d="M271.678 284.61C271.1 284.61 270.522 284.61 269.933 284.66C266.272 284.906 262.713 285.92 259.512 287.629C256.311 289.338 253.547 291.7 251.417 294.545C249.288 297.391 247.847 300.649 247.197 304.087C246.547 307.525 246.704 311.057 247.657 314.43C250.371 324.503 251.682 334.872 251.555 345.27V375.55C251.555 376.611 251.998 377.629 252.786 378.379C253.575 379.129 254.644 379.55 255.758 379.55H356.76V284.61H271.678Z" fill="#E6E6E6"/>
<path d="M381.601 308.28C381.563 302.158 379.035 296.287 374.546 291.9C370.058 287.513 363.959 284.951 357.528 284.752C351.098 284.553 344.836 286.731 340.058 290.831C335.279 294.931 332.355 300.633 331.898 306.74C331.724 309.331 331.994 311.932 332.697 314.44C335.42 324.512 336.735 334.881 336.606 345.28V375.56C336.606 376.621 337.049 377.639 337.837 378.389C338.625 379.139 339.694 379.56 340.809 379.56H372.701C373.815 379.56 374.884 379.139 375.673 378.389C376.461 377.639 376.904 376.621 376.904 375.56V343.5C376.812 333.749 378.105 324.031 380.75 314.61C381.333 312.547 381.619 310.417 381.601 308.28Z" fill="#F0F0F0"/>
<path d="M322.452 321.9H231.8V379.53H322.452V321.9Z" fill="#E6E6E6"/>
<path d="M175.699 228.61H259.342C261.821 228.599 264.279 229.055 266.573 229.951C268.868 230.846 270.953 232.165 272.711 233.83C274.468 235.495 275.863 237.474 276.814 239.653C277.766 241.833 278.256 244.17 278.256 246.53V334.93H156.879V246.53C156.879 241.779 158.862 237.222 162.391 233.862C165.92 230.501 170.707 228.612 175.699 228.61Z" fill="#E0E0E0"/>
<path d="M198.501 228.61H283.993C286.346 228.61 288.675 229.051 290.849 229.908C293.023 230.765 294.998 232.021 296.661 233.604C298.325 235.187 299.645 237.067 300.545 239.136C301.446 241.204 301.909 243.421 301.909 245.66V334.92H180.532V245.67C180.531 243.426 180.995 241.204 181.898 239.131C182.801 237.058 184.125 235.175 185.795 233.59C187.464 232.005 189.446 230.749 191.626 229.895C193.807 229.04 196.143 228.604 198.501 228.61Z" fill="#F0F0F0"/>
<path d="M237.727 316.64H321.285C322.735 316.64 324.124 317.188 325.149 318.163C326.174 319.138 326.75 320.461 326.75 321.84V334.91C326.75 336.289 326.174 337.611 325.149 338.587C324.124 339.562 322.735 340.11 321.285 340.11H237.727C237.295 340.11 236.881 339.946 236.575 339.656C236.27 339.365 236.098 338.971 236.098 338.56V318.19C236.098 317.779 236.27 317.384 236.575 317.094C236.881 316.803 237.295 316.64 237.727 316.64Z" fill="#E0E0E0"/>
<path d="M147.958 284.61C147.38 284.61 146.802 284.61 146.214 284.66C142.552 284.906 138.993 285.92 135.792 287.629C132.591 289.338 129.827 291.7 127.698 294.545C125.568 297.391 124.127 300.649 123.477 304.087C122.827 307.525 122.984 311.057 123.937 314.43C126.652 324.503 127.962 334.872 127.835 345.27V375.55C127.835 376.611 128.278 377.629 129.066 378.379C129.855 379.129 130.924 379.55 132.039 379.55H233.03V284.61H147.958Z" fill="#E6E6E6"/>
<path d="M257.86 308.28C257.822 302.158 255.294 296.287 250.806 291.9C246.317 287.513 240.218 284.951 233.787 284.752C227.357 284.553 221.095 286.731 216.317 290.831C211.538 294.931 208.614 300.633 208.158 306.74C207.983 309.331 208.253 311.932 208.956 314.44C211.679 324.512 212.994 334.881 212.865 345.28V375.56C212.865 376.621 213.308 377.639 214.096 378.389C214.885 379.139 215.954 379.56 217.068 379.56H248.96C250.074 379.56 251.144 379.139 251.932 378.389C252.72 377.639 253.163 376.621 253.163 375.56V343.5C253.071 333.749 254.365 324.031 257.009 314.61C257.592 312.547 257.878 310.417 257.86 308.28Z" fill="#F0F0F0"/>
<path d="M354.963 382.41H149.713C148.91 382.41 148.14 382.107 147.573 381.567C147.005 381.027 146.687 380.294 146.687 379.53H357.979C357.979 380.292 357.662 381.023 357.096 381.563C356.531 382.103 355.764 382.408 354.963 382.41Z" fill="#E0E0E0"/>
<path d="M197.702 101.46H137.314V161.02H197.702V101.46Z" fill="#E0E0E0"/>
<path d="M201.149 101.46H142.273V161.02H201.149V101.46Z" fill="#F0F0F0"/>
<path d="M196.21 156.32V106.15H147.201V156.32H196.21Z" fill="#FAFAFA"/>
<path d="M171.706 118.56L158.308 140.65H185.114L171.706 118.56Z" fill="#F0F0F0"/>
<path d="M278.203 126.54H217.814V186.1H278.203V126.54Z" fill="#E0E0E0"/>
<path d="M281.639 126.54H222.764V186.1H281.639V126.54Z" fill="#F0F0F0"/>
<path d="M276.701 181.41V131.24H227.692V181.41H276.701Z" fill="#FAFAFA"/>
<path d="M258.207 165.27L264.018 155.69C264.623 154.687 264.942 153.551 264.941 152.394C264.94 151.237 264.619 150.101 264.011 149.1C263.404 148.098 262.53 147.266 261.478 146.687C260.426 146.108 259.233 145.802 258.018 145.8H246.385C245.17 145.801 243.976 146.106 242.923 146.685C241.871 147.264 240.997 148.097 240.39 149.099C239.783 150.101 239.464 151.238 239.465 152.395C239.466 153.552 239.787 154.688 240.396 155.69L246.207 165.27C246.814 166.273 247.688 167.106 248.742 167.685C249.795 168.265 250.99 168.57 252.207 168.57C253.423 168.57 254.618 168.265 255.672 167.685C256.725 167.106 257.599 166.273 258.207 165.27Z" fill="#F0F0F0"/>
<path d="M418.084 240.45H401.576V377.66H418.084V240.45Z" fill="#E6E6E6"/>
<path d="M497.356 377.66H405.926V382.39H497.356V377.66Z" fill="#E6E6E6"/>
<path d="M418.074 377.67H501.706V240.46H418.074V377.67Z" fill="#F0F0F0"/>
<path d="M426.995 336.4H492.795V311.9H426.995V336.4Z" fill="#E6E6E6"/>
<path d="M426.995 368.47H492.795V343.97H426.995V368.47Z" fill="#E6E6E6"/>
<path d="M469.415 322.47H450.364C449.442 322.47 448.694 323.182 448.694 324.06V324.24C448.694 325.118 449.442 325.83 450.364 325.83H469.415C470.338 325.83 471.086 325.118 471.086 324.24V324.06C471.086 323.182 470.338 322.47 469.415 322.47Z" fill="#F0F0F0"/>
<path d="M469.415 354.54H450.364C449.442 354.54 448.694 355.252 448.694 356.13V356.31C448.694 357.188 449.442 357.9 450.364 357.9H469.415C470.338 357.9 471.086 357.188 471.086 356.31V356.13C471.086 355.252 470.338 354.54 469.415 354.54Z" fill="#F0F0F0"/>
<path d="M426.995 272.52H492.795V248.02H426.995V272.52Z" fill="#E6E6E6"/>
<path d="M426.995 304.34H492.795V279.84H426.995V304.34Z" fill="#E6E6E6"/>
<path d="M469.415 258.59H450.364C449.442 258.59 448.694 259.302 448.694 260.18V260.36C448.694 261.238 449.442 261.95 450.364 261.95H469.415C470.338 261.95 471.086 261.238 471.086 260.36V260.18C471.086 259.302 470.338 258.59 469.415 258.59Z" fill="#F0F0F0"/>
<path d="M469.415 290.4H450.364C449.442 290.4 448.694 291.112 448.694 291.99V292.17C448.694 293.049 449.442 293.76 450.364 293.76H469.415C470.338 293.76 471.086 293.049 471.086 292.17V291.99C471.086 291.112 470.338 290.4 469.415 290.4Z" fill="#F0F0F0"/>
<path d="M480.186 200.81H464.687C464.687 200.81 467.377 209.65 467.377 214.81C467.377 219.97 455.587 240.41 472.441 240.41C489.296 240.41 477.496 220.02 477.496 214.81C477.496 209.6 480.186 200.81 480.186 200.81Z" fill="#F0F0F0"/>
<path d="M439.846 212.69C439.836 214.072 439.395 215.42 438.581 216.565C437.766 217.709 436.614 218.599 435.269 219.121C433.924 219.643 432.447 219.775 431.023 219.499C429.6 219.223 428.294 218.553 427.271 217.572C426.248 216.591 425.552 215.343 425.273 213.987C424.993 212.631 425.142 211.226 425.7 209.949C426.258 208.673 427.201 207.583 428.409 206.816C429.618 206.049 431.038 205.64 432.49 205.64C434.446 205.653 436.317 206.401 437.695 207.722C439.073 209.043 439.846 210.829 439.846 212.69Z" fill="#F0F0F0"/>
<path d="M452.529 216.05C452.529 217.444 452.094 218.807 451.28 219.967C450.466 221.126 449.309 222.03 447.956 222.563C446.602 223.097 445.113 223.237 443.676 222.965C442.239 222.693 440.919 222.021 439.883 221.035C438.847 220.049 438.141 218.793 437.855 217.425C437.569 216.058 437.716 214.64 438.277 213.352C438.837 212.064 439.787 210.963 441.005 210.188C442.223 209.413 443.656 209 445.121 209C447.086 209 448.97 209.743 450.359 211.065C451.748 212.387 452.529 214.18 452.529 216.05Z" fill="#F0F0F0"/>
<path d="M463.363 213.33C463.363 214.725 462.928 216.088 462.114 217.247C461.3 218.406 460.143 219.31 458.789 219.844C457.436 220.377 455.946 220.517 454.509 220.245C453.072 219.973 451.752 219.301 450.716 218.315C449.68 217.329 448.975 216.073 448.689 214.706C448.403 213.338 448.55 211.921 449.11 210.632C449.671 209.344 450.621 208.243 451.839 207.468C453.057 206.694 454.489 206.28 455.954 206.28C457.919 206.28 459.803 207.023 461.193 208.345C462.582 209.667 463.363 211.461 463.363 213.33Z" fill="#F0F0F0"/>
<path d="M419.177 216.18V224.18C419.177 233.1 428.245 240.4 439.321 240.4H449.324C460.41 240.4 469.478 233.1 469.478 224.18V216.18H419.177Z" fill="#E6E6E6"/>
<path d="M386.865 175C381.283 175 375.93 172.89 371.982 169.134C368.035 165.377 365.818 160.283 365.818 154.97C365.818 149.658 368.035 144.563 371.982 140.807C375.93 137.051 381.283 134.94 386.865 134.94H389.45V175H386.865Z" fill="#E0E0E0"/>
<path d="M409.953 159.554C412.602 148.783 405.573 138.007 394.255 135.487C382.937 132.967 371.614 139.655 368.966 150.427C366.317 161.198 373.346 171.973 384.664 174.493C395.982 177.014 407.305 170.325 409.953 159.554Z" fill="#F0F0F0"/>
<path d="M390.396 157.48C389.699 157.48 389.031 157.217 388.538 156.748C388.046 156.279 387.769 155.643 387.769 154.98C387.769 154.317 388.046 153.681 388.538 153.213C389.031 152.744 389.699 152.48 390.396 152.48C396.42 152.475 402.197 150.196 406.457 146.143C410.718 142.09 413.116 136.594 413.124 130.86V97.6104C413.124 96.9473 413.401 96.3114 413.894 95.8426C414.386 95.3737 415.055 95.1104 415.751 95.1104C416.448 95.1104 417.116 95.3737 417.609 95.8426C418.102 96.3114 418.378 96.9473 418.378 97.6104V130.86C418.367 137.919 415.415 144.685 410.17 149.675C404.924 154.666 397.813 157.472 390.396 157.48Z" fill="#E0E0E0"/>
<path d="M440.592 130.79H390.911L396.459 87.4697H435.044L440.592 130.79Z" fill="#F0F0F0"/>
<path d="M309.779 427.56C422.3 427.56 513.517 422.492 513.517 416.24C513.517 409.988 422.3 404.92 309.779 404.92C197.258 404.92 106.042 409.988 106.042 416.24C106.042 422.492 197.258 427.56 309.779 427.56Z" fill="#F5F5F5"/>
<path d="M468.753 326.69L466.956 313.4C466.686 311.422 465.669 309.605 464.096 308.288C462.522 306.97 460.499 306.243 458.403 306.24H411.853C409.757 306.242 407.733 305.517 406.159 304.201C404.584 302.885 403.568 301.068 403.299 299.09L393.643 227.81C393.484 226.654 393.587 225.479 393.944 224.364C394.301 223.248 394.904 222.219 395.712 221.343C396.521 220.467 397.517 219.766 398.633 219.286C399.749 218.806 400.961 218.558 402.186 218.56H444.28C445.506 218.56 446.717 218.311 447.833 217.83C448.95 217.348 449.945 216.646 450.754 215.77C451.563 214.893 452.165 213.863 452.522 212.747C452.879 211.632 452.982 210.456 452.823 209.3L451.037 196C450.768 194.022 449.752 192.205 448.178 190.889C446.603 189.573 444.579 188.848 442.483 188.85H395.944C393.849 188.849 391.826 188.121 390.253 186.804C388.681 185.486 387.667 183.668 387.401 181.69L378.448 115.69C378.18 113.711 377.164 111.893 375.59 110.575C374.016 109.258 371.991 108.53 369.895 108.53H356.067C354.841 108.53 353.629 108.779 352.512 109.26C351.395 109.741 350.399 110.443 349.59 111.319C348.781 112.196 348.177 113.226 347.819 114.341C347.461 115.457 347.356 116.633 347.513 117.79L355.919 179.57C356.076 180.727 355.972 181.902 355.614 183.018C355.256 184.134 354.652 185.164 353.843 186.04C353.033 186.916 352.037 187.618 350.92 188.099C349.804 188.58 348.592 188.829 347.366 188.83H234.648C232.553 188.829 230.53 188.101 228.957 186.784C227.385 185.466 226.371 183.648 226.105 181.67L217.152 115.67C216.887 113.692 215.873 111.874 214.3 110.556C212.728 109.238 210.705 108.511 208.609 108.51H194.781C193.555 108.51 192.344 108.759 191.227 109.24C190.11 109.721 189.114 110.423 188.304 111.299C187.495 112.176 186.891 113.206 186.533 114.322C186.175 115.437 186.071 116.613 186.228 117.77L194.634 179.55C194.791 180.707 194.687 181.882 194.329 182.998C193.97 184.114 193.367 185.144 192.557 186.02C191.748 186.896 190.752 187.598 189.635 188.079C188.518 188.56 187.306 188.809 186.081 188.81H143.954C142.729 188.809 141.518 189.056 140.401 189.536C139.284 190.016 138.288 190.717 137.478 191.593C136.669 192.468 136.065 193.498 135.706 194.613C135.348 195.728 135.244 196.903 135.401 198.06L137.208 211.35C137.474 213.329 138.49 215.149 140.064 216.467C141.639 217.785 143.665 218.511 145.762 218.51H192.301C194.397 218.508 196.421 219.233 197.995 220.549C199.57 221.865 200.586 223.682 200.855 225.66L210.522 296.94C210.679 298.096 210.575 299.271 210.217 300.387C209.858 301.502 209.254 302.531 208.445 303.407C207.635 304.282 206.639 304.983 205.522 305.463C204.405 305.943 203.194 306.191 201.968 306.19H159.874C158.648 306.19 157.436 306.439 156.32 306.92C155.203 307.401 154.207 308.103 153.397 308.979C152.588 309.856 151.984 310.886 151.626 312.001C151.268 313.117 151.164 314.293 151.321 315.45L153.128 328.74C153.394 330.718 154.408 332.536 155.98 333.854C157.552 335.171 159.576 335.899 161.671 335.9H208.221C210.316 335.898 212.341 336.623 213.915 337.939C215.489 339.255 216.506 341.072 216.774 343.05L225.716 409.05C225.984 411.028 227 412.847 228.575 414.164C230.149 415.482 232.173 416.209 234.27 416.21H248.098C249.324 416.209 250.536 415.96 251.652 415.479C252.769 414.998 253.765 414.296 254.575 413.42C255.384 412.544 255.988 411.514 256.346 410.398C256.704 409.282 256.808 408.107 256.652 406.95L248.245 345.17C248.101 344.018 248.215 342.85 248.581 341.743C248.946 340.636 249.554 339.615 250.364 338.749C251.175 337.882 252.169 337.189 253.282 336.715C254.395 336.241 255.601 335.997 256.82 336H369.506C371.597 335.991 373.62 336.707 375.198 338.014C376.775 339.32 377.8 341.128 378.081 343.1L387.023 409.1C387.291 411.079 388.307 412.897 389.881 414.214C391.455 415.532 393.48 416.259 395.576 416.26H409.405C410.63 416.26 411.841 416.011 412.958 415.53C414.074 415.048 415.07 414.346 415.878 413.47C416.687 412.593 417.29 411.563 417.646 410.447C418.003 409.332 418.106 408.156 417.947 407L409.541 345.22C409.384 344.063 409.488 342.888 409.847 341.773C410.205 340.658 410.809 339.628 411.618 338.753C412.428 337.877 413.424 337.176 414.541 336.696C415.658 336.216 416.869 335.969 418.095 335.97H460.189C461.418 335.971 462.633 335.723 463.753 335.241C464.872 334.76 465.871 334.056 466.682 333.177C467.493 332.299 468.097 331.265 468.454 330.147C468.811 329.028 468.913 327.849 468.753 326.69ZM242.014 299.09L232.357 227.81C232.2 226.654 232.304 225.48 232.662 224.365C233.019 223.251 233.622 222.222 234.431 221.346C235.239 220.471 236.234 219.77 237.35 219.289C238.465 218.809 239.676 218.56 240.9 218.56H353.587C355.682 218.558 357.707 219.283 359.281 220.599C360.855 221.915 361.872 223.732 362.14 225.71L371.776 297C371.933 298.156 371.829 299.331 371.47 300.447C371.112 301.562 370.508 302.591 369.699 303.467C368.889 304.342 367.893 305.043 366.776 305.523C365.659 306.003 364.448 306.251 363.222 306.25H250.567C248.471 306.249 246.447 305.522 244.872 304.204C243.298 302.887 242.282 301.068 242.014 299.09Z" fill="#142C52"/>
<path opacity="0.4" d="M468.753 326.69L466.956 313.4C466.686 311.422 465.669 309.605 464.096 308.288C462.522 306.97 460.499 306.243 458.403 306.24H411.853C409.757 306.242 407.733 305.517 406.159 304.201C404.584 302.885 403.568 301.068 403.299 299.09L393.643 227.81C393.484 226.654 393.587 225.479 393.944 224.364C394.301 223.248 394.904 222.219 395.712 221.343C396.521 220.467 397.517 219.766 398.633 219.286C399.749 218.806 400.961 218.558 402.186 218.56H444.28C445.506 218.56 446.717 218.311 447.833 217.83C448.95 217.348 449.945 216.646 450.754 215.77C451.563 214.893 452.165 213.863 452.522 212.747C452.879 211.632 452.982 210.456 452.823 209.3L451.037 196C450.768 194.022 449.752 192.205 448.178 190.889C446.603 189.573 444.579 188.848 442.483 188.85H395.944C393.849 188.849 391.826 188.121 390.253 186.804C388.681 185.486 387.667 183.668 387.401 181.69L378.448 115.69C378.18 113.711 377.164 111.893 375.59 110.575C374.016 109.258 371.991 108.53 369.895 108.53H356.067C354.841 108.53 353.629 108.779 352.512 109.26C351.395 109.741 350.399 110.443 349.59 111.319C348.781 112.196 348.177 113.226 347.819 114.341C347.461 115.457 347.356 116.633 347.513 117.79L355.919 179.57C356.076 180.727 355.972 181.902 355.614 183.018C355.256 184.134 354.652 185.164 353.843 186.04C353.033 186.916 352.037 187.618 350.92 188.099C349.804 188.58 348.592 188.829 347.366 188.83H234.648C232.553 188.829 230.53 188.101 228.957 186.784C227.385 185.466 226.371 183.648 226.105 181.67L217.152 115.67C216.887 113.692 215.873 111.874 214.3 110.556C212.728 109.238 210.705 108.511 208.609 108.51H194.781C193.555 108.51 192.344 108.759 191.227 109.24C190.11 109.721 189.114 110.423 188.304 111.299C187.495 112.176 186.891 113.206 186.533 114.322C186.175 115.437 186.071 116.613 186.228 117.77L194.634 179.55C194.791 180.707 194.687 181.882 194.329 182.998C193.97 184.114 193.367 185.144 192.557 186.02C191.748 186.896 190.752 187.598 189.635 188.079C188.518 188.56 187.306 188.809 186.081 188.81H143.954C142.729 188.809 141.518 189.056 140.401 189.536C139.284 190.016 138.288 190.717 137.478 191.593C136.669 192.468 136.065 193.498 135.706 194.613C135.348 195.728 135.244 196.903 135.401 198.06L137.208 211.35C137.474 213.329 138.49 215.149 140.064 216.467C141.639 217.785 143.665 218.511 145.762 218.51H192.301C194.397 218.508 196.421 219.233 197.995 220.549C199.57 221.865 200.586 223.682 200.855 225.66L210.522 296.94C210.679 298.096 210.575 299.271 210.217 300.387C209.858 301.502 209.254 302.531 208.445 303.407C207.635 304.282 206.639 304.983 205.522 305.463C204.405 305.943 203.194 306.191 201.968 306.19H159.874C158.648 306.19 157.436 306.439 156.32 306.92C155.203 307.401 154.207 308.103 153.397 308.979C152.588 309.856 151.984 310.886 151.626 312.001C151.268 313.117 151.164 314.293 151.321 315.45L153.128 328.74C153.394 330.718 154.408 332.536 155.98 333.854C157.552 335.171 159.576 335.899 161.671 335.9H208.221C210.316 335.898 212.341 336.623 213.915 337.939C215.489 339.255 216.506 341.072 216.774 343.05L225.716 409.05C225.984 411.028 227 412.847 228.575 414.164C230.149 415.482 232.173 416.209 234.27 416.21H248.098C249.324 416.209 250.536 415.96 251.652 415.479C252.769 414.998 253.765 414.296 254.575 413.42C255.384 412.544 255.988 411.514 256.346 410.398C256.704 409.282 256.808 408.107 256.652 406.95L248.245 345.17C248.101 344.018 248.215 342.85 248.581 341.743C248.946 340.636 249.554 339.615 250.364 338.749C251.175 337.882 252.169 337.189 253.282 336.715C254.395 336.241 255.601 335.997 256.82 336H369.506C371.597 335.991 373.62 336.707 375.198 338.014C376.775 339.32 377.8 341.128 378.081 343.1L387.023 409.1C387.291 411.079 388.307 412.897 389.881 414.214C391.455 415.532 393.48 416.259 395.576 416.26H409.405C410.63 416.26 411.841 416.011 412.958 415.53C414.074 415.048 415.07 414.346 415.878 413.47C416.687 412.593 417.29 411.563 417.646 410.447C418.003 409.332 418.106 408.156 417.947 407L409.541 345.22C409.384 344.063 409.488 342.888 409.847 341.773C410.205 340.658 410.809 339.628 411.618 338.753C412.428 337.877 413.424 337.176 414.541 336.696C415.658 336.216 416.869 335.969 418.095 335.97H460.189C461.418 335.971 462.633 335.723 463.753 335.241C464.872 334.76 465.871 334.056 466.682 333.177C467.493 332.299 468.097 331.265 468.454 330.147C468.811 329.028 468.913 327.849 468.753 326.69ZM242.014 299.09L232.357 227.81C232.2 226.654 232.304 225.48 232.662 224.365C233.019 223.251 233.622 222.222 234.431 221.346C235.239 220.471 236.234 219.77 237.35 219.289C238.465 218.809 239.676 218.56 240.9 218.56H353.587C355.682 218.558 357.707 219.283 359.281 220.599C360.855 221.915 361.872 223.732 362.14 225.71L371.776 297C371.933 298.156 371.829 299.331 371.47 300.447C371.112 301.562 370.508 302.591 369.699 303.467C368.889 304.342 367.893 305.043 366.776 305.523C365.659 306.003 364.448 306.251 363.222 306.25H250.567C248.471 306.249 246.447 305.522 244.872 304.204C243.298 302.887 242.282 301.068 242.014 299.09Z" fill="black"/>
<path d="M270.322 374.71L269.271 367.11L270.322 366.98L271.373 374.58L270.322 374.71ZM417.748 272.51L414.049 245.26L415.1 245.14L418.788 272.38L417.748 272.51ZM242.981 173.07L241.478 162.13L242.529 162L244.021 173L242.981 173.07ZM240.585 155.4L238.063 136.83L239.114 136.7L241.625 155.27L240.585 155.4Z" fill="#142C52"/>
<path opacity="0.3" d="M270.322 374.71L269.271 367.11L270.322 366.98L271.373 374.58L270.322 374.71ZM417.748 272.51L414.049 245.26L415.1 245.14L418.788 272.38L417.748 272.51ZM242.981 173.07L241.478 162.13L242.529 162L244.021 173L242.981 173.07ZM240.585 155.4L238.063 136.83L239.114 136.7L241.625 155.27L240.585 155.4Z" fill="black"/>
<path d="M484.21 326.689L482.403 313.399C482.135 311.421 481.119 309.602 479.544 308.285C477.97 306.967 475.946 306.24 473.849 306.239H427.299C425.206 306.239 423.184 305.513 421.612 304.197C420.04 302.881 419.025 301.065 418.757 299.089L409.089 227.809C408.934 226.653 409.039 225.479 409.398 224.364C409.757 223.25 410.361 222.221 411.17 221.346C411.98 220.47 412.975 219.769 414.091 219.289C415.207 218.809 416.418 218.56 417.643 218.559H459.737C460.963 218.559 462.175 218.31 463.292 217.829C464.408 217.348 465.405 216.646 466.214 215.77C467.023 214.894 467.627 213.863 467.985 212.748C468.343 211.632 468.448 210.456 468.291 209.299L466.431 195.999C466.165 194.022 465.151 192.206 463.578 190.889C462.005 189.573 459.982 188.848 457.888 188.849H411.338C409.242 188.849 407.217 188.122 405.643 186.804C404.069 185.486 403.053 183.668 402.785 181.689L393.842 115.689C393.574 113.711 392.558 111.892 390.984 110.575C389.41 109.257 387.385 108.53 385.289 108.529H371.461C370.235 108.53 369.023 108.779 367.906 109.26C366.789 109.741 365.793 110.443 364.984 111.319C364.175 112.195 363.571 113.225 363.213 114.341C362.855 115.457 362.75 116.632 362.907 117.789L371.313 179.569C371.47 180.726 371.366 181.902 371.008 183.018C370.65 184.133 370.046 185.164 369.237 186.04C368.427 186.916 367.431 187.618 366.314 188.099C365.198 188.58 363.986 188.829 362.76 188.829H250.053C247.957 188.834 245.932 188.114 244.354 186.802C242.776 185.49 241.754 183.676 241.478 181.699L232.536 115.699C232.268 113.721 231.252 111.902 229.678 110.585C228.103 109.267 226.079 108.54 223.983 108.539H210.175C208.95 108.539 207.738 108.788 206.622 109.27C205.506 109.751 204.51 110.453 203.701 111.329C202.893 112.206 202.29 113.236 201.933 114.352C201.576 115.468 201.474 116.643 201.632 117.799L210.039 179.579C210.195 180.736 210.091 181.912 209.733 183.028C209.375 184.143 208.771 185.174 207.962 186.05C207.153 186.926 206.156 187.628 205.039 188.109C203.923 188.59 202.711 188.839 201.485 188.839H159.359C158.134 188.838 156.922 189.086 155.805 189.566C154.689 190.046 153.692 190.747 152.883 191.622C152.073 192.498 151.469 193.527 151.111 194.642C150.753 195.758 150.649 196.933 150.806 198.089L152.602 211.379C152.871 213.358 153.887 215.176 155.461 216.494C157.035 217.812 159.059 218.539 161.156 218.539H207.706C209.801 218.537 211.826 219.262 213.4 220.578C214.974 221.895 215.991 223.712 216.259 225.689L225.916 296.999C226.074 298.155 225.972 299.33 225.615 300.445C225.258 301.561 224.655 302.59 223.846 303.466C223.038 304.342 222.042 305.043 220.926 305.523C219.809 306.003 218.598 306.251 217.373 306.249H175.278C174.053 306.249 172.842 306.498 171.725 306.98C170.609 307.461 169.613 308.163 168.805 309.039C167.996 309.916 167.393 310.946 167.037 312.062C166.68 313.178 166.577 314.353 166.736 315.509L168.532 328.799C168.801 330.778 169.817 332.596 171.391 333.914C172.965 335.232 174.989 335.959 177.086 335.959H223.615C225.709 335.958 227.732 336.683 229.305 337.999C230.877 339.316 231.892 341.132 232.158 343.109L241.11 409.109C241.378 411.088 242.395 412.906 243.969 414.224C245.543 415.542 247.567 416.269 249.664 416.269H263.545C264.771 416.269 265.982 416.02 267.099 415.539C268.216 415.058 269.212 414.356 270.021 413.48C270.831 412.604 271.435 411.573 271.793 410.458C272.151 409.342 272.255 408.166 272.098 407.009L263.692 345.229C263.535 344.073 263.639 342.898 263.997 341.782C264.355 340.667 264.959 339.638 265.769 338.762C266.578 337.887 267.575 337.186 268.692 336.706C269.808 336.226 271.02 335.978 272.245 335.979H384.911C387.004 335.98 389.026 336.706 390.598 338.022C392.171 339.338 393.185 341.153 393.454 343.129L402.406 409.129C402.672 411.107 403.686 412.925 405.258 414.243C406.831 415.561 408.854 416.288 410.949 416.289H424.778C426.003 416.289 427.215 416.04 428.332 415.559C429.449 415.078 430.445 414.376 431.254 413.5C432.064 412.624 432.667 411.593 433.026 410.478C433.384 409.362 433.488 408.186 433.331 407.029L424.925 345.249C424.768 344.094 424.872 342.919 425.229 341.805C425.587 340.69 426.19 339.661 426.998 338.786C427.807 337.911 428.802 337.209 429.917 336.729C431.033 336.248 432.243 336 433.468 335.999H475.573C476.811 336.011 478.037 335.77 479.168 335.291C480.299 334.812 481.309 334.107 482.128 333.224C482.947 332.34 483.558 331.3 483.917 330.172C484.276 329.045 484.376 327.857 484.21 326.689ZM257.471 299.089L247.783 227.809C247.628 226.653 247.733 225.479 248.092 224.364C248.451 223.25 249.055 222.221 249.864 221.346C250.673 220.47 251.669 219.769 252.785 219.289C253.901 218.809 255.111 218.56 256.336 218.559H368.991C371.086 218.56 373.109 219.285 374.683 220.601C376.257 221.917 377.274 223.732 377.545 225.709L387.201 296.999C387.358 298.155 387.254 299.329 386.897 300.444C386.539 301.558 385.936 302.587 385.128 303.463C384.319 304.338 383.324 305.039 382.209 305.52C381.093 306 379.883 306.249 378.658 306.249H265.972C263.875 306.251 261.849 305.524 260.275 304.206C258.7 302.888 257.685 301.069 257.419 299.089H257.471Z" fill="#142C52"/>
<path opacity="0.3" d="M484.21 326.689L482.403 313.399C482.135 311.421 481.119 309.602 479.544 308.285C477.97 306.967 475.946 306.24 473.849 306.239H427.299C425.206 306.239 423.184 305.513 421.612 304.197C420.04 302.881 419.025 301.065 418.757 299.089L409.089 227.809C408.934 226.653 409.039 225.479 409.398 224.364C409.757 223.25 410.361 222.221 411.17 221.346C411.98 220.47 412.975 219.769 414.091 219.289C415.207 218.809 416.418 218.56 417.643 218.559H459.737C460.963 218.559 462.175 218.31 463.292 217.829C464.408 217.348 465.405 216.646 466.214 215.77C467.023 214.894 467.627 213.863 467.985 212.748C468.343 211.632 468.448 210.456 468.291 209.299L466.431 195.999C466.165 194.022 465.151 192.206 463.578 190.889C462.005 189.573 459.982 188.848 457.888 188.849H411.338C409.242 188.849 407.217 188.122 405.643 186.804C404.069 185.486 403.053 183.668 402.785 181.689L393.842 115.689C393.574 113.711 392.558 111.892 390.984 110.575C389.41 109.257 387.385 108.53 385.289 108.529H371.461C370.235 108.53 369.023 108.779 367.906 109.26C366.789 109.741 365.793 110.443 364.984 111.319C364.175 112.195 363.571 113.225 363.213 114.341C362.855 115.457 362.75 116.632 362.907 117.789L371.313 179.569C371.47 180.726 371.366 181.902 371.008 183.018C370.65 184.133 370.046 185.164 369.237 186.04C368.427 186.916 367.431 187.618 366.314 188.099C365.198 188.58 363.986 188.829 362.76 188.829H250.053C247.957 188.834 245.932 188.114 244.354 186.802C242.776 185.49 241.754 183.676 241.478 181.699L232.536 115.699C232.268 113.721 231.252 111.902 229.678 110.585C228.103 109.267 226.079 108.54 223.983 108.539H210.175C208.95 108.539 207.738 108.788 206.622 109.27C205.506 109.751 204.51 110.453 203.701 111.329C202.893 112.206 202.29 113.236 201.933 114.352C201.576 115.468 201.474 116.643 201.632 117.799L210.039 179.579C210.195 180.736 210.091 181.912 209.733 183.028C209.375 184.143 208.771 185.174 207.962 186.05C207.153 186.926 206.156 187.628 205.039 188.109C203.923 188.59 202.711 188.839 201.485 188.839H159.359C158.134 188.838 156.922 189.086 155.805 189.566C154.689 190.046 153.692 190.747 152.883 191.622C152.073 192.498 151.469 193.527 151.111 194.642C150.753 195.758 150.649 196.933 150.806 198.089L152.602 211.379C152.871 213.358 153.887 215.176 155.461 216.494C157.035 217.812 159.059 218.539 161.156 218.539H207.706C209.801 218.537 211.826 219.262 213.4 220.578C214.974 221.895 215.991 223.712 216.259 225.689L225.916 296.999C226.074 298.155 225.972 299.33 225.615 300.445C225.258 301.561 224.655 302.59 223.846 303.466C223.038 304.342 222.042 305.043 220.926 305.523C219.809 306.003 218.598 306.251 217.373 306.249H175.278C174.053 306.249 172.842 306.498 171.725 306.98C170.609 307.461 169.613 308.163 168.805 309.039C167.996 309.916 167.393 310.946 167.037 312.062C166.68 313.178 166.577 314.353 166.736 315.509L168.532 328.799C168.801 330.778 169.817 332.596 171.391 333.914C172.965 335.232 174.989 335.959 177.086 335.959H223.615C225.709 335.958 227.732 336.683 229.305 337.999C230.877 339.316 231.892 341.132 232.158 343.109L241.11 409.109C241.378 411.088 242.395 412.906 243.969 414.224C245.543 415.542 247.567 416.269 249.664 416.269H263.545C264.771 416.269 265.982 416.02 267.099 415.539C268.216 415.058 269.212 414.356 270.021 413.48C270.831 412.604 271.435 411.573 271.793 410.458C272.151 409.342 272.255 408.166 272.098 407.009L263.692 345.229C263.535 344.073 263.639 342.898 263.997 341.782C264.355 340.667 264.959 339.638 265.769 338.762C266.578 337.887 267.575 337.186 268.692 336.706C269.808 336.226 271.02 335.978 272.245 335.979H384.911C387.004 335.98 389.026 336.706 390.598 338.022C392.171 339.338 393.185 341.153 393.454 343.129L402.406 409.129C402.672 411.107 403.686 412.925 405.258 414.243C406.831 415.561 408.854 416.288 410.949 416.289H424.778C426.003 416.289 427.215 416.04 428.332 415.559C429.449 415.078 430.445 414.376 431.254 413.5C432.064 412.624 432.667 411.593 433.026 410.478C433.384 409.362 433.488 408.186 433.331 407.029L424.925 345.249C424.768 344.094 424.872 342.919 425.229 341.805C425.587 340.69 426.19 339.661 426.998 338.786C427.807 337.911 428.802 337.209 429.917 336.729C431.033 336.248 432.243 336 433.468 335.999H475.573C476.811 336.011 478.037 335.77 479.168 335.291C480.299 334.812 481.309 334.107 482.128 333.224C482.947 332.34 483.558 331.3 483.917 330.172C484.276 329.045 484.376 327.857 484.21 326.689ZM257.471 299.089L247.783 227.809C247.628 226.653 247.733 225.479 248.092 224.364C248.451 223.25 249.055 222.221 249.864 221.346C250.673 220.47 251.669 219.769 252.785 219.289C253.901 218.809 255.111 218.56 256.336 218.559H368.991C371.086 218.56 373.109 219.285 374.683 220.601C376.257 221.917 377.274 223.732 377.545 225.709L387.201 296.999C387.358 298.155 387.254 299.329 386.897 300.444C386.539 301.558 385.936 302.587 385.128 303.463C384.319 304.338 383.324 305.039 382.209 305.52C381.093 306 379.883 306.249 378.658 306.249H265.972C263.875 306.251 261.849 305.524 260.275 304.206C258.7 302.888 257.685 301.069 257.419 299.089H257.471Z" fill="white"/>
<path d="M424.778 413.36H410.949C409.589 413.358 408.275 412.886 407.254 412.03C406.233 411.174 405.575 409.994 405.401 408.71L396.448 342.71C396.081 340.039 394.706 337.587 392.58 335.809C390.453 334.032 387.72 333.051 384.89 333.05H272.224C270.568 333.048 268.931 333.383 267.422 334.031C265.912 334.68 264.566 335.627 263.472 336.81C262.378 337.993 261.562 339.385 261.078 340.892C260.594 342.399 260.453 343.987 260.666 345.55L269.072 407.33C269.174 408.081 269.106 408.844 268.873 409.568C268.64 410.292 268.247 410.96 267.721 411.528C267.194 412.096 266.547 412.551 265.821 412.861C265.096 413.172 264.309 413.332 263.513 413.33H249.674C248.312 413.331 246.996 412.859 245.973 412.003C244.95 411.147 244.289 409.966 244.116 408.68L235.173 342.68C234.802 340.011 233.426 337.561 231.3 335.784C229.174 334.008 226.444 333.026 223.615 333.02H177.065C175.704 333.017 174.39 332.543 173.368 331.688C172.346 330.833 171.684 329.654 171.506 328.37L169.709 315.08C169.608 314.33 169.675 313.568 169.908 312.844C170.14 312.121 170.532 311.453 171.057 310.885C171.582 310.318 172.228 309.863 172.953 309.551C173.677 309.24 174.463 309.079 175.257 309.08H217.363C219.018 309.08 220.654 308.744 222.163 308.095C223.671 307.446 225.017 306.499 226.111 305.316C227.204 304.134 228.021 302.743 228.505 301.236C228.99 299.73 229.132 298.143 228.921 296.58L219.254 225.31C218.887 222.638 217.512 220.185 215.386 218.406C213.26 216.627 210.526 215.644 207.695 215.64H161.145C159.787 215.639 158.474 215.167 157.454 214.314C156.433 213.46 155.773 212.282 155.597 211L153.79 197.7C153.688 196.949 153.756 196.186 153.989 195.462C154.222 194.738 154.615 194.07 155.141 193.502C155.667 192.934 156.315 192.479 157.04 192.168C157.766 191.858 158.553 191.698 159.349 191.7H201.443C203.099 191.702 204.736 191.367 206.246 190.719C207.755 190.07 209.101 189.123 210.195 187.94C211.289 186.757 212.106 185.365 212.59 183.858C213.073 182.351 213.214 180.763 213.002 179.2L204.595 117.42C204.494 116.67 204.562 115.908 204.794 115.184C205.026 114.461 205.418 113.793 205.943 113.225C206.468 112.658 207.114 112.203 207.839 111.892C208.563 111.58 209.349 111.419 210.144 111.42H223.972C225.333 111.423 226.647 111.896 227.669 112.752C228.691 113.607 229.353 114.786 229.531 116.07L238.473 182.07C238.842 184.74 240.218 187.191 242.344 188.968C244.47 190.745 247.202 191.726 250.032 191.73H362.739C364.395 191.732 366.032 191.397 367.542 190.749C369.051 190.1 370.397 189.153 371.491 187.97C372.585 186.787 373.402 185.395 373.885 183.888C374.369 182.381 374.51 180.793 374.298 179.23L365.891 117.45C365.79 116.7 365.858 115.938 366.09 115.214C366.322 114.491 366.714 113.823 367.239 113.255C367.764 112.688 368.41 112.233 369.135 111.922C369.859 111.61 370.645 111.449 371.44 111.45H385.268C386.628 111.455 387.941 111.929 388.962 112.784C389.984 113.639 390.646 114.817 390.827 116.1L399.769 182.1C400.136 184.771 401.511 187.223 403.638 189C405.764 190.778 408.497 191.758 411.328 191.76H457.94C459.3 191.764 460.613 192.237 461.633 193.092C462.654 193.948 463.313 195.127 463.489 196.41L465.296 209.67C465.398 210.421 465.33 211.184 465.097 211.908C464.864 212.632 464.471 213.3 463.945 213.868C463.419 214.436 462.771 214.891 462.046 215.201C461.32 215.512 460.533 215.672 459.737 215.67H417.59C415.935 215.67 414.298 216.006 412.79 216.655C411.281 217.304 409.936 218.251 408.842 219.434C407.748 220.616 406.932 222.007 406.447 223.514C405.963 225.02 405.821 226.607 406.032 228.17L415.699 299.45C416.066 302.121 417.441 304.573 419.568 306.35C421.694 308.128 424.427 309.108 427.257 309.11H473.807C475.169 309.111 476.484 309.584 477.506 310.439C478.529 311.295 479.19 312.475 479.366 313.76L481.163 327.05C481.264 327.8 481.197 328.562 480.964 329.286C480.732 330.009 480.34 330.677 479.815 331.244C479.29 331.812 478.644 332.267 477.92 332.578C477.195 332.89 476.41 333.05 475.615 333.05H433.51C431.853 333.045 430.214 333.377 428.703 334.025C427.192 334.672 425.844 335.62 424.749 336.803C423.655 337.987 422.839 339.38 422.356 340.889C421.873 342.397 421.735 343.986 421.951 345.55L430.357 407.33C430.456 408.08 430.385 408.842 430.151 409.565C429.916 410.287 429.524 410.954 428.998 411.521C428.473 412.089 427.826 412.543 427.102 412.855C426.379 413.167 425.593 413.329 424.799 413.33L424.778 413.36ZM272.224 332.82H384.911C387.802 332.826 390.592 333.831 392.763 335.648C394.934 337.466 396.337 339.972 396.711 342.7L405.664 408.7C405.829 409.918 406.452 411.038 407.418 411.852C408.384 412.667 409.627 413.121 410.918 413.13H424.746C425.502 413.126 426.248 412.969 426.935 412.67C427.623 412.371 428.235 411.935 428.732 411.393C429.229 410.851 429.599 410.215 429.818 409.527C430.036 408.838 430.098 408.113 430 407.4L421.594 345.62C421.377 344.023 421.521 342.4 422.015 340.859C422.51 339.319 423.344 337.897 424.461 336.687C425.579 335.478 426.955 334.509 428.497 333.846C430.039 333.182 431.712 332.839 433.405 332.84H475.499C476.255 332.836 477.001 332.679 477.688 332.38C478.376 332.081 478.988 331.645 479.485 331.103C479.982 330.561 480.352 329.925 480.571 329.237C480.789 328.548 480.851 327.823 480.753 327.11L478.946 313.82C478.781 312.602 478.157 311.482 477.192 310.667C476.226 309.853 474.982 309.399 473.692 309.39H427.142C424.251 309.382 421.462 308.376 419.292 306.559C417.122 304.742 415.718 302.237 415.342 299.51L405.674 228.23C405.458 226.633 405.601 225.01 406.096 223.469C406.59 221.929 407.424 220.507 408.542 219.297C409.66 218.088 411.035 217.119 412.578 216.456C414.12 215.792 415.793 215.449 417.485 215.45H459.58C460.336 215.446 461.082 215.289 461.769 214.99C462.456 214.691 463.069 214.255 463.566 213.713C464.063 213.171 464.433 212.535 464.651 211.847C464.87 211.158 464.932 210.433 464.834 209.72L463.194 196.41C463.025 195.194 462.401 194.076 461.436 193.262C460.471 192.449 459.23 191.993 457.94 191.98H411.391C408.498 191.974 405.706 190.97 403.534 189.152C401.362 187.335 399.957 184.829 399.58 182.1L390.638 116.1C390.47 114.883 389.846 113.764 388.881 112.95C387.916 112.136 386.673 111.681 385.384 111.67H371.461C370.705 111.675 369.96 111.833 369.273 112.133C368.587 112.433 367.975 112.868 367.479 113.41C366.982 113.951 366.612 114.587 366.393 115.275C366.173 115.963 366.11 116.687 366.207 117.4L374.613 179.18C374.837 180.785 374.696 182.418 374.201 183.967C373.706 185.517 372.867 186.947 371.742 188.162C370.617 189.377 369.231 190.348 367.678 191.01C366.125 191.672 364.441 192.01 362.739 192H250.053C247.16 191.994 244.368 190.99 242.196 189.172C240.024 187.355 238.619 184.849 238.242 182.12L229.3 116.12C229.132 114.903 228.508 113.784 227.543 112.97C226.578 112.156 225.335 111.701 224.046 111.69H210.175C209.419 111.694 208.673 111.851 207.986 112.15C207.299 112.449 206.686 112.884 206.189 113.426C205.692 113.968 205.322 114.605 205.104 115.293C204.885 115.982 204.823 116.707 204.921 117.42L213.328 179.2C213.548 180.804 213.405 182.434 212.908 183.981C212.412 185.528 211.573 186.956 210.448 188.168C209.323 189.381 207.938 190.35 206.387 191.011C204.835 191.672 203.153 192.009 201.454 192H159.359C158.604 192.005 157.858 192.163 157.172 192.463C156.485 192.763 155.874 193.198 155.377 193.74C154.881 194.281 154.51 194.917 154.291 195.605C154.072 196.293 154.008 197.017 154.105 197.73L155.86 211C156.027 212.217 156.651 213.336 157.616 214.15C158.582 214.964 159.824 215.419 161.114 215.43H207.664C210.556 215.436 213.348 216.44 215.52 218.258C217.693 220.075 219.098 222.581 219.475 225.31L229.131 296.59C229.35 298.187 229.207 299.809 228.714 301.35C228.221 302.89 227.388 304.312 226.271 305.522C225.154 306.732 223.779 307.701 222.237 308.364C220.696 309.028 219.023 309.371 217.331 309.37H175.278C174.523 309.374 173.776 309.531 173.089 309.83C172.402 310.129 171.79 310.564 171.293 311.106C170.796 311.648 170.426 312.285 170.207 312.973C169.988 313.662 169.926 314.387 170.025 315.1L171.821 328.39C171.989 329.607 172.612 330.726 173.578 331.54C174.543 332.354 175.785 332.809 177.075 332.82H223.615C226.506 332.826 229.296 333.831 231.467 335.648C233.638 337.466 235.041 339.972 235.415 342.7L244.368 408.7C244.533 409.918 245.156 411.038 246.122 411.852C247.088 412.667 248.331 413.121 249.622 413.13H263.545C264.3 413.126 265.047 412.969 265.734 412.67C266.421 412.371 267.034 411.935 267.531 411.393C268.028 410.851 268.398 410.215 268.616 409.527C268.835 408.838 268.897 408.113 268.799 407.4L260.392 345.62C260.176 344.023 260.319 342.4 260.814 340.859C261.308 339.319 262.142 337.897 263.26 336.687C264.378 335.478 265.754 334.509 267.296 333.846C268.838 333.182 270.511 332.839 272.203 332.84L272.224 332.82ZM378.659 309.37H265.972C263.08 309.364 260.288 308.36 258.116 306.542C255.943 304.725 254.538 302.219 254.161 299.49L244.494 228.21C244.277 226.613 244.421 224.99 244.916 223.449C245.41 221.909 246.244 220.487 247.362 219.277C248.479 218.068 249.855 217.099 251.397 216.436C252.939 215.772 254.612 215.429 256.305 215.43H368.991C371.884 215.436 374.675 216.44 376.848 218.258C379.02 220.075 380.425 222.581 380.802 225.31L390.459 296.59C390.675 298.186 390.532 299.809 390.038 301.348C389.544 302.888 388.711 304.309 387.595 305.519C386.478 306.728 385.104 307.697 383.563 308.361C382.022 309.025 380.35 309.369 378.659 309.37ZM256.305 215.68C254.649 215.68 253.013 216.016 251.504 216.665C249.996 217.313 248.65 218.261 247.557 219.444C246.463 220.626 245.647 222.017 245.162 223.524C244.677 225.03 244.536 226.617 244.746 228.18L254.413 299.46C254.783 302.13 256.158 304.581 258.284 306.358C260.411 308.135 263.142 309.116 265.972 309.12H378.659C380.314 309.122 381.952 308.787 383.461 308.139C384.97 307.49 386.317 306.543 387.411 305.36C388.505 304.177 389.321 302.785 389.805 301.278C390.289 299.771 390.429 298.183 390.217 296.62L380.56 225.35C380.193 222.678 378.819 220.225 376.693 218.446C374.566 216.667 371.833 215.684 369.002 215.68H256.305Z" fill="#142C52"/>
<path d="M337.016 374.84L345.264 379.43L357.716 361.95L349.468 357.35L337.016 374.84Z" fill="#E4897B"/>
<path d="M345.559 379.17L338.781 371.24C338.667 371.101 338.503 371.008 338.321 370.976C338.139 370.945 337.951 370.978 337.793 371.07L330.438 375.27C330.256 375.382 330.101 375.529 329.983 375.702C329.865 375.875 329.787 376.07 329.753 376.274C329.72 376.478 329.731 376.686 329.788 376.885C329.844 377.084 329.944 377.27 330.081 377.43C332.497 380.15 333.811 381.35 336.795 384.84C338.623 386.99 342.186 391.61 344.729 394.57C347.271 397.53 350.476 395.3 349.699 393.85C346.21 387.35 346.074 383.85 346.126 380.7C346.135 380.142 345.934 379.599 345.559 379.17Z" fill="#263238"/>
<path d="M348.659 384.14H348.459C347.114 383.94 345.685 381.7 344.96 380.39C344.944 380.362 344.938 380.331 344.942 380.3C344.945 380.269 344.959 380.24 344.981 380.217C345.003 380.194 345.032 380.178 345.064 380.172C345.096 380.165 345.129 380.168 345.159 380.18C345.601 380.36 349.489 381.99 349.73 383.18C349.751 383.287 349.743 383.397 349.706 383.501C349.669 383.604 349.605 383.697 349.52 383.77C349.41 383.884 349.277 383.975 349.129 384.039C348.981 384.103 348.821 384.137 348.659 384.14ZM345.506 380.62C346.609 382.51 347.744 383.7 348.553 383.82C348.697 383.843 348.845 383.832 348.983 383.787C349.121 383.741 349.244 383.663 349.342 383.56C349.386 383.519 349.42 383.469 349.44 383.413C349.46 383.357 349.466 383.298 349.457 383.24C349.257 382.44 346.809 381.21 345.506 380.62Z" fill="#142C52"/>
<path d="M348.196 381C347.114 380.992 346.044 380.785 345.044 380.39C345.019 380.38 344.998 380.364 344.983 380.342C344.968 380.321 344.96 380.296 344.96 380.27C344.955 380.243 344.958 380.216 344.97 380.191C344.981 380.166 344.999 380.145 345.023 380.13C345.117 380.07 347.24 378.7 348.743 378.98C348.956 379.018 349.16 379.097 349.34 379.213C349.521 379.328 349.675 379.477 349.793 379.65C350.119 380.12 349.993 380.42 349.793 380.58C349.337 380.908 348.765 381.059 348.196 381ZM345.433 380.23C346.725 380.72 349.1 380.89 349.583 380.38C349.583 380.33 349.762 380.19 349.499 379.82C349.406 379.679 349.284 379.558 349.139 379.465C348.994 379.372 348.831 379.309 348.659 379.28C347.502 379.285 346.375 379.631 345.433 380.27V380.23Z" fill="#142C52"/>
<path d="M324.07 237.13L324.469 238.65L324.921 240.29C325.226 241.39 325.573 242.5 325.919 243.61C326.62 245.83 327.359 248.047 328.137 250.26C328.956 252.46 329.744 254.68 330.638 256.87C331.068 257.96 331.499 259.07 331.951 260.16L332.487 261.47C332.599 261.696 332.74 261.907 332.907 262.1C334.217 263.355 335.809 264.312 337.562 264.9C339.714 265.732 341.931 266.401 344.193 266.9C346.525 267.42 348.921 267.85 351.349 268.21C353.776 268.57 356.266 268.85 358.704 269.1L358.788 273.81C353.548 274.329 348.266 274.329 343.026 273.81C340.284 273.548 337.572 273.049 334.925 272.32C333.479 271.911 332.073 271.386 330.722 270.75C329.172 270.037 327.753 269.091 326.518 267.95C325.803 267.273 325.185 266.51 324.68 265.68C324.538 265.463 324.408 265.24 324.291 265.01L324.049 264.54L323.629 263.71C323.061 262.6 322.494 261.49 321.969 260.36C320.918 258.1 319.867 255.83 318.942 253.51C318.018 251.19 317.124 248.85 316.326 246.51C315.937 245.31 315.569 244.1 315.275 242.88L314.771 241.02C314.623 240.37 314.487 239.81 314.34 239.02L324.07 237.13Z" fill="#E4897B"/>
<path d="M320.949 227.22C324.89 228.17 327.653 243.61 327.653 243.61L316.788 250.61C316.788 250.61 306.375 235.04 309.433 230.91C312.564 226.65 315.201 225.82 320.949 227.22Z" fill="#142C52"/>
<path opacity="0.2" d="M320.949 227.22C324.89 228.17 327.653 243.61 327.653 243.61L316.788 250.61C316.788 250.61 306.375 235.04 309.433 230.91C312.564 226.65 315.201 225.82 320.949 227.22Z" fill="black"/>
<path d="M321.338 232.83L312.932 234.69L312.123 242.54C313.553 245.315 315.131 248.018 316.851 250.64L323.44 246.38C323.093 242.77 322.389 235.27 321.338 232.83Z" fill="#142C52"/>
<path opacity="0.3" d="M321.338 232.83L312.932 234.69L312.123 242.54C313.553 245.315 315.131 248.018 316.851 250.64L323.44 246.38C323.093 242.77 322.389 235.27 321.338 232.83Z" fill="black"/>
<path d="M357.254 269L364.032 262.46L364.925 271.67C364.925 271.67 359.839 274.95 356.319 273.19L357.254 269Z" fill="#E4897B"/>
<path d="M372.007 261.47L372.312 269.23L364.925 271.66L364.032 262.45L372.007 261.47Z" fill="#E4897B"/>
<path d="M323.408 392.83H332.97L336.049 371.75H326.476L323.408 392.83Z" fill="#E4897B"/>
<path d="M333.601 390.11L324.144 385.3C323.982 385.215 323.793 385.19 323.613 385.229C323.433 385.267 323.274 385.367 323.166 385.51L318.091 392.1C317.97 392.271 317.888 392.464 317.851 392.667C317.813 392.87 317.821 393.078 317.874 393.278C317.926 393.478 318.022 393.665 318.156 393.827C318.289 393.989 318.457 394.123 318.648 394.22C321.979 395.84 323.681 396.46 327.853 398.57C330.417 399.87 336.848 403.46 340.399 405.26C343.951 407.06 345.99 403.81 344.687 402.76C338.834 398.06 335.997 394.23 334.767 391.32C334.545 390.795 334.131 390.365 333.601 390.11Z" fill="#263238"/>
<path d="M280.83 191.67C280.588 201.67 267.727 197.54 266.287 209.06C265.478 215.53 257.24 216.2 255.779 222.06C254.35 227.73 260.161 231.85 255.779 238.91C249.916 248.36 246.637 264.84 279.538 266.55C304 267.82 312.606 244.17 308.455 229.64C304.305 215.11 301.993 212.87 306.543 208.87C311.093 204.87 318.385 202.87 316.053 190.65C314.245 181.2 309.853 182.31 309.853 182.31C309.632 177.09 281.408 169.42 280.83 191.67Z" fill="#263238"/>
<path d="M357.716 361.95L351.296 370.96L343.037 366.37L349.457 357.35L357.716 361.95Z" fill="#CE6F64"/>
<path d="M326.476 371.76H336.049L334.452 382.62H324.89L326.476 371.76Z" fill="#CE6F64"/>
<path d="M320.949 227.22C320.949 227.22 325.51 228.75 316.378 282.15H277.499C278.151 267.15 278.161 257.83 270.606 226.95C276.046 225.885 281.559 225.196 287.103 224.89C292.977 224.49 298.873 224.49 304.746 224.89C312.354 225.55 320.949 227.22 320.949 227.22Z" fill="#142C52"/>
<path opacity="0.2" d="M320.949 227.22C320.949 227.22 325.51 228.75 316.378 282.15H277.499C278.151 267.15 278.161 257.83 270.606 226.95C276.046 225.885 281.559 225.196 287.103 224.89C292.977 224.49 298.873 224.49 304.746 224.89C312.354 225.55 320.949 227.22 320.949 227.22Z" fill="black"/>
<path d="M288.89 206C290.004 211.4 291.117 221.29 287.145 224.9C287.145 224.9 288.701 230.38 299.24 230.38C309.391 230.38 304.788 224.9 304.788 224.9C298.483 223.46 298.62 218.99 299.723 214.79L288.89 206Z" fill="#E4897B"/>
<path d="M293.303 209.58L299.713 214.78C299.442 215.763 299.263 216.767 299.177 217.78C296.75 217.45 293.429 214.92 293.177 212.51C293.035 211.534 293.078 210.542 293.303 209.58Z" fill="#CE6F64"/>
<path d="M288.228 191.76C287.177 200.76 286.462 204.5 290.329 209.86C296.13 217.92 307.951 217.24 311.839 208.76C315.338 201.13 316.546 187.76 308.077 182.65C306.216 181.518 304.082 180.857 301.877 180.732C299.672 180.606 297.47 181.02 295.481 181.933C293.491 182.846 291.781 184.228 290.511 185.948C289.241 187.668 288.455 189.669 288.228 191.76Z" fill="#E4897B"/>
<path d="M288.175 197.059C289.51 199.419 309.937 188.669 307.615 182.899C305.292 177.129 299.208 179.219 299.208 179.219C299.208 179.219 288.417 181.559 286.599 186.889C284.781 192.219 288.175 197.059 288.175 197.059Z" fill="#263238"/>
<path d="M284.245 198.09C284.435 199.822 285.31 201.421 286.694 202.56C288.543 204.05 290.382 202.72 290.634 200.56C290.865 198.63 290.182 195.56 287.965 194.86C285.748 194.16 284.035 196 284.245 198.09Z" fill="#E4897B"/>
<path d="M316.378 282.149C316.378 282.149 376.841 287.689 376.21 315.439C375.559 344.309 353.776 370.309 353.776 370.309L342.354 364.159C342.354 364.159 354.963 338.749 354.312 321.439C353.786 306.639 295.804 303.799 295.804 303.799L287.807 282.149H316.378Z" fill="#142C52"/>
<path opacity="0.6" d="M316.378 282.149C316.378 282.149 376.841 287.689 376.21 315.439C375.559 344.309 353.776 370.309 353.776 370.309L342.354 364.159C342.354 364.159 354.963 338.749 354.312 321.439C353.786 306.639 295.804 303.799 295.804 303.799L287.807 282.149H316.378Z" fill="#FAFAFA"/>
<path d="M337.447 298.42L338.666 310.22C347.124 312.74 353.629 316.22 354.27 320.88C355.699 310.44 348.049 304.27 337.447 298.42Z" fill="#142C52"/>
<path opacity="0.4" d="M337.447 298.42L338.666 310.22C347.124 312.74 353.629 316.22 354.27 320.88C355.699 310.44 348.049 304.27 337.447 298.42Z" fill="#FAFAFA"/>
<path d="M306.123 282.149C306.123 282.149 347.608 295.229 348.659 311.419C350.592 341.229 336.816 380.519 336.816 380.519H323.723C323.723 380.519 324.459 354.449 326.025 327.439C327.979 293.509 265.079 326.969 277.541 282.149H306.123Z" fill="#142C52"/>
<path opacity="0.6" d="M306.123 282.149C306.123 282.149 347.608 295.229 348.659 311.419C350.592 341.229 336.816 380.519 336.816 380.519H323.723C323.723 380.519 324.459 354.449 326.025 327.439C327.979 293.509 265.079 326.969 277.541 282.149H306.123Z" fill="#FAFAFA"/>
<path d="M301.909 196.65C301.772 197.37 302.067 198.02 302.56 198.11C303.054 198.2 303.611 197.67 303.706 196.95C303.8 196.23 303.548 195.57 303.054 195.49C302.56 195.41 302.046 195.92 301.909 196.65Z" fill="#263238"/>
<path d="M310.483 198.11C310.357 198.83 310.641 199.48 311.145 199.57C311.65 199.66 312.196 199.14 312.291 198.41C312.385 197.68 312.133 197.04 311.629 196.95C311.124 196.86 310.62 197.38 310.483 198.11Z" fill="#263238"/>
<path d="M311.408 197L313.321 196.81C313.321 196.81 312.133 198 311.408 197Z" fill="#263238"/>
<path d="M307.982 199C308.344 200.736 308.948 202.417 309.779 204C309.341 204.191 308.864 204.29 308.382 204.29C307.899 204.29 307.423 204.191 306.984 204L307.982 199Z" fill="#DE5753"/>
<path d="M302.655 205.94H302.592C301.065 205.256 299.87 204.044 299.25 202.55C299.244 202.533 299.241 202.515 299.243 202.497C299.244 202.478 299.249 202.461 299.258 202.445C299.267 202.429 299.279 202.415 299.294 202.404C299.309 202.392 299.327 202.384 299.345 202.38C299.362 202.373 299.381 202.371 299.399 202.371C299.418 202.372 299.436 202.376 299.452 202.383C299.469 202.391 299.484 202.402 299.496 202.415C299.508 202.428 299.518 202.443 299.524 202.46C300.116 203.872 301.24 205.023 302.676 205.69C302.71 205.705 302.737 205.732 302.751 205.766C302.764 205.799 302.764 205.837 302.75 205.87C302.74 205.887 302.726 205.902 302.71 205.914C302.694 205.926 302.675 205.935 302.655 205.94Z" fill="#263238"/>
<path d="M300.953 193.409C300.912 193.409 300.872 193.4 300.835 193.383C300.799 193.366 300.767 193.34 300.743 193.309C300.714 193.286 300.691 193.257 300.675 193.224C300.659 193.191 300.651 193.156 300.651 193.119C300.651 193.083 300.659 193.048 300.675 193.015C300.691 192.982 300.714 192.953 300.743 192.929C301.25 192.485 301.862 192.162 302.528 191.988C303.193 191.814 303.892 191.794 304.567 191.929C304.641 191.948 304.704 191.994 304.743 192.057C304.781 192.119 304.792 192.194 304.772 192.264C304.753 192.335 304.705 192.395 304.639 192.431C304.573 192.468 304.494 192.478 304.42 192.459C303.834 192.348 303.228 192.373 302.654 192.531C302.08 192.69 301.554 192.977 301.121 193.369C301.07 193.398 301.012 193.412 300.953 193.409Z" fill="#263238"/>
<path d="M315.17 194.86C315.114 194.856 315.061 194.838 315.014 194.808C314.968 194.779 314.931 194.738 314.907 194.69C314.684 194.165 314.333 193.697 313.884 193.325C313.435 192.953 312.9 192.688 312.322 192.55C312.246 192.537 312.178 192.497 312.132 192.437C312.087 192.377 312.068 192.303 312.081 192.23C312.096 192.159 312.139 192.096 312.202 192.055C312.265 192.014 312.342 191.998 312.417 192.01C313.091 192.158 313.717 192.459 314.242 192.887C314.767 193.316 315.176 193.858 315.433 194.47C315.45 194.502 315.46 194.538 315.461 194.574C315.463 194.611 315.457 194.647 315.443 194.681C315.429 194.715 315.408 194.745 315.381 194.771C315.354 194.797 315.321 194.817 315.285 194.83C315.251 194.85 315.211 194.861 315.17 194.86Z" fill="#263238"/>
<path d="M337.184 393.35C336.06 393.35 334.536 392.23 333.685 391.51C333.659 391.492 333.64 391.467 333.631 391.438C333.621 391.41 333.622 391.379 333.632 391.35C333.642 391.321 333.66 391.296 333.684 391.276C333.708 391.257 333.738 391.244 333.769 391.24C334.158 391.24 337.573 390.94 338.287 391.83C338.364 391.924 338.413 392.035 338.43 392.153C338.446 392.271 338.43 392.39 338.382 392.5C338.324 392.693 338.215 392.868 338.066 393.01C337.918 393.152 337.733 393.255 337.531 393.31C337.417 393.334 337.301 393.348 337.184 393.35ZM334.179 391.52C335.566 392.62 336.764 393.18 337.447 393.01C337.599 392.97 337.737 392.892 337.847 392.785C337.958 392.678 338.037 392.545 338.077 392.4C338.117 392.344 338.138 392.278 338.138 392.21C338.138 392.142 338.117 392.076 338.077 392.02C337.573 391.44 335.366 391.45 334.179 391.52Z" fill="#142C52"/>
<path d="M333.79 391.55C333.761 391.552 333.732 391.545 333.708 391.531C333.683 391.517 333.664 391.495 333.653 391.47C333.64 391.447 333.634 391.421 333.634 391.395C333.634 391.369 333.64 391.343 333.653 391.32C333.706 391.23 334.998 388.94 336.322 388.64C336.481 388.596 336.649 388.589 336.811 388.618C336.974 388.648 337.127 388.714 337.257 388.81C337.405 388.883 337.521 389.003 337.585 389.149C337.648 389.296 337.655 389.459 337.604 389.61C337.321 390.53 334.956 391.52 333.8 391.55H333.79ZM336.606 388.91H336.385C335.44 389.12 334.452 390.59 334.074 391.18C335.177 391.02 337.068 390.18 337.289 389.49C337.289 389.38 337.342 389.21 337.068 389.03C336.931 388.945 336.769 388.903 336.606 388.91Z" fill="#142C52"/>
<path d="M302.823 195.49L304.746 195.3C304.746 195.3 303.548 196.5 302.823 195.49Z" fill="#263238"/>
<path d="M276.953 280L276.648 283.31C276.511 283.57 276.827 283.83 277.278 283.83H316.567C316.925 283.83 317.208 283.67 317.229 283.46L317.587 280.15C317.587 279.92 317.303 279.72 316.925 279.72H277.583C277.462 279.713 277.341 279.736 277.231 279.784C277.121 279.833 277.025 279.907 276.953 280Z" fill="#263238"/>
<path d="M282.238 284.17H281.187C280.977 284.17 280.82 284.07 280.83 283.94L281.324 279.64C281.324 279.51 281.524 279.41 281.734 279.41H282.785C282.995 279.41 283.152 279.51 283.142 279.64L282.648 283.94C282.627 284.07 282.459 284.17 282.238 284.17Z" fill="#142C52"/>
<path opacity="0.6" d="M282.238 284.17H281.187C280.977 284.17 280.82 284.07 280.83 283.94L281.324 279.64C281.324 279.51 281.524 279.41 281.734 279.41H282.785C282.995 279.41 283.152 279.51 283.142 279.64L282.648 283.94C282.627 284.07 282.459 284.17 282.238 284.17Z" fill="#FAFAFA"/>
<path d="M313.615 284.17H312.564C312.354 284.17 312.196 284.07 312.217 283.94L312.711 279.64C312.711 279.51 312.9 279.41 313.11 279.41H314.161C314.371 279.41 314.529 279.51 314.508 279.64L314.014 283.94C313.983 284.07 313.825 284.17 313.615 284.17Z" fill="#142C52"/>
<path opacity="0.6" d="M313.615 284.17H312.564C312.354 284.17 312.196 284.07 312.217 283.94L312.711 279.64C312.711 279.51 312.9 279.41 313.11 279.41H314.161C314.371 279.41 314.529 279.51 314.508 279.64L314.014 283.94C313.983 284.07 313.825 284.17 313.615 284.17Z" fill="#FAFAFA"/>
<path d="M297.926 284.17H296.876C296.666 284.17 296.497 284.07 296.518 283.94L297.012 279.64C297.012 279.51 297.212 279.41 297.422 279.41H298.473C298.683 279.41 298.841 279.51 298.83 279.64L298.336 283.94C298.315 284.07 298.137 284.17 297.926 284.17Z" fill="#142C52"/>
<path opacity="0.6" d="M297.926 284.17H296.876C296.666 284.17 296.497 284.07 296.518 283.94L297.012 279.64C297.012 279.51 297.212 279.41 297.422 279.41H298.473C298.683 279.41 298.841 279.51 298.83 279.64L298.336 283.94C298.315 284.07 298.137 284.17 297.926 284.17Z" fill="#FAFAFA"/>
<path d="M279.79 241.29L274.778 245.35C275.828 250.75 276.564 255.25 277.026 259.25C277.962 255.24 280.357 244.36 279.79 241.29Z" fill="#142C52"/>
<path opacity="0.3" d="M279.79 241.29L274.778 245.35C275.828 250.75 276.564 255.25 277.026 259.25C277.962 255.24 280.357 244.36 279.79 241.29Z" fill="black"/>
<path d="M385.972 256.6H317.807L307.93 294.91H376.095L385.972 256.6Z" fill="#FAFAFA"/>
<path d="M351.433 287.78L309.748 297.03L282.995 289.89L283.268 287.78H351.433Z" fill="#FAFAFA"/>
<path d="M276.448 240.119C275.639 242.669 274.757 245.299 273.968 247.899C273.18 250.499 272.35 253.119 271.636 255.729C270.921 258.339 270.238 260.939 269.713 263.489C269.461 264.759 269.219 266.029 269.061 267.229C268.949 268.072 268.889 268.92 268.883 269.769C269.114 270.451 269.51 271.07 270.039 271.579C270.836 272.403 271.72 273.147 272.676 273.799C274.864 275.282 277.172 276.596 279.58 277.729C282.049 278.939 284.634 280.039 287.271 281.059C289.909 282.079 292.599 283.059 295.236 284.059L294.018 288.579C291.002 288.129 288.133 287.489 285.212 286.799C282.291 286.109 279.443 285.199 276.574 284.199C273.61 283.168 270.754 281.876 268.042 280.339C266.535 279.481 265.126 278.476 263.839 277.339C262.221 275.95 260.997 274.196 260.277 272.239C260.079 271.643 259.941 271.03 259.867 270.409V269.929V269.569V268.929C259.867 268.089 259.867 267.289 259.867 266.499C259.951 264.939 260.13 263.499 260.361 261.999C260.792 259.079 261.412 256.259 262.063 253.479C263.405 247.947 265.043 242.483 266.97 237.109L276.448 240.119Z" fill="#E4897B"/>
<path d="M270.648 227C266.76 228.13 260.802 242.67 260.802 242.67L275.902 252.94C275.902 252.94 282.69 240.51 281.051 235.72C279.307 230.69 275.103 225.67 270.648 227Z" fill="#142C52"/>
<path opacity="0.2" d="M270.648 227C266.76 228.13 260.802 242.67 260.802 242.67L275.902 252.94C275.902 252.94 282.69 240.51 281.051 235.72C279.307 230.69 275.103 225.67 270.648 227Z" fill="black"/>
<path d="M293.271 284.339L302.35 282.149L298.021 290.439C298.021 290.439 291.895 290.689 289.867 287.439L293.271 284.339Z" fill="#E4897B"/>
<path d="M309.674 285.299L305.66 292.059L298.021 290.439L302.35 282.149L309.674 285.299Z" fill="#E4897B"/>
<path d="M388.074 256.6H319.909L310.032 294.91H378.196L388.074 256.6Z" fill="#263238"/>
<path d="M378.196 294.91L377.923 297.03H309.748L310.021 294.91H378.196Z" fill="#263238"/>
<path d="M305.986 186.42C315.17 189.92 315.926 194.95 315.443 191.42C314.75 186.35 310.326 182.7 307.152 181.47C305.292 180.73 301.972 184.89 305.986 186.42Z" fill="#263238"/>
<path d="M288.869 190.999L288.249 191.689C288.152 191.785 288.098 191.912 288.098 192.044C288.098 192.177 288.152 192.304 288.249 192.399L293.208 196.699C293.307 196.786 293.437 196.834 293.571 196.834C293.705 196.834 293.835 196.786 293.933 196.699L294.785 195.949C294.841 195.902 294.886 195.843 294.916 195.778C294.947 195.712 294.963 195.641 294.963 195.569C294.963 195.498 294.947 195.427 294.916 195.361C294.886 195.296 294.841 195.237 294.785 195.189L289.583 190.949C289.479 190.872 289.348 190.835 289.216 190.844C289.084 190.853 288.96 190.909 288.869 190.999Z" fill="#142C52"/>
<path opacity="0.3" d="M288.869 190.999L288.249 191.689C288.152 191.785 288.098 191.912 288.098 192.044C288.098 192.177 288.152 192.304 288.249 192.399L293.208 196.699C293.307 196.786 293.437 196.834 293.571 196.834C293.705 196.834 293.835 196.786 293.933 196.699L294.785 195.949C294.841 195.902 294.886 195.843 294.916 195.778C294.947 195.712 294.963 195.641 294.963 195.569C294.963 195.498 294.947 195.427 294.916 195.361C294.886 195.296 294.841 195.237 294.785 195.189L289.583 190.949C289.479 190.872 289.348 190.835 289.216 190.844C289.084 190.853 288.96 190.909 288.869 190.999Z" fill="black"/>
<path d="M287.597 224.259C287.702 225.019 288.585 228.769 296.088 230.179C296.088 230.179 293.86 232.489 292.599 238.019C292.599 238.019 279.443 233.109 283.436 225.149C283.468 225.086 283.515 225.03 283.573 224.986C283.631 224.943 283.7 224.913 283.772 224.899L287.429 224.159C287.447 224.155 287.466 224.154 287.484 224.157C287.502 224.159 287.52 224.166 287.536 224.175C287.551 224.184 287.565 224.197 287.576 224.211C287.586 224.226 287.594 224.242 287.597 224.259Z" fill="#142C52"/>
<path opacity="0.6" d="M287.597 224.259C287.702 225.019 288.585 228.769 296.088 230.179C296.088 230.179 293.86 232.489 292.599 238.019C292.599 238.019 279.443 233.109 283.436 225.149C283.468 225.086 283.515 225.03 283.573 224.986C283.631 224.943 283.7 224.913 283.772 224.899L287.429 224.159C287.447 224.155 287.466 224.154 287.484 224.157C287.502 224.159 287.52 224.166 287.536 224.175C287.551 224.184 287.565 224.197 287.576 224.211C287.586 224.226 287.594 224.242 287.597 224.259Z" fill="#FAFAFA"/>
<path d="M304.357 224.84C305.261 225.75 307.73 228.84 301.489 230.26C301.489 230.26 305.282 232.26 306.543 237.79C306.543 237.79 315.884 231.68 307.384 225.04C307.374 225.036 307.363 225.033 307.352 225.033C307.341 225.033 307.33 225.036 307.321 225.04L304.473 224.66C304.451 224.662 304.43 224.668 304.412 224.679C304.393 224.69 304.378 224.704 304.367 224.722C304.355 224.74 304.349 224.759 304.347 224.78C304.345 224.801 304.349 224.821 304.357 224.84Z" fill="#142C52"/>
<path opacity="0.6" d="M304.357 224.84C305.261 225.75 307.73 228.84 301.489 230.26C301.489 230.26 305.282 232.26 306.543 237.79C306.543 237.79 315.884 231.68 307.384 225.04C307.374 225.036 307.363 225.033 307.352 225.033C307.341 225.033 307.33 225.036 307.321 225.04L304.473 224.66C304.451 224.662 304.43 224.668 304.412 224.679C304.393 224.69 304.378 224.704 304.367 224.722C304.355 224.74 304.349 224.759 304.347 224.78C304.345 224.801 304.349 224.821 304.357 224.84Z" fill="#FAFAFA"/>
<path d="M393.538 167.3C391.94 151.59 377.429 138.86 361.131 138.87C344.834 138.88 332.897 151.61 334.525 167.32C335.114 172.418 336.975 177.307 339.955 181.58C342.935 185.852 346.946 189.384 351.653 191.88L351.391 201.88L360.133 195.03C362.363 195.521 364.643 195.773 366.932 195.78C383.229 195.75 395.145 183 393.538 167.3Z" fill="#142C52"/>
<path opacity="0.6" d="M393.538 167.3C391.94 151.59 377.429 138.86 361.131 138.87C344.834 138.88 332.897 151.61 334.525 167.32C335.114 172.418 336.975 177.307 339.955 181.58C342.935 185.852 346.946 189.384 351.653 191.88L351.391 201.88L360.133 195.03C362.363 195.521 364.643 195.773 366.932 195.78C383.229 195.75 395.145 183 393.538 167.3Z" fill="#FAFAFA"/>
<path d="M366.522 162.36C359.303 160.29 354.207 152.94 354.207 152.94C354.207 152.94 351.979 152.82 352.105 154.76C352.338 157.446 353.634 159.948 355.73 161.76L352.347 161.58C351.156 161.516 349.963 161.641 348.816 161.95L347.765 162.24C347.315 162.37 346.899 162.588 346.542 162.879C346.185 163.17 345.895 163.528 345.69 163.932C345.486 164.335 345.372 164.774 345.354 165.221C345.337 165.668 345.417 166.114 345.59 166.53L347.839 172.84C348.584 174.881 350.076 176.599 352.042 177.68C353.707 178.625 355.66 179.002 357.58 178.75C360.963 178.26 366.228 177.51 367.131 177.35L369.559 177.15L368.844 163L366.522 162.36Z" fill="#FAFAFA"/>
<path d="M379.215 179.06H369.758C369.394 179.048 369.047 178.913 368.779 178.678C368.511 178.443 368.34 178.125 368.298 177.78L366.659 161.68C366.638 161.519 366.653 161.356 366.704 161.201C366.754 161.046 366.839 160.903 366.953 160.782C367.066 160.661 367.205 160.564 367.361 160.498C367.517 160.433 367.686 160.399 367.856 160.4H377.313C377.681 160.41 378.032 160.546 378.303 160.784C378.573 161.021 378.744 161.343 378.785 161.69L380.424 177.78C380.443 177.942 380.426 178.106 380.374 178.261C380.322 178.415 380.236 178.558 380.122 178.679C380.008 178.8 379.868 178.897 379.712 178.962C379.555 179.028 379.386 179.061 379.215 179.06Z" fill="#142C52"/>
<path d="M240.312 244.22L230.855 235.69C230.991 233.911 230.97 232.125 230.792 230.35C229.016 212.99 212.981 198.92 194.97 198.93C176.96 198.94 163.804 213.02 165.548 230.38C167.292 247.74 183.349 261.81 201.359 261.8C206.91 261.887 212.371 260.454 217.09 257.67C221.81 254.887 225.588 250.87 227.975 246.1L240.312 244.22Z" fill="#142C52"/>
<path d="M213.296 219.12C208.368 214.79 201.096 214.8 197.061 219.12C192.133 214.8 184.862 214.8 180.816 219.12C176.771 223.44 177.485 230.46 182.413 234.78L200.277 250.43L214.914 234.77C218.939 230.45 218.224 223.44 213.296 219.12Z" fill="#142C52"/>
<path opacity="0.6" d="M213.296 219.12C208.368 214.79 201.096 214.8 197.061 219.12C192.133 214.8 184.862 214.8 180.816 219.12C176.771 223.44 177.485 230.46 182.413 234.78L200.277 250.43L214.914 234.77C218.939 230.45 218.224 223.44 213.296 219.12Z" fill="#FAFAFA"/>
</g>
<defs>
<filter id="filter0_d_920_8628" x="0" y="0" width="608" height="486" filterUnits="userSpaceOnUse" color-interpolation-filters="sRGB">
<feFlood flood-opacity="0" result="BackgroundImageFix"/>
<feColorMatrix in="SourceAlpha" type="matrix" values="0 0 0 0 0 0 0 0 0 0 0 0 0 0 0 0 0 0 127 0" result="hardAlpha"/>
<feOffset dy="4"/>
<feGaussianBlur stdDeviation="2"/>
<feComposite in2="hardAlpha" operator="out"/>
<feColorMatrix type="matrix" values="0 0 0 0 0 0 0 0 0 0 0 0 0 0 0 0 0 0 0.25 0"/>
<feBlend mode="normal" in2="BackgroundImageFix" result="effect1_dropShadow_920_8628"/>
<feBlend mode="normal" in="SourceGraphic" in2="effect1_dropShadow_920_8628" result="shape"/>
</filter>
<clipPath id="clip0_920_8628">
<rect width="525.394" height="500" fill="white" transform="translate(47.0823)"/>
</clipPath>
</defs>
</svg>
