<svg width="190" height="57" viewBox="0 0 190 57" fill="none" xmlns="http://www.w3.org/2000/svg">
<rect x="1" y="1" width="188" height="55" rx="9" fill="#06121E"/>
<path d="M35.9709 33.644H34.9149C34.2536 33.644 33.7629 33.5107 33.4429 33.244C33.1336 32.9773 32.9789 32.5133 32.9789 31.852V25.66H34.7869V31.98C34.7869 32.108 34.8509 32.172 34.9789 32.172H36.7069C36.8349 32.172 36.8989 32.108 36.8989 31.98V25.66H38.6589V31.98C38.6589 32.108 38.7229 32.172 38.8509 32.172H40.6109C40.7389 32.172 40.8029 32.108 40.8029 31.98L40.7709 25.66H42.5789L42.6109 31.804C42.6109 32.4653 42.4563 32.94 42.1469 33.228C41.8376 33.5053 41.3469 33.644 40.6749 33.644H39.5869C38.9469 33.644 38.4723 33.5 38.1629 33.212C37.8536 32.9133 37.6989 32.444 37.6989 31.804H37.8589C37.8589 32.444 37.7043 32.9133 37.3949 33.212C37.0963 33.5 36.6216 33.644 35.9709 33.644ZM51.3988 25.516H52.1348C52.8068 25.516 53.2975 25.6547 53.6068 25.932C53.9161 26.2093 54.0708 26.684 54.0708 27.356V33.5H52.2628V27.18C52.2628 27.052 52.1988 26.988 52.0708 26.988H50.1508C50.0228 26.988 49.9588 27.052 49.9588 27.18L49.9748 33.5H48.1668L48.1508 22.7H49.9588V26.988L49.8468 27.196C49.8468 26.652 49.9695 26.236 50.2148 25.948C50.4601 25.66 50.8548 25.516 51.3988 25.516ZM61.7654 33.644H61.1574C60.4961 33.644 60.0054 33.5053 59.6854 33.228C59.3761 32.94 59.2214 32.4653 59.2214 31.804V30.78C59.2214 30.0547 59.3868 29.5533 59.7174 29.276C60.0481 28.988 60.6028 28.844 61.3814 28.844H63.3974V30.14H61.2054C61.0774 30.14 61.0134 30.204 61.0134 30.332V31.98C61.0134 32.108 61.0774 32.172 61.2054 32.172H63.1894V27.356C63.1894 27.228 63.1254 27.164 62.9974 27.164H59.7334V25.644H62.8054C63.5948 25.6333 64.1601 25.7827 64.5014 26.092C64.8428 26.4013 65.0134 26.9347 65.0134 27.692V33.5H63.3814L63.1894 32.172L63.2854 31.964C63.2854 32.4973 63.1681 32.9133 62.9334 33.212C62.6988 33.5 62.3094 33.644 61.7654 33.644ZM74.5589 25.66V27.068H72.5909L72.7509 26.908V31.788C72.7509 31.916 72.8149 31.98 72.9429 31.98H74.5589V33.5H73.3269C72.4949 33.5 71.8869 33.34 71.5029 33.02C71.1296 32.6893 70.9429 32.1453 70.9429 31.388V26.908L71.1029 27.068H70.0789V25.66H71.1029L70.9429 25.82V23.66H72.7509V25.82L72.5909 25.66H74.5589ZM82.6804 33.532H79.3044L79.2884 32.076H82.6324C82.7604 32.076 82.8244 32.012 82.8244 31.884V30.428C82.8244 30.3 82.7604 30.236 82.6324 30.236H81.3204C80.5418 30.236 79.9818 30.092 79.6404 29.804C79.3098 29.516 79.1444 29.0093 79.1444 28.284V27.58C79.1444 26.8227 79.3204 26.2893 79.6724 25.98C80.0244 25.6707 80.5898 25.516 81.3684 25.516L84.1844 25.532V27.052H81.1604C81.0324 27.052 80.9684 27.116 80.9684 27.244V28.62C80.9684 28.748 81.0324 28.812 81.1604 28.812H82.4564C83.2458 28.812 83.8004 28.956 84.1204 29.244C84.4511 29.5213 84.6164 30.0227 84.6164 30.748V31.708C84.6164 32.3693 84.4618 32.8387 84.1524 33.116C83.8431 33.3933 83.3524 33.532 82.6804 33.532ZM91.9373 33.644H91.3293C90.668 33.644 90.1773 33.5053 89.8573 33.228C89.548 32.94 89.3933 32.4653 89.3933 31.804V30.78C89.3933 30.0547 89.5586 29.5533 89.8893 29.276C90.22 28.988 90.7746 28.844 91.5533 28.844H93.5693V30.14H91.3773C91.2493 30.14 91.1853 30.204 91.1853 30.332V31.98C91.1853 32.108 91.2493 32.172 91.3773 32.172H93.3613V27.356C93.3613 27.228 93.2973 27.164 93.1693 27.164H89.9053V25.644H92.9773C93.7666 25.6333 94.332 25.7827 94.6733 26.092C95.0146 26.4013 95.1853 26.9347 95.1853 27.692V33.5H93.5533L93.3613 32.172L93.4573 31.964C93.4573 32.4973 93.34 32.9133 93.1053 33.212C92.8706 33.5 92.4813 33.644 91.9373 33.644ZM102.555 36.54H100.731V25.66H102.347L102.555 26.988L102.475 27.196C102.475 26.652 102.592 26.236 102.827 25.948C103.072 25.66 103.456 25.516 103.979 25.516H104.715C105.387 25.516 105.877 25.6547 106.187 25.932C106.496 26.2093 106.651 26.684 106.651 27.356V31.596C106.651 32.3213 106.485 32.828 106.155 33.116C105.835 33.404 105.28 33.5427 104.491 33.532L102.555 33.516V36.54ZM102.555 27.18V32.252L102.347 32.044L104.667 32.06C104.795 32.06 104.859 31.996 104.859 31.868V27.18C104.859 27.052 104.795 26.988 104.667 26.988H102.747C102.619 26.988 102.555 27.052 102.555 27.18ZM114.008 36.54H112.184V25.66H113.8L114.008 26.988L113.928 27.196C113.928 26.652 114.045 26.236 114.28 25.948C114.525 25.66 114.909 25.516 115.432 25.516H116.168C116.84 25.516 117.331 25.6547 117.64 25.932C117.949 26.2093 118.104 26.684 118.104 27.356V31.596C118.104 32.3213 117.939 32.828 117.608 33.116C117.288 33.404 116.733 33.5427 115.944 33.532L114.008 33.516V36.54ZM114.008 27.18V32.252L113.8 32.044L116.12 32.06C116.248 32.06 116.312 31.996 116.312 31.868V27.18C116.312 27.052 116.248 26.988 116.12 26.988H114.2C114.072 26.988 114.008 27.052 114.008 27.18Z" fill="#07F9A2"/>
<path d="M33.4429 33.244L32.79 34.0014L32.7963 34.0069L32.8028 34.0122L33.4429 33.244ZM32.9789 25.66V24.66H31.9789V25.66H32.9789ZM34.7869 25.66H35.7869V24.66H34.7869V25.66ZM36.8989 25.66V24.66H35.8989V25.66H36.8989ZM38.6589 25.66H39.6589V24.66H38.6589V25.66ZM40.8029 31.98H41.8029L41.8029 31.9749L40.8029 31.98ZM40.7709 25.66V24.66H39.7659L39.771 25.6651L40.7709 25.66ZM42.5789 25.66L43.5789 25.6548L43.5737 24.66H42.5789V25.66ZM42.6109 31.804H43.611L43.6109 31.7988L42.6109 31.804ZM42.1469 33.228L42.8145 33.9726L42.8215 33.9663L42.8284 33.9599L42.1469 33.228ZM38.1629 33.212L37.4683 33.9314L37.4749 33.9377L37.4815 33.9439L38.1629 33.212ZM37.6989 31.804V30.804H36.6989V31.804H37.6989ZM37.8589 31.804H38.8589V30.804H37.8589V31.804ZM37.3949 33.212L38.0891 33.9318L38.0895 33.9314L37.3949 33.212ZM35.9709 32.644H34.9149V34.644H35.9709V32.644ZM34.9149 32.644C34.3582 32.644 34.1443 32.5267 34.0831 32.4758L32.8028 34.0122C33.3816 34.4946 34.149 34.644 34.9149 34.644V32.644ZM34.0959 32.4866C34.1124 32.5009 33.9789 32.399 33.9789 31.852H31.9789C31.9789 32.6277 32.1548 33.4538 32.79 34.0014L34.0959 32.4866ZM33.9789 31.852V25.66H31.9789V31.852H33.9789ZM32.9789 26.66H34.7869V24.66H32.9789V26.66ZM33.7869 25.66V31.98H35.7869V25.66H33.7869ZM33.7869 31.98C33.7869 32.1981 33.8422 32.5454 34.1278 32.8311C34.4135 33.1168 34.7608 33.172 34.9789 33.172V31.172C35.0691 31.172 35.3204 31.1952 35.542 31.4169C35.7637 31.6386 35.7869 31.8899 35.7869 31.98H33.7869ZM34.9789 33.172H36.7069V31.172H34.9789V33.172ZM36.7069 33.172C36.9251 33.172 37.2724 33.1168 37.558 32.8311C37.8437 32.5454 37.8989 32.1981 37.8989 31.98H35.8989C35.8989 31.8899 35.9222 31.6386 36.1438 31.4169C36.3655 31.1952 36.6168 31.172 36.7069 31.172V33.172ZM37.8989 31.98V25.66H35.8989V31.98H37.8989ZM36.8989 26.66H38.6589V24.66H36.8989V26.66ZM37.6589 25.66V31.98H39.6589V25.66H37.6589ZM37.6589 31.98C37.6589 32.1981 37.7142 32.5454 37.9998 32.8311C38.2855 33.1168 38.6328 33.172 38.8509 33.172V31.172C38.9411 31.172 39.1924 31.1952 39.414 31.4169C39.6357 31.6386 39.6589 31.8899 39.6589 31.98H37.6589ZM38.8509 33.172H40.6109V31.172H38.8509V33.172ZM40.6109 33.172C40.8291 33.172 41.1764 33.1168 41.462 32.8311C41.7477 32.5454 41.8029 32.1981 41.8029 31.98H39.8029C39.8029 31.8899 39.8262 31.6386 40.0478 31.4169C40.2695 31.1952 40.5208 31.172 40.6109 31.172V33.172ZM41.8029 31.9749L41.7709 25.6549L39.771 25.6651L39.803 31.9851L41.8029 31.9749ZM40.7709 26.66H42.5789V24.66H40.7709V26.66ZM41.579 25.6652L41.611 31.8092L43.6109 31.7988L43.5789 25.6548L41.579 25.6652ZM41.6109 31.804C41.6109 32.3417 41.4813 32.4814 41.4655 32.4961L42.8284 33.9599C43.4313 33.3986 43.6109 32.589 43.6109 31.804H41.6109ZM41.4794 32.4834C41.4378 32.5207 41.244 32.644 40.6749 32.644V34.644C41.4499 34.644 42.2374 34.49 42.8145 33.9726L41.4794 32.4834ZM40.6749 32.644H39.5869V34.644H40.6749V32.644ZM39.5869 32.644C39.0731 32.644 38.8931 32.5255 38.8444 32.4801L37.4815 33.9439C38.0515 34.4745 38.8207 34.644 39.5869 34.644V32.644ZM38.8575 32.4926C38.8214 32.4577 38.6989 32.3048 38.6989 31.804H36.6989C36.6989 32.5832 36.8858 33.3689 37.4683 33.9314L38.8575 32.4926ZM37.6989 32.804H37.8589V30.804H37.6989V32.804ZM36.8589 31.804C36.8589 32.3048 36.7365 32.4577 36.7003 32.4926L38.0895 33.9314C38.6721 33.3689 38.8589 32.5832 38.8589 31.804H36.8589ZM36.7008 32.4922C36.6704 32.5215 36.5047 32.644 35.9709 32.644V34.644C36.7385 34.644 37.5221 34.4785 38.0891 33.9318L36.7008 32.4922ZM53.6068 25.932L54.2744 25.1874H54.2744L53.6068 25.932ZM54.0708 33.5V34.5H55.0708V33.5H54.0708ZM52.2628 33.5H51.2628V34.5H52.2628V33.5ZM49.9588 27.18H48.9588L48.9588 27.1825L49.9588 27.18ZM49.9748 33.5V34.5H50.9773L50.9748 33.4975L49.9748 33.5ZM48.1668 33.5L47.1668 33.5015L47.1683 34.5H48.1668V33.5ZM48.1508 22.7V21.7H47.1493L47.1508 22.7015L48.1508 22.7ZM49.9588 22.7H50.9588V21.7H49.9588V22.7ZM49.9588 26.988L50.8393 27.4621L50.9588 27.2401V26.988H49.9588ZM49.8468 27.196H48.8468L50.7273 27.6701L49.8468 27.196ZM50.2148 25.948L49.4536 25.2995V25.2995L50.2148 25.948ZM51.3988 26.516H52.1348V24.516H51.3988V26.516ZM52.1348 26.516C52.7039 26.516 52.8977 26.6393 52.9393 26.6766L54.2744 25.1874C53.6973 24.67 52.9097 24.516 52.1348 24.516V26.516ZM52.9393 26.6766C52.9408 26.678 52.9479 26.6845 52.9588 26.7021C52.9701 26.7205 52.9868 26.753 53.004 26.8058C53.0397 26.9153 53.0708 27.0913 53.0708 27.356H55.0708C55.0708 26.5708 54.8958 25.7445 54.2744 25.1874L52.9393 26.6766ZM53.0708 27.356V33.5H55.0708V27.356H53.0708ZM54.0708 32.5H52.2628V34.5H54.0708V32.5ZM53.2628 33.5V27.18H51.2628V33.5H53.2628ZM53.2628 27.18C53.2628 26.9619 53.2076 26.6146 52.9219 26.3289C52.6362 26.0432 52.289 25.988 52.0708 25.988V27.988C51.9807 27.988 51.7294 27.9648 51.5077 27.7431C51.286 27.5214 51.2628 27.2701 51.2628 27.18H53.2628ZM52.0708 25.988H50.1508V27.988H52.0708V25.988ZM50.1508 25.988C49.9327 25.988 49.5854 26.0432 49.2997 26.3289C49.014 26.6146 48.9588 26.9619 48.9588 27.18H50.9588C50.9588 27.2701 50.9356 27.5214 50.7139 27.7431C50.4922 27.9648 50.241 27.988 50.1508 27.988V25.988ZM48.9588 27.1825L48.9748 33.5025L50.9748 33.4975L50.9588 27.1775L48.9588 27.1825ZM49.9748 32.5H48.1668V34.5H49.9748V32.5ZM49.1668 33.4985L49.1508 22.6985L47.1508 22.7015L47.1668 33.5015L49.1668 33.4985ZM48.1508 23.7H49.9588V21.7H48.1508V23.7ZM48.9588 22.7V26.988H50.9588V22.7H48.9588ZM49.0783 26.5139L48.9663 26.7219L50.7273 27.6701L50.8393 27.4621L49.0783 26.5139ZM50.8468 27.196C50.8468 26.7875 50.9402 26.6386 50.9761 26.5965L49.4536 25.2995C48.9988 25.8334 48.8468 26.5165 48.8468 27.196H50.8468ZM50.9761 26.5965C50.9774 26.5949 50.9799 26.5922 50.9863 26.5878C50.9932 26.5832 51.0087 26.574 51.0376 26.5634C51.0981 26.5414 51.211 26.516 51.3988 26.516V24.516C50.6941 24.516 49.9606 24.7044 49.4536 25.2995L50.9761 26.5965ZM59.6854 33.228L59.004 33.9599L59.0171 33.972L59.0305 33.9837L59.6854 33.228ZM59.7174 29.276L60.3601 30.0422L60.3672 30.0362L60.3742 30.0301L59.7174 29.276ZM63.3974 28.844H64.3974V27.844H63.3974V28.844ZM63.3974 30.14V31.14H64.3974V30.14H63.3974ZM63.1894 32.172V33.172H64.1894V32.172H63.1894ZM59.7334 27.164H58.7334V28.164H59.7334V27.164ZM59.7334 25.644V24.644H58.7334V25.644H59.7334ZM62.8054 25.644V26.6441L62.8189 26.6439L62.8054 25.644ZM64.5014 26.092L65.173 25.351L64.5014 26.092ZM65.0134 33.5V34.5H66.0134V33.5H65.0134ZM63.3814 33.5L62.3917 33.6431L62.5156 34.5H63.3814V33.5ZM63.1894 32.172L62.2815 31.7529L62.1573 32.0219L62.1997 32.3151L63.1894 32.172ZM63.2854 31.964H64.2854L62.3775 31.5449L63.2854 31.964ZM62.9334 33.212L63.7087 33.8437L63.7143 33.8368L63.7198 33.8298L62.9334 33.212ZM61.7654 32.644H61.1574V34.644H61.7654V32.644ZM61.1574 32.644C60.608 32.644 60.4005 32.5244 60.3404 32.4723L59.0305 33.9837C59.6104 34.4863 60.3842 34.644 61.1574 34.644V32.644ZM60.3669 32.4961C60.3511 32.4814 60.2214 32.3417 60.2214 31.804H58.2214C58.2214 32.589 58.4011 33.3986 59.004 33.9599L60.3669 32.4961ZM60.2214 31.804V30.78H58.2214V31.804H60.2214ZM60.2214 30.78C60.2214 30.4869 60.2556 30.2929 60.2951 30.1732C60.3141 30.1156 60.3323 30.0814 60.3439 30.0632C60.3496 30.0542 60.3539 30.0488 60.3564 30.046C60.3588 30.0432 60.36 30.0422 60.3601 30.0422L59.0748 28.5098C58.4018 29.0743 58.2214 29.9539 58.2214 30.78H60.2214ZM60.3742 30.0301C60.4267 29.9844 60.6754 29.844 61.3814 29.844V27.844C60.5302 27.844 59.6695 27.9916 59.0607 28.5219L60.3742 30.0301ZM61.3814 29.844H63.3974V27.844H61.3814V29.844ZM62.3974 28.844V30.14H64.3974V28.844H62.3974ZM63.3974 29.14H61.2054V31.14H63.3974V29.14ZM61.2054 29.14C60.9873 29.14 60.64 29.1952 60.3543 29.4809C60.0687 29.7666 60.0134 30.1139 60.0134 30.332H62.0134C62.0134 30.4221 61.9902 30.6734 61.7685 30.8951C61.5469 31.1168 61.2956 31.14 61.2054 31.14V29.14ZM60.0134 30.332V31.98H62.0134V30.332H60.0134ZM60.0134 31.98C60.0134 32.1981 60.0687 32.5454 60.3543 32.8311C60.64 33.1168 60.9873 33.172 61.2054 33.172V31.172C61.2956 31.172 61.5469 31.1952 61.7685 31.4169C61.9902 31.6386 62.0134 31.8899 62.0134 31.98H60.0134ZM61.2054 33.172H63.1894V31.172H61.2054V33.172ZM64.1894 32.172V27.356H62.1894V32.172H64.1894ZM64.1894 27.356C64.1894 27.1379 64.1342 26.7906 63.8485 26.5049C63.5629 26.2192 63.2156 26.164 62.9974 26.164V28.164C62.9073 28.164 62.656 28.1408 62.4343 27.9191C62.2127 27.6974 62.1894 27.4461 62.1894 27.356H64.1894ZM62.9974 26.164H59.7334V28.164H62.9974V26.164ZM60.7334 27.164V25.644H58.7334V27.164H60.7334ZM59.7334 26.644H62.8054V24.644H59.7334V26.644ZM62.8189 26.6439C63.5222 26.6344 63.7709 26.7795 63.8299 26.833L65.173 25.351C64.5493 24.7858 63.6673 24.6323 62.7919 24.6441L62.8189 26.6439ZM63.8299 26.833C63.8601 26.8604 64.0134 27.0414 64.0134 27.692H66.0134C66.0134 26.828 65.8254 25.9423 65.173 25.351L63.8299 26.833ZM64.0134 27.692V33.5H66.0134V27.692H64.0134ZM65.0134 32.5H63.3814V34.5H65.0134V32.5ZM64.3711 33.3569L64.1791 32.0289L62.1997 32.3151L62.3917 33.6431L64.3711 33.3569ZM64.0974 32.5911L64.1934 32.3831L62.3775 31.5449L62.2815 31.7529L64.0974 32.5911ZM62.2854 31.964C62.2854 32.362 62.197 32.5307 62.1471 32.5942L63.7198 33.8298C64.1392 33.296 64.2854 32.6326 64.2854 31.964H62.2854ZM62.1582 32.5803C62.1666 32.5701 62.1658 32.5806 62.1185 32.5981C62.0634 32.6185 61.9538 32.644 61.7654 32.644V34.644C62.4661 34.644 63.2088 34.4572 63.7087 33.8437L62.1582 32.5803ZM74.5589 25.66H75.5589V24.66H74.5589V25.66ZM74.5589 27.068V28.068H75.5589V27.068H74.5589ZM72.5909 27.068L71.8838 26.3609L70.1767 28.068H72.5909V27.068ZM72.7509 26.908H73.7509V24.4938L72.0438 26.2009L72.7509 26.908ZM74.5589 31.98H75.5589V30.98H74.5589V31.98ZM74.5589 33.5V34.5H75.5589V33.5H74.5589ZM71.5029 33.02L70.8399 33.7686L70.8512 33.7786L70.8628 33.7882L71.5029 33.02ZM70.9429 26.908L71.65 26.2009L69.9429 24.4938V26.908H70.9429ZM71.1029 27.068V28.068H73.5171L71.81 26.3609L71.1029 27.068ZM70.0789 27.068H69.0789V28.068H70.0789V27.068ZM70.0789 25.66V24.66H69.0789V25.66H70.0789ZM71.1029 25.66L71.81 26.3671L73.5172 24.66H71.1029V25.66ZM70.9429 25.82H69.9429V28.2342L71.65 26.5271L70.9429 25.82ZM70.9429 23.66V22.66H69.9429V23.66H70.9429ZM72.7509 23.66H73.7509V22.66H72.7509V23.66ZM72.7509 25.82L72.0438 26.5271L73.7509 28.2342V25.82H72.7509ZM72.5909 25.66V24.66H70.1767L71.8838 26.3671L72.5909 25.66ZM73.5589 25.66V27.068H75.5589V25.66H73.5589ZM74.5589 26.068H72.5909V28.068H74.5589V26.068ZM73.298 27.7751L73.458 27.6151L72.0438 26.2009L71.8838 26.3609L73.298 27.7751ZM71.7509 26.908V31.788H73.7509V26.908H71.7509ZM71.7509 31.788C71.7509 32.0061 71.8062 32.3534 72.0918 32.6391C72.3775 32.9248 72.7248 32.98 72.9429 32.98V30.98C73.0331 30.98 73.2844 31.0032 73.506 31.2249C73.7277 31.4466 73.7509 31.6979 73.7509 31.788H71.7509ZM72.9429 32.98H74.5589V30.98H72.9429V32.98ZM73.5589 31.98V33.5H75.5589V31.98H73.5589ZM74.5589 32.5H73.3269V34.5H74.5589V32.5ZM73.3269 32.5C72.5855 32.5 72.2616 32.3505 72.1431 32.2518L70.8628 33.7882C71.5122 34.3295 72.4044 34.5 73.3269 34.5V32.5ZM72.166 32.2714C72.0976 32.2108 71.9429 32.0079 71.9429 31.388H69.9429C69.9429 32.2828 70.1616 33.1678 70.8399 33.7686L72.166 32.2714ZM71.9429 31.388V26.908H69.9429V31.388H71.9429ZM70.2358 27.6151L70.3958 27.7751L71.81 26.3609L71.65 26.2009L70.2358 27.6151ZM71.1029 26.068H70.0789V28.068H71.1029V26.068ZM71.0789 27.068V25.66H69.0789V27.068H71.0789ZM70.0789 26.66H71.1029V24.66H70.0789V26.66ZM70.3958 24.9529L70.2358 25.1129L71.65 26.5271L71.81 26.3671L70.3958 24.9529ZM71.9429 25.82V23.66H69.9429V25.82H71.9429ZM70.9429 24.66H72.7509V22.66H70.9429V24.66ZM71.7509 23.66V25.82H73.7509V23.66H71.7509ZM73.458 25.1129L73.298 24.9529L71.8838 26.3671L72.0438 26.5271L73.458 25.1129ZM72.5909 26.66H74.5589V24.66H72.5909V26.66ZM79.3044 33.532L78.3045 33.543L78.3154 34.532H79.3044V33.532ZM79.2884 32.076V31.076H78.2774L78.2885 32.087L79.2884 32.076ZM79.6404 29.804L78.9837 30.5581L78.9896 30.5632L78.9956 30.5683L79.6404 29.804ZM79.6724 25.98L79.0123 25.2288V25.2288L79.6724 25.98ZM81.3684 25.516L81.3741 24.516H81.3684V25.516ZM84.1844 25.532H85.1844V24.5377L84.1901 24.532L84.1844 25.532ZM84.1844 27.052V28.052H85.1844V27.052H84.1844ZM84.1204 29.244L83.4515 29.9873L83.4645 29.999L83.4778 30.0102L84.1204 29.244ZM84.1524 33.116L83.4849 32.3714L84.1524 33.116ZM82.6804 32.532H79.3044V34.532H82.6804V32.532ZM80.3044 33.521L80.2884 32.065L78.2885 32.087L78.3045 33.543L80.3044 33.521ZM79.2884 33.076H82.6324V31.076H79.2884V33.076ZM82.6324 33.076C82.8506 33.076 83.1979 33.0208 83.4835 32.7351C83.7692 32.4494 83.8244 32.1021 83.8244 31.884H81.8244C81.8244 31.7939 81.8477 31.5426 82.0693 31.3209C82.291 31.0992 82.5423 31.076 82.6324 31.076V33.076ZM83.8244 31.884V30.428H81.8244V31.884H83.8244ZM83.8244 30.428C83.8244 30.2099 83.7692 29.8626 83.4835 29.5769C83.1979 29.2912 82.8506 29.236 82.6324 29.236V31.236C82.5423 31.236 82.291 31.2128 82.0693 30.9911C81.8477 30.7694 81.8244 30.5181 81.8244 30.428H83.8244ZM82.6324 29.236H81.3204V31.236H82.6324V29.236ZM81.3204 29.236C80.619 29.236 80.3537 29.0974 80.2853 29.0397L78.9956 30.5683C79.6098 31.0866 80.4646 31.236 81.3204 31.236V29.236ZM80.2972 29.0499C80.2926 29.0459 80.1444 28.9035 80.1444 28.284H78.1444C78.1444 29.1151 78.3269 29.9861 78.9837 30.5581L80.2972 29.0499ZM80.1444 28.284V27.58H78.1444V28.284H80.1444ZM80.1444 27.58C80.1444 26.937 80.2994 26.7603 80.3326 26.7312L79.0123 25.2288C78.3415 25.8184 78.1444 26.7083 78.1444 27.58H80.1444ZM80.3326 26.7312C80.4146 26.6591 80.6833 26.516 81.3684 26.516V24.516C80.4962 24.516 79.6343 24.6822 79.0123 25.2288L80.3326 26.7312ZM81.3628 26.516L84.1788 26.532L84.1901 24.532L81.3741 24.516L81.3628 26.516ZM83.1844 25.532V27.052H85.1844V25.532H83.1844ZM84.1844 26.052H81.1604V28.052H84.1844V26.052ZM81.1604 26.052C80.9423 26.052 80.595 26.1072 80.3093 26.3929C80.0237 26.6786 79.9684 27.0259 79.9684 27.244H81.9684C81.9684 27.3341 81.9452 27.5854 81.7235 27.8071C81.5019 28.0288 81.2506 28.052 81.1604 28.052V26.052ZM79.9684 27.244V28.62H81.9684V27.244H79.9684ZM79.9684 28.62C79.9684 28.8381 80.0237 29.1854 80.3093 29.4711C80.595 29.7568 80.9423 29.812 81.1604 29.812V27.812C81.2506 27.812 81.5019 27.8352 81.7235 28.0569C81.9452 28.2786 81.9684 28.5299 81.9684 28.62H79.9684ZM81.1604 29.812H82.4564V27.812H81.1604V29.812ZM82.4564 29.812C83.1824 29.812 83.4167 29.956 83.4515 29.9873L84.7894 28.5007C84.1842 27.956 83.3091 27.812 82.4564 27.812V29.812ZM83.4778 30.0102C83.4779 30.0102 83.4791 30.0112 83.4815 30.014C83.4839 30.0168 83.4883 30.0222 83.494 30.0312C83.5056 30.0494 83.5238 30.0836 83.5427 30.1412C83.5822 30.2609 83.6164 30.4549 83.6164 30.748H85.6164C85.6164 29.9219 85.4361 29.0423 84.7631 28.4778L83.4778 30.0102ZM83.6164 30.748V31.708H85.6164V30.748H83.6164ZM83.6164 31.708C83.6164 32.2502 83.4849 32.3714 83.4849 32.3714L84.82 33.8606C85.4386 33.3059 85.6164 32.4885 85.6164 31.708H83.6164ZM83.4849 32.3714C83.4433 32.4087 83.2495 32.532 82.6804 32.532V34.532C83.4554 34.532 84.2429 34.378 84.82 33.8606L83.4849 32.3714ZM89.8573 33.228L89.1759 33.9599L89.1889 33.972L89.2024 33.9837L89.8573 33.228ZM89.8893 29.276L90.5319 30.0422L90.5391 30.0362L90.5461 30.0301L89.8893 29.276ZM93.5693 28.844H94.5693V27.844H93.5693V28.844ZM93.5693 30.14V31.14H94.5693V30.14H93.5693ZM93.3613 32.172V33.172H94.3613V32.172H93.3613ZM89.9053 27.164H88.9053V28.164H89.9053V27.164ZM89.9053 25.644V24.644H88.9053V25.644H89.9053ZM92.9773 25.644V26.6441L92.9908 26.6439L92.9773 25.644ZM94.6733 26.092L95.3448 25.351L94.6733 26.092ZM95.1853 33.5V34.5H96.1853V33.5H95.1853ZM93.5533 33.5L92.5636 33.6431L92.6875 34.5H93.5533V33.5ZM93.3613 32.172L92.4534 31.7529L92.3292 32.0219L92.3716 32.3151L93.3613 32.172ZM93.4573 31.964H94.4573L92.5494 31.5449L93.4573 31.964ZM93.1053 33.212L93.8805 33.8437L93.8862 33.8368L93.8916 33.8298L93.1053 33.212ZM91.9373 32.644H91.3293V34.644H91.9373V32.644ZM91.3293 32.644C90.7799 32.644 90.5723 32.5244 90.5122 32.4723L89.2024 33.9837C89.7823 34.4863 90.5561 34.644 91.3293 34.644V32.644ZM90.5387 32.4961C90.523 32.4814 90.3933 32.3417 90.3933 31.804H88.3933C88.3933 32.589 88.573 33.3986 89.1759 33.9599L90.5387 32.4961ZM90.3933 31.804V30.78H88.3933V31.804H90.3933ZM90.3933 30.78C90.3933 30.4869 90.4275 30.2929 90.467 30.1732C90.486 30.1156 90.5042 30.0814 90.5157 30.0632C90.5215 30.0542 90.5258 30.0488 90.5283 30.046C90.5307 30.0432 90.5319 30.0422 90.5319 30.0422L89.2467 28.5098C88.5737 29.0743 88.3933 29.9539 88.3933 30.78H90.3933ZM90.5461 30.0301C90.5985 29.9844 90.8473 29.844 91.5533 29.844V27.844C90.702 27.844 89.8414 27.9916 89.2325 28.5219L90.5461 30.0301ZM91.5533 29.844H93.5693V27.844H91.5533V29.844ZM92.5693 28.844V30.14H94.5693V28.844H92.5693ZM93.5693 29.14H91.3773V31.14H93.5693V29.14ZM91.3773 29.14C91.1592 29.14 90.8119 29.1952 90.5262 29.4809C90.2405 29.7666 90.1853 30.1139 90.1853 30.332H92.1853C92.1853 30.4221 92.1621 30.6734 91.9404 30.8951C91.7187 31.1168 91.4675 31.14 91.3773 31.14V29.14ZM90.1853 30.332V31.98H92.1853V30.332H90.1853ZM90.1853 31.98C90.1853 32.1981 90.2405 32.5454 90.5262 32.8311C90.8119 33.1168 91.1592 33.172 91.3773 33.172V31.172C91.4675 31.172 91.7187 31.1952 91.9404 31.4169C92.1621 31.6386 92.1853 31.8899 92.1853 31.98H90.1853ZM91.3773 33.172H93.3613V31.172H91.3773V33.172ZM94.3613 32.172V27.356H92.3613V32.172H94.3613ZM94.3613 27.356C94.3613 27.1379 94.3061 26.7906 94.0204 26.5049C93.7347 26.2192 93.3875 26.164 93.1693 26.164V28.164C93.0792 28.164 92.8279 28.1408 92.6062 27.9191C92.3845 27.6974 92.3613 27.4461 92.3613 27.356H94.3613ZM93.1693 26.164H89.9053V28.164H93.1693V26.164ZM90.9053 27.164V25.644H88.9053V27.164H90.9053ZM89.9053 26.644H92.9773V24.644H89.9053V26.644ZM92.9908 26.6439C93.6941 26.6344 93.9428 26.7795 94.0018 26.833L95.3448 25.351C94.7211 24.7858 93.8392 24.6323 92.9638 24.6441L92.9908 26.6439ZM94.0018 26.833C94.032 26.8604 94.1853 27.0414 94.1853 27.692H96.1853C96.1853 26.828 95.9973 25.9423 95.3448 25.351L94.0018 26.833ZM94.1853 27.692V33.5H96.1853V27.692H94.1853ZM95.1853 32.5H93.5533V34.5H95.1853V32.5ZM94.543 33.3569L94.351 32.0289L92.3716 32.3151L92.5636 33.6431L94.543 33.3569ZM94.2693 32.5911L94.3653 32.3831L92.5494 31.5449L92.4534 31.7529L94.2693 32.5911ZM92.4573 31.964C92.4573 32.362 92.3689 32.5307 92.319 32.5942L93.8916 33.8298C94.3111 33.296 94.4573 32.6326 94.4573 31.964H92.4573ZM92.3301 32.5803C92.3384 32.5701 92.3377 32.5806 92.2904 32.5981C92.2353 32.6185 92.1257 32.644 91.9373 32.644V34.644C92.638 34.644 93.3806 34.4572 93.8805 33.8437L92.3301 32.5803ZM102.555 36.54V37.54H103.555V36.54H102.555ZM100.731 36.54H99.7308V37.54H100.731V36.54ZM100.731 25.66V24.66H99.7308V25.66H100.731ZM102.347 25.66L103.335 25.5053L103.202 24.66H102.347V25.66ZM102.555 26.988L103.488 27.347L103.584 27.0974L103.543 26.8333L102.555 26.988ZM102.475 27.196H101.475L103.408 27.555L102.475 27.196ZM102.827 25.948L102.066 25.2995L102.058 25.3079L102.052 25.3163L102.827 25.948ZM106.187 25.932L106.854 25.1874L106.187 25.932ZM106.155 33.116L105.498 32.3619L105.492 32.3673L105.486 32.3727L106.155 33.116ZM104.491 33.532L104.504 32.5321L104.499 32.532L104.491 33.532ZM102.555 33.516L102.563 32.516L101.555 32.5077V33.516H102.555ZM102.555 32.252L101.848 32.9591L103.555 34.6662V32.252H102.555ZM102.347 32.044L102.354 31.044L99.9158 31.0272L101.64 32.7511L102.347 32.044ZM104.667 32.06L104.66 33.06H104.667V32.06ZM102.555 35.54H100.731V37.54H102.555V35.54ZM101.731 36.54V25.66H99.7308V36.54H101.731ZM100.731 26.66H102.347V24.66H100.731V26.66ZM101.359 25.8147L101.567 27.1427L103.543 26.8333L103.335 25.5053L101.359 25.8147ZM101.621 26.629L101.541 26.837L103.408 27.555L103.488 27.347L101.621 26.629ZM103.475 27.196C103.475 26.7786 103.567 26.6228 103.602 26.5797L102.052 25.3163C101.617 25.8492 101.475 26.5254 101.475 27.196H103.475ZM103.588 26.5965C103.592 26.5924 103.603 26.5779 103.65 26.5603C103.704 26.5402 103.806 26.516 103.979 26.516V24.516C103.28 24.516 102.566 24.7126 102.066 25.2995L103.588 26.5965ZM103.979 26.516H104.715V24.516H103.979V26.516ZM104.715 26.516C105.284 26.516 105.478 26.6393 105.519 26.6766L106.854 25.1874C106.277 24.67 105.49 24.516 104.715 24.516V26.516ZM105.519 26.6766C105.521 26.678 105.528 26.6845 105.539 26.7021C105.55 26.7205 105.567 26.753 105.584 26.8058C105.62 26.9153 105.651 27.0913 105.651 27.356H107.651C107.651 26.5708 107.476 25.7445 106.854 25.1874L105.519 26.6766ZM105.651 27.356V31.596H107.651V27.356H105.651ZM105.651 31.596C105.651 32.2155 105.503 32.3579 105.498 32.3619L106.812 33.8701C107.468 33.2981 107.651 32.4271 107.651 31.596H105.651ZM105.486 32.3727C105.457 32.3988 105.23 32.5419 104.504 32.5321L104.477 34.5319C105.33 34.5434 106.213 34.4092 106.824 33.8593L105.486 32.3727ZM104.499 32.532L102.563 32.516L102.547 34.516L104.483 34.532L104.499 32.532ZM101.555 33.516V36.54H103.555V33.516H101.555ZM101.555 27.18V32.252H103.555V27.18H101.555ZM103.262 31.5449L103.054 31.3369L101.64 32.7511L101.848 32.9591L103.262 31.5449ZM102.34 33.044L104.66 33.06L104.674 31.06L102.354 31.044L102.34 33.044ZM104.667 33.06C104.885 33.06 105.232 33.0048 105.518 32.7191C105.804 32.4334 105.859 32.0861 105.859 31.868H103.859C103.859 31.7779 103.882 31.5266 104.104 31.3049C104.325 31.0832 104.577 31.06 104.667 31.06V33.06ZM105.859 31.868V27.18H103.859V31.868H105.859ZM105.859 27.18C105.859 26.9619 105.804 26.6146 105.518 26.3289C105.232 26.0432 104.885 25.988 104.667 25.988V27.988C104.577 27.988 104.325 27.9648 104.104 27.7431C103.882 27.5214 103.859 27.2701 103.859 27.18H105.859ZM104.667 25.988H102.747V27.988H104.667V25.988ZM102.747 25.988C102.529 25.988 102.181 26.0432 101.896 26.3289C101.61 26.6146 101.555 26.9619 101.555 27.18H103.555C103.555 27.2701 103.532 27.5214 103.31 27.7431C103.088 27.9648 102.837 27.988 102.747 27.988V25.988ZM114.008 36.54V37.54H115.008V36.54H114.008ZM112.184 36.54H111.184V37.54H112.184V36.54ZM112.184 25.66V24.66H111.184V25.66H112.184ZM113.8 25.66L114.788 25.5053L114.656 24.66H113.8V25.66ZM114.008 26.988L114.941 27.347L115.037 27.0974L114.996 26.8333L114.008 26.988ZM113.928 27.196H112.928L114.861 27.555L113.928 27.196ZM114.28 25.948L113.519 25.2995L113.512 25.3079L113.505 25.3163L114.28 25.948ZM117.64 25.932L118.307 25.1874L117.64 25.932ZM117.608 33.116L116.951 32.3619L116.945 32.3673L116.939 32.3727L117.608 33.116ZM115.944 33.532L115.957 32.5321L115.952 32.532L115.944 33.532ZM114.008 33.516L114.016 32.516L113.008 32.5077V33.516H114.008ZM114.008 32.252L113.301 32.9591L115.008 34.6662V32.252H114.008ZM113.8 32.044L113.807 31.044L111.369 31.0272L113.093 32.7511L113.8 32.044ZM116.12 32.06L116.113 33.06H116.12V32.06ZM114.008 35.54H112.184V37.54H114.008V35.54ZM113.184 36.54V25.66H111.184V36.54H113.184ZM112.184 26.66H113.8V24.66H112.184V26.66ZM112.812 25.8147L113.02 27.1427L114.996 26.8333L114.788 25.5053L112.812 25.8147ZM113.075 26.629L112.995 26.837L114.861 27.555L114.941 27.347L113.075 26.629ZM114.928 27.196C114.928 26.7786 115.02 26.6228 115.055 26.5797L113.505 25.3163C113.07 25.8492 112.928 26.5254 112.928 27.196H114.928ZM115.041 26.5965C115.045 26.5924 115.056 26.5779 115.103 26.5603C115.157 26.5402 115.259 26.516 115.432 26.516V24.516C114.733 24.516 114.019 24.7126 113.519 25.2995L115.041 26.5965ZM115.432 26.516H116.168V24.516H115.432V26.516ZM116.168 26.516C116.737 26.516 116.931 26.6393 116.972 26.6766L118.307 25.1874C117.73 24.67 116.943 24.516 116.168 24.516V26.516ZM116.972 26.6766C116.974 26.678 116.981 26.6845 116.992 26.7021C117.003 26.7205 117.02 26.753 117.037 26.8058C117.073 26.9153 117.104 27.0913 117.104 27.356H119.104C119.104 26.5708 118.929 25.7445 118.307 25.1874L116.972 26.6766ZM117.104 27.356V31.596H119.104V27.356H117.104ZM117.104 31.596C117.104 32.2155 116.956 32.3579 116.951 32.3619L118.265 33.8701C118.921 33.2981 119.104 32.4271 119.104 31.596H117.104ZM116.939 32.3727C116.91 32.3988 116.683 32.5419 115.957 32.5321L115.93 34.5319C116.784 34.5434 117.666 34.4092 118.277 33.8593L116.939 32.3727ZM115.952 32.532L114.016 32.516L114 34.516L115.936 34.532L115.952 32.532ZM113.008 33.516V36.54H115.008V33.516H113.008ZM113.008 27.18V32.252H115.008V27.18H113.008ZM114.715 31.5449L114.507 31.3369L113.093 32.7511L113.301 32.9591L114.715 31.5449ZM113.793 33.044L116.113 33.06L116.127 31.06L113.807 31.044L113.793 33.044ZM116.12 33.06C116.338 33.06 116.685 33.0048 116.971 32.7191C117.257 32.4334 117.312 32.0861 117.312 31.868H115.312C115.312 31.7779 115.335 31.5266 115.557 31.3049C115.779 31.0832 116.03 31.06 116.12 31.06V33.06ZM117.312 31.868V27.18H115.312V31.868H117.312ZM117.312 27.18C117.312 26.9619 117.257 26.6146 116.971 26.3289C116.685 26.0432 116.338 25.988 116.12 25.988V27.988C116.03 27.988 115.779 27.9648 115.557 27.7431C115.335 27.5214 115.312 27.2701 115.312 27.18H117.312ZM116.12 25.988H114.2V27.988H116.12V25.988ZM114.2 25.988C113.982 25.988 113.635 26.0432 113.349 26.3289C113.063 26.6146 113.008 26.9619 113.008 27.18H115.008C115.008 27.2701 114.985 27.5214 114.763 27.7431C114.541 27.9648 114.29 27.988 114.2 27.988V25.988Z" fill="black"/>
<path d="M153.161 20.7412C151.115 18.6904 148.391 17.5625 145.495 17.5625C139.519 17.5625 134.655 22.4258 134.655 28.4023C134.655 30.3115 135.153 32.1768 136.101 33.8223L134.562 39.4375L140.31 37.9287C141.892 38.793 143.674 39.2471 145.49 39.2471H145.495C151.467 39.2471 156.438 34.3838 156.438 28.4072C156.438 25.5117 155.207 22.792 153.161 20.7412ZM145.495 37.4209C143.874 37.4209 142.287 36.9863 140.905 36.166L140.578 35.9707L137.17 36.8643L138.078 33.5391L137.863 33.1973C136.96 31.7617 136.486 30.1064 136.486 28.4023C136.486 23.4365 140.529 19.3936 145.5 19.3936C147.907 19.3936 150.168 20.3311 151.867 22.0352C153.566 23.7393 154.611 26 154.606 28.4072C154.606 33.3779 150.461 37.4209 145.495 37.4209ZM150.437 30.6729C150.168 30.5361 148.835 29.8818 148.586 29.7939C148.337 29.7012 148.156 29.6572 147.976 29.9307C147.795 30.2041 147.277 30.8096 147.116 30.9951C146.96 31.1758 146.799 31.2002 146.53 31.0635C144.938 30.2676 143.894 29.6426 142.844 27.8408C142.565 27.3623 143.122 27.3965 143.64 26.3613C143.728 26.1807 143.684 26.0244 143.615 25.8877C143.547 25.751 143.005 24.418 142.78 23.876C142.561 23.3486 142.336 23.4219 142.17 23.4121C142.014 23.4023 141.833 23.4023 141.652 23.4023C141.472 23.4023 141.179 23.4707 140.93 23.7393C140.681 24.0127 139.982 24.667 139.982 26C139.982 27.333 140.954 28.6221 141.086 28.8027C141.223 28.9834 142.995 31.7178 145.715 32.8945C147.434 33.6367 148.107 33.7002 148.967 33.5732C149.489 33.4951 150.568 32.9189 150.793 32.2842C151.018 31.6494 151.018 31.1074 150.949 30.9951C150.886 30.873 150.705 30.8047 150.437 30.6729Z" fill="#07F9A2"/>
<rect x="1" y="1" width="188" height="55" rx="9" stroke="#07F9A2" stroke-width="2"/>
</svg>
