<svg width="600" height="522" viewBox="0 0 600 522" fill="none" xmlns="http://www.w3.org/2000/svg">
<path d="M15.8436 391.604C157.578 294.255 15.8436 86.187 15.8436 13.1988C15.8436 -59.7894 159.301 200.161 200.318 60.7407C241.334 -78.6793 507.032 300.535 581.871 391.604C734.047 576.782 -125.891 488.954 15.8436 391.604Z" fill="#07F9A2"/>
<path d="M499.9 420.49H466.78V420.74H499.9V420.49Z" fill="#EBEBEB"/>
<path d="M381.22 423.21H372.53V423.46H381.22V423.21Z" fill="#EBEBEB"/>
<path d="M465.78 411.21H446.59V411.46H465.78V411.21Z" fill="#EBEBEB"/>
<path d="M145.65 412.89H102.46V413.14H145.65V412.89Z" fill="#EBEBEB"/>
<path d="M160.89 412.89H154.56V413.14H160.89V412.89Z" fill="#EBEBEB"/>
<path d="M275.15 417.11H181.47V417.36H275.15V417.11Z" fill="#EBEBEB"/>
<path d="M288.4 359.8H95.2998C93.7855 359.8 92.3331 359.198 91.2623 358.128C90.1914 357.057 89.5898 355.604 89.5898 354.09V82.66C89.603 81.1543 90.2104 79.7147 91.2798 78.6547C92.3492 77.5947 93.7941 76.9999 95.2998 77H288.4C289.15 77 289.892 77.1477 290.585 77.4346C291.278 77.7216 291.907 78.1422 292.437 78.6724C292.968 79.2026 293.388 79.8321 293.675 80.5249C293.962 81.2176 294.11 81.9602 294.11 82.71V354.09C294.11 354.84 293.962 355.582 293.675 356.275C293.388 356.968 292.968 357.597 292.437 358.128C291.907 358.658 291.278 359.078 290.585 359.365C289.892 359.652 289.15 359.8 288.4 359.8ZM95.2998 77.2C93.8526 77.2026 92.4653 77.7787 91.442 78.8021C90.4186 79.8255 89.8425 81.2127 89.8398 82.66V354.09C89.8425 355.537 90.4186 356.924 91.442 357.948C92.4653 358.971 93.8526 359.547 95.2998 359.55H288.4C289.847 359.547 291.234 358.971 292.258 357.948C293.281 356.924 293.857 355.537 293.86 354.09V82.66C293.857 81.2127 293.281 79.8255 292.258 78.8021C291.234 77.7787 289.847 77.2026 288.4 77.2H95.2998Z" fill="#EBEBEB"/>
<path d="M504.7 359.8H311.6C310.086 359.8 308.633 359.198 307.563 358.128C306.492 357.057 305.89 355.604 305.89 354.09V82.66C305.903 81.1543 306.511 79.7147 307.58 78.6547C308.65 77.5947 310.094 76.9999 311.6 77H504.7C506.215 77 507.667 77.6016 508.738 78.6724C509.809 79.7433 510.41 81.1956 510.41 82.71V354.09C510.41 355.604 509.809 357.057 508.738 358.128C507.667 359.198 506.215 359.8 504.7 359.8ZM311.6 77.2C310.153 77.2026 308.766 77.7787 307.742 78.8021C306.719 79.8255 306.143 81.2127 306.14 82.66V354.09C306.143 355.537 306.719 356.924 307.742 357.948C308.766 358.971 310.153 359.547 311.6 359.55H504.7C506.147 359.547 507.535 358.971 508.558 357.948C509.581 356.924 510.158 355.537 510.16 354.09V82.66C510.158 81.2127 509.581 79.8255 508.558 78.8021C507.535 77.7787 506.147 77.2026 504.7 77.2H311.6Z" fill="#EBEBEB"/>
<path d="M550 404.4H50V404.65H550V404.4Z" fill="#EBEBEB"/>
<path d="M219.61 146.28H146.95V238.35H219.61V146.28Z" fill="#F0F0F0"/>
<path d="M212.38 155.44H154.19V229.18H212.38V155.44Z" fill="#FAFAFA"/>
<path d="M141.34 238.35H146.96V146.28H141.34V238.35Z" fill="#E0E0E0"/>
<path d="M191.75 193.45C194.873 196.573 196.628 200.808 196.628 205.225C196.628 209.641 194.873 213.877 191.75 217C188.627 220.123 184.392 221.877 179.975 221.877C175.559 221.877 171.323 220.123 168.2 217C161.69 210.49 185.24 186.94 191.75 193.45Z" fill="#F5F5F5"/>
<path d="M174.36 192.16C173.143 190.943 172.178 189.499 171.52 187.909C170.861 186.319 170.522 184.615 170.522 182.895C170.522 181.174 170.861 179.47 171.52 177.88C172.178 176.291 173.143 174.846 174.36 173.63C175.577 172.413 177.021 171.448 178.611 170.789C180.201 170.131 181.904 169.792 183.625 169.792C185.346 169.792 187.05 170.131 188.639 170.789C190.229 171.448 191.673 172.413 192.89 173.63C198 178.75 179.48 197.28 174.36 192.16Z" fill="#EBEBEB"/>
<path d="M440.48 275.72H431.85V405H440.48V275.72Z" fill="#F0F0F0"/>
<path d="M444.24 275.72H436.73V405H444.24V275.72Z" fill="#E6E6E6"/>
<path d="M353.47 275.72H344.84V405H353.47V275.72Z" fill="#F0F0F0"/>
<path d="M357.23 275.72H349.72V405H357.23V275.72Z" fill="#E6E6E6"/>
<path d="M473.2 275.72H464.57V405H473.2V275.72Z" fill="#F0F0F0"/>
<path d="M476.95 275.72H469.44V405H476.95V275.72Z" fill="#E6E6E6"/>
<path d="M386.19 275.72H377.56V405H386.19V275.72Z" fill="#F0F0F0"/>
<path d="M476.96 267.42H344.85V277.78H476.96V267.42Z" fill="#F0F0F0"/>
<path d="M382.44 267.42H344.85V277.78H382.44V267.42Z" fill="#E0E0E0"/>
<path d="M389.95 275.72H382.44V405H389.95V275.72Z" fill="#E6E6E6"/>
<path d="M172.56 268.08H117.3V405H172.56V268.08Z" fill="#E6E6E6"/>
<path d="M275.93 268.08H160.5V405H275.93V268.08Z" fill="#F5F5F5"/>
<path d="M236.6 276.72H255.45C257.42 276.72 259.37 277.108 261.19 277.862C263.01 278.615 264.664 279.72 266.057 281.113C267.45 282.506 268.554 284.16 269.308 285.979C270.062 287.799 270.45 289.75 270.45 291.72V398.2H221.62V291.7C221.625 287.728 223.205 283.921 226.014 281.113C228.822 278.305 232.629 276.725 236.6 276.72Z" fill="#EBEBEB"/>
<path d="M182.1 276.72H201C202.97 276.72 204.92 277.108 206.74 277.862C208.56 278.615 210.214 279.72 211.607 281.113C213 282.506 214.104 284.16 214.858 285.979C215.612 287.799 216 289.75 216 291.72V398.2H167.12V291.7C167.125 287.728 168.705 283.921 171.513 281.113C174.322 278.305 178.129 276.725 182.1 276.72Z" fill="#EBEBEB"/>
<path d="M211.54 336.54C211.481 337.484 211.148 338.39 210.581 339.148C210.013 339.905 209.237 340.479 208.347 340.801C207.458 341.122 206.493 341.177 205.573 340.957C204.653 340.737 203.817 340.253 203.168 339.565C202.52 338.876 202.087 338.013 201.923 337.081C201.759 336.149 201.871 335.19 202.245 334.321C202.619 333.452 203.239 332.712 204.029 332.191C204.819 331.67 205.744 331.391 206.69 331.39C207.347 331.409 207.993 331.558 208.592 331.827C209.191 332.096 209.732 332.481 210.182 332.96C210.633 333.438 210.984 334 211.217 334.614C211.45 335.229 211.56 335.883 211.54 336.54Z" fill="#E0E0E0"/>
<path d="M236.51 336.54C236.451 337.484 236.118 338.391 235.55 339.149C234.982 339.906 234.206 340.481 233.315 340.802C232.425 341.123 231.46 341.177 230.54 340.956C229.619 340.736 228.783 340.251 228.135 339.561C227.487 338.871 227.055 338.007 226.892 337.075C226.729 336.142 226.842 335.183 227.218 334.314C227.594 333.445 228.216 332.706 229.007 332.186C229.798 331.666 230.724 331.39 231.67 331.39C232.995 331.431 234.248 331.997 235.156 332.963C236.063 333.929 236.55 335.215 236.51 336.54Z" fill="#E0E0E0"/>
<path d="M300 449.01C407.082 449.01 493.89 443.942 493.89 437.69C493.89 431.438 407.082 426.37 300 426.37C192.917 426.37 106.11 431.438 106.11 437.69C106.11 443.942 192.917 449.01 300 449.01Z" fill="#F5F5F5"/>
<path d="M431.47 282.38H360.16C359.344 282.395 358.535 282.236 357.786 281.913C357.036 281.59 356.364 281.112 355.815 280.509C355.265 279.906 354.85 279.193 354.597 278.417C354.345 277.642 354.261 276.821 354.35 276.01L358.19 232.09C358.366 230.363 359.168 228.761 360.445 227.585C361.722 226.41 363.385 225.743 365.12 225.71H436.43C437.247 225.695 438.058 225.854 438.809 226.178C439.559 226.501 440.232 226.98 440.783 227.584C441.334 228.188 441.749 228.902 442.002 229.679C442.255 230.456 442.34 231.278 442.25 232.09L438.4 276C438.227 277.727 437.425 279.331 436.148 280.507C434.871 281.683 433.206 282.349 431.47 282.38Z" fill="#263238"/>
<path d="M389.45 250.5C389.13 253.65 387.666 256.574 385.334 258.718C383.003 260.861 379.967 262.075 376.8 262.13C375.311 262.157 373.832 261.867 372.464 261.278C371.096 260.689 369.869 259.815 368.865 258.715C367.86 257.614 367.103 256.312 366.641 254.896C366.18 253.479 366.026 251.98 366.19 250.5C366.525 247.356 367.994 244.442 370.323 242.303C372.651 240.164 375.679 238.947 378.84 238.88L379.36 232.93C374.577 233.015 369.992 234.85 366.47 238.088C362.949 241.325 360.736 245.741 360.25 250.5C360.005 252.734 360.237 254.996 360.932 257.134C361.628 259.272 362.77 261.237 364.283 262.9C365.797 264.563 367.646 265.885 369.709 266.778C371.773 267.671 374.002 268.114 376.25 268.08C381.034 267.994 385.621 266.158 389.143 262.918C392.665 259.678 394.877 255.26 395.36 250.5H389.45Z" fill="#142C52"/>
<path d="M397.48 247.93C397.726 245.695 397.493 243.433 396.798 241.295C396.102 239.157 394.96 237.192 393.447 235.529C391.934 233.866 390.084 232.545 388.021 231.652C385.958 230.759 383.728 230.315 381.48 230.35L380.96 236.35C382.449 236.324 383.926 236.615 385.294 237.205C386.662 237.794 387.888 238.668 388.892 239.768C389.896 240.868 390.654 242.17 391.115 243.585C391.577 245.001 391.732 246.499 391.57 247.98L397.48 247.93Z" fill="#142C52"/>
<path opacity="0.7" d="M397.48 247.93C397.726 245.695 397.493 243.433 396.798 241.295C396.102 239.157 394.96 237.192 393.447 235.529C391.934 233.866 390.084 232.545 388.021 231.652C385.958 230.759 383.728 230.315 381.48 230.35L380.96 236.35C382.449 236.324 383.926 236.615 385.294 237.205C386.662 237.794 387.888 238.668 388.892 239.768C389.896 240.868 390.654 242.17 391.115 243.585C391.577 245.001 391.732 246.499 391.57 247.98L397.48 247.93Z" fill="white"/>
<path d="M382.92 250.5C382.774 251.935 382.107 253.266 381.046 254.242C379.985 255.219 378.602 255.773 377.16 255.8C376.482 255.811 375.81 255.678 375.187 255.409C374.564 255.14 374.006 254.741 373.549 254.24C373.092 253.739 372.747 253.146 372.537 252.501C372.327 251.856 372.257 251.174 372.33 250.5C372.477 249.066 373.144 247.736 374.206 246.761C375.267 245.786 376.649 245.234 378.09 245.21L378.32 242.51C376.144 242.55 374.058 243.386 372.457 244.86C370.856 246.335 369.85 248.344 369.63 250.51C369.518 251.528 369.624 252.558 369.941 253.531C370.257 254.505 370.778 255.4 371.468 256.157C372.157 256.914 373 257.515 373.941 257.921C374.881 258.327 375.897 258.527 376.92 258.51C379.098 258.472 381.187 257.637 382.79 256.162C384.393 254.688 385.4 252.677 385.62 250.51L382.92 250.5Z" fill="#142C52"/>
<path opacity="0.7" d="M382.92 250.5C382.774 251.935 382.107 253.266 381.046 254.242C379.985 255.219 378.602 255.773 377.16 255.8C376.482 255.811 375.81 255.678 375.187 255.409C374.564 255.14 374.006 254.741 373.549 254.24C373.092 253.739 372.747 253.146 372.537 252.501C372.327 251.856 372.257 251.174 372.33 250.5C372.477 249.066 373.144 247.736 374.206 246.761C375.267 245.786 376.649 245.234 378.09 245.21L378.32 242.51C376.144 242.55 374.058 243.386 372.457 244.86C370.856 246.335 369.85 248.344 369.63 250.51C369.518 251.528 369.624 252.558 369.941 253.531C370.257 254.505 370.778 255.4 371.468 256.157C372.157 256.914 373 257.515 373.941 257.921C374.881 258.327 375.897 258.527 376.92 258.51C379.098 258.472 381.187 257.637 382.79 256.162C384.393 254.688 385.4 252.677 385.62 250.51L382.92 250.5Z" fill="white"/>
<path d="M386.57 249.33C386.682 248.312 386.576 247.281 386.259 246.306C385.942 245.332 385.42 244.436 384.729 243.679C384.039 242.922 383.194 242.321 382.253 241.916C381.312 241.511 380.295 241.311 379.27 241.33L379 244C379.677 243.989 380.349 244.122 380.971 244.391C381.593 244.659 382.151 245.057 382.607 245.557C383.064 246.057 383.409 246.648 383.62 247.292C383.831 247.936 383.902 248.617 383.83 249.29L386.57 249.33Z" fill="#142C52"/>
<path d="M420.85 232.93L420.33 238.88C421.819 238.852 423.296 239.142 424.664 239.731C426.032 240.319 427.258 241.192 428.262 242.291C429.266 243.391 430.024 244.691 430.486 246.107C430.948 247.522 431.103 249.02 430.94 250.5C430.621 253.649 429.158 256.571 426.828 258.714C424.499 260.857 421.465 262.072 418.3 262.13C416.81 262.159 415.331 261.869 413.962 261.281C412.593 260.693 411.365 259.819 410.361 258.718C409.357 257.617 408.599 256.314 408.138 254.897C407.678 253.48 407.525 251.981 407.69 250.5C407.993 247.342 409.462 244.411 411.81 242.28L407.98 238.08C404.428 241.299 402.203 245.728 401.74 250.5C401.495 252.734 401.727 254.996 402.423 257.134C403.118 259.272 404.26 261.237 405.773 262.9C407.287 264.563 409.136 265.884 411.2 266.777C413.263 267.67 415.492 268.114 417.74 268.08C422.524 267.992 427.11 266.155 430.631 262.916C434.152 259.676 436.365 255.259 436.85 250.5C437.095 248.266 436.861 246.005 436.165 243.869C435.469 241.732 434.326 239.767 432.813 238.106C431.3 236.444 429.451 235.124 427.389 234.231C425.326 233.339 423.097 232.895 420.85 232.93Z" fill="#142C52"/>
<path opacity="0.7" d="M420.85 232.93L420.33 238.88C421.819 238.852 423.296 239.142 424.664 239.731C426.032 240.319 427.258 241.192 428.262 242.291C429.266 243.391 430.024 244.691 430.486 246.107C430.948 247.522 431.103 249.02 430.94 250.5C430.621 253.649 429.158 256.571 426.828 258.714C424.499 260.857 421.465 262.072 418.3 262.13C416.81 262.159 415.331 261.869 413.962 261.281C412.593 260.693 411.365 259.819 410.361 258.718C409.357 257.617 408.599 256.314 408.138 254.897C407.678 253.48 407.525 251.981 407.69 250.5C407.993 247.342 409.462 244.411 411.81 242.28L407.98 238.08C404.428 241.299 402.203 245.728 401.74 250.5C401.495 252.734 401.727 254.996 402.423 257.134C403.118 259.272 404.26 261.237 405.773 262.9C407.287 264.563 409.136 265.884 411.2 266.777C413.263 267.67 415.492 268.114 417.74 268.08C422.524 267.992 427.11 266.155 430.631 262.916C434.152 259.676 436.365 255.259 436.85 250.5C437.095 248.266 436.861 246.005 436.165 243.869C435.469 241.732 434.326 239.767 432.813 238.106C431.3 236.444 429.451 235.124 427.389 234.231C425.326 233.339 423.097 232.895 420.85 232.93Z" fill="white"/>
<path d="M406.83 234.82L410.67 239.03C412.981 236.863 416.023 235.646 419.19 235.62L419.71 229.68C414.925 229.72 410.328 231.554 406.83 234.82Z" fill="#142C52"/>
<path opacity="0.3" d="M406.83 234.82L410.67 239.03C412.981 236.863 416.023 235.646 419.19 235.62L419.71 229.68C414.925 229.72 410.328 231.554 406.83 234.82Z" fill="black"/>
<path d="M420.06 242L419.81 244.84C420.523 244.826 421.23 244.964 421.885 245.245C422.539 245.526 423.127 245.944 423.607 246.47C424.087 246.997 424.449 247.62 424.668 248.298C424.888 248.975 424.96 249.692 424.88 250.4C424.727 251.897 424.034 253.287 422.929 254.309C421.824 255.331 420.385 255.914 418.88 255.95C418.169 255.965 417.463 255.827 416.809 255.546C416.155 255.266 415.568 254.849 415.088 254.324C414.608 253.798 414.246 253.177 414.026 252.5C413.805 251.823 413.732 251.108 413.81 250.4C413.96 248.886 414.674 247.483 415.81 246.47L413.98 244.47C412.275 246.007 411.205 248.126 410.98 250.41C410.862 251.479 410.973 252.561 411.306 253.583C411.639 254.605 412.186 255.545 412.911 256.339C413.636 257.133 414.522 257.763 415.51 258.188C416.498 258.612 417.565 258.821 418.64 258.8C420.925 258.761 423.116 257.885 424.799 256.339C426.481 254.793 427.538 252.684 427.77 250.41C427.891 249.336 427.78 248.249 427.444 247.221C427.109 246.193 426.558 245.249 425.827 244.453C425.097 243.656 424.204 243.025 423.21 242.602C422.215 242.179 421.141 241.974 420.06 242Z" fill="#142C52"/>
<path d="M413.36 242.86L415.19 244.86C416.301 243.828 417.755 243.247 419.27 243.23L419.51 240.39C417.224 240.415 415.029 241.296 413.36 242.86Z" fill="#142C52"/>
<path opacity="0.3" d="M413.36 242.86L415.19 244.86C416.301 243.828 417.755 243.247 419.27 243.23L419.51 240.39C417.224 240.415 415.029 241.296 413.36 242.86Z" fill="black"/>
<path d="M368.18 275.77C367.94 275.774 367.703 275.727 367.483 275.632C367.262 275.538 367.065 275.397 366.903 275.22C366.742 275.043 366.619 274.834 366.545 274.607C366.47 274.379 366.445 274.138 366.47 273.9C366.521 273.399 366.751 272.933 367.119 272.589C367.487 272.245 367.967 272.046 368.47 272.03C368.71 272.025 368.947 272.072 369.168 272.167C369.388 272.262 369.585 272.402 369.747 272.579C369.909 272.756 370.031 272.965 370.106 273.193C370.18 273.42 370.206 273.661 370.18 273.9C370.127 274.4 369.896 274.864 369.529 275.208C369.162 275.551 368.683 275.751 368.18 275.77Z" fill="white"/>
<path d="M387.36 274.85H373.36C373.238 274.854 373.117 274.831 373.004 274.784C372.891 274.736 372.79 274.665 372.708 274.575C372.625 274.484 372.563 274.377 372.525 274.261C372.488 274.145 372.476 274.022 372.49 273.9C372.49 273.635 372.596 273.381 372.783 273.193C372.971 273.005 373.225 272.9 373.49 272.9H387.49C387.617 272.895 387.744 272.919 387.861 272.969C387.978 273.02 388.082 273.096 388.165 273.192C388.249 273.287 388.309 273.401 388.343 273.524C388.377 273.646 388.383 273.775 388.36 273.9C388.347 274.157 388.236 274.398 388.05 274.575C387.864 274.752 387.617 274.85 387.36 274.85Z" fill="white"/>
<path d="M383.51 278.6H373.05C372.924 278.603 372.798 278.578 372.682 278.527C372.566 278.476 372.463 278.4 372.38 278.305C372.297 278.209 372.236 278.096 372.202 277.975C372.167 277.853 372.16 277.725 372.18 277.6C372.195 277.339 372.305 277.093 372.489 276.909C372.674 276.724 372.92 276.614 373.18 276.6H383.65C383.777 276.597 383.903 276.622 384.019 276.673C384.135 276.724 384.238 276.8 384.321 276.895C384.404 276.991 384.465 277.103 384.499 277.225C384.534 277.347 384.541 277.475 384.52 277.6C384.504 277.861 384.392 278.107 384.205 278.292C384.019 278.476 383.772 278.586 383.51 278.6Z" fill="white"/>
<path d="M408.72 275.77C408.48 275.775 408.241 275.729 408.02 275.635C407.798 275.541 407.6 275.401 407.437 275.224C407.274 275.047 407.151 274.837 407.076 274.609C407 274.381 406.975 274.139 407 273.9C407.051 273.399 407.282 272.933 407.649 272.589C408.017 272.245 408.497 272.046 409 272.03C409.24 272.025 409.478 272.072 409.698 272.167C409.918 272.262 410.115 272.402 410.277 272.579C410.439 272.756 410.561 272.965 410.636 273.193C410.711 273.42 410.736 273.661 410.71 273.9C410.658 274.398 410.428 274.861 410.063 275.204C409.698 275.548 409.221 275.748 408.72 275.77Z" fill="white"/>
<path d="M427.9 274.85H413.9C413.778 274.852 413.658 274.828 413.546 274.78C413.434 274.732 413.333 274.661 413.251 274.571C413.169 274.481 413.107 274.375 413.069 274.259C413.03 274.144 413.017 274.021 413.03 273.9C413.044 273.64 413.154 273.393 413.339 273.209C413.524 273.024 413.77 272.914 414.03 272.9H428.03C428.157 272.895 428.284 272.919 428.401 272.969C428.517 273.02 428.621 273.096 428.705 273.192C428.788 273.287 428.849 273.401 428.883 273.524C428.917 273.646 428.923 273.775 428.9 273.9C428.887 274.157 428.776 274.398 428.59 274.575C428.404 274.752 428.157 274.85 427.9 274.85Z" fill="white"/>
<path d="M424.05 278.6H413.59C413.463 278.603 413.338 278.578 413.222 278.527C413.106 278.476 413.003 278.4 412.92 278.305C412.837 278.209 412.776 278.096 412.741 277.975C412.707 277.853 412.699 277.725 412.72 277.6C412.734 277.339 412.844 277.093 413.029 276.909C413.213 276.724 413.459 276.614 413.72 276.6H424.19C424.317 276.597 424.442 276.622 424.558 276.673C424.674 276.724 424.777 276.8 424.86 276.895C424.943 276.991 425.004 277.103 425.039 277.225C425.073 277.347 425.081 277.475 425.06 277.6C425.043 277.861 424.931 278.107 424.745 278.292C424.559 278.476 424.312 278.586 424.05 278.6Z" fill="white"/>
<path d="M339.41 306.33H232.58C231.764 306.344 230.954 306.185 230.204 305.863C229.455 305.54 228.782 305.062 228.232 304.459C227.681 303.857 227.265 303.144 227.011 302.368C226.758 301.592 226.672 300.771 226.76 299.96L232.7 232.09C232.876 230.363 233.678 228.761 234.955 227.585C236.232 226.41 237.895 225.742 239.63 225.71H346.47C347.286 225.696 348.096 225.857 348.845 226.181C349.595 226.504 350.267 226.984 350.816 227.587C351.366 228.191 351.781 228.905 352.033 229.681C352.286 230.457 352.37 231.278 352.28 232.09L346.35 300C346.163 301.719 345.354 303.311 344.077 304.476C342.799 305.642 341.139 306.301 339.41 306.33Z" fill="#142C52"/>
<path opacity="0.7" d="M339.41 306.33H232.58C231.764 306.344 230.954 306.185 230.204 305.863C229.455 305.54 228.782 305.062 228.232 304.459C227.681 303.857 227.265 303.144 227.011 302.368C226.758 301.592 226.672 300.771 226.76 299.96L232.7 232.09C232.876 230.363 233.678 228.761 234.955 227.585C236.232 226.41 237.895 225.742 239.63 225.71H346.47C347.286 225.696 348.096 225.857 348.845 226.181C349.595 226.504 350.267 226.984 350.816 227.587C351.366 228.191 351.781 228.905 352.033 229.681C352.286 230.457 352.37 231.278 352.28 232.09L346.35 300C346.163 301.719 345.354 303.311 344.077 304.476C342.799 305.642 341.139 306.301 339.41 306.33Z" fill="white"/>
<path d="M237.04 286.04H234.33L237.96 244.56H240.67L237.04 286.04Z" fill="#142C52"/>
<path d="M240.89 286.039H238.17L240.84 255.529H243.56L240.89 286.039Z" fill="#263238"/>
<path d="M246.99 286.04H244.28L246.02 266.1H248.73L246.99 286.04Z" fill="#142C52"/>
<path d="M250.83 286.04H248.12L250.2 262.26H252.91L250.83 286.04Z" fill="#263238"/>
<path d="M256.94 286.04H254.22L257.32 250.6H260.04L256.94 286.04Z" fill="#142C52"/>
<path d="M260.78 286.039H258.06L260.74 255.529H263.45L260.78 286.039Z" fill="#263238"/>
<path d="M266.88 286.039H264.17L266.84 255.529H269.55L266.88 286.039Z" fill="#142C52"/>
<path d="M270.72 286.04H268.01L271.35 247.84H274.06L270.72 286.04Z" fill="#263238"/>
<path d="M276.83 286.04H274.11L275.93 265.3H278.64L276.83 286.04Z" fill="#142C52"/>
<path d="M280.67 286.039H277.96L280.63 255.529H283.34L280.67 286.039Z" fill="#263238"/>
<path d="M286.77 286.04H284.06L287.16 250.6H289.87L286.77 286.04Z" fill="#142C52"/>
<path d="M290.62 286.04H287.9L291.66 243.04H294.38L290.62 286.04Z" fill="#263238"/>
<path d="M296.72 286.04H294.01L294.99 274.75H297.71L296.72 286.04Z" fill="#142C52"/>
<path d="M300.56 286.04H297.85L299.68 265.14H302.39L300.56 286.04Z" fill="#263238"/>
<path d="M306.66 286.04H303.95L305.7 266.1H308.41L306.66 286.04Z" fill="#142C52"/>
<path d="M310.51 286.04H307.79L311.22 246.88H313.93L310.51 286.04Z" fill="#263238"/>
<path d="M316.61 286.04H313.9L316.15 260.34H318.86L316.61 286.04Z" fill="#142C52"/>
<path d="M320.45 286.04H317.74L322.09 236.31H324.8L320.45 286.04Z" fill="#263238"/>
<path d="M326.56 286.039H323.84L326.76 252.649H329.48L326.56 286.039Z" fill="#142C52"/>
<path d="M330.4 286.039H327.69L330.36 255.529H333.07L330.4 286.039Z" fill="#263238"/>
<path d="M336.5 286.04H333.79L337.47 244H340.18L336.5 286.04Z" fill="#142C52"/>
<path d="M340.34 286.04H337.63L339.8 261.3H342.51L340.34 286.04Z" fill="#263238"/>
<path d="M236 297.36C235.658 297.368 235.319 297.302 235.005 297.168C234.69 297.034 234.408 296.835 234.177 296.583C233.946 296.331 233.772 296.033 233.665 295.708C233.559 295.383 233.523 295.04 233.56 294.7C233.64 293.98 233.977 293.313 234.51 292.822C235.043 292.331 235.736 292.05 236.46 292.03C236.803 292.022 237.143 292.088 237.458 292.222C237.773 292.357 238.056 292.557 238.287 292.81C238.518 293.063 238.693 293.363 238.798 293.689C238.904 294.015 238.939 294.359 238.9 294.7C238.818 295.418 238.48 296.083 237.947 296.572C237.414 297.061 236.723 297.34 236 297.36Z" fill="#263238"/>
<path d="M263.29 296.05H243.4C243.227 296.054 243.055 296.021 242.895 295.953C242.735 295.885 242.592 295.783 242.475 295.656C242.357 295.528 242.269 295.376 242.214 295.212C242.16 295.047 242.142 294.872 242.16 294.7C242.199 294.332 242.371 293.991 242.643 293.74C242.916 293.49 243.27 293.348 243.64 293.34H263.53C263.704 293.338 263.877 293.372 264.036 293.441C264.196 293.51 264.339 293.613 264.456 293.741C264.573 293.87 264.662 294.022 264.716 294.187C264.77 294.352 264.789 294.527 264.77 294.7C264.731 295.067 264.559 295.407 264.286 295.656C264.014 295.904 263.659 296.045 263.29 296.05Z" fill="#263238"/>
<path d="M257.83 301.39H242.93C242.754 301.393 242.579 301.358 242.417 301.287C242.256 301.216 242.112 301.111 241.995 300.979C241.878 300.846 241.791 300.691 241.74 300.522C241.689 300.353 241.676 300.175 241.7 300C241.735 299.632 241.904 299.29 242.175 299.039C242.446 298.788 242.801 298.646 243.17 298.64H258.06C258.235 298.636 258.408 298.669 258.568 298.738C258.729 298.807 258.873 298.909 258.99 299.038C259.108 299.167 259.196 299.319 259.25 299.485C259.303 299.651 259.32 299.827 259.3 300C259.271 300.372 259.104 300.721 258.833 300.978C258.561 301.234 258.204 301.381 257.83 301.39Z" fill="#263238"/>
<path opacity="0.3" d="M263.29 296.05H243.4C243.227 296.054 243.055 296.021 242.895 295.953C242.735 295.885 242.592 295.783 242.475 295.656C242.357 295.528 242.269 295.376 242.214 295.212C242.16 295.047 242.142 294.872 242.16 294.7C242.199 294.332 242.371 293.991 242.643 293.74C242.916 293.49 243.27 293.348 243.64 293.34H263.53C263.704 293.338 263.877 293.372 264.036 293.441C264.196 293.51 264.339 293.613 264.456 293.741C264.573 293.87 264.662 294.022 264.716 294.187C264.77 294.352 264.789 294.527 264.77 294.7C264.731 295.067 264.559 295.407 264.286 295.656C264.014 295.904 263.659 296.045 263.29 296.05Z" fill="white"/>
<path opacity="0.3" d="M257.83 301.39H242.93C242.754 301.393 242.579 301.358 242.417 301.287C242.256 301.216 242.112 301.111 241.995 300.979C241.878 300.846 241.791 300.691 241.74 300.522C241.689 300.353 241.676 300.175 241.7 300C241.735 299.632 241.904 299.29 242.175 299.039C242.446 298.788 242.801 298.646 243.17 298.64H258.06C258.235 298.636 258.408 298.669 258.568 298.738C258.729 298.807 258.873 298.909 258.99 299.038C259.108 299.167 259.196 299.319 259.25 299.485C259.303 299.651 259.32 299.827 259.3 300C259.271 300.372 259.104 300.721 258.833 300.978C258.561 301.234 258.204 301.381 257.83 301.39Z" fill="white"/>
<path d="M275.34 297.36C274.999 297.366 274.66 297.3 274.347 297.165C274.033 297.03 273.752 296.831 273.521 296.579C273.291 296.328 273.116 296.03 273.009 295.706C272.902 295.382 272.865 295.039 272.9 294.7C272.98 293.98 273.317 293.313 273.85 292.822C274.383 292.331 275.076 292.05 275.8 292.03C276.143 292.022 276.483 292.088 276.798 292.222C277.113 292.357 277.396 292.557 277.627 292.81C277.858 293.063 278.033 293.363 278.138 293.689C278.244 294.015 278.279 294.359 278.24 294.7C278.159 295.418 277.82 296.083 277.287 296.572C276.754 297.061 276.063 297.34 275.34 297.36Z" fill="#142C52"/>
<path opacity="0.3" d="M275.34 297.36C274.999 297.366 274.66 297.3 274.347 297.165C274.033 297.03 273.752 296.831 273.521 296.579C273.291 296.328 273.116 296.03 273.009 295.706C272.902 295.382 272.865 295.039 272.9 294.7C272.98 293.98 273.317 293.313 273.85 292.822C274.383 292.331 275.076 292.05 275.8 292.03C276.143 292.022 276.483 292.088 276.798 292.222C277.113 292.357 277.396 292.557 277.627 292.81C277.858 293.063 278.033 293.363 278.138 293.689C278.244 294.015 278.279 294.359 278.24 294.7C278.159 295.418 277.82 296.083 277.287 296.572C276.754 297.061 276.063 297.34 275.34 297.36Z" fill="black"/>
<path d="M302.62 296.05H282.73C282.557 296.054 282.385 296.021 282.225 295.953C282.065 295.885 281.922 295.783 281.805 295.656C281.688 295.528 281.599 295.376 281.545 295.212C281.49 295.047 281.472 294.872 281.49 294.7C281.529 294.332 281.701 293.991 281.973 293.74C282.246 293.49 282.6 293.348 282.97 293.34H302.86C303.034 293.338 303.207 293.372 303.366 293.441C303.526 293.51 303.669 293.613 303.786 293.741C303.903 293.87 303.992 294.022 304.046 294.187C304.1 294.352 304.119 294.527 304.1 294.7C304.061 295.067 303.889 295.407 303.616 295.656C303.344 295.904 302.989 296.045 302.62 296.05Z" fill="#263238"/>
<path d="M297.16 301.39H282.27C282.091 301.399 281.911 301.368 281.745 301.3C281.578 301.232 281.429 301.127 281.308 300.994C281.186 300.862 281.096 300.704 281.043 300.532C280.99 300.36 280.975 300.178 281 300C281.035 299.632 281.204 299.29 281.475 299.039C281.746 298.788 282.101 298.646 282.47 298.64H297.36C297.535 298.636 297.708 298.669 297.868 298.738C298.029 298.807 298.173 298.909 298.29 299.038C298.408 299.167 298.496 299.319 298.55 299.485C298.603 299.651 298.62 299.827 298.6 300C298.574 300.368 298.412 300.714 298.146 300.97C297.88 301.227 297.529 301.376 297.16 301.39Z" fill="#263238"/>
<path opacity="0.3" d="M302.62 296.05H282.73C282.557 296.054 282.385 296.021 282.225 295.953C282.065 295.885 281.922 295.783 281.805 295.656C281.688 295.528 281.599 295.376 281.545 295.212C281.49 295.047 281.472 294.872 281.49 294.7C281.529 294.332 281.701 293.991 281.973 293.74C282.246 293.49 282.6 293.348 282.97 293.34H302.86C303.034 293.338 303.207 293.372 303.366 293.441C303.526 293.51 303.669 293.613 303.786 293.741C303.903 293.87 303.992 294.022 304.046 294.187C304.1 294.352 304.119 294.527 304.1 294.7C304.061 295.067 303.889 295.407 303.616 295.656C303.344 295.904 302.989 296.045 302.62 296.05Z" fill="white"/>
<path opacity="0.3" d="M297.16 301.39H282.27C282.091 301.399 281.911 301.368 281.745 301.3C281.578 301.232 281.429 301.127 281.308 300.994C281.186 300.862 281.096 300.704 281.043 300.532C280.99 300.36 280.975 300.178 281 300C281.035 299.632 281.204 299.29 281.475 299.039C281.746 298.788 282.101 298.646 282.47 298.64H297.36C297.535 298.636 297.708 298.669 297.868 298.738C298.029 298.807 298.173 298.909 298.29 299.038C298.408 299.167 298.496 299.319 298.55 299.485C298.603 299.651 298.62 299.827 298.6 300C298.574 300.368 298.412 300.714 298.146 300.97C297.88 301.227 297.529 301.376 297.16 301.39Z" fill="white"/>
<path d="M314.67 297.36C314.329 297.366 313.991 297.3 313.678 297.165C313.365 297.03 313.084 296.831 312.854 296.579C312.624 296.327 312.451 296.029 312.345 295.705C312.239 295.381 312.203 295.039 312.24 294.7C312.32 293.98 312.657 293.312 313.19 292.822C313.723 292.331 314.416 292.05 315.14 292.03C315.482 292.023 315.821 292.09 316.135 292.225C316.449 292.36 316.73 292.561 316.96 292.814C317.191 293.067 317.364 293.366 317.469 293.691C317.574 294.016 317.609 294.36 317.57 294.7C317.489 295.418 317.15 296.083 316.617 296.572C316.084 297.06 315.393 297.34 314.67 297.36Z" fill="#142C52"/>
<path d="M342 296.05H322.06C321.887 296.054 321.715 296.021 321.556 295.953C321.397 295.885 321.254 295.783 321.138 295.655C321.021 295.527 320.933 295.376 320.88 295.211C320.827 295.046 320.81 294.872 320.83 294.7C320.865 294.332 321.034 293.99 321.305 293.739C321.577 293.488 321.931 293.346 322.3 293.34H342.19C342.364 293.338 342.537 293.372 342.696 293.441C342.856 293.51 342.999 293.613 343.116 293.741C343.233 293.87 343.322 294.022 343.376 294.187C343.43 294.352 343.449 294.527 343.43 294.7C343.393 295.059 343.228 295.392 342.965 295.64C342.703 295.887 342.361 296.033 342 296.05Z" fill="#263238"/>
<path d="M336.49 301.39H321.6C321.426 301.394 321.253 301.361 321.092 301.292C320.932 301.224 320.788 301.121 320.671 300.992C320.553 300.864 320.464 300.711 320.411 300.545C320.357 300.379 320.34 300.203 320.36 300.03C320.395 299.662 320.564 299.32 320.835 299.069C321.106 298.818 321.461 298.676 321.83 298.67H336.73C336.904 298.662 337.078 298.692 337.24 298.757C337.401 298.822 337.547 298.92 337.668 299.046C337.788 299.172 337.88 299.323 337.937 299.487C337.995 299.652 338.016 299.827 338 300C337.972 300.38 337.801 300.736 337.52 300.994C337.24 301.252 336.871 301.394 336.49 301.39Z" fill="#263238"/>
<path opacity="0.3" d="M342 296.05H322.06C321.887 296.054 321.715 296.021 321.556 295.953C321.397 295.885 321.254 295.783 321.138 295.655C321.021 295.527 320.933 295.376 320.88 295.211C320.827 295.046 320.81 294.872 320.83 294.7C320.865 294.332 321.034 293.99 321.305 293.739C321.577 293.488 321.931 293.346 322.3 293.34H342.19C342.364 293.338 342.537 293.372 342.696 293.441C342.856 293.51 342.999 293.613 343.116 293.741C343.233 293.87 343.322 294.022 343.376 294.187C343.43 294.352 343.449 294.527 343.43 294.7C343.393 295.059 343.228 295.392 342.965 295.64C342.703 295.887 342.361 296.033 342 296.05Z" fill="white"/>
<path opacity="0.3" d="M336.49 301.39H321.6C321.426 301.394 321.253 301.361 321.092 301.292C320.932 301.224 320.788 301.121 320.671 300.992C320.553 300.864 320.464 300.711 320.411 300.545C320.357 300.379 320.34 300.203 320.36 300.03C320.395 299.662 320.564 299.32 320.835 299.069C321.106 298.818 321.461 298.676 321.83 298.67H336.73C336.904 298.662 337.078 298.692 337.24 298.757C337.401 298.822 337.547 298.92 337.668 299.046C337.788 299.172 337.88 299.323 337.937 299.487C337.995 299.652 338.016 299.827 338 300C337.972 300.38 337.801 300.736 337.52 300.994C337.24 301.252 336.871 301.394 336.49 301.39Z" fill="white"/>
<path d="M447.76 219.33H385.64C384.824 219.345 384.014 219.186 383.264 218.863C382.514 218.541 381.842 218.062 381.291 217.46C380.741 216.857 380.325 216.144 380.071 215.368C379.817 214.593 379.732 213.772 379.82 212.96L383.12 175.23C383.296 173.505 384.098 171.903 385.375 170.729C386.652 169.555 388.315 168.891 390.05 168.86H452.17C452.986 168.846 453.796 169.005 454.546 169.327C455.295 169.65 455.968 170.128 456.518 170.731C457.069 171.333 457.485 172.046 457.739 172.822C457.992 173.598 458.078 174.419 457.99 175.23L454.69 213C454.505 214.719 453.698 216.311 452.422 217.476C451.146 218.642 449.488 219.301 447.76 219.33Z" fill="#142C52"/>
<path d="M412.49 191.671C412.17 194.782 410.724 197.668 408.423 199.787C406.123 201.905 403.126 203.109 400 203.171C398.527 203.196 397.066 202.908 395.714 202.326C394.362 201.743 393.149 200.879 392.156 199.791C391.164 198.703 390.415 197.416 389.958 196.016C389.502 194.616 389.349 193.134 389.51 191.671C389.825 188.558 391.27 185.668 393.571 183.549C395.873 181.43 398.872 180.228 402 180.171C403.472 180.145 404.933 180.433 406.285 181.016C407.638 181.598 408.851 182.462 409.843 183.55C410.835 184.638 411.585 185.925 412.041 187.325C412.497 188.725 412.65 190.207 412.49 191.671Z" fill="#142C52"/>
<path opacity="0.7" d="M412.49 191.671C412.17 194.782 410.724 197.668 408.423 199.787C406.123 201.905 403.126 203.109 400 203.171C398.527 203.196 397.066 202.908 395.714 202.326C394.362 201.743 393.149 200.879 392.156 199.791C391.164 198.703 390.415 197.416 389.958 196.016C389.502 194.616 389.349 193.134 389.51 191.671C389.825 188.558 391.27 185.668 393.571 183.549C395.873 181.43 398.872 180.228 402 180.171C403.472 180.145 404.933 180.433 406.285 181.016C407.638 181.598 408.851 182.462 409.843 183.55C410.835 184.638 411.585 185.925 412.041 187.325C412.497 188.725 412.65 190.207 412.49 191.671Z" fill="white"/>
<path d="M404.47 189.63C404.25 192.15 403.29 194.19 400.77 194.19C398.25 194.19 397.64 192.19 397.86 189.63C398.08 187.07 399.05 185.07 401.57 185.07C404.09 185.07 404.69 187.11 404.47 189.63Z" fill="#263238"/>
<path d="M400.64 195.61C395.37 195.61 392.51 196.78 391.16 198.5C392.119 199.957 393.43 201.149 394.972 201.965C396.513 202.781 398.236 203.196 399.98 203.17C401.831 203.146 403.653 202.715 405.319 201.908C406.985 201.101 408.453 199.938 409.62 198.5C408.57 196.78 405.92 195.61 400.64 195.61Z" fill="#263238"/>
<path d="M439.58 178.83H420.91C420.708 178.834 420.507 178.795 420.321 178.715C420.135 178.635 419.968 178.517 419.831 178.367C419.695 178.217 419.592 178.04 419.53 177.848C419.468 177.655 419.447 177.451 419.47 177.25C419.514 176.822 419.713 176.425 420.03 176.134C420.347 175.843 420.76 175.678 421.19 175.67H439.86C440.062 175.666 440.263 175.705 440.449 175.785C440.635 175.865 440.802 175.984 440.939 176.133C441.075 176.283 441.178 176.46 441.24 176.653C441.302 176.845 441.323 177.049 441.3 177.25C441.258 177.679 441.06 178.078 440.742 178.369C440.425 178.661 440.011 178.825 439.58 178.83Z" fill="white"/>
<path d="M444.56 190.5H419.89C419.688 190.504 419.487 190.465 419.301 190.385C419.115 190.305 418.948 190.187 418.811 190.037C418.675 189.887 418.572 189.71 418.51 189.518C418.448 189.325 418.427 189.121 418.45 188.92C418.494 188.491 418.693 188.093 419.009 187.8C419.326 187.507 419.739 187.34 420.17 187.33H444.84C445.043 187.328 445.244 187.368 445.43 187.449C445.616 187.53 445.783 187.65 445.919 187.8C446.055 187.951 446.158 188.128 446.22 188.321C446.282 188.514 446.303 188.719 446.28 188.92C446.238 189.349 446.04 189.748 445.722 190.039C445.405 190.331 444.991 190.495 444.56 190.5Z" fill="white"/>
<path d="M449.05 196.33H419.38C419.177 196.334 418.976 196.295 418.79 196.215C418.604 196.135 418.438 196.017 418.301 195.867C418.165 195.717 418.062 195.54 418 195.348C417.937 195.155 417.917 194.951 417.94 194.75C417.984 194.322 418.183 193.925 418.5 193.634C418.817 193.343 419.229 193.178 419.66 193.17H449.33C449.532 193.166 449.733 193.205 449.919 193.285C450.105 193.365 450.272 193.484 450.408 193.633C450.545 193.783 450.647 193.96 450.71 194.153C450.772 194.345 450.793 194.549 450.77 194.75C450.728 195.179 450.529 195.578 450.212 195.869C449.894 196.161 449.481 196.325 449.05 196.33Z" fill="white"/>
<path d="M446.54 202.17H418.87C418.667 202.173 418.466 202.132 418.28 202.051C418.094 201.97 417.927 201.851 417.791 201.7C417.655 201.55 417.552 201.372 417.49 201.179C417.428 200.986 417.407 200.782 417.43 200.58C417.476 200.153 417.676 199.757 417.992 199.466C418.309 199.176 418.72 199.01 419.15 199H446.82C447.022 198.996 447.223 199.035 447.409 199.115C447.595 199.195 447.762 199.314 447.898 199.463C448.035 199.613 448.138 199.79 448.2 199.983C448.262 200.175 448.283 200.379 448.26 200.58C448.218 201.01 448.02 201.41 447.703 201.703C447.386 201.996 446.972 202.162 446.54 202.17Z" fill="white"/>
<path d="M443 208H418.36C418.157 208.004 417.956 207.965 417.77 207.885C417.584 207.805 417.417 207.687 417.281 207.537C417.145 207.387 417.042 207.21 416.98 207.018C416.917 206.825 416.897 206.621 416.92 206.42C416.961 205.99 417.16 205.591 417.477 205.298C417.794 205.004 418.208 204.838 418.64 204.83H443.31C443.513 204.828 443.714 204.868 443.9 204.949C444.086 205.03 444.252 205.15 444.389 205.3C444.525 205.451 444.627 205.628 444.69 205.821C444.752 206.014 444.772 206.219 444.75 206.42C444.705 206.853 444.502 207.255 444.178 207.547C443.855 207.838 443.435 208 443 208Z" fill="white"/>
<path d="M445.52 213.83H417.85C417.648 213.834 417.447 213.795 417.261 213.715C417.075 213.635 416.908 213.517 416.771 213.367C416.635 213.217 416.532 213.04 416.47 212.848C416.408 212.655 416.387 212.451 416.41 212.25C416.452 211.821 416.65 211.423 416.968 211.131C417.285 210.84 417.699 210.676 418.13 210.67H445.8C446.002 210.666 446.203 210.705 446.389 210.785C446.575 210.865 446.742 210.984 446.879 211.133C447.015 211.283 447.118 211.46 447.18 211.653C447.242 211.845 447.263 212.049 447.24 212.25C447.194 212.678 446.994 213.073 446.678 213.364C446.361 213.655 445.95 213.821 445.52 213.83Z" fill="white"/>
<path d="M367 219.33H260.15C259.334 219.345 258.524 219.185 257.774 218.863C257.024 218.54 256.352 218.062 255.801 217.459C255.251 216.857 254.835 216.144 254.581 215.368C254.327 214.592 254.242 213.771 254.33 212.96L260.27 145.08C260.446 143.354 261.248 141.753 262.525 140.579C263.803 139.405 265.466 138.74 267.2 138.71H374C374.816 138.695 375.625 138.854 376.375 139.177C377.124 139.499 377.796 139.978 378.346 140.581C378.896 141.184 379.31 141.897 379.563 142.673C379.815 143.448 379.9 144.269 379.81 145.08L373.92 213C373.733 214.716 372.928 216.305 371.654 217.47C370.38 218.635 368.726 219.296 367 219.33Z" fill="#142C52"/>
<path opacity="0.7" d="M367 219.33H260.15C259.334 219.345 258.524 219.185 257.774 218.863C257.024 218.54 256.352 218.062 255.801 217.459C255.251 216.857 254.835 216.144 254.581 215.368C254.327 214.592 254.242 213.771 254.33 212.96L260.27 145.08C260.446 143.354 261.248 141.753 262.525 140.579C263.803 139.405 265.466 138.74 267.2 138.71H374C374.816 138.695 375.625 138.854 376.375 139.177C377.124 139.499 377.796 139.978 378.346 140.581C378.896 141.184 379.31 141.897 379.563 142.673C379.815 143.448 379.9 144.269 379.81 145.08L373.92 213C373.733 214.716 372.928 216.305 371.654 217.47C370.38 218.635 368.726 219.296 367 219.33Z" fill="white"/>
<path d="M377.61 170.72C375.54 163.25 372.27 155.77 367.51 155.77C358.51 155.77 354.14 169.85 349.51 184.77C345.43 197.87 341.21 211.41 334.63 211.41C326.28 211.41 323.99 194.66 321.78 178.46C319.3 160.31 316.96 143.16 306.2 143.16C295.44 143.16 290.11 160.31 284.45 178.46C279.4 194.66 274.19 211.41 265.83 211.41C261.93 211.41 258.3 199.87 256.39 189.61L255.52 199.61C257.6 207.02 260.85 214.39 265.57 214.39C276.33 214.39 281.67 197.24 287.32 179.09C292.32 162.9 297.59 146.14 305.94 146.14C314.29 146.14 316.58 162.9 318.79 179.14C321.27 197.29 323.61 214.44 334.37 214.44C343.37 214.44 347.74 200.36 352.37 185.44C356.45 172.34 360.67 158.8 367.26 158.8C371.19 158.8 374.85 170.5 376.74 180.8L377.61 170.72Z" fill="#142C52"/>
<path d="M309.456 147.135C311.259 145.409 311.439 142.67 309.858 141.019C308.277 139.367 305.533 139.427 303.73 141.154C301.927 142.88 301.747 145.618 303.328 147.27C304.909 148.922 307.652 148.861 309.456 147.135Z" fill="white"/>
<path d="M308.002 145.605C308.896 144.749 308.982 143.39 308.195 142.568C307.408 141.746 306.046 141.774 305.152 142.629C304.259 143.485 304.173 144.845 304.959 145.667C305.746 146.488 307.109 146.461 308.002 145.605Z" fill="#142C52"/>
<path d="M315.68 125.85H300.68C299.895 125.865 299.144 126.166 298.565 126.696C297.987 127.226 297.623 127.95 297.54 128.73L297.3 131.47C297.26 131.837 297.299 132.208 297.413 132.558C297.528 132.909 297.716 133.231 297.965 133.503C298.214 133.776 298.517 133.992 298.856 134.138C299.195 134.284 299.561 134.356 299.93 134.35H304.93L306.42 136.6C306.519 136.732 306.647 136.84 306.794 136.914C306.942 136.988 307.105 137.026 307.27 137.026C307.435 137.026 307.598 136.988 307.745 136.914C307.893 136.84 308.021 136.732 308.12 136.6L310 134.35H315C315.783 134.334 316.534 134.033 317.11 133.503C317.687 132.972 318.049 132.249 318.13 131.47L318.37 128.73C318.41 128.358 318.37 127.982 318.252 127.627C318.134 127.272 317.941 126.946 317.685 126.673C317.43 126.4 317.119 126.184 316.772 126.042C316.426 125.9 316.054 125.835 315.68 125.85Z" fill="#142C52"/>
<path d="M314.51 129.47H300.88C300.784 129.472 300.689 129.454 300.601 129.416C300.512 129.378 300.433 129.321 300.369 129.25C300.304 129.179 300.256 129.095 300.227 129.003C300.198 128.912 300.189 128.815 300.2 128.72C300.228 128.525 300.323 128.347 300.47 128.215C300.616 128.083 300.804 128.007 301 128H314.62C314.716 128 314.81 128.019 314.898 128.058C314.985 128.096 315.063 128.152 315.128 128.223C315.192 128.294 315.24 128.377 315.27 128.468C315.3 128.559 315.31 128.655 315.3 128.75C315.276 128.945 315.183 129.124 315.039 129.256C314.894 129.389 314.706 129.464 314.51 129.47Z" fill="white"/>
<path d="M306.88 132.19H300.65C300.554 132.192 300.458 132.173 300.37 132.135C300.281 132.097 300.201 132.041 300.136 131.97C300.071 131.899 300.021 131.815 299.991 131.724C299.961 131.632 299.95 131.535 299.96 131.44C299.98 131.235 300.075 131.046 300.226 130.907C300.378 130.769 300.575 130.691 300.78 130.69H307C307.096 130.687 307.191 130.706 307.28 130.744C307.368 130.782 307.447 130.838 307.511 130.909C307.576 130.981 307.624 131.065 307.653 131.156C307.683 131.248 307.692 131.344 307.68 131.44C307.659 131.64 307.566 131.826 307.419 131.963C307.273 132.101 307.081 132.181 306.88 132.19Z" fill="white"/>
<path d="M336.828 213.981C338.631 212.254 338.811 209.516 337.23 207.864C335.649 206.213 332.905 206.273 331.102 207.999C329.299 209.726 329.119 212.464 330.7 214.116C332.281 215.767 335.024 215.707 336.828 213.981Z" fill="white"/>
<path d="M336.11 210.999C336.051 211.581 335.782 212.12 335.353 212.516C334.923 212.913 334.364 213.138 333.78 213.149C333.501 213.161 333.223 213.113 332.965 213.007C332.706 212.901 332.474 212.74 332.284 212.536C332.094 212.331 331.95 212.088 331.863 211.823C331.776 211.558 331.748 211.277 331.78 210.999C331.838 210.418 332.108 209.879 332.537 209.482C332.966 209.086 333.526 208.861 334.11 208.849C334.389 208.837 334.667 208.886 334.925 208.992C335.183 209.098 335.416 209.259 335.606 209.463C335.796 209.668 335.939 209.911 336.026 210.176C336.113 210.441 336.142 210.722 336.11 210.999Z" fill="#142C52"/>
<path d="M343.06 192.69H328.06C327.277 192.705 326.526 193.006 325.95 193.537C325.373 194.067 325.01 194.79 324.93 195.57L324.69 198.3C324.649 198.667 324.686 199.039 324.8 199.391C324.914 199.743 325.102 200.067 325.351 200.34C325.6 200.614 325.904 200.831 326.244 200.977C326.583 201.124 326.95 201.196 327.32 201.19H332.27L333.76 203.44C333.861 203.57 333.991 203.676 334.139 203.749C334.287 203.822 334.45 203.86 334.615 203.86C334.78 203.86 334.943 203.822 335.091 203.749C335.24 203.676 335.369 203.57 335.47 203.44L337.35 201.19H342.3C343.087 201.176 343.841 200.875 344.42 200.342C344.999 199.809 345.362 199.082 345.44 198.3L345.68 195.57C345.72 195.204 345.681 194.834 345.567 194.484C345.453 194.134 345.266 193.812 345.018 193.54C344.771 193.268 344.468 193.051 344.131 192.904C343.793 192.758 343.428 192.685 343.06 192.69Z" fill="#263238"/>
<path d="M341.89 196.31H328.26C328.164 196.312 328.069 196.293 327.981 196.255C327.892 196.217 327.813 196.161 327.749 196.09C327.684 196.019 327.636 195.935 327.607 195.843C327.578 195.752 327.569 195.655 327.58 195.56C327.6 195.357 327.693 195.169 327.842 195.03C327.992 194.892 328.187 194.814 328.39 194.81H342C342.096 194.809 342.19 194.829 342.277 194.867C342.365 194.906 342.443 194.962 342.507 195.033C342.572 195.104 342.62 195.187 342.65 195.278C342.68 195.369 342.69 195.465 342.68 195.56C342.663 195.76 342.573 195.946 342.428 196.085C342.282 196.223 342.091 196.303 341.89 196.31Z" fill="white"/>
<path d="M334.26 199H328C327.904 199.002 327.809 198.984 327.721 198.946C327.633 198.908 327.554 198.851 327.489 198.78C327.425 198.709 327.376 198.625 327.347 198.534C327.318 198.442 327.309 198.345 327.32 198.25C327.342 198.048 327.436 197.861 327.585 197.723C327.734 197.586 327.927 197.506 328.13 197.5H334.37C334.467 197.498 334.562 197.517 334.651 197.555C334.739 197.592 334.819 197.649 334.884 197.72C334.95 197.791 334.999 197.874 335.029 197.966C335.06 198.057 335.07 198.154 335.06 198.25C335.041 198.451 334.949 198.638 334.802 198.776C334.654 198.914 334.462 198.994 334.26 199Z" fill="white"/>
<path d="M371.76 156.999C371.642 158.171 371.099 159.26 370.233 160.058C369.367 160.856 368.237 161.308 367.06 161.329C366.505 161.34 365.955 161.232 365.445 161.013C364.936 160.794 364.479 160.468 364.105 160.058C363.731 159.649 363.449 159.164 363.277 158.636C363.106 158.109 363.049 157.551 363.11 156.999C363.232 155.83 363.776 154.745 364.642 153.95C365.508 153.154 366.634 152.702 367.81 152.679C368.363 152.669 368.913 152.777 369.422 152.995C369.931 153.214 370.387 153.538 370.761 153.947C371.134 154.356 371.417 154.839 371.589 155.366C371.761 155.892 371.82 156.449 371.76 156.999Z" fill="white"/>
<path d="M369.58 157C369.522 157.581 369.252 158.121 368.823 158.517C368.394 158.913 367.834 159.138 367.25 159.15C366.971 159.162 366.693 159.113 366.435 159.007C366.177 158.902 365.944 158.741 365.754 158.536C365.564 158.332 365.421 158.089 365.333 157.824C365.246 157.558 365.218 157.277 365.25 157C365.311 156.421 365.581 155.884 366.01 155.489C366.439 155.095 366.998 154.872 367.58 154.86C367.858 154.848 368.135 154.897 368.393 155.002C368.65 155.108 368.882 155.267 369.072 155.471C369.262 155.674 369.406 155.916 369.493 156.18C369.581 156.444 369.611 156.724 369.58 157Z" fill="#142C52"/>
<path d="M376.53 138.71H361.53C360.745 138.723 359.992 139.023 359.413 139.554C358.835 140.084 358.471 140.809 358.39 141.59L358.15 144.33C358.11 144.697 358.149 145.068 358.264 145.418C358.378 145.769 358.566 146.091 358.815 146.363C359.064 146.636 359.367 146.852 359.706 146.998C360.045 147.144 360.411 147.216 360.78 147.21H365.78L367.27 149.46C367.369 149.592 367.497 149.7 367.644 149.774C367.792 149.848 367.955 149.886 368.12 149.886C368.285 149.886 368.448 149.848 368.595 149.774C368.743 149.7 368.871 149.592 368.97 149.46L370.85 147.21H375.8C376.585 147.197 377.338 146.897 377.917 146.366C378.495 145.835 378.859 145.111 378.94 144.33L379.18 141.59C379.22 141.221 379.181 140.849 379.065 140.497C378.949 140.144 378.759 139.821 378.508 139.548C378.257 139.276 377.951 139.06 377.61 138.915C377.269 138.771 376.9 138.701 376.53 138.71Z" fill="#142C52"/>
<path d="M375.36 142.33H361.73C361.634 142.332 361.539 142.314 361.451 142.276C361.363 142.238 361.284 142.181 361.219 142.11C361.155 142.039 361.106 141.955 361.077 141.864C361.048 141.772 361.039 141.675 361.05 141.58C361.07 141.378 361.163 141.189 361.312 141.051C361.462 140.913 361.657 140.834 361.86 140.83H375.49C375.586 140.83 375.68 140.849 375.768 140.888C375.855 140.926 375.933 140.983 375.998 141.053C376.062 141.124 376.11 141.208 376.14 141.298C376.17 141.389 376.18 141.485 376.17 141.58C376.153 141.783 376.06 141.973 375.91 142.112C375.761 142.251 375.564 142.328 375.36 142.33Z" fill="white"/>
<path d="M367.73 145.05H361.49C361.395 145.05 361.3 145.031 361.213 144.992C361.125 144.954 361.047 144.897 360.983 144.827C360.919 144.756 360.87 144.672 360.84 144.582C360.811 144.491 360.8 144.395 360.81 144.3C360.83 144.096 360.925 143.906 361.076 143.767C361.228 143.629 361.425 143.551 361.63 143.55H367.86C367.957 143.548 368.052 143.567 368.141 143.604C368.23 143.642 368.309 143.698 368.374 143.769C368.44 143.84 368.489 143.924 368.519 144.016C368.55 144.107 368.56 144.204 368.55 144.3C368.528 144.503 368.433 144.692 368.282 144.83C368.131 144.968 367.935 145.046 367.73 145.05Z" fill="white"/>
<path d="M271.24 211.48C271.12 212.65 270.576 213.736 269.71 214.532C268.844 215.328 267.716 215.779 266.54 215.8C265.987 215.809 265.439 215.7 264.931 215.481C264.423 215.262 263.968 214.937 263.596 214.529C263.223 214.12 262.942 213.637 262.77 213.111C262.598 212.586 262.54 212.03 262.6 211.48C262.717 210.308 263.261 209.22 264.127 208.422C264.993 207.623 266.122 207.171 267.3 207.15C267.854 207.141 268.403 207.25 268.911 207.47C269.42 207.689 269.876 208.015 270.248 208.425C270.621 208.834 270.902 209.319 271.073 209.845C271.244 210.372 271.301 210.929 271.24 211.48Z" fill="#263238"/>
<path d="M269.07 211.479C269.009 212.061 268.737 212.599 268.306 212.993C267.875 213.388 267.314 213.61 266.73 213.619C266.453 213.63 266.176 213.58 265.92 213.474C265.663 213.368 265.432 213.208 265.242 213.005C265.053 212.802 264.909 212.561 264.821 212.298C264.732 212.035 264.701 211.756 264.73 211.479C264.791 210.897 265.062 210.358 265.493 209.962C265.924 209.566 266.485 209.341 267.07 209.329C267.349 209.319 267.626 209.369 267.883 209.476C268.141 209.582 268.372 209.743 268.562 209.947C268.752 210.151 268.896 210.393 268.983 210.658C269.071 210.922 269.101 211.202 269.07 211.479Z" fill="#142C52"/>
<path d="M276 193.179H261C260.216 193.195 259.464 193.495 258.886 194.026C258.307 194.556 257.943 195.279 257.86 196.059L257.63 198.799C257.589 199.166 257.626 199.538 257.74 199.89C257.854 200.241 258.042 200.564 258.291 200.837C258.54 201.109 258.845 201.326 259.184 201.471C259.524 201.616 259.891 201.687 260.26 201.679H265.26L266.75 203.929C266.849 204.062 266.977 204.169 267.125 204.243C267.272 204.317 267.435 204.356 267.6 204.356C267.765 204.356 267.928 204.317 268.076 204.243C268.223 204.169 268.351 204.062 268.45 203.929L270.34 201.679H275.34C276.125 201.664 276.876 201.363 277.455 200.833C278.033 200.303 278.397 199.58 278.48 198.799L278.71 196.059C278.753 195.685 278.713 195.307 278.595 194.949C278.476 194.592 278.281 194.265 278.023 193.991C277.765 193.717 277.45 193.502 277.101 193.362C276.752 193.222 276.376 193.16 276 193.179Z" fill="#263238"/>
<path d="M274.84 196.81H261.22C261.124 196.812 261.028 196.793 260.939 196.755C260.851 196.717 260.771 196.661 260.706 196.59C260.641 196.519 260.591 196.435 260.561 196.344C260.531 196.252 260.52 196.156 260.53 196.06C260.55 195.855 260.645 195.666 260.796 195.527C260.947 195.389 261.145 195.311 261.35 195.31H275C275.096 195.308 275.192 195.326 275.281 195.364C275.369 195.402 275.449 195.458 275.514 195.529C275.579 195.6 275.629 195.684 275.659 195.776C275.689 195.867 275.7 195.964 275.69 196.06C275.668 196.268 275.568 196.461 275.411 196.6C275.253 196.738 275.05 196.813 274.84 196.81Z" fill="white"/>
<path d="M267.22 199.52H261C260.905 199.52 260.81 199.501 260.723 199.462C260.635 199.424 260.557 199.367 260.493 199.296C260.428 199.226 260.38 199.142 260.35 199.051C260.32 198.961 260.31 198.865 260.32 198.77C260.337 198.566 260.43 198.377 260.58 198.238C260.73 198.099 260.926 198.021 261.13 198.02H267.37C267.466 198.018 267.561 198.036 267.649 198.074C267.738 198.112 267.817 198.168 267.881 198.239C267.946 198.311 267.994 198.395 268.023 198.486C268.052 198.578 268.062 198.674 268.05 198.77C268.03 198.976 267.934 199.167 267.78 199.306C267.627 199.444 267.427 199.521 267.22 199.52Z" fill="white"/>
<path d="M198.44 194.471L195.56 199.471L192.73 204.601C190.87 208.031 189.09 211.481 187.47 214.961C186.66 216.701 185.89 218.431 185.19 220.181L185.06 220.491C185.063 220.517 185.063 220.544 185.06 220.571C185.023 220.612 184.992 220.66 184.97 220.711C184.917 220.799 184.873 220.893 184.84 220.991C184.766 221.368 184.807 221.758 184.96 222.111C185.514 223.475 186.333 224.715 187.37 225.761C188.593 227.075 189.896 228.314 191.27 229.471L188.93 234.471C187.828 234.166 186.748 233.786 185.7 233.331C184.645 232.877 183.623 232.353 182.64 231.761C180.395 230.461 178.471 228.674 177.01 226.531C176.09 225.167 175.473 223.623 175.2 222.001C175.084 221.098 175.084 220.184 175.2 219.281C175.245 218.832 175.322 218.388 175.43 217.951L175.59 217.301L175.72 216.911C176.36 214.861 177.03 212.841 177.81 210.911C179.318 207.025 181.02 203.216 182.91 199.501C183.84 197.651 184.81 195.821 185.83 194.031C186.85 192.241 187.83 190.471 189.02 188.641L198.44 194.471Z" fill="#FFC3BD"/>
<path d="M188.72 228.931L193.98 227.561L194.28 236.051C194.28 236.051 190.17 236.661 187.65 234.141L188.72 228.931Z" fill="#FFC3BD"/>
<path d="M201.42 226.13L200.24 233.58L194.28 236.05L193.98 227.56L201.42 226.13Z" fill="#FFC3BD"/>
<path d="M223.16 154.49C223.27 155.07 223.68 155.49 224.06 155.4C224.44 155.31 224.65 154.79 224.53 154.21C224.41 153.63 224.01 153.21 223.63 153.3C223.25 153.39 223 153.91 223.16 154.49Z" fill="#263238"/>
<path d="M223.62 155.49C224.677 157.122 225.952 158.603 227.41 159.89C227.071 160.255 226.656 160.542 226.195 160.73C225.734 160.919 225.237 161.004 224.74 160.98L223.62 155.49Z" fill="#ED847E"/>
<path d="M220.38 151.7C220.291 151.701 220.206 151.669 220.14 151.61C220.075 151.545 220.04 151.457 220.04 151.365C220.04 151.274 220.075 151.186 220.14 151.12C220.508 150.698 220.974 150.372 221.497 150.17C222.019 149.968 222.583 149.896 223.14 149.96C223.231 149.976 223.313 150.028 223.366 150.104C223.419 150.18 223.441 150.274 223.425 150.365C223.409 150.457 223.357 150.538 223.281 150.592C223.205 150.645 223.111 150.666 223.02 150.65C222.584 150.61 222.146 150.675 221.741 150.838C221.336 151.002 220.975 151.26 220.69 151.59C220.65 151.632 220.602 151.663 220.548 151.683C220.494 151.702 220.436 151.708 220.38 151.7Z" fill="#263238"/>
<path d="M206.62 162.66C207.62 168.03 208.72 177.88 204.96 181.47C204.96 181.47 206.43 186.92 216.42 186.92C227.42 186.92 221.66 181.47 221.66 181.47C215.66 180.04 215.83 175.59 216.87 171.41L206.62 162.66Z" fill="#FFC3BD"/>
<path d="M202.79 182.46C201.99 180.97 201.11 179.26 202.94 178.73C204.94 178.14 217.87 177.05 221.67 178.15C220.5 180.23 222.48 182.78 222.48 182.78L202.79 182.46Z" fill="#263238"/>
<path d="M170.26 433.001C170.556 433.106 170.871 433.152 171.185 433.135C171.499 433.118 171.807 433.038 172.09 432.901C172.199 432.8 172.275 432.668 172.305 432.523C172.336 432.378 172.32 432.226 172.26 432.091C172.228 431.977 172.171 431.873 172.093 431.785C172.015 431.696 171.918 431.627 171.81 431.581C170.81 431.101 168.54 432.031 168.44 432.071C168.41 432.085 168.385 432.108 168.367 432.136C168.35 432.165 168.34 432.197 168.34 432.231C168.335 432.264 168.341 432.297 168.358 432.326C168.374 432.355 168.399 432.378 168.43 432.391C169.017 432.658 169.63 432.862 170.26 433.001ZM171.46 431.821L171.66 431.891C171.724 431.917 171.782 431.958 171.829 432.01C171.876 432.062 171.91 432.124 171.93 432.191C172.02 432.501 171.93 432.601 171.86 432.631C171.47 432.971 170 432.631 168.97 432.241C169.761 431.928 170.611 431.791 171.46 431.841V431.821Z" fill="#142C52"/>
<path d="M168.47 432.42H168.56C169.39 432.18 171.17 430.91 171.19 430.08C171.191 429.949 171.146 429.822 171.064 429.72C170.982 429.618 170.868 429.548 170.74 429.52C170.614 429.479 170.481 429.462 170.349 429.473C170.217 429.483 170.088 429.52 169.97 429.58C168.97 430.08 168.37 432.12 168.34 432.2C168.324 432.226 168.315 432.255 168.315 432.285C168.315 432.315 168.324 432.345 168.34 432.37C168.355 432.389 168.375 432.404 168.398 432.412C168.421 432.421 168.446 432.424 168.47 432.42ZM170.55 429.82H170.63C170.84 429.89 170.84 430 170.84 430.04C170.84 430.53 169.65 431.52 168.84 431.93C169.07 431.122 169.537 430.401 170.18 429.86C170.296 429.81 170.425 429.796 170.55 429.82Z" fill="#142C52"/>
<path d="M224.5 434.25C225.44 434.25 226.35 434.12 226.66 433.7C226.74 433.588 226.784 433.453 226.784 433.315C226.784 433.177 226.74 433.042 226.66 432.93C226.6 432.829 226.521 432.742 226.426 432.673C226.331 432.604 226.224 432.556 226.11 432.53C224.89 432.2 222.32 433.66 222.21 433.72C222.18 433.739 222.157 433.766 222.143 433.798C222.129 433.83 222.124 433.865 222.13 433.9C222.136 433.935 222.152 433.967 222.177 433.992C222.202 434.018 222.235 434.034 222.27 434.04C223.005 434.178 223.752 434.249 224.5 434.25ZM225.67 432.82C225.779 432.809 225.89 432.809 226 432.82C226.141 432.856 226.263 432.945 226.34 433.07C226.47 433.28 226.42 433.39 226.34 433.45C225.99 433.93 224.14 433.94 222.77 433.74C223.669 433.252 224.653 432.94 225.67 432.82Z" fill="#142C52"/>
<path d="M222.28 434.05H222.35C223.24 433.65 225 432.05 224.86 431.23C224.86 431.04 224.69 430.8 224.21 430.75C224.031 430.723 223.849 430.736 223.676 430.788C223.503 430.84 223.344 430.929 223.21 431.05C222.27 431.81 222.08 433.79 222.07 433.88C222.066 433.909 222.07 433.939 222.082 433.966C222.095 433.992 222.115 434.015 222.14 434.03C222.183 434.053 222.232 434.06 222.28 434.05ZM224.07 431.05H224.18C224.49 431.05 224.51 431.21 224.52 431.25C224.6 431.75 223.4 433 222.52 433.54C222.611 432.698 222.96 431.905 223.52 431.27C223.676 431.145 223.87 431.074 224.07 431.07V431.05Z" fill="#142C52"/>
<path d="M214.2 433.87H221.55L222.28 416.86H214.93L214.2 433.87Z" fill="#FFC3BD"/>
<path d="M160.28 430.47L167.46 432.02L174.67 416.18L167.49 414.63L160.28 430.47Z" fill="#FFC3BD"/>
<path d="M168.15 431.3L160.09 429.56C159.947 429.525 159.795 429.541 159.663 429.607C159.531 429.673 159.427 429.784 159.37 429.92L156.57 435.99C156.502 436.138 156.468 436.3 156.471 436.463C156.475 436.626 156.515 436.786 156.589 436.932C156.663 437.077 156.769 437.204 156.899 437.302C157.029 437.401 157.18 437.468 157.34 437.5C160.17 438.06 161.57 438.19 165.12 438.96C167.3 439.43 172.23 440.63 175.24 441.28C178.25 441.93 179.3 439.04 178.12 438.5C172.85 436.09 170.65 433.97 169.22 432C168.962 431.642 168.581 431.393 168.15 431.3Z" fill="#263238"/>
<path d="M221.5 433H213.5C213.354 433.001 213.213 433.05 213.098 433.141C212.984 433.232 212.904 433.358 212.87 433.5L211.42 440.03C211.383 440.188 211.383 440.353 211.42 440.511C211.457 440.669 211.529 440.817 211.631 440.943C211.733 441.069 211.862 441.171 212.01 441.24C212.157 441.308 212.318 441.343 212.48 441.34C215.37 441.29 219.55 441.12 223.19 441.12C227.44 441.12 231.12 441.35 236.11 441.35C239.11 441.35 239.96 438.3 238.7 438.03C232.95 436.77 228.26 436.64 223.29 433.57C222.758 433.218 222.138 433.02 221.5 433Z" fill="#263238"/>
<path d="M191.81 183.13C184.92 184.71 179.24 202.28 179.24 202.28L193.07 212.82C196.652 209.012 199.178 204.334 200.4 199.25C202.77 190 198.85 181.51 191.81 183.13Z" fill="#142C52"/>
<path opacity="0.2" d="M197.71 196.05C193.97 199.75 192.71 206.49 192.46 212.35L193.07 212.82C196.652 209.005 199.181 204.326 200.41 199.24C200.55 198.69 200.67 198.14 200.77 197.6L197.71 196.05Z" fill="black"/>
<path d="M233 183.511C233 183.511 238.64 189.031 236.51 218.381C235.95 226.141 232.98 235.571 231.44 247.001H197.11C196.83 241.001 197.62 211.551 191.81 183.131C196.166 182.293 200.572 181.738 205 181.471C210.562 181.15 216.138 181.15 221.7 181.471C225.514 181.855 229.292 182.537 233 183.511Z" fill="#263238"/>
<path opacity="0.6" d="M236.94 208.08C236.29 203.82 235.6 200.08 234.94 196.88L234.72 196.75L223.96 201.26C224.48 207.95 231.55 214.7 236.47 218.65C236.47 218.56 236.47 218.46 236.47 218.38C236.75 214.55 236.89 211.14 236.94 208.08Z" fill="black"/>
<path opacity="0.2" d="M222.28 416.86L221.9 425.63H214.55L214.93 416.86H222.28Z" fill="black"/>
<path opacity="0.2" d="M167.49 414.63L174.67 416.18L170.95 424.35L163.77 422.8L167.49 414.63Z" fill="black"/>
<path d="M203.54 157.2C205.43 164.2 206.17 168.46 210.54 171.39C217.08 175.79 225.21 170.74 225.47 163.27C225.7 156.55 222.57 146.16 215.02 144.75C213.354 144.423 211.631 144.529 210.017 145.057C208.403 145.585 206.951 146.518 205.8 147.766C204.649 149.015 203.837 150.537 203.441 152.189C203.045 153.84 203.079 155.566 203.54 157.2Z" fill="#FFC3BD"/>
<path d="M219.46 247C219.46 247 211.12 303.15 206.55 324.18C201.55 347.18 174.66 423.42 174.66 423.42L161.51 420.57C161.51 420.57 180.3 358.47 184.51 326.27C186.38 311.92 186.65 287.55 189.06 269.61C190.199 261.609 192.936 253.92 197.11 247H219.46Z" fill="#263238"/>
<path d="M177.81 419.001L175.36 423.751L160.56 420.551L161.81 416.101L177.81 419.001Z" fill="#142C52"/>
<path opacity="0.6" d="M214.19 267.001C204.55 268.891 205.57 304.841 206.73 323.331C209.51 310.261 213.58 285.111 216.36 267.261C215.687 266.929 214.922 266.838 214.19 267.001Z" fill="black"/>
<path d="M231.4 247C231.4 247 234.4 301.93 233.61 324.33C232.78 347.64 224.61 423.93 224.61 423.93H212.2C212.2 423.93 211.74 349 211.2 326.11C210.59 301.16 207.58 247 207.58 247H231.4Z" fill="#263238"/>
<path d="M227 419C227.05 419 226.29 424.16 226.29 424.16H211.19L210.79 419.55L227 419Z" fill="#142C52"/>
<path d="M236.59 190.21C237.72 191.97 239 193.94 240.29 195.77C241.58 197.6 242.91 199.45 244.29 201.22C246.903 204.727 249.817 208 253 211C253.77 211.71 254.56 212.37 255.36 213L255.96 213.45C255.85 213.392 255.732 213.351 255.61 213.33C255.35 213.28 255.22 213.33 255.29 213.33C255.879 213.373 256.469 213.259 257 213C257.873 212.624 258.719 212.187 259.53 211.69C263.254 209.234 266.785 206.496 270.09 203.5L274.38 206.97C271.778 211.336 268.539 215.29 264.77 218.7C263.7 219.643 262.549 220.49 261.33 221.23C259.79 222.188 258.072 222.825 256.28 223.1C254.276 223.386 252.235 222.954 250.52 221.88L249.65 221.33C248.51 220.59 247.42 219.81 246.38 218.99C242.421 215.774 238.811 212.15 235.61 208.18C234.04 206.24 232.53 204.28 231.12 202.25C229.71 200.22 228.35 198.25 227.03 195.93L236.59 190.21Z" fill="#FFC3BD"/>
<path d="M222.16 194.62C219.81 204.47 237.63 214.11 237.63 214.11L249.2 200.55C245.726 195.423 241.768 190.641 237.38 186.27C229.28 178.5 223.94 187.12 222.16 194.62Z" fill="#142C52"/>
<path d="M268.91 205.51L271.64 196.74L278.83 200.32C278.83 200.32 277.78 206.72 272.55 207.83L268.91 205.51Z" fill="#FFC3BD"/>
<path d="M274.52 194.311L281.01 196.091L278.83 200.321L271.64 196.741L274.52 194.311Z" fill="#FFC3BD"/>
<path d="M211 167.58C212.866 167.164 214.575 166.221 215.922 164.863C217.269 163.506 218.198 161.79 218.6 159.92C218.6 159.92 217 155.7 220 152.83C223 149.96 221.52 146.83 218.52 146.24C215.52 145.65 210.92 149.24 210.92 149.24L207.26 155.8L208.75 162.42L211 167.58Z" fill="#263238"/>
<path opacity="0.3" d="M211 167.58C212.866 167.164 214.575 166.221 215.922 164.863C217.269 163.506 218.198 161.79 218.6 159.92C218.6 159.92 217 155.7 220 152.83C223 149.96 221.52 146.83 218.52 146.24C215.52 145.65 210.92 149.24 210.92 149.24L207.26 155.8L208.75 162.42L211 167.58Z" fill="white"/>
<path d="M215.52 157.49C216.006 159.245 217.061 160.789 218.52 161.88C220.43 163.3 221.86 161.88 221.72 159.74C221.6 157.74 220.46 154.74 218.35 154.12C216.24 153.5 215 155.38 215.52 157.49Z" fill="#FFC3BD"/>
<path d="M212 165.62C210.21 161.35 206.91 150.3 218.57 146.24C218.57 146.24 217.72 135.58 223.39 139.92C223.39 139.92 217.97 133 217.22 140.08C217.22 140.08 215.89 137.67 217.89 136.08C217.89 136.08 207.22 132.5 207.47 140.58C207.175 139.749 207.09 138.859 207.221 137.987C207.352 137.115 207.695 136.288 208.22 135.58C208.22 135.58 205.9 135.44 204.98 139.1C204.06 142.76 195 142 195.83 150.33C195.83 150.33 187.83 160.39 207.04 168.98C207.04 168.98 204.51 170.54 205.95 173.03C206.212 172.157 206.65 171.346 207.239 170.65C207.827 169.953 208.552 169.385 209.37 168.98C209.37 168.98 208.12 171.83 210.79 172.67C210.523 171.934 210.456 171.14 210.595 170.369C210.734 169.598 211.073 168.878 211.58 168.28C211.896 167.923 212.104 167.483 212.178 167.012C212.253 166.54 212.191 166.057 212 165.62Z" fill="#263238"/>
<path opacity="0.1" d="M218.87 170C216.33 170.12 216.48 172.6 216.52 173C218.721 172.785 220.783 171.822 222.36 170.27C221.44 170.43 220.46 169.93 218.87 170Z" fill="black"/>
<path d="M217.58 145.17C217.58 145.17 218.89 140.34 221.36 141.3C223.83 142.26 222.08 146.17 223.36 148C222.766 147.747 222.249 147.344 221.86 146.83C221.471 146.316 221.222 145.71 221.14 145.07C220.78 142.79 218.54 146.24 218.54 146.24L217.58 145.17Z" fill="#263238"/>
<path d="M218.55 164.51L220.93 161.78L220.02 160.98H217.07L216.16 161.78L218.55 164.51Z" fill="#142C52"/>
<path opacity="0.2" d="M218.22 160.98H217.07L216.16 161.78L218.55 164.51L217.31 161.78L218.22 160.98Z" fill="white"/>
</svg>
