<svg width="600" height="500" viewBox="0 0 600 500" fill="none" xmlns="http://www.w3.org/2000/svg">
<path d="M15.8436 391.604C157.578 294.255 15.8436 86.187 15.8436 13.1988C15.8436 -59.7894 159.301 200.161 200.318 60.7407C241.334 -78.6793 507.032 300.535 581.871 391.604C734.047 576.782 -125.891 488.954 15.8436 391.604Z" fill="#07F9A2"/>
<path d="M475.593 80.8418H122.082V292.414H475.593V80.8418Z" fill="#F5F5F5"/>
<path d="M489.651 378.508H410.055V455.521H489.651V378.508Z" fill="#F5F5F5"/>
<path d="M416.229 448.924L438.243 409.297L456.252 434.623L467.196 421.177L483.477 448.924H416.229Z" fill="#E0E0E0"/>
<path d="M463.929 401.593C463.929 402.727 463.593 403.835 462.963 404.778C462.333 405.721 461.437 406.456 460.39 406.889C459.342 407.323 458.19 407.437 457.077 407.216C455.965 406.995 454.944 406.448 454.142 405.647C453.34 404.845 452.794 403.823 452.573 402.711C452.352 401.599 452.465 400.447 452.899 399.399C453.333 398.351 454.068 397.456 455.011 396.826C455.954 396.196 457.062 395.86 458.196 395.86C459.716 395.86 461.175 396.464 462.25 397.539C463.325 398.614 463.929 400.072 463.929 401.593Z" fill="#E0E0E0"/>
<g opacity="0.3">
<path d="M483.477 449.14C483.477 449.14 483.477 449.023 483.477 448.825C483.477 448.627 483.477 448.303 483.477 447.925C483.477 447.106 483.477 445.954 483.477 444.46C483.477 441.409 483.432 436.99 483.396 431.383C483.351 420.133 483.297 404.113 483.225 384.88L483.549 385.213L416.301 385.267C416.211 385.339 417.012 384.547 416.679 384.898V393.601C416.679 396.481 416.679 399.343 416.679 402.169C416.679 407.83 416.679 413.374 416.679 418.765C416.679 429.565 416.679 439.753 416.679 449.131L416.355 448.798L464.955 448.969L478.671 449.05L482.271 449.095H483.216C483.324 449.087 483.432 449.087 483.54 449.095C483.444 449.104 483.348 449.104 483.252 449.095H482.352H478.752L465.108 449.185L416.274 449.356H415.941V449.023C415.941 439.645 415.941 429.448 415.941 418.657C415.941 413.257 415.941 407.722 415.941 402.061V384.907L416.328 384.511L483.576 384.565H483.909V384.889C483.837 404.212 483.783 420.295 483.738 431.599C483.738 437.17 483.675 441.562 483.657 444.604C483.657 446.062 483.657 447.205 483.612 448.006C483.612 448.366 483.612 448.645 483.612 448.906C483.579 448.99 483.533 449.069 483.477 449.14Z" fill="#E0E0E0"/>
</g>
<path d="M493.728 102.604H136.293V305.797H493.728V102.604Z" fill="#E0E0E0"/>
<path d="M535.308 455.881C535.308 456.016 441.366 456.115 325.509 456.115C209.652 456.115 115.692 456.016 115.692 455.881C115.692 455.746 209.616 455.647 325.509 455.647C441.402 455.647 535.308 455.8 535.308 455.881Z" fill="#263238"/>
<path d="M445.731 455.8L319.659 455.854C319.407 455.855 319.157 455.807 318.923 455.711C318.689 455.615 318.477 455.474 318.298 455.296C318.119 455.118 317.977 454.906 317.88 454.673C317.783 454.44 317.733 454.19 317.733 453.937V377.788C317.733 377.536 317.783 377.286 317.88 377.052C317.977 376.819 318.119 376.608 318.298 376.429C318.477 376.251 318.689 376.11 318.923 376.014C319.157 375.919 319.407 375.87 319.659 375.871L445.731 375.808C446.241 375.81 446.728 376.014 447.087 376.375C447.447 376.736 447.648 377.225 447.648 377.734V453.874C447.648 454.383 447.447 454.872 447.087 455.233C446.728 455.594 446.241 455.798 445.731 455.8Z" fill="#263238"/>
<path d="M384.027 407.812L394.692 413.545L384.459 420.286L374.217 427.036L373.794 414.553L373.362 402.07L384.027 407.812Z" fill="white"/>
<path d="M438.261 447.835C438.261 447.97 413.376 448.087 382.686 448.096C351.996 448.105 327.111 448.015 327.111 447.889C327.111 447.763 351.987 447.646 382.686 447.628C413.385 447.61 438.261 447.7 438.261 447.835Z" fill="white"/>
<path d="M329.1 447.889C329.1 448.167 329.018 448.438 328.863 448.669C328.709 448.9 328.49 449.08 328.233 449.186C327.977 449.293 327.694 449.321 327.422 449.266C327.15 449.212 326.9 449.078 326.703 448.882C326.507 448.686 326.373 448.436 326.319 448.163C326.265 447.891 326.293 447.609 326.399 447.352C326.505 447.096 326.685 446.876 326.916 446.722C327.147 446.568 327.418 446.485 327.696 446.485C328.068 446.485 328.425 446.633 328.689 446.897C328.952 447.16 329.1 447.517 329.1 447.889Z" fill="white"/>
<path d="M426.03 455.602L292.146 455.665C291.635 455.665 291.146 455.462 290.784 455.101C290.423 454.74 290.22 454.25 290.22 453.739V372.784C290.22 372.532 290.27 372.282 290.367 372.049C290.464 371.815 290.606 371.604 290.785 371.425C290.964 371.247 291.176 371.106 291.41 371.011C291.643 370.915 291.894 370.866 292.146 370.867L426.03 370.804C426.539 370.804 427.028 371.006 427.389 371.365C427.75 371.724 427.954 372.212 427.956 372.721V453.721C427.947 454.225 427.739 454.705 427.379 455.057C427.019 455.409 426.534 455.605 426.03 455.602Z" fill="#455A64"/>
<path d="M360.501 404.698L371.814 410.773L360.96 417.928L350.106 425.083L349.656 411.853L349.197 398.614L360.501 404.698Z" fill="white"/>
<path d="M418.002 447.133C418.002 447.268 391.623 447.385 359.088 447.394C326.553 447.403 300.165 447.322 300.165 447.187C300.165 447.052 326.544 446.944 359.088 446.926C391.632 446.908 418.002 447.007 418.002 447.133Z" fill="white"/>
<path d="M302.217 447.187C302.217 447.481 302.13 447.768 301.967 448.012C301.804 448.256 301.572 448.447 301.3 448.559C301.029 448.672 300.73 448.701 300.442 448.644C300.154 448.586 299.89 448.445 299.682 448.237C299.474 448.03 299.333 447.765 299.276 447.477C299.218 447.189 299.248 446.89 299.36 446.619C299.473 446.348 299.663 446.116 299.907 445.952C300.151 445.789 300.438 445.702 300.732 445.702C301.126 445.702 301.504 445.859 301.782 446.137C302.061 446.416 302.217 446.793 302.217 447.187Z" fill="white"/>
<path d="M374.667 407.209H299.49C298.427 407.209 297.564 408.071 297.564 409.135V453.937C297.564 455.001 298.427 455.863 299.49 455.863H374.667C375.731 455.863 376.593 455.001 376.593 453.937V409.135C376.593 408.071 375.731 407.209 374.667 407.209Z" fill="#142C52"/>
<path d="M337.902 426.64L344.391 430.123L338.163 434.227L331.935 438.34L331.674 430.744L331.413 423.148L337.902 426.64Z" fill="white"/>
<path d="M370.896 450.994C370.896 451.12 355.758 451.228 337.092 451.237C318.426 451.246 303.279 451.147 303.279 451.021C303.279 450.895 318.417 450.778 337.092 450.769C355.767 450.76 370.896 450.859 370.896 450.994Z" fill="white"/>
<path d="M304.458 451.021C304.458 451.191 304.408 451.356 304.313 451.497C304.219 451.638 304.085 451.747 303.928 451.812C303.771 451.876 303.599 451.893 303.433 451.859C303.267 451.825 303.114 451.743 302.995 451.622C302.876 451.502 302.795 451.349 302.763 451.182C302.731 451.016 302.75 450.844 302.816 450.688C302.882 450.532 302.993 450.399 303.135 450.306C303.276 450.213 303.443 450.164 303.612 450.166C303.837 450.168 304.052 450.26 304.211 450.42C304.369 450.58 304.458 450.796 304.458 451.021Z" fill="white"/>
<path d="M503.898 124.933H149.991V350.383H503.898V124.933Z" fill="white"/>
<path d="M504.141 349.519C504.141 347.782 504.069 262.426 503.952 124.069L504.141 124.285L150.27 124.348L150.522 124.069C150.522 203.863 150.522 280.102 150.522 349.519L150.288 349.258L504.186 349.519L150.288 349.78H150V349.519C150 280.102 150 203.863 150 124.069V123.79H150.288L504.159 123.853H504.357V124.069C504.222 262.426 504.15 347.8 504.141 349.519Z" fill="#263238"/>
<path d="M504.348 137.587C504.348 137.722 425.022 137.839 327.201 137.839C229.38 137.839 150 137.722 150 137.587C150 137.452 229.308 137.326 327.165 137.326C425.022 137.326 504.348 137.443 504.348 137.587Z" fill="#263238"/>
<path d="M161.7 129.235C161.7 129.687 161.566 130.129 161.315 130.505C161.064 130.881 160.707 131.174 160.289 131.347C159.872 131.52 159.412 131.566 158.968 131.477C158.525 131.389 158.118 131.171 157.798 130.852C157.478 130.532 157.261 130.125 157.172 129.681C157.084 129.238 157.129 128.778 157.302 128.36C157.475 127.943 157.768 127.586 158.144 127.334C158.52 127.083 158.962 126.949 159.414 126.949C160.021 126.949 160.602 127.19 161.031 127.619C161.46 128.047 161.7 128.629 161.7 129.235Z" fill="#263238"/>
<path d="M168.711 129.235C168.711 129.687 168.577 130.129 168.326 130.505C168.075 130.881 167.718 131.174 167.3 131.347C166.882 131.52 166.423 131.566 165.979 131.477C165.536 131.389 165.128 131.171 164.809 130.852C164.489 130.532 164.271 130.125 164.183 129.681C164.095 129.238 164.14 128.778 164.313 128.36C164.486 127.943 164.779 127.586 165.155 127.334C165.531 127.083 165.973 126.949 166.425 126.949C166.725 126.949 167.023 127.008 167.3 127.123C167.577 127.238 167.829 127.406 168.042 127.619C168.254 127.831 168.422 128.083 168.537 128.36C168.652 128.638 168.711 128.935 168.711 129.235Z" fill="#263238"/>
<path d="M175.686 129.235C175.686 129.687 175.552 130.129 175.301 130.505C175.05 130.881 174.693 131.174 174.275 131.347C173.857 131.52 173.398 131.566 172.954 131.477C172.511 131.389 172.104 131.171 171.784 130.852C171.464 130.532 171.246 130.125 171.158 129.681C171.07 129.238 171.115 128.778 171.288 128.36C171.461 127.943 171.754 127.586 172.13 127.334C172.506 127.083 172.948 126.949 173.4 126.949C174.007 126.949 174.588 127.19 175.017 127.619C175.445 128.047 175.686 128.629 175.686 129.235Z" fill="#263238"/>
<path d="M246.714 259.06H173.733V329.674H246.714V259.06Z" fill="#142C52"/>
<g opacity="0.3">
<path d="M179.394 323.635L199.581 287.293L216.096 310.522L226.131 298.183L241.062 323.635H179.394Z" fill="black"/>
</g>
<g opacity="0.3">
<path d="M223.134 280.228C223.136 281.268 222.829 282.285 222.253 283.15C221.676 284.016 220.856 284.691 219.896 285.09C218.935 285.489 217.878 285.595 216.858 285.393C215.838 285.191 214.901 284.691 214.165 283.957C213.429 283.222 212.927 282.285 212.724 281.266C212.52 280.246 212.624 279.189 213.021 278.228C213.419 277.267 214.093 276.445 214.957 275.867C215.822 275.289 216.838 274.981 217.878 274.981C219.27 274.983 220.604 275.537 221.589 276.52C222.574 277.503 223.129 278.836 223.134 280.228Z" fill="black"/>
</g>
<g opacity="0.3">
<path d="M241.062 323.824C241.049 323.728 241.049 323.631 241.062 323.536C241.062 323.329 241.062 323.059 241.062 322.717C241.062 321.961 241.062 320.917 241.062 319.54C241.062 316.741 241.062 312.691 240.981 307.543C240.981 297.229 240.891 282.541 240.828 264.91L241.134 265.207L179.466 265.261L179.808 264.919V280.777C179.808 285.961 179.808 291.046 179.808 295.987C179.808 305.887 179.808 315.229 179.808 323.824L179.511 323.527L224.097 323.68L236.697 323.761H240.036H240.936H241.242C241.153 323.774 241.062 323.774 240.972 323.761H240.135H236.859L224.349 323.842L179.574 323.995H179.268V323.689C179.268 315.094 179.268 305.743 179.268 295.852C179.268 290.911 179.268 285.826 179.268 280.642V264.919L179.619 264.568L241.287 264.613H241.584V264.91C241.521 282.622 241.467 297.373 241.431 307.732C241.431 312.853 241.368 316.876 241.35 319.657C241.35 320.998 241.35 322.042 241.35 322.78C241.35 323.113 241.35 323.365 241.35 323.572C241.261 323.664 241.165 323.748 241.062 323.824Z" fill="black"/>
</g>
<path d="M306.24 272.497H256.839V274.981H306.24V272.497Z" fill="#142C52"/>
<path d="M323.412 283.153C323.412 283.297 308.571 283.414 290.274 283.414C271.977 283.414 257.136 283.297 257.136 283.153C257.136 283.009 271.968 282.901 290.274 282.901C308.58 282.901 323.412 283 323.412 283.153Z" fill="#263238"/>
<path d="M323.412 290.083C323.412 290.227 308.571 290.344 290.274 290.344C271.977 290.344 257.1 290.2 257.1 290.083C257.1 289.966 271.932 289.831 290.238 289.831C308.544 289.831 323.412 289.948 323.412 290.083Z" fill="#263238"/>
<path d="M323.412 297.013C323.412 297.157 308.571 297.265 290.274 297.265C271.977 297.265 257.136 297.157 257.136 297.013C257.136 296.869 271.968 296.761 290.274 296.761C308.58 296.761 323.412 296.869 323.412 297.013Z" fill="#263238"/>
<path d="M323.412 303.943C323.412 304.078 308.571 304.195 290.274 304.195C271.977 304.195 257.136 304.078 257.136 303.943C257.136 303.808 271.968 303.691 290.274 303.691C308.58 303.691 323.412 303.799 323.412 303.943Z" fill="#263238"/>
<path d="M323.412 310.9C323.412 311.035 308.571 311.152 290.274 311.152C271.977 311.152 257.1 311.008 257.1 310.9C257.1 310.792 271.932 310.639 290.238 310.639C308.544 310.639 323.412 310.729 323.412 310.9Z" fill="#263238"/>
<path d="M291.174 317.2C291.174 317.335 283.551 317.452 274.155 317.452C264.759 317.452 257.1 317.371 257.1 317.2C257.1 317.029 264.723 316.939 274.119 316.939C283.515 316.939 291.174 317.092 291.174 317.2Z" fill="#263238"/>
<path d="M465.819 268.312H416.418V270.796H465.819V268.312Z" fill="#142C52"/>
<path d="M483 278.977C483 279.121 468.159 279.229 449.862 279.229C431.565 279.229 416.724 279.121 416.724 278.977C416.724 278.833 431.556 278.725 449.862 278.725C468.168 278.725 483 278.833 483 278.977Z" fill="#263238"/>
<path d="M483 285.907C483 286.051 468.159 286.159 449.862 286.159C431.565 286.159 416.724 286.051 416.724 285.907C416.724 285.763 431.556 285.655 449.862 285.655C468.168 285.655 483 285.763 483 285.907Z" fill="#263238"/>
<path d="M483 292.837C483 292.972 468.159 293.089 449.862 293.089C431.565 293.089 416.724 292.972 416.724 292.837C416.724 292.702 431.556 292.576 449.862 292.576C468.168 292.576 483 292.693 483 292.837Z" fill="#263238"/>
<path d="M483 299.767C483 299.902 468.159 300.019 449.862 300.019C431.565 300.019 416.724 299.902 416.724 299.767C416.724 299.632 431.556 299.506 449.862 299.506C468.168 299.506 483 299.623 483 299.767Z" fill="#263238"/>
<path d="M483 306.688C483 306.832 468.159 306.949 449.862 306.949C431.565 306.949 416.724 306.832 416.724 306.688C416.724 306.544 431.556 306.436 449.862 306.436C468.168 306.436 483 306.553 483 306.688Z" fill="#263238"/>
<path d="M450.753 313.06C450.753 313.195 443.13 313.312 433.734 313.312C424.338 313.312 416.715 313.195 416.715 313.06C416.715 312.925 424.338 312.799 433.734 312.799C443.13 312.799 450.753 312.916 450.753 313.06Z" fill="#263238"/>
<path d="M406.212 332.059C407.004 331.813 407.836 331.727 408.66 331.807C408.147 332.32 408.516 331.951 408.399 332.059V331.6V331.141C408.399 330.847 408.417 330.586 408.453 330.358C408.498 329.917 408.561 329.647 408.633 329.647C408.705 329.647 408.768 329.917 408.813 330.358C408.813 330.586 408.831 330.847 408.867 331.141V332.041L408.615 332.302C407.806 332.386 406.988 332.304 406.212 332.059Z" fill="#263238"/>
<path d="M395.7 332.059C397.43 331.723 399.208 331.723 400.938 332.059C399.21 332.407 397.429 332.407 395.7 332.059Z" fill="#263238"/>
<path d="M385.26 332.059C386.99 331.723 388.768 331.723 390.498 332.059C388.77 332.407 386.989 332.407 385.26 332.059Z" fill="#263238"/>
<path d="M374.784 332.059C376.514 331.723 378.292 331.723 380.022 332.059C378.293 332.407 376.513 332.407 374.784 332.059Z" fill="#263238"/>
<path d="M364.308 332.059C366.038 331.723 367.816 331.723 369.546 332.059C367.817 332.407 366.037 332.407 364.308 332.059Z" fill="#263238"/>
<path d="M353.832 332.059C355.562 331.723 357.34 331.723 359.07 332.059C357.341 332.407 355.561 332.407 353.832 332.059Z" fill="#263238"/>
<path d="M343.356 332.059C345.086 331.723 346.865 331.723 348.594 332.059C346.866 332.407 345.085 332.407 343.356 332.059Z" fill="#263238"/>
<path d="M335.67 329.62C335.927 330.406 336.016 331.237 335.931 332.059L335.67 331.807H336.624L337.407 331.861C337.848 331.915 338.118 331.978 338.118 332.041C338.118 332.104 337.848 332.176 337.407 332.23L336.624 332.284H335.67C335.562 332.167 335.931 332.536 335.418 332.023C335.344 331.213 335.429 330.397 335.67 329.62Z" fill="#263238"/>
<path d="M335.67 319.504C336.018 321.172 336.018 322.894 335.67 324.562C335.334 322.893 335.334 321.173 335.67 319.504Z" fill="#263238"/>
<path d="M335.67 309.397C336.018 311.065 336.018 312.787 335.67 314.455C335.334 312.786 335.334 311.066 335.67 309.397Z" fill="#263238"/>
<path d="M335.67 299.29C336.018 300.955 336.018 302.674 335.67 304.339C335.425 303.52 335.339 302.661 335.418 301.81C335.339 300.962 335.425 300.106 335.67 299.29Z" fill="#263238"/>
<path d="M335.67 289.174C336.018 290.842 336.018 292.564 335.67 294.232C335.334 292.563 335.334 290.843 335.67 289.174Z" fill="#263238"/>
<path d="M335.67 279.067C336.018 280.732 336.018 282.451 335.67 284.116C335.425 283.3 335.339 282.444 335.418 281.596C335.339 280.745 335.425 279.886 335.67 279.067Z" fill="#263238"/>
<path d="M335.67 268.951C336.018 270.619 336.018 272.341 335.67 274.009C335.334 272.34 335.334 270.62 335.67 268.951Z" fill="#263238"/>
<path d="M338.1 261.454C337.31 261.705 336.477 261.79 335.652 261.706L335.913 261.454V261.922V262.381C335.913 262.669 335.913 262.939 335.859 263.155C335.814 263.596 335.751 263.875 335.679 263.875C335.607 263.875 335.544 263.596 335.499 263.155C335.499 262.939 335.499 262.669 335.445 262.381C335.391 262.093 335.445 262.066 335.445 261.922V261.454L335.697 261.202C336.507 261.124 337.324 261.21 338.1 261.454Z" fill="#263238"/>
<path d="M348.594 261.454C346.865 261.79 345.086 261.79 343.356 261.454C345.086 261.118 346.865 261.118 348.594 261.454Z" fill="#263238"/>
<path d="M359.07 261.454C357.34 261.79 355.562 261.79 353.832 261.454C355.562 261.118 357.34 261.118 359.07 261.454Z" fill="#263238"/>
<path d="M369.546 261.454C367.816 261.79 366.038 261.79 364.308 261.454C366.038 261.118 367.816 261.118 369.546 261.454Z" fill="#263238"/>
<path d="M380.022 261.454C378.292 261.79 376.514 261.79 374.784 261.454C376.514 261.118 378.292 261.118 380.022 261.454Z" fill="#263238"/>
<path d="M390.498 261.454C388.768 261.79 386.99 261.79 385.26 261.454C386.99 261.118 388.768 261.118 390.498 261.454Z" fill="#263238"/>
<path d="M400.974 261.454C399.244 261.79 397.466 261.79 395.736 261.454C397.466 261.118 399.244 261.118 400.974 261.454Z" fill="#263238"/>
<path d="M408.66 263.902C408.404 263.113 408.316 262.28 408.399 261.454L408.66 261.706H408.165H407.706C407.409 261.706 407.148 261.706 406.923 261.652C406.482 261.607 406.212 261.544 406.212 261.472C406.212 261.4 406.482 261.337 406.923 261.292C407.151 261.292 407.412 261.274 407.706 261.238H408.165H408.66L408.912 261.49C408.985 262.303 408.9 263.122 408.66 263.902Z" fill="#263238"/>
<path d="M408.66 274C408.312 272.332 408.312 270.61 408.66 268.942C408.996 270.611 408.996 272.331 408.66 274Z" fill="#263238"/>
<path d="M408.66 284.116C408.312 282.451 408.312 280.732 408.66 279.067C408.906 279.886 408.991 280.745 408.912 281.596C408.992 282.444 408.906 283.3 408.66 284.116Z" fill="#263238"/>
<path d="M408.66 294.232C408.312 292.564 408.312 290.842 408.66 289.174C408.996 290.843 408.996 292.563 408.66 294.232Z" fill="#263238"/>
<path d="M408.66 304.339C408.312 302.674 408.312 300.955 408.66 299.29C408.906 300.106 408.992 300.962 408.912 301.81C408.991 302.661 408.906 303.52 408.66 304.339Z" fill="#263238"/>
<path d="M408.66 314.5C408.312 312.832 408.312 311.11 408.66 309.442C408.996 311.111 408.996 312.831 408.66 314.5Z" fill="#263238"/>
<path d="M408.66 324.562C408.312 322.894 408.312 321.172 408.66 319.504C408.996 321.173 408.996 322.893 408.66 324.562Z" fill="#263238"/>
<path d="M386.259 194.224C386.259 194.224 386.259 194.035 386.259 193.693C386.259 193.351 386.259 192.793 386.259 192.199C386.259 190.876 386.259 188.968 386.214 186.529C386.214 181.624 386.151 174.586 386.115 165.991L386.295 166.171L340.449 166.225C340.395 166.27 340.89 165.784 340.674 165.991V180.589C340.674 185.314 340.674 189.868 340.674 194.206L340.449 193.99L373.407 194.098L382.884 194.161H385.413H386.07C386.148 194.153 386.226 194.153 386.304 194.161H385.467H382.974L373.551 194.224L340.449 194.332H340.233V194.107C340.233 189.769 340.233 185.215 340.233 180.49V173.29C340.233 172.075 340.233 170.842 340.233 169.609V166C340.026 166.207 340.521 165.712 340.476 165.766L386.322 165.811H386.511V166C386.466 174.649 386.43 181.714 386.412 186.655C386.412 189.076 386.412 190.966 386.367 192.28C386.367 192.91 386.367 193.396 386.367 193.747C386.367 194.098 386.259 194.224 386.259 194.224Z" fill="#142C52"/>
<path d="M363.615 177.763L367.377 179.788L363.768 182.164L360.15 184.54L360.006 180.139L359.853 175.738L363.615 177.763Z" fill="#142C52"/>
<path d="M382.947 191.398C382.947 191.533 374.163 191.632 363.336 191.632C352.509 191.632 343.716 191.533 343.716 191.398C343.716 191.263 352.5 191.2 363.3 191.2C374.1 191.2 382.947 191.272 382.947 191.398Z" fill="#142C52"/>
<path d="M343.905 191.893C344.179 191.893 344.4 191.671 344.4 191.398C344.4 191.124 344.179 190.903 343.905 190.903C343.632 190.903 343.41 191.124 343.41 191.398C343.41 191.671 343.632 191.893 343.905 191.893Z" fill="#142C52"/>
<path d="M445.965 169.294H396.564V171.778H445.965V169.294Z" fill="#142C52"/>
<path d="M463.137 179.959C463.137 180.094 448.305 180.211 430.008 180.211C411.711 180.211 396.87 180.094 396.87 179.959C396.87 179.824 411.702 179.698 430.008 179.698C448.314 179.698 463.137 179.815 463.137 179.959Z" fill="#263238"/>
<path d="M463.137 186.88C463.137 187.024 448.305 187.141 430.008 187.141C411.711 187.141 396.87 187.024 396.87 186.88C396.87 186.736 411.702 186.628 430.008 186.628C448.314 186.628 463.137 186.745 463.137 186.88Z" fill="#263238"/>
<path d="M386.259 235.687C386.259 235.687 386.259 235.507 386.259 235.165C386.259 234.823 386.259 234.31 386.259 233.671C386.259 232.348 386.259 230.44 386.214 228.001C386.214 223.096 386.151 216.058 386.115 207.463L386.295 207.643L340.449 207.697C340.395 207.697 340.89 207.247 340.674 207.463V222.07C340.674 226.795 340.674 231.349 340.674 235.687L340.449 235.471L373.407 235.579L382.884 235.642H385.413H386.07H386.304C386.304 235.642 386.241 235.642 386.097 235.642H385.467H382.974L373.551 235.705L340.449 235.804H340.233V235.579C340.233 231.241 340.233 226.687 340.233 221.962V214.762C340.233 213.538 340.233 212.314 340.233 211.081V207.373C340.026 207.58 340.521 207.085 340.476 207.139L386.322 207.184H386.511V207.373C386.466 216.022 386.43 223.087 386.412 228.019C386.412 230.44 386.412 232.339 386.367 233.653C386.367 234.283 386.367 234.76 386.367 235.111C386.343 235.305 386.307 235.497 386.259 235.687Z" fill="#142C52"/>
<path d="M363.615 219.226L367.377 221.251L363.768 223.636L360.15 226.012L360.006 221.611L359.853 217.201L363.615 219.226Z" fill="#142C52"/>
<path d="M382.947 232.87C382.947 232.996 374.163 233.104 363.336 233.104C352.509 233.104 343.716 232.996 343.716 232.87C343.716 232.744 352.5 232.6 363.3 232.6C374.1 232.6 382.947 232.744 382.947 232.87Z" fill="#142C52"/>
<path d="M343.905 233.365C344.179 233.365 344.4 233.143 344.4 232.87C344.4 232.597 344.179 232.375 343.905 232.375C343.632 232.375 343.41 232.597 343.41 232.87C343.41 233.143 343.632 233.365 343.905 233.365Z" fill="#142C52"/>
<path d="M445.965 210.766H396.564V213.25H445.965V210.766Z" fill="#142C52"/>
<path d="M463.137 221.422C463.137 221.566 448.305 221.683 430.008 221.683C411.711 221.683 396.87 221.566 396.87 221.422C396.87 221.278 411.702 221.17 430.008 221.17C448.314 221.17 463.137 221.287 463.137 221.422Z" fill="#263238"/>
<path d="M463.137 228.352C463.137 228.496 448.305 228.613 430.008 228.613C411.711 228.613 396.87 228.496 396.87 228.352C396.87 228.208 411.702 228.1 430.008 228.1C448.314 228.1 463.137 228.217 463.137 228.352Z" fill="#263238"/>
<path d="M316.293 245.632C317.02 245.404 317.785 245.324 318.543 245.398L318.309 245.632V245.2V244.777C318.309 244.507 318.309 244.264 318.354 244.057C318.354 243.652 318.453 243.4 318.525 243.4C318.597 243.4 318.642 243.652 318.687 244.057C318.687 244.264 318.687 244.507 318.741 244.777V245.677L318.507 245.911C317.758 245.97 317.004 245.875 316.293 245.632Z" fill="#E0E0E0"/>
<path d="M307.311 245.632C308.795 245.319 310.327 245.319 311.811 245.632C310.327 245.945 308.795 245.945 307.311 245.632Z" fill="#E0E0E0"/>
<path d="M298.338 245.632C299.822 245.317 301.355 245.317 302.838 245.632C301.355 245.947 299.822 245.947 298.338 245.632Z" fill="#E0E0E0"/>
<path d="M289.356 245.632C290.84 245.319 292.373 245.319 293.856 245.632C292.373 245.945 290.84 245.945 289.356 245.632Z" fill="#E0E0E0"/>
<path d="M280.383 245.632C281.107 245.403 281.869 245.324 282.624 245.398C283.382 245.324 284.148 245.404 284.874 245.632C284.149 245.865 283.382 245.945 282.624 245.866C281.869 245.946 281.106 245.867 280.383 245.632Z" fill="#E0E0E0"/>
<path d="M271.401 245.632C272.885 245.319 274.418 245.319 275.901 245.632C274.418 245.945 272.885 245.945 271.401 245.632Z" fill="#E0E0E0"/>
<path d="M262.428 245.632C263.912 245.319 265.445 245.319 266.928 245.632C265.445 245.945 263.912 245.945 262.428 245.632Z" fill="#E0E0E0"/>
<path d="M253.446 245.632C254.173 245.404 254.938 245.324 255.696 245.398C256.451 245.324 257.214 245.403 257.937 245.632C257.215 245.867 256.451 245.946 255.696 245.866C254.938 245.945 254.172 245.865 253.446 245.632Z" fill="#E0E0E0"/>
<path d="M244.5 245.632C245.984 245.319 247.516 245.319 249 245.632C247.516 245.945 245.984 245.945 244.5 245.632Z" fill="#E0E0E0"/>
<path d="M235.5 245.632C236.984 245.317 238.516 245.317 240 245.632C238.516 245.947 236.984 245.947 235.5 245.632Z" fill="#E0E0E0"/>
<path d="M226.5 245.632C227.984 245.319 229.516 245.319 231 245.632C229.516 245.945 227.984 245.945 226.5 245.632Z" fill="#E0E0E0"/>
<path d="M217.545 245.632C219.029 245.317 220.562 245.317 222.045 245.632C220.562 245.947 219.029 245.947 217.545 245.632Z" fill="#E0E0E0"/>
<path d="M208.563 245.632C210.047 245.319 211.579 245.319 213.063 245.632C211.579 245.945 210.047 245.945 208.563 245.632Z" fill="#E0E0E0"/>
<path d="M199.59 245.632C200.314 245.403 201.076 245.324 201.831 245.398C202.586 245.324 203.349 245.403 204.072 245.632C203.35 245.867 202.586 245.946 201.831 245.866C201.076 245.946 200.313 245.867 199.59 245.632Z" fill="#E0E0E0"/>
<path d="M190.608 245.632C191.335 245.404 192.1 245.325 192.858 245.398C193.614 245.325 194.376 245.405 195.099 245.632C194.377 245.865 193.614 245.945 192.858 245.866C192.1 245.945 191.334 245.865 190.608 245.632Z" fill="#E0E0E0"/>
<path d="M181.635 245.632C182.359 245.403 183.121 245.324 183.876 245.398C184.634 245.324 185.4 245.404 186.126 245.632C185.401 245.865 184.634 245.945 183.876 245.866C183.121 245.946 182.357 245.867 181.635 245.632Z" fill="#E0E0E0"/>
<path d="M174.894 243.4C175.122 244.127 175.202 244.892 175.128 245.65L174.894 245.416H175.794C176.064 245.416 176.307 245.416 176.514 245.47C176.919 245.47 177.171 245.569 177.171 245.632C177.171 245.695 176.919 245.758 176.514 245.803L175.794 245.848H175.371H174.921L174.687 245.614C174.61 244.869 174.68 244.117 174.894 243.4Z" fill="#E0E0E0"/>
<path d="M174.894 234.544C175.206 236 175.206 237.506 174.894 238.963C174.582 237.506 174.582 236 174.894 234.544Z" fill="#E0E0E0"/>
<path d="M174.894 225.715C175.206 227.171 175.206 228.677 174.894 230.134C174.582 228.677 174.582 227.171 174.894 225.715Z" fill="#E0E0E0"/>
<path d="M174.894 216.877C175.206 218.333 175.206 219.839 174.894 221.296C174.582 219.839 174.582 218.333 174.894 216.877Z" fill="#E0E0E0"/>
<path d="M174.894 208.039C175.206 209.496 175.206 211.002 174.894 212.458C174.582 211.002 174.582 209.496 174.894 208.039Z" fill="#E0E0E0"/>
<path d="M174.894 199.201C175.206 200.658 175.206 202.164 174.894 203.62C174.582 202.164 174.582 200.658 174.894 199.201Z" fill="#E0E0E0"/>
<path d="M174.894 190.372C175.206 191.826 175.206 193.329 174.894 194.782C174.582 193.329 174.582 191.826 174.894 190.372Z" fill="#E0E0E0"/>
<path d="M174.894 181.534C175.206 182.991 175.206 184.497 174.894 185.953C174.582 184.497 174.582 182.991 174.894 181.534Z" fill="#E0E0E0"/>
<path d="M174.894 172.696C175.206 174.152 175.206 175.658 174.894 177.115C174.582 175.658 174.582 174.152 174.894 172.696Z" fill="#E0E0E0"/>
<path d="M174.894 163.858C175.206 165.314 175.206 166.82 174.894 168.277C174.582 166.82 174.582 165.314 174.894 163.858Z" fill="#E0E0E0"/>
<path d="M177.144 157.189C176.42 157.428 175.653 157.511 174.894 157.432C175.362 156.955 175.02 157.297 175.128 157.198V157.639C175.128 157.774 175.128 157.909 175.128 158.062C175.128 158.215 175.128 158.575 175.074 158.773C175.074 159.178 174.975 159.43 174.912 159.43C174.849 159.43 174.786 159.178 174.75 158.773C174.75 158.575 174.75 158.332 174.696 158.062V157.162C174.804 157.054 174.462 157.387 174.93 156.919C175.679 156.862 176.432 156.953 177.144 157.189Z" fill="#E0E0E0"/>
<path d="M186.126 157.189C185.402 157.428 184.635 157.511 183.876 157.432C183.12 157.511 182.356 157.428 181.635 157.189C182.359 156.961 183.121 156.881 183.876 156.955C184.634 156.881 185.4 156.961 186.126 157.189Z" fill="#E0E0E0"/>
<path d="M195.099 157.189C194.378 157.427 193.614 157.509 192.858 157.432C192.1 157.511 191.333 157.428 190.608 157.189C191.335 156.961 192.1 156.881 192.858 156.955C193.614 156.882 194.376 156.961 195.099 157.189Z" fill="#E0E0E0"/>
<path d="M204.072 157.189C203.351 157.428 202.587 157.511 201.831 157.432C201.076 157.511 200.312 157.428 199.59 157.189C200.314 156.961 201.076 156.881 201.831 156.955C202.586 156.881 203.349 156.961 204.072 157.189Z" fill="#E0E0E0"/>
<path d="M213.054 157.189C211.572 157.514 210.037 157.514 208.554 157.189C210.038 156.876 211.571 156.876 213.054 157.189Z" fill="#E0E0E0"/>
<path d="M222 157.189C220.518 157.516 218.982 157.516 217.5 157.189C218.984 156.874 220.516 156.874 222 157.189Z" fill="#E0E0E0"/>
<path d="M231 157.189C229.518 157.514 227.982 157.514 226.5 157.189C227.984 156.876 229.516 156.876 231 157.189Z" fill="#E0E0E0"/>
<path d="M240 157.189C238.518 157.516 236.982 157.516 235.5 157.189C236.984 156.874 238.516 156.874 240 157.189Z" fill="#E0E0E0"/>
<path d="M249 157.189C247.518 157.514 245.982 157.514 244.5 157.189C245.984 156.876 247.516 156.876 249 157.189Z" fill="#E0E0E0"/>
<path d="M257.937 157.189C257.216 157.428 256.452 157.511 255.696 157.432C254.938 157.511 254.171 157.428 253.446 157.189C254.173 156.961 254.938 156.881 255.696 156.955C256.451 156.881 257.214 156.961 257.937 157.189Z" fill="#E0E0E0"/>
<path d="M266.919 157.189C265.437 157.514 263.902 157.514 262.419 157.189C263.903 156.876 265.436 156.876 266.919 157.189Z" fill="#E0E0E0"/>
<path d="M275.892 157.189C274.41 157.514 272.874 157.514 271.392 157.189C272.876 156.876 274.408 156.876 275.892 157.189Z" fill="#E0E0E0"/>
<path d="M284.874 157.189C284.15 157.428 283.383 157.511 282.624 157.432C281.869 157.511 281.105 157.428 280.383 157.189C281.107 156.961 281.869 156.881 282.624 156.955C283.382 156.881 284.148 156.961 284.874 157.189Z" fill="#E0E0E0"/>
<path d="M293.847 157.189C292.365 157.514 290.83 157.514 289.347 157.189C290.831 156.876 292.364 156.876 293.847 157.189Z" fill="#E0E0E0"/>
<path d="M302.82 157.189C301.338 157.516 299.803 157.516 298.32 157.189C299.804 156.874 301.337 156.874 302.82 157.189Z" fill="#E0E0E0"/>
<path d="M311.802 157.189C310.32 157.514 308.785 157.514 307.302 157.189C308.786 156.876 310.319 156.876 311.802 157.189Z" fill="#E0E0E0"/>
<path d="M318.543 159.439C318.309 158.714 318.229 157.947 318.309 157.189C318.777 157.657 318.435 157.324 318.543 157.432H318.084H317.661H316.95C316.545 157.387 316.293 157.333 316.293 157.261C316.293 157.189 316.545 157.144 316.95 157.099L317.661 157.045H318.561C318.66 157.153 318.327 156.811 318.795 157.279C318.852 158.009 318.766 158.742 318.543 159.439Z" fill="#E0E0E0"/>
<path d="M318.543 168.277C318.231 166.82 318.231 165.314 318.543 163.858C318.855 165.314 318.855 166.82 318.543 168.277Z" fill="#E0E0E0"/>
<path d="M318.543 177.115C318.231 175.658 318.231 174.152 318.543 172.696C318.855 174.152 318.855 175.658 318.543 177.115Z" fill="#E0E0E0"/>
<path d="M318.543 185.953C318.231 184.497 318.231 182.991 318.543 181.534C318.855 182.991 318.855 184.497 318.543 185.953Z" fill="#E0E0E0"/>
<path d="M318.543 194.8C318.231 193.347 318.231 191.844 318.543 190.39C318.855 191.844 318.855 193.347 318.543 194.8Z" fill="#E0E0E0"/>
<path d="M318.543 203.62C318.231 202.164 318.231 200.658 318.543 199.201C318.855 200.658 318.855 202.164 318.543 203.62Z" fill="#E0E0E0"/>
<path d="M318.543 212.458C318.231 211.002 318.231 209.496 318.543 208.039C318.855 209.496 318.855 211.002 318.543 212.458Z" fill="#E0E0E0"/>
<path d="M318.543 221.296C318.231 219.839 318.231 218.333 318.543 216.877C318.855 218.333 318.855 219.839 318.543 221.296Z" fill="#E0E0E0"/>
<path d="M318.543 230.134C318.31 229.421 318.23 228.666 318.309 227.92C318.23 227.177 318.309 226.425 318.543 225.715C318.773 226.426 318.852 227.177 318.777 227.92C318.851 228.666 318.771 229.42 318.543 230.134Z" fill="#E0E0E0"/>
<path d="M318.543 238.963C318.231 237.506 318.231 236 318.543 234.544C318.855 236 318.855 237.506 318.543 238.963Z" fill="#E0E0E0"/>
<path d="M308.175 244.939L168.576 252.598C168.07 252.625 167.573 252.451 167.194 252.114C166.814 251.777 166.584 251.304 166.551 250.798L161.925 166.324C161.896 165.817 162.069 165.319 162.406 164.939C162.744 164.559 163.218 164.329 163.725 164.299L303.315 156.64C303.822 156.613 304.318 156.787 304.698 157.124C305.077 157.461 305.308 157.934 305.34 158.44L309.975 242.905C309.991 243.157 309.957 243.409 309.875 243.648C309.793 243.887 309.665 244.107 309.497 244.296C309.33 244.485 309.127 244.639 308.9 244.749C308.674 244.86 308.427 244.924 308.175 244.939Z" fill="#142C52"/>
<path d="M236.967 195.646L249.081 201.334L238.191 209.398L227.292 217.462L226.068 203.71L224.844 189.958L236.967 195.646Z" fill="white"/>
<path d="M299.247 236.587C299.247 236.713 271.788 238.324 237.903 240.187C204.018 242.05 176.541 243.445 176.532 243.319C176.523 243.193 203.991 241.573 237.885 239.719C271.779 237.865 299.238 236.452 299.247 236.587Z" fill="white"/>
<path d="M178.674 243.202C178.69 243.508 178.614 243.811 178.458 244.074C178.301 244.337 178.07 244.547 177.793 244.679C177.517 244.81 177.208 244.857 176.905 244.813C176.603 244.769 176.32 244.636 176.092 244.431C175.865 244.226 175.703 243.959 175.628 243.662C175.552 243.366 175.567 243.054 175.669 242.765C175.771 242.477 175.956 242.225 176.201 242.041C176.446 241.858 176.74 241.752 177.045 241.735C177.248 241.724 177.452 241.754 177.644 241.821C177.836 241.889 178.013 241.994 178.164 242.131C178.315 242.267 178.438 242.432 178.526 242.616C178.613 242.799 178.664 242.999 178.674 243.202Z" fill="white"/>
<g opacity="0.3">
<path d="M295.872 157.171C293.64 161.455 291.372 166.342 292.884 170.923C293.595 173.02 295.035 174.784 296.124 176.71C299.472 182.623 299.355 189.796 299.157 196.582C299.094 198.508 298.932 200.668 297.483 201.928C296.286 202.954 294.585 203.071 292.983 203.125L273.993 203.854V237.289L309.219 229.495L307.572 179.5L306.672 171.067L303.117 156.667L295.872 157.171Z" fill="black"/>
</g>
<path d="M265.677 427.522L266.883 455.728L282.111 455.386L280.968 427.126L265.677 427.522Z" fill="#142C52"/>
<path d="M274.362 454.495C274.488 454.495 274.245 448.312 273.831 440.698C273.417 433.084 272.931 426.919 272.841 426.928C272.751 426.937 272.949 433.111 273.372 440.725C273.795 448.339 274.2 454.504 274.362 454.495Z" fill="#263238"/>
<path d="M266.793 453.784L282.03 453.397L282.111 455.386L266.883 455.728L266.793 453.784Z" fill="#E0E0E0"/>
<path d="M281.742 446.359C281.742 446.359 281.625 446.116 281.328 445.756C280.248 444.492 278.894 443.492 277.368 442.831C276.235 442.337 275.002 442.115 273.768 442.183C272.654 442.229 271.562 442.506 270.561 442.997C269.56 443.488 268.672 444.183 267.954 445.036C267.528 445.549 267.179 446.122 266.919 446.737C266.804 446.955 266.731 447.193 266.703 447.439C267.142 446.668 267.641 445.934 268.197 445.243C269.647 443.671 271.659 442.736 273.795 442.642C275.93 442.607 278.013 443.309 279.69 444.631C281.022 445.603 281.688 446.413 281.742 446.359Z" fill="#263238"/>
<g opacity="0.3">
<path d="M281.292 435.172L281.418 438.277L266.154 438.547L266.046 436.207L281.292 435.172Z" fill="black"/>
</g>
<path d="M228.84 428.26L229.605 445.9C229.605 445.9 211.92 452.605 211.74 455.881L246.012 455.629L245.949 428.08L228.84 428.26Z" fill="#142C52"/>
<path d="M240 444.406C240.332 444.506 240.615 444.725 240.796 445.02C240.976 445.316 241.043 445.667 240.981 446.008C240.896 446.343 240.685 446.633 240.392 446.817C240.098 447.002 239.746 447.066 239.406 446.998C239.053 446.895 238.75 446.663 238.559 446.348C238.367 446.033 238.3 445.658 238.371 445.297C238.496 444.955 238.749 444.675 239.077 444.517C239.405 444.359 239.781 444.335 240.126 444.451" fill="#E0E0E0"/>
<path d="M246.012 455.629V452.866L212.847 454.126C212.847 454.126 211.317 454.801 211.497 455.881L246.012 455.629Z" fill="#E0E0E0"/>
<path d="M229.29 446.017C229.29 446.188 230.19 446.26 230.973 446.791C231.756 447.322 232.251 448.033 232.413 447.97C232.575 447.907 232.305 446.926 231.288 446.296C230.271 445.666 229.254 445.9 229.29 446.017Z" fill="#263238"/>
<path d="M225.681 447.538C225.681 447.709 226.374 447.988 226.95 448.699C227.526 449.41 227.706 450.157 227.85 450.148C227.994 450.139 228.12 449.185 227.382 448.348C226.644 447.511 225.681 447.385 225.681 447.538Z" fill="#263238"/>
<path d="M223.656 451.894C223.809 451.894 224.043 451.084 223.602 450.157C223.161 449.23 222.369 448.879 222.297 449.023C222.225 449.167 222.72 449.653 223.071 450.409C223.422 451.165 223.494 451.876 223.656 451.894Z" fill="#263238"/>
<path d="M229.569 441.949C229.641 442.102 230.406 441.859 231.369 441.949C232.332 442.039 233.07 442.3 233.169 442.156C233.268 442.012 232.539 441.418 231.414 441.364C230.289 441.31 229.479 441.814 229.569 441.949Z" fill="#263238"/>
<path d="M228.921 438.151C229.486 438.312 230.084 438.312 230.649 438.151C231.27 438.039 231.875 437.848 232.449 437.584C232.791 437.43 233.121 437.252 233.439 437.053C233.63 436.942 233.803 436.802 233.952 436.639C234.065 436.52 234.133 436.365 234.146 436.202C234.16 436.038 234.116 435.875 234.024 435.739C233.941 435.62 233.831 435.522 233.702 435.455C233.574 435.388 233.431 435.352 233.286 435.352C233.067 435.357 232.849 435.391 232.638 435.451C232.27 435.543 231.911 435.669 231.567 435.829C230.985 436.096 230.447 436.451 229.974 436.882C229.182 437.629 228.912 438.268 228.975 438.295C229.038 438.322 229.434 437.818 230.244 437.206C230.713 436.836 231.231 436.534 231.783 436.306C232.113 436.176 232.453 436.074 232.8 436C233.16 435.901 233.475 435.892 233.565 436.054C233.655 436.216 233.565 436.144 233.565 436.252C233.455 436.37 233.328 436.471 233.187 436.549C232.898 436.744 232.597 436.921 232.287 437.08C231.753 437.349 231.196 437.569 230.622 437.737C230.045 437.833 229.477 437.971 228.921 438.151Z" fill="#263238"/>
<path d="M229.146 438.394C229.463 437.895 229.617 437.31 229.587 436.72C229.614 436.08 229.529 435.44 229.335 434.83C229.224 434.464 229.073 434.111 228.885 433.777C228.796 433.543 228.647 433.336 228.453 433.178C228.258 433.02 228.026 432.916 227.778 432.877C227.625 432.882 227.476 432.931 227.349 433.017C227.221 433.103 227.121 433.223 227.058 433.363C226.976 433.569 226.919 433.783 226.887 434.002C226.833 434.387 226.833 434.778 226.887 435.163C226.985 435.817 227.245 436.435 227.643 436.963C228.318 437.863 229.029 438.052 229.038 437.989C229.047 437.926 228.507 437.584 227.985 436.729C227.669 436.238 227.469 435.68 227.4 435.1C227.356 434.768 227.356 434.432 227.4 434.101C227.454 433.732 227.589 433.435 227.724 433.471C227.859 433.507 228.192 433.741 228.336 434.038C228.509 434.323 228.654 434.625 228.768 434.938C228.969 435.491 229.087 436.07 229.119 436.657C229.2 437.737 229.056 438.367 229.146 438.394Z" fill="#263238"/>
<g opacity="0.3">
<path d="M246.021 438.664L245.985 442.579H229.461V440.428L246.021 438.664Z" fill="black"/>
</g>
<path d="M297.33 159.916C296.943 159.916 295.944 163.822 295.449 165.784C295.271 166.503 295.374 167.262 295.737 167.908L299.706 174.937C300.449 176.236 301.523 177.313 302.82 178.06L304.809 179.185L305.07 183.361L316.239 183.541L312.837 170.5L311.415 162.553C311.226 162.163 310.945 161.825 310.597 161.566C310.25 161.308 309.845 161.137 309.417 161.068L308.364 160.915L307.968 159.907C307.854 159.621 307.668 159.369 307.429 159.175C307.189 158.981 306.904 158.852 306.6 158.8L305.943 158.719L305.043 156.46C304.896 156.102 304.647 155.794 304.327 155.577C304.007 155.359 303.63 155.241 303.243 155.236L297.843 155.308C297.843 155.308 296.655 156.91 299.382 157.666C300.137 157.88 300.92 157.977 301.704 157.954L302.964 162.823C302.964 162.823 303.864 167.935 301.461 167.935C299.355 167.935 299.157 165.181 299.157 165.181C299.157 165.181 300.084 159.61 297.33 159.916Z" fill="#FFBE9D"/>
<path d="M308.4 164.794C308.354 164.451 308.285 164.111 308.193 163.777C307.909 162.984 307.375 162.305 306.672 161.842C306.298 161.071 306.017 160.259 305.835 159.421C305.734 159.08 305.694 158.723 305.718 158.368C305.718 158.368 305.79 158.764 305.961 159.385C306.184 160.187 306.47 160.969 306.816 161.725L307.365 162.175C307.532 162.334 307.683 162.509 307.815 162.697C308.043 163.013 308.213 163.366 308.319 163.741C308.391 163.99 308.427 164.247 308.427 164.506C308.436 164.603 308.426 164.701 308.4 164.794Z" fill="#EB996E"/>
<path d="M310.119 163.849C310.095 163.673 310.04 163.502 309.957 163.345C309.853 163.157 309.704 162.997 309.523 162.879C309.343 162.762 309.137 162.69 308.922 162.67H308.859V162.616L308.796 162.445C308.529 161.788 308.315 161.111 308.157 160.42C308.49 161.044 308.764 161.698 308.976 162.373L309.039 162.553L308.958 162.49C309.202 162.513 309.435 162.6 309.634 162.742C309.834 162.884 309.992 163.077 310.092 163.3C310.2 163.624 310.146 163.867 310.119 163.849Z" fill="#EB996E"/>
<path d="M301.587 157.972C301.542 157.972 301.335 157.729 301.389 157.351C301.443 156.973 301.623 156.739 301.668 156.766C301.713 156.793 301.614 157.045 301.578 157.369C301.542 157.693 301.632 157.945 301.587 157.972Z" fill="#EB996E"/>
<path d="M244.374 208.606L264.624 208.354L262.365 191.101C262.365 191.101 263.751 190.804 263.841 183.307C263.931 175.81 264.282 163.048 264.282 163.048C260.016 161.216 255.338 160.556 250.731 161.135C246.124 161.714 241.755 163.511 238.074 166.342L236.967 167.242L244.374 208.606Z" fill="#FFBE9D"/>
<path d="M239.316 176.431C239.19 176.377 234.159 174.901 234.321 180.031C234.483 185.161 239.604 183.937 239.604 183.793C239.604 183.649 239.316 176.431 239.316 176.431Z" fill="#FFBE9D"/>
<path d="M263.4 175.36C263.526 175.306 268.098 174.073 267.9 179.203C267.702 184.333 262.617 183.109 262.617 182.956C262.617 182.803 263.4 175.36 263.4 175.36Z" fill="#FFBE9D"/>
<path d="M269.169 160.537C269.22 160.071 269.153 159.6 268.974 159.168C268.794 158.735 268.509 158.355 268.143 158.062C267.766 157.784 267.302 157.651 266.835 157.685C266.367 157.72 265.928 157.921 265.596 158.251C265.666 157.937 265.67 157.613 265.607 157.298C265.543 156.983 265.415 156.684 265.229 156.422C265.043 156.16 264.804 155.94 264.528 155.776C264.252 155.612 263.944 155.508 263.625 155.47C262.401 155.398 261.357 156.316 260.178 156.64C258.998 156.893 257.768 156.751 256.677 156.235C255.561 155.794 254.526 155.173 253.401 154.768C251.025 153.897 248.402 154 246.102 155.055C243.802 156.111 242.013 158.033 241.125 160.402C240.29 160.2 239.413 160.255 238.61 160.56C237.807 160.865 237.115 161.406 236.625 162.112C235.671 163.564 235.29 165.318 235.554 167.035C235.732 168.186 236.034 169.315 236.454 170.401C236.454 170.5 236.454 170.59 236.454 170.689C236.526 174.811 238.677 187.852 240.441 187.879C243.51 187.924 241.098 173.956 241.098 173.956C244.86 172.498 243.456 166.855 244.401 166C245.346 165.145 247.308 163.156 255.201 167.188C258.135 168.497 261.406 168.85 264.552 168.196H264.75H264.795C264.795 168.196 264.84 168.196 264.867 168.196C265.582 168.003 266.262 167.699 266.883 167.296C267.621 166.875 268.204 166.228 268.548 165.451C268.713 165.06 268.759 164.629 268.683 164.212C268.606 163.795 268.409 163.409 268.116 163.102C268.709 162.368 269.075 161.476 269.169 160.537Z" fill="#263238"/>
<path d="M237.651 175.9C238.416 180.202 238.263 182.461 238.974 185.332C240.099 189.832 242.358 193.36 246.444 195.628C250.53 197.896 256.074 197.851 259.593 194.728C262.032 192.586 263.76 190.165 264.093 186.934C264.426 183.703 264.822 177.997 264.849 174.748C264.849 168.889 265.281 163.291 265.281 163.291L248.541 160.258L239.019 165.919L237.651 175.9Z" fill="#263238"/>
<path d="M254.913 198.175C253.976 198.526 252.962 198.613 251.979 198.427C250.978 198.394 250.005 198.082 249.171 197.527C249.225 197.401 250.458 197.788 252.033 197.959C253.608 198.13 254.895 198.031 254.913 198.175Z" fill="#263238"/>
<path d="M259.26 159.502C259.006 159.594 258.738 159.643 258.468 159.646C257.724 159.653 256.989 159.48 256.326 159.142C255.364 158.641 254.459 158.037 253.626 157.342C252.613 156.495 251.392 155.932 250.089 155.713C248.782 155.535 247.451 155.768 246.282 156.379C245.332 156.891 244.532 157.642 243.96 158.557C243.438 159.405 243.098 160.352 242.961 161.338C242.963 161.069 242.99 160.801 243.042 160.537C243.19 159.812 243.46 159.118 243.843 158.485C244.417 157.538 245.23 156.759 246.201 156.226C247.4 155.588 248.771 155.345 250.116 155.533C251.447 155.748 252.693 156.328 253.716 157.207C254.556 157.893 255.46 158.496 256.416 159.007C257.058 159.347 257.769 159.534 258.495 159.556C258.981 159.574 259.26 159.475 259.26 159.502Z" fill="#455A64"/>
<path d="M243.186 161.608C242.802 161.42 242.401 161.27 241.989 161.158C240.979 160.931 239.92 161.099 239.028 161.626C238.158 162.185 237.539 163.059 237.3 164.065C237.216 164.486 237.171 164.914 237.165 165.343C237.129 165.232 237.111 165.117 237.111 165.001C237.083 164.678 237.104 164.354 237.174 164.038C237.271 163.51 237.478 163.009 237.78 162.565C238.083 162.122 238.475 161.747 238.93 161.464C239.386 161.181 239.896 160.996 240.428 160.922C240.959 160.848 241.5 160.885 242.016 161.032C242.331 161.113 242.634 161.238 242.916 161.401C243.017 161.454 243.109 161.524 243.186 161.608Z" fill="#455A64"/>
<path d="M242.7 179.905C241.629 178.241 240.828 176.419 240.324 174.505C241.395 176.169 242.197 177.991 242.7 179.905Z" fill="#455A64"/>
<path d="M247.083 182.848C246.087 182.298 245.265 181.482 244.707 180.49C244.023 179.58 243.603 178.5 243.492 177.367C243.627 177.367 244.113 178.726 245.103 180.229C246.093 181.732 247.2 182.749 247.083 182.848Z" fill="#455A64"/>
<path d="M251.403 183.802C250.642 183.57 249.954 183.145 249.405 182.569C248.415 181.669 247.812 180.832 247.911 180.769C248.01 180.706 248.757 181.399 249.711 182.227C250.665 183.055 251.475 183.685 251.403 183.802Z" fill="#455A64"/>
<path d="M259.044 176.845C259.159 177.723 259.002 178.615 258.594 179.401C258.324 180.245 257.807 180.989 257.109 181.534C257.413 180.743 257.765 179.97 258.162 179.221C258.413 178.414 258.707 177.621 259.044 176.845Z" fill="#455A64"/>
<path d="M261.6 172.795C261.8 173.849 261.697 174.938 261.303 175.936C261.074 176.978 260.553 177.934 259.8 178.69C259.692 178.609 260.412 177.421 260.916 175.801C261.42 174.181 261.501 172.795 261.6 172.795Z" fill="#455A64"/>
<path d="M263.625 162.4C263.43 162.603 263.206 162.776 262.959 162.913C262.285 163.304 261.531 163.538 260.754 163.597C259.602 163.677 258.445 163.498 257.37 163.075C256.076 162.549 254.824 161.923 253.626 161.203C252.433 160.496 251.153 159.946 249.819 159.565C248.727 159.264 247.573 159.264 246.48 159.565C245.748 159.771 245.077 160.154 244.527 160.681C244.149 161.068 244.005 161.338 243.987 161.32C244.113 161.068 244.277 160.837 244.473 160.636C245.013 160.07 245.693 159.657 246.444 159.439C247.554 159.104 248.734 159.083 249.855 159.376C251.211 159.748 252.51 160.302 253.716 161.023C254.908 161.737 256.15 162.363 257.433 162.895C258.483 163.321 259.614 163.509 260.745 163.444C261.789 163.395 262.793 163.031 263.625 162.4Z" fill="#455A64"/>
<path d="M265.11 164.857C265.029 164.929 264.938 164.989 264.84 165.037C264.582 165.185 264.314 165.317 264.039 165.433C262.217 166.202 260.201 166.385 258.27 165.955C257.966 165.895 257.665 165.817 257.37 165.721C257.172 165.649 257.064 165.604 257.073 165.586C257.082 165.568 257.523 165.694 258.252 165.829C259.206 165.998 260.177 166.04 261.141 165.955C262.101 165.861 263.045 165.643 263.949 165.307C264.687 165.046 265.101 164.83 265.11 164.857Z" fill="#455A64"/>
<path d="M255.786 319.918L260.709 367.402L264.246 438.916H283.119L283.632 286.717L229.596 290.569L218.4 370.426L228.102 440.32H248.811L243.96 373.855L255.786 319.918Z" fill="#263238"/>
<path d="M255.786 319.9C254.676 321.211 253.447 322.416 252.114 323.5C250.886 324.71 249.552 325.806 248.127 326.776C249.241 325.469 250.47 324.264 251.799 323.176C253.025 321.964 254.359 320.867 255.786 319.9Z" fill="#455A64"/>
<path d="M255.732 319C255.652 316.968 255.685 314.934 255.831 312.907C255.832 310.874 255.949 308.842 256.182 306.823C256.423 308.848 256.463 310.892 256.299 312.925C256.305 314.963 256.115 316.998 255.732 319Z" fill="#455A64"/>
<path d="M261.969 301.243C262.071 301.232 262.173 301.232 262.275 301.243L263.175 301.189L266.775 301.018L279.573 300.478H279.789V300.703C279.789 304.69 279.789 309.208 279.789 313.987V314.401L279.636 314.455L271.32 317.794H271.239H271.158L263.805 315.238H263.688V315.121C263.148 310.972 262.707 307.516 262.383 305.041C262.239 303.889 262.131 302.962 262.041 302.269C261.951 301.576 261.942 301.315 261.951 301.324C261.978 301.412 261.999 301.503 262.014 301.594C262.014 301.801 262.086 302.044 262.14 302.341C262.248 303.043 262.401 303.979 262.581 305.149C262.95 307.588 263.481 310.981 264.075 315.049L263.949 314.887L271.32 317.389H271.167L279.483 314.032L279.339 314.248V313.996C279.339 309.217 279.339 304.699 279.339 300.712L279.555 300.919L266.901 301.234L263.301 301.297H261.969V301.243Z" fill="#455A64"/>
<path d="M234.726 301.477C234.819 301.465 234.912 301.465 235.005 301.477H235.842L239.082 301.369L250.782 301.099H250.998V301.315C250.872 305.257 250.728 309.802 250.575 314.635V314.761L250.476 314.824L249.126 315.724L242.286 320.224L242.169 320.305L242.043 320.224L234.285 315.4L234.186 315.337V315.229C234.33 311.089 234.456 307.642 234.537 305.167C234.591 304.015 234.636 303.088 234.663 302.404C234.666 302.088 234.687 301.773 234.726 301.459C234.74 301.549 234.74 301.64 234.726 301.729V302.476C234.726 303.178 234.726 304.114 234.726 305.293C234.726 307.732 234.636 311.143 234.582 315.193L234.483 315.022L242.223 319.657H241.98L248.82 315.157L250.17 314.257L250.062 314.446C250.242 309.604 250.404 305.059 250.548 301.117L250.755 301.333L239.208 301.396H235.05L234.726 301.477Z" fill="#455A64"/>
<path d="M277.8 322.987C276.947 323.043 276.091 323.016 275.244 322.906C273.669 322.789 271.5 322.573 269.106 322.267C266.712 321.961 264.561 321.61 263.013 321.322C262.165 321.215 261.329 321.022 260.52 320.746C261.371 320.756 262.22 320.837 263.058 320.989L269.169 321.799L275.28 322.573C276.13 322.641 276.973 322.779 277.8 322.987Z" fill="#455A64"/>
<path d="M277.359 375.916C277.359 375.916 277.287 376.195 276.918 376.519C276.369 376.957 275.685 377.189 274.983 377.176C273.95 377.142 272.957 376.762 272.166 376.096C271.232 375.311 270.373 374.44 269.601 373.495C268.159 371.819 266.878 370.011 265.776 368.095C265.284 367.328 264.883 366.506 264.579 365.647C265.114 366.377 265.607 367.138 266.055 367.924C267.233 369.76 268.535 371.513 269.952 373.171C270.709 374.092 271.54 374.95 272.436 375.736C273.147 376.368 274.044 376.75 274.992 376.825C275.626 376.863 276.257 376.699 276.792 376.357C277.179 376.114 277.332 375.898 277.359 375.916Z" fill="#455A64"/>
<path d="M240.09 377.59C240.09 377.59 240.09 377.833 239.838 378.193C239.505 378.702 239.058 379.127 238.533 379.435C237.747 379.892 236.851 380.125 235.941 380.11C234.832 380.071 233.755 379.729 232.827 379.12C231.194 377.985 229.897 376.431 229.074 374.62C228.684 373.919 228.382 373.172 228.174 372.397C228.634 373.055 229.043 373.747 229.398 374.467C230.28 376.152 231.551 377.602 233.106 378.697C233.968 379.264 234.965 379.593 235.995 379.651C236.831 379.681 237.661 379.499 238.407 379.12C239.069 378.733 239.642 378.212 240.09 377.59Z" fill="#455A64"/>
<path d="M241.296 370.426C240.843 370.823 240.317 371.129 239.748 371.326C238.402 371.874 236.97 372.178 235.518 372.226C234.06 372.291 232.603 372.093 231.216 371.641C230.632 371.495 230.084 371.232 229.605 370.867C231.508 371.472 233.494 371.776 235.491 371.767C237.483 371.617 239.44 371.165 241.296 370.426Z" fill="#455A64"/>
<path d="M302.712 202.828H275.199C275.199 202.828 271.455 200.677 269.655 201.028C268.329 201.45 267.154 202.247 266.271 203.323L269.916 233.635L278.826 227.047L312 223.6C313.422 223.585 314.825 223.283 316.128 222.712C317.43 222.142 318.603 221.314 319.578 220.279C320.636 219.155 321.435 217.812 321.919 216.346C322.403 214.88 322.559 213.325 322.377 211.792L316.239 179.185L303.639 179.608L303.135 187.879L302.712 202.828Z" fill="#455A64"/>
<path d="M226.968 210.469C224.013 212.298 221.693 214.995 220.326 218.191C218.724 222.043 207.726 241.285 201.984 251.347C200.963 253.129 200.545 255.193 200.793 257.232C201.042 259.271 201.942 261.175 203.361 262.66C206.871 266.323 212.757 267.331 217.878 265.666C220.173 264.919 229.362 257.458 229.362 257.458L226.968 210.469Z" fill="#455A64"/>
<path d="M231.756 279.22L225.447 224.941L226.968 210.469L243.033 203.629L263.832 202.261L283.641 204.448L279.006 260.122L284.073 291.523L228.597 294.025L231.756 279.22Z" fill="#455A64"/>
<path d="M231.729 278.986C231.603 278.986 230.091 266.917 228.354 251.986C226.617 237.055 225.321 224.986 225.447 224.932C225.573 224.878 227.085 237.01 228.822 251.932C230.559 266.854 231.9 278.968 231.729 278.986Z" fill="#263238"/>
<path d="M283.2 216.625C283.226 216.789 283.226 216.956 283.2 217.12C283.2 217.489 283.128 217.948 283.074 218.515C282.939 219.784 282.768 221.521 282.552 223.627C282.111 228.01 281.517 233.95 280.86 240.52C280.203 247.09 279.717 253.12 279.393 257.422C279.24 259.537 279.114 261.274 279.024 262.552C279.024 263.119 278.943 263.578 278.916 263.947C278.911 264.111 278.887 264.274 278.844 264.433C278.821 264.272 278.821 264.108 278.844 263.947C278.844 263.569 278.844 263.11 278.844 262.543C278.844 261.328 278.952 259.573 279.06 257.404C279.303 253.066 279.762 247.072 280.392 240.475C281.022 233.878 281.697 227.875 282.192 223.591C282.462 221.44 282.687 219.694 282.867 218.488C282.948 217.93 283.02 217.471 283.074 217.102C283.094 216.938 283.136 216.777 283.2 216.625Z" fill="#263238"/>
<path d="M273.687 270.67C273.415 271.05 273.115 271.408 272.787 271.741C272.437 272.157 272.062 272.551 271.662 272.92C271.194 273.352 270.69 273.874 270.06 274.36C269.396 274.929 268.699 275.458 267.972 275.944C267.152 276.522 266.301 277.056 265.425 277.546C261.388 279.79 256.91 281.126 252.303 281.461C251.241 281.461 250.242 281.578 249.297 281.524C248.424 281.514 247.553 281.454 246.687 281.344C245.971 281.269 245.259 281.158 244.554 281.011C244.016 280.923 243.484 280.8 242.961 280.642C242.509 280.542 242.067 280.403 241.638 280.228C241.638 280.12 243.564 280.714 246.714 281.011C247.575 281.097 248.441 281.139 249.306 281.137C250.206 281.137 251.223 281.083 252.267 281.029C256.798 280.648 261.202 279.334 265.2 277.168C266.1 276.637 267 276.169 267.738 275.629C268.476 275.089 269.205 274.594 269.835 274.108C272.346 272.128 273.606 270.598 273.687 270.67Z" fill="#263238"/>
<g opacity="0.3">
<path d="M244.356 280.804C241.656 280.03 241.503 277.483 242.556 276.394C243.609 275.305 245.256 275.161 246.795 275.377C248.269 275.739 249.778 275.941 251.295 275.98C253.761 275.818 255.795 274.099 257.541 272.317C259.287 270.535 260.88 268.537 263.13 267.511C265.38 266.485 268.53 266.854 269.7 269.023C270.038 269.735 270.191 270.521 270.144 271.308C270.097 272.095 269.851 272.857 269.43 273.523C268.581 274.855 267.439 275.976 266.091 276.799C262.951 278.941 259.398 280.404 255.66 281.094C251.922 281.784 248.081 281.685 244.383 280.804" fill="black"/>
</g>
<g opacity="0.2">
<path d="M227.724 244.867C227.238 245.551 222.549 251.959 222.549 251.959C222.423 252.607 217.878 258.466 217.878 258.466C217.878 258.466 221.919 256.225 225.024 254.623C226.336 253.845 227.58 252.957 228.741 251.968C228.741 251.968 228.039 247.558 227.733 245.911C227.04 242.221 226.572 233.896 226.572 233.896" fill="black"/>
</g>
<path d="M277.161 203.935C278.643 204.472 279.908 205.481 280.761 206.806C281.749 208.037 282.309 209.557 282.354 211.135C281.51 208.203 279.671 205.657 277.152 203.935H277.161Z" fill="#263238"/>
<path d="M227.724 244.867C227.343 245.641 226.888 246.377 226.365 247.063C225.465 248.377 224.223 250.177 222.81 252.148C219.975 256.072 217.554 259.213 217.41 259.033L218.859 256.936L222.459 251.878C223.872 249.907 225.159 248.134 226.122 246.874C226.595 246.158 227.131 245.487 227.724 244.867Z" fill="#263238"/>
</svg>
