<svg width="608" height="524" viewBox="0 0 608 524" fill="none" xmlns="http://www.w3.org/2000/svg">
<g filter="url(#filter0_d_969_16681)">
<path d="M588.156 407.604C446.422 310.255 588.156 102.187 588.156 29.1988C588.156 -43.7894 444.699 216.161 403.682 76.7407C362.666 -62.6793 96.9685 316.535 22.1294 407.604C-130.047 592.782 729.891 504.954 588.156 407.604Z" fill="#07F9A2"/>
</g>
<path d="M192.29 308.06H98.7798V392.25H192.29V308.06Z" fill="#F5F5F5"/>
<path d="M172.57 343.93H118.51C114.351 343.93 110.98 347.301 110.98 351.46V362.15C110.98 366.308 114.351 369.68 118.51 369.68H172.57C176.729 369.68 180.1 366.308 180.1 362.15V351.46C180.1 347.301 176.729 343.93 172.57 343.93Z" fill="#E0E0E0"/>
<path d="M191.77 324C191.77 324.14 171.16 324.25 145.77 324.25C120.38 324.25 99.77 324.14 99.77 324C99.77 323.86 120.38 323.75 145.77 323.75C171.16 323.75 191.77 323.9 191.77 324Z" fill="#E0E0E0"/>
<path d="M109.22 317.77C109.22 318.229 109.084 318.678 108.829 319.059C108.574 319.441 108.211 319.738 107.787 319.914C107.363 320.089 106.897 320.135 106.447 320.046C105.997 319.956 105.584 319.735 105.259 319.411C104.935 319.086 104.714 318.673 104.624 318.223C104.535 317.773 104.581 317.306 104.756 316.882C104.932 316.458 105.229 316.096 105.611 315.841C105.992 315.586 106.441 315.45 106.9 315.45C107.515 315.45 108.105 315.695 108.54 316.13C108.975 316.565 109.22 317.155 109.22 317.77Z" fill="#E0E0E0"/>
<path d="M116.07 317.77C116.07 318.229 115.933 318.678 115.678 319.06C115.423 319.442 115.06 319.739 114.635 319.915C114.211 320.09 113.744 320.135 113.293 320.045C112.843 319.955 112.43 319.733 112.106 319.407C111.782 319.082 111.561 318.667 111.473 318.217C111.385 317.766 111.432 317.299 111.609 316.875C111.786 316.452 112.085 316.09 112.468 315.836C112.851 315.583 113.3 315.448 113.76 315.45C114.064 315.45 114.365 315.51 114.646 315.627C114.927 315.744 115.182 315.915 115.397 316.13C115.611 316.346 115.781 316.602 115.897 316.883C116.012 317.165 116.071 317.466 116.07 317.77Z" fill="#E0E0E0"/>
<path d="M122.93 317.77C122.93 318.229 122.793 318.678 122.539 319.059C122.284 319.441 121.921 319.738 121.497 319.914C121.073 320.089 120.607 320.135 120.157 320.046C119.707 319.956 119.294 319.735 118.969 319.411C118.645 319.086 118.424 318.673 118.334 318.223C118.245 317.773 118.291 317.306 118.466 316.882C118.642 316.458 118.939 316.096 119.321 315.841C119.702 315.586 120.151 315.45 120.61 315.45C121.225 315.45 121.815 315.695 122.25 316.13C122.685 316.565 122.93 317.155 122.93 317.77Z" fill="#E0E0E0"/>
<path d="M129 357.509V358.639C129 359.17 128.789 359.679 128.414 360.054C128.039 360.429 127.53 360.639 127 360.639C126.47 360.639 125.961 360.429 125.586 360.054C125.211 359.679 125 359.17 125 358.639V354.189C125 353.659 125.211 353.15 125.586 352.775C125.961 352.4 126.47 352.189 127 352.189C127.53 352.189 128.039 352.4 128.414 352.775C128.789 353.15 129 353.659 129 354.189V354.999H127.69V354.079C127.69 353.469 127.42 353.239 127 353.239C126.58 353.239 126.3 353.469 126.3 354.079V358.709C126.3 359.319 126.57 359.539 127 359.539C127.43 359.539 127.69 359.319 127.69 358.709V357.489L129 357.509Z" fill="white"/>
<path d="M129.79 352.14H131.13V359.47H133.34V360.7H129.79V352.14Z" fill="white"/>
<path d="M133.93 352.14H135.28V360.7H133.93V352.14Z" fill="white"/>
<path d="M140.16 357.51V358.64C140.203 358.92 140.182 359.206 140.099 359.476C140.016 359.747 139.873 359.995 139.681 360.203C139.489 360.411 139.252 360.572 138.989 360.676C138.725 360.779 138.442 360.822 138.16 360.8C136.84 360.8 136.16 360.01 136.16 358.64V354.19C136.16 352.82 136.84 352.04 138.16 352.04C138.441 352.019 138.723 352.062 138.986 352.165C139.248 352.268 139.484 352.428 139.676 352.635C139.868 352.841 140.012 353.088 140.095 353.357C140.179 353.627 140.201 353.911 140.16 354.19V355H138.88V354.08C138.88 353.47 138.62 353.24 138.19 353.24C137.76 353.24 137.49 353.47 137.49 354.08V358.71C137.49 359.32 137.76 359.54 138.19 359.54C138.62 359.54 138.88 359.32 138.88 358.71V357.49L140.16 357.51Z" fill="white"/>
<path d="M142.74 357.29L142.32 358.07V360.7H141V352.14H142.34V355.87L144.1 352.14H145.45L143.56 356L145.43 360.75H144.05L142.74 357.29Z" fill="white"/>
<path d="M149.28 360.7H147.94V352.14H149.28V355.81H150.81V352.14H152.18V360.7H150.81V357H149.28V360.7Z" fill="white"/>
<path d="M154.5 355.74H156.35V357H154.5V359.5H156.83V360.73H153.16V352.17H156.83V353.39H154.5V355.74Z" fill="white"/>
<path d="M160.47 360.7C160.362 360.361 160.321 360.004 160.35 359.65V358.3C160.35 357.51 160.08 357.21 159.47 357.21H159V360.7H157.66V352.14H159.66C161.05 352.14 161.66 352.78 161.66 354.14V354.82C161.706 355.165 161.647 355.516 161.49 355.826C161.333 356.137 161.085 356.393 160.78 356.56C161.46 356.84 161.68 357.48 161.68 358.38V359.7C161.661 360.039 161.709 360.378 161.82 360.7H160.47ZM159 353.36V356H159.53C160.03 356 160.34 355.78 160.34 355.09V354.25C160.34 353.64 160.13 353.37 159.65 353.37L159 353.36Z" fill="white"/>
<path d="M163.92 355.74H165.77V357H163.92V359.5H166.25V360.73H162.58V352.17H166.25V353.39H163.92V355.74Z" fill="white"/>
<path d="M218.97 64.1104H121.68C114.688 64.1104 109.02 69.7784 109.02 76.7703V97.1303C109.02 104.122 114.688 109.79 121.68 109.79H218.97C225.962 109.79 231.63 104.122 231.63 97.1303V76.7703C231.63 69.7784 225.962 64.1104 218.97 64.1104Z" fill="#E0E0E0"/>
<path d="M140.93 88.1995V90.1995C140.93 92.6295 139.71 94.0195 137.37 94.0195C135.03 94.0195 133.81 92.6295 133.81 90.1995V82.2995C133.81 79.8695 135.02 78.4795 137.37 78.4795C139.72 78.4795 140.93 79.8695 140.93 82.2995V83.7695H138.67V82.1695C138.67 81.0795 138.19 80.6695 137.43 80.6695C136.67 80.6695 136.2 81.0795 136.2 82.1695V90.3695C136.2 91.4495 136.67 91.8395 137.43 91.8395C138.19 91.8395 138.67 91.4495 138.67 90.3695V88.1995H140.93Z" fill="white"/>
<path d="M142.38 78.6699H144.77V91.6699H148.69V93.8399H142.38V78.6699Z" fill="white"/>
<path d="M149.74 78.6699H152.12V93.8599H149.74V78.6699Z" fill="white"/>
<path d="M160.78 88.1995V90.1995C160.78 92.6295 159.57 94.0195 157.22 94.0195C154.87 94.0195 153.66 92.6295 153.66 90.1995V82.2995C153.66 79.8695 154.88 78.4795 157.22 78.4795C159.56 78.4795 160.78 79.8695 160.78 82.2995V83.7695H158.52V82.1695C158.52 81.0795 158.05 80.6695 157.29 80.6695C156.53 80.6695 156.05 81.0795 156.05 82.1695V90.3695C156.05 91.4495 156.53 91.8395 157.29 91.8395C158.05 91.8395 158.52 91.4495 158.52 90.3695V88.1995H160.78Z" fill="white"/>
<path d="M165.36 87.8099L164.62 89.1999V93.8599H162.23V78.6699H164.62V85.2899L167.75 78.6699H170.13L166.81 85.4399L170.13 93.8599H167.68L165.36 87.8099Z" fill="white"/>
<path d="M177 93.8599H174.61V78.6699H177V85.1799H179.71V78.6699H182.14V93.8599H179.71V87.3499H177V93.8599Z" fill="white"/>
<path d="M186.23 85.0699H189.51V87.2399H186.23V91.6899H190.36V93.8599H183.85V78.6699H190.36V80.8399H186.23V85.0699Z" fill="white"/>
<path d="M196.82 93.8599C196.62 93.2614 196.545 92.6284 196.6 91.9999V89.6099C196.6 88.1999 196.13 87.6799 195.04 87.6799H194.22V93.8599H191.83V78.6699H195.43C197.91 78.6699 198.97 79.8199 198.97 82.1699V83.3599C198.97 84.9199 198.47 85.9399 197.41 86.4399C198.6 86.9399 198.99 88.0899 198.99 89.6699V91.9999C198.946 92.6247 199.034 93.2518 199.25 93.8399L196.82 93.8599ZM194.22 80.8599V85.5299H195.15C196.04 85.5299 196.58 85.1399 196.58 83.9199V82.3999C196.58 81.3199 196.21 80.8399 195.37 80.8399L194.22 80.8599Z" fill="white"/>
<path d="M202.94 85.0699H206.22V87.2399H202.94V91.6899H207.06V93.8599H200.55V78.6699H207.06V80.8399H202.94V85.0699Z" fill="white"/>
<path d="M410.91 63.9199V159.94V179.21L429.48 159.94H517.55V63.9199H410.91Z" fill="#F5F5F5"/>
<path d="M517 82.1504C517 82.3104 493.49 82.4404 464.5 82.4404C435.51 82.4404 412 82.3104 412 82.1504C412 81.9904 435.5 81.8604 464.5 81.8604C493.5 81.8604 517 82.0004 517 82.1504Z" fill="#E0E0E0"/>
<path d="M422.81 75.0004C422.812 75.5249 422.658 76.0382 422.368 76.4753C422.078 76.9124 421.665 77.2536 421.181 77.4557C420.697 77.6579 420.164 77.7118 419.649 77.6106C419.134 77.5095 418.661 77.2579 418.289 76.8877C417.918 76.5175 417.664 76.0453 417.561 75.531C417.458 75.0167 417.51 74.4834 417.711 73.9986C417.911 73.5138 418.25 73.0993 418.686 72.8077C419.122 72.516 419.635 72.3604 420.16 72.3604C420.861 72.3603 421.533 72.6382 422.03 73.133C422.527 73.6278 422.807 74.2993 422.81 75.0004Z" fill="#E0E0E0"/>
<path d="M430.63 74.9997C430.63 75.5247 430.474 76.0378 430.182 76.474C429.889 76.9102 429.474 77.2498 428.989 77.4498C428.504 77.6498 427.97 77.7011 427.455 77.5972C426.941 77.4933 426.468 77.2389 426.099 76.8663C425.729 76.4937 425.478 76.0197 425.378 75.5043C425.278 74.9889 425.333 74.4555 425.537 73.9716C425.741 73.4878 426.084 73.0753 426.522 72.7865C426.96 72.4978 427.475 72.3457 428 72.3497C428.699 72.355 429.368 72.6365 429.861 73.1329C430.353 73.6293 430.63 74.3003 430.63 74.9997Z" fill="#E0E0E0"/>
<path d="M438.44 75.0004C438.44 75.5225 438.285 76.0329 437.995 76.4671C437.705 76.9012 437.292 77.2396 436.81 77.4394C436.328 77.6392 435.797 77.6915 435.285 77.5896C434.773 77.4878 434.302 77.2363 433.933 76.8671C433.564 76.4979 433.312 76.0275 433.21 75.5154C433.109 75.0033 433.161 74.4725 433.361 73.9901C433.56 73.5077 433.899 73.0954 434.333 72.8053C434.767 72.5152 435.278 72.3604 435.8 72.3604C436.499 72.363 437.169 72.642 437.664 73.1365C438.158 73.631 438.437 74.301 438.44 75.0004Z" fill="#E0E0E0"/>
<path d="M449.46 124.27H442.39L441.08 127.51H436.26L443.63 110.81H448.29L455.69 127.51H450.77L449.46 124.27ZM448.07 120.78L445.92 115.44L443.78 120.78H448.07Z" fill="#E0E0E0"/>
<path d="M457 110.81H464.9C470.44 110.81 474.23 114.03 474.23 119.16C474.23 124.29 470.44 127.51 464.9 127.51H457V110.81ZM464.71 123.74C467.55 123.74 469.46 122.05 469.46 119.16C469.46 116.27 467.55 114.58 464.71 114.58H461.71V123.74H464.71Z" fill="#E0E0E0"/>
<path d="M475.56 126L477.11 122.51C478.76 123.562 480.672 124.134 482.63 124.16C484.58 124.16 485.35 123.61 485.35 122.8C485.35 120.15 475.85 122.09 475.85 115.88C475.85 112.88 478.28 110.46 483.25 110.46C485.361 110.425 487.446 110.927 489.31 111.92L487.85 115.43C486.436 114.624 484.846 114.181 483.22 114.14C481.22 114.14 480.53 114.81 480.53 115.64C480.53 118.2 490 116.29 490 122.44C490 125.35 487.57 127.84 482.6 127.84C480.127 127.9 477.687 127.262 475.56 126Z" fill="#E0E0E0"/>
<path d="M518.28 379.17C516.215 383.337 512.959 386.798 508.926 389.114C504.893 391.43 500.264 392.497 495.624 392.181C490.984 391.864 486.542 390.178 482.861 387.336C479.18 384.493 476.425 380.622 474.945 376.213C473.465 371.804 473.326 367.055 474.547 362.568C475.768 358.08 478.292 354.055 481.802 351.003C485.311 347.951 489.647 346.009 494.261 345.423C498.875 344.837 503.558 345.632 507.72 347.71C513.291 350.482 517.533 355.354 519.513 361.253C521.494 367.153 521.05 373.597 518.28 379.17Z" fill="#F5F5F5"/>
<path d="M513.28 376.68C511.698 379.852 509.212 382.483 506.134 384.241C503.057 385.999 499.527 386.804 495.992 386.555C492.457 386.306 489.075 385.014 486.274 382.841C483.474 380.669 481.381 377.715 480.26 374.353C479.139 370.991 479.041 367.372 479.978 363.954C480.915 360.536 482.845 357.473 485.524 355.152C488.203 352.832 491.51 351.358 495.027 350.918C498.543 350.478 502.112 351.091 505.28 352.68C509.523 354.802 512.749 358.522 514.25 363.023C515.75 367.524 515.401 372.436 513.28 376.68Z" fill="#EBEBEB"/>
<path d="M513.52 376.17C513.628 375.444 513.809 374.73 514.06 374.04C514.919 370.824 514.898 367.436 514 364.23C513.57 362.751 512.951 361.332 512.16 360.01C511.295 358.551 510.217 357.229 508.96 356.09C508.303 355.48 507.597 354.925 506.85 354.43C506.082 353.92 505.276 353.469 504.44 353.08C503.603 352.682 502.737 352.348 501.85 352.08C500.987 351.841 500.108 351.667 499.22 351.56C498.361 351.451 497.495 351.411 496.63 351.44C495.798 351.458 494.969 351.539 494.15 351.68C492.632 351.943 491.154 352.396 489.75 353.03C486.73 354.426 484.145 356.613 482.27 359.36C481.47 360.51 481.09 361.2 480.99 361.16C481.112 360.417 481.392 359.707 481.81 359.08C482.801 357.278 484.116 355.675 485.69 354.35C488.052 352.363 490.887 351.016 493.92 350.44C494.797 350.27 495.687 350.166 496.58 350.13C497.511 350.086 498.444 350.116 499.37 350.22C500.33 350.326 501.28 350.51 502.21 350.77C503.166 351.035 504.102 351.369 505.01 351.77C505.914 352.19 506.783 352.682 507.61 353.24C508.413 353.779 509.172 354.381 509.88 355.04C510.561 355.675 511.19 356.364 511.76 357.1C512.315 357.799 512.814 358.541 513.25 359.32C514.068 360.75 514.687 362.284 515.09 363.88C515.439 365.267 515.621 366.69 515.63 368.12C515.65 370.169 515.29 372.203 514.57 374.12C514.05 375.55 513.6 376.21 513.52 376.17Z" fill="#E0E0E0"/>
<path d="M494.3 379.14L492.94 382L490.44 380.79L491.75 378.05C489.555 376.912 487.726 375.179 486.47 373.05L489.32 370.65C490.275 372.346 491.653 373.766 493.32 374.77L495.32 370.58C492.86 368.58 490.19 366.14 491.92 362.58C493.2 359.92 496.23 358.58 500.41 360.02L501.76 357.24L504.27 358.44L503 361.1C504.748 362.071 506.242 363.442 507.36 365.1L504.62 367.59C503.769 366.332 502.674 365.257 501.4 364.43L499.35 368.7C501.82 370.7 504.44 373.09 502.74 376.63C501.46 379.22 498.47 380.56 494.3 379.14ZM497.12 366.84L498.84 363.28C497.36 362.94 496.49 363.42 496.09 364.28C495.69 365.14 496.19 366 497.12 366.84ZM498.53 374.97C498.95 374.09 498.46 373.26 497.53 372.37L495.86 375.83C497.28 376.16 498.14 375.77 498.53 375V374.97Z" fill="#E0E0E0"/>
<path d="M534.76 469.56C534.76 469.7 437.71 469.82 318.01 469.82C198.31 469.82 101.24 469.7 101.24 469.56C101.24 469.42 198.24 469.3 318.01 469.3C437.78 469.3 534.76 469.41 534.76 469.56Z" fill="#263238"/>
<path d="M356.89 208.4L354.62 300.52C354.24 316.19 350.47 339.12 325.73 337.38C304.38 334.26 299.44 313.75 299.82 299.13C300 292.2 300.13 286.42 300.1 285.7C300.1 285.7 276.7 282.92 275.58 259.7C275.04 248.46 275.8 225.23 276.74 204.21C277.233 193.326 281.806 183.027 289.547 175.362C297.289 167.696 307.632 163.226 318.52 162.84L320.76 162.76C345 163.27 358.1 184.17 356.89 208.4Z" fill="#FFBE9D"/>
<path d="M300.1 285.699C300.1 285.699 314.79 286.039 330.1 275.699C330.1 275.699 323.32 292.959 300.03 291.699L300.1 285.699Z" fill="#EB996E"/>
<path d="M316 215.149C316.44 215.639 319.2 213.579 323.09 213.619C326.98 213.659 329.8 215.619 330.23 215.189C330.44 214.969 329.99 214.099 328.76 213.189C327.095 211.987 325.094 211.34 323.04 211.339C321.013 211.32 319.034 211.958 317.4 213.159C316.21 214.059 315.8 214.929 316 215.149Z" fill="#263238"/>
<path d="M315.26 223.999C315.281 224.818 315.621 225.596 316.208 226.168C316.794 226.74 317.581 227.059 318.4 227.059C318.802 227.078 319.203 227.016 319.58 226.877C319.957 226.738 320.302 226.524 320.595 226.249C320.888 225.974 321.122 225.643 321.285 225.275C321.447 224.907 321.534 224.511 321.54 224.109C321.519 223.29 321.179 222.512 320.593 221.94C320.006 221.369 319.219 221.049 318.4 221.049C317.999 221.03 317.598 221.092 317.221 221.232C316.844 221.371 316.499 221.584 316.206 221.859C315.913 222.135 315.678 222.466 315.516 222.833C315.353 223.201 315.267 223.597 315.26 223.999Z" fill="#263238"/>
<path d="M305.29 241.799C305.29 241.599 303.06 241.299 299.45 240.959C298.53 240.899 297.66 240.749 297.45 240.139C297.344 239.198 297.525 238.246 297.97 237.409C298.75 235.169 299.56 232.819 300.42 230.409C303.81 220.409 306.23 212.139 305.83 212.009C305.43 211.879 302.34 219.899 298.95 229.929C298.13 232.396 297.35 234.759 296.61 237.019C296.31 238.069 295.75 239.269 296.27 240.619C296.415 240.936 296.63 241.215 296.899 241.437C297.167 241.658 297.482 241.817 297.82 241.899C298.331 242.021 298.855 242.075 299.38 242.059C303 242.069 305.28 241.999 305.29 241.799Z" fill="#263238"/>
<path d="M318.21 200.609C318.55 201.489 321.69 200.949 325.4 201.279C329.11 201.609 332.15 202.539 332.61 201.729C332.82 201.339 332.27 200.529 331.03 199.729C329.402 198.721 327.551 198.127 325.64 197.999C323.736 197.829 321.82 198.131 320.06 198.879C318.72 199.469 318.06 200.189 318.21 200.609Z" fill="#263238"/>
<path d="M280.55 201.379C280.93 202.099 283.99 201.429 287.67 201.449C291.35 201.469 294.37 202.059 294.79 201.339C294.97 200.999 294.39 200.339 293.13 199.739C291.431 198.985 289.589 198.61 287.73 198.639C285.854 198.629 283.997 199.014 282.28 199.769C281 200.379 280.38 200.999 280.55 201.379Z" fill="#263238"/>
<path d="M355.6 225.699C356 225.509 371.42 220.399 371.48 236.319C371.54 252.239 355.55 249.019 355.48 248.559C355.41 248.099 355.6 225.699 355.6 225.699Z" fill="#FFBE9D"/>
<path d="M360.36 242.51C360.43 242.51 360.64 242.7 361.1 242.92C361.768 243.187 362.513 243.187 363.18 242.92C364.86 242.3 366.26 239.62 366.33 236.75C366.37 235.374 366.1 234.007 365.54 232.75C365.387 232.253 365.117 231.801 364.751 231.432C364.385 231.063 363.936 230.787 363.44 230.63C363.122 230.548 362.784 230.58 362.486 230.72C362.189 230.861 361.949 231.101 361.81 231.4C361.6 231.84 361.7 232.16 361.62 232.19C361.54 232.22 361.27 231.92 361.4 231.27C361.483 230.874 361.703 230.52 362.02 230.27C362.235 230.102 362.481 229.979 362.743 229.906C363.006 229.834 363.28 229.815 363.55 229.85C364.205 229.978 364.816 230.271 365.325 230.701C365.835 231.132 366.225 231.686 366.46 232.31C367.153 233.685 367.496 235.21 367.46 236.75C367.37 239.96 365.74 242.96 363.46 243.64C363.033 243.764 362.584 243.792 362.144 243.721C361.705 243.65 361.287 243.482 360.92 243.23C360.39 242.9 360.3 242.54 360.36 242.51Z" fill="#EB996E"/>
<path d="M377.7 200.74C374.59 195.01 374.07 188.29 372.49 181.97C370.91 175.65 366.27 167.62 360.22 165.21C354.87 161.9 347.69 162.06 343.03 165.72C342.21 157.41 336.77 152.52 328.79 150.1C320.81 147.68 307.79 148.47 299.97 151.3C293.9 153.48 287.97 158.2 280.64 165.19C277.559 168.131 274.723 171.318 272.16 174.72L264.35 196.11L269.94 207.69C270.27 208.48 270.61 209.26 271.03 210.04L275.56 234.17C276.15 227.66 276.56 204.94 277.09 198.43C282.003 198.469 286.874 197.515 291.409 195.625C295.944 193.735 300.05 190.947 303.48 187.43C307.19 183.61 310.17 178.77 315.03 176.58C321.29 173.77 328.53 176.26 334.93 178.75L334.66 178.49C337.982 180.179 340.949 182.491 343.4 185.3C341.469 198.144 342.322 211.254 345.9 223.74C346.44 225.61 347.96 229.49 349.75 230.26C353.27 231.77 354.36 228.17 356.58 226.32C358.22 224.95 360.58 224.86 363.14 224.96C364.79 221.05 366.59 214.42 368.14 208.62C370.275 209.372 372.557 209.608 374.8 209.31C374.173 207.65 373.55 205.983 372.93 204.31C373.755 204.967 374.709 205.444 375.73 205.71C376.245 205.832 376.786 205.794 377.279 205.601C377.772 205.408 378.195 205.069 378.49 204.63C379.12 203.37 378.35 201.94 377.7 200.74Z" fill="#263238"/>
<path d="M337.19 170C338 170.677 338.753 171.42 339.44 172.22C341.196 174.5 342.326 177.199 342.72 180.05C343.039 182.003 343.163 183.983 343.09 185.96C343.02 188.1 342.76 190.38 342.51 192.78C342.204 195.302 342.053 197.84 342.06 200.38C342.078 201.721 342.202 203.059 342.43 204.38C342.581 205.802 343.094 207.162 343.92 208.33C344.307 208.796 344.808 209.154 345.374 209.367C345.94 209.581 346.552 209.644 347.15 209.55C348.295 209.38 349.35 208.835 350.15 208C351.71 206.31 352.15 204.12 352.6 202.18L352.11 202.23C352.748 204.014 353.637 205.697 354.75 207.23C355.834 208.637 357.416 209.574 359.17 209.85C359.989 209.965 360.823 209.851 361.58 209.52C362.284 209.19 362.871 208.653 363.26 207.98C363.623 207.375 363.82 206.685 363.83 205.98C363.825 205.309 363.585 204.661 363.15 204.15L362.9 204.36C364.217 205.995 365.867 207.331 367.74 208.28C368.234 208.53 368.741 208.75 369.26 208.94C369.439 209.009 369.623 209.062 369.81 209.1C369.653 208.996 369.481 208.916 369.3 208.86C368.96 208.7 368.45 208.48 367.83 208.13C366.022 207.122 364.434 205.762 363.16 204.13L362.9 204.34C363.255 204.845 363.446 205.448 363.446 206.065C363.446 206.682 363.255 207.285 362.9 207.79C362.539 208.383 362.01 208.857 361.38 209.15C360.693 209.442 359.938 209.535 359.2 209.42C357.564 209.15 356.095 208.258 355.1 206.93C354.026 205.443 353.171 203.81 352.56 202.08L352.25 201.32L352.07 202.12C351.63 204.05 351.15 206.12 349.73 207.68C349.011 208.427 348.066 208.915 347.04 209.07C346.536 209.15 346.02 209.1 345.541 208.925C345.061 208.75 344.634 208.456 344.3 208.07C343.534 206.974 343.059 205.7 342.92 204.37C342.699 203.068 342.575 201.751 342.55 200.43C342.535 197.91 342.675 195.392 342.97 192.89C343.21 190.49 343.45 188.2 343.5 186.03C343.559 184.02 343.408 182.009 343.05 180.03C342.615 177.132 341.41 174.403 339.56 172.13C338.898 171.29 338.096 170.57 337.19 170Z" fill="#455A64"/>
<path d="M280.56 215.3C281 215.79 283.76 213.73 287.65 213.77C291.54 213.81 294.36 215.77 294.79 215.34C295 215.12 294.55 214.25 293.32 213.34C291.659 212.138 289.661 211.49 287.61 211.49C285.58 211.474 283.599 212.112 281.96 213.31C280.76 214.21 280.34 215.09 280.56 215.3Z" fill="#263238"/>
<path d="M282.89 222.829C282.914 223.649 283.256 224.427 283.844 224.999C284.432 225.57 285.22 225.89 286.04 225.889C286.441 225.907 286.841 225.844 287.217 225.704C287.592 225.564 287.936 225.35 288.228 225.075C288.52 224.8 288.754 224.47 288.915 224.103C289.077 223.736 289.164 223.34 289.17 222.939C289.149 222.12 288.809 221.342 288.223 220.77C287.636 220.199 286.849 219.879 286.03 219.879C285.629 219.86 285.228 219.922 284.851 220.062C284.474 220.201 284.129 220.414 283.836 220.69C283.543 220.965 283.308 221.296 283.146 221.663C282.983 222.031 282.896 222.427 282.89 222.829Z" fill="#263238"/>
<path d="M274.21 172.119C272.21 174.679 269.07 176.979 265.83 176.549C264.662 176.267 263.515 175.899 262.4 175.449C261.24 176.109 261.4 179.999 262.17 181.099C262.89 182.024 263.687 182.887 264.55 183.679C260.68 185.629 257.24 184.539 253.21 182.949C253.525 186.428 254.748 189.763 256.758 192.621C258.767 195.478 261.493 197.757 264.66 199.229C266.66 200.139 269.16 200.669 271.06 199.509C272.73 198.509 273.45 196.509 273.99 194.579C275.988 187.662 277.123 180.525 277.37 173.329L274.21 172.119Z" fill="#263238"/>
<path d="M308.66 249.609C308.932 249.107 309.333 248.687 309.822 248.392C310.311 248.096 310.869 247.937 311.44 247.929C312.52 247.929 313.44 247.829 314.23 248.579C314.98 249.301 315.489 250.237 315.688 251.259C315.886 252.281 315.765 253.339 315.34 254.289C314.868 255.218 314.066 255.938 313.092 256.308C312.117 256.678 311.04 256.671 310.07 256.289C308.18 255.419 307.43 250.549 308.74 248.929" fill="#EB996E"/>
<path d="M308 253.08C308.156 253.374 308.293 253.678 308.41 253.99C308.601 254.39 308.87 254.747 309.201 255.041C309.533 255.335 309.92 255.559 310.34 255.7C310.967 255.882 311.623 255.936 312.271 255.859C312.919 255.782 313.544 255.574 314.11 255.25C314.743 254.776 315.218 254.123 315.475 253.376C315.732 252.628 315.758 251.821 315.549 251.058C315.341 250.296 314.909 249.614 314.308 249.101C313.707 248.587 312.966 248.266 312.18 248.18C311.535 248.107 310.881 248.198 310.28 248.445C309.679 248.691 309.149 249.085 308.74 249.59C308.199 250.301 307.916 251.176 307.94 252.07C307.94 252.71 308.05 253.07 308 253.07C307.95 253.07 307.95 252.99 307.89 252.82C307.813 252.576 307.762 252.325 307.74 252.07C307.632 251.11 307.885 250.144 308.45 249.36C308.883 248.78 309.458 248.322 310.121 248.031C310.784 247.74 311.51 247.626 312.23 247.7C313.122 247.784 313.967 248.139 314.652 248.717C315.336 249.295 315.827 250.069 316.059 250.934C316.291 251.8 316.252 252.715 315.949 253.558C315.645 254.401 315.091 255.131 314.36 255.65C313.734 256 313.041 256.215 312.326 256.282C311.612 256.35 310.891 256.267 310.21 256.04C309.754 255.868 309.339 255.6 308.994 255.256C308.65 254.911 308.382 254.496 308.21 254.04C308.106 253.804 308.035 253.555 308 253.3C308 253.17 308 253.08 308 253.08Z" fill="#263238"/>
<path d="M337.37 169.889C336.718 168.791 335.924 167.782 335.01 166.889C332.435 164.545 329.144 163.136 325.67 162.889C323.289 162.721 320.897 163.002 318.62 163.719C316.007 164.551 313.527 165.756 311.26 167.299C306.41 170.509 302.12 175.299 297.43 180.149C295.156 182.53 292.695 184.723 290.07 186.709C287.614 188.572 284.881 190.037 281.97 191.049C276.973 192.647 271.616 192.734 266.57 191.299C263.181 190.368 260.015 188.762 257.26 186.579L256 185.519C255.64 185.209 255.38 184.899 255.15 184.669L254.64 184.129C254.53 184.009 254.47 183.939 254.48 183.929L254.68 184.089L255.22 184.589C255.46 184.809 255.74 185.109 256.1 185.409L257.36 186.409C260.132 188.501 263.284 190.036 266.64 190.929C271.616 192.291 276.882 192.169 281.79 190.579C284.664 189.576 287.364 188.128 289.79 186.289C292.383 184.31 294.821 182.133 297.08 179.779C301.75 174.979 306.08 170.129 311.02 166.889C313.329 165.329 315.857 164.12 318.52 163.299C320.852 162.584 323.298 162.315 325.73 162.509C329.269 162.795 332.602 164.289 335.17 166.739C335.848 167.409 336.442 168.158 336.94 168.969C337.08 169.239 337.2 169.449 337.29 169.619C337.38 169.789 337.38 169.879 337.37 169.889Z" fill="#455A64"/>
<path d="M291.18 293.41L300 291.66L354.56 288.29L366.19 291.46L364.66 319.78L338.37 336.55L312.87 336.04L296.83 321.44L293.28 306.95L291.18 293.41Z" fill="#FFBE9D"/>
<path d="M440 337.999C436.901 331.54 433.401 325.281 429.52 319.259C423.259 309.652 413.686 302.68 402.62 299.669L360.62 288.279C360.62 288.279 358.44 330.279 329.53 330.279C300.62 330.279 294.99 290.909 294.99 290.909L246.34 310.319C244.67 310.969 233.39 314.869 220.26 343.019C207.76 369.829 202.26 383.539 202.26 383.539L252.32 397.999L255.45 443.069L254.39 468.809L406.48 468.469L405.63 439.049L406.27 393.939L408.17 397.009L458.79 376.709C458.79 376.709 452.27 363.349 440 337.999Z" fill="#142C52"/>
<path d="M407 365.239C407.23 365.239 407.09 381.539 406.7 401.639C406.31 421.739 405.85 437.999 405.63 437.999C405.41 437.999 405.54 421.699 405.93 401.599C406.32 381.499 406.82 365.239 407 365.239Z" fill="#263238"/>
<path d="M244.74 356C244.995 356.531 245.184 357.092 245.3 357.67C245.6 358.76 246.01 360.35 246.49 362.31C247.44 366.25 248.62 371.71 249.72 377.79C250.82 383.87 251.6 389.41 252.08 393.42C252.32 395.42 252.5 397.06 252.59 398.19C252.676 398.773 252.696 399.363 252.65 399.95C252.452 399.395 252.324 398.817 252.27 398.23C252.07 396.94 251.82 395.36 251.52 393.5C250.9 389.5 250.01 384 248.92 377.93C247.83 371.86 246.74 366.4 245.92 362.44C245.55 360.59 245.24 359.02 244.98 357.74C244.836 357.171 244.755 356.587 244.74 356Z" fill="#263238"/>
<path d="M206.54 384.81L186.16 425.72C183.887 430.288 182.823 435.363 183.07 440.46C183.443 448.107 186.742 455.319 192.286 460.6C197.83 465.882 205.193 468.828 212.85 468.83L271.29 465.44L273.85 438.78L229.38 428.05L246.23 396.19L206.54 384.81Z" fill="#FFBE9D"/>
<path d="M229.38 428.049C229.38 428.239 227.38 427.899 224.13 427.919C219.932 428.002 215.772 428.737 211.8 430.099C207.833 431.426 204.115 433.407 200.8 435.959C198.28 437.959 197.08 439.589 196.94 439.489C196.8 439.389 197.15 439.009 197.68 438.259C198.471 437.224 199.362 436.27 200.34 435.409C203.628 432.618 207.424 430.489 211.52 429.139C215.588 427.734 219.878 427.08 224.18 427.209C225.477 427.257 226.768 427.411 228.04 427.669C228.505 427.721 228.958 427.85 229.38 428.049Z" fill="#EB996E"/>
<path d="M246.94 395.869C246.761 396.956 246.424 398.01 245.94 398.999C244.984 401.445 243.864 403.823 242.59 406.119C241.325 408.423 239.905 410.638 238.34 412.749C237.752 413.673 237.031 414.506 236.2 415.219C236.01 415.079 238.95 411.069 241.89 405.729C244.83 400.389 246.72 395.789 246.94 395.869Z" fill="#EB996E"/>
<path d="M456.71 468.689H388.09V442.789L427.83 425.999L413.09 395.109L452.87 379.109L472.29 422.309C476.8 434.859 481.41 440.819 477.48 452.239C475.44 458.169 467 468.689 456.71 468.689Z" fill="#FFBE9D"/>
<path d="M262.41 437.229H273.85C273.85 437.229 299.66 427.899 304.97 428.789C309.75 429.589 327.26 441.219 330.69 443.519C331.069 443.779 331.359 444.149 331.52 444.579C331.855 445.49 331.824 446.496 331.435 447.385C331.045 448.274 330.327 448.978 329.43 449.349L329.07 449.499L329.22 450.019C329.426 450.696 329.518 451.402 329.49 452.109C329.452 452.646 329.242 453.157 328.892 453.566C328.543 453.975 328.071 454.262 327.547 454.384C327.023 454.506 326.473 454.456 325.979 454.243C325.484 454.03 325.071 453.664 324.8 453.199L325.46 454.369C325.727 454.848 325.852 455.392 325.82 455.939L325.76 457.009C325.726 457.59 325.517 458.147 325.16 458.605C324.803 459.064 324.314 459.404 323.76 459.579C323.237 459.749 322.676 459.765 322.144 459.625C321.612 459.485 321.132 459.195 320.76 458.789C318.54 456.349 313.76 451.459 310.5 450.919C306.987 450.49 303.448 450.309 299.91 450.379C299.187 450.384 298.482 450.606 297.887 451.016C297.291 451.426 296.832 452.006 296.57 452.679C298.5 452.819 311.91 459.809 316.66 462.309C317.395 462.677 318.03 463.218 318.511 463.885C318.992 464.552 319.303 465.326 319.42 466.139C319.59 467.619 318.84 469.139 315.9 468.489C309.6 467.019 298.25 461.799 298.25 461.799C298.25 461.799 292.39 460.129 288.6 462.799C283.26 466.569 280.82 467.949 276.24 466.429C273.442 465.503 270.758 464.262 268.24 462.729L259.24 461.829C259.24 461.829 250.74 440.499 262.41 437.229Z" fill="#FFBE9D"/>
<path d="M296.5 441.59C296.5 441.69 298.33 441.11 301.35 440.91C305.283 440.645 309.223 441.314 312.849 442.863C316.474 444.411 319.682 446.795 322.21 449.82C323.235 451.103 324.193 452.438 325.08 453.82C324.94 453.398 324.749 452.995 324.51 452.62C323.927 451.567 323.258 450.563 322.51 449.62C320.002 446.487 316.756 444.025 313.064 442.455C309.371 440.884 305.346 440.254 301.35 440.62C300.148 440.719 298.957 440.923 297.79 441.23C297.347 441.298 296.914 441.419 296.5 441.59Z" fill="#EB996E"/>
<path d="M299.23 435.32C300.872 434.826 302.568 434.53 304.28 434.44C308.421 434.422 312.484 435.572 316 437.76C319.493 439.998 322.674 442.688 325.46 445.76L328.06 448.51C328.361 448.875 328.696 449.21 329.06 449.51C328.807 449.121 328.522 448.753 328.21 448.41C327.64 447.72 326.8 446.73 325.73 445.54C322.982 442.37 319.793 439.612 316.26 437.35C312.668 435.107 308.493 433.976 304.26 434.1C302.985 434.16 301.723 434.392 300.51 434.79C300.169 434.892 299.835 435.016 299.51 435.16C299.33 435.24 299.22 435.3 299.23 435.32Z" fill="#EB996E"/>
<path d="M404.85 438H393.4C393.4 438 367.59 428.67 362.28 429.56C357.5 430.36 339.99 441.99 336.56 444.29C336.181 444.549 335.891 444.919 335.73 445.35C335.398 446.261 335.43 447.265 335.819 448.154C336.209 449.042 336.925 449.746 337.82 450.12L338.18 450.27L338.03 450.79C337.823 451.466 337.731 452.173 337.76 452.88C337.799 453.417 338.008 453.927 338.358 454.337C338.708 454.746 339.179 455.032 339.703 455.154C340.228 455.276 340.777 455.227 341.272 455.014C341.766 454.801 342.179 454.435 342.45 453.97L341.79 455.14C341.529 455.621 341.405 456.163 341.43 456.71L341.49 457.77C341.52 458.352 341.728 458.91 342.085 459.37C342.443 459.83 342.934 460.168 343.49 460.34C344.012 460.513 344.573 460.532 345.106 460.393C345.638 460.255 346.119 459.965 346.49 459.56C348.71 457.11 353.49 452.22 356.75 451.68C360.267 451.258 363.809 451.081 367.35 451.15C368.072 451.157 368.774 451.379 369.368 451.789C369.961 452.199 370.419 452.778 370.68 453.45C368.75 453.58 355.34 460.58 350.59 463.08C349.856 463.446 349.221 463.985 348.741 464.65C348.26 465.316 347.948 466.088 347.83 466.9C347.66 468.39 348.41 469.95 351.35 469.26C357.65 467.79 369 462.57 369 462.57C369 462.57 374.86 460.89 378.65 463.57C383.99 467.34 386.43 468.72 391.01 467.2C393.81 466.277 396.494 465.035 399.01 463.5L408.01 462.6C408.01 462.6 416.52 441.3 404.85 438Z" fill="#FFBE9D"/>
<path d="M370.75 442.39C370.75 442.49 368.92 441.91 365.9 441.72C361.961 441.449 358.013 442.115 354.38 443.664C350.747 445.212 347.533 447.6 345 450.63C343 452.94 342.21 454.63 342.13 454.63C342.274 454.213 342.465 453.814 342.7 453.44C343.284 452.387 343.953 451.384 344.7 450.44C347.208 447.308 350.454 444.846 354.147 443.275C357.84 441.704 361.864 441.074 365.86 441.44C367.062 441.542 368.252 441.742 369.42 442.04C369.875 442.109 370.321 442.226 370.75 442.39Z" fill="#EB996E"/>
<path d="M368 436.119C366.374 435.629 364.696 435.333 363 435.239C358.852 435.225 354.783 436.379 351.26 438.569C347.77 440.81 344.589 443.499 341.8 446.569L339.2 449.329C338.9 449.694 338.565 450.029 338.2 450.329C338.452 449.936 338.736 449.565 339.05 449.219C339.62 448.539 340.46 447.549 341.54 446.359C344.282 443.187 347.468 440.428 351 438.169C354.592 435.927 358.767 434.796 363 434.919C364.272 434.98 365.53 435.212 366.74 435.609C367.082 435.707 367.417 435.831 367.74 435.979C367.833 436.013 367.921 436.06 368 436.119Z" fill="#EB996E"/>
<path d="M458.48 427.799C458.42 427.889 456.93 426.799 454.23 425.549C453.56 425.249 452.82 424.919 451.99 424.639C451.16 424.359 450.29 424.079 449.35 423.809C445.238 422.722 440.95 422.474 436.74 423.079C435.74 423.249 434.86 423.379 434.02 423.609C433.232 423.783 432.454 424 431.69 424.259C428.87 425.179 427.26 426.089 427.21 425.999C427.555 425.732 427.931 425.507 428.33 425.329C428.768 425.071 429.227 424.847 429.7 424.659C430.309 424.376 430.934 424.125 431.57 423.909C432.339 423.626 433.124 423.385 433.92 423.189C434.826 422.949 435.744 422.756 436.67 422.609C440.94 421.937 445.304 422.186 449.47 423.339C450.42 423.639 451.33 423.889 452.14 424.239C452.909 424.528 453.66 424.862 454.39 425.239C455.08 425.549 455.65 425.909 456.17 426.239C456.614 426.489 457.041 426.766 457.45 427.069C457.819 427.274 458.164 427.519 458.48 427.799Z" fill="#EB996E"/>
<path d="M400.27 472H257.37C255.416 471.999 253.537 471.243 252.127 469.89C250.716 468.538 249.883 466.692 249.8 464.74L245.51 366.39C245.464 365.367 245.626 364.345 245.986 363.387C246.345 362.428 246.895 361.552 247.603 360.812C248.31 360.072 249.16 359.483 250.102 359.08C251.043 358.678 252.056 358.47 253.08 358.47H404.28C405.303 358.47 406.314 358.677 407.255 359.079C408.195 359.48 409.045 360.067 409.753 360.805C410.461 361.543 411.013 362.416 411.375 363.372C411.737 364.328 411.902 365.348 411.86 366.37L407.86 464.72C407.782 466.679 406.948 468.533 405.533 469.89C404.118 471.248 402.231 472.004 400.27 472Z" fill="#E0E0E0"/>
<path d="M400.27 472C400.733 471.97 401.193 471.916 401.65 471.84C402.987 471.586 404.229 470.97 405.24 470.06C406.064 469.328 406.719 468.426 407.159 467.415C407.599 466.405 407.815 465.312 407.79 464.21C407.89 461.59 408.007 458.573 408.14 455.16C408.68 441.54 409.45 421.84 410.41 397.49C410.65 391.397 410.904 385.027 411.17 378.38C411.3 375.06 411.44 371.67 411.57 368.22C411.57 367.36 411.67 366.47 411.64 365.63C411.588 364.779 411.388 363.943 411.05 363.16C410.371 361.557 409.14 360.252 407.58 359.48C406.797 359.086 405.951 358.833 405.08 358.73C404.22 358.66 403.29 358.73 402.38 358.73H362.06H257.24H253.76C252.634 358.667 251.507 358.837 250.45 359.23C249.408 359.633 248.472 360.269 247.713 361.088C246.954 361.908 246.392 362.89 246.07 363.96C245.915 364.492 245.815 365.038 245.77 365.59C245.77 366.14 245.77 366.7 245.77 367.28C245.82 368.42 245.86 369.56 245.91 370.7L246.21 377.51C246.597 386.563 246.984 395.47 247.37 404.23C248.13 421.75 248.86 438.64 249.56 454.74C249.65 456.74 249.73 458.74 249.82 460.74C249.82 461.74 249.9 462.74 249.95 463.74C249.936 464.705 250.057 465.668 250.31 466.6C250.874 468.428 252.125 469.966 253.8 470.89C254.621 471.341 255.52 471.629 256.45 471.74C257.36 471.84 258.34 471.79 259.29 471.8H281.5H321.36L379.07 471.88L394.76 471.93H379.07L321.36 472.01H281.5H259.33C258.33 472.01 257.43 472.01 256.43 471.95C254.931 471.766 253.517 471.153 252.358 470.185C251.2 469.216 250.346 467.933 249.9 466.49C249.635 465.512 249.507 464.503 249.52 463.49C249.47 462.49 249.43 461.49 249.38 460.49C249.3 458.49 249.214 456.49 249.12 454.49C248.41 438.39 247.67 421.49 246.9 403.98C246.52 395.22 246.13 386.313 245.73 377.26C245.63 375 245.54 372.73 245.44 370.45L245.29 367.03C245.26 366.45 245.26 365.869 245.29 365.29C245.333 364.697 245.437 364.111 245.6 363.54C245.945 362.395 246.547 361.344 247.36 360.467C248.172 359.59 249.175 358.91 250.29 358.48C251.408 358.063 252.599 357.88 253.79 357.94H257.27H362.09H402.41C403.33 357.94 404.22 357.94 405.16 357.99C406.08 358.095 406.974 358.363 407.8 358.78C409.454 359.6 410.756 360.988 411.47 362.69C411.824 363.518 412.034 364.401 412.09 365.3C412.09 366.21 412.09 367.05 412.02 367.92C411.88 371.38 411.74 374.77 411.6 378.09C411.32 384.757 411.054 391.127 410.8 397.2C409.8 421.54 408.95 441.2 408.37 454.86C408.224 458.267 408.094 461.267 407.98 463.86C407.995 464.979 407.767 466.088 407.311 467.11C406.855 468.132 406.183 469.043 405.34 469.78C404.308 470.69 403.045 471.299 401.69 471.54C401.36 471.596 401.025 471.63 400.69 471.64L400.27 472Z" fill="#263238"/>
<path d="M336.5 417C336.5 418.549 336.041 420.062 335.181 421.35C334.32 422.638 333.097 423.641 331.667 424.234C330.236 424.827 328.662 424.982 327.143 424.679C325.624 424.377 324.229 423.632 323.134 422.537C322.039 421.442 321.293 420.046 320.991 418.527C320.689 417.009 320.844 415.434 321.436 414.004C322.029 412.573 323.033 411.35 324.32 410.49C325.608 409.629 327.122 409.17 328.67 409.17C330.746 409.173 332.736 409.998 334.204 411.466C335.672 412.934 336.498 414.924 336.5 417Z" fill="white"/>
<path d="M539.9 200.601H394.92L395.66 302.171H411.5V325.651L432.95 302.171H540.64L539.9 200.601Z" fill="white"/>
<path d="M539.9 200.61C539.9 200.61 539.9 201.21 539.9 202.4C539.9 203.59 539.9 205.4 539.96 207.7C539.96 212.37 540.07 219.23 540.16 228.03C540.31 245.68 540.53 271.09 540.81 302.16V302.37H540.6L433 302.42L433.18 302.34L411.74 325.83L411.29 326.32V302.17L411.55 302.43H395.4V302.17C395.15 265.59 394.91 231.11 394.69 200.61V200.37H394.92L499.84 200.49L529.43 200.55H537.24H539.24H539.9H537.19H529.33L499.69 200.61L394.92 200.73L395.16 200.49C395.39 230.99 395.65 265.49 395.92 302.05L395.66 301.8H411.76V325.54L411.31 325.37L432.76 302L432.83 301.92H433H540.69L540.49 302.13C540.31 271.13 540.16 245.74 540.06 228.13C540.01 219.31 539.98 212.43 539.96 207.75C539.96 205.41 539.96 203.63 539.96 202.41C539.96 201.19 539.9 200.61 539.9 200.61Z" fill="#263238"/>
<path d="M539.16 214.93C539.16 215.05 507.04 215.16 467.42 215.16C427.8 215.16 395.66 215.05 395.66 214.93C395.66 214.81 427.78 214.7 467.42 214.7C507.06 214.7 539.16 214.8 539.16 214.93Z" fill="#263238"/>
<path d="M401.61 211.341C402.67 211.341 403.53 210.4 403.53 209.241C403.53 208.081 402.67 207.141 401.61 207.141C400.55 207.141 399.69 208.081 399.69 209.241C399.69 210.4 400.55 211.341 401.61 211.341Z" fill="#E0E0E0"/>
<path d="M407.29 211.341C408.351 211.341 409.21 210.4 409.21 209.241C409.21 208.081 408.351 207.141 407.29 207.141C406.23 207.141 405.37 208.081 405.37 209.241C405.37 210.4 406.23 211.341 407.29 211.341Z" fill="#E0E0E0"/>
<path d="M412.96 211.341C414.02 211.341 414.88 210.4 414.88 209.241C414.88 208.081 414.02 207.141 412.96 207.141C411.9 207.141 411.04 208.081 411.04 209.241C411.04 210.4 411.9 211.341 412.96 211.341Z" fill="#E0E0E0"/>
<path d="M469.41 271.8C480.704 271.8 489.86 262.645 489.86 251.35C489.86 240.056 480.704 230.9 469.41 230.9C458.116 230.9 448.96 240.056 448.96 251.35C448.96 262.645 458.116 271.8 469.41 271.8Z" fill="#142C52"/>
<path d="M464.48 257.33V245.27C464.48 245.136 464.515 245.003 464.583 244.886C464.65 244.77 464.746 244.672 464.863 244.605C464.979 244.537 465.111 244.501 465.246 244.5C465.38 244.499 465.513 244.534 465.63 244.6L476.41 250.68C476.529 250.747 476.627 250.845 476.696 250.963C476.765 251.08 476.801 251.214 476.801 251.35C476.801 251.487 476.765 251.62 476.696 251.738C476.627 251.856 476.529 251.953 476.41 252.02L465.62 258.02C465.502 258.089 465.368 258.124 465.232 258.122C465.096 258.121 464.962 258.083 464.846 258.013C464.729 257.942 464.634 257.842 464.57 257.722C464.505 257.602 464.474 257.466 464.48 257.33Z" fill="white"/>
<path d="M529.71 289.271H404.52V289.891H529.71V289.271Z" fill="#263238"/>
<path d="M443.54 288.591H404.42V290.251H443.54V288.591Z" fill="#142C52"/>
<path d="M442.9 291.66C443.949 291.66 444.8 290.729 444.8 289.58C444.8 288.431 443.949 287.5 442.9 287.5C441.851 287.5 441 288.431 441 289.58C441 290.729 441.851 291.66 442.9 291.66Z" fill="#142C52"/>
<path d="M538.8 218.83C546.422 218.83 552.6 212.652 552.6 205.03C552.6 197.409 546.422 191.23 538.8 191.23C531.178 191.23 525 197.409 525 205.03C525 212.652 531.178 218.83 538.8 218.83Z" fill="#142C52"/>
<path d="M544.179 201.619L542.213 199.653L533.416 208.45L535.382 210.415L544.179 201.619Z" fill="white"/>
<path d="M535.379 199.632L533.413 201.598L542.209 210.394L544.175 208.428L535.379 199.632Z" fill="white"/>
<path d="M266.39 36.4805V135.79H357.09L376.69 150.95V135.79V131.9V36.4805H266.39Z" fill="white"/>
<path d="M266.39 36.4805H268.39H274.27L296.66 36.4205L376.66 36.3105H376.88V36.5305C376.88 68.3805 376.88 105.941 376.88 146.001V151.531L376.46 151.211L356.93 136.001L357.09 136.051H266.39H266.17V135.831C266.22 105.831 266.25 81.0305 266.28 63.6605C266.28 55.0005 266.28 48.2105 266.34 43.5805C266.34 41.2805 266.34 39.5105 266.34 38.3105C266.34 37.1105 266.34 36.5205 266.34 36.5205C266.34 36.5205 266.34 37.1605 266.34 38.3605C266.34 39.5605 266.34 41.3605 266.34 43.6705C266.34 48.3105 266.34 55.1205 266.39 63.7905C266.39 81.1305 266.46 105.931 266.5 135.791L266.29 135.581H356.99H357.08L357.15 135.631L376.75 150.781L376.33 150.991V145.991C376.33 105.931 376.33 68.3705 376.33 36.5205L376.56 36.7505L296.68 36.6305L274.24 36.5805H268.31H266.78L266.39 36.4805Z" fill="#263238"/>
<path d="M376.08 55.34C376.08 55.5 351.76 55.64 321.78 55.64C291.8 55.64 267.48 55.5 267.48 55.34C267.48 55.18 291.79 55.04 321.78 55.04C351.77 55.04 376.08 55.17 376.08 55.34Z" fill="#263238"/>
<path d="M278.7 47.9405C278.7 48.4841 278.538 49.0154 278.235 49.4668C277.932 49.9182 277.502 50.2694 276.999 50.4755C276.496 50.6817 275.943 50.7336 275.41 50.6245C274.878 50.5155 274.39 50.2506 274.008 49.8634C273.627 49.4762 273.369 48.9842 273.268 48.4501C273.166 47.916 273.226 47.3638 273.44 46.8639C273.653 46.364 274.011 45.9389 274.467 45.6427C274.923 45.3465 275.456 45.1926 276 45.2005C276.719 45.211 277.406 45.5043 277.911 46.017C278.417 46.5297 278.7 47.2207 278.7 47.9405Z" fill="#E0E0E0"/>
<path d="M286.78 47.9402C286.78 48.4826 286.619 49.0127 286.317 49.4635C286.016 49.9143 285.587 50.2655 285.086 50.4726C284.585 50.6797 284.033 50.7333 283.502 50.6268C282.97 50.5203 282.482 50.2583 282.099 49.8741C281.716 49.4899 281.456 49.0008 281.351 48.4686C281.247 47.9364 281.302 47.3852 281.511 46.8847C281.72 46.3842 282.073 45.957 282.525 45.6571C282.977 45.3572 283.507 45.1982 284.05 45.2002C284.409 45.2002 284.765 45.2712 285.097 45.409C285.429 45.5468 285.73 45.7488 285.984 46.0033C286.237 46.2579 286.438 46.56 286.575 46.8924C286.711 47.2248 286.781 47.5809 286.78 47.9402Z" fill="#E0E0E0"/>
<path d="M294.87 47.9402C294.87 48.4821 294.709 49.0119 294.408 49.4625C294.107 49.913 293.679 50.2642 293.179 50.4716C292.678 50.679 292.127 50.7333 291.596 50.6275C291.064 50.5218 290.576 50.2609 290.193 49.8777C289.809 49.4945 289.549 49.0063 289.443 48.4747C289.337 47.9432 289.391 47.3923 289.599 46.8916C289.806 46.391 290.157 45.963 290.608 45.662C291.058 45.3609 291.588 45.2002 292.13 45.2002C292.857 45.2002 293.554 45.4889 294.068 46.0027C294.581 46.5166 294.87 47.2135 294.87 47.9402Z" fill="#E0E0E0"/>
<path d="M356.34 91.4099C356.498 97.4863 354.851 103.473 351.605 108.613C348.36 113.752 343.663 117.813 338.108 120.283C332.554 122.752 326.392 123.517 320.402 122.483C314.413 121.448 308.864 118.66 304.46 114.471C300.055 110.283 296.992 104.881 295.659 98.9508C294.325 93.0205 294.781 86.8278 296.968 81.1566C299.155 75.4853 302.976 70.5904 307.946 67.0914C312.916 63.5923 318.813 61.6464 324.89 61.4999C333.027 61.2958 340.911 64.3323 346.809 69.9415C352.707 75.5507 356.135 83.2731 356.34 91.4099Z" fill="#142C52"/>
<path d="M349 91.5906C349.121 96.2221 347.866 100.786 345.393 104.703C342.92 108.621 339.341 111.718 335.108 113.601C330.875 115.484 326.178 116.07 321.612 115.283C317.046 114.497 312.816 112.374 309.457 109.183C306.098 105.992 303.761 101.876 302.742 97.3565C301.723 92.837 302.066 88.1166 303.73 83.7926C305.394 79.4686 308.303 75.7352 312.089 73.0648C315.875 70.3944 320.368 68.907 325 68.7906C328.074 68.7082 331.134 69.2329 334.005 70.3347C336.875 71.4365 339.501 73.0939 341.73 75.2117C343.959 77.3296 345.749 79.8665 346.996 82.677C348.244 85.4876 348.925 88.5166 349 91.5906Z" fill="#142C52"/>
<g opacity="0.3">
<path d="M349 90.8502C348.672 89.9439 348.44 89.0053 348.31 88.0502C347.724 85.547 346.756 83.149 345.44 80.9402C344.533 79.4348 343.459 78.036 342.24 76.7702C340.844 75.3178 339.264 74.0538 337.54 73.0102C336.616 72.4438 335.65 71.949 334.65 71.5302C333.612 71.0772 332.538 70.7093 331.44 70.4302C330.311 70.1326 329.161 69.9219 328 69.8002C326.8 69.6883 325.594 69.6615 324.39 69.7202C323.183 69.7932 321.984 69.9536 320.8 70.2002C318.545 70.6857 316.377 71.5118 314.37 72.6502C313.425 73.1814 312.519 73.7796 311.66 74.4402C310.066 75.6718 308.638 77.1036 307.41 78.7002C306.343 80.0969 305.43 81.6058 304.69 83.2002C303.621 85.5414 302.923 88.0345 302.62 90.5902C302.596 91.5505 302.472 92.5056 302.25 93.4402C301.941 92.5067 301.832 91.5186 301.93 90.5402C301.967 87.8506 302.506 85.1917 303.52 82.7002C304.222 80.9707 305.125 79.3295 306.21 77.8102C307.472 76.0664 308.962 74.4992 310.64 73.1502C311.546 72.4086 312.509 71.7398 313.52 71.1502C314.57 70.5315 315.666 69.9965 316.8 69.5502C317.976 69.0859 319.186 68.7147 320.42 68.4402C321.695 68.1665 322.989 67.9893 324.29 67.9102C325.587 67.8481 326.888 67.8815 328.18 68.0102C329.437 68.1441 330.681 68.3782 331.9 68.7102C333.079 69.0491 334.229 69.4804 335.34 70.0002C336.41 70.4658 337.44 71.0176 338.42 71.6502C341.834 73.8094 344.636 76.8084 346.56 80.3602C347.832 82.7121 348.659 85.2783 349 87.9302C349.208 88.8924 349.208 89.888 349 90.8502Z" fill="black"/>
</g>
<g opacity="0.3">
<path d="M328.61 106.05L328.76 110.12L325.12 110.26L324.97 106.26C321.732 106.282 318.554 105.391 315.8 103.69L317.63 99.1799C319.777 100.556 322.244 101.352 324.79 101.49L324.56 95.4099C320.48 94.5899 315.91 93.4099 315.71 88.2099C315.57 84.3499 318.24 80.9299 323.96 80.0599L323.81 76.0599L327.45 75.9199L327.6 79.9199C330.208 79.967 332.768 80.6318 335.07 81.8599L333.43 86.4099C331.68 85.48 329.763 84.9089 327.79 84.7299L328.02 90.9099C332.1 91.6999 336.59 92.9099 336.79 98.0099C336.93 101.76 334.29 105.14 328.61 106.05ZM324.35 90.0499L324.15 84.8899C322.24 85.3999 321.52 86.4799 321.56 87.6799C321.6 88.8799 322.73 89.6599 324.35 90.0999V90.0499ZM330.95 98.5799C330.9 97.3099 329.82 96.6599 328.23 96.1699L328.42 101.17C330.23 100.77 331 99.7999 331 98.6299L330.95 98.5799Z" fill="white"/>
</g>
<path d="M349.46 91.1404C349.46 91.1404 349.46 91.0105 349.46 90.7505C349.46 90.4904 349.4 90.1005 349.35 89.6205L349.27 88.7905C349.27 88.4905 349.16 88.1605 349.09 87.7905C348.964 86.9644 348.777 86.1488 348.53 85.3504C347.913 83.1438 346.966 81.0433 345.72 79.1205C343.916 76.296 341.536 73.884 338.735 72.042C335.935 70.2 332.778 68.9693 329.47 68.4305C325.302 67.7701 321.033 68.2291 317.1 69.7605C316.035 70.1685 314.999 70.6497 314 71.2004C313.009 71.7719 312.06 72.4136 311.16 73.1205C310.232 73.8375 309.354 74.6159 308.53 75.4504C307.724 76.3335 306.972 77.2652 306.28 78.2404C304.861 80.2432 303.773 82.4616 303.06 84.8104C301.55 89.673 301.677 94.8967 303.42 99.6805C304.247 101.992 305.439 104.156 306.95 106.09C307.685 107.031 308.48 107.923 309.33 108.76C310.194 109.553 311.105 110.291 312.06 110.97C313.907 112.296 315.948 113.328 318.11 114.03C322.112 115.37 326.397 115.625 330.53 114.77C334.127 114.018 337.498 112.433 340.37 110.14C342.747 108.259 344.743 105.941 346.25 103.31C347.398 101.345 348.245 99.2177 348.76 97.0005C348.968 96.1892 349.115 95.3636 349.2 94.5304C349.25 94.1704 349.31 93.8404 349.34 93.5304C349.37 93.2204 349.34 92.9405 349.34 92.6905C349.34 92.2205 349.34 91.8404 349.4 91.5604C349.394 91.4339 349.394 91.307 349.4 91.1805C349.415 91.3067 349.415 91.4342 349.4 91.5604V92.7004C349.4 92.9504 349.4 93.2305 349.4 93.5405C349.4 93.8505 349.33 94.1805 349.29 94.5405C349.255 95.3665 349.158 96.1889 349 97.0005C348.519 99.2664 347.692 101.445 346.55 103.46C343.814 108.329 339.467 112.092 334.255 114.1C329.044 116.108 323.295 116.235 318 114.46C316.913 114.101 315.851 113.67 314.82 113.17C313.777 112.639 312.774 112.03 311.82 111.35C310.838 110.667 309.903 109.918 309.02 109.11C308.151 108.255 307.339 107.343 306.59 106.38C305.035 104.408 303.813 102.196 302.97 99.8305C301.187 94.9403 301.061 89.5996 302.61 84.6304C303.338 82.2291 304.452 79.9627 305.91 77.9204C306.613 76.9237 307.381 75.9749 308.21 75.0805C309.053 74.2349 309.948 73.4433 310.89 72.7104C311.814 71.9786 312.786 71.3104 313.8 70.7104C314.802 70.1594 315.842 69.6783 316.91 69.2704C320.914 67.7425 325.252 67.3043 329.48 68.0005C332.845 68.5605 336.051 69.8312 338.886 71.728C341.721 73.6248 344.119 76.104 345.92 79.0005C347.158 80.9571 348.089 83.0919 348.68 85.3305C348.911 86.1406 349.085 86.966 349.2 87.8005C349.25 88.1605 349.32 88.4905 349.35 88.8005C349.38 89.1105 349.35 89.3804 349.35 89.6304C349.35 90.1104 349.37 90.4904 349.41 90.7704C349.438 90.892 349.455 91.0158 349.46 91.1404Z" fill="#263238"/>
<path d="M386.616 47.0164C392.435 41.1976 392.435 31.7634 386.616 25.9446C380.798 20.1258 371.363 20.1258 365.545 25.9446C359.726 31.7634 359.726 41.1975 365.545 47.0164C371.363 52.8352 380.798 52.8352 386.616 47.0164Z" fill="#142C52"/>
<path d="M381.885 32.7971L379.764 30.6758L370.268 40.1722L372.389 42.2935L381.885 32.7971Z" fill="white"/>
<path d="M372.386 30.6648L370.265 32.7861L379.762 42.2826L381.883 40.1613L372.386 30.6648Z" fill="white"/>
<path d="M238.55 276.271H238.45V155.681H87.9502V276.601H218.95L238.55 296.211V276.271Z" fill="white"/>
<path d="M238.55 276.27C238.55 276.27 238.55 276.7 238.55 277.56C238.55 278.42 238.55 279.7 238.55 281.38C238.55 284.76 238.55 289.75 238.55 296.21V296.39L238.42 296.26L218.79 276.68H218.87L87.8702 276.76H87.6802V276.57C87.6802 243.73 87.6802 207.65 87.6802 169.86V155.48H87.8802H238.39H238.56V155.64C238.56 192.1 238.5 222.17 238.49 243.17C238.49 253.67 238.49 261.9 238.44 267.52C238.44 270.33 238.44 272.52 238.44 273.96C238.44 274.69 238.44 275.25 238.44 275.63C238.44 276.01 238.44 276.22 238.44 276.23C238.43 276.031 238.43 275.83 238.44 275.63C238.44 275.25 238.44 274.69 238.44 273.96C238.44 272.49 238.44 270.33 238.44 267.52C238.44 261.9 238.44 253.67 238.39 243.17C238.39 222.17 238.39 192.1 238.32 155.64L238.49 155.81H87.9802L88.1902 155.6V169.81C88.1902 207.6 88.1902 243.68 88.1902 276.52L87.9902 276.33L218.99 276.41L238.57 296.04L238.44 296.1C238.53 283.37 238.55 276.81 238.55 276.27Z" fill="#263238"/>
<path d="M238.45 169.13C238.45 169.25 204.76 169.34 163.2 169.34C121.64 169.34 87.9399 169.25 87.9399 169.13C87.9399 169.01 121.63 168.92 163.2 168.92C204.77 168.92 238.45 169 238.45 169.13Z" fill="#263238"/>
<path d="M96.6803 162.6C96.6823 162.977 96.5723 163.345 96.3643 163.659C96.1563 163.973 95.8597 164.218 95.5121 164.363C95.1645 164.508 94.7816 164.547 94.4121 164.474C94.0427 164.401 93.7032 164.22 93.4369 163.953C93.1705 163.687 92.9894 163.348 92.9164 162.978C92.8434 162.609 92.8819 162.226 93.0269 161.878C93.172 161.531 93.417 161.234 93.731 161.026C94.045 160.818 94.4137 160.708 94.7903 160.71C95.2908 160.713 95.77 160.913 96.1239 161.266C96.4778 161.62 96.6777 162.1 96.6803 162.6Z" fill="#E0E0E0"/>
<path d="M102.29 162.6C102.292 162.976 102.182 163.344 101.975 163.658C101.767 163.972 101.471 164.217 101.124 164.362C100.777 164.508 100.395 164.547 100.026 164.475C99.6565 164.402 99.317 164.222 99.0503 163.957C98.7836 163.692 98.6016 163.353 98.5275 162.984C98.4534 162.615 98.4904 162.233 98.6339 161.885C98.7774 161.537 99.0209 161.24 99.3336 161.031C99.6463 160.822 100.014 160.71 100.39 160.71C100.892 160.71 101.374 160.909 101.73 161.263C102.086 161.617 102.288 162.098 102.29 162.6Z" fill="#E0E0E0"/>
<path d="M106 164.5C107.049 164.5 107.9 163.65 107.9 162.6C107.9 161.551 107.049 160.7 106 160.7C104.951 160.7 104.1 161.551 104.1 162.6C104.1 163.65 104.951 164.5 106 164.5Z" fill="#E0E0E0"/>
<path d="M238.55 173.72C246.415 173.72 252.79 167.345 252.79 159.48C252.79 151.616 246.415 145.24 238.55 145.24C230.686 145.24 224.31 151.616 224.31 159.48C224.31 167.345 230.686 173.72 238.55 173.72Z" fill="#142C52"/>
<path d="M244.109 155.948L242.086 153.926L233.007 163.005L235.03 165.027L244.109 155.948Z" fill="white"/>
<path d="M235.018 153.932L232.996 155.954L242.075 165.033L244.097 163.011L235.018 153.932Z" fill="white"/>
<path d="M157.61 171.96L168.74 183.44L184.31 179.8L187.47 195.47L202.53 200.83L196.72 215.73L206.49 228.38L193.55 237.76L194.93 253.69L178.97 254.59L171.52 268.74L157.61 260.86L143.69 268.74L136.24 254.59L120.28 253.69L121.66 237.76L108.72 228.38L118.5 215.73L112.68 200.83L127.74 195.47L130.9 179.8L146.47 183.44L157.61 171.96Z" fill="#142C52"/>
<g opacity="0.3">
<path d="M151.49 207.721C151.49 204.471 150.36 203.591 148.55 203.591C146.74 203.591 145.61 204.591 145.61 207.151V209.471H140.25V207.471C140.25 201.691 143.14 198.391 148.71 198.391C154.28 198.391 157.16 201.691 157.16 207.471V208.401C157.16 212.271 155.93 214.691 153.16 215.831C156 217.061 157.16 219.741 157.16 223.411V226.241C157.16 232.021 154.28 235.321 148.71 235.321C143.14 235.321 140.25 232.021 140.25 226.241V223.241H145.61V226.591C145.61 229.171 146.75 230.151 148.55 230.151C150.35 230.151 151.49 229.281 151.49 226.081V223.241C151.49 219.891 150.36 218.651 147.78 218.651H145.87V213.491H148.09C150.2 213.491 151.49 212.571 151.49 209.681V207.721Z" fill="black"/>
<path d="M160.52 207.511C160.52 201.731 163.52 198.431 169.13 198.431C174.74 198.431 177.74 201.731 177.74 207.511V226.281C177.74 232.061 174.74 235.361 169.13 235.361C163.52 235.361 160.52 232.061 160.52 226.281V207.511ZM166.19 226.641C166.19 229.221 167.33 230.201 169.13 230.201C170.93 230.201 172.07 229.201 172.07 226.641V207.151C172.07 204.571 170.94 203.591 169.13 203.591C167.32 203.591 166.19 204.591 166.19 207.151V226.641Z" fill="black"/>
</g>
<g opacity="0.3">
<path d="M179.25 198.561C179.214 198.343 179.226 198.121 179.285 197.908C179.344 197.696 179.449 197.499 179.592 197.331C179.734 197.163 179.912 197.028 180.112 196.935C180.312 196.843 180.53 196.795 180.75 196.795C180.97 196.795 181.188 196.843 181.388 196.935C181.588 197.028 181.766 197.163 181.908 197.331C182.051 197.499 182.156 197.696 182.215 197.908C182.274 198.121 182.286 198.343 182.25 198.561V201.841C182.286 202.058 182.274 202.281 182.215 202.493C182.156 202.706 182.051 202.903 181.908 203.071C181.766 203.239 181.588 203.373 181.388 203.466C181.188 203.559 180.97 203.606 180.75 203.606C180.53 203.606 180.312 203.559 180.112 203.466C179.912 203.373 179.734 203.239 179.592 203.071C179.449 202.903 179.344 202.706 179.285 202.493C179.226 202.281 179.214 202.058 179.25 201.841V198.561ZM180.25 201.921C180.25 202.361 180.43 202.541 180.76 202.541C181.09 202.541 181.28 202.361 181.28 201.921V198.481C181.28 198.041 181.08 197.851 180.76 197.851C180.44 197.851 180.25 198.041 180.25 198.481V201.921ZM184.71 197.031H185.64L181.64 207.031H180.71L184.71 197.031ZM184.21 202.221C184.174 202.003 184.186 201.781 184.245 201.568C184.304 201.356 184.409 201.159 184.552 200.991C184.694 200.823 184.872 200.688 185.072 200.595C185.272 200.503 185.49 200.455 185.71 200.455C185.93 200.455 186.148 200.503 186.348 200.595C186.548 200.688 186.726 200.823 186.868 200.991C187.011 201.159 187.116 201.356 187.175 201.568C187.234 201.781 187.246 202.003 187.21 202.221V205.501C187.246 205.718 187.234 205.941 187.175 206.153C187.116 206.366 187.011 206.563 186.868 206.731C186.726 206.899 186.548 207.033 186.348 207.126C186.148 207.219 185.93 207.266 185.71 207.266C185.49 207.266 185.272 207.219 185.072 207.126C184.872 207.033 184.694 206.899 184.552 206.731C184.409 206.563 184.304 206.366 184.245 206.153C184.186 205.941 184.174 205.718 184.21 205.501V202.221ZM185.21 205.581C185.21 206.021 185.39 206.201 185.72 206.201C186.05 206.201 186.24 206.021 186.24 205.581V202.141C186.24 201.701 186.04 201.521 185.72 201.521C185.4 201.521 185.21 201.701 185.21 202.141V205.581Z" fill="black"/>
</g>
<g opacity="0.3">
<path d="M147.35 237.17C149.6 237.17 150.76 238.52 150.76 240.88V241.35H148.57V240.73C148.57 239.73 148.15 239.28 147.41 239.28C146.67 239.28 146.25 239.68 146.25 240.73C146.25 243.73 150.78 244.34 150.78 248.55C150.78 250.91 149.6 252.26 147.33 252.26C145.06 252.26 143.87 250.91 143.87 248.55V247.65H146.06V248.65C146.06 249.7 146.53 250.08 147.26 250.08C147.99 250.08 148.47 249.7 148.47 248.65C148.47 245.65 143.93 245.05 143.93 240.83C143.93 238.52 145.09 237.17 147.35 237.17Z" fill="black"/>
<path d="M159.62 252.09H157.28L156.88 249.42H154L153.6 252.09H151.5L153.86 237.34H157.26L159.62 252.09ZM154.33 247.41H156.56L155.44 240L154.33 247.41Z" fill="black"/>
<path d="M160.69 237.34H163V250H166.82V252.11H160.69V237.34Z" fill="black"/>
<path d="M170.16 243.56H173.34V245.66H170.16V250H174.16V252.11H167.84V237.34H174.16V239.45H170.16V243.56Z" fill="black"/>
</g>
<path d="M149.38 208.76C149.38 205.51 148.24 204.63 146.44 204.63C144.64 204.63 143.5 205.63 143.5 208.19V210.51H138.13V208.51C138.13 202.74 141.02 199.44 146.59 199.44C152.16 199.44 155.05 202.74 155.05 208.51V209.44C155.05 213.31 153.81 215.73 151.05 216.87C153.89 218.11 155.05 220.79 155.05 224.45V227.29C155.05 233.06 152.16 236.36 146.59 236.36C141.02 236.36 138.13 233.06 138.13 227.29V224.29H143.5V227.64C143.5 230.22 144.63 231.2 146.44 231.2C148.25 231.2 149.38 230.32 149.38 227.12V224.29C149.38 220.93 148.24 219.7 145.66 219.7H143.76V214.54H146C148.12 214.54 149.41 213.61 149.41 210.72L149.38 208.76Z" fill="white"/>
<path d="M158.4 208.55C158.4 202.78 161.4 199.48 167.02 199.48C172.64 199.48 175.63 202.78 175.63 208.55V227.33C175.63 233.1 172.63 236.4 167.02 236.4C161.41 236.4 158.4 233.1 158.4 227.33V208.55ZM164.08 227.69C164.08 230.27 165.21 231.25 167.02 231.25C168.83 231.25 169.96 230.25 169.96 227.69V208.19C169.96 205.61 168.82 204.63 167.02 204.63C165.22 204.63 164.08 205.63 164.08 208.19V227.69Z" fill="white"/>
<path d="M177.13 198.561C177.095 198.343 177.107 198.121 177.166 197.908C177.225 197.696 177.329 197.499 177.472 197.331C177.615 197.163 177.792 197.028 177.992 196.935C178.192 196.843 178.41 196.795 178.63 196.795C178.851 196.795 179.069 196.843 179.269 196.935C179.469 197.028 179.646 197.163 179.789 197.331C179.931 197.499 180.036 197.696 180.095 197.908C180.154 198.121 180.166 198.343 180.13 198.561V201.841C180.166 202.058 180.154 202.281 180.095 202.493C180.036 202.706 179.931 202.903 179.789 203.071C179.646 203.239 179.469 203.373 179.269 203.466C179.069 203.559 178.851 203.606 178.63 203.606C178.41 203.606 178.192 203.559 177.992 203.466C177.792 203.373 177.615 203.239 177.472 203.071C177.329 202.903 177.225 202.706 177.166 202.493C177.107 202.281 177.095 202.058 177.13 201.841V198.561ZM178.13 201.921C178.13 202.361 178.31 202.541 178.64 202.541C178.97 202.541 179.16 202.361 179.16 201.921V198.481C179.16 198.041 178.96 197.851 178.64 197.851C178.32 197.851 178.13 198.041 178.13 198.481V201.921ZM182.59 197.031H183.52L179.52 207.031H178.59L182.59 197.031ZM182.09 202.221C182.055 202.003 182.067 201.781 182.126 201.568C182.185 201.356 182.289 201.159 182.432 200.991C182.575 200.823 182.752 200.688 182.952 200.595C183.152 200.503 183.37 200.455 183.59 200.455C183.811 200.455 184.029 200.503 184.229 200.595C184.429 200.688 184.606 200.823 184.749 200.991C184.891 201.159 184.996 201.356 185.055 201.568C185.114 201.781 185.126 202.003 185.09 202.221V205.501C185.126 205.718 185.114 205.941 185.055 206.153C184.996 206.366 184.891 206.563 184.749 206.731C184.606 206.899 184.429 207.033 184.229 207.126C184.029 207.219 183.811 207.266 183.59 207.266C183.37 207.266 183.152 207.219 182.952 207.126C182.752 207.033 182.575 206.899 182.432 206.731C182.289 206.563 182.185 206.366 182.126 206.153C182.067 205.941 182.055 205.718 182.09 205.501V202.221ZM183.09 205.581C183.09 206.021 183.27 206.201 183.6 206.201C183.93 206.201 184.12 206.021 184.12 205.581V202.141C184.12 201.701 183.92 201.521 183.6 201.521C183.28 201.521 183.09 201.701 183.09 202.141V205.581Z" fill="white"/>
<path d="M145.23 237.17C147.48 237.17 148.64 238.52 148.64 240.88V241.35H146.45V240.73C146.45 239.73 146.03 239.28 145.29 239.28C144.55 239.28 144.13 239.68 144.13 240.73C144.13 243.73 148.66 244.34 148.66 248.55C148.66 250.91 147.48 252.26 145.21 252.26C142.94 252.26 141.75 250.91 141.75 248.55V247.65H143.94V248.65C143.94 249.7 144.41 250.08 145.15 250.08C145.89 250.08 146.35 249.7 146.35 248.65C146.35 245.65 141.82 245.05 141.82 240.83C141.82 238.52 143 237.17 145.23 237.17Z" fill="white"/>
<path d="M157.5 252.09H155.16L154.76 249.42H151.91L151.51 252.09H149.38L151.74 237.34H155.14L157.5 252.09ZM152.21 247.41H154.44L153.32 240L152.21 247.41Z" fill="white"/>
<path d="M158.57 237.34H160.89V250H164.71V252.11H158.57V237.34Z" fill="white"/>
<path d="M168 243.56H171.18V245.66H168V250H172V252.11H165.72V237.34H172V239.45H168V243.56Z" fill="white"/>
<path d="M187.55 180.56L188.2 179.08C188.896 179.528 189.703 179.77 190.53 179.78C191.36 179.78 191.68 179.55 191.68 179.21C191.68 178.09 187.68 178.9 187.68 176.28C187.68 175.03 188.68 174 190.8 174C191.691 173.984 192.572 174.194 193.36 174.61L192.75 176.09C192.139 175.746 191.452 175.56 190.75 175.55C189.92 175.55 189.61 175.83 189.61 176.18C189.61 177.26 193.61 176.46 193.61 179.05C193.61 180.28 192.61 181.33 190.49 181.33C189.458 181.351 188.44 181.085 187.55 180.56Z" fill="#E0E0E0"/>
<path d="M197 179.281L196.43 179.851V181.191H194.52V173.721H196.43V177.631L198.43 175.731H200.69L198.43 178.071L200.88 181.191H198.57L197 179.281Z" fill="#E0E0E0"/>
<path d="M201.15 174.111C201.158 173.967 201.194 173.826 201.258 173.697C201.322 173.567 201.411 173.452 201.52 173.359C201.63 173.265 201.757 173.195 201.895 173.152C202.032 173.11 202.177 173.095 202.32 173.111C202.464 173.087 202.612 173.096 202.752 173.135C202.893 173.175 203.023 173.245 203.133 173.34C203.244 173.436 203.332 173.554 203.392 173.687C203.452 173.82 203.482 173.965 203.48 174.111C203.453 174.401 203.319 174.671 203.104 174.867C202.888 175.064 202.607 175.173 202.315 175.173C202.024 175.173 201.743 175.064 201.527 174.867C201.312 174.671 201.177 174.401 201.15 174.111ZM201.36 175.731H203.27V181.191H201.36V175.731Z" fill="#E0E0E0"/>
<path d="M210.62 178.46C210.645 178.824 210.594 179.189 210.471 179.533C210.348 179.876 210.154 180.19 209.903 180.455C209.653 180.72 209.349 180.93 209.013 181.072C208.677 181.214 208.315 181.285 207.95 181.28C207.67 181.294 207.39 181.25 207.127 181.152C206.864 181.054 206.623 180.904 206.42 180.71V183.14H204.51V175.73H206.33V176.27C206.535 176.05 206.788 175.879 207.068 175.77C207.349 175.661 207.65 175.616 207.95 175.64C208.315 175.635 208.677 175.706 209.013 175.848C209.349 175.99 209.653 176.2 209.903 176.465C210.154 176.73 210.348 177.044 210.471 177.387C210.594 177.731 210.645 178.096 210.62 178.46ZM208.69 178.46C208.663 178.238 208.573 178.029 208.43 177.857C208.286 177.685 208.097 177.559 207.883 177.492C207.67 177.426 207.442 177.423 207.227 177.483C207.011 177.543 206.818 177.664 206.67 177.831C206.522 177.999 206.425 178.205 206.392 178.426C206.358 178.647 206.389 178.873 206.481 179.077C206.573 179.281 206.722 179.454 206.91 179.575C207.098 179.696 207.317 179.76 207.54 179.76C207.704 179.76 207.866 179.725 208.016 179.657C208.165 179.59 208.299 179.491 208.408 179.369C208.516 179.246 208.598 179.101 208.646 178.945C208.695 178.788 208.71 178.623 208.69 178.46Z" fill="#E0E0E0"/>
<path d="M219.26 179.821H216.26L215.7 181.191H213.7L216.81 174.141H218.81L221.94 181.191H219.86L219.26 179.821ZM218.67 178.351L217.77 176.091L216.86 178.351H218.67Z" fill="#E0E0E0"/>
<path d="M228.11 173.721V181.191H226.29V180.651C226.087 180.868 225.838 181.037 225.561 181.146C225.284 181.255 224.987 181.301 224.69 181.281C223.942 181.281 223.225 180.984 222.696 180.455C222.167 179.926 221.87 179.209 221.87 178.461C221.87 177.713 222.167 176.996 222.696 176.467C223.225 175.938 223.942 175.641 224.69 175.641C224.967 175.624 225.244 175.666 225.504 175.762C225.764 175.858 226.001 176.008 226.2 176.201V173.721H228.11ZM226.23 178.451C226.201 178.229 226.109 178.021 225.964 177.85C225.82 177.68 225.629 177.555 225.415 177.49C225.201 177.426 224.973 177.424 224.758 177.486C224.544 177.548 224.352 177.671 224.205 177.839C224.058 178.008 223.963 178.215 223.932 178.436C223.9 178.658 223.933 178.883 224.026 179.086C224.12 179.289 224.27 179.461 224.459 179.58C224.647 179.7 224.867 179.763 225.09 179.761C225.254 179.759 225.416 179.723 225.565 179.654C225.714 179.586 225.847 179.486 225.955 179.362C226.063 179.238 226.143 179.093 226.19 178.936C226.238 178.779 226.251 178.613 226.23 178.451Z" fill="#E0E0E0"/>
<path d="M228.91 180.721L229.48 179.411C230.059 179.739 230.714 179.912 231.38 179.911C232.03 179.911 232.24 179.771 232.24 179.541C232.24 178.801 229.02 179.641 229.02 177.451C229.02 176.451 229.96 175.641 231.68 175.641C232.423 175.626 233.159 175.783 233.83 176.101L233.26 177.401C232.779 177.136 232.239 176.999 231.69 177.001C231.04 177.001 230.81 177.181 230.81 177.381C230.81 178.141 234.02 177.321 234.02 179.491C234.02 180.491 233.1 181.281 231.32 181.281C230.483 181.299 229.654 181.106 228.91 180.721Z" fill="#E0E0E0"/>
<defs>
<filter id="filter0_d_969_16681" x="0" y="16" width="608" height="508" filterUnits="userSpaceOnUse" color-interpolation-filters="sRGB">
<feFlood flood-opacity="0" result="BackgroundImageFix"/>
<feColorMatrix in="SourceAlpha" type="matrix" values="0 0 0 0 0 0 0 0 0 0 0 0 0 0 0 0 0 0 127 0" result="hardAlpha"/>
<feOffset dy="4"/>
<feGaussianBlur stdDeviation="2"/>
<feComposite in2="hardAlpha" operator="out"/>
<feColorMatrix type="matrix" values="0 0 0 0 0 0 0 0 0 0 0 0 0 0 0 0 0 0 0.25 0"/>
<feBlend mode="normal" in2="BackgroundImageFix" result="effect1_dropShadow_969_16681"/>
<feBlend mode="normal" in="SourceGraphic" in2="effect1_dropShadow_969_16681" result="shape"/>
</filter>
</defs>
</svg>
