<svg width="1441" height="716" viewBox="0 0 1441 716" fill="none" xmlns="http://www.w3.org/2000/svg">
<path d="M1441 0V625.023C1344.35 679.973 1275.42 683.743 1116.77 625.023C987.333 550.253 899.125 559.23 726.504 625.023C573.132 673.433 480.37 673.23 303.21 625.023C175.011 564.886 109.136 568.039 0 625.023V0H1441Z" fill="#07F9A2" fill-opacity="0.3"/>
<path d="M1441 0V670.275C1344.35 729.203 1275.42 733.247 1116.77 670.275C987.333 590.092 899.125 599.718 726.504 670.275C573.132 722.19 480.37 721.972 303.21 670.275C175.011 605.784 109.136 609.165 0 670.275V0H1441Z" fill="#07F9A2" fill-opacity="0.3"/>
<path d="M1441 0V668.254C1330.98 576.024 1260.11 575.362 1116.77 668.254C995.69 732.716 909.473 731.11 726.504 668.254C563.428 592.759 471.094 580.979 303.21 668.254C189.757 731.413 122.999 726.723 0 668.254V0H1441Z" fill="#07F9A2" fill-opacity="0.3"/>
<path d="M1441 0.0439453V623.335C1330.98 537.311 1260.11 536.693 1116.77 623.335C995.69 683.46 909.473 681.962 726.504 623.335C563.428 552.92 471.094 541.932 303.21 623.335C189.757 682.244 122.999 677.871 0 623.335V0.0439453H1441Z" fill="#07F9A2" fill-opacity="0.3"/>
</svg>
