<svg width="608" height="500" viewBox="0 0 608 500" fill="none" xmlns="http://www.w3.org/2000/svg">
<g filter="url(#filter0_d_920_1685)">
<path d="M588.156 373.211C446.422 280.434 588.156 82.1389 588.156 12.5789C588.156 -56.9811 444.699 190.759 403.682 57.8877C362.666 -74.9837 96.9685 286.419 22.1294 373.211C-130.047 549.691 729.891 465.988 588.156 373.211Z" fill="#07F9A2"/>
</g>
<g clip-path="url(#clip0_920_1685)">
<path d="M496.715 398.805H461.913V399.054H496.715V398.805Z" fill="#EBEBEB"/>
<path d="M372.007 401.517H362.876V401.766H372.007V401.517Z" fill="#EBEBEB"/>
<path d="M460.862 389.554H440.697V389.803H460.862V389.554Z" fill="#EBEBEB"/>
<path d="M124.473 391.229H79.0894V391.478H124.473V391.229Z" fill="#EBEBEB"/>
<path d="M140.487 391.229H133.835V391.478H140.487V391.229Z" fill="#EBEBEB"/>
<path d="M260.55 395.436H162.112V395.685H260.55V395.436Z" fill="#EBEBEB"/>
<path d="M273.002 338.303H70.1052C68.5157 338.301 66.9923 337.7 65.8694 336.633C64.7464 335.565 64.1157 334.119 64.1157 332.611V62.0243C64.1296 60.525 64.7664 59.0914 65.8878 58.0349C67.0093 56.9784 68.5248 56.3844 70.1052 56.3818H273.002C274.593 56.3818 276.119 56.9816 277.245 58.0491C278.37 59.1166 279.002 60.5644 279.002 62.0741V332.611C279.002 334.121 278.37 335.569 277.245 336.636C276.119 337.704 274.593 338.303 273.002 338.303ZM70.1052 56.5812C68.5854 56.5839 67.1288 57.1585 66.0551 58.179C64.9814 59.1994 64.3784 60.5824 64.3784 62.0243V332.611C64.3784 334.053 64.9814 335.436 66.0551 336.456C67.1288 337.477 68.5854 338.051 70.1052 338.054H273.002C274.523 338.051 275.98 337.477 277.056 336.457C278.131 335.437 278.736 334.054 278.739 332.611V62.0243C278.736 60.5815 278.131 59.1986 277.056 58.1784C275.98 57.1582 274.523 56.5839 273.002 56.5812H70.1052Z" fill="#EBEBEB"/>
<path d="M500.298 338.303H297.391C295.8 338.301 294.276 337.7 293.151 336.633C292.026 335.566 291.393 334.12 291.391 332.611V62.0243C291.407 60.524 292.046 59.0905 293.169 58.0343C294.293 56.9781 295.809 56.3844 297.391 56.3818H500.298C501.876 56.387 503.389 56.9822 504.508 58.0384C505.628 59.0946 506.263 60.5267 506.277 62.0243V332.611C506.277 334.117 505.648 335.562 504.527 336.629C503.406 337.696 501.885 338.298 500.298 338.303ZM297.391 56.5812C295.87 56.5839 294.412 57.1582 293.337 58.1784C292.261 59.1986 291.656 60.5815 291.653 62.0243V332.611C291.656 334.054 292.261 335.437 293.337 336.457C294.412 337.477 295.87 338.051 297.391 338.054H500.298C501.819 338.051 503.276 337.477 504.352 336.457C505.427 335.437 506.032 334.054 506.035 332.611V62.0243C506.032 60.5815 505.427 59.1986 504.352 58.1784C503.276 57.1582 501.819 56.5839 500.298 56.5812H297.391Z" fill="#EBEBEB"/>
<path d="M549.359 382.765H23.9651V383.014H549.359V382.765Z" fill="#EBEBEB"/>
<path d="M502.767 72.7012H427.898V313.66H502.767V72.7012Z" fill="#FAFAFA"/>
<path d="M504.669 157.995H411.065V311.557H504.669V157.995Z" fill="#E0E0E0"/>
<path d="M429.044 136.542V175.052H436.431H479.314H486.701V136.542H429.044Z" fill="#E0E0E0"/>
<path d="M429.044 163.688H417.065V175.052H429.044V163.688Z" fill="#FAFAFA"/>
<path d="M452.256 163.688H440.277V175.052H452.256V163.688Z" fill="#FAFAFA"/>
<path d="M475.468 163.688H463.489V175.052H475.468V163.688Z" fill="#FAFAFA"/>
<path d="M498.69 163.688H486.701V175.052H498.69V163.688Z" fill="#F0F0F0"/>
<path d="M429.044 184.343H417.065V195.717H429.044V184.343Z" fill="#F0F0F0"/>
<path d="M452.256 184.343H440.277V195.717H452.256V184.343Z" fill="#F0F0F0"/>
<path d="M475.468 184.343H463.489V195.717H475.468V184.343Z" fill="#FAFAFA"/>
<path d="M498.69 184.343H486.701V195.717H498.69V184.343Z" fill="#FAFAFA"/>
<path d="M429.044 204.999H417.065V216.364H429.044V204.999Z" fill="#F0F0F0"/>
<path d="M452.256 204.999H440.277V216.364H452.256V204.999Z" fill="#FAFAFA"/>
<path d="M475.468 204.999H463.489V216.364H475.468V204.999Z" fill="#FAFAFA"/>
<path d="M452.256 145.823H440.277V157.188H452.256V145.823Z" fill="#FAFAFA"/>
<path d="M475.468 145.823H463.489V157.188H475.468V145.823Z" fill="#F0F0F0"/>
<path d="M498.69 204.999H486.701V216.364H498.69V204.999Z" fill="#F0F0F0"/>
<path d="M429.044 225.654H417.065V237.019H429.044V225.654Z" fill="#FAFAFA"/>
<path d="M452.256 225.654H440.277V237.019H452.256V225.654Z" fill="#F0F0F0"/>
<path d="M475.468 225.654H463.489V237.019H475.468V225.654Z" fill="#F0F0F0"/>
<path d="M498.69 225.654H486.701V237.019H498.69V225.654Z" fill="#FAFAFA"/>
<path d="M429.044 246.32H417.065V257.695H429.044V246.32Z" fill="#F0F0F0"/>
<path d="M452.256 246.32H440.277V257.695H452.256V246.32Z" fill="#FAFAFA"/>
<path d="M475.468 246.32H463.489V257.695H475.468V246.32Z" fill="#FAFAFA"/>
<path d="M498.69 246.32H486.701V257.695H498.69V246.32Z" fill="#F0F0F0"/>
<path d="M429.044 266.976H417.065V278.34H429.044V266.976Z" fill="#F0F0F0"/>
<path d="M452.256 266.976H440.277V278.34H452.256V266.976Z" fill="#FAFAFA"/>
<path d="M475.468 266.976H463.489V278.34H475.468V266.976Z" fill="#F0F0F0"/>
<path d="M498.69 266.976H486.701V278.34H498.69V266.976Z" fill="#FAFAFA"/>
<path d="M429.044 287.631H417.065V299.005H429.044V287.631Z" fill="#FAFAFA"/>
<path d="M452.256 287.631H440.277V299.005H452.256V287.631Z" fill="#FAFAFA"/>
<path d="M475.468 287.631H463.489V299.005H475.468V287.631Z" fill="#F0F0F0"/>
<path d="M498.69 287.631H486.701V299.005H498.69V287.631Z" fill="#F0F0F0"/>
<path opacity="0.1" d="M502.62 72.7012H427.751V313.66H502.62V72.7012Z" fill="white"/>
<g opacity="0.3">
<path d="M495.296 72.7012H471.422L445.31 313.66H469.173L495.296 72.7012Z" fill="white"/>
</g>
<path d="M503.398 69.6504H427.268V75.7614H503.398V69.6504Z" fill="#E0E0E0"/>
<path d="M503.398 311.557H427.268V317.668H503.398V311.557Z" fill="#EBEBEB"/>
<path d="M506.35 322.882H423.822V63.6895H506.35V322.882ZM430.116 316.9H500.067V69.6708H430.116V316.9Z" fill="#EBEBEB"/>
<path d="M421.1 72.7012H346.231V313.66H421.1V72.7012Z" fill="#FAFAFA"/>
<path d="M415.436 237.856H351.412V312.394H415.436V237.856Z" fill="#E6E6E6"/>
<path d="M409.867 246.121H394.967H390.869H386.771V253.897H390.869H394.967H409.867V246.121Z" fill="#E6E6E6"/>
<path d="M409.867 261.184H394.967H390.869H386.771V268.959H390.869H394.967H409.867V261.184Z" fill="#FAFAFA"/>
<path d="M409.867 276.247H394.967H390.869H386.771V284.023H390.869H394.967H409.867V276.247Z" fill="#E6E6E6"/>
<path d="M409.867 291.31H394.967H388.641H386.771V299.085H388.641H394.967H409.867V291.31Z" fill="#FAFAFA"/>
<path d="M380.077 246.121H365.188H361.09H356.991V253.897H361.09H365.188H380.077V246.121Z" fill="#FAFAFA"/>
<path d="M380.077 261.184H365.188H359.408H356.991V268.959H359.408H365.188H380.077V261.184Z" fill="#FAFAFA"/>
<path d="M380.077 276.247H365.188H361.09H356.991V284.023H361.09H365.188H380.077V276.247Z" fill="#E6E6E6"/>
<path d="M380.077 291.31H365.188H361.09H356.991V299.085H361.09H365.188H380.077V291.31Z" fill="#FAFAFA"/>
<path opacity="0.1" d="M420.858 72.7012H345.99V313.66H420.858V72.7012Z" fill="white"/>
<g opacity="0.3">
<path d="M413.629 72.7012H389.765L363.643 313.66H387.517L413.629 72.7012Z" fill="white"/>
</g>
<path d="M421.73 69.6504H345.601V75.7614H421.73V69.6504Z" fill="#E0E0E0"/>
<path d="M421.73 311.557H345.601V317.668H421.73V311.557Z" fill="#EBEBEB"/>
<path d="M424.694 322.882H342.165V63.6895H424.694V322.882ZM348.448 316.9H418.399V69.6708H348.448V316.9Z" fill="#EBEBEB"/>
<path d="M224.928 72.7012H150.06V313.66H224.928V72.7012Z" fill="#FAFAFA"/>
<path opacity="0.1" d="M224.781 72.7012H149.913V313.66H224.781V72.7012Z" fill="white"/>
<g opacity="0.3">
<path d="M217.468 72.7012H193.594L167.482 313.66H191.345L217.468 72.7012Z" fill="white"/>
</g>
<path d="M225.569 69.6504H149.44V75.7614H225.569V69.6504Z" fill="#E0E0E0"/>
<path d="M225.569 311.557H149.44V317.668H225.569V311.557Z" fill="#EBEBEB"/>
<path d="M228.522 322.882H145.993V63.6895H228.522V322.882ZM152.287 316.9H222.228V69.6708H152.287V316.9Z" fill="#EBEBEB"/>
<path d="M143.377 72.7012H68.5081V313.66H143.377V72.7012Z" fill="#FAFAFA"/>
<path d="M132.091 174.743H74.1401V220.879H132.091V174.743Z" fill="#E6E6E6"/>
<path d="M85.2682 180.495H77.8496V187.533H85.2682V180.495Z" fill="#FAFAFA"/>
<path d="M99.6429 180.495H92.2244V187.533H99.6429V180.495Z" fill="#FAFAFA"/>
<path d="M114.018 180.495H106.599V187.533H114.018V180.495Z" fill="#FAFAFA"/>
<path d="M128.382 180.495H120.963V187.533H128.382V180.495Z" fill="#FAFAFA"/>
<path d="M85.2682 193.285H77.8496V200.323H85.2682V193.285Z" fill="#FAFAFA"/>
<path d="M99.6429 193.285H92.2244V200.323H99.6429V193.285Z" fill="#FAFAFA"/>
<path d="M114.018 193.285H106.599V200.323H114.018V193.285Z" fill="#FAFAFA"/>
<path d="M128.382 193.285H120.963V200.323H128.382V193.285Z" fill="#E6E6E6"/>
<path d="M85.2682 206.065H77.8496V213.104H85.2682V206.065Z" fill="#E6E6E6"/>
<path d="M99.6429 206.065H92.2244V213.104H99.6429V206.065Z" fill="#E6E6E6"/>
<path d="M114.018 206.065H106.599V213.104H114.018V206.065Z" fill="#FAFAFA"/>
<path d="M128.382 206.065H120.963V213.104H128.382V206.065Z" fill="#E6E6E6"/>
<path d="M132.091 220.301H74.1401V266.437H132.091V220.301Z" fill="#E6E6E6"/>
<path d="M85.2682 226.043H77.8496V233.081H85.2682V226.043Z" fill="#FAFAFA"/>
<path d="M99.6429 226.043H92.2244V233.081H99.6429V226.043Z" fill="#FAFAFA"/>
<path d="M114.018 226.043H106.599V233.081H114.018V226.043Z" fill="#FAFAFA"/>
<path d="M128.382 226.043H120.963V233.081H128.382V226.043Z" fill="#FAFAFA"/>
<path d="M85.2682 238.833H77.8496V245.871H85.2682V238.833Z" fill="#FAFAFA"/>
<path d="M99.6429 238.833H92.2244V245.871H99.6429V238.833Z" fill="#FAFAFA"/>
<path d="M114.018 238.833H106.599V245.871H114.018V238.833Z" fill="#FAFAFA"/>
<path d="M128.382 238.833H120.963V245.871H128.382V238.833Z" fill="#E6E6E6"/>
<path d="M85.2682 251.623H77.8496V258.661H85.2682V251.623Z" fill="#E6E6E6"/>
<path d="M99.6429 251.623H92.2244V258.661H99.6429V251.623Z" fill="#E6E6E6"/>
<path d="M114.018 251.623H106.599V258.661H114.018V251.623Z" fill="#FAFAFA"/>
<path d="M128.382 251.623H120.963V258.661H128.382V251.623Z" fill="#E6E6E6"/>
<path d="M132.091 265.85H74.1401V311.986H132.091V265.85Z" fill="#E6E6E6"/>
<path d="M85.2682 271.602H77.8496V278.64H85.2682V271.602Z" fill="#FAFAFA"/>
<path d="M99.6429 271.602H92.2244V278.64H99.6429V271.602Z" fill="#FAFAFA"/>
<path d="M114.018 271.602H106.599V278.64H114.018V271.602Z" fill="#FAFAFA"/>
<path d="M128.382 271.602H120.963V278.64H128.382V271.602Z" fill="#FAFAFA"/>
<path d="M85.2682 284.392H77.8496V291.43H85.2682V284.392Z" fill="#FAFAFA"/>
<path d="M99.6429 284.392H92.2244V291.43H99.6429V284.392Z" fill="#FAFAFA"/>
<path d="M114.018 284.392H106.599V291.43H114.018V284.392Z" fill="#FAFAFA"/>
<path d="M128.382 284.392H120.963V291.43H128.382V284.392Z" fill="#E6E6E6"/>
<path d="M85.2682 297.182H77.8496V304.22H85.2682V297.182Z" fill="#E6E6E6"/>
<path d="M99.6429 297.182H92.2244V304.22H99.6429V297.182Z" fill="#E6E6E6"/>
<path d="M114.018 297.182H106.599V304.22H114.018V297.182Z" fill="#FAFAFA"/>
<path d="M128.382 297.182H120.963V304.22H128.382V297.182Z" fill="#E6E6E6"/>
<path opacity="0.1" d="M142.389 72.7012H67.5203V313.66H142.389V72.7012Z" fill="white"/>
<g opacity="0.3">
<path d="M135.906 72.7012H112.042L85.9302 313.66H109.794L135.906 72.7012Z" fill="white"/>
</g>
<path d="M144.018 69.6504H67.8879V75.7614H144.018V69.6504Z" fill="#E0E0E0"/>
<path d="M144.018 311.557H67.8879V317.668H144.018V311.557Z" fill="#EBEBEB"/>
<path d="M146.97 322.882H64.4414V63.6895H146.97V322.882ZM70.7356 316.9H140.676V69.6708H70.7356V316.9Z" fill="#EBEBEB"/>
<path d="M279.853 355.061L279.012 355.161C278.96 354.752 273.853 314.198 284.392 281.061C294.9 248.164 287.65 227.129 287.545 226.93L288.354 226.671C288.427 226.88 295.709 248.114 285.202 281.291C274.715 314.268 279.8 354.662 279.853 355.061Z" fill="#E0E0E0"/>
<path d="M289.079 231.447C287.243 229.373 284.753 227.915 281.976 227.29L282.175 226.502C285.13 227.168 287.78 228.72 289.73 230.928L289.079 231.447Z" fill="#E0E0E0"/>
<path d="M292.683 234.802L290.259 236.102L290.678 236.805L293.102 235.505L292.683 234.802Z" fill="#E0E0E0"/>
<path d="M288.165 253.497C286.05 248.926 282.136 245.32 277.258 243.449L277.573 242.711C282.655 244.657 286.735 248.409 288.942 253.168L288.165 253.497Z" fill="#E0E0E0"/>
<path d="M285.895 278.829H285.044C285.016 277.198 284.608 275.593 283.848 274.13C283.089 272.667 281.997 271.381 280.652 270.365L281.177 269.737C282.622 270.829 283.794 272.21 284.61 273.782C285.426 275.353 285.864 277.077 285.895 278.829Z" fill="#E0E0E0"/>
<path d="M284.004 285.308L283.205 285.019C283.641 283.991 284.295 283.059 285.127 282.28C285.958 281.502 286.949 280.893 288.039 280.493L288.333 281.251C287.356 281.608 286.467 282.153 285.722 282.851C284.977 283.549 284.392 284.386 284.004 285.308Z" fill="#E0E0E0"/>
<path d="M278.497 326.411L277.846 325.902C278.897 324.716 279.664 320.22 280.084 317.807C280.179 317.229 280.263 316.741 280.336 316.382L281.166 316.531C281.103 316.88 281.019 317.369 280.914 317.937C280.294 321.556 279.59 325.164 278.497 326.411Z" fill="#E0E0E0"/>
<path d="M278.014 339.321C277.423 337.741 276.321 336.378 274.867 335.426C273.413 334.474 271.679 333.981 269.913 334.017V333.21C271.866 333.165 273.784 333.708 275.392 334.761C277 335.814 278.216 337.323 278.865 339.071L278.014 339.321Z" fill="#E0E0E0"/>
<path d="M284.499 347.753L278.519 354.101L279.154 354.639L285.134 348.291L284.499 347.753Z" fill="#E0E0E0"/>
<path d="M288.764 306.353C290.119 310.51 280.673 318.436 280.673 318.436C280.673 318.436 268.158 316.95 266.802 312.783C265.447 308.616 268.62 301.817 274.683 300.043C280.746 298.268 287.366 302.196 288.764 306.353Z" fill="#F0F0F0"/>
<path d="M299.208 255.87C298.011 260.286 289.058 263.426 289.058 263.426C289.058 263.426 282.816 256.578 284.014 252.162C285.212 247.745 290.161 242.87 294.354 243.897C298.546 244.924 300.406 251.454 299.208 255.87Z" fill="#EBEBEB"/>
<path d="M263.303 321.885C268.914 323.968 272.361 333.389 272.361 333.389C272.361 333.389 263.103 338.124 257.482 336.051C251.86 333.977 245.923 328.075 247.52 324.217C249.117 320.36 257.681 319.811 263.303 321.885Z" fill="#F5F5F5"/>
<path d="M275.618 270.016C276.752 270.922 278.052 271.622 279.454 272.079C280.16 272.294 280.915 272.321 281.637 272.16C282.359 271.998 283.021 271.653 283.552 271.162C284.76 269.846 284.435 267.813 283.678 266.228C282.175 263.087 276.638 257.764 272.382 259.249C266.245 261.492 272.876 268.092 275.618 270.016Z" fill="#E6E6E6"/>
<path d="M288.186 278.021C287.377 278.968 286.526 280.155 286.967 281.301C287.217 281.787 287.63 282.181 288.142 282.419C288.654 282.657 289.235 282.727 289.794 282.617C290.904 282.371 291.942 281.89 292.83 281.211C294.995 279.776 299.44 276.785 296.603 273.984C293.766 271.182 289.878 276.017 288.186 278.021Z" fill="#EBEBEB"/>
<path d="M270.049 238.146C269.582 238.17 269.134 238.333 268.77 238.612C268.406 238.891 268.144 239.272 268.021 239.701C267.842 240.698 268.736 241.615 269.597 242.243C271.751 243.818 278.214 248.065 279.664 243.967C281.03 240.1 272.907 237.817 270.049 238.146Z" fill="#E0E0E0"/>
<path d="M281.976 224.667C280.641 224.787 279.307 224.328 277.972 224.408C276.638 224.488 275.145 225.504 275.45 226.751C275.755 227.997 277.226 228.276 278.455 228.356C280.567 228.475 282.686 228.334 284.76 227.937C285.25 227.895 285.705 227.677 286.032 227.329C286.578 226.571 285.716 225.554 284.792 225.335C283.839 225.219 282.903 225.008 281.997 224.707L281.976 224.667Z" fill="#E6E6E6"/>
<path d="M295.068 233.38C296.413 233.38 297.706 232.872 299.051 232.872C300.396 232.872 301.941 233.789 301.73 235.045C301.52 236.301 300.06 236.69 298.83 236.84C296.738 237.103 294.618 237.103 292.526 236.84C292.03 236.829 291.556 236.641 291.202 236.311C290.613 235.584 291.401 234.527 292.252 234.198C293.198 234.024 294.121 233.753 295.005 233.39L295.068 233.38Z" fill="#F0F0F0"/>
<path d="M293.692 327.048C293.996 326.748 294.401 326.558 294.837 326.51C295.123 326.541 295.391 326.662 295.596 326.853C295.802 327.044 295.934 327.296 295.972 327.566C296.034 328.11 295.962 328.659 295.762 329.171C294.848 332.053 284.655 352.937 282.301 349.189C280.914 346.966 284.329 339.629 285.338 337.545C287.278 333.508 290.13 329.924 293.692 327.048Z" fill="#F0F0F0"/>
<path d="M287.597 225.455C288.255 223.687 289.381 222.108 290.865 220.87C292.473 219.763 295.069 219.683 296.224 221.209C297.538 222.913 296.224 225.505 294.217 226.412C292.21 227.32 289.867 227.04 287.66 226.751C287.66 226.442 287.66 226.133 287.608 225.824L287.597 225.455Z" fill="#E6E6E6"/>
<path d="M294.722 382.915C283.802 384.679 272.646 384.679 261.727 382.915L248.897 347.026H307.562L294.722 382.915Z" fill="#F0F0F0"/>
<path d="M287.282 114.182C299.312 114.182 309.065 104.929 309.065 93.5162C309.065 82.1029 299.312 72.8506 287.282 72.8506C275.252 72.8506 265.499 82.1029 265.499 93.5162C265.499 104.929 275.252 114.182 287.282 114.182Z" fill="#E0E0E0"/>
<path d="M307.329 95.9708C309.257 84.7049 301.193 74.0897 289.318 72.261C277.443 70.4323 266.254 78.0826 264.326 89.3485C262.399 100.614 270.463 111.23 282.338 113.058C294.212 114.887 305.402 107.237 307.329 95.9708Z" fill="#EBEBEB"/>
<path opacity="0.8" d="M303.296 92.7885C303.296 96.0694 302.271 99.2765 300.349 102.004C298.428 104.732 295.697 106.859 292.502 108.114C289.307 109.37 285.792 109.698 282.4 109.058C279.008 108.418 275.893 106.838 273.447 104.518C271.002 102.198 269.337 99.2425 268.662 96.0247C267.987 92.8069 268.334 89.4716 269.657 86.4404C270.98 83.4093 273.221 80.8186 276.097 78.9958C278.972 77.1731 282.353 76.2002 285.811 76.2002C290.448 76.2002 294.896 77.9479 298.175 81.0588C301.454 84.1697 303.296 88.389 303.296 92.7885Z" fill="white"/>
<path d="M284.865 94.3535C284.534 94.0371 284.349 93.6092 284.35 93.1636C284.351 92.718 284.538 92.291 284.87 91.9759C285.203 91.6608 285.653 91.4834 286.122 91.4824C286.592 91.4815 287.043 91.6571 287.377 91.9709C287.543 92.1271 287.675 92.3129 287.765 92.5176C287.855 92.7222 287.902 92.9418 287.902 93.1636C287.902 93.3855 287.857 93.6052 287.768 93.8103C287.678 94.0153 287.547 94.2016 287.382 94.3585C287.217 94.5153 287.02 94.6397 286.804 94.7243C286.588 94.809 286.356 94.8524 286.122 94.8519C285.889 94.8515 285.657 94.8072 285.441 94.7216C285.226 94.6361 285.03 94.511 284.865 94.3535Z" fill="#E0E0E0"/>
<path d="M285.811 92.5891L296.13 92.29L296.161 93.3069L286.809 93.576L285.801 109.008L284.739 108.948L285.811 92.5891Z" fill="#E0E0E0"/>
<path d="M286.662 427.237C399.183 427.237 490.399 422.184 490.399 415.952C490.399 409.719 399.183 404.667 286.662 404.667C174.141 404.667 82.9248 409.719 82.9248 415.952C82.9248 422.184 174.141 427.237 286.662 427.237Z" fill="#F5F5F5"/>
<path d="M476.172 363.335L481.51 282.727C481.979 275.637 480.912 268.532 478.376 261.849C475.839 255.166 471.886 249.047 466.76 243.869C461.634 238.691 455.444 234.565 448.573 231.744C441.701 228.923 434.293 227.468 426.806 227.469C412.805 227.471 399.337 232.555 389.163 241.679C378.988 250.803 372.88 263.275 372.091 276.536L366.522 370.682H467.923C470.025 370.681 472.047 369.921 473.579 368.557C475.111 367.192 476.038 365.325 476.172 363.335Z" fill="#142C52"/>
<path opacity="0.1" d="M476.361 360.435L481.51 282.747C481.979 275.658 480.912 268.552 478.376 261.869C475.839 255.186 471.886 249.067 466.76 243.889C461.634 238.712 455.444 234.585 448.573 231.765C441.701 228.944 434.293 227.489 426.806 227.489C412.805 227.491 399.337 232.576 389.163 241.7C378.988 250.824 372.88 263.295 372.091 276.556L366.522 370.683H464.865C467.793 370.674 470.608 369.611 472.742 367.709C474.876 365.806 476.169 363.207 476.361 360.435Z" fill="black"/>
<path d="M459.716 370.682L465.538 282.727C466.006 275.638 464.938 268.533 462.401 261.85C459.863 255.168 455.91 249.049 450.784 243.872C445.659 238.695 439.47 234.568 432.599 231.747C425.728 228.926 418.321 227.47 410.834 227.469C396.833 227.468 383.363 232.552 373.188 241.676C363.013 250.801 356.906 263.274 356.119 276.536L350.519 370.682H459.716Z" fill="#142C52"/>
<path d="M461.461 385.825H462.858C463.235 385.806 463.592 385.66 463.865 385.413C464.139 385.166 464.311 384.835 464.35 384.479L466.452 370.692H457.94L460.042 384.479C460.081 384.824 460.243 385.145 460.501 385.39C460.759 385.635 461.098 385.788 461.461 385.825Z" fill="#142C52"/>
<path opacity="0.7" d="M461.461 385.825H462.858C463.235 385.806 463.592 385.66 463.865 385.413C464.139 385.166 464.311 384.835 464.35 384.479L466.452 370.692H457.94L460.042 384.479C460.081 384.824 460.243 385.145 460.501 385.39C460.759 385.635 461.098 385.788 461.461 385.825Z" fill="white"/>
<path d="M324.175 385.825H325.436C325.794 385.79 326.127 385.636 326.375 385.389C326.623 385.142 326.771 384.82 326.792 384.479L328.694 370.692H320.96L322.841 384.479C322.86 384.817 323.005 385.137 323.249 385.383C323.493 385.629 323.821 385.786 324.175 385.825Z" fill="#142C52"/>
<path opacity="0.5" d="M324.175 385.825H325.436C325.794 385.79 326.127 385.636 326.375 385.389C326.623 385.142 326.771 384.82 326.792 384.479L328.694 370.692H320.96L322.841 384.479C322.86 384.817 323.005 385.137 323.249 385.383C323.493 385.629 323.821 385.786 324.175 385.825Z" fill="white"/>
<path d="M363.695 385.825H364.967C365.324 385.79 365.657 385.636 365.906 385.389C366.154 385.142 366.302 384.82 366.322 384.479L368.193 370.692H360.469L362.319 384.479C362.34 384.823 362.491 385.148 362.744 385.395C362.996 385.642 363.334 385.795 363.695 385.825Z" fill="#142C52"/>
<path opacity="0.7" d="M363.695 385.825H364.967C365.324 385.79 365.657 385.636 365.906 385.389C366.154 385.142 366.302 384.82 366.322 384.479L368.193 370.692H360.469L362.319 384.479C362.34 384.823 362.491 385.148 362.744 385.395C362.996 385.642 363.334 385.795 363.695 385.825Z" fill="white"/>
<path d="M418.904 385.825H420.301C420.678 385.804 421.036 385.658 421.311 385.412C421.585 385.166 421.76 384.836 421.804 384.479L423.905 370.692H415.384L417.485 384.479C417.522 384.824 417.683 385.147 417.942 385.392C418.2 385.637 418.54 385.79 418.904 385.825Z" fill="#142C52"/>
<path opacity="0.5" d="M418.904 385.825H420.301C420.678 385.804 421.036 385.658 421.311 385.412C421.585 385.166 421.76 384.836 421.804 384.479L423.905 370.692H415.384L417.485 384.479C417.522 384.824 417.683 385.147 417.942 385.392C418.2 385.637 418.54 385.79 418.904 385.825Z" fill="white"/>
<path d="M372.638 337.506H335.272L332.802 303.333L332.266 295.996L332.025 292.616C331.957 291.73 331.834 290.847 331.657 289.974C331.657 289.785 331.573 289.576 331.531 289.386C331.508 289.243 331.47 289.103 331.415 288.968C330.408 285.485 328.447 282.317 325.73 279.786C322.596 276.849 318.452 275.08 314.056 274.802H349.205C349.583 274.802 349.972 274.802 350.361 274.802C355.126 274.822 359.694 276.611 363.086 279.786C365.805 282.316 367.77 285.484 368.781 288.968C368.836 289.103 368.874 289.243 368.897 289.386C369.144 290.45 369.309 291.53 369.391 292.616L369.632 295.996L372.638 337.506Z" fill="#142C52"/>
<path opacity="0.1" d="M372.638 337.506H335.272L332.802 303.333L332.266 295.996L332.025 292.616C331.957 291.73 331.834 290.847 331.657 289.974C331.657 289.785 331.573 289.576 331.531 289.386C331.508 289.243 331.47 289.103 331.415 288.968C330.408 285.485 328.447 282.317 325.73 279.786C322.596 276.849 318.452 275.08 314.056 274.802H349.205C349.583 274.802 349.972 274.802 350.361 274.802C355.126 274.822 359.694 276.611 363.086 279.786C365.805 282.316 367.77 285.484 368.781 288.968C368.836 289.103 368.874 289.243 368.897 289.386C369.144 290.45 369.309 291.53 369.391 292.616L369.632 295.996L372.638 337.506Z" fill="black"/>
<g opacity="0.1">
<path d="M402.249 319.263H417.254C420.911 319.263 423.863 321.456 423.863 324.157V332.571C423.863 335.283 420.911 337.466 417.254 337.466H402.249V319.263Z" fill="black"/>
</g>
<path d="M340.977 337.467H407.072C410.217 337.467 412.767 335.048 412.767 332.064V324.657C412.767 321.673 410.217 319.254 407.072 319.254H340.977C337.832 319.254 335.282 321.673 335.282 324.657V332.064C335.282 335.048 337.832 337.467 340.977 337.467Z" fill="#142C52"/>
<path d="M496.82 294.909C496.829 299.676 495.06 304.291 491.828 307.94C488.595 311.589 484.107 314.036 479.156 314.847L475.321 363.426C474.984 367.553 471.821 370.713 468.039 370.713H426.827C430.609 370.713 433.762 367.553 434.098 363.426L436.2 337.507L437.976 314.817C441.214 314.289 444.28 313.055 446.929 311.211C449.579 309.366 451.741 306.963 453.243 304.19C453.45 303.838 453.636 303.475 453.8 303.104C455.015 300.526 455.638 297.733 455.629 294.909C455.627 293.526 455.479 292.147 455.187 290.792C455.072 290.254 454.925 289.715 454.767 289.187C454.019 286.813 452.822 284.587 451.236 282.618C449.248 280.161 446.691 278.169 443.764 276.797C440.836 275.425 437.616 274.708 434.35 274.702H475.562C478.865 274.691 482.124 275.422 485.072 276.836C487.953 278.196 490.469 280.164 492.427 282.588C495.287 286.121 496.832 290.454 496.82 294.909Z" fill="#142C52"/>
<path opacity="0.1" d="M496.82 294.909C496.829 299.676 495.06 304.291 491.828 307.94C488.595 311.589 484.107 314.036 479.156 314.847L475.321 363.426C474.984 367.553 471.821 370.713 468.039 370.713H426.827C430.609 370.713 433.762 367.553 434.098 363.426L436.2 337.507L437.976 314.817C441.214 314.289 444.28 313.055 446.929 311.211C449.579 309.366 451.741 306.963 453.243 304.19C453.45 303.838 453.636 303.475 453.8 303.104C455.015 300.526 455.638 297.733 455.629 294.909C455.627 293.526 455.479 292.147 455.187 290.792C455.072 290.254 454.925 289.715 454.767 289.187C454.019 286.813 452.822 284.587 451.236 282.618C449.248 280.161 446.691 278.169 443.764 276.797C440.836 275.425 437.616 274.708 434.35 274.702H475.562C478.865 274.691 482.124 275.422 485.072 276.836C487.953 278.196 490.469 280.164 492.427 282.588C495.287 286.121 496.832 290.454 496.82 294.909Z" fill="black"/>
<path d="M455.639 294.919C455.639 304.888 448.715 313.192 439.625 314.857L436.116 363.426C435.811 367.553 432.963 370.723 429.517 370.723H319.457C316.032 370.723 313.153 367.553 312.858 363.426L309.338 314.767C300.427 312.993 293.692 304.799 293.692 294.949C293.671 290.814 294.908 286.761 297.254 283.276C299.029 280.618 301.474 278.422 304.368 276.886C307.002 275.48 309.973 274.742 312.995 274.742C317.762 274.769 322.33 276.557 325.73 279.727C328.446 282.253 330.408 285.418 331.415 288.898C331.47 289.04 331.508 289.187 331.531 289.337C331.779 290.397 331.944 291.473 332.025 292.557L332.277 295.936L335.272 337.507H413.702L416.949 292.646C417.412 286.306 420.669 281.023 425.188 278.52C428.043 276.353 431.531 275.069 435.181 274.842C435.565 274.805 435.95 274.788 436.336 274.792C439.271 274.777 442.161 275.462 444.743 276.786C444.823 276.82 444.9 276.86 444.974 276.905C447.639 278.309 449.926 280.278 451.657 282.658C454.265 286.267 455.654 290.543 455.639 294.919Z" fill="#142C52"/>
<path opacity="0.1" d="M411.885 370.693H319.415C315.99 370.693 313.111 367.523 312.816 363.396L309.296 314.737C300.385 312.963 293.65 304.768 293.65 294.919C293.629 290.784 294.866 286.73 297.212 283.245C298.987 280.588 301.432 278.392 304.326 276.855C306.96 275.45 309.931 274.712 312.953 274.712C317.72 274.739 322.288 276.527 325.688 279.696C328.404 282.223 330.366 285.388 331.373 288.868C331.428 289.01 331.466 289.157 331.489 289.306C331.737 290.367 331.902 291.443 331.983 292.526L332.235 295.906L335.272 337.506H413.702L411.885 370.693Z" fill="white"/>
<path d="M399.895 232.553C398.067 233.55 396.396 234.378 394.641 235.225C392.886 236.072 391.163 236.85 389.387 237.628C385.857 239.153 382.284 240.618 378.606 241.884C374.899 243.192 371.126 244.323 367.3 245.274C363.32 246.289 359.256 246.979 355.153 247.337L354.28 247.417H353.871C350.161 247.008 346.872 246.42 343.573 245.722C340.273 245.024 337.005 244.337 333.769 243.549C330.533 242.762 327.317 241.954 324.102 241.077C320.886 240.2 317.702 239.292 314.519 238.266L315.979 231.347C322.589 231.746 329.188 232.344 335.723 232.992L345.485 233.919C348.701 234.218 351.99 234.477 354.869 234.577H353.597C356.895 234.02 360.147 233.24 363.328 232.244C366.617 231.247 369.906 230.111 373.195 228.775C376.484 227.439 379.741 226.064 382.977 224.598C384.638 223.88 386.245 223.123 387.822 222.375C389.398 221.627 391.079 220.83 392.519 220.122L399.895 232.553Z" fill="#263238"/>
<path opacity="0.1" d="M399.895 232.553C398.067 233.55 396.396 234.378 394.641 235.225C392.886 236.072 391.163 236.85 389.387 237.628C385.857 239.153 382.284 240.618 378.606 241.884C374.899 243.192 371.126 244.323 367.3 245.274C363.32 246.289 359.256 246.979 355.153 247.337L354.28 247.417H353.871C350.161 247.008 346.872 246.42 343.573 245.722C340.273 245.024 337.005 244.337 333.769 243.549C330.533 242.762 327.317 241.954 324.102 241.077C320.886 240.2 317.702 239.292 314.519 238.266L315.979 231.347C322.589 231.746 329.188 232.344 335.723 232.992L345.485 233.919C348.701 234.218 351.99 234.477 354.869 234.577H353.597C356.895 234.02 360.147 233.24 363.328 232.244C366.617 231.247 369.906 230.111 373.195 228.775C376.484 227.439 379.741 226.064 382.977 224.598C384.638 223.88 386.245 223.123 387.822 222.375C389.398 221.627 391.079 220.83 392.519 220.122L399.895 232.553Z" fill="black"/>
<path d="M314.645 227.549C313.091 226.515 311.374 225.721 309.559 225.196L306.837 235.275L314.991 238.525L315.916 237.448C316.543 236.729 317.009 235.896 317.285 235.001C317.562 234.105 317.643 233.165 317.524 232.239C317.405 231.313 317.089 230.419 316.593 229.613C316.098 228.806 315.435 228.104 314.645 227.549Z" fill="#FFC3BD"/>
<path d="M306.837 235.275L309.559 225.197L301.951 221.259L299.66 228.357L306.837 235.275Z" fill="#FFC3BD"/>
<path opacity="0.2" d="M374.308 242.801H374.603H374.729C378.743 242.392 390.543 240.508 399.075 232.523C397.804 230.19 396.06 228.386 393.927 227.977C388.042 226.92 380.834 230.918 374.308 242.801Z" fill="black"/>
<path d="M381.233 294.909C391.299 269.119 384.68 245.403 385.94 232.274C386.25 229.038 387.663 225.985 389.965 223.578C392.266 221.172 395.332 219.542 398.697 218.936C405.569 217.679 414.07 216.264 422.172 215.227C424.435 214.931 426.74 215.102 428.928 215.73C431.115 216.358 433.133 217.428 434.844 218.865C436.555 220.303 437.918 222.074 438.839 224.058C439.761 226.042 440.219 228.192 440.182 230.36C439.478 269.239 426.343 294.909 426.343 294.909L405.117 294.819L381.233 294.909Z" fill="#142C52"/>
<path opacity="0.8" d="M381.233 294.909C391.299 269.119 384.68 245.403 385.94 232.274C386.25 229.038 387.663 225.985 389.965 223.578C392.266 221.172 395.332 219.542 398.697 218.936C405.569 217.679 414.07 216.264 422.172 215.227C424.435 214.931 426.74 215.102 428.928 215.73C431.115 216.358 433.133 217.428 434.844 218.865C436.555 220.303 437.918 222.074 438.839 224.058C439.761 226.042 440.219 228.192 440.182 230.36C439.478 269.239 426.343 294.909 426.343 294.909L405.117 294.819L381.233 294.909Z" fill="white"/>
<path d="M300.701 382.905L298.01 399.683H306.553L312.165 382.905H300.701Z" fill="#FFC3BD"/>
<path d="M296.918 395.944L308.34 395.685C308.429 395.675 308.52 395.683 308.605 395.709C308.691 395.734 308.77 395.776 308.837 395.833C308.905 395.889 308.959 395.958 308.996 396.036C309.034 396.113 309.053 396.198 309.054 396.283V404.258C309.003 404.7 308.784 405.108 308.438 405.408C308.091 405.707 307.642 405.876 307.173 405.883C303.201 405.883 301.31 405.743 296.287 405.883C290.94 405.867 285.598 405.534 280.294 404.886C276.228 404.228 277.331 400.609 279.17 400.55C287.471 400.26 292.116 398.616 295.1 396.562C295.62 396.176 296.257 395.959 296.918 395.944Z" fill="#263238"/>
<path opacity="0.2" d="M299.618 389.634L300.7 382.905H312.165L309.412 391.299L299.618 389.634Z" fill="black"/>
<path d="M375.979 288.868C375.979 288.868 306.469 289.526 305.387 310.411C303.853 340.437 298.504 386.175 298.504 386.175L311.608 389.594C311.608 389.594 330.312 344.206 331.037 320.749C350.592 317.06 400.851 320.749 406.757 308.567C409.643 302.366 410.421 295.467 408.984 288.828L375.979 288.868Z" fill="#142C52"/>
<path opacity="0.6" d="M375.979 288.868C375.979 288.868 306.469 289.526 305.387 310.411C303.853 340.437 298.504 386.175 298.504 386.175L311.608 389.594C311.608 389.594 330.312 344.206 331.037 320.749C350.592 317.06 400.851 320.749 406.757 308.567C409.643 302.366 410.421 295.467 408.984 288.828L375.979 288.868Z" fill="black"/>
<path d="M361.856 389.395L366.49 400.779H375.863L372.638 388.807L361.856 389.395Z" fill="#FFC3BD"/>
<path opacity="0.2" d="M373.51 392.036L371.692 383.273L359.849 384.669L362.886 392.285L373.51 392.036Z" fill="black"/>
<path d="M363.948 397.011H375.916C376.11 396.997 376.301 397.056 376.449 397.176C376.596 397.295 376.688 397.465 376.704 397.649L377.282 406.152C377.271 406.612 377.07 407.05 376.722 407.371C376.374 407.691 375.907 407.87 375.422 407.867C371.219 407.797 369.265 407.578 364 407.578C360.774 407.578 354.238 407.877 349.773 407.877C345.307 407.877 345.433 403.889 347.314 403.58C355.825 401.965 359.114 399.742 362.109 397.599C362.641 397.224 363.285 397.018 363.948 397.011Z" fill="#263238"/>
<path d="M394.673 288.868C394.673 288.868 331.625 292.926 333.18 313.791C334.872 336.639 360.123 389.624 360.123 389.624H372.827C372.827 389.624 364.42 341.554 360.553 318.267C378.333 318.267 419.534 320.809 425.461 308.597C428.335 302.393 429.106 295.496 427.667 288.858L394.673 288.868Z" fill="#142C52"/>
<path opacity="0.5" d="M394.673 288.868C394.673 288.868 331.625 292.926 333.18 313.791C334.872 336.639 360.123 389.624 360.123 389.624H372.827C372.827 389.624 364.42 341.554 360.553 318.267C378.333 318.267 419.534 320.809 425.461 308.597C428.335 302.393 429.106 295.496 427.667 288.858L394.673 288.868Z" fill="black"/>
<path d="M404.224 204.341C405.674 209.665 406.126 216.304 398.287 219.045C396.112 222.335 395.051 225.804 403.426 224.568C410.092 223.751 416.159 220.496 420.333 215.497C415.321 211.33 416.235 198.549 417.506 191.342L404.224 204.341Z" fill="#FFC3BD"/>
<path d="M403.3 214.031C396.102 215.198 390.186 220.481 387.012 226.712C383.839 232.942 383.072 240.04 383.135 246.969C383.198 253.897 384.028 260.796 383.829 267.714C383.608 275.689 381.58 281.342 378.68 288.858C378.68 290.643 381.527 291.649 383.934 292.118C388.956 281.72 392.256 271.771 391.909 260.347C391.646 252.053 391.531 242.602 392.96 234.428C394.389 226.253 404.697 215.576 404.203 214.101L403.3 214.031Z" fill="#263238"/>
<path opacity="0.3" d="M410.34 208.249C409.585 208.78 408.725 209.162 407.812 209.371C406.898 209.58 405.95 209.612 405.023 209.465C405.04 208.17 404.942 206.876 404.729 205.597L413.429 198.818C413.619 199.699 413.742 200.592 413.797 201.49C413.891 202.805 413.621 204.12 413.015 205.305C412.409 206.491 411.486 207.505 410.34 208.249Z" fill="black"/>
<path d="M397.331 172.859C388.137 177.794 388.042 191.74 390.879 199.775C391.595 201.883 392.908 203.765 394.674 205.213C396.441 206.661 398.593 207.621 400.895 207.987C403.198 208.354 405.562 208.112 407.73 207.29C409.898 206.468 411.786 205.096 413.187 203.324C417.685 197.931 417.033 192.488 416.813 183.117C416.592 173.746 406.536 167.934 397.331 172.859Z" fill="#FFC3BD"/>
<path opacity="0.2" d="M400.294 197.941C397.331 199.148 394.084 200.713 391.089 200.374C391.895 202.394 393.257 204.172 395.034 205.523C396.811 206.874 398.937 207.747 401.191 208.053C403.445 208.358 405.745 208.084 407.849 207.26C409.953 206.435 411.786 205.09 413.156 203.364C416.865 198.938 418.011 195.947 416.96 187.893C411.201 194.293 406.631 195.349 400.294 197.941Z" fill="black"/>
<path d="M409.184 176.01C408.229 177.481 407.804 179.207 407.973 180.928C408.142 182.648 408.895 184.27 410.119 185.55C410.949 186.377 411.969 187.015 412.767 187.863C414.013 189.192 414.661 190.931 414.575 192.708C414.761 191.564 415.362 190.518 416.272 189.749C417.183 188.98 418.347 188.535 419.566 188.491C418.319 192.153 417.072 195.808 415.825 199.457C418.293 198.364 420.426 196.692 422.023 194.599C423.619 192.505 424.625 190.06 424.946 187.494C425.744 180.416 416.54 165.253 409.184 176.01Z" fill="#263238"/>
<path d="M387.727 176.498C387.023 177.239 386.522 178.132 386.266 179.1C386.143 179.579 386.178 180.082 386.366 180.542C386.554 181.002 386.886 181.396 387.317 181.672C388.113 181.976 388.994 182.018 389.818 181.791L398.224 180.406C403.037 179.608 407.849 178.821 412.599 177.734C414.701 177.256 417.128 176.488 417.969 174.574C420.69 168.343 409.068 167.536 405.18 167.705C398.56 168.034 391.867 171.643 387.727 176.498Z" fill="#263238"/>
<path d="M418.305 186.895C415.552 187.483 414.375 191.242 414.448 193.654C414.448 196.396 416.55 198.18 418.988 196.525C420.798 195.248 422.03 193.367 422.434 191.262C422.928 188.68 421.068 186.307 418.305 186.895Z" fill="#FFC3BD"/>
<path d="M398.855 196.416C398.437 196.68 397.964 196.853 397.468 196.924C396.973 196.994 396.467 196.96 395.986 196.825C397.037 194.572 396.911 195.08 397.237 191.252L398.855 196.416Z" fill="#ED847E"/>
<path d="M403.699 183.984C402.911 183.147 400.757 182.828 399.59 182.987C399.472 183.002 399.353 182.973 399.257 182.906C399.161 182.839 399.096 182.74 399.075 182.629C399.06 182.509 399.092 182.388 399.166 182.29C399.24 182.192 399.35 182.124 399.475 182.1C400.946 181.891 403.394 182.31 404.392 183.356C404.479 183.44 404.528 183.553 404.528 183.67C404.528 183.788 404.479 183.9 404.392 183.984C404.334 184.042 404.262 184.086 404.182 184.114C404.097 184.139 404.006 184.14 403.92 184.117C403.835 184.094 403.758 184.048 403.699 183.984Z" fill="#263238"/>
<path d="M390.102 185.849C390.003 185.784 389.935 185.686 389.911 185.574C389.888 185.463 389.911 185.347 389.976 185.251C390.344 184.622 390.861 184.083 391.486 183.676C392.112 183.27 392.829 183.007 393.58 182.908C393.637 182.907 393.694 182.917 393.748 182.937C393.801 182.956 393.85 182.986 393.891 183.024C393.932 183.063 393.965 183.108 393.987 183.158C394.01 183.209 394.021 183.263 394.021 183.317C394.027 183.438 393.983 183.557 393.899 183.648C393.815 183.739 393.697 183.795 393.569 183.806C392.977 183.895 392.414 184.112 391.922 184.438C391.431 184.764 391.024 185.192 390.732 185.69C390.694 185.755 390.64 185.81 390.573 185.85C390.507 185.89 390.432 185.913 390.354 185.919C390.264 185.926 390.174 185.901 390.102 185.849Z" fill="#263238"/>
<path d="M398.046 200.473C399.056 201.694 399.986 202.972 400.83 204.302L401.482 204.042C404.445 202.826 405.286 201.131 405.328 199.626C405.292 198.429 404.902 197.265 404.203 196.267C403.152 197.991 400.494 199.367 399.044 200.035C398.424 200.324 398.046 200.473 398.046 200.473Z" fill="#2E353A"/>
<path d="M399.023 200.035L399.454 200.593C399.572 200.743 399.74 200.851 399.93 200.9C400.121 200.948 400.323 200.935 400.505 200.862C402.69 199.865 404.14 198.868 404.708 197.742C404.76 197.636 404.786 197.52 404.786 197.403C404.786 197.286 404.76 197.17 404.708 197.064C404.567 196.787 404.406 196.521 404.224 196.267C403.121 197.991 400.473 199.367 399.023 200.035Z" fill="white"/>
<path d="M401.461 204.042C404.424 202.826 405.265 201.131 405.307 199.626C404.181 200.119 403.181 200.836 402.375 201.729C401.82 202.389 401.5 203.199 401.461 204.042Z" fill="#DE5753"/>
<path d="M393.475 188.969C392.96 189.058 392.676 189.756 392.823 190.504C392.97 191.252 393.527 191.79 394.042 191.69C394.557 191.591 394.841 190.913 394.694 190.165C394.546 189.417 393.99 188.969 393.475 188.969Z" fill="#263238"/>
<path d="M402.491 187.593C401.976 187.683 401.692 188.371 401.839 189.128C401.986 189.886 402.543 190.414 403.058 190.314C403.573 190.215 403.857 189.527 403.709 188.779C403.562 188.032 403.005 187.503 402.491 187.593Z" fill="#263238"/>
<path opacity="0.9" d="M389.503 193.016L396.133 191.601L396.249 194.272L390.081 195.668L389.503 193.016Z" fill="white"/>
<g opacity="0.8">
<path opacity="0.9" d="M398.151 191.182L398.939 193.634L407.45 191.9L406.946 189.068L398.151 191.182Z" fill="white"/>
</g>
<path d="M396.175 192.588L396.133 191.601L398.151 191.183L398.445 192.11L396.175 192.588Z" fill="#263238"/>
<path d="M393.758 293.762C393.758 293.762 405.727 298.159 408.469 299.016C411.622 300.187 414.94 300.909 418.315 301.159C420.027 301.268 421.743 301.031 423.35 300.462C424.957 299.893 426.418 299.006 427.636 297.86C430.494 294.969 431.387 290.582 432.133 286.465C434.319 274.376 436.511 262.287 438.711 250.198C439.762 244.217 442.525 235.245 442.294 231.865C441.863 225.585 437.65 218.168 426.921 214.091C422.718 212.506 418.63 213.094 415.121 217.081C413.019 219.454 406.904 225.176 405.401 235.255C404.203 243.33 402.333 253.787 402.448 261.991C402.585 272.778 398.046 286.375 393.758 293.762Z" fill="#263238"/>
<path d="M441.706 228.545C442.925 239.053 436.799 265.54 435.622 267.135C430.599 282.497 416.802 274.213 414.806 273.505C411.328 272.289 407.786 269.907 404.477 268.322C398.056 265.331 391.972 262.859 386.004 259.1L389.366 252.8C395.913 254.913 414.438 259.459 417.496 260.167C418.82 260.496 423.979 263.058 423.927 259.678C424.652 258.552 425.66 236.61 427.878 228.854C428.13 227.984 428.57 227.173 429.17 226.472L429.37 226.233C430.179 225.27 431.251 224.537 432.47 224.114C433.688 223.691 435.006 223.593 436.279 223.832C437.552 224.07 438.731 224.636 439.688 225.467C440.645 226.299 441.343 227.363 441.706 228.545Z" fill="#263238"/>
<path opacity="0.1" d="M441.706 228.545C442.925 239.053 436.799 265.54 435.622 267.135C430.599 282.497 416.802 274.213 414.806 273.505C411.328 272.289 407.786 269.907 404.477 268.322C398.056 265.331 391.972 262.859 386.004 259.1L389.366 252.8C395.913 254.913 414.438 259.459 417.496 260.167C418.82 260.496 423.979 263.058 423.927 259.678C424.652 258.552 425.66 236.61 427.878 228.854C428.13 227.984 428.57 227.173 429.17 226.472L429.37 226.233C430.179 225.27 431.251 224.537 432.47 224.114C433.688 223.691 435.006 223.593 436.279 223.832C437.552 224.07 438.731 224.636 439.688 225.467C440.645 226.299 441.343 227.363 441.706 228.545Z" fill="white"/>
<path d="M386.739 268.222H355.636L352.084 229.722H383.188L386.739 268.222Z" fill="#263238"/>
<path opacity="0.5" d="M386.739 268.222H355.636L352.084 229.722H383.188L386.739 268.222Z" fill="white"/>
<path d="M385.636 268.032H354.532L350.981 229.532H382.084L385.636 268.032Z" fill="#142C52"/>
<path opacity="0.8" d="M385.636 268.032H354.532L350.981 229.532H382.084L385.636 268.032Z" fill="white"/>
<path d="M373.3 231.935H360.217L359.776 227.12H372.848L373.3 231.935Z" fill="#142C52"/>
<path d="M359.776 227.12L361.058 226.701H374.603L374.792 228.745L373.783 229.851L373.72 231.526L373.3 231.935L372.848 227.12H359.776Z" fill="#142C52"/>
<path opacity="0.5" d="M359.776 227.12L361.058 226.701H374.603L374.792 228.745L373.783 229.851L373.72 231.526L373.3 231.935L372.848 227.12H359.776Z" fill="black"/>
<path d="M391.846 254.884L392.55 258.483C390.869 262.64 381.233 261.543 381.233 261.543V250.906L389.734 252.78C390.261 252.903 390.74 253.166 391.115 253.539C391.489 253.911 391.743 254.378 391.846 254.884Z" fill="#FFC3BD"/>
<path d="M381.212 250.906L381.254 261.563L372.722 261.762L370.767 252.392L381.212 250.906Z" fill="#FFC3BD"/>
<path d="M413.702 337.506L416.949 292.646C417.412 286.306 420.669 281.022 425.187 278.52C428.043 276.352 431.531 275.068 435.18 274.841C435.565 274.805 435.95 274.788 436.336 274.791C439.27 274.776 442.161 275.462 444.743 276.785C444.823 276.819 444.9 276.859 444.974 276.905C447.639 278.309 449.926 280.277 451.657 282.657C454.277 286.276 455.67 290.568 455.65 294.959C455.65 304.928 448.725 313.232 439.636 314.897L436.116 363.425C435.811 367.552 432.963 370.723 429.517 370.723H411.885L413.702 337.506Z" fill="#142C52"/>
<path opacity="0.1" d="M413.702 337.506L416.949 292.646C417.412 286.306 420.669 281.022 425.187 278.52C428.043 276.352 431.531 275.068 435.18 274.841C435.565 274.805 435.95 274.788 436.336 274.791C439.27 274.776 442.161 275.462 444.743 276.785C444.823 276.819 444.9 276.859 444.974 276.905C447.639 278.309 449.926 280.277 451.657 282.657C454.277 286.276 455.67 290.568 455.65 294.959C455.65 304.928 448.725 313.232 439.636 314.897L436.116 363.425C435.811 367.552 432.963 370.723 429.517 370.723H411.885L413.702 337.506Z" fill="white"/>
<path d="M253.352 128.757V170.437C253.352 171.495 252.909 172.509 252.121 173.257C251.333 174.005 250.264 174.425 249.149 174.425H204.154L188.077 186.218C187.621 186.545 187.078 186.744 186.509 186.794C185.939 186.844 185.367 186.741 184.856 186.499C184.344 186.256 183.915 185.883 183.615 185.421C183.315 184.96 183.158 184.428 183.16 183.885V174.425H180.648C179.533 174.425 178.464 174.005 177.676 173.257C176.888 172.509 176.445 171.495 176.445 170.437V128.747C176.448 128.228 176.559 127.714 176.772 127.236C176.985 126.758 177.296 126.325 177.687 125.961C178.078 125.598 178.541 125.312 179.049 125.119C179.558 124.927 180.101 124.831 180.648 124.839H249.223C250.318 124.839 251.368 125.252 252.143 125.987C252.917 126.722 253.352 127.718 253.352 128.757Z" stroke="#142C52" stroke-miterlimit="10"/>
<path d="M211.216 118.968H202.631V119.965H211.216V118.968Z" fill="#142C52"/>
<path d="M171.075 130.71H170.025V125.796C170.027 123.981 170.789 122.242 172.143 120.959C173.496 119.677 175.331 118.957 177.244 118.957H196.399V119.954H177.223C175.589 119.957 174.024 120.573 172.868 121.667C171.712 122.762 171.06 124.246 171.054 125.796L171.075 130.71Z" fill="#142C52"/>
<path d="M231.779 155.374C231.323 155.376 230.87 155.289 230.451 155.118C230.032 154.947 229.654 154.695 229.342 154.378C229.03 154.062 228.791 153.687 228.639 153.279C228.487 152.87 228.426 152.436 228.459 152.004C229.583 139.852 239.734 138.736 241.005 124.919C241.373 120.931 239.839 119.436 236.907 119.436C233.976 119.436 232.168 120.941 231.8 124.919L231.59 127.192C231.496 128.219 230.998 129.174 230.197 129.87C229.395 130.566 228.348 130.951 227.261 130.95C226.66 130.949 226.065 130.83 225.515 130.6C224.964 130.37 224.47 130.034 224.064 129.613C223.658 129.192 223.349 128.696 223.156 128.155C222.963 127.615 222.89 127.042 222.942 126.474L223.037 125.477C223.856 116.585 228.932 111.521 237.895 111.521C246.858 111.521 250.988 116.605 250.168 125.477C248.834 139.882 237.748 142.115 236.802 152.274C236.807 152.323 236.807 152.373 236.802 152.423C236.754 153.229 236.384 153.987 235.767 154.543C235.15 155.098 234.332 155.41 233.482 155.414L231.779 155.374ZM236.329 163.828C236.235 164.873 235.729 165.846 234.914 166.555C234.099 167.264 233.033 167.657 231.927 167.656C231.314 167.656 230.707 167.536 230.146 167.303C229.585 167.069 229.081 166.727 228.667 166.298C228.253 165.87 227.937 165.364 227.74 164.813C227.544 164.263 227.47 163.679 227.524 163.1C227.619 162.053 228.125 161.078 228.943 160.369C229.76 159.659 230.829 159.268 231.937 159.272C232.549 159.274 233.153 159.396 233.712 159.631C234.271 159.866 234.773 160.208 235.186 160.636C235.599 161.064 235.913 161.569 236.11 162.118C236.307 162.667 236.382 163.249 236.329 163.828Z" fill="#142C52"/>
<path d="M219.937 145.615H195.769C195.212 145.615 194.677 145.404 194.283 145.031C193.889 144.657 193.667 144.15 193.667 143.621C193.667 143.092 193.889 142.585 194.283 142.211C194.677 141.837 195.212 141.627 195.769 141.627H219.937C220.495 141.627 221.029 141.837 221.423 142.211C221.817 142.585 222.039 143.092 222.039 143.621C222.039 144.15 221.817 144.657 221.423 145.031C221.029 145.404 220.495 145.615 219.937 145.615Z" fill="#142C52"/>
<path d="M216.596 153.51H195.811C195.254 153.51 194.719 153.3 194.325 152.926C193.931 152.552 193.709 152.045 193.709 151.516C193.709 150.987 193.931 150.48 194.325 150.106C194.719 149.733 195.254 149.522 195.811 149.522H216.596C217.153 149.522 217.688 149.733 218.082 150.106C218.476 150.48 218.697 150.987 218.697 151.516C218.697 152.045 218.476 152.552 218.082 152.926C217.688 153.3 217.153 153.51 216.596 153.51Z" fill="#142C52"/>
<path d="M213.254 161.395H195.811C195.254 161.395 194.719 161.185 194.325 160.811C193.931 160.437 193.709 159.93 193.709 159.401C193.709 158.872 193.931 158.365 194.325 157.991C194.719 157.617 195.254 157.407 195.811 157.407H213.254C213.812 157.407 214.346 157.617 214.74 157.991C215.134 158.365 215.356 158.872 215.356 159.401C215.356 159.93 215.134 160.437 214.74 160.811C214.346 161.185 213.812 161.395 213.254 161.395Z" fill="#142C52"/>
<path d="M163.804 324.059H148.452C144.711 324.059 141.685 326.302 141.685 329.043V337.656C141.685 340.428 144.711 342.641 148.452 342.641H163.804V324.059Z" fill="#142C52"/>
<path d="M92.4554 364.622L87.1174 284.013C86.648 276.925 87.7143 269.821 90.2506 263.14C92.7869 256.458 96.7394 250.34 101.864 245.163C106.989 239.986 113.178 235.86 120.048 233.04C126.918 230.22 134.325 228.765 141.811 228.766C155.813 228.765 169.284 233.848 179.461 242.972C189.637 252.097 195.747 264.57 196.536 277.833L202.126 371.979H100.673C98.5747 371.971 96.5588 371.206 95.0331 369.84C93.5074 368.474 92.586 366.609 92.4554 364.622Z" fill="#142C52"/>
<path opacity="0.1" d="M92.2662 361.701L87.1174 284.013C86.648 276.925 87.7143 269.821 90.2506 263.14C92.7869 256.458 96.7394 250.34 101.864 245.163C106.989 239.986 113.178 235.86 120.048 233.04C126.918 230.22 134.325 228.765 141.811 228.766C155.813 228.765 169.284 233.848 179.461 242.972C189.637 252.097 195.747 264.57 196.536 277.833L202.126 371.979H103.825C100.881 371.985 98.0457 370.924 95.8977 369.014C93.7497 367.104 92.4509 364.489 92.2662 361.701Z" fill="black"/>
<path d="M108.911 371.979L103.089 284.013C102.62 276.925 103.686 269.82 106.223 263.137C108.76 256.455 112.714 250.336 117.84 245.159C122.966 239.982 129.155 235.857 136.027 233.037C142.899 230.218 150.307 228.764 157.793 228.766C171.794 228.767 185.262 233.852 195.436 242.976C205.611 252.1 211.719 264.572 212.508 277.833L218.109 371.979H108.911Z" fill="#142C52"/>
<path d="M107.167 387.121H105.769C105.391 387.098 105.033 386.95 104.759 386.702C104.484 386.454 104.31 386.123 104.266 385.766L102.165 371.979H110.687L108.585 385.766C108.549 386.112 108.388 386.435 108.129 386.682C107.871 386.929 107.531 387.084 107.167 387.121Z" fill="#142C52"/>
<path opacity="0.7" d="M107.167 387.121H105.769C105.391 387.098 105.033 386.95 104.759 386.702C104.484 386.454 104.31 386.123 104.266 385.766L102.165 371.979H110.687L108.585 385.766C108.549 386.112 108.388 386.435 108.129 386.682C107.871 386.929 107.531 387.084 107.167 387.121Z" fill="white"/>
<path d="M244.452 387.121H243.181C242.822 387.084 242.489 386.927 242.241 386.679C241.993 386.431 241.845 386.107 241.825 385.766L239.955 371.979H247.678L245.807 385.766C245.787 386.107 245.64 386.431 245.392 386.679C245.143 386.927 244.81 387.084 244.452 387.121Z" fill="#142C52"/>
<path opacity="0.5" d="M244.452 387.121H243.181C242.822 387.084 242.489 386.927 242.241 386.679C241.993 386.431 241.845 386.107 241.825 385.766L239.955 371.979H247.678L245.807 385.766C245.787 386.107 245.64 386.431 245.392 386.679C245.143 386.927 244.81 387.084 244.452 387.121Z" fill="white"/>
<path d="M204.932 387.121H203.65C203.291 387.084 202.958 386.927 202.71 386.679C202.462 386.431 202.314 386.107 202.294 385.766L200.413 371.979H208.147L206.277 385.766C206.255 386.105 206.108 386.427 205.863 386.674C205.617 386.922 205.288 387.08 204.932 387.121Z" fill="#142C52"/>
<path opacity="0.7" d="M204.932 387.121H203.65C203.291 387.084 202.958 386.927 202.71 386.679C202.462 386.431 202.314 386.107 202.294 385.766L200.413 371.979H208.147L206.277 385.766C206.255 386.105 206.108 386.427 205.863 386.674C205.617 386.922 205.288 387.08 204.932 387.121Z" fill="white"/>
<path d="M149.723 387.121H148.326C147.947 387.1 147.588 386.952 147.313 386.704C147.038 386.456 146.865 386.123 146.823 385.766L144.722 371.979H153.244L151.142 385.766C151.105 386.112 150.945 386.435 150.686 386.682C150.428 386.929 150.088 387.084 149.723 387.121Z" fill="#142C52"/>
<path opacity="0.5" d="M149.723 387.121H148.326C147.947 387.1 147.588 386.952 147.313 386.704C147.038 386.456 146.865 386.123 146.823 385.766L144.722 371.979H153.244L151.142 385.766C151.105 386.112 150.945 386.435 150.686 386.682C150.428 386.929 150.088 387.084 149.723 387.121Z" fill="white"/>
<path d="M195.99 338.753H233.356L235.825 304.609L236.35 297.272L236.602 293.892C236.667 293.006 236.786 292.124 236.96 291.251C236.96 291.061 237.054 290.862 237.096 290.672C237.119 290.526 237.157 290.382 237.212 290.244C238.219 286.764 240.181 283.599 242.897 281.072C246.028 278.136 250.168 276.367 254.56 276.088H219.412C219.023 276.088 218.644 276.088 218.256 276.088C213.488 276.11 208.918 277.899 205.52 281.072C202.804 283.599 200.843 286.764 199.835 290.244C199.781 290.382 199.742 290.526 199.72 290.672C199.473 291.733 199.308 292.809 199.226 293.892L198.984 297.272L195.99 338.753Z" fill="#142C52"/>
<path opacity="0.1" d="M195.99 338.753H233.356L235.825 304.609L236.35 297.272L236.602 293.892C236.667 293.006 236.786 292.124 236.96 291.251C236.96 291.061 237.054 290.862 237.096 290.672C237.119 290.526 237.157 290.382 237.212 290.244C238.219 286.764 240.181 283.599 242.897 281.072C246.028 278.136 250.168 276.367 254.56 276.088H219.412C219.023 276.088 218.644 276.088 218.256 276.088C213.488 276.11 208.918 277.899 205.52 281.072C202.804 283.599 200.843 286.764 199.835 290.244C199.781 290.382 199.742 290.526 199.72 290.672C199.473 291.733 199.308 292.809 199.226 293.892L198.984 297.272L195.99 338.753Z" fill="black"/>
<g opacity="0.1">
<path d="M166.378 320.56H151.363C147.716 320.56 144.764 322.753 144.764 325.454V333.878C144.764 336.58 147.716 338.773 151.363 338.773H166.378V320.56Z" fill="black"/>
</g>
<path d="M227.65 320.549H161.555C158.41 320.549 155.86 322.968 155.86 325.952V333.359C155.86 336.343 158.41 338.762 161.555 338.762H227.65C230.795 338.762 233.345 336.343 233.345 333.359V325.952C233.345 322.968 230.795 320.549 227.65 320.549Z" fill="#142C52"/>
<path d="M71.7759 296.205C71.767 300.971 73.5352 305.587 76.7678 309.236C80.0004 312.884 84.489 315.331 89.4397 316.143L93.3171 364.681C93.6533 368.808 96.8057 371.979 100.589 371.979H141.811C138.028 371.979 134.876 368.808 134.539 364.681L132.438 338.762L130.631 316.123C127.396 315.586 124.337 314.346 121.692 312.501C119.047 310.656 116.888 308.255 115.384 305.486C115.184 305.127 115.005 304.758 114.837 304.389C113.618 301.816 112.991 299.026 112.998 296.205C112.999 294.818 113.15 293.435 113.45 292.078C113.566 291.539 113.713 291.001 113.86 290.482C114.614 288.105 115.814 285.876 117.401 283.903C119.365 281.485 121.879 279.518 124.757 278.151C127.691 276.751 130.929 276.021 134.214 276.018H93.0649C90.9271 276.016 88.8014 276.322 86.7601 276.925C82.5563 278.155 78.8588 280.593 76.1787 283.903C73.3196 287.43 71.7715 291.755 71.7759 296.205Z" fill="#142C52"/>
<path opacity="0.1" d="M71.7759 296.205C71.767 300.971 73.5352 305.587 76.7678 309.236C80.0004 312.884 84.489 315.331 89.4397 316.143L93.3171 364.681C93.6533 368.808 96.8057 371.979 100.589 371.979H141.811C138.028 371.979 134.876 368.808 134.539 364.681L132.438 338.762L130.631 316.123C127.396 315.586 124.337 314.346 121.692 312.501C119.047 310.656 116.888 308.255 115.384 305.486C115.184 305.127 115.005 304.758 114.837 304.389C113.618 301.816 112.991 299.026 112.998 296.205C112.999 294.818 113.15 293.435 113.45 292.078C113.566 291.539 113.713 291.001 113.86 290.482C114.614 288.105 115.814 285.876 117.401 283.903C119.365 281.485 121.879 279.518 124.757 278.151C127.691 276.751 130.929 276.021 134.214 276.018H93.0649C90.9271 276.016 88.8014 276.322 86.7601 276.925C82.5563 278.155 78.8588 280.593 76.1787 283.903C73.3196 287.43 71.7715 291.755 71.7759 296.205Z" fill="black"/>
<path d="M112.988 296.205C112.988 306.174 119.913 314.488 129.002 316.143L132.512 364.722C132.816 368.859 135.664 372.019 139.11 372.019H249.17C252.596 372.019 255.475 368.859 255.769 364.722L259.289 316.073C268.189 314.299 274.925 306.104 274.925 296.245C274.949 292.111 273.716 288.057 271.373 284.571C269.593 281.914 267.145 279.718 264.249 278.181C261.615 276.785 258.649 276.051 255.632 276.048C250.864 276.068 246.293 277.857 242.897 281.032C240.179 283.559 238.214 286.724 237.202 290.204C237.155 290.344 237.12 290.487 237.096 290.632C236.845 291.692 236.679 292.769 236.603 293.852L236.35 297.232L233.356 338.742H154.925L151.678 293.882C151.205 287.542 147.958 282.259 143.44 279.756C140.579 277.596 137.094 276.313 133.447 276.078C133.058 276.078 132.68 276.078 132.291 276.078C129.357 276.062 126.466 276.748 123.885 278.072C123.8 278.1 123.719 278.137 123.643 278.181C120.985 279.593 118.699 281.56 116.96 283.933C114.349 287.544 112.963 291.826 112.988 296.205Z" fill="#142C52"/>
<path opacity="0.1" d="M156.732 371.979H249.202C252.627 371.979 255.506 368.819 255.8 364.682L259.321 316.033C268.221 314.259 274.956 306.064 274.956 296.205C274.981 292.071 273.747 288.017 271.405 284.531C269.625 281.874 267.176 279.678 264.28 278.141C261.647 276.745 258.681 276.01 255.664 276.008C250.896 276.028 246.325 277.817 242.928 280.992C240.21 283.519 238.246 286.684 237.233 290.164C237.187 290.304 237.152 290.447 237.128 290.592C236.876 291.652 236.711 292.729 236.634 293.812L236.382 297.192L233.387 338.702H154.925L156.732 371.979Z" fill="white"/>
<path d="M184.872 389.135L193.836 391.488L201.885 371.5L192.921 369.147L184.872 389.135Z" fill="#FFC3BD"/>
<path d="M197.849 388.837C197.142 387.967 196.12 387.378 194.981 387.182L185.786 385.477C185.572 385.418 185.341 385.442 185.145 385.542C184.948 385.643 184.801 385.813 184.736 386.016L181.888 393.991C181.807 394.207 181.771 394.437 181.783 394.667C181.796 394.897 181.856 395.122 181.961 395.329C182.065 395.537 182.212 395.723 182.392 395.876C182.573 396.03 182.784 396.148 183.012 396.224H183.075C186.48 397.5 188.781 397.061 194.098 398.038C197.387 398.636 204.27 400.71 208.872 400.53C213.475 400.351 213.464 396.034 211.531 395.715C204.701 394.719 199.447 390.811 197.849 388.837Z" fill="#263238"/>
<g opacity="0.2">
<path d="M201.885 371.51L197.734 381.818L188.771 379.445L192.911 369.147L201.885 371.51Z" fill="black"/>
</g>
<path d="M171.969 295.637C171.969 295.637 225.937 295.358 224.256 312.504C223.121 324.088 217.258 336.26 212.697 348.014C206.067 365.051 200.319 379.914 200.319 379.914L188.025 375.877C188.025 375.877 199.068 326.61 206.508 321.566H160.872C145.772 321.566 139.247 305.835 153.948 287.492C162.932 287.522 171.969 295.637 171.969 295.637Z" fill="#142C52"/>
<path opacity="0.6" d="M171.969 295.637C171.969 295.637 225.937 295.358 224.256 312.505C225.086 323.161 200.308 379.895 200.308 379.895L188.014 375.857C188.014 375.857 199.058 326.591 206.497 321.546H160.872C145.772 321.546 139.247 305.816 153.948 287.473C162.932 287.523 171.969 295.637 171.969 295.637Z" fill="black"/>
<path d="M210.028 264.503C203.387 270.255 190.347 256.638 188.245 255.023C183.748 251.534 170.529 239.83 171.223 235.763C173.324 223.8 194.004 240.747 199.983 252.431L210.028 264.503Z" fill="#263238"/>
<path d="M151.909 228.506C148.578 229.174 144.974 228.038 142.631 230.38C140.287 232.723 139.31 236.013 138.974 239.223C138.678 243.707 138.925 248.21 139.709 252.641C140.41 258.044 141.142 263.444 141.906 268.84C142.379 273.285 142.199 277.771 141.37 282.169C141.282 282.636 141.361 283.118 141.593 283.538C141.825 283.958 142.197 284.294 142.652 284.492C142.652 284.492 168.491 285.329 176.004 285.06C179.997 284.92 177.254 274.951 178.484 269.11C178.757 267.814 181.426 262.49 181.825 261.134C183.674 254.704 182.445 250.278 180.774 243.818C179.524 239.123 179.009 232.354 176.487 231.856C171.948 230.968 161.177 226.632 151.909 228.506Z" fill="#142C52"/>
<path opacity="0.8" d="M151.909 228.506C148.578 229.174 144.974 228.038 142.631 230.38C140.287 232.723 139.31 236.013 138.974 239.223C138.678 243.707 138.925 248.21 139.709 252.641C140.41 258.044 141.142 263.444 141.906 268.84C142.379 273.285 142.199 277.771 141.37 282.169C141.282 282.636 141.361 283.118 141.593 283.538C141.825 283.958 142.197 284.294 142.652 284.492C142.652 284.492 168.491 285.329 176.004 285.06C179.997 284.92 177.254 274.951 178.484 269.11C178.757 267.814 181.426 262.49 181.825 261.134C183.674 254.704 182.445 250.278 180.774 243.818C179.524 239.123 179.009 232.354 176.487 231.856C171.948 230.968 161.177 226.632 151.909 228.506Z" fill="white"/>
<path d="M148.221 233.112C147.874 232.614 138.764 225.356 137.135 233.74C134.834 245.414 139.594 256.898 139.594 256.898C139.594 256.898 140.645 269.529 144.554 270.795C148.462 272.061 152.098 272.37 153.401 270.206C154.244 268.52 154.688 266.68 154.704 264.813C154.704 264.813 154.263 241.805 148.221 233.112Z" fill="#263238"/>
<path d="M154.515 212.486C155.45 217.86 156.238 227.679 152.193 231.138C152.193 231.138 162.081 236.053 168.574 244.626C170.016 243.605 171.083 242.179 171.622 240.551C172.162 238.923 172.147 237.174 171.58 235.554C171.254 234.532 170.714 233.583 169.992 232.764C169.269 231.945 168.38 231.274 167.377 230.789C163.541 228.796 163.909 225.027 164.96 221.498L154.515 212.486Z" fill="#E8BFBF"/>
<path opacity="0.2" d="M155.807 221.607L159.496 222.953C161.075 223.532 162.764 223.79 164.455 223.711C164.192 224.807 164.192 225.945 164.455 227.04C163.133 227.384 161.734 227.355 160.429 226.959C159.123 226.562 157.967 225.815 157.1 224.807C156.504 223.808 156.068 222.729 155.807 221.607Z" fill="black"/>
<path d="M247.363 371.949H257.408L246.89 348.054L240.081 359.02L247.363 371.949Z" fill="#FFC3BD"/>
<path d="M256.578 369.686L244.799 367.144C244.597 367.096 244.383 367.121 244.2 367.215C244.018 367.31 243.879 367.466 243.811 367.652L240.522 376.246C240.456 376.462 240.436 376.689 240.463 376.913C240.49 377.137 240.563 377.354 240.678 377.551C240.793 377.748 240.948 377.922 241.134 378.063C241.32 378.203 241.533 378.307 241.762 378.369C245.892 379.186 247.92 379.366 253.1 380.492C256.252 381.18 264.364 383.194 268.767 384.141C273.17 385.088 274.326 381.001 272.571 380.223C264.711 376.774 260.456 373.474 258.175 370.663C257.777 370.173 257.213 369.828 256.578 369.686Z" fill="#263238"/>
<g opacity="0.2">
<path d="M246.89 348.054L251.366 358.232L242.329 363.017L240.081 359.03L246.89 348.054Z" fill="black"/>
</g>
<path d="M141.17 284.601L140.119 287.851C139.983 288.1 140.287 288.36 140.729 288.379L179.608 289.496C179.965 289.496 180.249 289.356 180.28 289.147L180.732 285.877C180.732 285.658 180.459 285.459 180.091 285.439L141.842 284.342C141.716 284.323 141.587 284.337 141.468 284.383C141.35 284.429 141.247 284.504 141.17 284.601Z" fill="#263238"/>
<path d="M189.8 311.269C177.012 316.442 163.142 321.606 155.597 321.606C140.487 321.606 127.068 311.259 141.37 287.712C150.364 287.712 165.99 287.951 165.99 287.951C165.99 287.951 195.412 279.976 216.827 282.329C221.901 282.891 226.658 284.964 230.413 288.25C234.168 291.537 236.728 295.868 237.727 300.622C243.149 326.541 251.503 354.574 251.503 354.574L240.753 361.552C240.753 361.552 223.993 328.126 214.347 301.619C209.24 303.144 199.856 307.201 189.8 311.269Z" fill="#142C52"/>
<path opacity="0.5" d="M237.727 300.621C236.732 295.864 234.174 291.529 230.418 288.238C226.663 284.947 221.904 282.871 216.827 282.308C195.454 279.995 165.99 287.931 165.99 287.931C165.99 287.931 150.364 287.662 141.37 287.692C126.837 311.138 140.487 321.586 155.597 321.586C163.142 321.586 177.012 316.422 189.801 311.248C199.857 307.181 209.24 303.123 214.347 301.568C223.993 328.106 240.753 361.541 240.753 361.541L251.503 354.563C251.503 354.563 243.149 326.54 237.727 300.621Z" fill="black"/>
<path d="M224.256 312.584C223.914 315.914 223.388 319.225 222.68 322.503C222.627 322.393 222.585 322.294 222.543 322.184C222.501 322.074 222.543 322.134 222.543 322.104C222.508 321.994 222.463 321.887 222.406 321.785C219.548 315.046 216.753 308.138 214.389 301.628H214.462C220.578 304.09 224.75 307.599 224.256 312.584Z" fill="#142C52"/>
<path opacity="0.6" d="M224.256 312.584C223.914 315.914 223.388 319.225 222.68 322.503C222.627 322.393 222.585 322.294 222.543 322.184C222.501 322.074 222.543 322.134 222.543 322.104C222.508 321.994 222.463 321.887 222.406 321.785C219.548 315.046 216.753 308.138 214.389 301.628H214.462C220.578 304.09 224.75 307.599 224.256 312.584Z" fill="black"/>
<path d="M147.622 207.322C150.774 215.745 151.93 219.374 157.836 222.534C166.736 227.299 176.928 221.757 176.487 212.565C176.088 204.341 170.991 191.94 161.114 190.943C158.935 190.71 156.729 191.01 154.707 191.815C152.685 192.62 150.913 193.902 149.561 195.539C148.209 197.177 147.32 199.116 146.981 201.171C146.642 203.227 146.862 205.33 147.622 207.282V207.322Z" fill="#E8BFBF"/>
<path d="M163.583 206.225C163.804 206.953 164.361 207.381 164.844 207.222C165.328 207.062 165.517 206.424 165.328 205.717C165.139 205.009 164.561 204.56 164.067 204.72C163.573 204.879 163.373 205.527 163.583 206.225Z" fill="#263238"/>
<path d="M171.832 203.753C172.053 204.491 172.609 204.92 173.093 204.75C173.576 204.581 173.765 203.953 173.576 203.245C173.387 202.537 172.799 202.089 172.326 202.248C171.853 202.408 171.622 203.065 171.832 203.753Z" fill="#263238"/>
<path d="M172.126 202.357L173.744 201.36C173.744 201.36 173.23 202.925 172.126 202.357Z" fill="#263238"/>
<path d="M168.879 205.348C170.016 206.764 171.353 208.025 172.851 209.096C172.55 209.449 172.171 209.735 171.741 209.933C171.31 210.131 170.839 210.237 170.361 210.242L168.879 205.348Z" fill="#ED847E"/>
<path d="M141.821 212.895C142.467 214.411 142.956 215.984 143.282 217.59C143.372 219.205 142.824 220.794 141.746 222.048C140.668 223.301 139.136 224.128 137.45 224.369C138.919 224.74 140.477 224.618 141.862 224.024C143.246 223.43 144.372 222.4 145.047 221.109C144.244 223.138 142.654 224.8 140.603 225.755C142.069 225.77 143.519 225.464 144.841 224.86C146.162 224.257 147.319 223.372 148.221 222.275C147.727 223.492 147.17 224.698 146.729 225.914C149.224 224.48 151.273 222.444 152.666 220.012C153.223 219.016 153.643 217.72 152.907 216.842C152.172 215.965 151.005 216.025 149.934 216.005C148.862 215.985 147.569 215.746 147.18 214.799C146.792 213.852 147.506 212.905 148.284 212.257C149.061 211.609 149.997 211.01 150.28 210.063C150.415 209.378 150.364 208.672 150.133 208.01C149.65 206.176 149.173 204.338 148.704 202.497C148.577 201.847 148.331 201.223 147.979 200.653C145.878 197.662 143.534 202.048 142.725 203.534C141.211 206.44 140.889 209.776 141.821 212.895Z" fill="#263238"/>
<path d="M147.002 215.576C148.192 217.043 149.944 218.007 151.878 218.257C154.452 218.557 155.356 216.264 154.326 214.18C153.391 212.266 150.932 209.824 148.505 210.472C146.077 211.12 145.552 213.742 147.002 215.576Z" fill="#E8BFBF"/>
<path d="M163.72 200.204C163.703 200.297 163.656 200.383 163.587 200.451C163.518 200.518 163.428 200.564 163.331 200.583C161.229 200.962 160.011 203.364 160.011 203.384C159.958 203.493 159.862 203.578 159.744 203.621C159.627 203.663 159.496 203.661 159.38 203.614C159.268 203.564 159.181 203.474 159.138 203.364C159.095 203.254 159.099 203.133 159.149 203.025C159.243 202.936 160.546 200.174 163.152 199.696C163.275 199.678 163.399 199.705 163.501 199.772C163.603 199.839 163.673 199.94 163.699 200.055C163.721 200.101 163.729 200.153 163.72 200.204Z" fill="#263238"/>
<path d="M169.331 198.21C169.261 198.2 169.189 198.203 169.12 198.22C169.052 198.237 168.988 198.268 168.932 198.31C168.816 198.429 168.427 198.639 168.648 198.748C169.93 199.366 171.706 200.383 173.072 200.174C173.303 200.174 173.85 199.945 173.734 199.785C173.655 199.705 173.555 199.645 173.445 199.612C173.334 199.579 173.217 199.573 173.103 199.596C172.053 199.735 170.571 198.768 169.562 198.27C169.488 198.241 169.411 198.221 169.331 198.21Z" fill="#263238"/>
<path d="M163.867 204.82L165.496 203.823C165.496 203.823 164.981 205.408 163.867 204.82Z" fill="#263238"/>
<path d="M163.72 187.254C160.137 186.636 159.674 186.407 156.038 186.626C152.366 186.735 148.816 187.9 145.856 189.966C143.092 192.134 141.142 195.093 140.298 198.4C139.472 201.695 139.379 205.117 140.024 208.448C140.14 210.039 140.865 211.536 142.063 212.655C142.185 210.864 142.506 209.089 143.019 207.362C143.555 205.617 144.658 204.079 146.172 202.965C146.839 202.623 147.415 202.138 147.853 201.55C148.08 200.968 148.208 200.355 148.231 199.735C148.561 198.34 149.44 197.116 150.69 196.316C151.931 195.535 153.26 194.886 154.651 194.382C159.075 192.578 163.898 191.541 167.975 189.109C166.641 188.329 165.212 187.706 163.72 187.254Z" fill="#263238"/>
<path d="M145.384 200.593C146.346 201.701 147.663 202.482 149.135 202.816C150.879 203.195 155.24 203.095 155.503 202.667C155.765 202.238 154.21 197.592 152.445 197.313C153.663 198.429 155.117 199.285 156.711 199.825C158.515 200.167 160.372 200.167 162.175 199.825C163.1 199.626 161.03 195.997 159.527 194.961C164.056 195.858 168.848 196.885 172.137 199.945C175.426 203.005 176.844 207.85 176.676 212.366C177.447 211.777 178.066 211.03 178.486 210.18C178.907 209.33 179.118 208.4 179.103 207.462C179.897 209.797 180.187 212.259 179.958 214.703C179.729 217.147 178.984 219.522 177.769 221.687C182.582 217.939 184.378 211.389 183.117 205.607C181.856 199.825 177.863 194.791 173.019 191.093C168.816 187.932 163.814 185.57 158.487 185.45C151.499 185.251 138.553 192.787 145.384 200.593Z" fill="#263238"/>
<path d="M151.047 227.25C151.047 226.921 151.132 226.482 151.174 226.024C151.265 224.971 150.942 223.923 150.267 223.083C149.591 222.244 148.611 221.672 147.517 221.478C147.192 221.423 146.888 221.286 146.637 221.083C146.386 220.88 146.196 220.617 146.088 220.321C145.279 218.088 144.963 217.41 144.186 215.217C142.084 214.729 139.552 215.476 137.356 215.696C136.747 218.197 136.704 220.793 137.23 223.312C137.314 223.875 137.545 224.41 137.902 224.867C139.896 226.417 142.102 227.705 144.459 228.695C146.35 229.243 149.009 227.419 151.047 227.25Z" fill="#E8BFBF"/>
<path d="M144.68 228.745C144.68 228.745 138.89 264.185 144.858 269.618C148.357 272.788 151.384 271.033 153.265 269.049C153.954 268.31 154.473 267.442 154.788 266.501C155.103 265.561 155.207 264.568 155.093 263.587L151.026 227.28C151.026 227.28 147.033 225.037 144.68 228.745Z" fill="#E8BFBF"/>
<path d="M206.886 260.745C209.264 258.777 210.969 256.181 211.783 253.289C211.969 252.268 212.039 251.232 211.993 250.198C211.941 243.778 210.028 232.005 210.028 232.005L204.533 230.28C204.533 230.28 202.82 239.252 202.431 244.157C202.357 245.154 202.242 246.26 202.116 247.467C201.874 249.66 201.58 252.072 201.317 254.076L206.886 260.745Z" fill="#E8BFBF"/>
<path d="M210.028 264.503C211.72 263.038 212.004 261.264 212.876 257.525C213.706 253.956 212.771 249.55 211.993 250.218C211.896 250.302 211.824 250.408 211.783 250.527C210.448 253.518 205.258 250.896 203.786 249.401C203.153 248.829 202.595 248.186 202.126 247.486C201.933 247.219 201.83 246.903 201.83 246.579C201.83 246.256 201.933 245.939 202.126 245.672C200.529 245.044 199.247 251.006 200.025 252.471L200.424 253.578C201.057 255.373 202.033 257.042 203.303 258.502L206.193 261.802L210.028 264.503Z" fill="#263238"/>
<path d="M204.385 231.029L203.734 221.917C205.433 222.684 207.189 223.334 208.988 223.861C211.657 224.728 215.293 223.203 214.452 224.858C213.112 227.32 211.617 229.703 209.976 231.996L204.385 231.029Z" fill="#E8BFBF"/>
<path d="M203.734 221.917L207.853 212.795L213.233 215.915C214.715 218.966 214.536 224.887 214.536 224.887C214.536 224.887 207.054 225.166 203.734 221.917Z" fill="#E8BFBF"/>
<path d="M168.249 214.888C168.385 215.536 168.879 215.995 169.3 215.885C169.72 215.775 169.983 215.197 169.835 214.549C169.688 213.901 169.205 213.443 168.785 213.552C168.364 213.662 168.102 214.28 168.249 214.888Z" fill="#263238"/>
<path d="M154.925 338.753L151.678 293.893C151.205 287.552 147.958 282.269 143.44 279.767C140.579 277.607 137.094 276.324 133.447 276.088C133.058 276.088 132.68 276.088 132.291 276.088C129.357 276.073 126.466 276.758 123.885 278.082C123.8 278.11 123.719 278.147 123.643 278.192C120.985 279.604 118.699 281.571 116.96 283.944C114.335 287.561 112.942 291.854 112.967 296.245C112.967 306.214 119.892 314.528 128.981 316.183L132.491 364.762C132.795 368.899 135.643 372.059 139.089 372.059H156.711L154.925 338.753Z" fill="#142C52"/>
<path opacity="0.1" d="M154.925 338.753L151.678 293.893C151.205 287.552 147.958 282.269 143.44 279.767C140.579 277.607 137.094 276.324 133.447 276.088C133.058 276.088 132.68 276.088 132.291 276.088C129.357 276.073 126.466 276.758 123.885 278.082C123.8 278.11 123.719 278.147 123.643 278.192C120.985 279.604 118.699 281.571 116.96 283.944C114.335 287.561 112.942 291.854 112.967 296.245C112.967 306.214 119.892 314.528 128.981 316.183L132.491 364.762C132.795 368.899 135.643 372.059 139.089 372.059H156.711L154.925 338.753Z" fill="white"/>
<path d="M280.526 420.716C299.99 420.716 315.769 416.887 315.769 412.163C315.769 407.439 299.99 403.609 280.526 403.609C261.061 403.609 245.282 407.439 245.282 412.163C245.282 416.887 261.061 420.716 280.526 420.716Z" fill="#263238"/>
<path opacity="0.3" d="M280.526 417.865C299.99 417.865 315.769 414.674 315.769 410.737C315.769 406.801 299.99 403.609 280.526 403.609C261.061 403.609 245.282 406.801 245.282 410.737C245.282 414.674 261.061 417.865 280.526 417.865Z" fill="white"/>
<path d="M283.436 410.727H277.615L270.89 341.922H290.161L283.436 410.727Z" fill="#263238"/>
<path d="M290.161 341.922C290.161 343.915 285.853 345.55 280.526 345.55C275.198 345.55 270.89 343.925 270.89 341.922C270.89 339.918 275.209 338.293 280.526 338.293C285.843 338.293 290.161 339.918 290.161 341.922Z" fill="#263238"/>
<path opacity="0.7" d="M290.161 341.922C290.161 343.915 285.853 345.55 280.526 345.55C275.198 345.55 270.89 343.925 270.89 341.922C270.89 339.918 275.209 338.293 280.526 338.293C285.843 338.293 290.161 339.918 290.161 341.922Z" fill="white"/>
<path opacity="0.7" d="M162.669 342.998C162.696 342.586 162.809 342.183 163.002 341.813C163.195 341.444 163.464 341.114 163.794 340.845C171.937 348.62 223.604 354.612 286.126 354.612C348.648 354.612 400.315 348.63 408.47 340.845C408.799 341.114 409.068 341.444 409.261 341.813C409.454 342.183 409.568 342.586 409.594 342.998C409.594 351.781 354.312 358.948 286.126 358.948C217.941 358.948 162.669 351.781 162.669 342.998Z" fill="white"/>
<path opacity="0.7" d="M163.835 344.982C171.979 337.206 223.646 331.225 286.168 331.225C348.69 331.225 400.357 337.206 408.511 344.982C400.357 352.757 348.69 358.749 286.168 358.749C223.646 358.749 171.979 352.757 163.835 344.982Z" fill="white"/>
<path opacity="0.7" d="M162.669 342.69C162.669 333.897 217.941 326.739 286.126 326.739C354.312 326.739 409.594 333.857 409.594 342.69C409.568 343.1 409.456 343.502 409.263 343.87C409.069 344.239 408.8 344.566 408.47 344.833C400.315 337.057 348.648 331.076 286.126 331.076C223.604 331.076 171.937 337.057 163.794 344.833C163.463 344.566 163.194 344.239 163 343.87C162.807 343.502 162.695 343.1 162.669 342.69Z" fill="white"/>
<path d="M333.79 334.944L282.133 334.016C281.994 334.003 281.859 333.963 281.736 333.899C281.613 333.835 281.505 333.749 281.418 333.645C281.331 333.541 281.267 333.421 281.229 333.293C281.191 333.166 281.181 333.032 281.198 332.9C281.187 332.767 281.203 332.634 281.247 332.508C281.291 332.381 281.361 332.264 281.453 332.164C281.545 332.064 281.657 331.982 281.783 331.923C281.909 331.865 282.046 331.831 282.186 331.823L333.843 332.75C333.983 332.763 334.119 332.802 334.243 332.865C334.367 332.928 334.477 333.014 334.565 333.119C334.653 333.223 334.718 333.343 334.757 333.471C334.795 333.6 334.806 333.734 334.788 333.867C334.8 334 334.783 334.134 334.738 334.261C334.694 334.388 334.623 334.506 334.53 334.606C334.437 334.707 334.323 334.788 334.196 334.846C334.069 334.904 333.931 334.937 333.79 334.944Z" fill="#263238"/>
<path opacity="0.2" d="M333.79 334.944L282.133 334.016C281.994 334.003 281.859 333.963 281.736 333.899C281.613 333.835 281.505 333.749 281.418 333.645C281.331 333.541 281.267 333.421 281.229 333.293C281.191 333.166 281.181 333.032 281.198 332.9C281.187 332.767 281.203 332.634 281.247 332.508C281.291 332.381 281.361 332.264 281.453 332.164C281.545 332.064 281.657 331.982 281.783 331.923C281.909 331.865 282.046 331.831 282.186 331.823L333.843 332.75C333.983 332.763 334.119 332.802 334.243 332.865C334.367 332.928 334.477 333.014 334.565 333.119C334.653 333.223 334.718 333.343 334.757 333.471C334.795 333.6 334.806 333.734 334.788 333.867C334.8 334 334.783 334.134 334.738 334.261C334.694 334.388 334.623 334.506 334.53 334.606C334.437 334.707 334.323 334.788 334.196 334.846C334.069 334.904 333.931 334.937 333.79 334.944Z" fill="white"/>
<path d="M358.872 331.365L334.179 334.904C333.909 334.904 333.649 334.806 333.454 334.629C333.258 334.453 333.141 334.212 333.128 333.957C333.085 333.689 333.148 333.415 333.305 333.188C333.462 332.962 333.702 332.799 333.979 332.73L358.673 329.191C358.942 329.191 359.202 329.289 359.398 329.466C359.593 329.642 359.71 329.883 359.723 330.138C359.766 330.406 359.703 330.68 359.546 330.907C359.389 331.133 359.149 331.296 358.872 331.365Z" fill="#263238"/>
<path d="M358.652 329.191H306.448L282.186 331.823L332.434 332.72L358.652 329.191Z" fill="#263238"/>
<path opacity="0.6" d="M358.652 329.191H306.448L282.186 331.823L332.434 332.72L358.652 329.191Z" fill="white"/>
<path opacity="0.5" d="M358.872 331.365L334.179 334.904C333.909 334.904 333.649 334.806 333.454 334.629C333.258 334.453 333.141 334.212 333.128 333.957C333.085 333.689 333.148 333.415 333.305 333.188C333.462 332.962 333.702 332.799 333.979 332.73L358.673 329.191C358.942 329.191 359.202 329.289 359.398 329.466C359.593 329.642 359.71 329.883 359.723 330.138C359.766 330.406 359.703 330.68 359.546 330.907C359.389 331.133 359.149 331.296 358.872 331.365Z" fill="white"/>
<path d="M332.435 332.72L284.266 331.863C283.358 331.753 282.524 331.331 281.922 330.677C281.32 330.023 280.991 329.182 280.998 328.314L279.548 300.72C279.443 298.796 280.757 297.251 282.449 297.281L330.617 298.148C331.527 298.254 332.363 298.674 332.967 299.329C333.57 299.984 333.897 300.827 333.885 301.697L335.345 329.281C335.44 331.205 334.137 332.75 332.435 332.72Z" fill="#142C52"/>
<path opacity="0.2" d="M332.435 332.72L284.266 331.863C283.358 331.753 282.524 331.331 281.922 330.677C281.32 330.023 280.991 329.182 280.998 328.314L279.548 300.72C279.443 298.796 280.757 297.251 282.449 297.281L330.617 298.148C331.527 298.254 332.363 298.674 332.967 299.329C333.57 299.984 333.897 300.827 333.885 301.697L335.345 329.281C335.44 331.205 334.137 332.75 332.435 332.72Z" fill="white"/>
<path d="M331.027 332.581L282.858 331.714C281.948 331.606 281.112 331.185 280.507 330.531C279.903 329.877 279.573 329.035 279.58 328.165L278.13 300.62C278.025 298.696 279.338 297.151 281.041 297.181L329.198 298.038C330.108 298.146 330.945 298.567 331.549 299.221C332.154 299.875 332.484 300.717 332.477 301.587L333.948 329.141C334.032 331.066 332.718 332.611 331.027 332.581Z" fill="#142C52"/>
<path opacity="0.6" d="M331.027 332.581L282.858 331.714C281.948 331.606 281.112 331.185 280.507 330.531C279.903 329.877 279.573 329.035 279.58 328.165L278.13 300.62C278.025 298.696 279.338 297.151 281.041 297.181L329.198 298.038C330.108 298.146 330.945 298.567 331.549 299.221C332.154 299.875 332.484 300.717 332.477 301.587L333.948 329.141C334.032 331.066 332.718 332.611 331.027 332.581Z" fill="white"/>
<path d="M299.65 314.407C299.791 315.72 300.435 316.939 301.459 317.831C302.484 318.724 303.818 319.23 305.209 319.252C305.863 319.263 306.512 319.141 307.113 318.896C307.713 318.65 308.252 318.287 308.694 317.828C309.135 317.37 309.468 316.828 309.672 316.238C309.875 315.649 309.944 315.024 309.874 314.407C309.721 313.101 309.073 311.893 308.05 311.007C307.028 310.121 305.7 309.618 304.315 309.592C303.664 309.582 303.018 309.703 302.42 309.947C301.822 310.19 301.284 310.552 300.844 311.006C300.403 311.461 300.069 311.999 299.863 312.586C299.657 313.172 299.585 313.793 299.65 314.407Z" fill="white"/>
</g>
<defs>
<filter id="filter0_d_920_1685" x="0" y="0" width="608" height="484.516" filterUnits="userSpaceOnUse" color-interpolation-filters="sRGB">
<feFlood flood-opacity="0" result="BackgroundImageFix"/>
<feColorMatrix in="SourceAlpha" type="matrix" values="0 0 0 0 0 0 0 0 0 0 0 0 0 0 0 0 0 0 127 0" result="hardAlpha"/>
<feOffset dy="4"/>
<feGaussianBlur stdDeviation="2"/>
<feComposite in2="hardAlpha" operator="out"/>
<feColorMatrix type="matrix" values="0 0 0 0 0 0 0 0 0 0 0 0 0 0 0 0 0 0 0.25 0"/>
<feBlend mode="normal" in2="BackgroundImageFix" result="effect1_dropShadow_920_1685"/>
<feBlend mode="normal" in="SourceGraphic" in2="effect1_dropShadow_920_1685" result="shape"/>
</filter>
<clipPath id="clip0_920_1685">
<rect width="525.394" height="498.447" fill="white" transform="translate(23.9651 1.55273)"/>
</clipPath>
</defs>
</svg>
