<svg width="608" height="508" viewBox="0 0 608 508" fill="none" xmlns="http://www.w3.org/2000/svg">
<g filter="url(#filter0_d_915_285)">
<path d="M588.156 391.604C446.422 294.255 588.156 86.187 588.156 13.1988C588.156 -59.7894 444.699 200.161 403.682 60.7407C362.666 -78.6793 96.9685 300.535 22.1294 391.604C-130.047 576.782 729.891 488.954 588.156 391.604Z" fill="#07F9A2"/>
</g>
<g clip-path="url(#clip0_915_285)">
<path d="M527.293 401.59H106.977V401.799H527.293V401.59Z" fill="#EBEBEB"/>
<path d="M220.58 415.054H192.739V415.263H220.58V415.054Z" fill="#EBEBEB"/>
<path d="M287.452 408.72H250.843V408.929H287.452V408.72Z" fill="#EBEBEB"/>
<path d="M191.898 407.289H151.077V407.498H191.898V407.289Z" fill="#EBEBEB"/>
<path d="M343.951 410.117H315.126V410.326H343.951V410.117Z" fill="#EBEBEB"/>
<path d="M485.177 410.117H478.923V410.326H485.177V410.117Z" fill="#EBEBEB"/>
<path d="M392.262 410.117H351.433V410.326H392.262V410.117Z" fill="#EBEBEB"/>
<path d="M460.294 413.648H381.544V413.858H460.294V413.648Z" fill="#EBEBEB"/>
<path d="M306.207 364.267H143.889C142.618 364.265 141.399 363.761 140.501 362.865C139.602 361.969 139.098 360.755 139.098 359.489V132.351C139.109 131.093 139.618 129.889 140.516 129.002C141.413 128.116 142.625 127.617 143.889 127.615H306.207C307.48 127.615 308.701 128.118 309.601 129.014C310.501 129.91 311.007 131.126 311.007 132.393V359.489C311.007 360.756 310.501 361.972 309.601 362.868C308.701 363.764 307.48 364.267 306.207 364.267ZM143.889 127.782C142.674 127.784 141.508 128.267 140.649 129.123C139.79 129.98 139.308 131.141 139.308 132.351V359.489C139.308 360.7 139.79 361.86 140.649 362.717C141.508 363.574 142.674 364.056 143.889 364.058H306.207C307.423 364.056 308.59 363.574 309.45 362.718C310.31 361.861 310.794 360.7 310.797 359.489V132.351C310.794 131.14 310.31 129.979 309.45 129.123C308.59 128.266 307.423 127.784 306.207 127.782H143.889Z" fill="#EBEBEB"/>
<path d="M488.043 364.267H325.718C324.445 364.265 323.226 363.761 322.326 362.866C321.426 361.97 320.92 360.756 320.918 359.489V132.351C320.931 131.092 321.442 129.888 322.341 129.002C323.239 128.115 324.453 127.617 325.718 127.615H488.043C489.306 127.619 490.517 128.119 491.412 129.005C492.307 129.892 492.816 131.094 492.827 132.351V359.489C492.827 360.754 492.323 361.966 491.427 362.862C490.53 363.758 489.314 364.263 488.043 364.267ZM325.718 127.782C324.501 127.784 323.335 128.266 322.475 129.123C321.614 129.979 321.13 131.14 321.128 132.351V359.489C321.13 360.7 321.614 361.861 322.475 362.718C323.335 363.574 324.501 364.056 325.718 364.058H488.043C489.26 364.056 490.426 363.574 491.287 362.718C492.147 361.861 492.631 360.7 492.633 359.489V132.351C492.631 131.14 492.147 129.979 491.287 129.123C490.426 128.266 489.26 127.784 488.043 127.782H325.718Z" fill="#EBEBEB"/>
<path d="M406.469 284.159H152.422C151.453 284.172 150.493 283.981 149.604 283.599C148.715 283.216 147.918 282.651 147.264 281.939C146.611 281.228 146.116 280.387 145.812 279.471C145.509 278.556 145.404 277.586 145.503 276.627L158.659 120.92C158.864 118.886 159.81 116.997 161.319 115.609C162.827 114.222 164.794 113.432 166.847 113.389H420.885C421.854 113.374 422.815 113.564 423.705 113.946C424.594 114.328 425.392 114.894 426.046 115.606C426.7 116.318 427.195 117.159 427.498 118.075C427.801 118.992 427.905 119.961 427.804 120.92L414.648 276.636C414.441 278.667 413.496 280.553 411.989 281.939C410.483 283.325 408.519 284.114 406.469 284.159Z" fill="#E0E0E0"/>
<path d="M404.409 284.159H150.371C149.402 284.173 148.441 283.983 147.551 283.601C146.662 283.219 145.864 282.654 145.21 281.942C144.556 281.23 144.061 280.388 143.758 279.472C143.455 278.556 143.351 277.587 143.452 276.627L156.574 120.92C156.779 118.886 157.725 116.997 159.234 115.609C160.742 114.222 162.709 113.432 164.762 113.389H418.851C419.82 113.375 420.78 113.566 421.669 113.949C422.558 114.331 423.355 114.897 424.009 115.609C424.662 116.32 425.157 117.161 425.461 118.077C425.764 118.992 425.869 119.961 425.77 120.92L412.597 276.636C412.39 278.669 411.443 280.556 409.935 281.942C408.427 283.327 406.461 284.116 404.409 284.159Z" fill="#EBEBEB"/>
<path d="M414.026 259.69H144.881L156.507 122.017H425.652L414.026 259.69Z" fill="#FAFAFA"/>
<path d="M363.033 244.034C363.144 242.935 363.655 241.915 364.469 241.165C365.284 240.416 366.346 239.99 367.455 239.967H494.668C495.19 239.96 495.709 240.064 496.188 240.271C496.668 240.478 497.099 240.783 497.452 241.167C497.805 241.551 498.072 242.005 498.237 242.499C498.402 242.993 498.461 243.516 498.408 244.034L497.299 257.121H361.957L363.033 244.034Z" fill="#E6E6E6"/>
<path d="M395.406 251.975C394.961 251.982 394.519 251.895 394.111 251.72C393.702 251.545 393.335 251.285 393.034 250.959C392.733 250.632 392.505 250.246 392.364 249.825C392.224 249.405 392.175 248.959 392.22 248.519C392.311 247.597 392.739 246.741 393.422 246.113C394.106 245.485 394.997 245.129 395.927 245.113C396.373 245.106 396.816 245.193 397.225 245.368C397.635 245.544 398.002 245.804 398.303 246.131C398.604 246.459 398.832 246.846 398.972 247.268C399.112 247.689 399.16 248.136 399.113 248.577C399.021 249.497 398.592 250.351 397.909 250.978C397.225 251.604 396.335 251.959 395.406 251.975ZM395.927 245.832C395.178 245.845 394.46 246.132 393.91 246.638C393.359 247.145 393.015 247.835 392.943 248.577C392.906 248.919 392.942 249.264 393.05 249.591C393.157 249.917 393.334 250.217 393.567 250.47C393.8 250.724 394.084 250.925 394.401 251.06C394.719 251.195 395.061 251.262 395.406 251.255C396.154 251.241 396.872 250.955 397.423 250.451C397.974 249.947 398.321 249.26 398.399 248.519C398.431 248.174 398.392 247.827 398.284 247.499C398.175 247.171 398 246.868 397.768 246.611C397.533 246.36 397.247 246.162 396.93 246.028C396.613 245.894 396.272 245.827 395.927 245.832Z" fill="white"/>
<path d="M384.47 251.975C384.024 251.982 383.582 251.895 383.173 251.72C382.764 251.545 382.396 251.285 382.095 250.959C381.793 250.633 381.564 250.247 381.423 249.826C381.282 249.405 381.231 248.96 381.275 248.519C381.366 247.597 381.794 246.741 382.477 246.113C383.161 245.485 384.052 245.129 384.982 245.113C385.427 245.106 385.868 245.192 386.276 245.367C386.685 245.541 387.052 245.8 387.353 246.125C387.658 246.453 387.89 246.84 388.035 247.262C388.179 247.685 388.234 248.133 388.194 248.577C388.101 249.5 387.67 250.357 386.983 250.983C386.296 251.61 385.401 251.963 384.47 251.975ZM384.982 245.832C384.234 245.847 383.517 246.135 382.967 246.641C382.417 247.146 382.072 247.835 381.998 248.577C381.961 248.919 381.998 249.266 382.106 249.593C382.214 249.92 382.39 250.22 382.624 250.473C382.858 250.727 383.144 250.928 383.462 251.063C383.78 251.197 384.124 251.263 384.47 251.255C385.217 251.24 385.933 250.954 386.483 250.45C387.033 249.946 387.378 249.259 387.454 248.519C387.492 248.176 387.457 247.829 387.349 247.501C387.242 247.172 387.065 246.871 386.831 246.617C386.597 246.362 386.311 246.161 385.992 246.025C385.673 245.89 385.329 245.824 384.982 245.832Z" fill="white"/>
<path d="M373.525 251.975C373.079 251.982 372.638 251.895 372.229 251.72C371.82 251.545 371.453 251.285 371.152 250.959C370.851 250.632 370.623 250.246 370.483 249.825C370.342 249.405 370.293 248.959 370.339 248.519C370.429 247.597 370.857 246.741 371.54 246.113C372.224 245.485 373.116 245.129 374.046 245.113C374.492 245.106 374.934 245.193 375.343 245.368C375.753 245.544 376.121 245.804 376.422 246.131C376.723 246.459 376.951 246.846 377.09 247.268C377.23 247.689 377.278 248.136 377.232 248.577C377.139 249.497 376.711 250.351 376.027 250.978C375.344 251.604 374.453 251.959 373.525 251.975ZM374.046 245.832C373.297 245.845 372.578 246.132 372.028 246.638C371.478 247.145 371.134 247.835 371.061 248.577C371.024 248.919 371.061 249.264 371.168 249.591C371.276 249.917 371.452 250.217 371.685 250.47C371.918 250.724 372.203 250.925 372.52 251.06C372.837 251.195 373.179 251.262 373.525 251.255C374.273 251.241 374.99 250.955 375.541 250.451C376.092 249.947 376.439 249.26 376.517 248.519C376.55 248.174 376.51 247.827 376.402 247.499C376.293 247.171 376.118 246.868 375.887 246.611C375.651 246.36 375.366 246.162 375.049 246.028C374.732 245.894 374.39 245.827 374.046 245.832Z" fill="white"/>
<path d="M485.774 345.255H358.57C358.046 345.262 357.528 345.16 357.047 344.953C356.567 344.747 356.136 344.441 355.782 344.057C355.429 343.673 355.161 343.219 354.997 342.724C354.833 342.23 354.775 341.706 354.829 341.188L361.924 257.121H497.265L490.17 341.188C490.058 342.282 489.551 343.298 488.742 344.046C487.933 344.794 486.878 345.224 485.774 345.255Z" fill="#F5F5F5"/>
<path d="M352.769 257.64C352.88 256.54 353.392 255.519 354.209 254.769C355.025 254.02 356.089 253.594 357.199 253.573H484.42C484.944 253.566 485.462 253.669 485.943 253.875C486.423 254.081 486.854 254.387 487.208 254.771C487.561 255.155 487.829 255.609 487.993 256.104C488.157 256.598 488.215 257.122 488.161 257.64L487.043 270.711H351.702L352.769 257.64Z" fill="#F5F5F5"/>
<path d="M385.15 265.582C384.705 265.588 384.263 265.501 383.854 265.326C383.444 265.151 383.077 264.892 382.775 264.566C382.474 264.24 382.245 263.853 382.103 263.433C381.962 263.012 381.912 262.567 381.956 262.125C382.046 261.204 382.474 260.348 383.158 259.72C383.841 259.092 384.733 258.736 385.663 258.72C386.109 258.713 386.552 258.8 386.962 258.975C387.372 259.151 387.74 259.411 388.041 259.738C388.343 260.065 388.572 260.452 388.713 260.874C388.853 261.296 388.903 261.742 388.857 262.184C388.765 263.104 388.336 263.958 387.653 264.585C386.97 265.211 386.079 265.566 385.15 265.582ZM385.663 259.439C384.914 259.454 384.197 259.742 383.647 260.247C383.097 260.753 382.753 261.442 382.679 262.184C382.642 262.526 382.678 262.873 382.786 263.2C382.894 263.527 383.071 263.827 383.305 264.08C383.539 264.334 383.825 264.535 384.143 264.669C384.461 264.804 384.805 264.87 385.15 264.862C385.898 264.847 386.614 264.561 387.163 264.057C387.713 263.553 388.059 262.866 388.134 262.125C388.173 261.783 388.137 261.435 388.03 261.107C387.922 260.779 387.746 260.478 387.512 260.224C387.277 259.969 386.991 259.768 386.673 259.632C386.354 259.497 386.009 259.431 385.663 259.439Z" fill="#E6E6E6"/>
<path d="M374.205 265.582C373.76 265.589 373.319 265.502 372.91 265.327C372.501 265.151 372.134 264.892 371.833 264.566C371.532 264.239 371.304 263.853 371.164 263.432C371.023 263.012 370.974 262.566 371.019 262.126C371.11 261.204 371.538 260.348 372.221 259.72C372.905 259.092 373.797 258.736 374.727 258.72C375.173 258.712 375.615 258.8 376.024 258.975C376.434 259.151 376.801 259.411 377.103 259.738C377.404 260.066 377.632 260.453 377.771 260.875C377.911 261.296 377.959 261.743 377.913 262.184C377.82 263.104 377.391 263.958 376.708 264.585C376.025 265.211 375.134 265.566 374.205 265.582ZM374.727 259.439C373.977 259.454 373.259 259.741 372.707 260.247C372.156 260.752 371.81 261.442 371.734 262.184C371.697 262.526 371.733 262.873 371.841 263.2C371.949 263.527 372.126 263.827 372.36 264.08C372.594 264.334 372.88 264.535 373.198 264.669C373.516 264.804 373.86 264.87 374.205 264.862C374.953 264.849 375.67 264.563 376.221 264.059C376.771 263.554 377.116 262.866 377.19 262.126C377.228 261.783 377.193 261.437 377.086 261.11C376.979 260.782 376.803 260.481 376.57 260.227C376.336 259.973 376.051 259.771 375.734 259.635C375.416 259.499 375.072 259.432 374.727 259.439Z" fill="#E6E6E6"/>
<path d="M363.269 265.582C362.824 265.589 362.383 265.502 361.975 265.328C361.566 265.153 361.199 264.895 360.898 264.569C360.594 264.243 360.362 263.857 360.217 263.436C360.073 263.015 360.018 262.569 360.058 262.125C360.148 261.204 360.576 260.348 361.26 259.72C361.943 259.092 362.835 258.736 363.765 258.72C364.211 258.713 364.654 258.8 365.064 258.975C365.473 259.151 365.841 259.411 366.143 259.738C366.445 260.065 366.674 260.452 366.814 260.874C366.955 261.296 367.004 261.742 366.959 262.184C366.867 263.101 366.441 263.953 365.761 264.579C365.081 265.205 364.195 265.562 363.269 265.582ZM363.782 259.439C363.033 259.454 362.316 259.742 361.766 260.247C361.216 260.753 360.871 261.442 360.797 262.184C360.76 262.526 360.797 262.873 360.905 263.2C361.013 263.527 361.19 263.827 361.424 264.08C361.658 264.334 361.943 264.535 362.261 264.669C362.58 264.804 362.923 264.87 363.269 264.862C364.016 264.847 364.732 264.561 365.282 264.057C365.832 263.553 366.177 262.866 366.253 262.125C366.286 261.781 366.246 261.434 366.138 261.106C366.029 260.778 365.854 260.475 365.623 260.218C365.387 259.967 365.102 259.768 364.785 259.634C364.468 259.5 364.126 259.434 363.782 259.439Z" fill="#E6E6E6"/>
<path d="M475.518 358.862H348.305C347.783 358.868 347.264 358.764 346.785 358.557C346.305 358.35 345.874 358.045 345.521 357.661C345.168 357.277 344.901 356.823 344.736 356.329C344.571 355.835 344.513 355.312 344.565 354.795L351.668 270.711H487.009L479.906 354.778C479.8 355.874 479.296 356.894 478.488 357.646C477.68 358.398 476.624 358.83 475.518 358.862Z" fill="#FAFAFA"/>
<path d="M342.505 271.247C342.618 270.147 343.13 269.127 343.946 268.378C344.762 267.629 345.825 267.202 346.935 267.18H474.139C474.663 267.172 475.181 267.275 475.662 267.481C476.142 267.688 476.573 267.993 476.927 268.377C477.28 268.762 477.548 269.216 477.712 269.71C477.876 270.205 477.934 270.728 477.88 271.247L476.779 284.334H341.438L342.505 271.247Z" fill="#FAFAFA"/>
<path d="M374.886 279.188C374.44 279.195 373.998 279.108 373.588 278.932C373.179 278.757 372.811 278.497 372.51 278.169C372.209 277.842 371.981 277.455 371.842 277.033C371.702 276.611 371.654 276.165 371.7 275.724C371.791 274.803 372.219 273.948 372.903 273.321C373.587 272.694 374.478 272.34 375.407 272.326C375.853 272.319 376.296 272.406 376.705 272.582C377.115 272.757 377.482 273.017 377.783 273.345C378.084 273.672 378.312 274.06 378.452 274.481C378.592 274.903 378.64 275.349 378.593 275.791C378.501 276.711 378.072 277.565 377.389 278.191C376.706 278.817 375.815 279.172 374.886 279.188ZM375.407 273.046C374.657 273.059 373.938 273.345 373.386 273.851C372.835 274.357 372.489 275.047 372.415 275.791C372.378 276.133 372.414 276.479 372.522 276.806C372.63 277.133 372.807 277.433 373.041 277.687C373.275 277.94 373.561 278.141 373.879 278.276C374.197 278.411 374.541 278.476 374.886 278.468C375.635 278.455 376.354 278.168 376.904 277.662C377.454 277.156 377.798 276.466 377.87 275.724C377.908 275.382 377.871 275.037 377.764 274.71C377.656 274.384 377.48 274.084 377.247 273.831C377.014 273.577 376.729 273.376 376.412 273.241C376.095 273.106 375.752 273.039 375.407 273.046Z" fill="#F0F0F0"/>
<path d="M363.941 279.188C363.495 279.195 363.053 279.108 362.643 278.932C362.234 278.757 361.866 278.497 361.565 278.169C361.264 277.842 361.036 277.455 360.897 277.033C360.757 276.611 360.709 276.165 360.755 275.724C360.848 274.804 361.276 273.949 361.96 273.323C362.643 272.697 363.534 272.342 364.462 272.326C364.908 272.319 365.351 272.406 365.76 272.582C366.17 272.757 366.537 273.017 366.838 273.345C367.139 273.672 367.367 274.06 367.507 274.481C367.647 274.903 367.695 275.349 367.648 275.791C367.558 276.711 367.129 277.567 366.446 278.193C365.762 278.82 364.87 279.174 363.941 279.188ZM364.462 273.046C363.713 273.059 362.995 273.346 362.445 273.852C361.894 274.358 361.55 275.048 361.478 275.791C361.441 276.132 361.477 276.478 361.585 276.804C361.693 277.13 361.869 277.43 362.102 277.684C362.335 277.937 362.619 278.138 362.936 278.273C363.254 278.409 363.596 278.475 363.941 278.468C364.691 278.456 365.41 278.169 365.962 277.663C366.514 277.157 366.86 276.467 366.934 275.724C366.971 275.381 366.934 275.035 366.826 274.708C366.718 274.381 366.541 274.081 366.307 273.827C366.074 273.574 365.788 273.373 365.47 273.238C365.151 273.103 364.808 273.038 364.462 273.046Z" fill="#F0F0F0"/>
<path d="M353.005 279.188C352.559 279.195 352.116 279.108 351.707 278.932C351.297 278.757 350.93 278.497 350.629 278.169C350.328 277.842 350.1 277.455 349.96 277.033C349.82 276.611 349.772 276.165 349.819 275.724C349.909 274.803 350.338 273.948 351.021 273.321C351.705 272.694 352.597 272.34 353.526 272.326C353.972 272.319 354.414 272.406 354.824 272.582C355.233 272.757 355.601 273.017 355.902 273.345C356.203 273.672 356.431 274.06 356.57 274.481C356.71 274.903 356.758 275.349 356.712 275.791C356.619 276.711 356.191 277.565 355.507 278.191C354.824 278.817 353.933 279.172 353.005 279.188ZM353.526 273.046C352.776 273.059 352.056 273.345 351.505 273.851C350.953 274.357 350.607 275.047 350.533 275.791C350.496 276.133 350.533 276.479 350.641 276.806C350.749 277.133 350.926 277.433 351.16 277.687C351.393 277.94 351.679 278.141 351.997 278.276C352.315 278.411 352.659 278.476 353.005 278.468C353.754 278.455 354.472 278.168 355.022 277.662C355.573 277.156 355.917 276.466 355.989 275.724C356.026 275.382 355.99 275.037 355.882 274.71C355.774 274.384 355.598 274.084 355.365 273.831C355.132 273.577 354.848 273.376 354.531 273.241C354.213 273.106 353.871 273.039 353.526 273.046Z" fill="#F0F0F0"/>
<path d="M465.254 372.468H338.042C337.519 372.474 337.001 372.371 336.521 372.164C336.041 371.957 335.611 371.652 335.257 371.268C334.904 370.884 334.637 370.43 334.472 369.936C334.307 369.442 334.249 368.919 334.301 368.401L341.404 284.334H476.746L469.642 368.401C469.532 369.494 469.026 370.51 468.219 371.259C467.411 372.007 466.357 372.437 465.254 372.468Z" fill="#E6E6E6"/>
<path d="M317.135 447.749C407.152 447.749 480.125 443.508 480.125 438.276C480.125 433.044 407.152 428.803 317.135 428.803C227.118 428.803 154.145 433.044 154.145 438.276C154.145 443.508 227.118 447.749 317.135 447.749Z" fill="#F5F5F5"/>
<path d="M466.876 355.314H179.725C179.402 355.317 179.081 355.253 178.783 355.126C178.486 354.998 178.218 354.81 177.998 354.574C177.778 354.337 177.61 354.058 177.505 353.753C177.4 353.448 177.36 353.124 177.388 352.803L188.375 162.703C188.425 162.034 188.727 161.408 189.222 160.953C189.717 160.498 190.367 160.247 191.04 160.251H478.141C478.465 160.246 478.787 160.309 479.086 160.436C479.384 160.563 479.653 160.751 479.874 160.987C480.095 161.224 480.264 161.504 480.369 161.81C480.475 162.115 480.514 162.439 480.486 162.761L469.499 352.845C469.453 353.509 469.157 354.131 468.672 354.589C468.186 355.046 467.545 355.305 466.876 355.314Z" fill="#F0F0F0"/>
<path d="M466.876 355.774H179.725C179.342 355.777 178.963 355.701 178.611 355.552C178.259 355.402 177.941 355.182 177.678 354.905C177.416 354.627 177.213 354.299 177.084 353.94C176.954 353.581 176.901 353.2 176.926 352.82L187.913 162.677C187.966 161.889 188.319 161.15 188.9 160.61C189.481 160.071 190.246 159.772 191.04 159.774H478.141C478.527 159.769 478.91 159.844 479.265 159.996C479.621 160.147 479.94 160.37 480.204 160.651C480.467 160.933 480.669 161.266 480.796 161.629C480.923 161.992 480.972 162.378 480.94 162.761L469.961 352.87C469.907 353.651 469.559 354.383 468.988 354.921C468.416 355.458 467.663 355.763 466.876 355.774ZM191.04 160.694C190.475 160.689 189.93 160.901 189.518 161.286C189.106 161.671 188.86 162.199 188.829 162.761L177.851 352.87C177.831 353.125 177.865 353.382 177.95 353.624C178.036 353.866 178.171 354.087 178.348 354.274C178.524 354.461 178.738 354.609 178.975 354.708C179.212 354.808 179.468 354.857 179.725 354.853H466.876C467.427 354.846 467.955 354.633 468.355 354.256C468.756 353.88 468.999 353.367 469.037 352.82L480.024 162.677C480.041 162.421 480.006 162.164 479.919 161.922C479.832 161.68 479.696 161.459 479.519 161.272C479.343 161.085 479.129 160.937 478.891 160.838C478.654 160.738 478.398 160.69 478.141 160.694H191.04Z" fill="#263238"/>
<path d="M463.405 351.515H176.279C175.959 351.519 175.641 351.457 175.346 351.332C175.051 351.208 174.785 351.024 174.565 350.792C174.345 350.56 174.177 350.285 174.069 349.984C173.962 349.684 173.919 349.364 173.942 349.046L184.921 158.904C184.959 158.233 185.25 157.601 185.737 157.136C186.223 156.67 186.869 156.405 187.543 156.393H474.694C475.018 156.39 475.339 156.454 475.637 156.581C475.934 156.708 476.202 156.896 476.422 157.133C476.642 157.369 476.81 157.649 476.915 157.954C477.02 158.259 477.059 158.582 477.031 158.904L466.053 349.046C466.006 349.714 465.707 350.34 465.216 350.798C464.725 351.256 464.078 351.512 463.405 351.515Z" fill="white"/>
<path d="M463.405 351.975H176.279C175.895 351.98 175.515 351.906 175.161 351.758C174.808 351.609 174.489 351.389 174.226 351.111C173.963 350.833 173.76 350.504 173.632 350.144C173.503 349.784 173.452 349.402 173.48 349.021L184.467 158.878C184.519 158.099 184.865 157.368 185.436 156.831C186.006 156.295 186.759 155.992 187.543 155.983H474.694C475.076 155.975 475.454 156.045 475.807 156.189C476.16 156.333 476.479 156.548 476.745 156.82C477.007 157.099 477.208 157.429 477.336 157.789C477.465 158.149 477.519 158.531 477.494 158.912L466.507 349.071C466.453 349.855 466.104 350.591 465.529 351.13C464.953 351.668 464.194 351.97 463.405 351.975ZM187.543 156.904C186.991 156.911 186.462 157.125 186.062 157.503C185.661 157.882 185.419 158.397 185.383 158.945L174.396 349.071C174.38 349.328 174.417 349.586 174.503 349.829C174.59 350.072 174.725 350.295 174.9 350.485C175.078 350.67 175.292 350.817 175.529 350.916C175.767 351.015 176.022 351.065 176.279 351.063H463.405C463.956 351.053 464.484 350.838 464.884 350.46C465.284 350.082 465.527 349.568 465.565 349.021L476.577 158.878C476.592 158.622 476.556 158.366 476.469 158.124C476.382 157.883 476.248 157.661 476.073 157.473C475.895 157.288 475.681 157.141 475.444 157.042C475.207 156.942 474.952 156.893 474.694 156.895L187.543 156.904Z" fill="#263238"/>
<path d="M474.694 156.435H187.543C186.868 156.447 186.223 156.712 185.737 157.177C185.25 157.643 184.959 158.275 184.92 158.945L183.886 176.845H476.014L477.048 158.945C477.076 158.623 477.036 158.298 476.93 157.992C476.824 157.686 476.655 157.405 476.433 157.168C476.211 156.932 475.941 156.744 475.642 156.618C475.342 156.491 475.019 156.429 474.694 156.435Z" fill="#263238"/>
<path d="M205.398 167.422H193.024L193.117 165.815H205.491L205.398 167.422Z" fill="white"/>
<path d="M205.163 171.481H192.789L192.881 169.874H205.255L205.163 171.481Z" fill="white"/>
<path d="M205.634 163.364H193.26L193.352 161.757H205.726L205.634 163.364Z" fill="white"/>
<path opacity="0.2" d="M327.651 172.217H215.763C215.436 172.221 215.111 172.158 214.81 172.032C214.508 171.906 214.235 171.719 214.009 171.484C213.783 171.248 213.608 170.969 213.494 170.663C213.381 170.358 213.332 170.032 213.351 169.707L213.737 163.598C213.794 162.919 214.103 162.286 214.603 161.822C215.104 161.357 215.76 161.096 216.444 161.087H328.332C328.659 161.086 328.982 161.151 329.283 161.278C329.583 161.405 329.855 161.591 330.081 161.826C330.306 162.061 330.482 162.339 330.596 162.644C330.71 162.949 330.761 163.273 330.745 163.598L330.392 169.698C330.335 170.384 330.022 171.023 329.514 171.489C329.007 171.955 328.342 172.215 327.651 172.217Z" fill="white"/>
<g opacity="0.2">
<path d="M271.674 197.573H182.693L183.887 176.803H272.876L271.674 197.573Z" fill="white"/>
<path d="M271.674 197.799H182.693C182.662 197.799 182.631 197.794 182.602 197.782C182.573 197.771 182.547 197.754 182.525 197.732C182.482 197.683 182.458 197.621 182.458 197.556L183.66 176.786C183.664 176.729 183.689 176.674 183.731 176.634C183.773 176.594 183.828 176.571 183.887 176.569H272.876C272.939 176.574 272.998 176.601 273.044 176.644C273.083 176.691 273.103 176.751 273.103 176.812L271.901 197.581C271.898 197.64 271.874 197.695 271.831 197.736C271.789 197.776 271.732 197.799 271.674 197.799ZM182.937 197.347H271.455L272.632 177.029H184.105L182.937 197.347Z" fill="#263238"/>
<path d="M270.471 218.343H181.491L182.693 197.573H271.674L270.471 218.343Z" fill="white"/>
<path d="M270.472 218.569H181.491C181.46 218.569 181.429 218.563 181.4 218.552C181.371 218.54 181.345 218.523 181.323 218.502C181.301 218.478 181.284 218.45 181.274 218.42C181.264 218.39 181.261 218.358 181.264 218.326L182.458 197.556C182.462 197.498 182.489 197.443 182.533 197.404C182.577 197.365 182.634 197.345 182.693 197.347H271.674C271.736 197.348 271.796 197.372 271.842 197.414C271.863 197.436 271.879 197.462 271.889 197.491C271.899 197.52 271.903 197.551 271.901 197.581L270.707 218.359C270.703 218.418 270.676 218.472 270.632 218.511C270.588 218.55 270.53 218.571 270.472 218.569ZM181.735 218.117H270.253L271.43 197.799H182.911L181.735 218.117Z" fill="#263238"/>
<path d="M269.27 239.113H180.289L181.491 218.343H270.472L269.27 239.113Z" fill="white"/>
<path d="M269.269 239.339H180.289C180.226 239.338 180.166 239.314 180.121 239.272C180.099 239.248 180.082 239.22 180.072 239.19C180.062 239.16 180.058 239.128 180.062 239.096L181.264 218.326C181.265 218.297 181.272 218.269 181.284 218.243C181.296 218.217 181.313 218.194 181.334 218.175C181.355 218.155 181.38 218.14 181.406 218.13C181.433 218.12 181.462 218.116 181.491 218.117H270.472C270.503 218.116 270.533 218.122 270.562 218.134C270.591 218.145 270.617 218.162 270.64 218.184C270.683 218.232 270.707 218.295 270.707 218.36L269.505 239.129C269.5 239.188 269.473 239.242 269.43 239.281C269.386 239.32 269.328 239.341 269.269 239.339ZM180.532 238.912H269.059L270.228 218.594H181.709L180.532 238.912Z" fill="#263238"/>
<path d="M263.797 333.899H174.816L175.833 316.292H264.814L263.797 333.899Z" fill="white"/>
<path d="M263.797 334.134H174.816C174.784 334.135 174.753 334.128 174.723 334.115C174.694 334.102 174.668 334.083 174.648 334.058C174.606 334.013 174.582 333.953 174.581 333.891L175.606 316.276C175.609 316.217 175.633 316.162 175.676 316.121C175.718 316.081 175.775 316.058 175.833 316.058H264.814C264.846 316.057 264.878 316.063 264.907 316.077C264.936 316.09 264.962 316.109 264.982 316.134C265.004 316.155 265.02 316.182 265.03 316.211C265.041 316.24 265.044 316.27 265.041 316.301L264.024 333.874C264.03 333.907 264.029 333.94 264.021 333.972C264.012 334.004 263.996 334.034 263.974 334.059C263.952 334.084 263.925 334.104 263.894 334.117C263.864 334.13 263.83 334.135 263.797 334.134ZM175.068 333.673H263.587L264.579 316.518H176.052L175.068 333.673Z" fill="#263238"/>
<path d="M262.78 351.514H176.447C176.104 351.522 175.762 351.459 175.445 351.328C175.128 351.197 174.841 351.002 174.604 350.754C174.367 350.507 174.184 350.213 174.067 349.892C173.95 349.57 173.902 349.228 173.925 348.887L174.766 333.908H263.797L262.78 351.514Z" fill="white"/>
<path d="M262.78 351.749H176.447C176.075 351.753 175.706 351.682 175.363 351.538C175.02 351.394 174.711 351.181 174.455 350.912C174.196 350.643 173.998 350.323 173.872 349.973C173.746 349.622 173.695 349.249 173.723 348.878L174.564 333.899C174.568 333.84 174.595 333.785 174.639 333.744C174.682 333.704 174.74 333.682 174.799 333.682H263.797C263.829 333.681 263.861 333.687 263.89 333.7C263.919 333.713 263.945 333.733 263.965 333.757C263.987 333.779 264.003 333.805 264.013 333.834C264.023 333.863 264.027 333.894 264.024 333.924L263.007 351.539C263.003 351.596 262.977 351.65 262.935 351.689C262.893 351.727 262.837 351.749 262.78 351.749ZM175.068 334.134L174.228 348.895C174.204 349.204 174.246 349.514 174.35 349.806C174.454 350.098 174.618 350.366 174.832 350.591C175.045 350.816 175.304 350.995 175.591 351.115C175.877 351.235 176.186 351.294 176.497 351.288H262.561L263.553 334.134H175.068Z" fill="#263238"/>
<path d="M264.814 316.293H175.833L180.289 239.113H269.27L264.814 316.293Z" fill="white"/>
<path d="M264.814 316.519H175.833C175.801 316.52 175.77 316.513 175.741 316.5C175.711 316.487 175.686 316.468 175.665 316.443C175.643 316.422 175.627 316.396 175.616 316.367C175.606 316.337 175.603 316.307 175.606 316.276L180.062 239.096C180.066 239.039 180.092 238.986 180.134 238.947C180.176 238.908 180.231 238.887 180.289 238.887H269.269C269.301 238.886 269.333 238.891 269.363 238.903C269.393 238.915 269.42 238.933 269.442 238.956C269.464 238.979 269.481 239.006 269.492 239.036C269.503 239.066 269.507 239.098 269.505 239.13L265.016 316.301C265.016 316.356 264.995 316.409 264.958 316.449C264.921 316.49 264.869 316.514 264.814 316.519ZM176.077 316.058H264.596L269.026 239.339H180.507L176.077 316.058Z" fill="#263238"/>
<path d="M284.67 351.515L292.9 208.979H452.258L444.02 351.515" fill="white"/>
<path d="M444.02 351.749C443.99 351.747 443.961 351.739 443.934 351.725C443.907 351.712 443.883 351.693 443.864 351.671C443.844 351.648 443.83 351.622 443.82 351.594C443.811 351.566 443.807 351.536 443.81 351.506L452.031 209.247H293.152L284.93 351.573C284.92 351.627 284.891 351.675 284.849 351.71C284.807 351.744 284.754 351.763 284.699 351.763C284.644 351.763 284.591 351.744 284.549 351.71C284.507 351.675 284.478 351.627 284.468 351.573L292.706 209.029C292.71 208.971 292.736 208.917 292.778 208.877C292.82 208.837 292.875 208.813 292.933 208.812H452.258C452.288 208.812 452.318 208.819 452.346 208.832C452.374 208.845 452.398 208.863 452.418 208.887C452.44 208.908 452.458 208.934 452.469 208.963C452.481 208.992 452.486 209.023 452.485 209.054L444.247 351.598C444.23 351.644 444.199 351.684 444.158 351.711C444.118 351.738 444.069 351.752 444.02 351.749Z" fill="#263238"/>
<path d="M306.997 337.339H297.801C297.705 337.34 297.611 337.322 297.523 337.285C297.435 337.248 297.356 337.193 297.291 337.123C297.226 337.054 297.177 336.972 297.146 336.882C297.115 336.792 297.103 336.697 297.111 336.602L297.229 334.519C297.244 334.322 297.332 334.138 297.477 334.003C297.622 333.868 297.812 333.792 298.011 333.791H307.199C307.294 333.788 307.389 333.805 307.477 333.842C307.565 333.878 307.644 333.932 307.71 334C307.776 334.069 307.826 334.151 307.859 334.24C307.891 334.329 307.904 334.424 307.896 334.519L307.779 336.602C307.756 336.797 307.665 336.977 307.522 337.112C307.379 337.246 307.193 337.327 306.997 337.339Z" fill="#263238"/>
<path d="M332.098 337.339H322.91C322.815 337.339 322.721 337.32 322.633 337.282C322.546 337.245 322.467 337.19 322.401 337.121C322.336 337.052 322.285 336.97 322.253 336.881C322.22 336.792 322.207 336.697 322.212 336.602L322.339 334.519C322.351 334.322 322.438 334.138 322.582 334.003C322.725 333.868 322.914 333.792 323.112 333.791H332.308C332.403 333.789 332.497 333.807 332.584 333.844C332.671 333.881 332.749 333.935 332.814 334.003C332.879 334.072 332.929 334.153 332.96 334.242C332.992 334.331 333.005 334.425 332.998 334.519L332.88 336.602C332.867 336.801 332.78 336.987 332.635 337.124C332.49 337.26 332.298 337.337 332.098 337.339Z" fill="#263238"/>
<path d="M357.208 337.339H348.011C347.916 337.34 347.821 337.322 347.734 337.285C347.646 337.248 347.567 337.193 347.502 337.123C347.437 337.054 347.387 336.972 347.356 336.882C347.325 336.792 347.314 336.697 347.322 336.602L347.44 334.519C347.454 334.322 347.543 334.138 347.688 334.003C347.833 333.868 348.023 333.792 348.221 333.791H357.409C357.505 333.788 357.599 333.805 357.687 333.842C357.776 333.878 357.855 333.932 357.921 334C357.987 334.069 358.037 334.151 358.069 334.24C358.101 334.329 358.114 334.424 358.107 334.519L357.981 336.602C357.97 336.8 357.884 336.986 357.741 337.123C357.597 337.26 357.407 337.337 357.208 337.339Z" fill="#263238"/>
<path d="M382.309 337.339H373.121C373.025 337.34 372.93 337.322 372.842 337.285C372.754 337.248 372.675 337.193 372.609 337.123C372.544 337.054 372.493 336.972 372.461 336.882C372.429 336.793 372.416 336.697 372.423 336.602L372.549 334.519C372.562 334.322 372.649 334.138 372.792 334.003C372.936 333.868 373.125 333.792 373.323 333.791H382.519C382.614 333.789 382.708 333.807 382.795 333.844C382.882 333.881 382.96 333.935 383.025 334.003C383.09 334.072 383.14 334.153 383.171 334.242C383.203 334.331 383.216 334.425 383.209 334.519L383.091 336.602C383.078 336.801 382.99 336.987 382.845 337.124C382.7 337.26 382.509 337.337 382.309 337.339Z" fill="#263238"/>
<path d="M407.419 337.339H398.222C398.127 337.34 398.032 337.322 397.945 337.285C397.857 337.247 397.778 337.192 397.713 337.123C397.648 337.054 397.598 336.971 397.567 336.882C397.536 336.792 397.525 336.697 397.533 336.602L397.651 334.519C397.665 334.322 397.754 334.138 397.899 334.003C398.044 333.868 398.234 333.792 398.432 333.791H407.62C407.715 333.79 407.808 333.809 407.895 333.846C407.982 333.883 408.061 333.938 408.126 334.006C408.191 334.074 408.242 334.154 408.275 334.242C408.308 334.331 408.323 334.425 408.318 334.519L408.192 336.602C408.181 336.8 408.095 336.986 407.952 337.123C407.808 337.26 407.617 337.337 407.419 337.339Z" fill="#263238"/>
<path d="M432.52 337.339H423.332C423.236 337.34 423.141 337.322 423.053 337.285C422.965 337.248 422.886 337.193 422.82 337.123C422.755 337.054 422.704 336.972 422.672 336.882C422.64 336.793 422.627 336.697 422.634 336.602L422.752 334.519C422.777 334.326 422.869 334.148 423.011 334.015C423.154 333.882 423.339 333.803 423.534 333.791H432.73C432.825 333.789 432.918 333.807 433.006 333.844C433.093 333.881 433.171 333.935 433.236 334.003C433.301 334.072 433.351 334.153 433.382 334.242C433.414 334.331 433.426 334.425 433.419 334.519L433.302 336.602C433.289 336.801 433.201 336.987 433.056 337.124C432.911 337.26 432.72 337.337 432.52 337.339Z" fill="#263238"/>
<path d="M451.762 204.644H432.755C432.66 204.645 432.566 204.625 432.479 204.588C432.392 204.55 432.314 204.495 432.249 204.426C432.185 204.357 432.135 204.275 432.103 204.186C432.072 204.097 432.059 204.002 432.066 203.908L432.184 201.824C432.207 201.63 432.298 201.45 432.441 201.315C432.584 201.181 432.769 201.1 432.966 201.088H451.972C452.067 201.088 452.162 201.107 452.249 201.144C452.337 201.182 452.416 201.237 452.481 201.306C452.546 201.375 452.597 201.456 452.629 201.546C452.662 201.635 452.676 201.73 452.67 201.824L452.544 203.908C452.531 204.106 452.443 204.293 452.298 204.429C452.153 204.566 451.962 204.643 451.762 204.644Z" fill="#263238"/>
<path d="M218.025 210.401H190.132C189.997 210.403 189.862 210.376 189.737 210.323C189.612 210.271 189.5 210.193 189.407 210.094C189.313 209.996 189.242 209.88 189.196 209.752C189.15 209.625 189.131 209.49 189.14 209.355L189.3 206.56C189.319 206.279 189.444 206.015 189.65 205.821C189.855 205.627 190.127 205.518 190.41 205.514H218.31C218.446 205.513 218.581 205.539 218.706 205.592C218.831 205.645 218.943 205.723 219.036 205.821C219.129 205.919 219.201 206.036 219.247 206.163C219.293 206.29 219.312 206.425 219.302 206.56L219.134 209.355C219.115 209.637 218.99 209.9 218.785 210.094C218.579 210.288 218.308 210.398 218.025 210.401Z" fill="#263238"/>
<path d="M235.081 255.339H187.476C187.348 255.34 187.221 255.315 187.103 255.266C186.986 255.216 186.879 255.142 186.792 255.049C186.704 254.956 186.637 254.846 186.594 254.726C186.551 254.606 186.534 254.479 186.543 254.352L186.677 251.958C186.696 251.692 186.815 251.443 187.01 251.261C187.204 251.078 187.461 250.974 187.728 250.971H235.325C235.453 250.969 235.58 250.994 235.699 251.044C235.817 251.094 235.923 251.167 236.012 251.26C236.1 251.353 236.168 251.463 236.212 251.583C236.256 251.703 236.274 251.831 236.266 251.958L236.123 254.352C236.106 254.617 235.99 254.865 235.796 255.048C235.603 255.232 235.348 255.335 235.081 255.339Z" fill="#263238"/>
<path d="M221.093 271.69H186.526C186.399 271.692 186.273 271.667 186.156 271.617C186.038 271.568 185.933 271.495 185.845 271.403C185.758 271.311 185.69 271.202 185.647 271.083C185.603 270.964 185.585 270.838 185.593 270.711L185.736 268.318C185.761 268.059 185.881 267.818 186.074 267.642C186.266 267.466 186.517 267.367 186.778 267.364H221.345C221.473 267.362 221.6 267.387 221.718 267.437C221.836 267.487 221.942 267.561 222.03 267.654C222.117 267.746 222.185 267.856 222.228 267.976C222.27 268.097 222.288 268.224 222.278 268.351L222.144 270.711C222.127 270.977 222.008 271.226 221.813 271.408C221.618 271.59 221.36 271.691 221.093 271.69Z" fill="#263238"/>
<path d="M213.603 288.05H185.585C185.457 288.052 185.33 288.027 185.212 287.977C185.094 287.927 184.988 287.853 184.9 287.761C184.813 287.668 184.745 287.558 184.702 287.438C184.66 287.318 184.642 287.19 184.652 287.063L184.786 284.678C184.805 284.412 184.924 284.163 185.118 283.98C185.313 283.797 185.569 283.694 185.837 283.69H213.855C213.983 283.69 214.109 283.716 214.226 283.766C214.344 283.817 214.449 283.89 214.537 283.983C214.624 284.075 214.692 284.185 214.735 284.304C214.778 284.424 214.796 284.551 214.788 284.678L214.645 287.063C214.628 287.328 214.512 287.577 214.318 287.76C214.125 287.943 213.87 288.047 213.603 288.05Z" fill="#263238"/>
<path d="M225.952 304.41H184.643C184.515 304.411 184.388 304.386 184.27 304.336C184.153 304.287 184.046 304.213 183.959 304.12C183.871 304.027 183.804 303.917 183.761 303.797C183.718 303.677 183.701 303.549 183.71 303.422L183.844 301.029C183.863 300.763 183.982 300.514 184.177 300.331C184.371 300.149 184.628 300.045 184.895 300.042H226.204C226.332 300.04 226.459 300.065 226.577 300.115C226.694 300.165 226.801 300.238 226.888 300.331C226.976 300.424 227.043 300.534 227.086 300.654C227.129 300.774 227.146 300.902 227.137 301.029L227.002 303.422C226.984 303.688 226.865 303.937 226.67 304.12C226.476 304.303 226.219 304.406 225.952 304.41Z" fill="#263238"/>
<path d="M211.215 231.171H188.93C188.795 231.173 188.66 231.146 188.535 231.093C188.41 231.041 188.298 230.963 188.204 230.864C188.111 230.766 188.039 230.65 187.994 230.522C187.948 230.395 187.929 230.26 187.938 230.125L188.106 227.33C188.125 227.05 188.249 226.788 188.453 226.594C188.657 226.4 188.926 226.29 189.208 226.284H211.51C211.645 226.283 211.78 226.309 211.905 226.362C212.03 226.415 212.142 226.493 212.236 226.591C212.329 226.689 212.4 226.806 212.446 226.933C212.492 227.06 212.511 227.195 212.502 227.33L212.333 230.125C212.314 230.408 212.188 230.673 211.981 230.867C211.774 231.061 211.5 231.17 211.215 231.171Z" fill="#263238"/>
<path d="M205.659 327.539H183.365C183.23 327.541 183.095 327.514 182.97 327.462C182.845 327.409 182.733 327.331 182.639 327.232C182.546 327.134 182.475 327.018 182.429 326.891C182.383 326.763 182.364 326.628 182.373 326.493L182.533 323.698C182.552 323.417 182.677 323.153 182.882 322.959C183.088 322.766 183.36 322.656 183.643 322.652H205.945C206.08 322.651 206.214 322.677 206.339 322.73C206.463 322.783 206.575 322.861 206.668 322.96C206.76 323.058 206.831 323.175 206.876 323.302C206.921 323.429 206.939 323.564 206.928 323.698L206.768 326.493C206.749 326.775 206.625 327.039 206.419 327.232C206.213 327.426 205.942 327.536 205.659 327.539Z" fill="#263238"/>
<path d="M370.288 248.686H330.442L332.737 208.979H372.575L370.288 248.686Z" fill="white"/>
<path d="M370.288 248.954H330.451C330.419 248.955 330.387 248.949 330.357 248.938C330.327 248.926 330.301 248.908 330.278 248.885C330.256 248.862 330.239 248.835 330.228 248.805C330.217 248.775 330.213 248.743 330.215 248.711L332.51 209.004C332.514 208.946 332.54 208.892 332.582 208.852C332.624 208.811 332.679 208.788 332.737 208.786H372.617C372.649 208.785 372.68 208.792 372.709 208.805C372.739 208.818 372.764 208.837 372.785 208.862C372.807 208.883 372.825 208.909 372.837 208.938C372.848 208.967 372.853 208.998 372.852 209.029L370.557 248.736C370.556 248.769 370.549 248.801 370.534 248.831C370.52 248.86 370.499 248.886 370.473 248.907C370.448 248.928 370.418 248.943 370.386 248.951C370.354 248.959 370.321 248.96 370.288 248.954ZM330.686 248.493H370.095L372.356 209.246H332.956L330.686 248.493Z" fill="#263238"/>
<path d="M303.155 259.866H298.96L299.204 255.682H303.399L303.155 259.866Z" fill="white"/>
<path d="M303.155 260.092H298.952C298.89 260.089 298.831 260.066 298.784 260.025C298.743 259.975 298.722 259.913 298.725 259.849L298.969 255.665C298.971 255.606 298.996 255.551 299.038 255.51C299.081 255.47 299.137 255.447 299.196 255.447H303.399C303.431 255.447 303.462 255.454 303.491 255.467C303.52 255.48 303.546 255.499 303.567 255.523C303.589 255.544 303.606 255.57 303.616 255.599C303.626 255.628 303.63 255.659 303.626 255.69L303.382 259.874C303.382 259.903 303.376 259.932 303.365 259.959C303.353 259.986 303.336 260.011 303.315 260.031C303.294 260.051 303.269 260.067 303.241 260.078C303.214 260.088 303.185 260.093 303.155 260.092ZM299.204 259.64H302.937L303.155 255.916H299.423L299.204 259.64Z" fill="#263238"/>
<path d="M410.126 248.686H370.288L372.575 208.979H412.42L410.126 248.686Z" fill="white"/>
<path d="M410.125 248.954H370.288C370.256 248.955 370.224 248.95 370.194 248.938C370.165 248.926 370.138 248.908 370.116 248.885C370.093 248.862 370.076 248.835 370.065 248.805C370.055 248.775 370.05 248.743 370.053 248.711L372.348 209.004C372.35 208.972 372.358 208.94 372.373 208.911C372.388 208.883 372.409 208.857 372.434 208.837C372.459 208.816 372.489 208.801 372.52 208.793C372.551 208.784 372.584 208.782 372.617 208.787H412.454C412.486 208.786 412.518 208.792 412.547 208.805C412.576 208.818 412.602 208.838 412.622 208.862C412.645 208.883 412.662 208.91 412.674 208.938C412.686 208.967 412.691 208.998 412.689 209.029L410.394 248.736C410.394 248.769 410.386 248.802 410.372 248.831C410.357 248.861 410.336 248.887 410.311 248.907C410.285 248.928 410.255 248.943 410.223 248.951C410.191 248.959 410.158 248.96 410.125 248.954ZM370.532 248.494H409.907L412.168 209.247H372.793L370.532 248.494Z" fill="#263238"/>
<path d="M449.963 248.686H410.125L412.42 208.979H452.258L449.963 248.686Z" fill="white"/>
<path d="M449.955 248.954H410.126C410.094 248.954 410.064 248.949 410.035 248.937C410.006 248.926 409.98 248.909 409.957 248.887C409.914 248.838 409.89 248.776 409.89 248.711L412.185 209.004C412.189 208.946 412.215 208.892 412.257 208.852C412.299 208.812 412.354 208.789 412.412 208.787H452.258C452.288 208.787 452.319 208.794 452.346 208.807C452.374 208.82 452.398 208.839 452.418 208.862C452.44 208.883 452.458 208.909 452.47 208.938C452.481 208.967 452.486 208.998 452.485 209.029L450.19 248.736C450.189 248.766 450.182 248.795 450.17 248.822C450.157 248.849 450.139 248.874 450.118 248.894C450.096 248.914 450.07 248.93 450.042 248.94C450.014 248.95 449.984 248.955 449.955 248.954ZM410.361 248.494H449.736L452.006 209.247H412.631L410.361 248.494Z" fill="#263238"/>
<path d="M475.4 187.414H272.27C272.21 187.414 272.153 187.39 272.11 187.348C272.067 187.305 272.043 187.248 272.043 187.188C272.043 187.127 272.067 187.069 272.109 187.025C272.152 186.981 272.209 186.956 272.27 186.954H475.4C475.461 186.956 475.519 186.981 475.561 187.025C475.604 187.069 475.627 187.127 475.627 187.188C475.627 187.248 475.603 187.305 475.561 187.348C475.518 187.39 475.461 187.414 475.4 187.414Z" fill="#263238"/>
<path d="M439.976 265.883H298.641C298.61 265.883 298.58 265.87 298.558 265.848C298.536 265.826 298.523 265.797 298.523 265.766C298.531 265.741 298.547 265.72 298.569 265.707C298.59 265.693 298.616 265.687 298.641 265.69H439.976C440.005 265.69 440.033 265.702 440.054 265.722C440.074 265.743 440.086 265.77 440.086 265.799C440.08 265.823 440.066 265.845 440.046 265.86C440.026 265.875 440.001 265.883 439.976 265.883Z" fill="#263238"/>
<path d="M439.245 278.51H297.893C297.862 278.51 297.832 278.498 297.81 278.476C297.788 278.454 297.775 278.424 297.775 278.393C297.775 278.362 297.788 278.332 297.81 278.31C297.832 278.288 297.862 278.276 297.893 278.276H439.245C439.276 278.276 439.306 278.288 439.328 278.31C439.35 278.332 439.363 278.362 439.363 278.393C439.363 278.424 439.35 278.454 439.328 278.476C439.306 278.498 439.276 278.51 439.245 278.51Z" fill="#263238"/>
<path d="M438.514 291.13H297.162C297.133 291.13 297.105 291.118 297.084 291.098C297.064 291.077 297.052 291.05 297.052 291.021C297.051 291.006 297.053 290.991 297.058 290.977C297.063 290.963 297.071 290.95 297.081 290.939C297.091 290.928 297.104 290.919 297.118 290.913C297.132 290.907 297.147 290.904 297.162 290.904H438.514C438.545 290.904 438.575 290.916 438.597 290.938C438.619 290.96 438.631 290.99 438.631 291.021C438.631 291.036 438.628 291.051 438.622 291.065C438.616 291.078 438.607 291.091 438.596 291.101C438.585 291.111 438.572 291.119 438.558 291.124C438.544 291.129 438.529 291.131 438.514 291.13Z" fill="#263238"/>
<path d="M437.782 303.757H296.43C296.415 303.757 296.4 303.754 296.386 303.748C296.372 303.742 296.36 303.733 296.35 303.722C296.339 303.711 296.332 303.698 296.327 303.684C296.322 303.67 296.32 303.655 296.321 303.64C296.321 303.611 296.332 303.583 296.353 303.563C296.373 303.543 296.401 303.531 296.43 303.531H437.782C437.797 303.53 437.812 303.532 437.827 303.537C437.841 303.542 437.854 303.55 437.865 303.56C437.876 303.57 437.885 303.582 437.891 303.596C437.897 303.61 437.9 303.625 437.9 303.64C437.9 303.671 437.887 303.701 437.865 303.723C437.843 303.745 437.813 303.757 437.782 303.757Z" fill="#263238"/>
<path d="M437.051 316.385H295.707C295.676 316.385 295.646 316.372 295.624 316.35C295.602 316.328 295.59 316.299 295.59 316.268C295.59 316.236 295.602 316.207 295.624 316.185C295.646 316.163 295.676 316.15 295.707 316.15H437.051C437.082 316.15 437.112 316.163 437.134 316.185C437.156 316.207 437.169 316.236 437.169 316.268C437.169 316.299 437.156 316.328 437.134 316.35C437.112 316.372 437.082 316.385 437.051 316.385Z" fill="#263238"/>
<path d="M436.328 329.012H294.976C294.945 329.012 294.915 329 294.893 328.978C294.871 328.956 294.858 328.926 294.858 328.895C294.858 328.864 294.871 328.834 294.893 328.812C294.915 328.79 294.945 328.778 294.976 328.778H436.328C436.343 328.778 436.358 328.781 436.372 328.787C436.386 328.793 436.398 328.802 436.408 328.813C436.419 328.824 436.426 328.837 436.431 328.851C436.436 328.865 436.438 328.88 436.437 328.895C436.437 328.925 436.426 328.953 436.406 328.975C436.385 328.997 436.358 329.01 436.328 329.012Z" fill="#263238"/>
<path d="M340.244 216.82H336.049L336.293 212.644H340.488L340.244 216.82Z" fill="white"/>
<path d="M340.244 217.054H336.041C335.98 217.051 335.922 217.024 335.881 216.979C335.859 216.957 335.842 216.931 335.83 216.902C335.818 216.873 335.813 216.842 335.814 216.811L336.058 212.627C336.062 212.57 336.087 212.515 336.129 212.475C336.171 212.435 336.226 212.412 336.285 212.41H340.488C340.52 212.409 340.551 212.415 340.581 212.428C340.61 212.441 340.635 212.461 340.656 212.485C340.677 212.507 340.694 212.533 340.704 212.562C340.714 212.591 340.718 212.622 340.715 212.652L340.479 216.837C340.475 216.896 340.448 216.951 340.405 216.992C340.361 217.032 340.304 217.054 340.244 217.054ZM336.293 216.594H340.025L340.244 212.87H336.512L336.293 216.594Z" fill="#263238"/>
<path d="M379.997 216.82H375.811L376.046 212.644H380.241L379.997 216.82Z" fill="white"/>
<path d="M379.997 217.054H375.794C375.73 217.052 375.67 217.025 375.626 216.979C375.604 216.957 375.586 216.931 375.575 216.902C375.563 216.873 375.558 216.842 375.559 216.811L375.802 212.627C375.807 212.57 375.832 212.515 375.874 212.475C375.916 212.435 375.971 212.412 376.029 212.41H380.233C380.265 212.409 380.296 212.415 380.325 212.428C380.355 212.441 380.38 212.461 380.401 212.485C380.422 212.507 380.439 212.533 380.449 212.562C380.459 212.591 380.463 212.622 380.46 212.652L380.224 216.837C380.22 216.894 380.195 216.949 380.153 216.989C380.111 217.029 380.055 217.052 379.997 217.054ZM376.055 216.594H379.787L379.997 212.87H376.265L376.055 216.594Z" fill="#263238"/>
<path d="M419.835 216.82H415.648L415.884 212.644H420.079L419.835 216.82Z" fill="white"/>
<path d="M419.835 217.054H415.632C415.568 217.052 415.508 217.025 415.464 216.979C415.441 216.957 415.424 216.931 415.412 216.902C415.401 216.873 415.395 216.842 415.396 216.811L415.64 212.627C415.644 212.57 415.67 212.515 415.712 212.475C415.754 212.435 415.809 212.412 415.867 212.41H420.07C420.102 212.409 420.134 212.415 420.163 212.428C420.192 212.441 420.218 212.461 420.238 212.485C420.26 212.507 420.276 212.533 420.286 212.562C420.297 212.591 420.3 212.622 420.297 212.652L420.062 216.837C420.058 216.894 420.032 216.949 419.99 216.989C419.948 217.029 419.893 217.052 419.835 217.054ZM415.892 216.594H419.625L419.835 212.87H416.102L415.892 216.594Z" fill="#263238"/>
</g>
<path d="M309.166 328.895H296.615L297.12 320.083H309.67L309.166 328.895Z" fill="#515B60"/>
<path d="M321.716 328.895H309.166L310.301 309.18H322.86L321.716 328.895Z" fill="#515B60"/>
<path d="M334.267 328.895H321.716L323.599 296.276H336.15L334.267 328.895Z" fill="#515B60"/>
<path d="M346.818 328.895H334.267L336.781 285.506H349.331L346.818 328.895Z" fill="#515B60"/>
<path d="M359.377 328.895H346.818L349.558 281.498H362.109L359.377 328.895Z" fill="#515B60"/>
<path d="M371.927 328.895H359.376L361.789 287.046H374.348L371.927 328.895Z" fill="#515B60"/>
<path d="M384.478 328.895H371.927L374.205 289.464H386.756L384.478 328.895Z" fill="#515B60"/>
<path d="M397.028 328.895H384.478L386.983 285.506H399.542L397.028 328.895Z" fill="#515B60"/>
<path d="M409.587 328.895H397.028L399.029 294.326H411.58L409.587 328.895Z" fill="#515B60"/>
<path d="M422.138 328.895H409.587L412.294 281.983H424.845L422.138 328.895Z" fill="#515B60"/>
<path d="M434.689 328.895H422.138L425.442 271.724H437.992L434.689 328.895Z" fill="#515B60"/>
<path d="M330.442 248.686H290.604L292.899 208.979H332.737L330.442 248.686Z" fill="#01245B"/>
<path d="M330.451 248.954H290.605C290.545 248.953 290.487 248.929 290.445 248.887C290.422 248.864 290.404 248.836 290.393 248.806C290.381 248.776 290.376 248.743 290.378 248.711L292.673 209.004C292.677 208.946 292.702 208.892 292.744 208.852C292.786 208.811 292.841 208.788 292.9 208.786H332.737C332.769 208.785 332.801 208.792 332.83 208.805C332.859 208.818 332.885 208.837 332.905 208.862C332.948 208.907 332.972 208.967 332.972 209.029L330.678 248.736C330.675 248.794 330.651 248.85 330.608 248.89C330.566 248.931 330.509 248.954 330.451 248.954ZM290.848 248.493H330.232L332.493 209.246H293.118L290.848 248.493Z" fill="#01245B"/>
<path d="M300.322 217.054H296.119C296.058 217.051 296.001 217.024 295.959 216.979C295.937 216.957 295.92 216.931 295.908 216.902C295.897 216.873 295.891 216.842 295.892 216.811L296.136 212.627C296.14 212.57 296.166 212.515 296.207 212.475C296.249 212.435 296.305 212.412 296.363 212.41H300.566C300.598 212.409 300.63 212.415 300.659 212.428C300.688 212.441 300.714 212.461 300.734 212.485C300.756 212.507 300.772 212.533 300.782 212.562C300.793 212.591 300.796 212.622 300.793 212.652L300.558 216.837C300.553 216.896 300.527 216.951 300.483 216.992C300.439 217.032 300.382 217.054 300.322 217.054ZM296.371 216.594H300.104L300.322 212.87H296.59L296.371 216.594Z" fill="white"/>
<path d="M227.188 256.569L226.154 257.891L225.036 259.364C224.296 260.368 223.548 261.372 222.85 262.393C221.421 264.435 220.109 266.519 218.941 268.577C218.353 269.615 217.815 270.652 217.344 271.673C216.861 272.656 216.435 273.664 216.066 274.694C215.41 276.419 215.003 278.228 214.855 280.067L214.25 277.556C214.755 279.063 215.267 280.636 215.931 282.217C216.596 283.799 217.243 285.439 218.016 287.054C218.79 288.669 219.538 290.334 220.328 292C221.118 293.665 222.009 295.347 222.69 297.021L222.841 297.364C223.239 298.26 223.329 299.261 223.097 300.214C222.865 301.166 222.324 302.015 221.558 302.63C220.792 303.245 219.844 303.591 218.86 303.615C217.876 303.638 216.912 303.338 216.116 302.761C214.418 301.539 212.798 300.211 211.266 298.786C209.753 297.389 208.324 295.908 206.928 294.351C205.535 292.765 204.227 291.105 203.011 289.381C201.744 287.581 200.598 285.7 199.581 283.749C199.301 283.196 199.122 282.598 199.052 281.983L198.976 281.213C198.615 277.469 198.934 273.69 199.917 270.058C200.749 266.819 201.912 263.672 203.389 260.669C204.77 257.835 206.351 255.103 208.122 252.493C208.963 251.205 209.879 249.941 210.837 248.719C211.316 248.109 211.796 247.498 212.3 246.895L213.073 245.983L213.956 244.996C215.464 243.283 217.583 242.223 219.863 242.04C222.144 241.857 224.406 242.567 226.17 244.017C227.933 245.468 229.06 247.546 229.309 249.81C229.559 252.073 228.912 254.345 227.507 256.142L227.188 256.569Z" fill="#B65B52"/>
<path d="M223.615 235.983C215.797 238.359 207.929 250.962 207.929 250.962C208.055 255.69 215.04 266.728 220.278 269.288C224.149 266.29 227.104 262.276 228.81 257.698C231.643 249.673 227.507 237.347 223.615 235.983Z" fill="#01245B"/>
<path d="M220.908 296.334L216.259 298.393C212.476 302.142 218.151 306.159 218.151 306.159L220.101 309.188C220.474 309.698 221.015 310.062 221.629 310.215C222.244 310.368 222.894 310.301 223.464 310.025L226.717 308.602C227.4 308.347 227.957 307.838 228.27 307.183C228.584 306.527 228.63 305.776 228.398 305.088L227.188 302.175C226.814 301.332 226.236 300.593 225.506 300.025L220.908 296.334Z" fill="#B55B52"/>
<path d="M251.566 236.343C250.84 234.932 249.655 233.807 248.203 233.155C247.658 231.75 247.617 230.201 248.086 228.77L231.567 223.531C232.904 228.971 233.946 233.263 231.92 235.899C235.165 237.874 241.117 241.422 247.606 241.238C254.096 241.054 252.625 238.627 251.566 236.343Z" fill="#B55B52"/>
<path d="M249.977 213.222C250.095 213.849 250.523 214.293 250.944 214.209C251.364 214.125 251.591 213.556 251.473 212.929C251.356 212.301 250.927 211.849 250.515 211.933C250.103 212.017 249.885 212.586 249.977 213.222Z" fill="#263238"/>
<path d="M250.431 214.125L251.381 219.43C252.019 219.443 252.655 219.353 253.264 219.163C253.384 219.119 253.49 219.043 253.57 218.943C253.65 218.844 253.702 218.724 253.719 218.598C253.737 218.471 253.719 218.343 253.668 218.226C253.618 218.108 253.536 218.007 253.432 217.933C252.193 216.869 251.174 215.576 250.431 214.125Z" fill="#A02724"/>
<path d="M251.087 209.389C251.061 209.445 251.021 209.494 250.971 209.531C250.921 209.567 250.863 209.591 250.801 209.598C250.331 209.659 249.882 209.831 249.492 210.099C249.102 210.366 248.781 210.723 248.556 211.138C248.537 211.183 248.509 211.225 248.473 211.259C248.438 211.294 248.396 211.321 248.349 211.339C248.303 211.357 248.254 211.365 248.204 211.364C248.154 211.362 248.106 211.351 248.06 211.33C247.969 211.288 247.897 211.212 247.861 211.118C247.825 211.025 247.827 210.92 247.867 210.828C248.144 210.299 248.544 209.843 249.034 209.5C249.524 209.156 250.089 208.934 250.683 208.853C250.732 208.845 250.783 208.847 250.831 208.858C250.88 208.87 250.926 208.891 250.966 208.921C251.006 208.951 251.039 208.988 251.065 209.031C251.09 209.074 251.106 209.122 251.112 209.171C251.129 209.245 251.12 209.321 251.087 209.389Z" fill="#263238"/>
<path d="M228.331 215.205C230.298 222.284 231.803 227.054 236.939 229.33C247.136 233.849 251.7 229.054 252.07 221.581C252.39 214.887 249.111 204.41 240.924 202.887C232.736 201.364 226.347 208.125 228.331 215.205Z" fill="#B55B52"/>
<path d="M227.658 417.439L216.184 417.548L215.679 431.715L225.262 431.64L227.658 417.439Z" fill="#B55B52"/>
<path d="M214.763 363.263C213.796 345.079 214.175 311.908 220.294 303.539L256.173 302.703C256.173 302.703 244.748 348.293 241.823 365.272C238.78 382.92 226.187 426.142 226.187 426.142L215.89 425.824C215.89 425.824 209.862 384.016 214.763 363.263Z" fill="#263238"/>
<path d="M273.12 417.439L261.67 417.548L264.276 431.715L273.842 431.64L273.12 417.439Z" fill="#B55B52"/>
<path d="M263.948 436.108H266.386L266.815 435.046L268.328 436.117H282.358C282.153 434.826 281.668 433.595 280.938 432.51C280.938 432.51 277.121 432.075 274.91 429.732C274.842 429.644 274.751 429.577 274.648 429.536C274.544 429.494 274.432 429.481 274.322 429.497C272.926 429.824 267.37 431.004 263.898 429.765C263.822 429.729 263.736 429.716 263.653 429.727C263.569 429.739 263.49 429.774 263.426 429.829C263.362 429.884 263.315 429.956 263.292 430.037C263.268 430.118 263.268 430.203 263.293 430.284C263.652 432.207 263.871 434.154 263.948 436.108Z" fill="#263238"/>
<path d="M247.833 363.263C242.79 345.079 235.35 311.908 239.595 303.539L276.062 302.703C276.062 302.703 274.456 348.293 275.339 365.263C276.264 382.912 273.557 426.134 273.557 426.134L263.318 426.552C263.318 426.552 247.59 384.016 247.833 363.263Z" fill="#263238"/>
<path opacity="0.2" d="M238.603 307.154C229.735 308.234 222.177 309.439 217.529 310.234C214.082 323.355 213.964 348.351 214.763 363.263C214.612 363.907 214.477 364.569 214.343 365.246C222.926 368.594 232.189 367.246 241.882 364.937C242.512 361.322 243.504 356.493 244.69 351.104C240.907 335.472 237.326 316.401 238.603 307.154Z" fill="black"/>
<path opacity="0.2" d="M275.482 322.736C273.397 312.594 271.119 304.745 271.119 304.745C265.974 304.812 260.687 305.079 255.483 305.473C253.609 313.004 248.296 334.644 244.689 351.104C245.757 355.531 246.841 359.69 247.833 363.263V363.448C256.694 361.155 265.857 358.711 275.137 358.778C274.961 348.678 275.204 334.368 275.482 322.736Z" fill="black"/>
<path d="M253.306 234.108C245.231 233.559 237.127 233.623 229.062 234.301C226.865 234.505 224.735 235.16 222.804 236.223C220.873 237.286 219.184 238.734 217.842 240.478C216.501 242.221 215.535 244.222 215.007 246.355C214.478 248.487 214.398 250.705 214.771 252.87C218.815 276.719 216.192 294.359 218.63 303.539C218.63 303.539 255.828 304.192 277.474 302.702C279.029 277.497 273.456 272.242 267.008 245.665C265.554 239.748 259.4 234.543 253.306 234.108Z" fill="#01245B"/>
<path d="M277.457 302.703C277.457 302.703 284.653 340.602 279.206 357.247C254.827 353.272 229.272 368.962 210.711 354.803C211.4 334.644 215.158 309.732 218.588 303.54C218.588 303.54 250.322 300.485 277.457 302.703Z" fill="#263238"/>
<mask id="mask0_915_285" style="mask-type:luminance" maskUnits="userSpaceOnUse" x="210" y="301" width="72" height="60">
<path d="M277.457 302.703C277.457 302.703 284.653 340.602 279.206 357.247C254.827 353.272 229.272 368.962 210.711 354.803C211.4 334.644 215.158 309.732 218.588 303.54C218.588 303.54 250.322 300.485 277.457 302.703Z" fill="white"/>
</mask>
<g mask="url(#mask0_915_285)">
<path opacity="0.2" d="M218.781 380.661L214.469 381.063C225.96 350.937 213.679 325.933 224.077 301.565L227.742 301.272C217.529 325.607 230.004 350.577 218.781 380.661Z" fill="white"/>
<path opacity="0.2" d="M232.584 379.364L228.297 379.765C238.973 349.782 226.078 324.887 235.863 300.627L239.511 300.334C229.928 324.56 243.017 349.422 232.584 379.364Z" fill="white"/>
<path opacity="0.2" d="M246.337 378.075L242.067 378.477C251.952 348.636 238.435 323.849 247.539 299.69L251.179 299.397C242.319 323.523 255.971 348.276 246.337 378.075Z" fill="white"/>
<path opacity="0.2" d="M260.023 376.786L255.777 377.188C264.865 347.489 250.734 322.795 259.207 298.753L262.83 298.46C254.567 322.485 268.874 347.129 260.023 376.786Z" fill="white"/>
<path opacity="0.2" d="M273.649 375.514L269.446 375.908C277.76 346.343 263.032 321.782 270.858 297.824L274.464 297.54C266.806 321.456 281.711 346.025 273.649 375.514Z" fill="white"/>
<path opacity="0.2" d="M212.292 314.544C212.527 313.238 212.813 311.933 213.132 310.627L280.626 305.129C280.483 306.401 280.391 307.682 280.341 308.954L212.292 314.544Z" fill="white"/>
<path opacity="0.2" d="M211.022 327.473C211.022 326.109 211.132 324.745 211.224 323.389L280.576 317.59C280.677 318.912 280.811 320.243 280.963 321.573L211.022 327.473Z" fill="white"/>
<path opacity="0.2" d="M210.989 341.004C210.989 339.565 210.989 338.134 210.989 336.711L282.257 330.585C282.476 331.966 282.694 333.364 282.913 334.77L210.989 341.004Z" fill="white"/>
<path opacity="0.2" d="M210.703 355.381C210.804 353.849 210.871 352.326 210.913 350.812L284.216 344.326C284.384 345.799 284.535 347.28 284.661 348.778L210.703 355.381Z" fill="white"/>
<path opacity="0.2" d="M208.517 370.77C208.904 369.096 209.234 367.459 209.509 365.858L284.989 358.979C284.95 360.558 284.858 362.153 284.712 363.766L208.517 370.77Z" fill="white"/>
</g>
<path d="M268.227 243.481C268.168 243.414 268.227 243.422 268.227 243.422L268.286 243.472L268.437 243.615L268.807 243.949C269.068 244.184 269.337 244.426 269.648 244.669C270.219 245.146 270.816 245.648 271.438 246.108C272.671 247.028 273.963 247.867 275.305 248.619C276.617 249.386 277.982 250.057 279.391 250.627C280.815 251.16 282.279 251.58 283.77 251.882L280.173 252.426C281.618 252.008 283.165 251.481 284.754 250.929C286.343 250.376 287.99 249.765 289.63 249.121L294.673 247.221C296.355 246.611 298.112 245.941 299.818 245.405L300.02 245.347C300.953 245.053 301.958 245.071 302.881 245.397C303.803 245.723 304.594 246.34 305.132 247.154C305.671 247.969 305.927 248.936 305.863 249.908C305.799 250.881 305.418 251.806 304.778 252.544C303.494 254.009 302.133 255.405 300.701 256.728C299.288 258.05 297.817 259.297 296.296 260.518C294.774 261.74 293.185 262.895 291.513 263.991C289.773 265.141 287.962 266.181 286.091 267.104C285.309 267.493 284.443 267.686 283.569 267.665H282.484C279.891 267.622 277.31 267.305 274.784 266.719C273.523 266.418 272.262 266.067 271.043 265.657C269.824 265.247 268.631 264.753 267.471 264.217C265.145 263.151 262.929 261.862 260.855 260.368C259.816 259.62 258.817 258.818 257.862 257.966C257.375 257.531 256.895 257.088 256.425 256.611L255.702 255.857L255.323 255.447L254.836 254.878C254.086 254.002 253.516 252.988 253.16 251.893C252.804 250.798 252.667 249.644 252.759 248.497C252.851 247.35 253.169 246.231 253.695 245.206C254.22 244.181 254.944 243.269 255.824 242.523C256.703 241.776 257.722 241.209 258.822 240.854C259.922 240.5 261.082 240.364 262.234 240.455C263.387 240.547 264.51 240.863 265.54 241.386C266.569 241.91 267.485 242.63 268.236 243.506L268.227 243.481Z" fill="#B65B52"/>
<path d="M298.994 247.874L302.079 251.899C306.61 254.711 309.233 248.284 309.233 248.284L312.932 244.602C313.346 244.118 313.574 243.502 313.574 242.866C313.574 242.229 313.346 241.614 312.932 241.129L310.797 238.301C310.393 237.695 309.768 237.268 309.054 237.112C308.34 236.956 307.594 237.082 306.972 237.464L303.248 240.435C302.509 240.977 301.917 241.693 301.524 242.518L298.994 247.874Z" fill="#B55B52"/>
<path d="M253.667 234.477C261.805 235.104 272.371 245.966 272.371 245.966C273.069 249.196 272.556 261.314 266.932 265.64C266.932 265.64 257.257 265.163 253.104 258.527C248.598 251.314 245.034 233.807 253.667 234.477Z" fill="#01245B"/>
<path d="M249.481 204.652C251.852 199.916 245.455 193.523 240.545 197.958C235.636 202.393 232.063 201.506 227.936 201.849C222.488 202.309 225.019 207.598 225.019 207.598C225.019 207.598 216.117 205.924 219.748 215.088C224.077 226.008 214.276 232.544 218.798 242.853C223.321 253.163 236.166 255.171 244.505 254.008C244.505 254.008 241.983 247.665 246.959 242.853C256.996 233.138 243.597 224.945 244.706 216.209C248.842 216.954 246.522 210.51 249.481 204.652Z" fill="#263238"/>
<path d="M244.74 216.209L242.319 217.498C242.042 221.196 246.791 226.176 249.389 229.422C251.986 232.669 252.751 235.983 252.02 241.975C257.064 227.657 245.354 224.996 244.74 216.209Z" fill="#263238"/>
<path d="M242.243 217.338C242.627 218.142 243.167 218.862 243.833 219.457C244.498 220.051 245.275 220.509 246.119 220.803C248.388 221.573 249.683 219.59 249.178 217.389C248.733 215.405 247.01 212.619 244.664 212.795C244.154 212.843 243.665 213.016 243.239 213.3C242.813 213.583 242.464 213.967 242.224 214.417C241.984 214.868 241.86 215.37 241.864 215.88C241.867 216.39 241.997 216.891 242.243 217.338Z" fill="#B55B52"/>
<path d="M214.393 436.109H216.831L217.495 435.046L218.773 436.117H233.467C233.565 434.882 233.351 433.642 232.845 432.51C232.845 432.51 228.448 432.075 226.759 429.732C226.703 429.642 226.62 429.572 226.522 429.53C226.425 429.488 226.317 429.477 226.212 429.498C224.75 429.824 218.932 431.004 215.73 429.766C215.648 429.735 215.559 429.725 215.472 429.737C215.385 429.749 215.303 429.782 215.232 429.833C215.161 429.885 215.104 429.953 215.066 430.032C215.029 430.11 215.011 430.197 215.015 430.284C214.947 432.238 214.739 434.184 214.393 436.109Z" fill="#263238"/>
</g>
<defs>
<filter id="filter0_d_915_285" x="0" y="0" width="608" height="508" filterUnits="userSpaceOnUse" color-interpolation-filters="sRGB">
<feFlood flood-opacity="0" result="BackgroundImageFix"/>
<feColorMatrix in="SourceAlpha" type="matrix" values="0 0 0 0 0 0 0 0 0 0 0 0 0 0 0 0 0 0 127 0" result="hardAlpha"/>
<feOffset dy="4"/>
<feGaussianBlur stdDeviation="2"/>
<feComposite in2="hardAlpha" operator="out"/>
<feColorMatrix type="matrix" values="0 0 0 0 0 0 0 0 0 0 0 0 0 0 0 0 0 0 0.25 0"/>
<feBlend mode="normal" in2="BackgroundImageFix" result="effect1_dropShadow_915_285"/>
<feBlend mode="normal" in="SourceGraphic" in2="effect1_dropShadow_915_285" result="shape"/>
</filter>
<clipPath id="clip0_915_285">
<rect width="420.315" height="418.41" fill="white" transform="translate(106.977 81.5898)"/>
</clipPath>
</defs>
</svg>
