<svg width="600" height="500" viewBox="0 0 600 500" fill="none" xmlns="http://www.w3.org/2000/svg">
<path d="M15.8436 391.604C157.578 294.255 15.8436 86.187 15.8436 13.1988C15.8436 -59.7894 159.301 200.161 200.318 60.7407C241.334 -78.6793 507.032 300.535 581.871 391.604C734.047 576.782 -125.891 488.954 15.8436 391.604Z" fill="#07F9A2"/>
<path d="M294.697 230.118C294.137 230.119 293.582 230.024 293.054 229.839L284.575 226.882C283.742 226.589 282.999 226.081 282.421 225.41C281.844 224.738 281.451 223.926 281.282 223.054L279.584 214.176C279.417 213.303 279.482 212.402 279.772 211.562C280.061 210.722 280.566 209.974 281.234 209.393L288.021 203.479C288.69 202.897 289.5 202.503 290.368 202.334C291.236 202.165 292.134 202.228 292.97 202.517L301.456 205.48C302.291 205.771 303.036 206.278 303.615 206.95C304.194 207.622 304.588 208.436 304.756 209.309L306.447 218.179C306.612 219.052 306.548 219.954 306.259 220.794C305.971 221.635 305.469 222.385 304.804 222.97L298.01 228.883C297.09 229.683 295.913 230.121 294.697 230.118ZM286.655 221.708L294.586 224.497L300.936 218.974L299.348 210.683L291.418 207.893L285.074 213.423L286.655 221.708Z" fill="#F5F5F5"/>
<path d="M393.719 204.351C393.16 204.352 392.604 204.258 392.076 204.072L387.778 202.573C386.944 202.281 386.201 201.774 385.623 201.102C385.045 200.43 384.653 199.617 384.485 198.745L383.626 194.254C383.46 193.381 383.524 192.48 383.812 191.641C384.101 190.802 384.603 190.053 385.269 189.47L388.735 186.471C389.403 185.89 390.212 185.496 391.079 185.328C391.947 185.161 392.843 185.225 393.678 185.516L397.969 187.015C398.804 187.306 399.549 187.813 400.128 188.485C400.708 189.157 401.101 189.97 401.269 190.844L402.128 195.335C402.295 196.207 402.23 197.109 401.941 197.949C401.651 198.789 401.147 199.537 400.478 200.118L397.012 203.117C396.095 203.909 394.928 204.347 393.719 204.351ZM389.872 197.378L393.615 198.682L396.603 196.074L395.854 192.169L392.118 190.864L389.123 193.514L389.872 197.378Z" fill="#F5F5F5"/>
<path d="M512.43 270.062C511.882 270.059 511.341 269.931 510.848 269.69C510.355 269.449 509.922 269.099 509.581 268.668L507.161 265.627C506.762 265.124 506.5 264.525 506.403 263.889C506.306 263.252 506.376 262.602 506.607 262.001L507.993 258.375C508.225 257.775 508.61 257.248 509.109 256.845C509.608 256.442 510.203 256.179 510.835 256.081L514.662 255.488C515.296 255.391 515.943 255.464 516.541 255.697C517.138 255.931 517.664 256.318 518.066 256.82L520.485 259.86C520.885 260.363 521.146 260.963 521.244 261.599C521.341 262.235 521.271 262.886 521.04 263.486L519.653 267.113C519.421 267.714 519.036 268.242 518.535 268.645C518.035 269.048 517.438 269.311 516.804 269.407L512.977 270C512.797 270.035 512.614 270.056 512.43 270.062ZM515.237 258.256H515.106L511.279 258.849C511.126 258.872 510.981 258.935 510.859 259.032C510.738 259.128 510.643 259.255 510.586 259.4L509.199 263.026C509.143 263.17 509.125 263.327 509.149 263.48C509.172 263.633 509.235 263.777 509.331 263.898L511.75 266.938C511.848 267.058 511.975 267.15 512.118 267.206C512.261 267.262 512.416 267.28 512.568 267.259L516.395 266.666C516.549 266.645 516.694 266.582 516.816 266.486C516.938 266.389 517.032 266.261 517.088 266.115L518.475 262.489C518.53 262.345 518.547 262.189 518.523 262.036C518.5 261.883 518.438 261.739 518.343 261.618L515.924 258.577C515.84 258.476 515.735 258.396 515.616 258.34C515.497 258.285 515.368 258.256 515.237 258.256Z" fill="#E0E0E0"/>
<path d="M80.5546 300.369C79.8514 300.368 79.1573 300.209 78.5229 299.903C77.8884 299.598 77.3297 299.155 76.8874 298.605L71.2028 291.464C70.6926 290.816 70.3601 290.045 70.2384 289.228C70.1168 288.41 70.2103 287.575 70.5095 286.805L73.8302 278.277C74.1295 277.507 74.6244 276.829 75.2655 276.311C75.9065 275.794 76.6713 275.454 77.4835 275.327L86.4957 273.932C87.3092 273.809 88.1405 273.903 88.9068 274.204C89.6731 274.505 90.3476 275.003 90.8631 275.648L96.4991 282.775C97.0099 283.424 97.3428 284.196 97.4644 285.014C97.586 285.833 97.4922 286.669 97.1924 287.44L93.9341 295.976C93.6352 296.748 93.1397 297.428 92.4972 297.947C91.8548 298.466 91.0881 298.806 90.2738 298.932L81.2617 300.327C81.0277 300.362 80.7911 300.376 80.5546 300.369ZM75.0503 288.514L80.5962 295.487L89.4004 294.135L92.6309 285.766L87.0849 278.793L78.2808 280.153L75.0503 288.514Z" fill="#E0E0E0"/>
<path d="M103.556 237.866H98.1976C97.5591 237.868 96.9313 237.701 96.3766 237.383C95.822 237.065 95.3599 236.606 95.0364 236.052L92.3536 231.387C92.037 230.827 91.8705 230.194 91.8705 229.55C91.8705 228.905 92.037 228.272 92.3536 227.712L95.0364 223.047C95.3568 222.489 95.8176 222.025 96.3725 221.703C96.9275 221.382 97.557 221.212 98.1976 221.213H103.556C104.197 221.212 104.826 221.382 105.381 221.703C105.936 222.025 106.397 222.489 106.718 223.047L109.4 227.684C109.717 228.244 109.884 228.878 109.884 229.522C109.884 230.166 109.717 230.799 109.4 231.359L106.718 236.052C106.394 236.606 105.931 237.064 105.377 237.382C104.822 237.7 104.195 237.867 103.556 237.866ZM98.1976 223.974C98.0435 223.975 97.8922 224.015 97.7585 224.092C97.6248 224.169 97.5133 224.28 97.4351 224.414L94.7591 229.079C94.6812 229.213 94.6401 229.366 94.6401 229.522C94.6401 229.677 94.6812 229.83 94.7591 229.965L97.4351 234.658C97.513 234.792 97.6242 234.904 97.7578 234.982C97.8915 235.06 98.043 235.102 98.1976 235.104H103.556C103.713 235.105 103.868 235.064 104.004 234.986C104.14 234.907 104.254 234.794 104.333 234.658L107.009 229.993C107.087 229.858 107.128 229.705 107.128 229.55C107.128 229.394 107.087 229.241 107.009 229.107L104.333 224.414C104.255 224.28 104.143 224.169 104.009 224.092C103.876 224.015 103.724 223.975 103.57 223.974H98.1976Z" fill="#EBEBEB"/>
<path d="M194.995 185.111L184.541 178.493L171.709 156.708L153.858 145.718L150.406 149.476L152.215 151.931L157.851 159.532L180.222 189.741L189.345 194.79L194.995 185.111Z" fill="#EBEBEB"/>
<path d="M181.858 200.773L178.863 190.745L145.99 152.963L141.608 155.571L148.548 175.438L167.633 194.295L171.91 206.066L181.858 200.773Z" fill="#EBEBEB"/>
<path d="M199.667 186.979C199.667 186.979 236.79 207.475 244.27 214.392C251.75 221.31 269.227 250.118 267.452 253.8C265.678 257.482 264.319 257.984 260.291 254.413C256.263 250.843 243.244 231.108 239.75 227.914C236.257 224.72 192.763 199.092 192.763 199.092L199.667 186.979Z" fill="#E0E0E0"/>
<path d="M174.496 195.76C180.989 195.76 186.253 190.464 186.253 183.933C186.253 177.401 180.989 172.105 174.496 172.105C168.002 172.105 162.738 177.401 162.738 183.933C162.738 190.464 168.002 195.76 174.496 195.76Z" fill="#EBEBEB"/>
<path d="M171.577 195.376C172.524 195.555 173.484 195.655 174.447 195.676C175.575 195.68 176.697 195.513 177.775 195.181C180.37 194.417 182.62 192.767 184.138 190.516C185.656 188.265 186.347 185.553 186.094 182.844C185.976 181.714 185.686 180.609 185.234 179.567C185.02 179.032 184.77 178.513 184.485 178.012C184.181 177.506 183.841 177.024 183.466 176.568C181.919 174.638 179.798 173.258 177.413 172.63C175.029 172.003 172.507 172.161 170.218 173.082C169.676 173.301 169.148 173.555 168.638 173.842C168.154 174.143 167.691 174.476 167.251 174.839C166.374 175.534 165.609 176.362 164.984 177.294C163.806 179.011 163.105 181.014 162.953 183.096C162.841 184.749 163.076 186.408 163.643 187.964C164.211 189.52 165.098 190.938 166.246 192.126C167.026 192.954 167.926 193.66 168.915 194.218C169.768 194.67 170.656 195.053 171.57 195.362C171.508 195.37 171.445 195.37 171.383 195.362L170.842 195.209C170.548 195.133 170.26 195.033 169.983 194.909C169.593 194.76 169.216 194.583 168.853 194.379C167.828 193.847 166.893 193.157 166.08 192.335C164.886 191.138 163.959 189.698 163.362 188.112C162.764 186.526 162.509 184.83 162.614 183.137C162.764 180.996 163.482 178.935 164.693 177.168C165.336 176.207 166.122 175.351 167.023 174.63C167.945 173.858 168.988 173.243 170.107 172.81C172.463 171.859 175.06 171.693 177.516 172.336C179.973 172.978 182.16 174.396 183.757 176.38C184.137 176.853 184.485 177.352 184.797 177.872C185.091 178.39 185.348 178.929 185.567 179.483C186.007 180.55 186.279 181.679 186.371 182.831C186.561 184.825 186.246 186.836 185.455 188.675C184.663 190.514 183.421 192.122 181.844 193.347C180.645 194.288 179.274 194.985 177.809 195.397C176.711 195.72 175.57 195.868 174.426 195.836C174.009 195.838 173.592 195.808 173.179 195.745C172.873 195.724 172.569 195.677 172.27 195.606L171.723 195.473C171.67 195.448 171.621 195.415 171.577 195.376Z" fill="#E0E0E0"/>
<path d="M172.832 190.397C171.56 190.066 170.414 189.363 169.539 188.377C168.664 187.39 168.1 186.165 167.918 184.856C167.736 183.547 167.944 182.213 168.515 181.023C169.087 179.833 169.997 178.84 171.13 178.17C172.262 177.501 173.567 177.184 174.879 177.26C176.191 177.337 177.451 177.803 178.499 178.6C179.547 179.396 180.337 180.488 180.768 181.737C181.2 182.985 181.253 184.334 180.922 185.614C180.478 187.326 179.377 188.792 177.861 189.689C176.344 190.586 174.535 190.841 172.832 190.397Z" fill="#E0E0E0"/>
<path d="M172.832 190.397C172.832 190.348 173.407 190.537 174.447 190.537C175.692 190.525 176.908 190.16 177.955 189.484C179.002 188.808 179.839 187.848 180.367 186.715C180.852 185.656 181.048 184.486 180.936 183.326C180.81 182.047 180.31 180.834 179.501 179.839C178.636 178.765 177.452 177.997 176.122 177.65C174.792 177.302 173.386 177.392 172.111 177.908C171.506 178.134 170.941 178.46 170.44 178.87C169.947 179.265 169.519 179.736 169.172 180.265C168.513 181.223 168.118 182.339 168.028 183.5C167.952 184.514 168.113 185.532 168.499 186.471C169.058 187.85 170.062 188.999 171.348 189.735C171.829 189.996 172.324 190.229 172.832 190.432C172.288 190.336 171.763 190.15 171.279 189.881C169.927 189.169 168.861 188.009 168.263 186.597C167.845 185.622 167.662 184.56 167.73 183.5C167.808 182.28 168.211 181.102 168.894 180.09C169.249 179.534 169.686 179.036 170.191 178.612C170.719 178.173 171.313 177.822 171.952 177.573C173.297 177.025 174.781 176.928 176.186 177.294C177.59 177.661 178.84 178.473 179.75 179.609C180.613 180.656 181.146 181.938 181.283 183.291C181.391 184.51 181.173 185.735 180.652 186.841C180.197 187.798 179.525 188.634 178.69 189.281C177.482 190.222 175.988 190.715 174.461 190.676C173.906 190.676 173.356 190.581 172.832 190.397Z" fill="#E0E0E0"/>
<path d="M192.427 184.715L187.623 193.126C186.215 195.59 187.06 198.736 189.51 200.152L189.961 200.412C192.411 201.828 195.538 200.978 196.946 198.514L201.75 190.103C203.157 187.639 202.312 184.493 199.862 183.077L199.411 182.816C196.961 181.4 193.834 182.25 192.427 184.715Z" fill="#EBEBEB"/>
<path d="M187.619 193.13C187.332 193.751 187.138 194.412 187.043 195.09C186.972 195.887 187.078 196.69 187.355 197.44C187.527 197.902 187.761 198.338 188.049 198.737C188.387 199.175 188.795 199.554 189.255 199.86C189.76 200.202 190.304 200.481 190.877 200.69C191.878 201.031 192.96 201.041 193.967 200.718C194.973 200.396 195.851 199.758 196.471 198.897C198.066 196.227 199.75 193.165 201.567 190.02C201.982 189.275 202.2 188.434 202.2 187.579C202.2 186.725 201.982 185.884 201.567 185.139C201.199 184.423 200.661 183.809 200 183.354C199.359 182.9 198.636 182.578 197.872 182.405C197.164 182.261 196.433 182.273 195.73 182.442C195.027 182.61 194.369 182.931 193.802 183.381C192.714 184.211 192.236 185.473 191.598 186.492L188.742 191.373L187.951 192.691C187.868 192.85 187.768 192.999 187.653 193.137C187.722 192.97 187.801 192.807 187.889 192.649C188.076 192.315 188.319 191.861 188.624 191.303C189.317 190.104 190.225 188.43 191.397 186.373L192.312 184.741C192.649 184.132 193.099 183.592 193.636 183.151C194.23 182.671 194.921 182.326 195.661 182.14C196.401 181.955 197.171 181.934 197.92 182.077C198.721 182.253 199.479 182.585 200.153 183.054C200.89 183.518 201.499 184.164 201.92 184.93C202.374 185.731 202.612 186.637 202.612 187.559C202.612 188.48 202.374 189.386 201.92 190.188C200.097 193.347 198.454 196.359 196.783 199.086C196.324 199.705 195.736 200.217 195.061 200.586C194.386 200.956 193.64 201.174 192.874 201.227C192.18 201.267 191.486 201.172 190.828 200.948C190.238 200.72 189.677 200.42 189.158 200.055C188.677 199.73 188.253 199.327 187.903 198.863C187.61 198.431 187.377 197.962 187.21 197.468C186.978 196.836 186.874 196.163 186.905 195.49C186.936 194.817 187.101 194.157 187.39 193.549C187.454 193.403 187.531 193.263 187.619 193.13Z" fill="#E0E0E0"/>
<path d="M173.289 212.022C173.289 212.022 187.355 252.203 192.929 260.752C198.503 269.302 223.91 291.324 227.806 290.167C231.702 289.009 232.388 287.733 229.574 283.193C226.759 278.653 209.47 262.489 206.919 258.493C204.367 254.497 186.253 207.168 186.253 207.168L173.289 212.022Z" fill="#E0E0E0"/>
<path d="M181.279 201.074L172.248 204.474C169.601 205.471 168.259 208.436 169.25 211.098L169.432 211.588C170.422 214.25 173.37 215.6 176.017 214.604L185.048 211.204C187.694 210.207 189.036 207.242 188.046 204.58L187.864 204.09C186.873 201.428 183.925 200.078 181.279 201.074Z" fill="#EBEBEB"/>
<path d="M181.283 201.066C181.441 200.983 181.609 200.917 181.782 200.871C182.28 200.728 182.796 200.662 183.314 200.676C184.135 200.703 184.938 200.925 185.657 201.324C186.103 201.582 186.514 201.898 186.877 202.265C187.273 202.69 187.601 203.175 187.848 203.702C188.121 204.276 188.322 204.883 188.444 205.508C188.565 206.202 188.546 206.914 188.388 207.6C188.209 208.356 187.868 209.063 187.389 209.672C186.91 210.282 186.305 210.779 185.615 211.129C182.676 212.321 179.452 213.486 176.055 214.783C175.196 215.102 174.269 215.192 173.364 215.046C172.459 214.899 171.608 214.52 170.891 213.946C170.208 213.39 169.674 212.671 169.338 211.854C168.983 211.102 168.78 210.287 168.742 209.455C168.716 208.683 168.859 207.914 169.161 207.203C169.463 206.492 169.916 205.856 170.489 205.341C171.009 204.88 171.611 204.523 172.263 204.288L174.01 203.639L179.293 201.715L180.735 201.206C180.901 201.139 181.073 201.087 181.248 201.052C181.095 201.145 180.932 201.22 180.763 201.275L179.376 201.847L174.135 203.883C173.047 204.351 171.716 204.623 170.724 205.564C170.191 206.055 169.769 206.656 169.489 207.327C169.209 207.998 169.077 208.721 169.102 209.448C169.152 210.235 169.352 211.004 169.692 211.715C170.009 212.469 170.509 213.131 171.147 213.639C171.816 214.175 172.611 214.527 173.455 214.663C174.299 214.799 175.164 214.713 175.965 214.413C179.341 213.123 182.62 211.945 185.504 210.801C186.445 210.321 187.21 209.554 187.69 208.609C188.169 207.664 188.339 206.591 188.173 205.543C188.059 204.939 187.87 204.351 187.612 203.793C187.388 203.282 187.083 202.811 186.711 202.398C186.371 202.039 185.984 201.729 185.56 201.477C184.872 201.073 184.101 200.835 183.307 200.78C182.621 200.771 181.939 200.867 181.283 201.066Z" fill="#E0E0E0"/>
<path d="M536.055 432.336C536.055 432.433 430.378 432.517 300.048 432.517C169.719 432.517 64.0208 432.433 64.0208 432.336C64.0208 432.238 169.678 432.154 300.048 432.154C430.419 432.154 536.055 432.238 536.055 432.336Z" fill="#263238"/>
<path d="M100.867 352.559C101.054 351.974 122.655 280.942 122.655 280.942L122.114 272.12L127.764 262.762L134.78 265.098L133.823 275.558L128.832 283.187L107.106 354.603L100.867 352.559Z" fill="#E0E0E0"/>
<path d="M100.867 352.559L101.283 352.678L102.482 353.054L107.106 354.512L107.029 354.554C110.544 342.971 118.669 316.165 128.679 283.159L133.664 275.537V275.614C133.969 272.273 134.295 268.724 134.62 265.153L134.745 265.342L134.163 265.153L127.73 263.013L127.938 262.936L122.288 272.294V272.19C122.468 275.198 122.646 278.138 122.822 281.011V281.074C116.506 301.709 111.036 319.582 107.147 332.301C105.192 338.668 103.626 343.738 102.551 347.232C102.017 348.975 101.594 350.321 101.31 351.241L100.984 352.28L100.867 352.636C100.89 352.52 100.92 352.406 100.957 352.294C101.026 352.05 101.123 351.709 101.255 351.269C101.532 350.349 101.948 349.01 102.447 347.28C103.494 343.794 105.019 338.717 106.932 332.357C110.801 319.596 116.222 301.674 122.489 280.969V281.032C122.309 278.159 122.126 275.219 121.941 272.211V272.155V272.106L127.591 262.748L127.66 262.622L127.799 262.671L134.239 264.805L134.815 265L134.953 265.042V265.188C134.627 268.78 134.302 272.329 133.99 275.649V275.697V275.732L129.005 283.361V283.312C118.891 316.248 110.697 343.02 107.147 354.603V354.665H107.085L102.454 353.124L101.283 352.727L100.867 352.559Z" fill="#263238"/>
<path d="M95.6603 355.998L85.9549 369.191L72.3882 418.703C72.3882 418.703 70.4402 428.801 81.5251 431.667C94.0035 434.889 96.8458 425.293 96.8458 425.293L110.017 376.946L109.879 360.182L113.13 356.493C113.277 356.321 113.38 356.115 113.43 355.894C113.481 355.673 113.477 355.443 113.419 355.224C113.361 355.005 113.25 354.803 113.097 354.637C112.944 354.47 112.753 354.344 112.541 354.268L96.9567 349.094C96.7401 349.026 96.5102 349.012 96.2872 349.054C96.0641 349.096 95.8548 349.193 95.6775 349.335C95.5003 349.478 95.3605 349.662 95.2705 349.872C95.1804 350.081 95.1429 350.31 95.1612 350.537L95.6603 355.998Z" fill="#142C52"/>
<path d="M109.962 360.76C109.927 360.858 106.662 359.902 102.669 358.626C98.6759 357.35 95.4523 356.234 95.487 356.137C95.5216 356.039 98.7799 357.001 102.78 358.278C106.78 359.554 109.99 360.662 109.962 360.76Z" fill="#263238"/>
<path d="M110.045 376.953C109.717 376.932 109.391 376.876 109.075 376.785C108.451 376.653 107.563 376.437 106.461 376.158C104.257 375.607 101.234 374.763 97.9411 373.703C94.6482 372.643 91.702 371.569 89.5737 370.739C88.52 370.321 87.6673 369.972 87.085 369.721C86.7759 369.609 86.4786 369.467 86.1976 369.296C86.5207 369.362 86.8364 369.46 87.1404 369.589L89.6638 370.495C91.799 371.262 94.7522 372.301 98.0451 373.354C101.338 374.407 104.347 375.293 106.523 375.914L109.109 376.646C109.43 376.719 109.743 376.822 110.045 376.953Z" fill="#263238"/>
<g opacity="0.3">
<path d="M91.7993 374.44L91.4599 374.341C90.2469 373.985 88.9769 374.685 88.6231 375.905L76.6098 417.338C76.256 418.558 76.9525 419.836 78.1654 420.192L78.5049 420.291C79.7178 420.647 80.9878 419.947 81.3416 418.726L93.3549 377.294C93.7087 376.074 93.0122 374.796 91.7993 374.44Z" fill="black"/>
</g>
<g opacity="0.3">
<path d="M98.7541 376.709L98.4147 376.609C97.2018 376.253 95.9317 376.954 95.578 378.174L83.5646 419.607C83.2109 420.827 83.9074 422.104 85.1203 422.46L85.4597 422.56C86.6726 422.916 87.9427 422.215 88.2964 420.995L100.31 379.562C100.664 378.342 99.967 377.065 98.7541 376.709Z" fill="black"/>
</g>
<g opacity="0.3">
<path d="M105.028 378.796L104.689 378.695C103.477 378.334 102.204 379.03 101.846 380.249L89.6674 421.632C89.3087 422.851 90.0001 424.131 91.2116 424.492L91.5506 424.593C92.7621 424.954 94.0349 424.258 94.3936 423.04L106.572 381.656C106.931 380.437 106.239 379.157 105.028 378.796Z" fill="black"/>
</g>
<path d="M128.783 283.194C127.723 283.015 126.686 282.718 125.692 282.308C124.659 282.016 123.663 281.604 122.724 281.081C123.781 281.264 124.816 281.561 125.809 281.967C126.844 282.26 127.842 282.672 128.783 283.194Z" fill="#263238"/>
<path d="M134.794 265.098C134.742 265.43 134.661 265.756 134.551 266.074C134.35 266.771 134.087 267.65 133.761 268.738L130.988 277.803L130.932 277.978L130.759 277.922L127.563 276.799L124.277 275.642L124.118 275.586L124.166 275.425C125.165 271.841 126.045 268.696 126.697 266.36C127.016 265.279 127.272 264.386 127.473 263.717C127.555 263.393 127.661 263.076 127.792 262.769C127.754 263.102 127.687 263.431 127.591 263.752L126.898 266.423C126.281 268.745 125.449 271.897 124.492 275.488L124.381 275.272L127.674 276.43L130.863 277.552L130.634 277.671L133.546 268.668C133.906 267.587 134.239 266.709 134.433 266.039C134.527 265.716 134.648 265.401 134.794 265.098Z" fill="#263238"/>
<path d="M339.272 194.156C338.713 194.157 338.157 194.063 337.629 193.877L329.137 190.92C328.303 190.627 327.561 190.119 326.983 189.448C326.405 188.776 326.012 187.964 325.844 187.092L324.146 178.214C323.979 177.342 324.044 176.44 324.333 175.6C324.623 174.76 325.127 174.012 325.795 173.431L332.589 167.517C333.258 166.937 334.066 166.543 334.934 166.375C335.801 166.208 336.697 166.272 337.532 166.562L346.017 169.519C346.852 169.811 347.596 170.318 348.175 170.99C348.754 171.661 349.148 172.474 349.317 173.347L351.016 182.224C351.179 183.097 351.112 183.998 350.823 184.837C350.533 185.676 350.031 186.424 349.366 187.008L342.572 192.922C341.655 193.718 340.484 194.156 339.272 194.156ZM331.23 185.746L339.168 188.535L345.511 183.012L343.924 174.686L335.993 171.896L329.636 177.475L331.23 185.746Z" fill="#E0E0E0"/>
<path d="M331.231 185.746C331.173 185.566 331.126 185.382 331.092 185.195L330.745 183.557C330.447 182.085 330.052 180.014 329.518 177.483C329.513 177.459 329.514 177.434 329.521 177.411C329.529 177.388 329.542 177.367 329.56 177.35L335.882 171.771C335.908 171.758 335.936 171.751 335.965 171.751C335.994 171.751 336.023 171.758 336.049 171.771L343.979 174.561L344.104 174.7V174.819V174.958L344.159 175.23L344.263 175.774C344.333 176.13 344.395 176.472 344.465 176.848C344.603 177.546 344.735 178.243 344.867 178.94C345.13 180.335 345.387 181.674 345.629 182.964C345.635 182.993 345.633 183.024 345.623 183.052C345.613 183.08 345.596 183.105 345.574 183.124L339.251 188.633C339.231 188.645 339.209 188.651 339.185 188.651C339.162 188.651 339.14 188.645 339.12 188.633L333.317 186.541L331.757 185.956C331.577 185.896 331.401 185.824 331.231 185.739C331.428 185.781 331.623 185.837 331.813 185.907L333.414 186.423L339.21 188.375H339.078L345.4 182.797L345.345 182.964C345.095 181.667 344.832 180.328 344.568 178.94C344.437 178.243 344.298 177.546 344.159 176.848C344.09 176.493 344.028 176.151 343.958 175.774L343.854 175.23L343.799 174.958V174.819V174.749V174.7C343.799 174.7 344.021 174.958 343.91 174.833L335.986 172.043H336.153L329.782 177.546L329.83 177.413C330.281 179.937 330.655 181.995 330.919 183.466C331.036 184.163 331.133 184.714 331.203 185.133C331.231 185.336 331.24 185.541 331.231 185.746Z" fill="#263238"/>
<path d="M339.272 194.156C339.272 194.156 339.57 194.156 340.132 194.045C340.941 193.89 341.7 193.538 342.343 193.02L349.241 186.946C349.996 186.29 350.535 185.42 350.787 184.449C350.923 183.938 350.979 183.409 350.953 182.88C350.892 182.329 350.799 181.782 350.676 181.241C350.239 178.989 349.775 176.59 349.289 174.066C349.204 173.434 349.033 172.817 348.783 172.232C348.514 171.641 348.13 171.11 347.654 170.671C347.177 170.231 346.619 169.892 346.01 169.672L344.055 168.975L340.042 167.58L337.962 166.883C337.303 166.604 336.597 166.455 335.882 166.444C335.164 166.443 334.454 166.6 333.802 166.904C333.169 167.223 332.589 167.64 332.083 168.138L328.874 170.928L325.775 173.626C324.831 174.496 324.264 175.702 324.194 176.988C324.184 177.61 324.254 178.231 324.402 178.836C324.52 179.456 324.631 180.063 324.749 180.663C324.971 181.862 325.192 183.02 325.4 184.149C325.608 185.279 325.809 186.367 326.024 187.385C326.283 188.351 326.824 189.215 327.577 189.868C327.927 190.168 328.317 190.419 328.735 190.614C329.144 190.795 329.581 190.928 329.983 191.081L332.305 191.904L336.021 193.229C336.789 193.541 337.577 193.804 338.378 194.017C338.932 194.122 339.237 194.115 339.237 194.128C338.947 194.164 338.654 194.164 338.364 194.128C337.553 193.941 336.756 193.696 335.979 193.396L332.277 192.12L329.948 191.325C329.532 191.179 329.109 191.053 328.672 190.865C328.23 190.664 327.818 190.404 327.445 190.091C326.646 189.411 326.068 188.505 325.789 187.49C325.553 186.43 325.366 185.356 325.144 184.233C324.922 183.11 324.7 181.946 324.451 180.746C324.33 180.156 324.213 179.549 324.097 178.926C323.941 178.297 323.866 177.65 323.875 177.002C323.947 175.625 324.552 174.331 325.56 173.396L328.652 170.691L331.861 167.901C332.139 167.664 332.395 167.427 332.693 167.204C332.997 166.977 333.322 166.78 333.664 166.618C334.354 166.296 335.107 166.129 335.868 166.13C336.623 166.142 337.369 166.298 338.066 166.59L340.146 167.287L344.159 168.682L346.114 169.38C346.774 169.616 347.38 169.984 347.896 170.46C348.402 170.928 348.81 171.492 349.095 172.12C349.357 172.732 349.534 173.377 349.622 174.038C350.084 176.572 350.535 178.966 350.974 181.221C351.099 181.775 351.189 182.336 351.244 182.901C351.284 183.704 351.14 184.505 350.823 185.243C350.505 185.98 350.023 186.635 349.414 187.155L342.44 193.145C341.769 193.661 340.98 194.001 340.146 194.135C339.856 194.178 339.563 194.185 339.272 194.156Z" fill="#263238"/>
<path d="M280.187 179.638C279.638 179.636 279.095 179.51 278.601 179.269C278.106 179.027 277.672 178.677 277.331 178.243L274.912 175.209C274.512 174.705 274.251 174.105 274.154 173.467C274.056 172.83 274.126 172.178 274.357 171.576L275.744 167.95C275.977 167.35 276.363 166.822 276.863 166.419C277.363 166.017 277.96 165.753 278.593 165.656L282.413 165.063C283.046 164.967 283.694 165.039 284.291 165.272C284.888 165.506 285.414 165.893 285.816 166.395L288.236 169.435C288.635 169.938 288.897 170.538 288.994 171.174C289.091 171.81 289.021 172.461 288.79 173.062L287.404 176.695C287.174 177.295 286.792 177.825 286.296 178.231C285.8 178.637 285.207 178.906 284.575 179.01L280.749 179.596C280.563 179.624 280.375 179.638 280.187 179.638ZM282.96 167.832H282.828L279.03 168.41C278.876 168.433 278.732 168.496 278.61 168.593C278.488 168.689 278.394 168.817 278.336 168.961L276.95 172.594C276.895 172.739 276.878 172.895 276.901 173.048C276.924 173.201 276.986 173.345 277.082 173.466L279.501 176.5C279.598 176.62 279.724 176.713 279.868 176.769C280.011 176.825 280.167 176.843 280.319 176.82L284.146 176.228C284.299 176.205 284.444 176.143 284.566 176.046C284.688 175.949 284.782 175.822 284.839 175.677L286.225 172.05C286.282 171.906 286.299 171.75 286.276 171.597C286.253 171.444 286.19 171.3 286.094 171.179L283.674 168.145C283.59 168.046 283.484 167.966 283.366 167.911C283.247 167.857 283.118 167.83 282.988 167.832H282.96Z" fill="#E0E0E0"/>
<path d="M282.988 167.832C283.085 167.801 283.189 167.801 283.286 167.832C283.406 167.864 283.517 167.924 283.612 168.006C283.729 168.123 283.84 168.246 283.945 168.375L285.913 170.753L286.232 171.151C286.352 171.315 286.42 171.512 286.426 171.716C286.422 171.916 286.375 172.114 286.288 172.295C286.225 172.469 286.156 172.643 286.094 172.825C285.816 173.522 285.525 174.31 285.22 175.119C285.144 175.321 285.068 175.523 284.984 175.732C284.893 175.984 284.71 176.192 284.471 176.311C284.248 176.395 284.015 176.449 283.778 176.472L283.085 176.583C282.149 176.723 281.234 176.883 280.194 177.016C280.045 177.016 279.897 176.985 279.761 176.923C279.625 176.862 279.503 176.772 279.404 176.66L278.946 176.081L278.052 174.965L277.199 173.878L276.984 173.613C276.902 173.515 276.837 173.404 276.79 173.285C276.696 173.038 276.696 172.765 276.79 172.518L277.691 170.237L278.1 169.205C278.16 169.03 278.239 168.861 278.336 168.703C278.447 168.546 278.601 168.425 278.78 168.355C280.111 168.11 281.123 168.013 281.851 167.915C282.223 167.842 282.602 167.809 282.981 167.818C282.889 167.852 282.794 167.875 282.697 167.887L281.879 168.055C281.185 168.194 280.09 168.348 278.877 168.592C278.747 168.649 278.634 168.741 278.551 168.857C278.473 169.002 278.408 169.153 278.357 169.31L277.969 170.349L277.095 172.643C277.033 172.812 277.033 172.998 277.095 173.166C277.192 173.346 277.31 173.512 277.449 173.661L278.336 174.756L279.23 175.872L279.681 176.437C279.747 176.51 279.827 176.568 279.917 176.608C280.006 176.648 280.103 176.668 280.201 176.667L283.036 176.242L283.73 176.137C283.94 176.124 284.148 176.081 284.347 176.011C284.511 175.933 284.638 175.793 284.7 175.621C284.776 175.412 284.86 175.209 284.936 175.007C285.255 174.212 285.553 173.445 285.837 172.727C285.916 172.555 285.985 172.381 286.045 172.204C286.12 172.059 286.165 171.9 286.177 171.737C286.17 171.588 286.125 171.444 286.045 171.318L285.74 170.928L283.861 168.48C283.779 168.309 283.656 168.161 283.504 168.048C283.352 167.935 283.175 167.861 282.988 167.832Z" fill="#263238"/>
<path d="M280.187 179.637C280.338 179.603 280.491 179.58 280.645 179.567L281.969 179.337L284.049 178.982C284.48 178.934 284.904 178.831 285.31 178.675C285.755 178.49 286.156 178.215 286.489 177.866C286.871 177.484 287.164 177.022 287.348 176.513C287.549 175.983 287.764 175.425 287.979 174.846C288.36 173.682 289.137 172.489 288.853 171.157C288.73 170.482 288.423 169.854 287.965 169.344L286.579 167.615L285.886 166.722C285.665 166.422 285.403 166.155 285.109 165.927C284.509 165.475 283.779 165.23 283.029 165.23C282.643 165.244 282.258 165.289 281.879 165.362L280.721 165.537L278.468 165.892C277.776 166.043 277.148 166.404 276.665 166.925C276.433 167.174 276.237 167.456 276.083 167.761C275.938 168.061 275.82 168.41 275.695 168.724L274.953 170.614C274.695 171.183 274.491 171.776 274.343 172.385C274.261 172.934 274.304 173.495 274.469 174.025C274.633 174.555 274.915 175.041 275.293 175.446L277.033 177.678C277.296 177.998 277.511 178.319 277.761 178.563C277.987 178.787 278.241 178.979 278.516 179.135C279.047 179.418 279.63 179.589 280.229 179.637C280.229 179.637 280.187 179.637 280.104 179.637C280.021 179.637 279.91 179.637 279.757 179.637C279.302 179.596 278.86 179.466 278.454 179.254C278.161 179.097 277.889 178.905 277.643 178.682C277.371 178.4 277.114 178.105 276.873 177.796L275.092 175.6C274.684 175.17 274.379 174.654 274.198 174.088C274.018 173.523 273.968 172.924 274.052 172.336C274.191 171.701 274.393 171.082 274.655 170.488L275.383 168.598C275.515 168.27 275.619 167.95 275.778 167.608C275.944 167.27 276.156 166.958 276.409 166.68C276.927 166.12 277.597 165.725 278.336 165.544C279.099 165.411 279.841 165.307 280.61 165.181L281.768 165.007C282.165 164.927 282.569 164.88 282.974 164.867C283.8 164.86 284.606 165.124 285.269 165.62C285.587 165.865 285.869 166.154 286.107 166.478L286.801 167.371C287.272 167.957 287.73 168.542 288.187 169.107C288.682 169.662 289.011 170.346 289.137 171.081C289.26 171.785 289.183 172.51 288.915 173.173C288.679 173.779 288.444 174.372 288.222 174.951C288 175.53 287.778 176.074 287.57 176.611C287.376 177.135 287.071 177.611 286.676 178.005C285.973 178.685 285.05 179.089 284.076 179.142L281.997 179.435C281.421 179.512 280.971 179.574 280.665 179.595C280.508 179.628 280.348 179.642 280.187 179.637Z" fill="#263238"/>
<path d="M347.723 170.537C347.235 171.381 346.633 172.153 345.934 172.831C345.32 173.595 344.582 174.248 343.75 174.763C344.335 173.992 344.977 173.267 345.671 172.594C346.275 171.833 346.964 171.143 347.723 170.537Z" fill="#263238"/>
<path d="M334.724 166.527C335.177 167.347 335.489 168.239 335.647 169.163C335.928 170.065 336.052 171.009 336.014 171.953C335.703 171.078 335.471 170.177 335.321 169.261C335.039 168.37 334.839 167.455 334.724 166.527Z" fill="#263238"/>
<path d="M329.553 177.315C328.646 177.135 327.755 176.878 326.891 176.548C325.991 176.325 325.11 176.032 324.256 175.669C326.121 175.82 327.929 176.382 329.553 177.315Z" fill="#263238"/>
<path d="M328.076 189.414C328.439 188.685 328.906 188.013 329.463 187.419C329.94 186.755 330.51 186.163 331.154 185.662C330.796 186.394 330.328 187.067 329.768 187.657C329.291 188.321 328.721 188.913 328.076 189.414Z" fill="#263238"/>
<path d="M339.75 193.228C339.471 192.511 339.307 191.753 339.265 190.983C339.098 190.228 339.054 189.451 339.133 188.682C339.41 189.403 339.574 190.163 339.619 190.934C339.782 191.687 339.826 192.461 339.75 193.228Z" fill="#263238"/>
<path d="M349.615 184.296C348.905 184.212 348.214 184.01 347.57 183.696C346.881 183.498 346.232 183.182 345.65 182.762C347.047 183.047 348.388 183.566 349.615 184.296Z" fill="#263238"/>
<path d="M487.237 237.768C491.931 232.078 496.624 226.332 500.284 219.916C503.944 213.501 506.523 206.332 506.711 198.94C506.711 197.817 506.26 190.042 505.185 189.728C504.423 189.505 503.896 196.374 503.272 196.869C497.282 201.583 493.393 208.577 491.154 215.886C489.047 223.011 487.733 230.351 487.237 237.768Z" fill="#263238"/>
<path d="M426.101 281.018C427.972 276.136 437.192 251.729 437.144 251.729C437.095 251.729 421.262 243.417 426.745 226.485C429.38 218.305 436.166 201.91 442.475 187.14C445.749 179.488 451.768 173.356 459.332 169.964C466.897 166.573 475.453 166.169 483.3 168.835L484.915 169.386C502.01 176.359 505.712 194.818 498.315 211.813L464.347 290.962L434.579 281.708L426.101 281.018Z" fill="#FFBF9D"/>
<path d="M437.151 251.743C437.151 251.743 447.501 255.927 461.144 252.664C461.144 252.664 451.702 263.396 435.494 256.199L437.151 251.743Z" fill="#FF9A6C"/>
<path d="M442.447 203.438C442.231 204.064 442.266 204.749 442.544 205.35C442.822 205.95 443.322 206.417 443.938 206.653C444.234 206.78 444.553 206.847 444.875 206.848C445.197 206.85 445.516 206.787 445.814 206.663C446.112 206.539 446.382 206.356 446.608 206.126C446.835 205.895 447.013 205.622 447.133 205.321C447.351 204.695 447.318 204.009 447.039 203.408C446.76 202.807 446.259 202.34 445.643 202.106C445.347 201.978 445.028 201.911 444.705 201.908C444.383 201.906 444.063 201.969 443.765 202.093C443.467 202.217 443.197 202.4 442.971 202.631C442.744 202.862 442.566 203.137 442.447 203.438Z" fill="#263238"/>
<path d="M443.681 195.369C443.875 195.788 446.142 195.049 448.714 195.934C451.286 196.82 452.742 198.724 453.123 198.528C453.31 198.438 453.199 197.768 452.575 196.883C451.724 195.728 450.537 194.867 449.178 194.421C447.834 193.954 446.376 193.934 445.019 194.365C444.021 194.707 443.584 195.181 443.681 195.369Z" fill="#263238"/>
<path d="M465.04 212.58C464.822 213.205 464.856 213.89 465.135 214.49C465.413 215.09 465.914 215.556 466.53 215.788C466.826 215.917 467.145 215.984 467.468 215.986C467.79 215.988 468.11 215.925 468.408 215.801C468.706 215.677 468.976 215.494 469.202 215.263C469.429 215.032 469.607 214.758 469.726 214.456C469.942 213.831 469.908 213.145 469.629 212.545C469.351 211.944 468.851 211.477 468.236 211.241C467.939 211.114 467.62 211.048 467.297 211.047C466.975 211.046 466.655 211.109 466.357 211.234C466.06 211.359 465.79 211.542 465.563 211.773C465.337 212.005 465.159 212.279 465.04 212.58Z" fill="#263238"/>
<path d="M468.561 204.986C468.749 205.404 471.022 204.672 473.594 205.551C476.166 206.429 477.615 208.34 478.003 208.152C478.184 208.054 478.08 207.385 477.456 206.506C476.602 205.349 475.413 204.487 474.052 204.037C472.708 203.569 471.249 203.549 469.892 203.982C468.922 204.323 468.464 204.797 468.561 204.986Z" fill="#263238"/>
<path d="M452.638 221.757C452.7 221.618 451.189 220.795 448.707 219.582C448.076 219.289 447.494 218.947 447.536 218.452C447.577 217.957 448.055 217.301 448.631 216.646L452.27 212.266C457.38 205.99 461.317 200.781 461.061 200.572C460.804 200.363 456.464 205.272 451.355 211.527C450.114 213.075 448.922 214.547 447.792 215.962C447.293 216.66 446.579 217.357 446.579 218.445C446.597 218.71 446.674 218.967 446.805 219.198C446.936 219.428 447.117 219.626 447.335 219.777C447.667 219.999 448.026 220.179 448.402 220.314C450.953 221.339 452.575 221.904 452.638 221.757Z" fill="#263238"/>
<path d="M459.619 226.123C459.203 225.962 458.232 228.773 455.196 229.951C452.159 231.13 449.255 229.819 449.102 230.202C449.005 230.363 449.587 230.969 450.828 231.437C452.46 232.013 454.241 231.995 455.861 231.388C457.414 230.798 458.679 229.626 459.39 228.117C459.889 226.988 459.813 226.172 459.619 226.123Z" fill="#263238"/>
<path d="M472.229 194.525C472.229 195.313 474.932 195.857 477.83 197.245C480.728 198.633 482.898 200.299 483.508 199.804C483.785 199.56 483.584 198.751 482.815 197.712C481.782 196.428 480.472 195.398 478.983 194.7C477.494 194.003 475.867 193.657 474.225 193.689C472.977 193.786 472.236 194.156 472.229 194.525Z" fill="#263238"/>
<path d="M447.639 187.12C447.896 187.866 449.872 187.818 452.014 188.515C454.156 189.212 455.827 190.251 456.444 189.777C456.728 189.54 456.645 188.857 456.042 188.027C455.204 187 454.083 186.245 452.819 185.859C451.556 185.473 450.207 185.473 448.943 185.858C447.986 186.242 447.535 186.765 447.639 187.12Z" fill="#263238"/>
<path d="M492.728 223.85C493.061 223.85 505.393 224.331 501.165 235.705C496.936 247.078 486.419 240.481 486.523 240.147C486.627 239.812 492.728 223.85 492.728 223.85Z" fill="#FFBF9D"/>
<path d="M491.591 237.155C491.653 237.155 491.736 237.371 492.014 237.65C492.406 238.031 492.932 238.241 493.477 238.236C494.863 238.236 496.555 236.709 497.373 234.672C497.767 233.705 497.94 232.661 497.879 231.618C497.908 231.22 497.839 230.821 497.678 230.456C497.517 230.091 497.269 229.771 496.957 229.526C496.751 229.374 496.498 229.301 496.244 229.32C495.99 229.339 495.751 229.449 495.57 229.631C495.3 229.895 495.286 230.147 495.224 230.147C495.161 230.147 495.05 229.861 495.314 229.449C495.479 229.194 495.722 229.001 496.007 228.898C496.407 228.779 496.837 228.822 497.206 229.017C497.633 229.288 497.984 229.664 498.227 230.109C498.469 230.554 498.595 231.054 498.593 231.562C498.705 232.732 498.534 233.912 498.094 235C497.165 237.266 495.203 238.982 493.386 238.842C493.049 238.815 492.721 238.713 492.427 238.543C492.133 238.373 491.881 238.139 491.688 237.859C491.508 237.448 491.542 237.162 491.591 237.155Z" fill="#FF9A6C"/>
<path d="M456.943 171.151C455.501 169.435 463.258 165.572 468.534 165.279C476.506 164.805 487.605 166.897 493.178 171.102C499.903 176.158 504.721 182.35 505.872 190.711C507.023 199.073 505.38 207.664 502.156 215.46C501.172 217.838 499.965 220.244 497.913 221.785C495.383 223.689 491.75 224.1 490.558 227.622C490.361 228.265 490.039 228.863 489.61 229.38C489.182 229.897 488.656 230.323 488.062 230.635C485.151 232.029 483.418 228.996 483.05 226.451C482.267 221.039 484.014 215.621 485.74 210.411C486.967 206.729 488.236 202.971 490.593 199.881C491.868 198.201 493.435 196.757 494.62 195C495.806 193.243 496.575 191.046 496.007 189.017C495.862 188.569 495.674 188.137 495.445 187.727C494.398 185.737 492.843 184.063 490.94 182.877C489.037 181.691 486.855 181.035 484.617 180.976C477.386 180.788 465.206 179.972 463.231 176.709C460.34 172.008 460.139 169.596 460.139 169.596L456.943 171.151Z" fill="#263238"/>
<path d="M494.627 164.142C495.355 164.512 512.388 175.098 512.277 190.537C512.166 205.976 509.359 209.756 509.359 209.756C509.93 210.464 510.397 211.25 510.745 212.092C511.203 213.264 508.589 217.238 506.35 215.913C491.057 201.639 469.983 193.438 445.941 185.927L427.806 179.393C422.496 178.229 421.172 176.241 423.764 175.704C425.754 175.286 442.225 174.449 442.225 174.449L445.782 173.347L456.873 165.46C456.873 165.46 456.444 163.675 458.697 163.096C460.95 162.517 480.305 156.82 494.627 164.142Z" fill="#142C52"/>
<path d="M445.768 173.375C445.768 173.375 446.01 173.473 446.461 173.626L448.541 174.282C450.329 174.819 452.873 175.725 456.007 176.883C464.114 180.021 471.934 183.867 479.376 188.375C486.814 192.902 493.989 197.852 500.866 203.201C503.529 205.23 505.643 206.918 507.106 208.082L508.804 209.414C509.192 209.714 509.407 209.86 509.407 209.86C509.407 209.86 509.22 209.679 508.839 209.358L507.182 207.964C505.733 206.778 503.633 205.063 500.991 203.012C494.138 197.601 486.961 192.617 479.501 188.089C472.036 183.564 464.174 179.738 456.014 176.66C452.655 175.393 449.236 174.297 445.768 173.375Z" fill="#263238"/>
<g opacity="0.3">
<path d="M508.728 178.173C508.728 178.173 489.927 168.047 479.542 169.274L480.763 169.107L471.057 169.916C469.414 170.056 467.536 170.104 466.412 168.898C466.412 168.898 472.298 166.387 481.594 166.436C490.891 166.485 504.534 169.804 508.728 178.173Z" fill="black"/>
</g>
<path d="M508.977 178.341C508.56 177.709 508.097 177.11 507.591 176.548C506.237 174.993 504.706 173.603 503.029 172.406C500.548 170.618 497.817 169.208 494.925 168.222C491.402 166.917 487.64 166.391 483.896 166.681C481.974 166.876 480.066 167.192 478.184 167.629C476.367 168.041 474.6 168.327 472.929 168.815C471.397 169.326 469.825 169.704 468.229 169.944C466.832 170.083 465.423 169.895 464.111 169.394C459.196 167.769 456.541 165.712 456.873 165.481C456.891 165.682 456.983 165.868 457.13 166.004C457.529 166.397 457.976 166.737 458.461 167.016C460.225 168.078 462.099 168.945 464.048 169.603C465.389 170.124 466.831 170.329 468.263 170.203C469.877 169.976 471.468 169.609 473.019 169.108C474.655 168.654 476.444 168.348 478.26 167.936C480.13 167.517 482.024 167.21 483.931 167.016C487.63 166.736 491.346 167.247 494.835 168.515C497.705 169.481 500.422 170.854 502.905 172.594C504.579 173.767 506.12 175.121 507.501 176.632C507.993 177.169 508.36 177.601 508.596 177.901C508.832 178.201 508.977 178.341 508.977 178.341Z" fill="#263238"/>
<g opacity="0.3">
<path d="M512.055 196.917C508.492 195.655 506.107 193.793 502.828 191.785C499.362 189.651 495.82 187.698 492.43 185.397C489.858 183.654 486.745 181.813 485.601 179.121C485.222 179.774 485.017 180.515 485.006 181.271C484.995 182.027 485.178 182.774 485.539 183.438C486.267 184.832 489.352 187.322 490.669 188.222C498.163 193.347 503.369 196.848 511.743 200.411C511.922 199.257 512.024 198.092 512.048 196.924" fill="black"/>
</g>
<path d="M512.236 188.828C514.163 190.593 515.321 191.736 514.724 193.71C514.232 195.341 513.234 197.196 511.556 196.938C511.06 196.822 510.59 196.614 510.17 196.325L487.21 182.803C486.379 182.437 485.705 181.784 485.31 180.962C484.853 179.651 486.003 178.215 487.328 177.852C488.652 177.489 490.066 177.852 491.383 178.312C498.856 180.746 505.671 184.484 512.236 188.821" fill="#142C52"/>
<path d="M485.56 181.464C485.348 181.061 485.248 180.608 485.269 180.153C485.32 179.539 485.542 178.951 485.91 178.458C486.278 177.965 486.776 177.585 487.348 177.364C488.818 176.862 490.766 177.196 492.679 177.977C494.593 178.758 496.749 179.644 498.918 180.655C502.687 182.337 506.3 184.353 509.712 186.68C511.016 187.58 512.021 188.375 512.721 188.926L513.511 189.574C513.601 189.654 513.698 189.724 513.802 189.784C513.802 189.784 513.726 189.686 513.553 189.526L512.797 188.828C512.104 188.249 511.14 187.433 509.844 186.492C506.454 184.099 502.838 182.046 499.05 180.362C496.846 179.344 494.717 178.466 492.762 177.691C490.808 176.917 488.804 176.583 487.217 177.148C486.615 177.389 486.095 177.799 485.719 178.33C485.343 178.86 485.126 179.488 485.095 180.139C485.086 180.489 485.16 180.835 485.31 181.15C485.375 181.269 485.459 181.375 485.56 181.464Z" fill="#263238"/>
<path d="M453.393 167.964L468.998 172.992L466.191 176.932L449.463 170.753L453.393 167.964Z" fill="white"/>
<path d="M472.111 189.895C472.146 189.811 465.581 186.408 457.435 182.35C449.289 178.291 442.634 175.007 442.634 175.09C442.634 175.174 449.165 178.577 457.31 182.636C465.456 186.694 472.069 189.972 472.111 189.895Z" fill="#263238"/>
<path d="M476.042 274.498L476.25 264.191L441.185 277.295C441.185 277.295 434.704 256.116 434.704 255.119L426.932 260L414.017 254.421L401.102 248.006L374.981 294.031L347.577 375.3L412.132 418.62L460.007 367.016L489.123 322.385L505.123 294.129L476.042 274.498Z" fill="#142C52"/>
<path d="M438.066 277.141C438.025 276.799 438.008 276.454 438.017 276.109C438.017 275.412 438.017 274.421 437.976 273.222L438.135 273.32C434.282 275.213 430.725 277.663 427.577 280.593L427.3 280.858V280.474C427.3 280.014 427.244 279.526 427.217 279.031C426.932 273.975 426.697 269.401 426.523 266.081C426.454 264.463 426.399 263.138 426.357 262.155C426.357 261.727 426.357 261.372 426.357 261.088C426.311 261.079 426.27 261.054 426.242 261.016C426.214 260.979 426.201 260.932 426.205 260.886C426.21 260.839 426.231 260.796 426.266 260.764C426.3 260.732 426.345 260.715 426.392 260.715C426.438 260.715 426.483 260.732 426.518 260.764C426.552 260.796 426.574 260.839 426.578 260.886C426.582 260.932 426.569 260.979 426.541 261.016C426.513 261.054 426.472 261.079 426.426 261.088C426.426 261.367 426.482 261.723 426.523 262.148C426.593 263.131 426.683 264.456 426.794 266.067C427.016 269.38 427.286 273.954 427.57 279.01C427.57 279.505 427.626 279.993 427.646 280.454L427.348 280.328C430.521 277.378 434.132 274.945 438.052 273.117L438.218 273.048V273.222C438.218 274.421 438.17 275.391 438.156 276.109C438.151 276.455 438.121 276.8 438.066 277.141Z" fill="#263238"/>
<path d="M472.811 274.993C472.686 275.081 472.551 275.153 472.409 275.209L471.237 275.774L466.898 277.776L452.506 284.247L445.671 287.287L445.38 287.413L445.435 287.099C445.999 283.83 446.264 280.515 446.225 277.197L446.385 277.294L443.147 278.877L442.281 279.282C442.087 279.373 441.983 279.414 441.976 279.4C442.061 279.331 442.154 279.272 442.253 279.226L443.092 278.766L446.288 277.092L446.44 277.009V277.197C446.538 280.543 446.306 283.89 445.747 287.19L445.511 287.002L452.34 283.947L466.773 277.566L471.168 275.67L472.367 275.174C472.507 275.096 472.656 275.035 472.811 274.993Z" fill="#263238"/>
<path d="M411.508 223.417H147.452C141.874 223.417 137.352 227.966 137.352 233.577V417.496C137.352 423.108 141.874 427.657 147.452 427.657H411.508C417.086 427.657 421.608 423.108 421.608 417.496V233.577C421.608 227.966 417.086 223.417 411.508 223.417Z" fill="#455A64"/>
<path d="M126.239 414.463H434.211V419.923C434.211 423.215 432.911 426.372 430.597 428.7C428.283 431.028 425.144 432.336 421.872 432.336H138.579C135.306 432.336 132.167 431.028 129.853 428.7C127.539 426.372 126.239 423.215 126.239 419.923V414.463Z" fill="#455A64"/>
<path d="M413.185 231.534H144.984V404.01H413.185V231.534Z" fill="#263238"/>
<path d="M251.459 412.553L255.279 419.157H309.054L312.603 412.553H251.459Z" fill="#263238"/>
<path d="M405.941 237.371H152.769C151.517 237.371 150.503 238.392 150.503 239.651V401.172C150.503 402.431 151.517 403.452 152.769 403.452H405.941C407.193 403.452 408.208 402.431 408.208 401.172V239.651C408.208 238.392 407.193 237.371 405.941 237.371Z" fill="#EBEBEB"/>
<path d="M407.938 403.696H150.232L150.503 249.784H407.938V403.696Z" fill="#FAFAFA"/>
<path d="M172.159 243.786C172.139 244.203 171.998 244.605 171.752 244.942C171.507 245.279 171.169 245.536 170.78 245.682C170.391 245.827 169.969 245.855 169.564 245.761C169.16 245.667 168.792 245.456 168.505 245.154C168.219 244.852 168.027 244.472 167.953 244.061C167.879 243.65 167.927 243.227 168.09 242.843C168.253 242.459 168.525 242.132 168.871 241.901C169.217 241.671 169.623 241.548 170.038 241.548C170.614 241.562 171.161 241.806 171.559 242.226C171.956 242.646 172.172 243.207 172.159 243.786Z" fill="#263238"/>
<path d="M159.293 243.786C159.272 244.203 159.131 244.605 158.886 244.942C158.641 245.279 158.303 245.536 157.914 245.682C157.525 245.827 157.102 245.855 156.698 245.761C156.293 245.667 155.925 245.456 155.639 245.154C155.352 244.852 155.16 244.472 155.087 244.061C155.013 243.65 155.06 243.227 155.224 242.843C155.387 242.459 155.658 242.132 156.004 241.901C156.351 241.671 156.756 241.548 157.171 241.548C157.748 241.562 158.295 241.806 158.692 242.226C159.09 242.646 159.306 243.207 159.293 243.786Z" fill="#263238"/>
<path d="M165.906 243.786C165.886 244.203 165.745 244.605 165.499 244.942C165.254 245.279 164.916 245.536 164.527 245.682C164.138 245.827 163.716 245.855 163.311 245.761C162.907 245.667 162.538 245.456 162.252 245.154C161.966 244.852 161.774 244.472 161.7 244.061C161.626 243.65 161.674 243.227 161.837 242.843C162 242.459 162.272 242.132 162.618 241.901C162.964 241.671 163.37 241.548 163.785 241.548C164.361 241.562 164.908 241.806 165.306 242.226C165.703 242.646 165.919 243.207 165.906 243.786Z" fill="#263238"/>
<path d="M419.168 412.552C419.168 412.663 356.083 412.747 278.267 412.747C200.451 412.747 137.352 412.663 137.352 412.552C137.352 412.44 200.437 412.35 278.267 412.35C356.097 412.35 419.168 412.44 419.168 412.552Z" fill="#263238"/>
<path d="M251.674 279.288C255.864 276.744 260.373 274.774 265.081 273.43L267.854 260.076L290.274 259.679L293.504 272.928C298.255 274.108 302.829 275.919 307.106 278.312L318.44 270.843L334.572 286.513L327.556 298.179C330.087 302.396 332.045 306.934 333.379 311.673L346.648 314.463L347.043 337.015L333.872 340.264C332.696 345.031 330.894 349.618 328.513 353.905L335.944 365.306L320.367 381.534L308.783 374.469C304.592 377.015 300.08 378.985 295.369 380.327L292.596 393.681L270.17 394.072L266.946 380.822C262.208 379.655 257.645 377.856 253.379 375.474L242.045 382.949L225.913 367.28L232.936 355.627C230.403 351.411 228.442 346.873 227.106 342.133L213.837 339.344L213.442 316.792L226.613 313.542C227.785 308.762 229.585 304.161 231.965 299.86L224.541 288.458L240.118 272.231L251.674 279.288ZM263.626 309.337C260.321 312.78 258.106 317.132 257.26 321.841C256.414 326.55 256.976 331.407 258.873 335.795C260.771 340.184 263.919 343.908 267.921 346.496C271.922 349.085 276.597 350.422 281.354 350.338C286.111 350.254 290.736 348.753 294.645 346.025C298.554 343.297 301.571 339.464 303.314 335.012C305.058 330.559 305.449 325.686 304.44 321.009C303.431 316.332 301.065 312.062 297.643 308.737C295.369 306.531 292.685 304.797 289.745 303.634C286.805 302.471 283.665 301.902 280.506 301.96C277.348 302.017 274.231 302.7 271.334 303.97C268.438 305.239 265.819 307.07 263.626 309.358V309.337Z" fill="#E0E0E0"/>
<path d="M341.248 287.915C341.555 286.247 342.079 284.627 342.808 283.097L340.035 279.331L345.054 273.417L349.213 275.607C350.6 274.645 352.109 273.874 353.698 273.313L354.392 268.661L362.094 268.055L363.48 272.539C365.139 272.847 366.751 273.377 368.27 274.115L372.014 271.325L377.892 276.381L375.716 280.565C376.675 281.962 377.445 283.482 378.003 285.084L382.62 285.781L383.224 293.536L378.766 294.931C378.462 296.6 377.935 298.221 377.199 299.749L379.972 303.522L374.953 309.428L370.794 307.239C369.405 308.204 367.894 308.978 366.302 309.54L365.608 314.191L357.906 314.798L356.52 310.307C354.861 310.001 353.25 309.474 351.73 308.738L347.979 311.527L342.114 306.416L344.291 302.232C343.333 300.834 342.564 299.315 342.003 297.713L337.386 297.016L336.783 289.261L341.241 287.866L341.248 287.915ZM351.695 290.265C351.53 292.009 351.914 293.761 352.792 295.274C353.67 296.787 354.997 297.985 356.588 298.698C358.178 299.412 359.951 299.605 361.657 299.252C363.362 298.898 364.915 298.014 366.095 296.726C367.275 295.438 368.023 293.809 368.234 292.071C368.445 290.332 368.109 288.57 367.272 287.034C366.435 285.498 365.139 284.264 363.569 283.508C361.998 282.752 360.231 282.51 358.516 282.818C356.727 283.139 355.091 284.041 353.859 285.386C352.627 286.731 351.867 288.445 351.695 290.265Z" fill="#E0E0E0"/>
<path d="M172.423 365.76C172.479 363.757 172.803 361.77 173.386 359.854L169.456 355.998L174.267 348.201L179.48 350.014C180.936 348.64 182.568 347.467 184.333 346.528L184.291 340.984L193.179 338.892L195.584 343.878C197.576 343.933 199.551 344.26 201.456 344.847L205.331 340.893L213.081 345.733L211.279 350.977C212.645 352.441 213.811 354.083 214.745 355.858L220.257 355.816L222.336 364.749L217.373 367.155C217.311 369.159 216.984 371.145 216.402 373.062L220.333 376.953L215.522 384.756L210.308 382.943C208.854 384.319 207.222 385.492 205.456 386.43L205.497 391.974L196.617 394.066L194.205 389.08C192.218 389.01 190.25 388.673 188.354 388.076L184.485 392.03L176.728 387.19L178.53 381.946C177.164 380.481 175.998 378.84 175.064 377.065L169.518 377.106L167.438 368.173L172.395 365.747L172.423 365.76ZM185.269 368.271C185.714 370.165 186.707 371.884 188.123 373.21C189.539 374.537 191.314 375.411 193.224 375.724C195.133 376.036 197.092 375.772 198.853 374.965C200.614 374.158 202.097 372.844 203.116 371.19C204.135 369.535 204.643 367.614 204.577 365.669C204.511 363.724 203.874 361.842 202.745 360.261C201.616 358.68 200.047 357.471 198.236 356.787C196.425 356.102 194.453 355.973 192.568 356.416C191.312 356.71 190.126 357.252 189.079 358.009C188.031 358.766 187.142 359.724 186.464 360.827C185.786 361.931 185.331 363.159 185.126 364.44C184.921 365.721 184.969 367.03 185.269 368.292V368.271Z" fill="#E0E0E0"/>
<path d="M188.374 291.269C188.601 290.009 188.997 288.787 189.553 287.636L187.473 284.79L191.258 280.334L194.378 281.987C195.424 281.261 196.562 280.677 197.761 280.251L198.274 276.764L204.083 276.304L205.123 279.686C206.373 279.92 207.588 280.319 208.735 280.871L211.563 278.779L215.986 282.587L214.35 285.725C215.073 286.776 215.651 287.921 216.069 289.128L219.536 289.637L219.993 295.481L216.638 296.499C216.408 297.757 216.014 298.978 215.466 300.132L217.546 302.97L213.761 307.426L210.641 305.774C209.596 306.503 208.458 307.087 207.258 307.51L206.752 310.997L200.943 311.45L199.896 308.068C198.644 307.839 197.429 307.44 196.284 306.883L193.463 308.975L189.033 305.167L190.669 302.029C189.946 300.978 189.368 299.833 188.95 298.626L185.484 298.11L185.033 292.266L188.395 291.22L188.374 291.269ZM196.243 294.107C196.341 295.343 196.801 296.523 197.565 297.496C198.329 298.47 199.362 299.194 200.535 299.577C201.707 299.96 202.967 299.985 204.153 299.649C205.34 299.313 206.401 298.63 207.203 297.688C208.005 296.745 208.51 295.585 208.657 294.354C208.804 293.122 208.584 291.875 208.026 290.769C207.468 289.662 206.597 288.747 205.523 288.139C204.449 287.53 203.219 287.256 201.99 287.35C201.171 287.412 200.372 287.637 199.639 288.011C198.907 288.384 198.255 288.9 197.721 289.528C197.187 290.156 196.782 290.883 196.528 291.669C196.274 292.455 196.177 293.283 196.243 294.107Z" fill="#EBEBEB"/>
<path d="M341.539 354.205C341.739 353.123 342.08 352.073 342.551 351.08L340.742 348.64L343.993 344.811L346.676 346.206C347.573 345.58 348.55 345.078 349.581 344.714L350.017 341.701L355.009 341.311L355.903 344.218C356.979 344.417 358.023 344.759 359.009 345.237L361.435 343.417L365.241 346.687L363.854 349.379C364.477 350.284 364.975 351.269 365.338 352.308L368.333 352.747L368.721 357.768L365.83 358.668C365.633 359.75 365.292 360.8 364.818 361.792L366.627 364.232L363.376 368.054L360.7 366.659C359.799 367.282 358.82 367.784 357.789 368.152L357.352 371.157L352.36 371.548L351.466 368.647C350.391 368.445 349.347 368.103 348.36 367.629L345.934 369.449L342.114 366.178L343.501 363.486C342.879 362.583 342.38 361.601 342.017 360.564L339.029 360.125L338.634 355.104L341.525 354.205H341.539ZM348.298 356.638C348.38 357.706 348.775 358.724 349.433 359.565C350.092 360.406 350.983 361.032 351.995 361.362C353.007 361.693 354.094 361.714 355.118 361.422C356.142 361.13 357.057 360.54 357.746 359.724C358.436 358.909 358.869 357.906 358.992 356.843C359.114 355.78 358.92 354.704 358.433 353.752C357.947 352.8 357.191 352.014 356.26 351.495C355.329 350.976 354.267 350.747 353.206 350.836C351.792 350.954 350.481 351.63 349.561 352.718C348.641 353.805 348.187 355.215 348.298 356.638Z" fill="#EBEBEB"/>
<path d="M280.229 361.771H245.754C243.728 361.766 241.738 361.226 239.984 360.205C238.23 359.184 236.773 357.718 235.759 355.953C234.745 354.188 234.209 352.186 234.205 350.148C234.201 348.11 234.729 346.106 235.737 344.337L252.984 314.288L270.225 284.239C271.242 282.472 272.703 281.004 274.462 279.983C276.221 278.963 278.216 278.426 280.246 278.426C282.277 278.426 284.271 278.963 286.03 279.983C287.789 281.004 289.25 282.472 290.267 284.239L307.515 314.288L324.763 344.337C325.77 346.106 326.298 348.111 326.294 350.15C326.289 352.189 325.753 354.191 324.738 355.956C323.723 357.721 322.265 359.187 320.511 360.207C318.756 361.228 316.765 361.767 314.738 361.771H280.229Z" fill="#142C52"/>
<path d="M317.359 347.782C317.359 347.782 317.449 347.956 317.622 348.319C317.918 349.046 318.031 349.834 317.951 350.615C317.872 351.396 317.601 352.145 317.165 352.796C316.822 353.31 316.381 353.751 315.868 354.093C315.272 354.475 314.591 354.7 313.886 354.749C308.007 354.811 299.522 354.797 289.026 354.825L252.159 354.867H246.891C245.951 354.857 245.038 354.554 244.276 353.999C243.515 353.444 242.944 352.666 242.641 351.771C242.32 350.877 242.26 349.909 242.468 348.982C242.523 348.751 242.6 348.521 242.676 348.284C242.752 348.047 242.877 347.845 242.981 347.636L243.674 346.415C244.562 344.776 245.463 343.131 246.364 341.464L257.539 320.829L268.783 300.209C270.59 296.876 272.37 293.605 274.121 290.397C274.565 289.602 274.974 288.8 275.445 288.012C275.914 287.207 276.583 286.539 277.387 286.074C278.174 285.62 279.058 285.362 279.965 285.32C280.871 285.279 281.775 285.456 282.6 285.836C283.418 286.209 284.133 286.779 284.679 287.496C285.153 288.22 285.581 288.972 285.962 289.749C286.773 291.241 287.577 292.712 288.361 294.163C289.941 297.064 291.469 299.879 292.943 302.608C295.903 308.054 298.655 313.131 301.165 317.761C306.184 327.029 310.239 334.532 313.047 339.728L316.263 345.704C316.624 346.401 316.901 346.903 317.088 347.266C317.276 347.629 317.366 347.803 317.366 347.803C317.366 347.803 317.255 347.629 317.061 347.28L316.201 345.739L312.922 339.79C310.094 334.609 305.99 327.134 300.943 317.887L292.686 302.747L288.083 294.316C287.293 292.866 286.496 291.394 285.678 289.902C285.296 289.149 284.873 288.418 284.409 287.712C283.897 287.043 283.231 286.509 282.468 286.157C281.691 285.799 280.841 285.632 279.987 285.671C279.133 285.709 278.301 285.953 277.56 286.38C276.808 286.822 276.183 287.452 275.744 288.207C275.286 288.968 274.87 289.783 274.433 290.578L269.095 300.39C265.477 307.057 261.719 313.954 257.879 321.025L246.655 341.645C245.747 343.312 244.853 344.965 243.958 346.597C243.471 347.365 243.087 348.195 242.815 349.065C242.617 349.934 242.672 350.842 242.974 351.68C243.248 352.511 243.774 353.234 244.478 353.748C245.182 354.262 246.028 354.541 246.898 354.546H252.166L289.033 354.581L313.886 354.616C314.567 354.576 315.227 354.365 315.806 354.002C316.311 353.673 316.747 353.246 317.088 352.747C317.622 351.957 317.907 351.024 317.906 350.069C317.898 349.275 317.711 348.493 317.359 347.782Z" fill="#263238"/>
<path d="M274.641 341.353C274.641 338.278 277.081 335.983 280.555 335.983C284.028 335.983 286.412 338.278 286.412 341.353C286.412 344.428 284.028 346.827 280.555 346.827C277.081 346.827 274.641 344.386 274.641 341.353ZM274.697 309.854H286.412L284.444 333.061H276.617L274.697 309.854Z" fill="white"/>
<path d="M281.879 280.767C281.169 280.526 280.434 280.371 279.688 280.307C277.875 280.267 276.106 280.864 274.683 281.994C273.294 283.159 272.175 284.616 271.404 286.262C270.773 287.517 270.475 288.354 270.419 288.319C270.438 288.113 270.487 287.911 270.565 287.719C270.738 287.185 270.942 286.661 271.175 286.15C271.908 284.423 273.042 282.897 274.482 281.701C275.965 280.517 277.833 279.931 279.723 280.056C280.289 280.098 280.844 280.235 281.366 280.46C281.705 280.62 281.893 280.746 281.879 280.767Z" fill="white"/>
<path d="M267.459 293.515C267.602 292.913 267.858 292.345 268.215 291.841C268.721 290.983 269.199 290.328 269.289 290.377C269.143 290.969 268.884 291.528 268.527 292.022C268.27 292.584 267.907 293.091 267.459 293.515Z" fill="white"/>
<g opacity="0.3">
<path d="M297.532 296.903L243.813 330.195L236.839 342.357L301.324 303.507L297.532 296.903Z" fill="white"/>
</g>
<g opacity="0.3">
<path d="M305.99 311.659L234.787 353.905C235.072 355.012 235.6 356.042 236.333 356.917L307.244 313.849L305.99 311.659Z" fill="white"/>
</g>
<path d="M481.955 390.447C479.248 387.446 475.74 385.293 471.849 384.244C467.958 383.195 463.849 383.296 460.014 384.533L453.38 377.211L452.458 376.172L399.958 318.229C401.434 314.79 401.973 311.017 401.519 307.3C401.065 303.582 399.635 300.052 397.376 297.074C395.118 294.096 392.111 291.777 388.666 290.355C385.221 288.933 381.462 288.459 377.775 288.982L375.21 290.007L384.132 296.026L383.653 305.823L376.437 312.413L366.697 311.932L360.333 304.875L357.705 305.914C356.95 311.821 360.887 319.268 365.178 324.045C367.881 327.042 371.383 329.193 375.267 330.243C379.151 331.293 383.254 331.197 387.085 329.966L440.464 388.878L442.1 390.712L447.161 396.291C445.578 400.002 445.089 404.093 445.751 408.076C446.414 412.06 448.2 415.768 450.898 418.759C455.168 423.501 460.839 426.667 466.738 426.507L469.373 425.475L463.002 418.41L463.48 408.648L470.697 402.058L480.402 402.532L484.132 410.628L486.766 409.589C487.578 406.246 487.565 402.753 486.726 399.416C485.887 396.079 484.249 393 481.955 390.447Z" fill="#E0E0E0"/>
<g opacity="0.3">
<path d="M481.955 390.447C479.248 387.446 475.74 385.293 471.849 384.244C467.958 383.195 463.849 383.296 460.014 384.533L453.38 377.211L452.458 376.172L399.958 318.229C401.434 314.79 401.973 311.017 401.519 307.3C401.065 303.582 399.635 300.052 397.376 297.074C395.118 294.096 392.111 291.777 388.666 290.355C385.221 288.933 381.462 288.459 377.775 288.982L375.21 290.007L384.132 296.026L383.653 305.823L376.437 312.413L366.697 311.932L360.333 304.875L357.705 305.914C356.95 311.821 360.887 319.268 365.178 324.045C367.881 327.042 371.383 329.193 375.267 330.243C379.151 331.293 383.254 331.197 387.085 329.966L440.464 388.878L442.1 390.712L447.161 396.291C445.578 400.002 445.089 404.093 445.751 408.076C446.414 412.06 448.2 415.768 450.898 418.759C455.168 423.501 460.839 426.667 466.738 426.507L469.373 425.475L463.002 418.41L463.48 408.648L470.697 402.058L480.402 402.532L484.132 410.628L486.766 409.589C487.578 406.246 487.565 402.753 486.726 399.416C485.887 396.079 484.249 393 481.955 390.447Z" fill="black"/>
</g>
<path d="M479.321 391.478C476.615 388.478 473.108 386.325 469.218 385.278C465.328 384.23 461.22 384.332 457.387 385.572L450.745 378.242L449.823 377.203L397.324 319.261C398.8 315.822 399.339 312.049 398.886 308.331C398.432 304.614 397.002 301.084 394.743 298.107C392.484 295.129 389.477 292.81 386.032 291.389C382.587 289.968 378.827 289.496 375.14 290.021L381.504 297.078L381.033 306.841L373.802 313.459L364.097 312.984L357.733 305.927C356.853 309.565 356.952 313.374 358.021 316.96C359.089 320.547 361.088 323.783 363.811 326.335C366.535 328.888 369.885 330.664 373.517 331.482C377.15 332.3 380.933 332.13 384.478 330.99L437.858 389.902L439.501 391.736L444.562 397.315C443.092 400.752 442.558 404.521 443.015 408.235C443.472 411.949 444.903 415.473 447.161 418.447C449.419 421.42 452.423 423.736 455.865 425.156C459.307 426.576 463.062 427.049 466.745 426.527L460.374 419.456L460.846 409.693L468.069 403.103L477.775 403.584L484.139 410.641C484.956 407.294 484.944 403.797 484.104 400.455C483.264 397.114 481.622 394.032 479.321 391.478Z" fill="#E0E0E0"/>
<path d="M479.321 391.479C479.321 391.479 479.626 391.813 480.201 392.49C481.021 393.52 481.747 394.621 482.371 395.781C484.78 400.338 485.446 405.625 484.243 410.642V410.781L484.146 410.677L477.775 403.627L477.83 403.661L468.125 403.194H468.194L460.984 409.791V409.714C460.846 412.755 460.686 416.067 460.52 419.512V419.422L466.835 426.43L467.002 426.611L466.759 426.646C463.244 427.16 459.657 426.77 456.332 425.513C453.007 424.256 450.052 422.172 447.744 419.456C445.232 416.522 443.576 412.945 442.96 409.122C442.306 405.114 442.801 401.001 444.388 397.267V397.434L384.291 331.123L384.478 331.172C380.68 332.379 376.623 332.495 372.763 331.507C367.386 330.108 362.772 326.637 359.918 321.844C357.065 317.051 356.2 311.322 357.511 305.893L357.594 305.558L357.823 305.809L364.187 312.866L364.062 312.811L373.802 313.285L373.671 313.334L380.936 306.737L380.873 306.862C381.033 303.557 381.192 300.3 381.352 297.064L381.393 297.19L375.029 290.133L374.815 289.889L375.133 289.847C378.967 289.302 382.876 289.827 386.434 291.364C389.991 292.901 393.06 295.392 395.307 298.564C397.456 301.59 398.774 305.133 399.127 308.836C399.454 312.404 398.894 315.999 397.497 319.296V319.129L457.497 385.488H457.414C460.27 384.571 463.288 384.279 466.265 384.631C469.242 384.984 472.11 385.973 474.676 387.532C475.98 388.332 477.197 389.267 478.309 390.321C479.002 391.067 479.376 391.451 479.376 391.451L478.281 390.349C477.16 389.3 475.938 388.366 474.634 387.56C472.075 386.025 469.22 385.055 466.259 384.716C463.298 384.377 460.3 384.676 457.463 385.593H457.414V385.551L397.303 319.303L397.234 319.226L397.276 319.136C398.65 315.877 399.198 312.325 398.87 308.801C398.523 305.154 397.222 301.665 395.099 298.689C392.887 295.568 389.866 293.118 386.365 291.607C382.863 290.096 379.017 289.581 375.244 290.119L375.348 289.833L381.629 296.96L381.678 297.009V297.085C381.525 300.312 381.368 303.566 381.206 306.848V306.925L381.151 306.974L373.934 313.564L373.879 313.613H373.802L364.097 313.131H364.021L363.972 313.076L357.601 306.018L357.913 305.942C357.043 309.547 357.141 313.32 358.198 316.875C359.256 320.43 361.233 323.637 363.929 326.17C366.625 328.702 369.942 330.467 373.539 331.285C377.137 332.103 380.886 331.943 384.402 330.823H384.506L384.589 330.907C406.412 355.021 426.877 377.594 444.645 397.246L444.714 397.322L444.672 397.42C443.113 401.093 442.62 405.136 443.251 409.08C443.859 412.752 445.424 416.196 447.787 419.062C450.149 421.927 453.225 424.111 456.7 425.391C459.907 426.558 463.348 426.917 466.724 426.437L466.641 426.653L460.284 419.596L460.25 419.554V419.456C460.416 416.018 460.575 412.706 460.728 409.693V409.645V409.61L467.958 403.034H468L477.705 403.522C480.035 406.116 482.177 408.494 484.055 410.593H483.931C485.143 405.607 484.505 400.348 482.135 395.802C481.52 394.642 480.808 393.536 480.007 392.497C479.605 391.834 479.321 391.479 479.321 391.479Z" fill="#263238"/>
<path d="M394.932 322.643C394.884 322.829 394.806 323.005 394.704 323.166C394.461 323.62 394.19 324.058 393.893 324.477C391.927 327.29 389.155 329.433 385.948 330.621C385.469 330.803 384.978 330.952 384.478 331.067C384.3 331.128 384.112 331.158 383.924 331.158C383.924 331.095 384.679 330.886 385.858 330.384C388.95 329.09 391.651 327.003 393.691 324.331C394.475 323.306 394.877 322.615 394.932 322.643Z" fill="#263238"/>
<path d="M453.56 347.811L433.622 338.466L415.799 336.228L422.343 341.806C422.343 341.806 399.3 349.889 398.898 351.709C398.496 353.529 400.714 358.424 404.776 357.518C404.776 357.518 402.496 360.307 403.445 363.382C404.395 366.458 406.496 367.036 410.378 366.318C410.378 366.318 407.743 370.286 409.809 372.308C411.875 374.331 415.092 373.822 415.092 373.822C415.092 373.822 415.133 378.654 417.671 379.073C420.208 379.491 427.279 378.996 429.92 378.18L443.334 373.996L452.028 372.036L453.56 347.811Z" fill="#FFBF9D"/>
<path d="M416.86 353.947C416.936 354.212 414.281 355.216 410.939 356.2C407.598 357.183 404.811 357.755 404.735 357.49C404.659 357.225 407.314 356.213 410.655 355.237C413.996 354.261 416.783 353.682 416.86 353.947Z" fill="#FF9A6C"/>
<path d="M420.25 363.48C420.326 363.745 418.225 364.617 415.549 365.433C412.873 366.249 410.634 366.681 410.551 366.416C410.468 366.151 412.582 365.279 415.258 364.47C417.934 363.661 420.173 363.222 420.25 363.48Z" fill="#FF9A6C"/>
<path d="M423.293 371.409C423.341 371.709 421.428 372.106 419.182 372.678C416.936 373.25 415.182 374.073 415.022 373.787C414.863 373.501 416.513 372.35 418.905 371.695C421.296 371.039 423.258 371.165 423.293 371.409Z" fill="#FF9A6C"/>
<path d="M425.809 341.004C425.886 341.276 423.272 342.231 420.035 343.354C416.797 344.477 414.156 345.335 414.045 345.077C413.934 344.819 416.444 343.536 419.716 342.406C422.988 341.276 425.74 340.739 425.809 341.004Z" fill="#FF9A6C"/>
<path d="M449.802 346.053L492.984 361.785L490.461 391.597L442.918 372.315L449.802 346.053Z" fill="#FFBF9D"/>
<path d="M505.206 293.884C505.206 293.884 510.835 299.735 514.114 310.258C517.393 320.781 532.832 365.39 532.457 379.581C532.048 394.26 522.225 404.735 500.638 398.933C487.757 395.446 472.409 389.867 472.409 389.867L483.321 353.786L491.854 355.997L478.073 329.972L505.206 293.884Z" fill="#142C52"/>
<path d="M495.321 310.935C495.404 310.998 489.428 319.554 481.983 330.049C474.537 340.544 468.444 349.024 468.36 348.954C468.277 348.885 474.253 340.335 481.698 329.84C489.144 319.345 495.244 310.879 495.321 310.935Z" fill="#263238"/>
<path d="M511.848 360.879C511.848 360.879 511.473 360.698 510.801 360.384C509.844 359.954 508.854 359.602 507.841 359.331C506.558 358.975 505.005 358.633 503.279 358.264L497.678 357.022C493.705 356.13 490.108 355.3 487.515 354.679L484.444 353.926C484.063 353.853 483.689 353.746 483.328 353.605C483.713 353.637 484.096 353.7 484.471 353.794L487.57 354.428C490.184 354.986 493.809 355.774 497.761 356.667L503.355 357.943C505.075 358.334 506.627 358.696 507.91 359.087C508.928 359.384 509.917 359.776 510.863 360.258C511.119 360.389 511.367 360.536 511.605 360.698C511.693 360.747 511.775 360.808 511.848 360.879Z" fill="#263238"/>
<g opacity="0.3">
<path d="M522.884 362.469C522.746 361.613 522.404 360.803 521.887 360.108C521.371 359.413 520.695 358.855 519.917 358.48C518.356 357.738 516.674 357.284 514.953 357.141C507.196 356.067 499.348 355.747 491.522 355.475L492.215 355.788C501.885 357.586 511.349 360.362 520.464 364.073C520.963 364.351 521.551 364.421 522.1 364.268C522.398 364.084 522.632 363.813 522.772 363.492C522.912 363.17 522.951 362.813 522.884 362.469Z" fill="black"/>
</g>
<g opacity="0.3">
<path d="M344.984 224.142C337.705 222.894 328.998 225.021 321.719 223.773C320.638 223.592 319.445 223.417 318.489 223.975C317.338 224.638 316.943 226.116 316.887 227.462C316.858 229.308 317.213 231.141 317.929 232.841C318.646 234.542 319.708 236.073 321.047 237.336C323.772 239.843 327.177 241.479 330.828 242.036C333.733 242.532 336.86 242.434 339.445 241.025C343.993 238.543 346.177 229.17 344.984 224.142Z" fill="black"/>
</g>
<path d="M316.735 237.538C316.735 237.538 312.319 232.329 311.681 229.93C311.258 228.34 311.466 223.884 311.681 221.06C311.73 220.108 312.055 219.192 312.615 218.423C313.176 217.655 313.947 217.069 314.835 216.736C315.095 216.607 315.386 216.55 315.675 216.574C315.964 216.597 316.242 216.699 316.478 216.869C317.078 216.051 317.751 215.29 318.489 214.596C320.222 212.81 321.047 211.604 324.86 212.713C324.86 212.713 327.667 209.735 329.282 209.958C330.366 210.12 331.439 210.353 332.492 210.656C332.492 210.656 338.641 210.391 339.903 212.357C340.619 213.245 341.586 213.894 342.676 214.219C343.638 214.56 344.521 215.092 345.275 215.784C346.029 216.475 346.637 217.311 347.064 218.243C347.781 219.954 348.197 221.778 348.291 223.633L342.052 223.884C342.052 223.884 342.496 238.326 340.922 239.491C339.348 240.656 338.752 240.237 338.752 240.237C338.752 240.237 337.553 243.626 332.873 241.123C332.873 241.123 328.991 242.301 327.327 240.69C325.664 239.08 319.577 223.605 319.577 223.605L319.75 231.276C319.75 231.276 322.96 236.248 321.386 237.413C319.813 238.577 316.735 237.538 316.735 237.538Z" fill="#FFBF9D"/>
<path d="M324.527 217.964C324.674 218.253 324.793 218.557 324.88 218.87L325.726 221.381C326.419 223.473 327.369 226.458 328.381 229.714C329.393 232.971 330.239 235.99 331.196 237.971C331.564 238.769 331.99 239.538 332.471 240.272C332.811 240.795 333.026 241.06 333.005 241.081C332.984 241.102 332.929 241.032 332.818 240.907C332.655 240.732 332.503 240.548 332.36 240.356C331.828 239.644 331.363 238.883 330.974 238.082C329.941 236.067 329.075 233.075 328.049 229.826C327.023 226.576 326.128 223.605 325.49 221.458C325.199 220.432 324.95 219.582 324.756 218.912C324.651 218.604 324.574 218.286 324.527 217.964Z" fill="#FF9A6C"/>
<path d="M332.201 216.179C332.34 216.478 332.447 216.791 332.52 217.113L333.262 219.7C333.865 221.883 334.648 224.91 335.563 228.257C336.478 231.604 337.22 234.645 337.761 236.848C338.017 237.894 338.225 238.773 338.392 239.456C338.485 239.775 338.545 240.102 338.572 240.433C338.441 240.13 338.334 239.818 338.253 239.498C338.059 238.801 337.816 237.95 337.518 236.911C336.908 234.728 336.09 231.702 335.217 228.354C334.343 225.007 333.56 221.967 333.012 219.763C332.763 218.71 332.548 217.838 332.388 217.148C332.295 216.832 332.233 216.507 332.201 216.179Z" fill="#FF9A6C"/>
</svg>
