<svg width="608" height="448" viewBox="0 0 608 448" fill="none" xmlns="http://www.w3.org/2000/svg">
<g filter="url(#filter0_d_1156_294)">
<path d="M588.156 344.094C446.422 258.555 588.156 75.7305 588.156 11.5975C588.156 -52.5355 444.699 175.876 403.682 53.3714C362.666 -69.1336 96.9685 264.073 22.1294 344.094C-130.047 506.805 729.891 429.633 588.156 344.094Z" fill="#07F9A2"/>
</g>
<g clip-path="url(#clip0_1156_294)">
<path d="M559 356.4H59V356.65H559V356.4Z" fill="#EBEBEB"/>
<path d="M154 365.21H112.79V365.46H154V365.21Z" fill="#EBEBEB"/>
<path d="M238 363.21H196.67V363.46H238V363.21Z" fill="#EBEBEB"/>
<path d="M291.78 363.21H281.78V363.46H291.78V363.21Z" fill="#EBEBEB"/>
<path d="M191.83 371.75H145.58V372H191.83V371.75Z" fill="#EBEBEB"/>
<path d="M351.8 365.08H330.2V365.33H351.8V365.08Z" fill="#EBEBEB"/>
<path d="M388.63 365.08H360.7V365.33H388.63V365.08Z" fill="#EBEBEB"/>
<path d="M523.33 369.31H460.89V369.56H523.33V369.31Z" fill="#EBEBEB"/>
<path d="M296 311.8H102.91C101.397 311.797 99.9475 311.195 98.8788 310.124C97.8102 309.054 97.21 307.603 97.21 306.09V34.66C97.2231 33.156 97.8292 31.718 98.8964 30.6582C99.9637 29.5985 101.406 29.0026 102.91 29H296C297.514 29 298.967 29.6016 300.038 30.6724C301.108 31.7433 301.71 33.1956 301.71 34.71V306.09C301.71 307.604 301.108 309.057 300.038 310.128C298.967 311.198 297.514 311.8 296 311.8ZM102.91 29.2C101.464 29.2026 100.077 29.7791 99.0556 30.8027C98.0338 31.8264 97.46 33.2136 97.46 34.66V306.09C97.46 307.536 98.0338 308.924 99.0556 309.947C100.077 310.971 101.464 311.547 102.91 311.55H296C297.447 311.547 298.834 310.971 299.858 309.948C300.881 308.924 301.457 307.537 301.46 306.09V34.66C301.457 33.2127 300.881 31.8255 299.858 30.8021C298.834 29.7787 297.447 29.2026 296 29.2H102.91Z" fill="#EBEBEB"/>
<path d="M512.31 311.8H319.21C317.696 311.797 316.246 311.195 315.175 310.125C314.105 309.054 313.503 307.604 313.5 306.09V34.66C313.516 33.1551 314.124 31.7171 315.193 30.6576C316.262 29.5981 317.705 29.0025 319.21 29H512.31C513.812 29.0052 515.252 29.6022 516.317 30.6617C517.382 31.7212 517.987 33.1578 518 34.66V306.09C518 307.601 517.401 309.05 516.335 310.121C515.268 311.191 513.821 311.795 512.31 311.8ZM319.21 29.2C317.763 29.2026 316.375 29.7787 315.352 30.8021C314.329 31.8255 313.753 33.2127 313.75 34.66V306.09C313.753 307.537 314.329 308.924 315.352 309.948C316.375 310.971 317.763 311.547 319.21 311.55H512.31C513.757 311.547 515.145 310.971 516.168 309.948C517.191 308.924 517.767 307.537 517.77 306.09V34.66C517.767 33.2127 517.191 31.8255 516.168 30.8021C515.145 29.7787 513.757 29.2026 512.31 29.2H319.21Z" fill="#EBEBEB"/>
<path d="M364.32 181.52H467.41V49.0595H364.32V181.52Z" fill="#E6E6E6"/>
<path d="M359.24 181.52H466.69V49.0595H359.24V181.52Z" fill="#F0F0F0"/>
<path d="M364.32 186.24H467.41V181.52H364.32V186.24Z" fill="#E6E6E6"/>
<path d="M350.78 186.24H458.23V181.52H350.78V186.24Z" fill="#F0F0F0"/>
<path d="M459.59 174.41V56.1699L366.36 56.1699V174.41H459.59Z" fill="#FAFAFA"/>
<path d="M428.42 174.41L417.03 56.1797H397.33L408.72 174.41H428.42Z" fill="white"/>
<path d="M456.29 134.34C456.436 134.34 456.576 134.282 456.679 134.179C456.782 134.076 456.84 133.936 456.84 133.79V60.79C456.837 60.6459 456.778 60.5085 456.675 60.4075C456.573 60.3065 456.434 60.25 456.29 60.25C456.219 60.25 456.149 60.264 456.083 60.2911C456.018 60.3182 455.958 60.358 455.908 60.4082C455.858 60.4583 455.818 60.5178 455.791 60.5834C455.764 60.6489 455.75 60.7191 455.75 60.79V133.79C455.75 133.934 455.807 134.073 455.908 134.175C456.009 134.278 456.146 134.337 456.29 134.34Z" fill="#F0F0F0"/>
<path d="M404.49 174.41L393.1 56.1797H385.42L396.8 174.41H404.49Z" fill="white"/>
<path d="M367.27 174.42V56.1797H366.37V174.42H367.27Z" fill="#E6E6E6"/>
<path opacity="0.5" d="M357.57 65.4604H462.31L462.96 58.9404H358.22L357.57 65.4604Z" fill="#E0E0E0"/>
<path opacity="0.5" d="M357.57 76.1702H462.31L462.96 69.6602H358.22L357.57 76.1702Z" fill="#E0E0E0"/>
<path opacity="0.5" d="M357.57 86.8801H462.31L462.96 80.3701H358.22L357.57 86.8801Z" fill="#E0E0E0"/>
<path opacity="0.5" d="M357.57 97.6001H462.31L462.96 91.0801H358.22L357.57 97.6001Z" fill="#E0E0E0"/>
<path opacity="0.5" d="M357.57 108.31H462.31L462.96 101.79H358.22L357.57 108.31Z" fill="#E0E0E0"/>
<path opacity="0.5" d="M357.57 119.02H462.31L462.96 112.5H358.22L357.57 119.02Z" fill="#E0E0E0"/>
<path d="M277.96 356.4H293.87V270.11H277.96V356.4Z" fill="#E6E6E6"/>
<path d="M282.73 356.4H277.96V339.89H287.73L282.73 356.4Z" fill="#F0F0F0"/>
<path d="M476.2 356.4H492.11V270.11H476.2V356.4Z" fill="#E6E6E6"/>
<path d="M277.96 346.27H480.36V270.12H277.96V346.27Z" fill="#F0F0F0"/>
<path d="M475.59 356.4H480.36V339.89H470.59L475.59 356.4Z" fill="#F0F0F0"/>
<path d="M281.66 305.94H476.66V275.47H281.66V305.94Z" fill="#E6E6E6"/>
<path d="M310.24 284.94H444.88C449.53 284.94 453.98 281.18 457.18 274.54H297.94C301.14 281.18 305.59 284.94 310.24 284.94Z" fill="#F0F0F0"/>
<path d="M281.66 341.34H476.66V310.87H281.66V341.34Z" fill="#E6E6E6"/>
<path d="M310.24 320.34H444.88C449.53 320.34 453.98 316.58 457.18 309.94H297.94C301.14 316.58 305.59 320.34 310.24 320.34Z" fill="#F0F0F0"/>
<path d="M434.57 248.89C437.05 246.47 434.43 243.18 437.75 240.89C441.07 238.6 438.23 235.04 438.34 231.8C438.45 228.56 442.81 228.03 444.05 224.26C444.57 222.68 443.96 220.71 443.05 218.95C442.618 218.072 441.981 217.312 441.192 216.735C440.403 216.157 439.486 215.779 438.519 215.633C437.553 215.486 436.565 215.576 435.64 215.894C434.716 216.212 433.882 216.75 433.21 217.46C433.08 217.61 432.95 217.77 432.83 217.94C430.36 221.23 432.78 224.4 430.03 226.62C427.28 228.84 422.35 229.29 422.51 232.99C422.67 236.69 418.94 236.99 416.95 239.86C415.73 241.62 416.66 244.53 417.56 246.51C418.194 247.914 419.343 249.02 420.77 249.6C424.11 250.91 430.59 252.78 434.57 248.89Z" fill="#EBEBEB"/>
<path d="M440.08 257.63C444.26 255.87 442.63 250.63 447.82 249.33C453.01 248.03 451.2 242.41 452.91 238.49C454.62 234.57 460.17 236 463.5 232C465.56 229.52 465.02 224.81 464.31 221.56C464.061 220.421 463.445 219.396 462.556 218.642C461.667 217.888 460.554 217.448 459.39 217.39C457.109 217.223 454.831 217.746 452.85 218.89C448.26 221.74 449.69 226.77 445.27 228.16C440.85 229.55 434.59 227.75 433.01 232.35C431.43 236.95 426.72 235.55 422.91 238.08C420.19 239.9 420.29 245.08 420.57 247.81C420.692 249.005 421.218 250.123 422.06 250.98C425 254 432.71 260.74 440.08 257.63Z" fill="#E0E0E0"/>
<path d="M436.73 236.42C439.47 234.32 442.35 237.42 445.14 234.42C447.93 231.42 450.99 234.8 454.22 235.15C457.45 235.5 458.59 231.27 462.51 230.58C464.14 230.3 466 231.18 467.62 232.32C468.435 232.865 469.105 233.602 469.569 234.466C470.033 235.331 470.279 236.295 470.284 237.276C470.289 238.257 470.053 239.225 469.597 240.094C469.142 240.962 468.48 241.706 467.67 242.26C467.51 242.37 467.33 242.48 467.15 242.58C463.54 244.58 460.75 241.69 458.15 244.09C455.55 246.49 454.4 251.3 450.76 250.61C447.12 249.92 446.27 253.61 443.16 255.13C441.24 256.13 438.49 254.74 436.66 253.57C435.365 252.74 434.437 251.444 434.07 249.95C433.22 246.49 432.3 239.81 436.73 236.42Z" fill="#EBEBEB"/>
<path d="M407 240.8C407 240.8 407.87 270.11 441.23 270.11C474.59 270.11 475.45 240.8 475.45 240.8H407Z" fill="#F5F5F5"/>
<path d="M196.62 269.59H162.54L155.44 229.03H203.72L196.62 269.59Z" fill="#E6E6E6"/>
<path d="M269.13 60.2598H129.8V138.07H269.13V60.2598Z" fill="#E6E6E6"/>
<path d="M267.79 60.2598H128.46V138.07H267.79V60.2598Z" fill="#F5F5F5"/>
<path d="M257.8 128.07V70.2598L138.47 70.2598V128.07H257.8Z" fill="white"/>
<path d="M139.78 128.07V70.2598H138.47V128.07H139.78Z" fill="#E6E6E6"/>
<path d="M186.351 78.2304L146.732 80.7646L148.036 101.143L187.655 98.6087L186.351 78.2304Z" fill="#F5F5F5"/>
<path d="M187.509 100.494L147.809 102.876L149.034 123.296L188.734 120.914L187.509 100.494Z" fill="#F5F5F5"/>
<path d="M213.886 79.3154L187.779 80.9854L189.626 109.856L215.732 108.186L213.886 79.3154Z" fill="#F5F5F5"/>
<path d="M241.539 82.2676L215.432 83.9375L216.525 101.023L242.632 99.3526L241.539 82.2676Z" fill="#F5F5F5"/>
<path d="M252.175 111.104L251.424 99.3682L216.556 101.599L217.306 113.335L252.175 111.104Z" fill="#F5F5F5"/>
<path d="M309 401.56C416.083 401.56 502.89 396.492 502.89 390.24C502.89 383.988 416.083 378.92 309 378.92C201.918 378.92 115.11 383.988 115.11 390.24C115.11 396.492 201.918 401.56 309 401.56Z" fill="#F5F5F5"/>
<path d="M444.72 204.73H443.72C439.63 197.83 433.825 192.105 426.868 188.111C419.912 184.117 412.041 181.99 404.02 181.937C395.999 181.883 388.1 183.905 381.091 187.806C374.082 191.707 368.202 197.355 364.02 204.2C361.44 202.268 358.373 201.093 355.163 200.806C351.953 200.52 348.727 201.133 345.845 202.577C342.964 204.021 340.542 206.24 338.851 208.983C337.16 211.727 336.266 214.887 336.27 218.11C336.27 218.66 336.27 219.21 336.35 219.75C329.023 219.952 322.077 223.055 317.039 228.379C312.001 233.702 309.284 240.809 309.485 248.135C309.687 255.462 312.79 262.408 318.114 267.446C323.437 272.484 330.543 275.202 337.87 275H444.72C449.383 275.079 454.014 274.228 458.345 272.499C462.675 270.769 466.618 268.194 469.943 264.924C473.268 261.655 475.909 257.756 477.712 253.456C479.514 249.155 480.443 244.538 480.443 239.875C480.443 235.212 479.514 230.595 477.712 226.295C475.909 221.994 473.268 218.095 469.943 214.826C466.618 211.556 462.675 208.982 458.345 207.252C454.014 205.522 449.383 204.671 444.72 204.75V204.73Z" fill="#142C52"/>
<path opacity="0.5" d="M444.72 204.73H443.72C439.63 197.83 433.825 192.105 426.868 188.111C419.912 184.117 412.041 181.99 404.02 181.937C395.999 181.883 388.1 183.905 381.091 187.806C374.082 191.707 368.202 197.355 364.02 204.2C361.44 202.268 358.373 201.093 355.163 200.806C351.953 200.52 348.727 201.133 345.845 202.577C342.964 204.021 340.542 206.24 338.851 208.983C337.16 211.727 336.266 214.887 336.27 218.11C336.27 218.66 336.27 219.21 336.35 219.75C329.023 219.952 322.077 223.055 317.039 228.379C312.001 233.702 309.284 240.809 309.485 248.135C309.687 255.462 312.79 262.408 318.114 267.446C323.437 272.484 330.543 275.202 337.87 275H444.72C449.383 275.079 454.014 274.228 458.345 272.499C462.675 270.769 466.618 268.194 469.943 264.924C473.268 261.655 475.909 257.756 477.712 253.456C479.514 249.155 480.443 244.538 480.443 239.875C480.443 235.212 479.514 230.595 477.712 226.295C475.909 221.994 473.268 218.095 469.943 214.826C466.618 211.556 462.675 208.982 458.345 207.252C454.014 205.522 449.383 204.671 444.72 204.75V204.73Z" fill="black"/>
<path d="M364.54 376.689L356.96 374.609L359.78 356.489L367.36 358.579L364.54 376.689Z" fill="#7F3E3B"/>
<path d="M420.49 381.73H412.63L410.67 363.52H418.53L420.49 381.73Z" fill="#7F3E3B"/>
<path d="M412 380.819H421.59C421.746 380.82 421.898 380.874 422.019 380.972C422.141 381.07 422.226 381.207 422.26 381.359L423.81 388.359C423.846 388.53 423.843 388.706 423.802 388.875C423.76 389.044 423.682 389.201 423.571 389.336C423.461 389.47 423.322 389.578 423.164 389.651C423.006 389.725 422.834 389.762 422.66 389.759C419.57 389.709 417.32 389.519 413.44 389.519C411.05 389.519 403.84 389.769 400.54 389.769C397.24 389.769 396.81 386.509 398.16 386.209C404.22 384.889 408.78 383.059 410.72 381.319C411.069 380.999 411.526 380.82 412 380.819Z" fill="#263238"/>
<path d="M357.26 373.74L365.54 376.02C365.689 376.064 365.82 376.157 365.91 376.284C366.001 376.411 366.046 376.564 366.04 376.72L365.68 383.87C365.671 384.043 365.624 384.211 365.541 384.363C365.459 384.515 365.343 384.646 365.203 384.747C365.062 384.848 364.901 384.916 364.731 384.946C364.561 384.976 364.386 384.967 364.22 384.92C361.22 384.04 356.98 382.68 353.22 381.65C348.83 380.44 344.98 379.65 339.83 378.21C336.72 377.35 336.72 373.97 338.1 374.04C344.39 374.38 349.27 375.58 355.27 373.83C355.912 373.616 356.601 373.584 357.26 373.74Z" fill="#263238"/>
<path d="M388.22 143.219C385.31 148.269 382.22 153.069 379.03 157.849C375.84 162.629 372.36 167.279 368.59 171.849C367.59 172.969 366.66 174.109 365.59 175.209L364.81 176.049L364.4 176.489C364.073 176.832 363.714 177.143 363.33 177.419C362.124 178.3 360.731 178.892 359.26 179.149C357.313 179.455 355.33 179.435 353.39 179.089C351.795 178.836 350.22 178.465 348.68 177.979C343.009 176.16 337.585 173.648 332.53 170.499L335 165.099C340.199 166.629 345.481 167.861 350.82 168.789C352.026 168.966 353.241 169.079 354.46 169.129C355.328 169.198 356.202 169.11 357.04 168.869C357.24 168.799 357.18 168.709 356.82 168.929C356.719 168.993 356.625 169.066 356.54 169.149L356.83 168.799L357.44 168.039C358.28 167.039 359.07 165.939 359.88 164.899C363.08 160.549 366.15 155.899 369.14 151.279C372.13 146.659 375.14 141.859 377.97 137.189L388.22 143.219Z" fill="#7F3E3B"/>
<path d="M391.12 137.449C394 144.389 378.93 164.609 378.93 164.609L363.66 155.269C363.66 155.269 368.24 145.329 373.26 136.999C376.7 131.289 387.87 129.609 391.12 137.449Z" fill="#142C52"/>
<path opacity="0.2" d="M381.08 139.08L387.56 151C384.988 155.72 382.105 160.263 378.93 164.6L370.74 159.6C372.41 153.9 376.1 143.11 381.08 139.08Z" fill="black"/>
<path d="M333.89 164.759L327.47 162.609L330.86 172.519C332.045 172.609 333.235 172.448 334.353 172.047C335.472 171.645 336.493 171.012 337.35 170.189L336.95 167.599C336.838 166.849 336.475 166.159 335.918 165.642C335.362 165.126 334.647 164.815 333.89 164.759Z" fill="#7F3E3B"/>
<path d="M323.61 164.609L321.88 170.379L330.86 172.519L327.47 162.609L323.61 164.609Z" fill="#7F3E3B"/>
<path opacity="0.2" d="M359.78 356.5L358.33 365.83L365.91 367.92L367.37 358.59L359.78 356.5Z" fill="black"/>
<path opacity="0.2" d="M418.53 363.529H410.67L411.68 372.919H419.55L418.53 363.529Z" fill="black"/>
<path d="M423.17 135.3C420.864 143.787 419.193 152.435 418.17 161.17C417.42 167.26 416.98 173.07 416.7 178.35C416.05 190.71 416.32 200.13 415.95 203.35C409.8 202.93 386.63 201.35 374 200.43C368.87 160.29 377.13 137.62 378.88 133.38C378.974 133.157 379.121 132.961 379.31 132.809C379.499 132.657 379.722 132.554 379.96 132.51C383.027 131.973 386.122 131.606 389.23 131.41C389.95 131.41 390.67 131.34 391.4 131.33C397.365 131.4 403.322 131.814 409.24 132.57C410.36 132.7 411.5 132.87 412.6 133.05C418.23 133.93 423.17 135.3 423.17 135.3Z" fill="#142C52"/>
<path opacity="0.2" d="M412.58 146.62C412.51 153.055 414.313 159.372 417.77 164.8C417.89 163.6 418.03 162.39 418.18 161.17C418.74 156.59 419.46 151.85 420.42 147.06L412.58 146.62Z" fill="black"/>
<path d="M408.88 112.33C407.36 118 405.5 128.43 409.25 132.54C407.355 134.26 405.113 135.552 402.675 136.33C400.237 137.108 397.661 137.354 395.12 137.05C390.19 136.6 390.18 133.13 391.41 131.3C397.92 130.22 398.09 125.46 397.28 120.92L408.88 112.33Z" fill="#7F3E3B"/>
<path opacity="0.2" d="M404.15 115.84L397.29 120.91C397.487 121.969 397.598 123.043 397.62 124.12C400.09 123.94 403.62 121.49 404.07 118.95C404.288 117.927 404.315 116.873 404.15 115.84Z" fill="black"/>
<path d="M410.17 103.75C409.17 111.48 408.95 116.06 404.74 119.75C398.42 125.34 389.08 121.11 387.74 113.22C386.56 106.12 388.43 94.6597 396.25 92.0997C397.976 91.5212 399.822 91.395 401.611 91.7331C403.4 92.0711 405.073 92.8622 406.469 94.0307C407.865 95.1993 408.938 96.7062 409.586 98.4077C410.234 100.109 410.435 101.948 410.17 103.75Z" fill="#7F3E3B"/>
<path d="M408.63 110.559C405.56 108.109 404.3 91.8093 411.82 92.5593C418.24 93.1093 425.28 101.509 408.63 110.559Z" fill="#263238"/>
<path d="M410 96.8899C400.28 99.4999 379.61 92.6399 385.22 86.7799C392.72 78.9399 406.33 90.8899 410 96.8899Z" fill="#263238"/>
<path d="M414.14 98.9397C406.28 97.7897 389.98 82.5797 398.44 81.7797C409.11 80.7697 413.36 93.4397 414.14 98.9397Z" fill="#263238"/>
<path d="M412.69 94.38H412.61C412.545 94.3702 412.482 94.3477 412.426 94.3137C412.37 94.2798 412.321 94.2351 412.282 94.1821C412.243 94.1292 412.214 94.069 412.199 94.0052C412.183 93.9413 412.18 93.875 412.19 93.81C412.461 91.413 412.253 88.9862 411.58 86.67C411.543 86.5374 411.56 86.3954 411.627 86.2754C411.695 86.1554 411.807 86.0671 411.94 86.03C412.072 85.9928 412.214 86.0099 412.334 86.0774C412.454 86.1449 412.543 86.2574 412.58 86.39C413.295 88.8489 413.513 91.4259 413.22 93.97C413.198 94.0918 413.132 94.2012 413.034 94.2769C412.936 94.3526 412.813 94.3894 412.69 94.38Z" fill="#263238"/>
<path d="M413.08 112.56C411.919 114.142 410.179 115.199 408.24 115.5C405.67 115.88 404.71 113.5 405.69 111.24C406.58 109.24 408.99 106.56 411.44 107.24C413.89 107.92 414.48 110.6 413.08 112.56Z" fill="#7F3E3B"/>
<path d="M356 363.299L368.84 366.829C368.84 366.829 378.02 317.559 380.32 293.169C381.02 285.749 382.98 275.409 385.45 264.349C388.56 250.419 392.45 235.349 395.67 223.549C399.04 211.119 401.61 202.329 401.61 202.329L374 200.399C374 200.399 357.28 265.609 356.47 289.599C355.62 314.539 356 363.299 356 363.299Z" fill="#142C52"/>
<path opacity="0.7" d="M356 363.299L368.84 366.829C368.84 366.829 378.02 317.559 380.32 293.169C381.02 285.749 382.98 275.409 385.45 264.349C388.56 250.419 392.45 235.349 395.67 223.549C399.04 211.119 401.61 202.329 401.61 202.329L374 200.399C374 200.399 357.28 265.609 356.47 289.599C355.62 314.539 356 363.299 356 363.299Z" fill="#FAFAFA"/>
<path opacity="0.2" d="M385.42 264.35C388.53 250.42 392.42 235.35 395.64 223.55L392.78 217.38C385.93 225.51 384.09 250.68 385.42 264.35Z" fill="black"/>
<path d="M388.88 201.439C388.88 201.439 391.88 268.759 395.18 291.559C398.81 316.559 408.05 371.099 408.05 371.099H422.45C422.45 371.099 418.34 319.099 415.58 294.669C412.43 266.819 415.96 203.329 415.96 203.329L388.88 201.439Z" fill="#142C52"/>
<path opacity="0.7" d="M388.88 201.439C388.88 201.439 391.88 268.759 395.18 291.559C398.81 316.559 408.05 371.099 408.05 371.099H422.45C422.45 371.099 418.34 319.099 415.58 294.669C412.43 266.819 415.96 203.329 415.96 203.329L388.88 201.439Z" fill="#FAFAFA"/>
<path d="M406.32 371.41H423.28V366.34L404.32 366.01L406.32 371.41Z" fill="#142C52"/>
<path d="M354.28 363.15L369.57 367.37L370.94 362.43L353.91 357.46L354.28 363.15Z" fill="#142C52"/>
<path d="M398.23 105.1C398.23 105.73 397.82 106.22 397.4 106.19C396.98 106.16 396.69 105.62 396.73 104.99C396.77 104.36 397.15 103.87 397.56 103.9C397.97 103.93 398.27 104.46 398.23 105.1Z" fill="#263238"/>
<path d="M391.08 104.6C391.03 105.23 390.66 105.72 390.25 105.69C389.84 105.66 389.54 105.12 389.58 104.49C389.62 103.86 390 103.37 390.41 103.4C390.82 103.43 391.12 104 391.08 104.6Z" fill="#263238"/>
<path d="M393.33 105.069C392.442 106.951 391.298 108.701 389.93 110.269C390.343 110.61 390.825 110.857 391.344 110.992C391.862 111.126 392.403 111.146 392.93 111.049L393.33 105.069Z" fill="#630F0F"/>
<path d="M400.61 102.94C400.542 102.945 400.474 102.932 400.412 102.902C400.351 102.872 400.298 102.827 400.26 102.77C400.014 102.373 399.679 102.039 399.282 101.794C398.884 101.549 398.435 101.401 397.97 101.36C397.872 101.36 397.778 101.321 397.708 101.252C397.639 101.182 397.6 101.088 397.6 100.99C397.6 100.892 397.639 100.798 397.708 100.728C397.778 100.659 397.872 100.62 397.97 100.62C398.559 100.656 399.13 100.833 399.637 101.136C400.143 101.439 400.569 101.859 400.88 102.36C400.908 102.401 400.928 102.446 400.938 102.495C400.948 102.543 400.949 102.593 400.939 102.641C400.93 102.69 400.911 102.736 400.884 102.777C400.856 102.818 400.821 102.853 400.78 102.88C400.727 102.909 400.669 102.929 400.61 102.94Z" fill="#263238"/>
<path d="M395.68 114.139C396.597 114.122 397.497 113.884 398.303 113.446C399.109 113.007 399.797 112.381 400.31 111.619C400.324 111.597 400.333 111.573 400.338 111.547C400.342 111.521 400.34 111.494 400.334 111.469C400.327 111.444 400.316 111.42 400.299 111.399C400.283 111.379 400.263 111.362 400.24 111.349C400.218 111.335 400.193 111.326 400.167 111.322C400.141 111.318 400.115 111.319 400.089 111.325C400.064 111.332 400.04 111.344 400.02 111.36C399.999 111.376 399.982 111.396 399.97 111.419C399.481 112.114 398.837 112.686 398.089 113.088C397.341 113.491 396.509 113.714 395.66 113.739C395.633 113.739 395.607 113.745 395.582 113.756C395.558 113.766 395.536 113.782 395.518 113.802C395.5 113.822 395.486 113.845 395.478 113.871C395.47 113.896 395.467 113.923 395.47 113.949C395.47 113.976 395.475 114.003 395.486 114.027C395.497 114.052 395.513 114.073 395.532 114.091C395.552 114.109 395.576 114.123 395.601 114.131C395.626 114.139 395.653 114.142 395.68 114.139Z" fill="#263238"/>
<path d="M388.19 101.92C388.121 101.926 388.052 101.914 387.99 101.884C387.928 101.854 387.875 101.808 387.837 101.751C387.799 101.693 387.777 101.626 387.774 101.557C387.771 101.489 387.787 101.42 387.82 101.36C388.103 100.84 388.507 100.396 388.998 100.065C389.489 99.7347 390.052 99.5269 390.64 99.4596C390.689 99.4569 390.737 99.4638 390.783 99.4799C390.829 99.4961 390.871 99.5211 390.908 99.5536C390.944 99.5861 390.973 99.6255 390.994 99.6694C391.015 99.7133 391.027 99.7609 391.03 99.8096C391.033 99.9071 390.998 100.002 390.933 100.075C390.868 100.147 390.777 100.192 390.68 100.2C390.217 100.266 389.776 100.44 389.392 100.708C389.009 100.975 388.693 101.328 388.47 101.74C388.44 101.789 388.399 101.831 388.351 101.862C388.302 101.893 388.247 101.913 388.19 101.92Z" fill="#263238"/>
<path d="M409.38 382.199C408.843 382.24 408.307 382.1 407.86 381.799C407.718 381.678 407.609 381.522 407.543 381.348C407.476 381.173 407.455 380.985 407.48 380.799C407.477 380.691 407.506 380.584 407.563 380.492C407.62 380.4 407.702 380.326 407.8 380.279C408.67 379.829 411.21 381.389 411.49 381.569C411.522 381.586 411.548 381.612 411.564 381.645C411.581 381.677 411.586 381.714 411.58 381.749C411.573 381.786 411.556 381.82 411.532 381.848C411.507 381.877 411.475 381.898 411.44 381.909C410.766 382.082 410.075 382.179 409.38 382.199ZM408.21 380.569C408.127 380.562 408.043 380.58 407.97 380.619C407.92 380.619 407.86 380.689 407.85 380.839C407.834 380.963 407.849 381.088 407.892 381.205C407.936 381.322 408.007 381.426 408.1 381.509C408.982 381.909 409.983 381.959 410.9 381.649C410.08 381.121 409.167 380.754 408.21 380.569Z" fill="#142C52"/>
<path d="M411.39 381.919H411.3C410.49 381.479 408.92 379.749 409.08 378.919C409.108 378.781 409.183 378.656 409.292 378.567C409.402 378.478 409.539 378.429 409.68 378.429C409.821 378.411 409.965 378.423 410.101 378.464C410.237 378.505 410.363 378.575 410.47 378.669C411.38 379.409 411.57 381.669 411.58 381.779C411.58 381.813 411.572 381.846 411.557 381.876C411.541 381.906 411.518 381.931 411.49 381.949C411.454 381.95 411.419 381.94 411.39 381.919ZM409.81 378.729H409.72C409.48 378.729 409.46 378.869 409.45 378.919C409.35 379.429 410.35 380.739 411.16 381.349C411.107 380.454 410.783 379.596 410.23 378.889C410.114 378.787 409.965 378.73 409.81 378.729Z" fill="#142C52"/>
<path d="M356.23 374.58C354.94 374.49 352.68 374.19 352.06 373.22C351.956 373.077 351.893 372.909 351.875 372.733C351.858 372.558 351.887 372.38 351.96 372.22C351.989 372.121 352.045 372.032 352.12 371.961C352.196 371.891 352.289 371.842 352.39 371.82C353.44 371.58 356.07 373.95 356.39 374.22C356.409 374.251 356.42 374.288 356.42 374.325C356.42 374.362 356.409 374.398 356.39 374.43C356.385 374.47 356.367 374.507 356.337 374.534C356.308 374.561 356.27 374.578 356.23 374.58ZM352.5 372.22H352.45C352.408 372.227 352.368 372.248 352.338 372.278C352.308 372.308 352.287 372.347 352.28 372.39C352.234 372.491 352.216 372.602 352.227 372.713C352.237 372.823 352.276 372.929 352.34 373.02C352.69 373.56 353.92 374.02 355.67 374.16C354.61 373.25 353.11 372.15 352.5 372.22Z" fill="#142C52"/>
<path d="M356.23 374.58C356.208 374.589 356.184 374.594 356.16 374.594C356.136 374.594 356.112 374.589 356.09 374.58C355.29 373.92 353.93 371.78 354.3 370.96C354.39 370.77 354.61 370.56 355.11 370.64C355.294 370.67 355.47 370.738 355.626 370.84C355.783 370.941 355.917 371.074 356.02 371.23C356.77 372.28 356.41 374.38 356.39 374.47C356.387 374.502 356.374 374.533 356.352 374.559C356.331 374.584 356.302 374.601 356.27 374.61L356.23 374.58ZM354.83 370.96C354.79 370.959 354.751 370.971 354.717 370.992C354.684 371.013 354.657 371.044 354.64 371.08C354.42 371.57 355.29 373.19 356.07 374.01C356.227 373.124 356.105 372.212 355.72 371.4C355.644 371.286 355.545 371.189 355.429 371.115C355.314 371.041 355.185 370.992 355.05 370.97C354.975 370.97 354.902 370.98 354.83 371V370.96Z" fill="#142C52"/>
<path d="M424.36 139.55C427.998 144.122 431.399 148.878 434.55 153.8C437.785 158.773 440.662 163.969 443.16 169.35C443.796 170.735 444.107 172.246 444.07 173.77C444.049 174.903 443.881 176.03 443.57 177.12C443.065 178.859 442.367 180.536 441.49 182.12C439.96 184.832 438.186 187.399 436.19 189.79C432.429 194.339 428.258 198.533 423.73 202.32L419.49 198.21C421.11 196 422.81 193.73 424.37 191.45C425.93 189.17 427.49 186.88 428.89 184.58C430.273 182.396 431.486 180.109 432.52 177.74C432.947 176.78 433.259 175.773 433.45 174.74C433.492 174.451 433.492 174.158 433.45 173.87C433.45 173.72 433.36 173.87 433.45 174.15C432.16 171.84 430.73 169.53 429.28 167.23C427.83 164.93 426.28 162.66 424.67 160.38C421.5 155.87 418.19 151.3 414.93 146.95L424.36 139.55Z" fill="#7F3E3B"/>
<path d="M422.93 135.26C430.12 137.46 437.27 154.76 437.27 154.76L424.5 167.92C424.5 167.92 416.88 158.01 412.5 149.35C407.68 139.91 414.22 132.6 422.93 135.26Z" fill="#142C52"/>
<path d="M422.24 197.139L414.24 196.899L418.15 206.149C418.15 206.149 424.99 204.839 424.71 201.149L422.24 197.139Z" fill="#7F3E3B"/>
<path d="M408.94 200.749L412.54 208.249L418.17 206.149L414.26 196.899L408.94 200.749Z" fill="#7F3E3B"/>
<path d="M219.37 188.6L218.89 187.72C220.96 186.58 223.11 185.53 225.28 184.59L225.68 185.51C223.54 186.44 221.41 187.48 219.37 188.6Z" fill="#142C52"/>
<path d="M202.27 201.49L201.56 200.79C205.187 197.124 209.182 193.84 213.48 190.99L214.03 191.83C209.791 194.642 205.851 197.878 202.27 201.49Z" fill="#142C52"/>
<path d="M192 216.85C192.5 216.85 193 216.85 193.51 216.85C199.779 206.276 208.676 197.504 219.336 191.384C229.997 185.264 242.059 182.005 254.351 181.923C266.643 181.842 278.747 184.941 289.488 190.919C300.229 196.896 309.241 205.55 315.65 216.04C319.603 213.079 324.303 211.278 329.222 210.838C334.141 210.398 339.086 211.337 343.501 213.55C347.917 215.762 351.629 219.161 354.222 223.365C356.814 227.568 358.185 232.411 358.18 237.35C358.18 238.2 358.13 239.03 358.05 239.86C369.04 240.492 379.352 245.379 386.799 253.486C394.247 261.593 398.244 272.281 397.943 283.286C397.643 294.29 393.069 304.744 385.19 312.433C377.311 320.121 366.748 324.439 355.74 324.47H192C177.723 324.47 164.031 318.799 153.936 308.704C143.841 298.608 138.17 284.917 138.17 270.64C138.17 256.363 143.841 242.671 153.936 232.576C164.031 222.481 177.723 216.81 192 216.81V216.85Z" fill="#142C52"/>
<path opacity="0.2" d="M333.69 176.101L350.69 273.531C350.954 275.062 350.6 276.636 349.706 277.907C348.812 279.177 347.451 280.042 345.92 280.311L284.92 290.951C284.161 291.084 283.384 291.067 282.632 290.899C281.88 290.731 281.169 290.417 280.539 289.974C279.909 289.531 279.373 288.967 278.961 288.316C278.55 287.666 278.27 286.94 278.14 286.181L261.14 188.751L333.69 176.101Z" fill="black"/>
<path d="M360.43 261.36L337.71 172.1L315.08 164.8L263.18 178C262.631 178.139 262.114 178.385 261.66 178.723C261.206 179.062 260.824 179.486 260.534 179.973C260.244 180.46 260.053 180.999 259.972 181.559C259.89 182.12 259.92 182.691 260.06 183.24L284.84 280.59C285.123 281.697 285.833 282.648 286.815 283.232C287.797 283.817 288.971 283.989 290.08 283.71L357.31 266.59C358.417 266.309 359.367 265.601 359.952 264.62C360.537 263.64 360.709 262.467 360.43 261.36Z" fill="white"/>
<path d="M289 284.86C287.818 284.86 286.67 284.467 285.736 283.743C284.802 283.019 284.135 282.005 283.84 280.86L259.08 183.5C258.907 182.823 258.87 182.118 258.97 181.426C259.071 180.734 259.306 180.068 259.664 179.467C260.021 178.866 260.494 178.342 261.054 177.924C261.615 177.505 262.252 177.202 262.93 177.03L314.83 163.82C315.013 163.767 315.207 163.767 315.39 163.82L338.02 171.12C338.184 171.172 338.332 171.266 338.45 171.392C338.567 171.518 338.65 171.673 338.69 171.84L361.41 261.09C361.753 262.459 361.541 263.907 360.819 265.119C360.098 266.331 358.926 267.209 357.56 267.56L290.33 284.67C289.896 284.789 289.45 284.852 289 284.86ZM315 165.86L263.42 179C262.575 179.217 261.851 179.76 261.405 180.509C260.959 181.259 260.828 182.154 261.04 183L285.82 280.35C285.926 280.767 286.115 281.159 286.374 281.502C286.633 281.846 286.958 282.134 287.33 282.35C287.702 282.573 288.115 282.72 288.544 282.781C288.973 282.843 289.41 282.819 289.83 282.71L357.06 265.59C357.477 265.484 357.869 265.296 358.212 265.036C358.555 264.777 358.844 264.452 359.06 264.08C359.283 263.708 359.429 263.296 359.491 262.866C359.553 262.437 359.529 262 359.42 261.58L336.84 172.86L315 165.86Z" fill="#142C52"/>
<path d="M337.71 172.1L315.08 164.8L326.37 176.64C327.142 177.452 328.201 177.932 329.321 177.977C330.441 178.021 331.535 177.628 332.37 176.88L337.71 172.1Z" fill="#E0E0E0"/>
<path d="M329.49 179C328.769 178.999 328.056 178.852 327.394 178.566C326.732 178.281 326.135 177.864 325.64 177.34L314.35 165.49C314.199 165.331 314.104 165.127 314.081 164.909C314.057 164.691 314.106 164.471 314.22 164.283C314.334 164.096 314.506 163.951 314.71 163.871C314.914 163.791 315.139 163.78 315.35 163.84L337.98 171.14C338.151 171.194 338.304 171.293 338.424 171.427C338.544 171.561 338.625 171.724 338.66 171.9C338.705 172.08 338.698 172.269 338.642 172.446C338.585 172.622 338.481 172.78 338.34 172.9L333 177.63C332.038 178.503 330.789 178.991 329.49 179ZM318.55 167L327.1 176C327.689 176.625 328.5 176.994 329.358 177.028C330.216 177.062 331.054 176.757 331.69 176.18L335.69 172.57L318.55 167Z" fill="#142C52"/>
<path d="M312.25 241.84L322.94 231.42L324.12 236.06C327.218 234.756 329.705 232.324 331.077 229.255C332.448 226.186 332.603 222.711 331.508 219.533C330.414 216.355 328.152 213.712 325.182 212.138C322.211 210.565 318.754 210.18 315.51 211.06L314.28 206.22C318.787 205.069 323.563 205.682 327.632 207.936C331.701 210.189 334.755 213.912 336.171 218.343C337.586 222.774 337.255 227.578 335.245 231.773C333.236 235.967 329.7 239.236 325.36 240.91L326.62 245.85L312.25 241.84Z" fill="#142C52"/>
<path d="M310 209.66L299.32 220.09L298.14 215.45C295.042 216.754 292.555 219.187 291.183 222.255C289.812 225.324 289.657 228.799 290.752 231.978C291.846 235.156 294.108 237.799 297.078 239.372C300.049 240.945 303.506 241.331 306.75 240.45L307.98 245.28C303.479 246.418 298.715 245.797 294.656 243.543C290.598 241.29 287.551 237.574 286.137 233.152C284.723 228.731 285.048 223.936 287.046 219.746C289.044 215.556 292.565 212.285 296.89 210.6L295.64 205.65L310 209.66Z" fill="#142C52"/>
</g>
<defs>
<filter id="filter0_d_1156_294" x="0" y="0" width="608" height="447.338" filterUnits="userSpaceOnUse" color-interpolation-filters="sRGB">
<feFlood flood-opacity="0" result="BackgroundImageFix"/>
<feColorMatrix in="SourceAlpha" type="matrix" values="0 0 0 0 0 0 0 0 0 0 0 0 0 0 0 0 0 0 127 0" result="hardAlpha"/>
<feOffset dy="4"/>
<feGaussianBlur stdDeviation="2"/>
<feComposite in2="hardAlpha" operator="out"/>
<feColorMatrix type="matrix" values="0 0 0 0 0 0 0 0 0 0 0 0 0 0 0 0 0 0 0.25 0"/>
<feBlend mode="normal" in2="BackgroundImageFix" result="effect1_dropShadow_1156_294"/>
<feBlend mode="normal" in="SourceGraphic" in2="effect1_dropShadow_1156_294" result="shape"/>
</filter>
<clipPath id="clip0_1156_294">
<rect width="500" height="373" fill="white" transform="translate(59 29)"/>
</clipPath>
</defs>
</svg>
