<svg width="50" height="50" viewBox="0 0 50 50" fill="none" xmlns="http://www.w3.org/2000/svg">
<path d="M11.192 50H0.825893V16.6176H11.192V50ZM6.00335 12.0639C2.68862 12.0639 0 9.31829 0 6.00348C2.37254e-08 4.41126 0.632494 2.88425 1.75834 1.75838C2.88419 0.632508 4.41116 0 6.00335 0C7.59554 0 9.12251 0.632508 10.2484 1.75838C11.3742 2.88425 12.0067 4.41126 12.0067 6.00348C12.0067 9.31829 9.31696 12.0639 6.00335 12.0639ZM49.9888 50H39.6451V33.7496C39.6451 29.8768 39.567 24.9102 34.2556 24.9102C28.8661 24.9102 28.0402 29.1178 28.0402 33.4706V50H17.6853V16.6176H27.6272V21.1712H27.7723C29.1562 18.5484 32.5368 15.7805 37.5804 15.7805C48.0714 15.7805 50 22.6891 50 31.6625V50H49.9888Z" fill="white" fill-opacity="0.3"/>
</svg>
