<svg width="426" height="426" viewBox="0 0 426 426" fill="none" xmlns="http://www.w3.org/2000/svg">
<path d="M380.378 168.553C367.056 150.198 335.983 146.622 318.433 161.468C318.251 153.963 315.749 146.672 311.236 140.5C306.723 134.327 300.397 129.544 293.042 126.742C285.687 123.939 277.625 123.242 269.855 124.735C262.086 126.228 254.949 129.846 249.329 135.142C251.836 126.799 242.593 118.665 233.45 118.217C224.308 117.769 215.84 122.422 207.996 126.894C200.152 131.366 191.634 135.972 182.491 135.39C172.593 134.761 164.367 128.22 155.123 124.835C132.488 116.549 103.842 131.252 98.8273 153.735C73.7756 144.2 41.6352 159.838 35.332 184.715L402.127 188.767C400.818 183.828 398.095 179.327 394.258 175.76C390.42 172.193 385.617 169.699 380.378 168.553Z" fill="#F5F5F5"/>
<path d="M365.615 56.7733C366.25 52.4062 359.745 48.8115 354.852 48.4396C352.526 48.268 350.099 48.6017 347.894 47.877C343.111 46.2942 341.198 40.4397 336.536 38.5803C333.042 37.1787 329.025 38.4278 325.641 40.0392C322.258 41.6506 318.915 43.6816 315.129 43.9105C311.847 44.1107 308.272 42.9569 305.403 44.473C303.258 45.6077 302.13 47.9438 300.157 49.3264C298.183 50.709 295.706 50.9569 293.3 51.0808C290.893 51.2048 288.426 51.2334 286.251 52.1774C284.076 53.1213 282.224 55.3144 282.717 57.5456L365.615 56.7733Z" fill="#FAFAFA"/>
<path d="M46.3167 20.8643C46.6691 18.4234 43.0443 16.421 40.2753 16.2208C39.0007 16.2604 37.7258 16.1515 36.4793 15.8966C33.811 15.0193 32.7437 11.7488 30.1358 10.7095C28.1925 9.93715 25.9471 10.6237 24.0944 11.5295C22.2417 12.4353 20.2581 13.5223 18.1536 13.6844C16.311 13.7988 14.3274 13.1505 12.7164 13.9991C11.5181 14.6379 10.8939 15.9061 9.79633 16.707C8.64524 17.3688 7.31608 17.7001 5.9701 17.6606C4.62583 17.6303 3.28734 17.8372 2.02304 18.2708C1.39028 18.4961 0.851845 18.9097 0.488687 19.4497C0.125529 19.9896 -0.0427197 20.6266 0.00923588 21.2648L46.3167 20.8643Z" fill="#FAFAFA"/>
<path d="M424.399 101.293C425.124 96.2771 417.653 92.1484 412.034 91.7574C409.346 91.5477 406.567 91.9386 403.979 91.0995C398.481 89.2879 396.286 82.518 390.889 80.4107C386.861 78.8088 382.26 80.2391 378.363 82.0889C374.466 83.9387 370.63 86.2748 366.28 86.5418C362.494 86.7706 358.396 85.4452 355.084 87.1901C352.627 88.4965 351.338 91.1853 349.042 92.7682C346.746 94.351 343.917 94.6752 341.168 94.7896C338.419 94.904 335.55 94.9612 333.042 96.0482C330.535 97.1352 328.451 99.6525 329.015 102.217L424.399 101.293Z" fill="#EBEBEB"/>
<path d="M414.14 15.2099C414.653 11.6724 409.387 8.77375 405.43 8.46863C403.547 8.3256 401.583 8.60212 399.801 8.01095C395.925 6.73325 394.384 1.99432 390.608 0.487774C387.779 -0.637364 384.567 0.363816 381.798 1.67012C379.029 2.97643 376.35 4.61646 373.289 4.79762C370.631 4.95972 367.741 4.02529 365.415 5.25531C363.684 6.20882 362.777 8.11583 361.176 9.18376C359.524 10.1506 357.611 10.644 355.669 10.6045C353.721 10.5642 351.782 10.8649 349.949 11.4912C348.187 12.2541 346.727 14.0276 347.09 15.8392L414.14 15.2099Z" fill="#EBEBEB"/>
<path d="M61.4709 99.5285C61.8535 96.8968 57.9367 94.761 54.9965 94.5131C53.5872 94.568 52.1762 94.4526 50.7977 94.1698C47.918 93.2163 46.7701 89.6978 43.9609 88.5727C41.8564 87.7336 39.4399 88.4869 37.4059 89.4499C35.372 90.413 33.3783 91.643 31.0826 91.786C29.0688 91.9004 26.9543 91.2139 25.2224 92.1293C23.9235 92.8063 23.2086 94.2175 22.0607 95.047C20.8211 95.7692 19.3875 96.1367 17.9324 96.1054C16.4851 96.0721 15.044 96.2953 13.6833 96.7633C13.0069 97.012 12.4335 97.4611 12.0488 98.0436C11.6641 98.6262 11.4886 99.311 11.5486 99.9957L61.4709 99.5285Z" fill="#EBEBEB"/>
<path d="M164.979 59.2238C165.784 53.6744 157.508 49.1071 151.295 48.6304C148.325 48.4015 145.254 48.8306 142.434 47.9057C136.393 45.8938 133.916 38.4469 127.985 36.0822C123.545 34.3087 118.43 35.882 114.13 37.932C109.831 39.982 105.571 42.5661 100.758 42.8616C96.5798 43.1095 92.0387 41.6411 88.3736 43.5768C85.6448 45.0166 84.2251 47.9915 81.7078 49.7555C79.1906 51.5195 76.039 51.8341 72.9881 51.9867C69.9372 52.1393 66.7855 52.1774 64.0065 53.3788C61.2274 54.5803 58.9317 57.3836 59.5056 60.2441L164.979 59.2238Z" fill="#F5F5F5"/>
<path d="M31.0229 385.18C31.2768 384.882 31.56 384.608 31.8687 384.36L34.2551 382.224C36.2689 380.413 39.0278 377.915 42.0083 375.064C44.9887 372.213 47.6066 369.581 49.4895 367.655L51.7249 365.366C51.9846 365.076 52.271 364.808 52.5807 364.566C52.3606 364.882 52.1148 365.182 51.8457 365.462C51.3523 366.034 50.6173 366.844 49.701 367.827C47.8684 369.8 45.2706 372.47 42.2902 375.321C39.3098 378.172 36.4804 380.623 34.4666 382.425C33.4597 383.292 32.5836 383.998 31.9896 384.475C31.6876 384.734 31.3644 384.97 31.0229 385.18Z" fill="#E0E0E0"/>
<path d="M397.243 387.917C397.243 387.917 397.082 387.745 396.83 387.383L395.823 385.752C394.917 384.341 393.649 382.263 392.128 379.679C389.107 374.501 385.08 367.216 380.77 359.13C376.461 351.045 372.534 343.722 369.594 338.487L366.09 332.308L365.143 330.611C365.015 330.422 364.917 330.216 364.851 330.001C365.013 330.164 365.152 330.347 365.264 330.544L366.271 332.165C367.177 333.576 368.446 335.655 369.966 338.249C372.987 343.426 377.014 350.701 381.324 358.797C385.634 366.892 389.56 374.196 392.501 379.431L396.005 385.619L396.951 387.297C397.076 387.491 397.174 387.699 397.243 387.917Z" fill="#E0E0E0"/>
<path d="M394.283 179.804H39.279C31.1766 179.804 24.6084 186.024 24.6084 193.697V406.596C24.6084 414.269 31.1766 420.489 39.279 420.489H394.283C402.385 420.489 408.953 414.269 408.953 406.596V193.697C408.953 186.024 402.385 179.804 394.283 179.804Z" fill="#455A64"/>
<path d="M9.58496 404.947H426V409.39C426 413.795 424.152 418.02 420.862 421.135C417.573 424.25 413.112 426 408.46 426H27.1252C22.4732 426 18.0118 424.25 14.7224 421.135C11.4329 418.02 9.58496 413.795 9.58496 409.39V404.947Z" fill="#455A64"/>
<path d="M397.555 189.368H34.9185V392.627H397.555V189.368Z" fill="#263238"/>
<path d="M178.885 402.696L184.061 410.477H256.769L261.562 402.696H178.885Z" fill="#263238"/>
<path d="M387.547 196.252H45.6837C43.8652 196.252 42.3911 197.648 42.3911 199.37V388.861C42.3911 390.583 43.8652 391.979 45.6837 391.979H387.547C389.366 391.979 390.84 390.583 390.84 388.861V199.37C390.84 197.648 389.366 196.252 387.547 196.252Z" fill="#EBEBEB"/>
<path d="M390.467 392.265H42.0186L42.3911 210.879H390.467V392.265Z" fill="#FAFAFA"/>
<path d="M70.9663 203.814C70.9643 204.334 70.7996 204.842 70.4931 205.273C70.1865 205.705 69.7518 206.041 69.2438 206.238C68.7358 206.436 68.1773 206.487 67.6389 206.384C67.1005 206.282 66.6063 206.03 66.2186 205.662C65.831 205.293 65.5673 204.824 65.4609 204.314C65.3545 203.804 65.4101 203.275 65.6207 202.795C65.8313 202.315 66.1875 201.904 66.6443 201.615C67.1011 201.327 67.638 201.173 68.1872 201.173C68.553 201.173 68.9152 201.241 69.2531 201.374C69.5909 201.507 69.8977 201.701 70.1559 201.947C70.4141 202.192 70.6186 202.483 70.7576 202.804C70.8967 203.124 70.9676 203.467 70.9663 203.814Z" fill="#263238"/>
<path d="M54.1002 203.814C54.1002 204.337 53.9364 204.848 53.6295 205.282C53.3225 205.717 52.8863 206.055 52.3761 206.255C51.8659 206.455 51.3046 206.506 50.7633 206.404C50.2219 206.301 49.725 206.048 49.3353 205.678C48.9457 205.308 48.6808 204.836 48.5743 204.323C48.4679 203.81 48.5245 203.279 48.7372 202.796C48.9498 202.314 49.3089 201.902 49.7689 201.613C50.2289 201.324 50.7691 201.171 51.3212 201.173C51.687 201.173 52.0492 201.241 52.387 201.374C52.7248 201.507 53.0316 201.701 53.2898 201.947C53.548 202.192 53.7525 202.483 53.8916 202.804C54.0306 203.124 54.1015 203.467 54.1002 203.814Z" fill="#263238"/>
<path d="M62.1958 203.814C62.1938 204.334 62.0291 204.842 61.7225 205.273C61.416 205.705 60.9812 206.041 60.4733 206.238C59.9653 206.436 59.4068 206.487 58.8684 206.384C58.33 206.282 57.8358 206.03 57.4481 205.662C57.0605 205.293 56.7968 204.824 56.6904 204.314C56.5839 203.804 56.6396 203.275 56.8502 202.795C57.0608 202.315 57.417 201.904 57.8738 201.615C58.3306 201.327 58.8675 201.173 59.4167 201.173C59.7825 201.173 60.1447 201.241 60.4826 201.374C60.8204 201.507 61.1272 201.701 61.3854 201.947C61.6436 202.192 61.8481 202.483 61.9871 202.804C62.1262 203.124 62.1971 203.467 62.1958 203.814Z" fill="#263238"/>
<path d="M405.651 402.696C405.651 402.82 320.346 402.925 215.135 402.925C109.923 402.925 24.6084 402.82 24.6084 402.696C24.6084 402.572 109.893 402.458 215.135 402.458C320.376 402.458 405.651 402.553 405.651 402.696Z" fill="#263238"/>
<path d="M353.766 288.971C348.91 292.935 345.306 298.093 343.352 303.874C341.397 309.656 341.168 315.837 342.69 321.734C338.149 320.886 333.458 321.106 329.028 322.376C324.599 323.646 320.566 325.927 317.285 329.018C314.004 332.109 311.575 335.916 310.211 340.104C308.847 344.292 308.59 348.733 309.462 353.038C299.483 346.535 284.229 348.966 277.05 358.215C276.899 352.113 276.647 345.677 273.264 340.48C269.881 335.283 262.188 332.08 256.761 335.379C258.817 333.159 260.067 330.373 260.325 327.43C260.583 324.487 259.836 321.544 258.193 319.034C256.551 316.523 254.1 314.579 251.203 313.488C248.306 312.396 245.114 312.215 242.1 312.971C241.949 305.648 237.066 253.797 233.038 210.05H198.642C194.615 253.034 190.013 302.406 189.862 309.548C186.84 308.776 183.635 308.948 180.724 310.039C177.813 311.129 175.352 313.081 173.706 315.602C172.06 318.124 171.318 321.081 171.589 324.034C171.86 326.988 173.131 329.779 175.212 331.994C169.784 328.695 162.122 331.908 158.708 337.095C155.295 342.282 155.063 348.728 154.912 354.83C147.733 345.591 132.489 343.15 122.5 349.653C123.372 345.348 123.115 340.907 121.751 336.719C120.387 332.531 117.958 328.724 114.677 325.633C111.396 322.542 107.363 320.262 102.934 318.991C98.5041 317.721 93.813 317.501 89.2723 318.349C90.8857 312.452 90.6983 306.242 88.7319 300.442C86.7655 294.641 83.1009 289.489 78.1642 285.583C73.2274 281.677 67.2213 279.178 60.8441 278.377C54.4669 277.576 47.9805 278.505 42.1392 281.057V392.17H389.823V284.423C383.955 281.955 377.48 281.073 371.116 281.876C364.752 282.679 358.746 285.135 353.766 288.971Z" fill="#D9E5FF"/>
<path d="M351.64 369.981C345.401 366.012 338.368 363.298 330.976 362.006C323.584 360.714 315.991 360.872 308.666 362.47C301.341 364.068 294.441 367.072 288.391 371.296C282.341 375.521 277.271 380.876 273.495 387.03C270.436 383.117 266.44 379.947 261.835 377.781C262.161 376.959 262.434 376.118 262.65 375.264C263.541 371.611 263.433 367.803 262.335 364.201C261.238 360.598 259.187 357.321 256.378 354.679C253.569 352.037 250.094 350.118 246.283 349.103C242.471 348.088 238.449 348.012 234.598 348.88L224.307 210.05H210.815V337.715C202.458 338.926 196.628 348.299 199.578 355.831C196.666 356.26 193.908 357.352 191.541 359.013C189.173 360.674 187.266 362.854 185.985 365.366C185.179 367.007 185.058 370.477 185.753 374.406C180.659 374.494 175.653 375.681 171.117 377.877C166.58 380.073 162.632 383.219 159.574 387.078C155.797 380.924 150.727 375.569 144.677 371.344C138.628 367.119 131.727 364.115 124.402 362.517C117.077 360.919 109.484 360.761 102.092 362.053C94.7007 363.346 87.6675 366.06 81.4278 370.029C77.8936 353.82 58.7524 342.301 41.7559 346.191V392.465L198.621 392.274C199.699 392.565 200.814 392.713 201.934 392.713L240.277 392.284L391.383 392.465V346.106C374.346 342.253 355.205 353.772 351.64 369.981Z" fill="#AAC1F6"/>
<path d="M202.87 166.589C195.137 170.069 191.633 180.1 195.661 187.261C197.252 190.121 199.849 192.572 200.192 195.757C200.715 200.638 195.842 204.453 194.332 209.106C193.565 211.894 193.967 214.856 195.454 217.37C196.94 219.885 199.395 221.758 202.306 222.598C204.954 223.256 208.126 223.141 209.898 225.115C212.164 227.632 210.523 231.79 212.466 234.564C214.208 237.053 218.286 237.177 220.914 235.518C223.542 233.859 224.992 230.989 226.029 228.166C227.066 225.344 227.841 222.378 229.634 219.918C231.647 217.22 234.618 215.37 237.014 212.996C242.774 207.275 244.536 198.693 243.237 190.865C241.938 183.037 237.94 175.876 233.42 169.23" fill="#0AF89B"/>
<g opacity="0.3">
<path d="M202.87 166.589C195.137 170.069 191.633 180.1 195.661 187.261C197.252 190.121 199.849 192.572 200.192 195.757C200.715 200.638 195.842 204.453 194.332 209.106C193.565 211.894 193.967 214.856 195.454 217.37C196.94 219.885 199.395 221.758 202.306 222.598C204.954 223.256 208.126 223.141 209.898 225.115C212.164 227.632 210.523 231.79 212.466 234.564C214.208 237.053 218.286 237.177 220.914 235.518C223.542 233.859 224.992 230.989 226.029 228.166C227.066 225.344 227.841 222.378 229.634 219.918C231.647 217.22 234.618 215.37 237.014 212.996C242.774 207.275 244.536 198.693 243.237 190.865C241.938 183.037 237.94 175.876 233.42 169.23" fill="white"/>
</g>
<path d="M209.666 170.708C203.112 173.445 200.242 182.055 203.947 187.871C206.213 191.418 210.603 194.622 209.536 198.636C208.811 201.363 205.729 203.032 204.843 205.711C203.665 209.277 207.23 213.063 211.157 213.511C215.084 213.959 218.87 211.976 221.84 209.506C232.12 200.925 234.628 184.143 228.214 172.691" fill="#0AF89B"/>
<path d="M243.459 116.129C243.459 116.129 277.129 137.221 273.454 173.711L242.502 160.553L243.459 116.129Z" fill="#0AF89B"/>
<path d="M187.517 159.819L195.169 171.824H234.851L242.504 160.505L187.517 159.819Z" fill="#263238"/>
<path d="M212.95 38.6949C205.399 39.1741 198.333 42.3902 193.221 47.6748C188.109 52.9595 185.345 59.9062 185.501 67.0713L187.515 160.515H242.502L244.335 67.0236C244.412 63.1638 243.642 59.3309 242.072 55.7679C240.503 52.205 238.169 48.9898 235.218 46.3262C232.267 43.6627 228.764 41.6089 224.93 40.2952C221.097 38.9815 217.017 38.4366 212.95 38.6949Z" fill="#0AF89B"/>
<g opacity="0.8">
<path d="M212.95 38.6949C205.399 39.1741 198.333 42.3902 193.221 47.6748C188.109 52.9595 185.345 59.9062 185.501 67.0713L187.515 160.515H242.502L244.335 67.0236C244.412 63.1638 243.642 59.3309 242.072 55.7679C240.503 52.205 238.169 48.9898 235.218 46.3262C232.267 43.6627 228.764 41.6089 224.93 40.2952C221.097 38.9815 217.017 38.4366 212.95 38.6949Z" fill="white"/>
</g>
<path d="M186.51 116.129C186.51 116.129 152.879 137.221 156.564 173.711L187.517 160.534L186.51 116.129Z" fill="#0AF89B"/>
<path d="M185.804 63.9723C197.433 54.3323 233.934 54.5421 243.731 62.3895C241.214 27.7009 213.242 14.7141 213.242 14.7141C184.626 33.4791 185.804 63.9723 185.804 63.9723Z" fill="#0AF89B"/>
<path d="M213.243 14.7238L213.575 15.0098C213.787 15.2005 214.109 15.477 214.512 15.8489L216.042 17.2219L217.049 18.0992L218.056 19.1671C218.781 19.9204 219.607 20.7499 220.483 21.6844L223.161 24.85C223.614 25.4316 224.067 26.061 224.541 26.6903C225.014 27.3196 225.548 27.968 225.97 28.6831C226.867 30.0943 227.863 31.5436 228.719 33.2123C230.683 36.7588 232.207 40.5088 233.26 44.3874C233.854 46.5438 234.295 48.7354 234.579 50.9475C234.751 52.0917 234.841 53.255 235.012 54.4087C235.122 55.6072 235.166 56.8102 235.143 58.013C235.143 67.6911 235.012 78.3322 234.882 89.4787C234.6 111.829 234.267 132.053 234.016 146.689C233.885 154.003 233.774 159.924 233.693 164.024C233.693 166.064 233.613 167.657 233.593 168.791C233.593 169.325 233.593 169.745 233.593 170.012C233.593 170.279 233.593 170.432 233.593 170.432C233.593 170.432 233.593 170.288 233.593 170.012C233.593 169.735 233.593 169.325 233.593 168.791C233.593 167.704 233.593 166.112 233.643 164.024C233.693 159.924 233.774 154.003 233.865 146.689C234.066 132.034 234.338 111.81 234.65 89.4787C234.781 78.3036 234.932 67.6625 234.932 58.013C234.959 56.8229 234.916 55.6323 234.801 54.4469C234.64 53.2741 234.549 52.1203 234.388 50.9856C234.107 48.78 233.67 46.5947 233.079 44.4446C232.039 40.5825 230.536 36.8458 228.598 33.3076C227.692 31.639 226.695 30.1896 225.779 28.7785C225.336 28.0633 224.772 27.434 224.359 26.7856C223.947 26.1372 223.453 25.527 223 24.9454L220.342 21.7702C219.476 20.8167 218.66 20.0062 217.935 19.2434L216.928 18.1659L215.972 17.2792L214.462 15.887L213.545 15.0289L213.243 14.7238Z" fill="#263238"/>
<path d="M212.92 97.6217C220.939 97.6217 227.44 91.9013 227.44 84.8447C227.44 77.7882 220.939 72.0677 212.92 72.0677C204.901 72.0677 198.401 77.7882 198.401 84.8447C198.401 91.9013 204.901 97.6217 212.92 97.6217Z" fill="#FAFAFA"/>
<path d="M216.052 71.4193C215.975 71.4298 215.897 71.4298 215.82 71.4193L215.166 71.3334L214.682 71.2572H214.088H213.403C213.152 71.2572 212.89 71.2572 212.618 71.2572C212.006 71.2932 211.397 71.3697 210.796 71.486C210.081 71.6296 209.38 71.8305 208.701 72.0867C207.043 72.7132 205.526 73.6321 204.231 74.7947C202.66 76.198 201.433 77.9099 200.636 79.8101C200.414 80.3285 200.229 80.8605 200.082 81.4025C200.012 81.679 199.921 81.9555 199.851 82.232L199.7 83.0902L199.619 83.5288V83.9674C199.619 84.263 199.569 84.5681 199.548 84.8637C199.528 85.1593 199.548 85.4644 199.548 85.7695V86.2272L199.599 86.6944C199.864 89.2851 200.913 91.7482 202.62 93.7885C204.417 96.006 206.982 97.5525 209.864 98.1559C212.746 98.7593 215.761 98.3811 218.378 97.0877C220.821 95.902 222.854 94.079 224.238 91.8339L224.489 91.4429L224.701 91.0234L225.124 90.2129L225.456 89.3738L225.617 88.9543L225.748 88.5252L225.99 87.6861C226.06 87.4096 226.09 87.1235 226.151 86.847C226.252 86.295 226.319 85.7378 226.352 85.1784C226.486 83.1365 226.142 81.0918 225.345 79.1903C224.423 76.9648 222.873 75.022 220.865 73.5742C220.37 73.2253 219.852 72.9068 219.314 72.6207C219.062 72.5063 218.841 72.3728 218.619 72.2774L217.985 72.0295L217.431 71.8197L216.968 71.6862L216.324 71.5051C216.25 71.4873 216.179 71.4617 216.112 71.4288H216.334L216.978 71.5814L217.461 71.7053L218.015 71.9056L218.66 72.1439L219.364 72.4777C219.916 72.7625 220.447 73.081 220.955 73.4312C221.544 73.853 222.099 74.3151 222.617 74.8137C223.869 76.0444 224.86 77.4913 225.537 79.0759C226.369 80.9993 226.737 83.0744 226.614 85.1498C226.59 85.7189 226.526 86.2858 226.423 86.847C226.362 87.1331 226.332 87.4191 226.262 87.7052C226.191 87.9912 226.101 88.2773 226.01 88.5633L225.889 88.9924L225.728 89.4119L225.386 90.2701L224.963 91.0997L224.751 91.5287L224.489 91.9292C223.092 94.2239 221.021 96.0853 218.529 97.2879C215.855 98.6165 212.772 99.0073 209.824 98.3914C206.876 97.7755 204.253 96.1924 202.418 93.922C200.695 91.8325 199.646 89.3161 199.397 86.6754V86.2082V85.7409C199.397 85.4358 199.397 85.1212 199.397 84.7874C199.397 84.4537 199.397 84.1772 199.478 83.8339V83.3858L199.548 82.9376C199.609 82.6516 199.659 82.356 199.71 82.0699C199.76 81.7839 199.871 81.5074 199.951 81.2213C200.1 80.6714 200.292 80.1328 200.525 79.6099C201.336 77.6783 202.592 75.9421 204.2 74.5277C205.521 73.3604 207.066 72.4443 208.752 71.8293C209.441 71.5757 210.152 71.378 210.876 71.2381C211.485 71.1279 212.1 71.0578 212.719 71.0283C213.001 71.0283 213.263 71.0283 213.514 71.0283H214.209H214.803L215.286 71.1141L215.941 71.2286L216.052 71.4193Z" fill="#263238"/>
<path d="M199.015 82.7851C199.015 82.9471 195.913 82.8709 192.178 83.5097C188.442 84.1486 185.562 85.2165 185.502 85.0639C186.056 84.6823 186.676 84.3951 187.335 84.2153C190.418 83.1197 193.688 82.5702 196.981 82.5944C197.665 82.5529 198.352 82.6173 199.015 82.7851Z" fill="#263238"/>
<path d="M243.468 82.766C242.637 82.7712 241.807 82.6977 240.991 82.5467C239.481 82.375 237.387 82.1462 235.071 81.9841C232.755 81.822 230.651 81.7839 229.12 81.7553C228.293 81.7972 227.463 81.762 226.643 81.6504C227.448 81.4524 228.279 81.3626 229.11 81.3834C231.124 81.2969 233.141 81.3223 235.151 81.4597C237.144 81.5909 239.128 81.8297 241.092 82.1748C241.907 82.2779 242.705 82.4765 243.468 82.766Z" fill="#263238"/>
<path d="M243.771 136.239C243.577 136.264 243.381 136.264 243.187 136.239L241.526 136.115L235.414 135.676C230.259 135.333 223.12 134.999 215.276 135.009C207.432 135.018 200.253 135.361 195.087 135.714L188.986 136.172L187.324 136.286C187.131 136.313 186.934 136.313 186.74 136.286C186.925 136.224 187.118 136.186 187.314 136.172L188.965 135.952C190.395 135.771 192.48 135.552 195.007 135.333C200.162 134.875 207.321 134.475 215.226 134.465C223.13 134.455 230.329 134.846 235.434 135.295C238.022 135.514 240.096 135.724 241.536 135.905L243.187 136.115C243.387 136.131 243.583 136.173 243.771 136.239Z" fill="#263238"/>
<path d="M200.474 96.1818C200.474 96.2581 200.132 96.2867 199.9 96.6585C199.833 96.7542 199.788 96.8625 199.769 96.9761C199.75 97.0896 199.757 97.2057 199.789 97.3164C199.841 97.4337 199.927 97.5342 200.038 97.6054C200.149 97.6766 200.28 97.7154 200.414 97.7169C200.548 97.7361 200.686 97.7174 200.809 97.6632C200.933 97.6089 201.037 97.5215 201.108 97.4118C201.158 97.3069 201.184 97.1932 201.184 97.0781C201.184 96.963 201.158 96.8492 201.108 96.7443C200.937 96.3439 200.605 96.2676 200.625 96.1913C200.645 96.115 201.088 96.0483 201.461 96.5632C201.566 96.7169 201.632 96.8919 201.653 97.074C201.674 97.2562 201.649 97.4404 201.582 97.612C201.48 97.8258 201.309 98.0031 201.094 98.1181C200.878 98.2331 200.629 98.2796 200.383 98.2509C200.172 98.2402 199.967 98.1733 199.794 98.0577C199.621 97.9421 199.485 97.7826 199.403 97.5975C199.321 97.4123 199.296 97.209 199.33 97.0109C199.365 96.8127 199.458 96.6278 199.598 96.4774C200.041 95.972 200.514 96.115 200.474 96.1818Z" fill="#263238"/>
<path d="M212.457 102.294C212.457 102.38 212.115 102.408 211.883 102.78C211.818 102.875 211.774 102.981 211.755 103.093C211.736 103.205 211.742 103.319 211.772 103.428C211.821 103.548 211.907 103.651 212.018 103.725C212.129 103.798 212.261 103.837 212.397 103.838C212.532 103.855 212.67 103.835 212.794 103.779C212.917 103.723 213.02 103.634 213.092 103.524C213.139 103.42 213.163 103.308 213.163 103.195C213.163 103.082 213.139 102.97 213.092 102.866C212.91 102.465 212.578 102.389 212.598 102.313C212.618 102.237 213.061 102.17 213.434 102.685C213.539 102.837 213.605 103.01 213.626 103.191C213.647 103.371 213.622 103.554 213.555 103.724C213.454 103.939 213.283 104.117 213.068 104.234C212.852 104.35 212.603 104.399 212.356 104.372C212.135 104.37 211.919 104.305 211.736 104.187C211.553 104.069 211.41 103.903 211.326 103.708C211.243 103.514 211.221 103.301 211.265 103.095C211.308 102.889 211.415 102.7 211.571 102.551C212.024 102.094 212.497 102.198 212.457 102.294Z" fill="#263238"/>
<path d="M225.677 97.0781C225.677 97.1639 225.345 97.1925 225.103 97.5644C225.038 97.6592 224.994 97.7658 224.975 97.8775C224.956 97.9892 224.962 98.1034 224.992 98.2128C225.045 98.3319 225.133 98.434 225.245 98.5068C225.358 98.5796 225.49 98.6199 225.627 98.6228C225.761 98.6417 225.898 98.6218 226.02 98.5656C226.142 98.5095 226.244 98.4197 226.311 98.3081C226.359 98.2043 226.383 98.0923 226.383 97.9792C226.383 97.866 226.359 97.7541 226.311 97.6502C226.14 97.2497 225.798 97.1735 225.818 97.0876C225.838 97.0018 226.281 96.9541 226.654 97.469C226.763 97.6193 226.832 97.7924 226.854 97.9734C226.877 98.1545 226.853 98.3381 226.785 98.5084C226.679 98.7219 226.506 98.8991 226.29 99.0152C226.073 99.1314 225.824 99.1809 225.576 99.1568C225.329 99.147 225.092 99.0633 224.898 98.9177C224.705 98.772 224.565 98.572 224.499 98.3463C224.459 98.168 224.465 97.9832 224.515 97.8074C224.566 97.6316 224.661 97.4698 224.791 97.3355C225.244 96.8779 225.717 97.0209 225.677 97.0781Z" fill="#263238"/>
<path d="M229.976 87.7242C229.976 87.8005 229.634 87.8291 229.392 88.2009C229.328 88.2981 229.287 88.4067 229.269 88.5199C229.252 88.6332 229.259 88.7486 229.291 88.8589C229.34 88.9787 229.426 89.0819 229.537 89.155C229.648 89.2281 229.78 89.2678 229.916 89.2689C230.05 89.2852 230.186 89.2641 230.308 89.2082C230.429 89.1523 230.531 89.0641 230.6 88.9542C230.648 88.8504 230.672 88.7384 230.672 88.6253C230.672 88.5121 230.648 88.4002 230.6 88.2963C230.429 87.8958 230.097 87.81 230.107 87.7337C230.117 87.6575 230.57 87.6002 230.953 88.1151C231.059 88.2668 231.125 88.4402 231.146 88.621C231.167 88.8017 231.142 88.9846 231.074 89.1545C230.971 89.3673 230.8 89.5438 230.584 89.6586C230.369 89.7733 230.121 89.8205 229.876 89.7933C229.627 89.7841 229.388 89.7008 229.193 89.5552C228.998 89.4096 228.856 89.2093 228.788 88.9828C228.749 88.8045 228.755 88.6199 228.806 88.4443C228.857 88.2686 228.951 88.1068 229.08 87.9721C229.533 87.524 230.006 87.667 229.976 87.7242Z" fill="#263238"/>
<path d="M196.104 86.8183C196.104 86.8946 195.762 86.9232 195.53 87.2951C195.465 87.3918 195.422 87.5 195.403 87.6132C195.384 87.7263 195.39 87.842 195.419 87.953C195.469 88.0721 195.555 88.1745 195.666 88.2475C195.777 88.3205 195.909 88.3607 196.044 88.363C196.179 88.3776 196.316 88.3559 196.439 88.3002C196.562 88.2446 196.666 88.1573 196.738 88.0483C196.788 87.9451 196.814 87.8329 196.814 87.7194C196.814 87.6059 196.788 87.4937 196.738 87.3904C196.567 86.9899 196.235 86.9041 196.255 86.8278C196.275 86.7516 196.718 86.6944 197.091 87.2092C197.197 87.3609 197.263 87.5343 197.284 87.7151C197.305 87.8958 197.28 88.0787 197.212 88.2486C197.11 88.4623 196.939 88.6397 196.724 88.7547C196.508 88.8696 196.259 88.9162 196.014 88.8874C195.765 88.8782 195.526 88.7949 195.331 88.6493C195.136 88.5037 194.994 88.3034 194.926 88.0769C194.887 87.8979 194.894 87.7125 194.946 87.5365C194.999 87.3605 195.096 87.1992 195.228 87.0662C195.671 86.6181 196.144 86.7611 196.104 86.8183Z" fill="#263238"/>
<path d="M225.657 73.9843C225.657 73.908 225.999 73.8794 226.231 73.5075C226.298 73.4118 226.342 73.3035 226.362 73.19C226.381 73.0764 226.374 72.9603 226.341 72.8496C226.289 72.7319 226.203 72.6308 226.092 72.5581C225.982 72.4854 225.852 72.4443 225.717 72.4396C225.583 72.4233 225.447 72.4443 225.325 72.5002C225.203 72.5561 225.102 72.6444 225.032 72.7542C224.98 72.8567 224.952 72.9692 224.952 73.0832C224.952 73.1971 224.98 73.3096 225.032 73.4121C225.203 73.8126 225.536 73.8984 225.516 73.9747C225.495 74.051 225.052 74.1082 224.68 73.5933C224.574 73.4416 224.508 73.2682 224.487 73.0875C224.466 72.9067 224.491 72.7239 224.559 72.554C224.66 72.3402 224.832 72.1629 225.047 72.0479C225.263 71.9329 225.512 71.8864 225.757 71.9151C225.979 71.9177 226.195 71.9821 226.378 72.1002C226.561 72.2183 226.704 72.3849 226.787 72.5792C226.871 72.7735 226.893 72.9869 226.849 73.1927C226.806 73.3985 226.699 73.5876 226.543 73.7363C226.09 74.194 225.616 74.0415 225.657 73.9843Z" fill="#263238"/>
<path d="M212.436 68.4347C212.436 68.3585 212.779 68.3299 213.01 67.958C213.075 67.8613 213.118 67.753 213.137 67.6399C213.156 67.5267 213.151 67.4111 213.121 67.3001C213.067 67.1817 212.979 67.0802 212.867 67.0076C212.754 66.9349 212.623 66.8942 212.487 66.8901C212.352 66.8737 212.216 66.8948 212.095 66.9507C211.973 67.0066 211.871 67.0949 211.802 67.2047C211.754 67.3086 211.73 67.4205 211.73 67.5337C211.73 67.6468 211.754 67.7588 211.802 67.8626C211.973 68.2726 212.315 68.3489 212.295 68.4252C212.275 68.5015 211.832 68.5682 211.46 68.0438C211.326 67.8747 211.249 67.6716 211.238 67.4606C211.227 67.2497 211.284 67.0405 211.399 66.86C211.515 66.6796 211.686 66.536 211.888 66.4479C212.091 66.3598 212.317 66.3312 212.537 66.3656C212.784 66.3753 213.021 66.459 213.215 66.6047C213.409 66.7503 213.548 66.9504 213.614 67.1761C213.653 67.3545 213.647 67.539 213.596 67.7147C213.546 67.8904 213.452 68.0521 213.322 68.1868C212.869 68.6445 212.396 68.5015 212.436 68.4347Z" fill="#263238"/>
<path d="M199.367 73.9843C199.367 73.908 199.71 73.8794 199.941 73.5076C200.006 73.4109 200.05 73.3026 200.069 73.1894C200.088 73.0763 200.082 72.9606 200.052 72.8496C199.998 72.7312 199.91 72.6297 199.798 72.5571C199.686 72.4845 199.554 72.4437 199.418 72.4396C199.284 72.4233 199.147 72.4444 199.026 72.5003C198.904 72.5562 198.802 72.6444 198.733 72.7543C198.686 72.8582 198.661 72.9701 198.661 73.0832C198.661 73.1964 198.686 73.3083 198.733 73.4122C198.904 73.8127 199.247 73.8985 199.226 73.9748C199.206 74.0511 198.763 74.1083 198.391 73.5934C198.257 73.4242 198.18 73.2211 198.169 73.0102C198.159 72.7992 198.215 72.5901 198.331 72.4096C198.446 72.2291 198.617 72.0856 198.819 71.9975C199.022 71.9094 199.248 71.8807 199.468 71.9152C199.715 71.9249 199.953 72.0086 200.146 72.1543C200.34 72.2999 200.48 72.5 200.545 72.7257C200.584 72.904 200.578 73.0886 200.528 73.2642C200.477 73.4399 200.383 73.6017 200.253 73.7364C199.8 74.1941 199.327 74.0415 199.367 73.9843Z" fill="#263238"/>
<path d="M210.766 119.962L211.944 175.752C211.962 176.527 212.304 177.263 212.895 177.799C213.486 178.335 214.277 178.628 215.095 178.613C215.891 178.596 216.649 178.289 217.211 177.756C217.774 177.223 218.098 176.505 218.116 175.752C218.237 165.702 218.63 131.891 218.69 119.905C218.692 119.364 218.571 118.829 218.334 118.337C218.097 117.845 217.75 117.407 217.318 117.054C216.886 116.701 216.378 116.44 215.829 116.29C215.28 116.141 214.703 116.105 214.139 116.186C213.189 116.322 212.324 116.78 211.704 117.475C211.083 118.169 210.75 119.053 210.766 119.962Z" fill="#0AF89B"/>
<g opacity="0.3">
<path d="M210.766 119.962L211.944 175.752C211.962 176.527 212.304 177.263 212.895 177.799C213.486 178.335 214.277 178.628 215.095 178.613C215.891 178.596 216.649 178.289 217.211 177.756C217.774 177.223 218.098 176.505 218.116 175.752C218.237 165.702 218.63 131.891 218.69 119.905C218.692 119.364 218.571 118.829 218.334 118.337C218.097 117.845 217.75 117.407 217.318 117.054C216.886 116.701 216.378 116.44 215.829 116.29C215.28 116.141 214.703 116.105 214.139 116.186C213.189 116.322 212.324 116.78 211.704 117.475C211.083 118.169 210.75 119.053 210.766 119.962Z" fill="black"/>
</g>
<path d="M212.588 17.9084C212.759 18.0991 210.805 19.8917 207.956 23.0383C206.526 24.602 204.935 26.5472 203.254 28.7593C201.466 31.1867 199.819 33.7045 198.32 36.3016C196.859 38.914 195.552 41.6006 194.403 44.3492C193.396 46.895 192.54 49.2311 191.946 51.2239C190.748 55.2096 190.244 57.7459 189.932 57.7078C189.62 57.6696 189.822 55.0761 190.748 50.9474C191.303 48.5347 192.023 46.1586 192.903 43.8343C193.993 40.9869 195.292 38.215 196.789 35.5387C198.328 32.8909 200.05 30.3426 201.945 27.9107C203.509 25.9332 205.208 24.054 207.029 22.285C210.201 19.2433 212.457 17.7654 212.588 17.9084Z" fill="white"/>
<path d="M185.27 121.679C185.431 121.917 182.642 123.586 178.755 127.037L177.255 128.391C176.731 128.868 176.248 129.411 175.704 129.936C174.607 130.985 173.58 132.224 172.462 133.493C170.129 136.312 168.057 139.317 166.269 142.475C164.527 145.658 163.072 148.975 161.92 152.391C161.446 153.974 160.913 155.48 160.651 156.92C160.49 157.645 160.298 158.331 160.178 159.008C160.057 159.685 159.946 160.324 159.845 160.915C159.06 165.883 159.13 169.02 158.838 169.03C158.718 169.03 158.607 168.257 158.506 166.827C158.506 166.465 158.456 166.064 158.436 165.635C158.416 165.206 158.436 164.729 158.436 164.224C158.444 163.074 158.514 161.925 158.647 160.782C158.718 160.143 158.798 159.476 158.879 158.78C158.959 158.083 159.13 157.368 159.261 156.634C159.513 155.137 159.966 153.583 160.419 151.943C162.557 144.83 166.244 138.22 171.244 132.539C172.328 131.303 173.477 130.119 174.687 128.992C175.251 128.468 175.785 127.934 176.338 127.476L177.949 126.17C178.873 125.419 179.837 124.716 180.839 124.062C181.272 123.767 181.675 123.481 182.058 123.242L183.135 122.632C184.494 121.936 185.199 121.583 185.27 121.679Z" fill="white"/>
<path d="M280.584 317.214C279.979 317.512 279.471 317.961 279.116 318.512C278.761 319.063 278.573 319.696 278.57 320.342C278.594 321.062 278.863 321.756 279.337 322.32C279.811 322.884 280.465 323.289 281.201 323.472C281.937 323.656 282.716 323.61 283.422 323.341C284.128 323.072 284.724 322.594 285.12 321.979C285.517 321.363 285.692 320.643 285.622 319.925C285.551 319.208 285.237 318.531 284.728 317.995C284.218 317.46 283.539 317.095 282.793 316.954C282.046 316.813 281.271 316.905 280.584 317.214Z" fill="#0AF89B"/>
<g opacity="0.8">
<path d="M280.584 317.214C279.979 317.512 279.471 317.961 279.116 318.512C278.761 319.063 278.573 319.696 278.57 320.342C278.594 321.062 278.863 321.756 279.337 322.32C279.811 322.884 280.465 323.289 281.201 323.472C281.937 323.656 282.716 323.61 283.422 323.341C284.128 323.072 284.724 322.594 285.12 321.979C285.517 321.363 285.692 320.643 285.622 319.925C285.551 319.208 285.237 318.531 284.728 317.995C284.218 317.46 283.539 317.095 282.793 316.954C282.046 316.813 281.271 316.905 280.584 317.214Z" fill="white"/>
</g>
</svg>
