<svg width="390" height="225" viewBox="0 0 390 225" fill="none" xmlns="http://www.w3.org/2000/svg">
<g clip-path="url(#clip0_1592_9259)">
<path d="M343.826 0.120483H265.586V48.6952H343.826V0.120483Z" fill="white" stroke="#EBEBEB" stroke-miterlimit="10"/>
<path d="M273.151 3.79347C273.151 4.12218 273.045 4.44351 272.847 4.71683C272.649 4.99014 272.367 5.20316 272.037 5.32896C271.708 5.45475 271.345 5.48766 270.995 5.42354C270.645 5.35941 270.324 5.20112 270.071 4.96868C269.819 4.73625 269.647 4.44011 269.578 4.11771C269.508 3.79531 269.544 3.46114 269.68 3.15745C269.817 2.85376 270.048 2.59419 270.345 2.41157C270.641 2.22894 270.99 2.13147 271.347 2.13147C271.825 2.13147 272.284 2.30657 272.623 2.61826C272.961 2.92994 273.151 3.35268 273.151 3.79347Z" fill="#37474F"/>
<path d="M280.505 3.79347C280.505 4.12218 280.4 4.44351 280.201 4.71683C280.003 4.99014 279.721 5.20316 279.392 5.32896C279.062 5.45475 278.699 5.48766 278.35 5.42354C278 5.35941 277.678 5.20112 277.426 4.96868C277.174 4.73625 277.002 4.44011 276.932 4.11771C276.863 3.79531 276.898 3.46114 277.035 3.15745C277.171 2.85376 277.403 2.59419 277.699 2.41157C277.996 2.22894 278.345 2.13147 278.701 2.13147C279.18 2.13147 279.639 2.30657 279.977 2.61826C280.315 2.92994 280.505 3.35268 280.505 3.79347Z" fill="#EBEBEB"/>
<path d="M287.866 3.79347C287.866 4.12218 287.76 4.44351 287.562 4.71683C287.364 4.99014 287.082 5.20316 286.752 5.32896C286.423 5.45475 286.06 5.48766 285.71 5.42354C285.36 5.35941 285.038 5.20112 284.786 4.96868C284.534 4.73625 284.362 4.44011 284.292 4.11771C284.223 3.79531 284.259 3.46114 284.395 3.15745C284.532 2.85376 284.763 2.59419 285.06 2.41157C285.356 2.22894 285.705 2.13147 286.062 2.13147C286.54 2.13147 286.999 2.30657 287.337 2.61826C287.676 2.92994 287.866 3.35268 287.866 3.79347Z" fill="#07F9A2"/>
<path d="M265.586 7.43878H343.832" stroke="#EBEBEB" stroke-miterlimit="10"/>
<path d="M7.1875 0.530457V104.284H93.3586V0.530457H7.1875ZM91.0855 102.189H9.46054V2.62458H91.0855V102.189Z" fill="#EBEBEB"/>
<path d="M91.0854 2.62457V102.189H52.2934V3.16749H50.0264V102.189H9.46045V2.62457H91.0854Z" fill="#0C5D4F"/>
<path d="M52.2934 3.16748H50.0264V103.236H52.2934V3.16748Z" fill="#EBEBEB"/>
<path d="M5.13069 7.677L95.4209 7.677V4.76296L5.13069 4.76296V7.677Z" fill="#EBEBEB"/>
<path d="M5.13069 10.9567L95.4209 10.9567V8.04268L5.13069 8.04268V10.9567Z" fill="#EBEBEB"/>
<path d="M5.13069 14.2364L95.4209 14.2364V11.3224L5.13069 11.3224V14.2364Z" fill="#EBEBEB"/>
<path d="M5.13069 17.5161L95.4209 17.5161V14.602L5.13069 14.602V17.5161Z" fill="#EBEBEB"/>
<path d="M5.13069 20.7902L95.4209 20.7902V17.8762L5.13069 17.8762V20.7902Z" fill="#EBEBEB"/>
<path d="M5.13069 24.0699L95.4209 24.0699V21.1558L5.13069 21.1558V24.0699Z" fill="#EBEBEB"/>
<path d="M5.13069 27.3495L95.4209 27.3495V24.4355L5.13069 24.4355V27.3495Z" fill="#EBEBEB"/>
<path d="M5.13069 30.6293L95.4209 30.6293V27.7152L5.13069 27.7152V30.6293Z" fill="#EBEBEB"/>
<path d="M5.13069 33.9089L95.4209 33.9089V30.9949L5.13069 30.9949V33.9089Z" fill="#EBEBEB"/>
<path d="M12.4432 4.17023H11.8779V71.3593H12.4432V4.17023Z" fill="#263238"/>
<path d="M11.1562 73.7969H13.1707L12.6656 71.1266H11.6614L11.1562 73.7969Z" fill="#263238"/>
<path d="M10.3983 4.17023H9.83301V101.37H10.3983V4.17023Z" fill="#263238"/>
<path d="M9.11133 103.331H11.1258L10.6207 100.66H9.61044L9.11133 103.331Z" fill="#263238"/>
<path d="M1.607 6.21448L98.9448 6.21448V0.114938L1.607 0.114938V6.21448Z" fill="#DBDBDB"/>
<path d="M383.953 143.584H278.28L276.08 103.635H386.154L383.953 143.584Z" fill="#EBEBEB"/>
<path d="M282.321 108.056H328.293L327.469 121.906H283.301L282.321 108.056ZM327.734 108.544H282.887L283.789 121.43H326.964L327.734 108.544Z" fill="#DBDBDB"/>
<path d="M283.253 125.358H326.411L325.738 137.878H284.101L283.253 125.358ZM325.852 125.851H283.819L284.606 137.385H325.226L325.852 125.851Z" fill="#DBDBDB"/>
<path d="M300.656 113.148H309.015L308.546 116.472H301.125L300.656 113.148ZM308.407 113.641H301.264L301.594 116.001H308.077L308.407 113.641Z" fill="#DBDBDB"/>
<path d="M300.656 129.945H309.015L308.546 133.269H301.125L300.656 129.945ZM308.407 130.438H301.264L301.594 132.798H308.077L308.407 130.438Z" fill="#DBDBDB"/>
<path d="M334.289 108.056H380.261L379.431 121.906H335.257L334.289 108.056ZM379.701 108.544H334.854L335.756 121.43H378.914L379.701 108.544Z" fill="#0C5D4F"/>
<path d="M335.221 125.358H378.378L377.711 137.878H336.069L335.221 125.358ZM377.819 125.851H335.786L336.568 137.385H377.194L377.819 125.851Z" fill="#0C5D4F"/>
<path d="M352.623 113.148H360.982L360.513 116.472H353.092L352.623 113.148ZM360.374 113.641H353.23L353.561 116.001H360.043L360.374 113.641Z" fill="#DBDBDB"/>
<path d="M352.623 129.945H360.982L360.513 133.269H353.092L352.623 129.945ZM360.374 130.438H353.23L353.561 132.798H360.043L360.374 130.438Z" fill="#DBDBDB"/>
<path d="M374.476 143.584L375.143 147.939L376.478 156.681H379.082V143.584H374.476Z" fill="#EBEBEB"/>
<path d="M374.476 143.584L375.143 147.939H379.082V143.584H374.476Z" fill="#DBDBDB"/>
<path d="M287.757 143.584L287.09 147.939L285.755 156.681H283.145V143.584H287.757Z" fill="#EBEBEB"/>
<path d="M287.757 143.584L287.09 147.939H283.145V143.584H287.757Z" fill="#DBDBDB"/>
<path d="M372.84 103.624V84.8714H367.716V103.624H372.84Z" fill="#C7C7C7"/>
<path d="M372.834 85.9295V83.8687H367.711V85.9295H372.834Z" fill="#DBDBDB"/>
<path d="M372.84 89.3311V88.5666H367.716V89.3311H372.84Z" fill="#DBDBDB"/>
<path d="M372.834 101.165V99.1036H367.711V101.165H372.834Z" fill="#DBDBDB"/>
<path d="M367.711 103.63V81.7524H364.127V103.63H367.711Z" fill="#DBDBDB"/>
<path d="M367.013 92.2174V83.8022H364.86V92.2174H367.013Z" fill="#EBEBEB"/>
<path d="M341.136 103.624L358.023 88.2437L355.504 85.8955L338.616 101.276L341.136 103.624Z" fill="#C7C7C7"/>
<path d="M344.595 99.5395L351.091 93.6234L349.578 92.2129L343.082 98.1291L344.595 99.5395Z" fill="#DBDBDB"/>
<path d="M364.133 103.624V87.0098H358.047V103.624H364.133Z" fill="#A6A6A6"/>
<path d="M364.133 101.868V100.317H358.047V101.868H364.133Z" fill="#C7C7C7"/>
<path d="M364.127 99.3031V98.7048H358.041V99.3031H364.127Z" fill="#C7C7C7"/>
<path d="M383.323 102.116L376.637 87.7645L372.775 89.2919L379.461 103.643L383.323 102.116Z" fill="#A6A6A6"/>
<path d="M382.615 100.588L381.991 99.2493L378.128 100.777L378.752 102.116L382.615 100.588Z" fill="#C7C7C7"/>
<path d="M378.642 92.0554L378.018 90.7165L374.156 92.2439L374.779 93.5828L378.642 92.0554Z" fill="#C7C7C7"/>
<path d="M379.312 93.492L379.07 92.9728L375.208 94.5002L375.45 95.0194L379.312 93.492Z" fill="#C7C7C7"/>
<path d="M319.58 224.258C358.579 224.258 390.194 219.967 390.194 214.674C390.194 209.38 358.579 205.089 319.58 205.089C280.581 205.089 248.965 209.38 248.965 214.674C248.965 219.967 280.581 224.258 319.58 224.258Z" fill="#EBEBEB"/>
<path d="M28.7393 124.239C28.7393 124.239 34.0069 106.81 38.2163 100.887C42.4256 94.9652 50.2429 88.4668 50.2429 88.4668C50.2429 88.4668 50.0926 115.341 28.7393 124.239Z" fill="#07F9A2"/>
<path d="M29.1117 123.945C30.888 121.215 32.4941 118.394 33.9224 115.497C34.5248 112.38 35.3996 109.314 36.5382 106.328C36.543 106.317 36.5523 106.308 36.5642 106.303C36.576 106.299 36.5894 106.298 36.6013 106.303C36.6133 106.307 36.6229 106.316 36.6279 106.327C36.633 106.338 36.6332 106.35 36.6284 106.361C35.9308 109.131 35.119 111.846 34.3794 114.588C36.5081 110.35 38.5286 106.051 41.0662 102.04C41.6501 100.102 42.4691 98.2303 43.5076 96.4611C43.5076 96.4112 43.6279 96.4611 43.5978 96.4943C42.9574 97.856 42.4092 99.2529 41.9562 100.677C43.1512 98.8884 44.4899 97.1847 45.9611 95.5802C46.0513 95.4805 46.2377 95.5802 46.1475 95.6965C42.756 99.6853 40.4168 104.217 38.1919 108.804C40.5862 106.41 42.7964 103.864 44.8065 101.187C44.8065 101.159 44.8727 101.187 44.8546 101.22C42.7552 104.218 40.3856 107.048 37.7709 109.68C36.1473 113.042 34.5538 116.416 32.6175 119.613C36.4841 116.605 39.4547 112.71 42.4012 108.954C42.4139 108.936 42.4338 108.924 42.4563 108.92C42.4789 108.916 42.5023 108.92 42.5215 108.932C42.5406 108.943 42.5539 108.962 42.5584 108.982C42.5629 109.003 42.5583 109.025 42.5455 109.042C39.599 113.17 36.5322 117.053 32.3228 120.122C31.4632 121.528 30.5176 122.887 29.4906 124.194C29.4547 124.241 29.4003 124.272 29.3394 124.281C29.2785 124.291 29.2161 124.277 29.1658 124.244C29.1156 124.211 29.0817 124.161 29.0715 124.105C29.0614 124.049 29.0758 123.991 29.1117 123.945Z" fill="#263238"/>
<path d="M27.1337 125.812C27.1337 125.812 36.6107 109.746 33.8566 94.1564C31.1025 78.5668 28.1559 73.0213 28.1559 73.0213C28.1559 73.0213 13.2309 97.2588 27.1337 125.812Z" fill="#07F9A2"/>
<path d="M23.2131 100.544C24.0156 104.959 25.239 109.301 26.8692 113.519C26.8972 107.801 27.0015 102.077 27.1819 96.3447C26.1103 92.8748 25.5044 89.297 25.3779 85.6913C25.3779 85.586 25.5402 85.5916 25.5523 85.6913C25.8511 88.7802 26.406 91.8435 27.2119 94.8545C27.3563 90.1344 27.5226 85.418 27.711 80.7053C27.711 80.6891 27.718 80.6736 27.7304 80.6622C27.7428 80.6508 27.7596 80.6443 27.7772 80.6443C27.7947 80.6443 27.8116 80.6508 27.824 80.6622C27.8364 80.6736 27.8433 80.6891 27.8433 80.7053C27.8433 88.0735 27.8433 95.4472 27.7892 102.815C28.9444 99.965 29.8591 97.0368 30.5253 94.0567C30.5253 94.029 30.5794 94.0567 30.5794 94.0567C30.1996 97.4918 29.2568 100.854 27.7832 104.029C27.7471 108.741 27.679 113.452 27.5787 118.161C29.1783 113.175 30.8921 108.306 31.3551 103.009C31.3551 102.995 31.3615 102.981 31.3727 102.97C31.384 102.96 31.3993 102.954 31.4153 102.954C31.4312 102.954 31.4465 102.96 31.4578 102.97C31.4691 102.981 31.4754 102.995 31.4754 103.009C31.3491 108.843 29.7135 114.771 27.6269 120.255C27.6068 120.311 27.5691 120.359 27.5186 120.394C27.4705 122.117 27.4224 123.84 27.3563 125.557C27.3479 125.602 27.3225 125.643 27.2845 125.673C27.2465 125.702 27.1985 125.718 27.1488 125.718C27.0991 125.718 27.0511 125.702 27.0131 125.673C26.9751 125.643 26.9497 125.602 26.9413 125.557C26.8692 122.034 26.8391 118.512 26.8511 114.992C24.7849 110.38 23.5226 105.497 23.1108 100.522C23.114 100.509 23.1225 100.499 23.1343 100.492C23.1462 100.485 23.1604 100.483 23.174 100.486C23.1875 100.489 23.1993 100.497 23.2066 100.507C23.2139 100.518 23.2163 100.532 23.2131 100.544Z" fill="#263238"/>
<path d="M23.8623 98.0565C24.1937 99.4545 24.4147 100.873 24.5238 102.3C24.5238 102.35 24.4456 102.356 24.4336 102.3C24.0638 100.909 23.8045 99.494 23.6579 98.0676C23.6399 97.9679 23.8383 97.9513 23.8623 98.0565Z" fill="#263238"/>
<path d="M29.4004 86.3062C29.4004 86.2563 29.4906 86.2729 29.4906 86.3062C29.4806 87.2987 29.3208 88.285 29.0155 89.2369C29.0155 89.3144 28.8712 89.2812 28.8893 89.2036C29.0937 88.2452 29.226 87.2868 29.4004 86.3062Z" fill="#263238"/>
<path d="M23.6458 127.042C23.6458 127.042 24.0367 110.261 18.8351 101.923C13.6336 93.5858 4.94434 89.3366 4.94434 89.3366C4.94434 89.3366 8.41403 118.909 23.6458 127.042Z" fill="#07F9A2"/>
<path d="M14.1267 112.693C16.225 115.625 18.5908 118.387 21.1984 120.948C20.1521 117.52 18.9494 114.148 17.5904 110.832C14.6619 108.466 11.7575 106.012 9.95949 102.777C9.95587 102.766 9.95626 102.755 9.96058 102.744C9.9649 102.734 9.9729 102.725 9.9833 102.719C9.99371 102.713 10.0059 102.711 10.018 102.712C10.03 102.714 10.0412 102.719 10.0497 102.727C11.98 105.597 14.5657 107.89 17.2657 110.095C15.1697 105.099 12.7397 100.227 9.98955 95.5082C9.9736 95.4839 9.96876 95.4548 9.97609 95.4273C9.98342 95.3998 10.0023 95.3761 10.0286 95.3614C10.055 95.3467 10.0865 95.3422 10.1164 95.349C10.1463 95.3557 10.172 95.3731 10.188 95.3974C11.8603 97.8725 13.384 100.43 14.7521 103.059C14.259 101.264 13.8682 99.4305 13.369 97.6466C13.369 97.5968 13.4292 97.5801 13.4532 97.6466C14.479 99.9284 15.1979 102.317 15.594 104.76C17.4235 108.482 18.9609 112.32 20.1942 116.244C20.0619 113.729 19.8875 111.22 19.5928 108.716C19.5963 108.707 19.6024 108.7 19.6105 108.695C19.6185 108.689 19.6281 108.687 19.6379 108.687C19.6478 108.687 19.6574 108.689 19.6654 108.695C19.6735 108.7 19.6796 108.707 19.683 108.716C20.2776 111.488 20.5578 114.31 20.5189 117.136C21.2706 119.64 21.908 122.167 22.4131 124.715C22.4131 124.787 22.3169 124.815 22.2988 124.748C22.0162 123.679 21.6975 122.615 21.3968 121.563C21.3968 121.563 21.3548 121.563 21.3367 121.563C18.5345 118.976 15.8706 116.023 14.1207 112.732C14.0906 112.688 14.1147 112.677 14.1267 112.693Z" fill="#263238"/>
<path d="M8.07131 99.0427C8.67264 99.5967 9.18979 100.228 9.74903 100.827C10.2969 101.329 10.8015 101.87 11.2584 102.444C11.2627 102.45 11.2648 102.456 11.2643 102.463C11.2638 102.469 11.2607 102.476 11.2556 102.48C11.2505 102.485 11.2437 102.488 11.2365 102.489C11.2292 102.489 11.2221 102.487 11.2163 102.483C10.5606 102.033 9.97579 101.502 9.47843 100.904C8.9291 100.342 8.43224 99.7375 7.99313 99.0981C7.98516 99.0885 7.98163 99.0765 7.98332 99.0645C7.98502 99.0526 7.99179 99.0417 8.00215 99.0344C8.01252 99.027 8.02563 99.0238 8.0386 99.0253C8.05157 99.0269 8.06334 99.0331 8.07131 99.0427Z" fill="#263238"/>
<path d="M39.1603 124.992L38.5048 132.942L36.5204 156.963H19.2201L17.2357 132.942L16.5742 124.992H39.1603Z" fill="#455A64"/>
<path d="M39.1603 124.992L38.5048 132.942H17.2357L16.5742 124.992H39.1603Z" fill="#37474F"/>
<path d="M15.0346 127.186H40.7056V121.092H15.0346V127.186Z" fill="#455A64"/>
<path d="M-2.50049 156.703L46.2496 156.565L94.9997 156.515L192.5 156.426L290 156.515L338.75 156.565L387.5 156.703L338.75 156.836L290 156.886L192.5 156.98L94.9997 156.886L46.2496 156.836L-2.50049 156.703Z" fill="#263238"/>
<path d="M317.175 24.5075H67.8257V178.176H317.175V24.5075Z" fill="#DBDBDB"/>
<path d="M315.365 26.3856H69.6357V176.303H315.365V26.3856Z" fill="#37474F"/>
<path d="M349.653 189.699H35.3477V200.247H349.653V189.699Z" fill="#C7C7C7"/>
<path d="M35.3477 189.699L67.8257 178.176H317.175L349.653 189.699H35.3477Z" fill="#DBDBDB"/>
<path d="M70.7241 185.616L91.6806 178.176H293.32L314.276 185.616H70.7241Z" fill="#263238"/>
<path d="M301.474 37.7758H83.5205V164.913H301.474V37.7758Z" fill="white"/>
<path d="M301.474 37.7758H83.5205V42.6676H301.474V37.7758Z" fill="#263238"/>
<path d="M87.5616 40.1968C87.5616 40.4367 87.4843 40.6713 87.3396 40.8708C87.1949 41.0704 86.9893 41.2259 86.7486 41.3177C86.508 41.4095 86.2432 41.4335 85.9877 41.3867C85.7323 41.3399 85.4976 41.2244 85.3134 41.0547C85.1293 40.885 85.0039 40.6688 84.953 40.4335C84.9022 40.1981 84.9283 39.9542 85.028 39.7325C85.1277 39.5108 85.2964 39.3213 85.513 39.188C85.7296 39.0547 85.9842 38.9835 86.2447 38.9835C86.5939 38.9835 86.9289 39.1113 87.1759 39.3389C87.4228 39.5664 87.5616 39.875 87.5616 40.1968Z" fill="#C7C7C7"/>
<path d="M92.9375 40.1968C92.9375 40.4367 92.8603 40.6713 92.7156 40.8708C92.5709 41.0704 92.3652 41.2259 92.1246 41.3177C91.884 41.4095 91.6192 41.4335 91.3637 41.3867C91.1083 41.3399 90.8736 41.2244 90.6894 41.0547C90.5053 40.885 90.3798 40.6688 90.329 40.4335C90.2782 40.1981 90.3043 39.9542 90.404 39.7325C90.5036 39.5108 90.6724 39.3213 90.889 39.188C91.1056 39.0547 91.3602 38.9835 91.6206 38.9835C91.9699 38.9835 92.3049 39.1113 92.5518 39.3389C92.7988 39.5664 92.9375 39.875 92.9375 40.1968Z" fill="white"/>
<path d="M98.313 40.1968C98.313 40.4367 98.2358 40.6713 98.0911 40.8708C97.9464 41.0704 97.7407 41.2259 97.5001 41.3177C97.2595 41.4095 96.9947 41.4335 96.7392 41.3867C96.4837 41.3399 96.2491 41.2244 96.0649 41.0547C95.8807 40.885 95.7553 40.6688 95.7045 40.4335C95.6537 40.1981 95.6798 39.9542 95.7794 39.7325C95.8791 39.5108 96.0479 39.3213 96.2645 39.188C96.481 39.0547 96.7357 38.9835 96.9961 38.9835C97.3454 38.9835 97.6804 39.1113 97.9273 39.3389C98.1743 39.5664 98.313 39.875 98.313 40.1968Z" fill="#07F9A2"/>
<path d="M268.58 132.587H116.413V142.005H268.58V132.587Z" fill="#EBEBEB"/>
<path d="M200.81 134.36H118.079V140.432H200.81V134.36Z" fill="#07F9A2"/>
<path d="M166.564 119.308H167.845L166.36 125.74H170.437L170.196 126.781H164.838L166.564 119.308Z" fill="#263238"/>
<path d="M173.762 126.831C173.329 126.84 172.9 126.753 172.512 126.576C172.158 126.409 171.847 126.175 171.598 125.89C171.346 125.597 171.155 125.265 171.032 124.909C170.902 124.531 170.837 124.137 170.84 123.74C170.842 123.167 170.975 122.6 171.231 122.078C171.49 121.549 171.844 121.064 172.277 120.643C172.705 120.225 173.212 119.883 173.774 119.635C174.322 119.384 174.925 119.253 175.536 119.253C175.971 119.245 176.4 119.337 176.787 119.519C177.141 119.686 177.45 119.923 177.695 120.211C177.943 120.51 178.13 120.848 178.248 121.208C178.374 121.585 178.437 121.977 178.435 122.372C178.436 122.945 178.305 123.511 178.05 124.034C177.797 124.561 177.447 125.045 177.016 125.463C176.588 125.878 176.083 126.22 175.524 126.471C174.974 126.712 174.372 126.835 173.762 126.831ZM174.015 125.768C174.447 125.77 174.873 125.667 175.248 125.468C175.626 125.269 175.961 125.006 176.234 124.693C176.516 124.373 176.737 124.011 176.889 123.624C177.042 123.25 177.121 122.854 177.124 122.455C177.124 122.179 177.084 121.906 177.004 121.64C176.928 121.398 176.808 121.17 176.649 120.964C176.488 120.771 176.283 120.612 176.048 120.499C175.801 120.38 175.526 120.321 175.248 120.327C174.813 120.322 174.385 120.425 174.009 120.627C173.63 120.828 173.294 121.09 173.017 121.402C172.733 121.721 172.511 122.083 172.361 122.471C172.209 122.845 172.13 123.241 172.127 123.64C172.126 123.917 172.167 124.193 172.247 124.46C172.32 124.701 172.438 124.927 172.596 125.131C172.753 125.327 172.959 125.487 173.197 125.596C173.45 125.716 173.731 125.775 174.015 125.768Z" fill="#263238"/>
<path d="M182.517 119.308H183.648L184.947 126.781H183.6L183.281 124.748H180.365L179.12 126.781H177.773L182.517 119.308ZM183.233 123.873L182.776 120.665L180.792 123.873H183.233Z" fill="#263238"/>
<path d="M187.653 119.308H190.407C190.87 119.298 191.33 119.373 191.76 119.53C192.12 119.662 192.442 119.871 192.698 120.139C192.949 120.405 193.138 120.716 193.251 121.053C193.379 121.42 193.442 121.804 193.438 122.189C193.445 122.816 193.322 123.438 193.077 124.023C192.852 124.561 192.515 125.054 192.085 125.474C191.657 125.884 191.144 126.21 190.575 126.432C189.977 126.668 189.332 126.787 188.681 126.782H185.933L187.653 119.308ZM188.922 125.74C189.38 125.746 189.834 125.651 190.245 125.463C190.634 125.285 190.976 125.032 191.249 124.721C191.533 124.401 191.75 124.034 191.886 123.64C192.037 123.232 192.112 122.803 192.109 122.372C192.111 122.096 192.071 121.822 191.989 121.557C191.909 121.326 191.785 121.11 191.622 120.92C191.457 120.741 191.252 120.597 191.02 120.499C190.752 120.395 190.463 120.344 190.173 120.35H188.711L187.467 125.74H188.922Z" fill="#263238"/>
<path d="M195.561 119.319H196.854L195.128 126.781H193.835L195.561 119.319Z" fill="#263238"/>
<path d="M198.657 119.308H199.662L202.734 124.693L203.973 119.319H205.26L203.534 126.781H202.488L199.433 121.518L198.23 126.781H196.938L198.657 119.308Z" fill="#263238"/>
<path d="M210.943 125.862C210.291 126.454 209.422 126.8 208.507 126.831C208.091 126.838 207.679 126.755 207.305 126.588C206.954 126.425 206.645 126.197 206.396 125.917C206.128 125.626 205.924 125.289 205.795 124.926C205.661 124.539 205.594 124.135 205.597 123.729C205.6 123.156 205.733 122.59 205.988 122.067C206.237 121.535 206.59 121.048 207.028 120.632C207.456 120.222 207.961 119.888 208.519 119.646C209.06 119.401 209.655 119.274 210.257 119.275C210.88 119.244 211.497 119.401 212.013 119.724C212.438 120.019 212.745 120.436 212.885 120.909L211.766 121.563C211.673 121.194 211.441 120.868 211.111 120.643C210.776 120.435 210.379 120.328 209.974 120.339C209.554 120.334 209.139 120.432 208.772 120.621C208.399 120.814 208.068 121.07 207.798 121.375C207.515 121.694 207.29 122.053 207.13 122.438C206.97 122.828 206.889 123.241 206.89 123.657C206.888 123.938 206.93 124.218 207.016 124.488C207.098 124.732 207.226 124.961 207.395 125.164C207.556 125.356 207.762 125.513 207.996 125.624C208.24 125.736 208.511 125.793 208.784 125.79C209.24 125.762 209.686 125.649 210.094 125.459C210.502 125.268 210.864 125.004 211.159 124.682L211.345 123.89H209.746L209.95 123.02H212.608L211.742 126.798H210.666L210.943 125.862Z" fill="#263238"/>
<path d="M213.029 126.781L213.342 125.43H214.388L214.07 126.781H213.029Z" fill="#263238"/>
<path d="M215.453 126.781L215.759 125.43H216.812L216.493 126.781H215.453Z" fill="#263238"/>
<path d="M217.876 126.781L218.183 125.43H219.235L218.916 126.781H217.876Z" fill="#263238"/>
<path d="M192.476 92.5886C193.479 92.5886 194.292 91.8395 194.292 90.9155C194.292 89.9915 193.479 89.2424 192.476 89.2424C191.473 89.2424 190.66 89.9915 190.66 90.9155C190.66 91.8395 191.473 92.5886 192.476 92.5886Z" fill="#07F9A2"/>
<path d="M185.007 95.0871C185.891 95.0871 186.607 94.4273 186.607 93.6135C186.607 92.7996 185.891 92.1398 185.007 92.1398C184.124 92.1398 183.408 92.7996 183.408 93.6135C183.408 94.4273 184.124 95.0871 185.007 95.0871Z" fill="#07F9A2"/>
<path d="M181.796 99.0648C182.08 99.0637 182.359 99.1405 182.596 99.2853C182.833 99.4301 183.018 99.6365 183.128 99.8783C183.238 100.12 183.267 100.387 183.212 100.644C183.157 100.901 183.021 101.137 182.82 101.323C182.62 101.509 182.363 101.636 182.085 101.687C181.806 101.739 181.516 101.713 181.253 101.613C180.99 101.513 180.766 101.343 180.607 101.125C180.449 100.907 180.365 100.651 180.365 100.389C180.364 100.215 180.4 100.043 180.472 99.8826C180.544 99.722 180.649 99.576 180.782 99.453C180.915 99.33 181.073 99.2323 181.247 99.1657C181.421 99.0991 181.607 99.0648 181.796 99.0648Z" fill="#07F9A2"/>
<path d="M183.871 106.477C184.039 106.324 184.254 106.22 184.487 106.179C184.719 106.138 184.96 106.16 185.179 106.245C185.398 106.329 185.584 106.471 185.716 106.653C185.847 106.835 185.917 107.048 185.917 107.267C185.917 107.485 185.847 107.699 185.716 107.881C185.584 108.062 185.398 108.204 185.179 108.289C184.96 108.373 184.719 108.396 184.487 108.355C184.254 108.313 184.039 108.21 183.871 108.056C183.757 107.953 183.667 107.83 183.605 107.695C183.543 107.559 183.512 107.414 183.512 107.267C183.512 107.12 183.543 106.974 183.605 106.839C183.667 106.703 183.757 106.58 183.871 106.477Z" fill="#07F9A2"/>
<path d="M192.079 111.103C192.607 111.103 193.035 110.709 193.035 110.222C193.035 109.736 192.607 109.342 192.079 109.342C191.551 109.342 191.123 109.736 191.123 110.222C191.123 110.709 191.551 111.103 192.079 111.103Z" fill="#07F9A2"/>
<path d="M199.055 107.979C198.925 107.859 198.852 107.697 198.852 107.527C198.852 107.358 198.925 107.195 199.055 107.076C199.185 106.956 199.361 106.889 199.545 106.889C199.728 106.889 199.905 106.956 200.035 107.076C200.1 107.135 200.152 107.205 200.187 107.282C200.223 107.36 200.241 107.443 200.241 107.527C200.241 107.611 200.223 107.695 200.187 107.772C200.152 107.85 200.1 107.92 200.035 107.979C199.97 108.038 199.894 108.085 199.81 108.118C199.726 108.15 199.636 108.166 199.545 108.166C199.454 108.166 199.363 108.15 199.279 108.118C199.195 108.085 199.119 108.038 199.055 107.979Z" fill="#07F9A2"/>
<path d="M202.753 101.22C202.653 101.22 202.555 101.193 202.472 101.141C202.389 101.09 202.324 101.018 202.286 100.933C202.248 100.848 202.238 100.754 202.257 100.664C202.277 100.573 202.325 100.491 202.396 100.425C202.466 100.36 202.556 100.316 202.654 100.298C202.752 100.28 202.854 100.289 202.946 100.325C203.038 100.36 203.117 100.419 203.173 100.496C203.228 100.573 203.258 100.663 203.258 100.755C203.258 100.878 203.205 100.996 203.11 101.084C203.015 101.171 202.887 101.22 202.753 101.22Z" fill="#07F9A2"/>
<path d="M200.083 94.1066C200.033 94.1537 199.968 94.186 199.898 94.1994C199.828 94.2128 199.755 94.2066 199.689 94.1816C199.622 94.1567 199.566 94.1141 199.526 94.0593C199.486 94.0045 199.464 93.9399 199.464 93.8739C199.464 93.8079 199.486 93.7433 199.526 93.6885C199.566 93.6337 199.622 93.5911 199.689 93.5662C199.755 93.5412 199.828 93.535 199.898 93.5484C199.968 93.5618 200.033 93.5941 200.083 93.6412C200.116 93.6716 200.143 93.7079 200.161 93.7478C200.179 93.7877 200.188 93.8306 200.188 93.8739C200.188 93.9172 200.179 93.9601 200.161 94C200.143 94.0399 200.116 94.0762 200.083 94.1066Z" fill="#07F9A2"/>
<path d="M124.931 134.187C147.902 113.023 147.902 78.7105 124.931 57.5471C101.959 36.3837 64.7147 36.3837 41.7431 57.5471C18.7716 78.7105 18.7716 113.023 41.7432 134.187C64.7147 155.35 101.959 155.35 124.931 134.187Z" fill="white"/>
<path d="M142.156 95.8683C142.115 109.294 136.656 122.226 126.841 132.149C117.026 142.073 103.556 148.279 89.0494 149.561C74.5433 150.844 60.038 147.11 48.3538 139.087C36.6696 131.063 28.6416 119.324 25.8306 106.15C23.0196 92.9766 25.6266 79.3108 33.1446 67.8097C40.6626 56.3087 52.5545 47.7943 66.5079 43.9221C80.4614 40.0499 95.4792 41.0967 108.642 46.8588C121.804 52.6209 132.17 62.6866 137.724 75.0988C140.666 81.6871 142.172 88.7443 142.156 95.8683ZM142.156 95.8683C142.17 82.4413 136.763 69.4894 126.987 59.5313C117.211 49.5733 103.764 43.3209 89.2616 41.99C74.7592 40.6591 60.2378 44.3449 48.5215 52.3306C36.8052 60.3164 28.7314 72.0311 25.8702 85.1968C23.0091 98.3625 25.5651 112.038 33.0411 123.564C40.5172 135.09 52.3789 143.642 66.3196 147.558C80.2603 151.473 95.2835 150.472 108.467 144.749C121.652 139.026 132.054 128.99 137.652 116.593C140.616 110.025 142.147 102.982 142.156 95.8683Z" fill="#263238"/>
<path d="M125.974 95.8683H82.7866L113.208 67.8414C117.256 71.4935 120.471 75.8542 122.663 80.6673C124.855 85.4804 125.981 90.6486 125.974 95.8683Z" fill="#07F9A2"/>
<path opacity="0.3" d="M125.974 95.8683H82.7866L113.208 67.8414C117.256 71.4935 120.471 75.8542 122.663 80.6673C124.855 85.4804 125.981 90.6486 125.974 95.8683Z" fill="white"/>
<path d="M113.208 67.8414L82.7866 95.8683V56.5953H83.3398C94.5135 56.5812 105.244 60.6214 113.208 67.8414Z" fill="#07F9A2"/>
<path opacity="0.5" d="M113.208 67.8414L82.7866 95.8683V56.5953H83.3398C94.5135 56.5812 105.244 60.6214 113.208 67.8414Z" fill="white"/>
<path d="M82.7867 56.5952V95.8683L52.9185 68.3456C60.7917 60.938 71.5341 56.7119 82.7867 56.5952Z" fill="#07F9A2"/>
<path opacity="0.7" d="M82.7867 56.5952V95.8683L52.9185 68.3456C60.7917 60.938 71.5341 56.7119 82.7867 56.5952Z" fill="white"/>
<path d="M82.7867 95.8683H40.6934C40.6814 85.5721 45.0686 75.6852 52.9065 68.3456L82.7867 95.8683Z" fill="#07F9A2"/>
<path opacity="0.8" d="M82.7867 95.8683H40.6934C40.6814 85.5721 45.0686 75.6852 52.9065 68.3456L82.7867 95.8683Z" fill="white"/>
<path d="M82.7864 95.8683L52.9182 123.391C45.0803 116.051 40.6931 106.164 40.7051 95.8683H82.7864Z" fill="#07F9A2"/>
<path opacity="0.9" d="M82.7864 95.8683L52.9182 123.391C45.0803 116.051 40.6931 106.164 40.7051 95.8683H82.7864Z" fill="white"/>
<path d="M125.974 95.8683C125.981 101.088 124.855 106.256 122.663 111.069C120.471 115.882 117.256 120.243 113.208 123.895L82.7866 95.8683H125.974Z" fill="#07F9A2"/>
<path d="M109.258 99.6829C111.548 86.4922 101.799 74.0882 87.4808 71.9777C73.1631 69.8673 59.6993 78.8496 57.4085 92.0403C55.1178 105.231 64.8675 117.635 79.1852 119.745C93.5029 121.856 106.967 112.874 109.258 99.6829Z" fill="white"/>
<path d="M86.7736 98.2007C86.5047 98.6243 86.1468 98.9942 85.7209 99.2888C85.2949 99.5834 84.8094 99.7968 84.2929 99.9164C83.7763 100.036 83.239 100.06 82.7125 99.9856C82.1859 99.9116 81.6807 99.7416 81.2264 99.4855C80.772 99.2294 80.3777 98.8924 80.0664 98.4942C79.7552 98.096 79.5333 97.6445 79.4137 97.1664C79.2942 96.6882 79.2793 96.1928 79.3701 95.7093C79.4609 95.2258 79.6555 94.7638 79.9424 94.3504C80.1168 94.09 102.883 67.088 102.883 67.088C102.883 67.088 86.9419 97.9458 86.7736 98.2007Z" fill="#263238"/>
<path d="M87.6908 99.8782C90.0955 97.6628 90.0955 94.0709 87.6908 91.8554C85.2861 89.64 81.3873 89.64 78.9825 91.8554C76.5778 94.0709 76.5778 97.6628 78.9825 99.8782C81.3873 102.094 85.2861 102.094 87.6908 99.8782Z" fill="#263238"/>
<path d="M55.564 75.0989C57.9959 71.8388 61.1628 69.1006 64.8486 67.0714C68.5257 65.0134 72.572 63.5763 76.797 62.8278C81.0222 62.0887 85.3553 62.038 89.5994 62.6782C93.8338 63.2757 97.9115 64.5905 101.626 66.5562C99.7433 65.6453 97.7699 64.9032 95.733 64.3402C93.7075 63.7595 91.6341 63.3315 89.5333 63.0604C87.4373 62.7958 85.3226 62.6773 83.2073 62.7059C81.0929 62.7543 78.9867 62.9674 76.9113 63.343C72.7452 64.0621 68.7455 65.4397 65.0891 67.4149C63.2563 68.3937 61.5287 69.5308 59.9296 70.8109C58.2997 72.0803 56.8348 73.5192 55.564 75.0989Z" fill="#263238"/>
<path d="M63.3032 73.7415C65.044 72.104 67.0529 70.7282 69.2564 69.6641C71.4407 68.5478 73.7762 67.7038 76.2018 67.1545C78.6251 66.6031 81.1144 66.3369 83.6103 66.3623C86.0931 66.4111 88.5613 66.7272 90.9646 67.3041C88.5344 66.9321 86.0735 66.7579 83.6103 66.7833C81.1592 66.8251 78.7216 67.1281 76.3461 67.6863C75.1554 67.9484 73.9827 68.2758 72.8344 68.6669C71.6918 69.0658 70.5794 69.5533 69.4789 70.0519C68.379 70.5526 67.3091 71.1074 66.2738 71.7139C65.2189 72.3054 64.2246 72.9841 63.3032 73.7415Z" fill="#263238"/>
<path d="M100.496 71.9576V71.4036C107.279 71.4036 266.669 71.3538 267.907 71.3759V71.9299C266.681 71.9078 102.174 71.9576 100.496 71.9576Z" fill="#A6A6A6"/>
<path d="M278.689 218.546C279.97 218.928 316.441 218.635 317.824 217.809C318.347 217.504 318.611 212.607 318.75 206.679C318.75 205.405 318.798 204.081 318.816 202.74L321.534 184.791L297.15 184.924L295.087 202.873L295.232 206.818C295.232 206.818 281.323 212.685 279.91 213.732C278.497 214.779 277.414 218.164 278.689 218.546Z" fill="#AD6359"/>
<path d="M278.689 218.546C279.97 218.928 316.441 218.635 317.824 217.809C318.461 217.433 318.72 210.286 318.816 202.74L295.087 202.868L295.232 206.812C295.232 206.812 281.323 212.679 279.91 213.726C278.497 214.773 277.414 218.164 278.689 218.546Z" fill="white"/>
<path d="M278.689 218.546C279.97 218.928 316.441 218.635 317.824 217.809C318.347 217.504 318.611 212.607 318.75 206.679L295.232 206.812C295.232 206.812 281.323 212.679 279.91 213.726C278.497 214.773 277.414 218.164 278.689 218.546Z" fill="#07F9A2"/>
<path d="M279.2 217.2C285.31 217.011 309.989 216.784 316.044 217.028C316.092 217.028 316.092 217.056 316.044 217.061C309.989 217.371 285.316 217.41 279.2 217.288C279.092 217.288 279.092 217.2 279.2 217.2Z" fill="#263238"/>
<path d="M282.249 212.491C282.929 212.468 283.606 212.576 284.237 212.808C284.869 213.04 285.441 213.39 285.917 213.837C286.781 214.633 287.28 215.704 287.312 216.829C287.312 216.862 287.246 216.867 287.24 216.829C287.021 215.715 286.417 214.696 285.517 213.925C284.617 213.154 283.471 212.672 282.249 212.552C282.244 212.554 282.238 212.555 282.232 212.554C282.226 212.554 282.22 212.552 282.215 212.549C282.21 212.546 282.206 212.542 282.203 212.537C282.2 212.532 282.199 212.527 282.199 212.521C282.199 212.516 282.2 212.51 282.203 212.505C282.206 212.501 282.21 212.496 282.215 212.493C282.22 212.49 282.226 212.489 282.232 212.488C282.238 212.488 282.244 212.489 282.249 212.491Z" fill="#263238"/>
<path d="M292.869 207.388C295.316 207.339 298.161 208.109 299.694 209.942C299.754 210.014 299.646 210.092 299.574 210.059C297.424 209.042 295.162 208.239 292.827 207.665C292.794 207.654 292.767 207.632 292.75 207.604C292.732 207.576 292.725 207.544 292.73 207.512C292.735 207.48 292.751 207.45 292.776 207.428C292.802 207.406 292.834 207.392 292.869 207.388Z" fill="#263238"/>
<path d="M290.987 208.059C293.434 208.009 296.278 208.785 297.812 210.613C297.872 210.685 297.764 210.762 297.691 210.729C295.543 209.711 293.28 208.911 290.944 208.341C290.908 208.332 290.877 208.311 290.856 208.282C290.836 208.253 290.827 208.218 290.833 208.183C290.838 208.149 290.856 208.117 290.884 208.095C290.913 208.072 290.949 208.059 290.987 208.059Z" fill="#263238"/>
<path d="M289.105 208.779C291.546 208.724 294.396 209.499 295.93 211.327C295.99 211.399 295.882 211.477 295.809 211.444C293.659 210.428 291.397 209.628 289.062 209.056C289.023 209.051 288.986 209.031 288.962 209.002C288.938 208.972 288.928 208.935 288.933 208.898C288.939 208.861 288.96 208.828 288.992 208.806C289.024 208.784 289.065 208.774 289.105 208.779Z" fill="#263238"/>
<path d="M287.216 209.472C289.663 209.422 292.508 210.192 294.047 212.025C294.107 212.097 293.999 212.169 293.927 212.136C291.776 211.123 289.514 210.323 287.18 209.749C287.14 209.744 287.104 209.725 287.079 209.696C287.054 209.667 287.043 209.63 287.047 209.593C287.052 209.557 287.073 209.523 287.104 209.5C287.136 209.477 287.176 209.467 287.216 209.472Z" fill="#263238"/>
<path d="M314.432 211.688C317.18 211.688 317.21 215.604 314.462 215.621C311.714 215.638 311.684 211.704 314.432 211.688Z" fill="#263238"/>
<path d="M290.391 204.696C291.726 206.258 293.747 207.228 295.502 208.325C295.543 208.346 295.589 208.357 295.636 208.359C295.683 208.361 295.729 208.352 295.772 208.335C295.814 208.317 295.852 208.29 295.881 208.257C295.911 208.223 295.931 208.184 295.941 208.142C295.951 208.143 295.961 208.142 295.97 208.139C295.979 208.136 295.988 208.131 295.995 208.124C296.001 208.118 296.007 208.11 296.01 208.102C296.013 208.093 296.015 208.084 296.014 208.075C295.819 206.007 295.032 204.023 293.735 202.325C292.965 201.35 291.395 200.441 290.163 201.394C288.93 202.347 289.609 203.787 290.391 204.696ZM290.259 202.829C290.481 200.375 292.899 202.242 293.44 202.984C293.78 203.468 294.083 203.974 294.348 204.497C294.879 205.582 295.35 206.692 295.761 207.821C294.931 207.233 294.059 206.713 293.211 206.159C292.201 205.494 290.139 204.181 290.259 202.829Z" fill="#263238"/>
<path d="M304.691 206.568C304.486 205.095 302.658 204.79 301.372 205.028C299.172 205.477 297.139 206.451 295.478 207.854C295.471 207.859 295.465 207.867 295.461 207.875C295.456 207.883 295.454 207.892 295.454 207.901C295.454 207.91 295.456 207.919 295.461 207.927C295.465 207.935 295.471 207.942 295.478 207.948C295.455 207.985 295.44 208.027 295.437 208.07C295.434 208.113 295.442 208.156 295.46 208.196C295.478 208.236 295.506 208.271 295.542 208.299C295.577 208.327 295.619 208.348 295.665 208.358C297.764 208.64 299.964 209.178 302.093 208.862C303.344 208.674 304.889 207.959 304.691 206.568ZM298.936 208.186C297.902 208.07 296.88 207.909 295.839 207.826C296.994 207.272 298.112 206.69 299.321 206.247C299.908 206.026 300.511 205.841 301.125 205.693C302.069 205.483 305.22 205.61 303.578 207.56C302.664 208.64 300.181 208.325 298.936 208.186Z" fill="#263238"/>
<path d="M356.249 101.541C356.249 101.541 328.528 146.238 327.8 149.335C326.7 154.138 321.185 201.488 321.185 201.488L293.903 201.333C293.903 201.333 298.425 159.589 303.049 145.8C305.575 138.277 318.852 117.868 325.082 107.801C325.635 106.898 325.473 102.782 325.473 102.782L356.249 101.541Z" fill="#263238"/>
<path d="M296.531 197.162C300.74 197.084 313.572 196.763 319.207 197.162C319.249 197.162 319.249 197.228 319.207 197.234C317.277 197.511 300.764 197.328 296.531 197.234C296.521 197.224 296.516 197.211 296.516 197.198C296.516 197.184 296.521 197.172 296.531 197.162Z" fill="#455A64"/>
<path d="M351.475 105.669C349.671 108.367 347.728 111.015 345.87 113.696C344.012 116.377 342.154 119.059 340.32 121.757C336.664 127.153 333.092 132.593 329.604 138.078C327.91 140.606 326.467 143.271 325.292 146.038C324.222 148.816 323.429 151.677 322.923 154.587C322.382 157.506 322.045 160.448 321.721 163.395C321.38 166.531 321.041 169.67 320.704 172.813C320.015 179.229 319.325 185.642 318.636 192.054C318.552 192.84 318.467 193.627 318.389 194.419C318.389 194.53 318.606 194.552 318.618 194.419C319.399 188.043 320.037 181.677 320.734 175.268C321.087 172.091 321.438 168.915 321.787 165.739C322.111 162.78 322.418 159.822 322.875 156.875C323.296 153.977 323.952 151.112 324.835 148.304C325.818 145.393 327.147 142.592 328.798 139.95C332.142 134.488 335.684 129.114 339.225 123.757C342.767 118.399 346.405 112.959 350.146 107.646C350.609 106.993 351.072 106.339 351.553 105.696C351.601 105.663 351.505 105.613 351.475 105.669Z" fill="#455A64"/>
<path d="M345.281 220.369C346.622 220.28 381.132 206.94 382.082 205.704C382.121 205.63 382.137 205.548 382.13 205.466C382.13 204.358 379.659 200.547 377.584 195.527C377.452 195.206 376.538 193.716 375.269 191.71C371.776 186.203 365.606 176.752 365.606 176.752L343.05 185.345L354.102 200.186L355.84 203.787C355.84 203.787 345.335 214.036 344.457 215.499C343.579 216.962 343.94 220.457 345.281 220.369Z" fill="#AD6359"/>
<path d="M345.281 220.369C346.622 220.28 381.132 206.94 382.082 205.704C382.121 205.63 382.137 205.548 382.13 205.466C382.13 204.358 379.659 200.547 377.584 195.527C377.452 195.206 376.538 193.716 375.269 191.71L354.102 200.17L355.84 203.771C355.84 203.771 345.335 214.02 344.457 215.482C343.579 216.945 343.94 220.457 345.281 220.369Z" fill="white"/>
<path d="M345.281 220.369C346.622 220.28 381.132 206.94 382.082 205.704C382.443 205.233 380.832 200.89 377.584 195.527L355.84 203.771C355.84 203.771 345.335 214.02 344.451 215.482C343.567 216.945 343.94 220.457 345.281 220.369Z" fill="#07F9A2"/>
<path d="M345.239 218.945C350.825 216.657 373.604 207.92 379.323 206.048C379.365 206.048 379.377 206.048 379.323 206.081C373.838 208.458 350.982 217.028 345.263 219.028C345.125 219.072 345.089 218.989 345.239 218.945Z" fill="#263238"/>
<path d="M346.117 213.538C346.739 213.284 347.412 213.153 348.092 213.153C348.773 213.153 349.445 213.284 350.068 213.538C351.195 213.976 352.095 214.797 352.581 215.831C352.581 215.865 352.533 215.887 352.515 215.859C351.856 214.905 350.88 214.174 349.731 213.774C348.583 213.375 347.326 213.329 346.147 213.643C346.132 213.647 346.116 213.645 346.102 213.638C346.089 213.63 346.079 213.618 346.075 213.604C346.071 213.59 346.073 213.576 346.081 213.563C346.089 213.551 346.102 213.542 346.117 213.538Z" fill="#263238"/>
<path d="M353.88 205.128C356.129 204.236 359.081 203.965 361.252 205.128C361.336 205.172 361.252 205.283 361.186 205.278C358.783 205.079 356.364 205.118 353.97 205.394C353.936 205.395 353.902 205.386 353.873 205.368C353.845 205.35 353.824 205.323 353.814 205.293C353.803 205.263 353.804 205.23 353.816 205.2C353.828 205.17 353.851 205.145 353.88 205.128Z" fill="#263238"/>
<path d="M352.419 206.397C354.668 205.505 357.62 205.239 359.791 206.397C359.875 206.447 359.791 206.552 359.719 206.546C357.316 206.35 354.897 206.389 352.503 206.663C352.469 206.663 352.436 206.653 352.409 206.634C352.381 206.616 352.361 206.589 352.352 206.559C352.342 206.529 352.344 206.497 352.356 206.468C352.368 206.438 352.39 206.414 352.419 206.397Z" fill="#263238"/>
<path d="M350.957 207.715C353.206 206.823 356.153 206.558 358.33 207.715C358.414 207.76 358.33 207.87 358.257 207.865C355.855 207.666 353.435 207.705 351.041 207.981C351.008 207.981 350.974 207.971 350.947 207.953C350.92 207.934 350.9 207.908 350.891 207.878C350.881 207.848 350.882 207.815 350.894 207.786C350.906 207.757 350.929 207.732 350.957 207.715Z" fill="#263238"/>
<path d="M349.496 209.006C351.739 208.114 354.692 207.848 356.863 209.006C356.947 209.05 356.862 209.156 356.796 209.15C354.393 208.954 351.974 208.993 349.58 209.267C349.546 209.27 349.511 209.261 349.482 209.243C349.453 209.225 349.432 209.199 349.422 209.168C349.412 209.137 349.414 209.105 349.428 209.075C349.441 209.045 349.465 209.021 349.496 209.006Z" fill="#263238"/>
<path d="M375.624 201.66C378.162 200.696 379.791 204.33 377.248 205.294C374.704 206.258 373.08 202.624 375.624 201.66Z" fill="#263238"/>
<path d="M350.488 203.488C352.365 204.469 354.632 204.674 356.706 205.084C356.917 205.128 357.055 204.929 357.037 204.762C357.073 204.762 357.103 204.718 357.079 204.674C356.055 202.827 354.52 201.262 352.629 200.137C351.511 199.494 349.689 199.195 348.937 200.502C348.185 201.81 349.4 202.912 350.488 203.488ZM349.611 201.826C348.817 199.472 351.817 200.364 352.617 200.868C353.131 201.206 353.62 201.576 354.078 201.976C355.041 202.779 355.882 203.693 356.736 204.574C355.732 204.314 354.716 204.136 353.73 203.915C352.497 203.627 350.05 203.1 349.611 201.804V201.826Z" fill="#263238"/>
<path d="M364.481 200.303C363.694 199.012 361.877 199.361 360.783 200.026C358.927 201.203 357.439 202.807 356.465 204.679C356.462 204.688 356.46 204.697 356.461 204.706C356.461 204.715 356.464 204.723 356.468 204.731C356.473 204.739 356.479 204.746 356.487 204.752C356.495 204.757 356.504 204.761 356.514 204.762C356.514 204.934 356.64 205.128 356.856 205.078C358.913 204.618 361.174 204.358 363.02 203.328C364.12 202.696 365.251 201.499 364.481 200.303ZM359.821 203.793C358.811 204.042 357.8 204.242 356.814 204.53C357.626 203.602 358.489 202.712 359.4 201.865C359.847 201.467 360.324 201.096 360.825 200.757C361.613 200.242 364.583 199.272 363.832 201.643C363.471 202.901 361.042 203.466 359.845 203.765L359.821 203.793Z" fill="#263238"/>
<path d="M352.341 199.35L377.597 189.622C377.597 189.622 345.564 147.363 345.287 144.194C345.046 141.385 358.516 116.776 358.985 109.646C359.472 101.951 355.377 96.04 350.909 92.4002L325.455 102.799C325.455 102.799 327.68 106.981 332.07 109.197C332.07 109.197 319.027 137.612 319.905 146.315C320.783 155.019 352.341 199.35 352.341 199.35Z" fill="#263238"/>
<path d="M351.156 194.918C354.806 193.422 353.736 193.81 357.404 192.347C359.208 191.633 370.994 186.957 372.798 186.564C372.804 186.567 372.809 186.572 372.813 186.578C372.817 186.584 372.818 186.59 372.818 186.597C372.818 186.604 372.817 186.61 372.813 186.616C372.809 186.622 372.804 186.627 372.798 186.63C371.235 187.539 359.346 192.026 357.536 192.724C353.838 194.115 354.884 193.677 351.168 195.034C351.16 195.035 351.151 195.034 351.143 195.032C351.135 195.03 351.128 195.026 351.122 195.021C351.115 195.016 351.11 195.01 351.106 195.003C351.102 194.997 351.1 194.989 351.099 194.982C351.098 194.974 351.099 194.966 351.101 194.959C351.104 194.952 351.108 194.945 351.113 194.939C351.118 194.933 351.125 194.928 351.132 194.924C351.14 194.921 351.148 194.919 351.156 194.918Z" fill="#455A64"/>
<path d="M327.746 108.738C330.479 109.291 333.157 110.056 335.75 111.026C335.771 111.032 335.789 111.047 335.799 111.065C335.809 111.084 335.811 111.106 335.804 111.125C335.796 111.145 335.781 111.162 335.761 111.171C335.74 111.18 335.717 111.182 335.695 111.175C333.007 110.483 330.283 109.846 327.644 109.02C327.433 108.959 327.535 108.699 327.746 108.738Z" fill="#455A64"/>
<path d="M330.837 107.707C331.097 108.121 331.328 108.551 331.528 108.993C331.719 109.329 331.84 109.695 331.883 110.073C331.883 110.145 331.781 110.161 331.727 110.117C331.447 109.814 331.221 109.472 331.059 109.103C330.831 108.71 330.59 108.317 330.374 107.918C330.348 107.862 330.346 107.799 330.369 107.742C330.392 107.685 330.438 107.638 330.497 107.611C330.556 107.584 330.625 107.579 330.688 107.597C330.751 107.615 330.804 107.654 330.837 107.707Z" fill="#455A64"/>
<path d="M330.488 105.447C330.319 105.076 330.157 104.705 329.983 104.339C329.808 103.973 329.592 103.591 329.448 103.198C329.448 103.137 329.315 103.198 329.345 103.242C329.508 103.613 329.616 104.007 329.754 104.389C329.893 104.771 330.025 105.148 330.169 105.53C330.441 106.24 330.752 106.938 331.101 107.619C330.67 107.646 330.238 107.582 329.838 107.43C329.436 107.201 329.12 106.863 328.936 106.461C328.702 106.045 328.485 105.624 328.239 105.214C327.947 104.772 327.699 104.307 327.499 103.824C327.499 103.763 327.367 103.824 327.397 103.868C327.763 104.897 328.243 105.888 328.828 106.826C329.075 107.192 329.273 107.574 329.724 107.713C330.211 107.83 330.718 107.856 331.215 107.79C331.276 107.79 331.36 107.79 331.336 107.696C331.089 106.943 330.807 106.173 330.488 105.447Z" fill="#455A64"/>
<path d="M331.667 110.128C330.759 111.956 329.965 113.779 329.117 115.596C328.269 117.413 327.523 119.175 326.772 120.981C325.262 124.632 323.909 128.349 322.731 132.105C322.154 133.952 321.622 135.823 321.137 137.717C320.656 139.607 319.55 143.551 319.55 145.473C319.55 148.77 324.769 157.29 325.725 159.058C326.327 160.166 326.501 159.994 326.219 159.445C325.413 157.9 320.494 148.066 320.259 145.595C320.079 143.684 321.113 140.814 321.558 138.947C322.003 137.08 322.526 135.152 323.092 133.274C324.204 129.568 325.539 125.939 326.91 122.311C327.68 120.278 328.51 118.266 329.315 116.217C330.121 114.167 330.921 112.339 331.793 110.123C331.787 110.106 331.691 110.073 331.667 110.128Z" fill="#455A64"/>
<path d="M350.849 103.907C350.392 103.757 349.767 104.023 349.304 104.101C348.708 104.2 348.105 104.262 347.5 104.289C346.898 104.31 346.296 104.297 345.696 104.25C345.099 104.244 344.512 104.109 343.982 103.857C343.109 103.289 342.361 102.575 341.775 101.752C341.071 100.914 340.486 99.9961 340.037 99.0205C340.037 98.9651 339.923 99.0206 339.947 99.0649C340.146 99.6189 340.29 100.173 340.549 100.727C340.792 101.238 341.08 101.731 341.408 102.201C341.949 103.142 342.737 103.944 343.699 104.533C344.758 105.087 346.105 105.026 347.307 104.954C347.985 104.908 348.658 104.817 349.322 104.682C349.803 104.583 350.609 104.5 350.909 104.128C350.926 104.112 350.937 104.091 350.943 104.07C350.949 104.048 350.949 104.025 350.943 104.003C350.937 103.981 350.925 103.961 350.909 103.944C350.893 103.928 350.872 103.915 350.849 103.907Z" fill="#455A64"/>
<path d="M370.284 185.251C366.039 179.485 361.866 173.67 357.764 167.805C353.663 161.94 349.622 156.031 345.642 150.077C344.691 148.653 343.591 147.23 342.972 145.645C342.292 143.928 342.641 142.249 343.212 140.554C344.284 137.451 345.545 134.407 346.989 131.435C348.408 128.449 349.947 125.507 351.456 122.571C353.043 119.668 354.448 116.685 355.666 113.635C356.833 110.761 357.03 107.629 356.231 104.649C355.341 101.652 353.471 98.9762 351.523 96.4777C351.005 95.824 350.482 95.1702 349.965 94.511C349.929 94.4611 349.845 94.511 349.887 94.5719C352.034 97.1757 354.096 99.9291 355.407 102.998C356.058 104.512 356.434 106.114 356.52 107.741C356.552 109.391 356.294 111.036 355.756 112.61C354.77 115.679 353.188 118.593 351.721 121.474C350.254 124.355 348.666 127.363 347.217 130.338C345.736 133.326 344.425 136.382 343.29 139.496C342.797 140.886 342.244 142.338 342.298 143.823C342.358 145.446 343.218 146.897 344.102 148.255C347.975 154.177 351.992 160.021 356.063 165.827C360.134 171.633 364.301 177.461 368.528 183.184C369.057 183.923 369.591 184.647 370.128 185.356C370.212 185.445 370.35 185.345 370.284 185.251Z" fill="#455A64"/>
<path d="M326.152 75.0988C320.74 84.2952 313.049 94.6495 307.09 95.0428C301.708 95.3863 292.706 91.8185 282.905 88.007C280.962 87.248 288.148 73.603 290.121 74.6113C294.035 76.578 302.49 81.9961 305.07 82.1623C306.17 82.2343 315.779 74.1293 322.322 69.6142C330.278 64.1185 328.305 71.4369 326.152 75.0988Z" fill="#AD6359"/>
<path d="M276.037 87.5583C279.29 88.4668 284.402 89.453 286.428 89.115C288.328 88.7882 291.9 75.6362 290.235 74.6445C285.057 71.5643 276.759 70.7665 273.536 71.9798C270.312 73.1931 272.664 86.6109 276.037 87.5583Z" fill="#AD6359"/>
<path d="M358.39 160.188C355.227 160.188 352.118 158.869 349.129 156.271C342.906 150.847 340.41 124.072 338.907 108.073C338.42 102.843 337.999 98.3225 337.704 97.8793C336.171 96.9319 269.591 72.1571 267.901 71.9299L267.931 71.3759C269.134 71.3759 336.646 96.5109 338.089 97.4638C338.522 97.7463 338.744 99.7186 339.52 108.029C340.909 122.903 343.489 150.587 349.55 155.872C352.557 158.476 355.636 159.75 358.775 159.628C362.485 159.495 366.316 157.445 370.164 153.534L370.609 153.905C366.646 157.933 362.671 160.044 358.799 160.182L358.39 160.188Z" fill="#A6A6A6"/>
<path d="M278.894 71.0768C280.096 72.3122 277.823 72.9105 277.823 72.9105C277.823 72.9105 281.317 72.772 282.033 74.4894C282.748 76.2068 279.94 76.783 279.742 76.8273C279.928 76.8273 283.139 76.7719 283.656 78.5669C284.173 80.3618 281.293 80.6277 281.107 80.6388C281.281 80.6831 283.602 81.3147 283.662 82.7606C283.758 85.237 277.769 83.7745 275.935 84.8548C275.935 84.8548 276.26 87.5306 276.284 87.6248C276.284 87.6248 271.87 86.7439 270.421 84.3783C270.207 84.037 270.125 83.6387 270.19 83.2489C270.254 82.8592 270.461 82.5013 270.776 82.2343C270.776 82.2343 268.875 82.0072 268.424 80.6056C268.19 79.8854 269.23 78.9048 269.23 78.9048C268.809 78.8293 268.418 78.6489 268.1 78.3833C267.782 78.1177 267.549 77.7769 267.426 77.3979C267.168 76.3896 268.25 75.5642 268.25 75.5642C268.25 75.5642 266.915 74.711 267.017 73.5975C267.18 71.3593 276.308 68.4508 278.894 71.0768Z" fill="#AD6359"/>
<path d="M269.176 78.9104C269.14 78.9104 269.116 78.8716 269.146 78.8494C272.308 76.9908 276.087 76.2343 279.802 76.7165C279.934 76.7165 280.03 76.8772 279.874 76.8605C277.342 76.6445 272.026 77.7359 269.176 78.9104Z" fill="#263238"/>
<path d="M281.347 80.7607C277.739 80.323 274.288 80.9989 270.878 82.1623C270.836 82.1623 270.818 82.118 270.878 82.0958C272.381 81.1097 274.636 80.5779 276.428 80.3009C278.088 80.014 279.801 80.1324 281.395 80.6443C281.425 80.6665 281.425 80.7718 281.347 80.7607Z" fill="#263238"/>
<path d="M277.823 72.9105C278.496 72.9409 279.164 73.0281 279.82 73.1709C280.462 73.2844 281.06 73.554 281.551 73.9521C281.767 74.1457 281.895 74.4066 281.912 74.6833C281.929 74.961 281.867 75.238 281.732 75.4866C281.575 75.7253 281.365 75.9309 281.117 76.0903C280.868 76.2497 280.586 76.3592 280.289 76.4118L278.851 76.7221L280.319 76.8938C280.973 76.9618 281.611 77.1284 282.207 77.3869C282.485 77.4949 282.735 77.6551 282.943 77.8573C283.15 78.0595 283.309 78.2993 283.41 78.5613C283.508 78.8071 283.51 79.0773 283.413 79.3238C283.316 79.5703 283.127 79.7771 282.88 79.9076C282.331 80.2001 281.71 80.3584 281.076 80.3674L279.332 80.4505L281.004 80.8992C281.471 81.0314 281.917 81.2176 282.333 81.4532C282.739 81.6417 283.076 81.9366 283.301 82.3008C283.391 82.473 283.427 82.6649 283.404 82.8548C283.382 83.0447 283.303 83.2251 283.175 83.3756C282.838 83.6603 282.422 83.8523 281.972 83.9296C280.982 84.1194 279.976 84.2362 278.966 84.2786C278.455 84.3174 277.943 84.3562 277.432 84.4227C276.917 84.4565 276.414 84.5905 275.959 84.816C276.431 84.6412 276.935 84.551 277.444 84.5501C277.955 84.5501 278.467 84.5501 278.978 84.5168C280.015 84.5371 281.052 84.4666 282.075 84.3063C282.63 84.2291 283.148 84.0037 283.566 83.6581C283.771 83.4467 283.905 83.1847 283.951 82.9042C283.997 82.6238 283.953 82.337 283.824 82.0792C283.57 81.6125 283.17 81.2266 282.676 80.9712C282.218 80.7102 281.724 80.5054 281.209 80.3618L281.13 80.9158C281.884 80.9047 282.622 80.7139 283.271 80.3618C283.625 80.161 283.893 79.8537 284.029 79.4921C284.151 79.1312 284.151 78.7449 284.029 78.3841C283.9 78.0483 283.695 77.7417 283.428 77.4847C283.16 77.2278 282.836 77.0263 282.477 76.8938C281.818 76.6207 281.116 76.4467 280.397 76.3786V76.8606C280.758 76.7844 281.098 76.637 281.391 76.4285C281.685 76.22 281.926 75.9554 282.099 75.6528C282.252 75.3366 282.312 74.9889 282.273 74.6446C282.227 74.2959 282.048 73.9737 281.768 73.736C281.213 73.3317 280.546 73.0785 279.844 73.0047C279.176 72.905 278.498 72.8735 277.823 72.9105Z" fill="#263238"/>
<path d="M288.9 73.9354C288.9 73.9354 276.717 64.872 275.201 70.4895C274.75 72.1515 275.057 79.5086 276.657 79.4754C278.731 79.4422 279.224 76.3508 279.2 74.3675C279.2 74.3675 282.507 77.7691 285.767 76.3508C287.01 75.7949 288.086 74.9653 288.9 73.9354Z" fill="#AD6359"/>
<path d="M275.358 70.0297C275.096 70.664 274.938 71.3305 274.889 72.0075C274.815 72.683 274.793 73.3624 274.822 74.0407C274.853 75.4031 275.016 76.7603 275.31 78.096C275.386 78.4514 275.517 78.7947 275.7 79.1153C275.808 79.2995 275.958 79.4601 276.139 79.5862C276.237 79.6544 276.347 79.7069 276.464 79.7413C276.583 79.7748 276.707 79.7898 276.831 79.7857C277.279 79.7772 277.708 79.6152 278.034 79.3314C278.323 79.0689 278.559 78.7613 278.731 78.4228C279.055 77.7852 279.258 77.1014 279.332 76.4007C279.42 75.7206 279.455 75.0356 279.435 74.3509L278.984 74.506C279.378 74.8796 279.809 75.219 280.271 75.5199C280.728 75.8212 281.218 76.0792 281.732 76.2899C282.246 76.4968 282.792 76.6312 283.349 76.6888C283.901 76.7495 284.461 76.7119 284.997 76.578C284.457 76.6447 283.908 76.6279 283.373 76.5281C282.85 76.4208 282.344 76.2494 281.87 76.0185C281.391 75.7947 280.939 75.5235 280.523 75.2096C280.106 74.9063 279.721 74.5668 279.375 74.1958L278.948 73.736V74.3509C278.94 75.0111 278.884 75.6701 278.779 76.3232C278.687 76.9638 278.484 77.5867 278.178 78.168C277.877 78.722 277.378 79.204 276.813 79.204C276.248 79.204 276.025 78.5613 275.857 77.9519C275.688 77.3425 275.568 76.6556 275.46 75.9963C275.352 75.337 275.255 74.6722 275.195 74.0074C275.025 72.6818 275.08 71.3399 275.358 70.0297Z" fill="#263238"/>
<path d="M316.94 89.6025L308.317 79.6305C308.317 79.6305 317.072 71.8745 322.593 68.7389C328.113 65.6032 330.494 67.4591 327.079 74.2456C323.663 81.0321 316.94 89.6025 316.94 89.6025Z" fill="#07F9A2"/>
<path d="M310.404 78.6555C311.727 79.8743 312.935 81.215 314.132 82.5335C315.329 83.852 316.471 85.1927 317.547 86.5888C317.547 86.6165 317.547 86.6497 317.499 86.6275C316.243 85.3423 315.034 84.0182 313.837 82.6886C312.641 81.359 311.432 80.0626 310.35 78.6887C310.325 78.6666 310.362 78.6278 310.404 78.6555Z" fill="#263238"/>
<path opacity="0.1" d="M312.514 84.5168L316.94 89.6302C316.94 89.6302 323.663 81.0654 327.078 74.2734C328.281 71.9355 328.738 70.1904 328.648 69.027L312.514 84.5168Z" fill="black"/>
<path d="M325.07 104.367L354 94.6772C354 94.6772 341.691 73.8578 332.653 68.2735C328.539 65.7362 325.437 66.9218 323.236 69.592C322.688 70.2624 317.102 83.7357 318.064 87.2259C319.315 91.7465 322.628 92.6662 322.628 92.6662L325.07 104.367Z" fill="#07F9A2"/>
<path d="M331.065 67.4536L322.947 70.1128L323.086 69.8303L330.735 67.3428L331.065 67.4536ZM333.332 68.7168L321.907 72.4673C321.871 72.556 321.835 72.6502 321.793 72.7443L333.543 68.8663L333.332 68.7168ZM335.359 70.2957L320.927 75.0434L320.819 75.3204L335.563 70.4674L335.359 70.2957ZM337.163 71.9577L319.983 77.5918L319.893 77.8633L337.331 72.1349L337.163 71.9577ZM338.817 73.664L319.189 80.0848C319.189 80.1735 319.135 80.2621 319.111 80.3508L338.955 73.8191L338.817 73.664ZM340.374 75.4035L318.522 82.6055C318.522 82.6942 318.48 82.7828 318.467 82.8659L340.53 75.6085L340.374 75.4035ZM341.853 77.1653L318.059 84.9877C318.059 85.0708 318.059 85.1484 318.059 85.2315L342.04 77.3481L341.853 77.1653ZM343.279 78.9381L318.077 87.2481C318.077 87.3201 318.119 87.3921 318.137 87.4586L343.423 79.1486L343.279 78.9381ZM344.65 80.733L318.852 89.2148C318.894 89.2812 318.931 89.3533 318.967 89.4197L344.824 80.9269L344.65 80.733ZM345.991 82.5446L320.133 91.0374L320.308 91.2147L346.099 82.733L345.991 82.5446ZM347.289 84.3617L322.346 92.5665C322.442 92.6077 322.54 92.6429 322.641 92.6717V92.705L347.422 84.5556C347.368 84.5168 347.319 84.4227 347.277 84.3562L347.289 84.3617ZM348.546 86.1788L323.026 94.5664L323.074 94.788L348.678 86.3727L348.546 86.1788ZM349.785 88.0181L323.465 96.7048L323.513 96.9264L349.917 88.2508L349.785 88.0181ZM350.988 89.8629L323.892 98.7713L323.94 98.9984L351.132 90.0568C351.084 90.007 351.042 89.9405 351 89.874L350.988 89.8629ZM352.19 91.7188L324.343 100.876L324.391 101.098L352.311 91.9183C352.268 91.8629 352.226 91.7964 352.19 91.7188ZM353.351 93.5858L324.781 103.004L324.83 103.231L353.471 93.813C353.425 93.7437 353.385 93.6715 353.351 93.5969V93.5858Z" fill="white"/>
<path d="M332.238 89.1815C330.809 89.4296 329.402 89.774 328.029 90.2119C327.349 90.4391 326.688 90.6939 326.032 90.9598C325.701 91.0928 325.371 91.2202 325.04 91.3365C324.694 91.4753 324.33 91.5739 323.958 91.6302C323.958 91.6302 323.958 91.68 323.958 91.6745C324.313 91.6598 324.666 91.6227 325.016 91.5637C325.352 91.4945 325.684 91.4057 326.008 91.2978C326.694 91.0706 327.373 90.8213 328.059 90.5886C329.442 90.1233 330.825 89.6635 332.268 89.2923C332.334 89.2757 332.304 89.1704 332.238 89.1815Z" fill="#263238"/>
<path d="M335.912 90.0568C334.707 90.0474 333.502 90.1029 332.304 90.223C331.703 90.2784 331.101 90.3726 330.536 90.4778C330.254 90.5277 329.977 90.5831 329.7 90.644C329.424 90.705 329.099 90.8103 328.786 90.8712C328.756 90.8712 328.786 90.9211 328.786 90.9155C329.081 90.8657 329.388 90.8656 329.676 90.8324L330.56 90.7272C331.162 90.6607 331.763 90.5997 332.364 90.5277C333.567 90.3837 334.727 90.2507 335.918 90.1455C335.984 90.1178 335.972 90.0568 335.912 90.0568Z" fill="#263238"/>
<path d="M336.718 69.7139C351.258 75.5753 368.823 92.6772 364.854 96.4666C361.246 99.9236 346.466 103.763 340.121 104.732C338.257 105.02 336.135 91.608 338.131 91.2978C340.536 90.9266 346.472 89.4973 346.694 89.392C347.163 89.176 335.269 77.0655 331.258 72.5116C325.659 66.1683 331.264 67.509 336.718 69.7139Z" fill="#AD6359"/>
<path d="M319.411 95.2976C319.348 95.7171 319.426 96.1443 319.635 96.5217C319.844 96.8991 320.173 97.2086 320.578 97.4084C320.058 97.9436 319.758 98.6296 319.73 99.3474C319.73 100.616 321.913 101.148 321.913 101.148C321.498 101.807 321.31 102.566 321.372 103.325C321.516 104.538 323.621 105.364 323.621 105.364C323.596 106.171 323.891 106.959 324.451 107.58C326.008 109.17 329.496 108.599 331.715 108.256C333.934 107.912 339.887 105.031 341.083 104.588L338.828 91.4363C338.828 91.4363 328.395 90.356 325.846 91.0983C323.699 91.7188 319.712 93.7021 319.411 95.2976Z" fill="#AD6359"/>
<path d="M320.644 97.1812C322.749 96.0123 325.124 95.4804 327.457 94.8267C327.505 94.8267 327.529 94.8877 327.457 94.8987C325.124 95.5248 322.965 96.5607 320.662 97.2809C320.651 97.2782 320.641 97.2726 320.633 97.2647C320.625 97.2568 320.62 97.247 320.618 97.2365C320.616 97.2259 320.618 97.2151 320.622 97.2053C320.627 97.1955 320.634 97.1871 320.644 97.1812Z" fill="#263238"/>
<path d="M321.925 100.971C322.433 100.747 322.971 100.585 323.525 100.489C324.126 100.356 324.679 100.234 325.262 100.117C326.429 99.8848 327.596 99.6798 328.774 99.5025C328.822 99.5025 328.852 99.569 328.774 99.5801C327.614 99.8127 326.453 100.062 325.304 100.339L323.585 100.766C323.055 100.937 322.506 101.054 321.949 101.115C321.932 101.112 321.917 101.104 321.905 101.092C321.893 101.081 321.885 101.066 321.882 101.05C321.88 101.035 321.882 101.019 321.89 101.004C321.898 100.99 321.91 100.978 321.925 100.971Z" fill="#263238"/>
<path d="M323.669 105.353C324.129 105.154 324.624 105.032 325.13 104.993L326.724 104.699C327.788 104.494 328.852 104.295 329.905 104.056C329.959 104.056 329.983 104.123 329.905 104.134C328.834 104.378 327.77 104.633 326.694 104.871L325.112 105.209C324.641 105.352 324.147 105.418 323.651 105.403L323.669 105.353Z" fill="#263238"/>
<path d="M352.893 77.7414L342.232 85.8797C342.232 85.8797 333.621 77.9741 330.121 72.9549C326.621 67.9356 328.576 65.703 336.008 68.7112C343.441 71.7194 352.893 77.7414 352.893 77.7414Z" fill="#07F9A2"/>
<path d="M341.029 83.5916C342.328 82.3506 343.759 81.2094 345.172 80.0792C346.586 78.9491 348.011 77.8632 349.502 76.8494C349.502 76.8494 349.568 76.8494 349.544 76.8937C348.179 78.0793 346.766 79.2205 345.335 80.3452C343.904 81.4698 342.539 82.5999 341.065 83.6415C341.029 83.6636 341.029 83.6193 341.029 83.5916Z" fill="#263238"/>
<path d="M333.056 76.6445C333.873 77.3758 334.655 78.1292 335.461 78.8605C336.267 79.5918 337.012 80.384 337.782 81.1485L340.061 83.4698L342.31 85.8132H342.232C342.503 85.6304 342.773 85.4475 343.05 85.2592C342.809 85.4752 342.563 85.6858 342.316 85.8963L342.274 85.9295L342.226 85.8907C341.372 85.1982 340.584 84.4503 339.785 83.708C338.985 82.9656 338.215 82.1956 337.457 81.42C335.912 79.8965 334.415 78.3065 333.056 76.6445Z" fill="#263238"/>
<path d="M336.82 80.5336C335.77 79.9807 334.826 79.2734 334.024 78.4395C334.554 78.7069 335.056 79.0204 335.521 79.3757C335.99 79.7256 336.425 80.113 336.82 80.5336Z" fill="#263238"/>
<path d="M325.815 50.1688C326.711 48.3628 330.073 44.5457 334.384 46.324C340.542 48.8669 338.672 60.512 340.999 64.7501C345.208 72.4285 343.855 78.8715 338.834 78.8992C333.212 78.938 329.303 72.5726 332.298 61.1712C334.168 54.0523 332.755 50.4292 331.155 50.3184C329.556 50.2076 328.275 51.8363 328.275 51.8363L325.815 50.1688Z" fill="#263238"/>
<path d="M326.207 49.5151C326.743 48.7087 327.383 47.9647 328.113 47.2991C328.851 46.6015 329.74 46.0542 330.723 45.6925C331.736 45.3271 332.849 45.2651 333.904 45.5152C334.948 45.7636 335.911 46.2406 336.712 46.9057C337.494 47.5827 338.109 48.4064 338.516 49.3212C338.907 50.2124 339.188 51.1417 339.352 52.0912C339.641 53.9794 339.7 55.8916 339.526 57.7918C339.481 55.9043 339.28 54.0227 338.925 52.1632C338.722 51.2535 338.422 50.3646 338.029 49.5095C337.644 48.6707 337.073 47.9157 336.351 47.2935C335.619 46.6825 334.742 46.2384 333.789 45.9972C332.843 45.7531 331.837 45.7821 330.909 46.0803C329.96 46.3888 329.086 46.8649 328.335 47.4819C327.946 47.7868 327.577 48.1123 327.229 48.4569C326.868 48.793 326.527 49.1458 326.207 49.5151Z" fill="#263238"/>
<path d="M333.212 57.2545C333.001 58.4012 332.653 59.5259 332.352 60.6505C332.051 61.7751 331.745 62.9108 331.468 64.0188C331.191 65.1268 330.951 66.2847 330.801 67.4259C330.633 68.5602 330.584 69.7068 330.656 70.8496C330.715 71.9784 331.002 73.0871 331.504 74.1182C332.052 75.1351 332.789 76.0557 333.681 76.8384C334.572 77.6303 335.654 78.2168 336.838 78.5502C337.423 78.717 338.03 78.812 338.642 78.8328C338.955 78.8457 339.269 78.8364 339.58 78.8051C339.893 78.7859 340.201 78.7243 340.494 78.6222C339.911 78.8588 339.28 78.9796 338.642 78.9768C338.001 78.9972 337.36 78.9394 336.736 78.8051C336.109 78.6602 335.503 78.4463 334.932 78.168C334.361 77.8867 333.828 77.5445 333.344 77.1486C332.86 76.7558 332.418 76.3197 332.027 75.8467L331.739 75.4866L331.468 75.121C331.285 74.872 331.122 74.6109 330.981 74.3398C330.432 73.2534 330.115 72.0797 330.049 70.8829C329.968 68.5319 330.288 66.1838 330.999 63.9246C331.318 62.8166 331.691 61.6809 332.075 60.5729C332.46 59.4649 332.899 58.3735 333.212 57.2545Z" fill="#263238"/>
<path d="M325.437 50.1688C325.497 49.6148 326.038 48.9777 326.411 48.9278C326.784 48.878 329.466 50.3239 329.616 51.0164C329.767 51.7089 328.414 52.1521 328.414 52.1521L325.437 50.1688Z" fill="#07F9A2"/>
<path d="M328.768 69.5588C328.72 70.1128 326.507 73.9908 323.819 74.2623C322.941 74.3454 322.238 69.9577 322.238 69.9577L322.106 69.6475L320.253 65.2653L325.473 61.0383L326.231 60.4843C326.231 60.4843 326.652 61.7142 327.157 63.2543L327.229 63.4759C327.264 63.5573 327.294 63.6405 327.319 63.7252L327.554 64.4177C327.608 64.595 327.662 64.7723 327.716 64.9717C327.77 65.1712 327.824 65.3429 327.884 65.5257C328.279 66.8498 328.574 68.1974 328.768 69.5588Z" fill="#AD6359"/>
<path d="M327.157 63.2543C326.871 64.5976 326.272 65.8674 325.399 66.9753C324.527 68.0832 323.403 69.0027 322.106 69.6696L320.253 65.2875L325.473 61.0605L326.231 60.5065C326.231 60.5065 326.652 61.7197 327.157 63.2543Z" fill="#263238"/>
<path d="M312.767 58.0024C311.709 66.196 316.916 67.7029 318.834 67.9079C320.578 68.0963 326.531 68.5339 328.498 60.4898C330.464 52.4458 326.664 49.4098 322.707 48.7727C318.75 48.1356 313.789 49.8087 312.767 58.0024Z" fill="#AD6359"/>
<path d="M314.222 57.6423C314.432 57.6811 314.631 57.6866 314.823 57.7088C315.036 57.7648 315.262 57.7531 315.467 57.6755C315.526 57.6405 315.571 57.5881 315.594 57.5268C315.617 57.4654 315.616 57.3988 315.593 57.3376C315.529 57.2221 315.433 57.1243 315.315 57.0542C315.196 56.9841 315.06 56.9442 314.92 56.9387C314.636 56.8888 314.342 56.9382 314.096 57.0772C314.042 57.1128 314 57.162 313.976 57.2188C313.952 57.2757 313.946 57.3377 313.96 57.3975C313.973 57.4573 314.005 57.5122 314.051 57.5557C314.098 57.5991 314.157 57.6292 314.222 57.6423Z" fill="#263238"/>
<path d="M320.139 57.3265C319.935 57.2905 319.734 57.2424 319.538 57.1825C319.312 57.1626 319.1 57.0727 318.936 56.9276C318.895 56.8762 318.873 56.8141 318.873 56.7503C318.873 56.6866 318.895 56.6244 318.936 56.5731C319.042 56.4876 319.171 56.4298 319.31 56.4054C319.448 56.3811 319.591 56.3911 319.724 56.4346C320.006 56.4885 320.258 56.634 320.434 56.8445C320.468 56.8922 320.487 56.9477 320.49 57.0049C320.492 57.0622 320.477 57.1189 320.447 57.1688C320.416 57.2187 320.371 57.2598 320.317 57.2877C320.263 57.3155 320.201 57.329 320.139 57.3265Z" fill="#263238"/>
<path d="M318.84 59.3541C318.84 59.3541 318.888 59.3541 318.882 59.404C318.822 59.958 318.882 60.6172 319.388 60.8388C319.388 60.8388 319.388 60.8721 319.388 60.8665C318.714 60.7391 318.684 59.8749 318.84 59.3541Z" fill="#263238"/>
<path d="M319.429 58.8057C320.41 58.8057 320.349 60.6117 319.429 60.6172C318.509 60.6228 318.606 58.8057 319.429 58.8057Z" fill="#263238"/>
<path d="M319.815 58.9109C319.977 59.0217 320.139 59.2045 320.35 59.2322C320.56 59.2599 320.777 59.0771 320.951 58.8998C320.951 59.2433 320.789 59.5979 320.38 59.6367C319.971 59.6754 319.778 59.3597 319.676 59.0051C319.682 58.9608 319.742 58.8666 319.815 58.9109Z" fill="#263238"/>
<path d="M315.412 59.0328C315.412 59.0328 315.364 59.0605 315.364 59.0827C315.364 59.6367 315.274 60.2904 314.715 60.4622V60.4954C315.394 60.4123 315.515 59.5536 315.412 59.0328Z" fill="#263238"/>
<path d="M314.883 58.4234C313.909 58.3347 313.783 60.1408 314.685 60.2239C315.587 60.307 315.707 58.4788 314.883 58.4234Z" fill="#263238"/>
<path d="M314.469 58.5176C314.306 58.6062 314.138 58.7724 313.952 58.7724C313.765 58.7724 313.591 58.5674 313.47 58.368C313.47 58.368 313.47 58.368 313.434 58.368C313.404 58.7115 313.501 59.0771 313.855 59.1657C314.21 59.2544 314.457 58.9663 314.559 58.6117C314.571 58.584 314.535 58.4788 314.469 58.5176Z" fill="#263238"/>
<path d="M318.78 63.692C318.636 63.8249 318.497 64.0077 318.275 64.0244C318.048 64.0246 317.825 63.9793 317.619 63.8914C317.577 63.8914 317.619 63.8914 317.619 63.8914C317.708 64.0018 317.828 64.0879 317.965 64.1406C318.103 64.1932 318.254 64.2105 318.401 64.1906C318.524 64.1579 318.634 64.0928 318.718 64.0032C318.801 63.9136 318.854 63.8035 318.87 63.6864C318.84 63.6809 318.78 63.6698 318.78 63.692Z" fill="#263238"/>
<path d="M316.321 61.5591C316.321 61.5591 316.158 62.3901 316.134 62.7889C316.134 62.8222 316.237 62.8443 316.381 62.861C316.746 62.9368 317.127 62.9191 317.482 62.8098C317.837 62.7004 318.153 62.5035 318.395 62.2405C318.4 62.2325 318.401 62.2236 318.4 62.2148C318.398 62.206 318.394 62.1978 318.388 62.1912C318.381 62.1847 318.373 62.18 318.363 62.178C318.354 62.1759 318.344 62.1764 318.335 62.1795C317.772 62.5046 317.109 62.6506 316.447 62.595C316.447 62.4842 316.784 61.1823 316.718 61.1713C316.382 61.1847 316.05 61.2406 315.731 61.3375C316.026 59.5924 316.615 57.9027 316.88 56.1631C316.876 56.152 316.868 56.1424 316.858 56.1355C316.848 56.1287 316.836 56.125 316.823 56.125C316.81 56.125 316.798 56.1287 316.788 56.1355C316.777 56.1424 316.77 56.152 316.766 56.1631C316.07 57.9596 315.571 59.8154 315.274 61.7031C315.25 61.8804 316.146 61.62 316.321 61.5591Z" fill="#263238"/>
<path d="M316.447 62.7114C316.682 63.0425 317.005 63.3132 317.385 63.4981C317.597 63.5878 317.833 63.6186 318.064 63.5867C318.569 63.5036 318.612 63.0881 318.551 62.7225C318.518 62.532 318.459 62.346 318.377 62.1685C317.813 62.5341 317.137 62.7243 316.447 62.7114Z" fill="#263238"/>
<path d="M317.385 63.498C317.597 63.5878 317.833 63.6186 318.064 63.5867C318.569 63.5036 318.611 63.0881 318.551 62.7224C318.291 62.712 318.034 62.7829 317.822 62.9236C317.61 63.0644 317.456 63.2667 317.385 63.498Z" fill="#FF99BA"/>
<path d="M327.644 60.8388C325.443 60.7003 325.04 54.4512 324.998 53.6867C324.998 54.1687 324.998 56.7337 324.763 56.8279C324.528 56.8194 324.296 56.7725 324.078 56.6894C324.085 56.3822 324.069 56.0749 324.03 55.7697C324.03 55.6257 323.958 56.0744 323.855 56.6284L323.452 56.5066C323.5 55.8519 323.453 55.1944 323.314 54.5509C323.26 54.3127 323.152 55.3986 322.863 56.3404C321.007 55.7779 319.089 55.4063 317.144 55.2324C316.597 55.1936 316.122 55.188 315.701 55.1936C315.701 54.4346 315.852 53.6313 315.785 53.803C315.604 54.2553 315.471 54.7229 315.389 55.1991H314.787C314.787 54.1299 315.389 52.4291 315.19 52.695C314.616 53.4838 314.208 54.3653 313.987 55.2933C313.194 55.4096 312.971 55.5426 312.953 55.3542C313.272 53.2561 314.388 51.3302 316.104 49.9195C318.936 47.6259 324.445 47.1994 327.397 50.9666C327.397 50.9666 329.887 52.5787 330.193 55.0551C330.5 57.5315 328.913 60.9164 327.644 60.8388Z" fill="#263238"/>
<path d="M326.405 60.7502C326.405 60.7502 328.449 58.2351 329.694 58.9109C330.939 59.5868 329.345 63.2765 327.836 63.7474C327.647 63.8193 327.445 63.8555 327.241 63.8535C327.036 63.8516 326.835 63.8117 326.648 63.7361C326.461 63.6606 326.292 63.551 326.152 63.4139C326.012 63.2768 325.904 63.1151 325.833 62.9385L326.405 60.7502Z" fill="#AD6359"/>
<path d="M329.207 59.958C329.207 59.958 329.207 59.9857 329.207 59.9968C328.721 60.2018 328.288 60.4986 327.934 60.868C327.581 61.2373 327.316 61.671 327.156 62.1408C327.221 62.0465 327.306 61.9662 327.407 61.9054C327.508 61.8445 327.623 61.8045 327.742 61.7882C327.861 61.7719 327.983 61.7796 328.099 61.8108C328.215 61.842 328.322 61.896 328.413 61.969C328.413 61.969 328.413 62.0244 328.413 62.0189C328.232 61.9585 328.034 61.9522 327.849 62.0009C327.663 62.0496 327.499 62.1509 327.379 62.2904C327.178 62.522 327.005 62.7727 326.862 63.0382C326.808 63.1213 326.645 63.0715 326.681 62.9718C326.681 61.7253 327.8 60.0411 329.207 59.958Z" fill="#263238"/>
</g>
<defs>
<clipPath id="clip0_1592_9259">
<rect width="390" height="224" fill="white" transform="translate(0 0.610962)"/>
</clipPath>
</defs>
</svg>
