<svg width="681" height="454" viewBox="0 0 681 454" fill="none" xmlns="http://www.w3.org/2000/svg">
<path d="M568.998 45.9993H450.858V125.613H568.998V45.9993Z" fill="white" stroke="#EBEBEB" stroke-miterlimit="10"/>
<path d="M462.281 52.0194C462.281 52.5582 462.121 53.0848 461.822 53.5328C461.523 53.9807 461.097 54.3299 460.599 54.5361C460.102 54.7422 459.554 54.7962 459.026 54.6911C458.497 54.586 458.012 54.3265 457.631 53.9456C457.25 53.5646 456.99 53.0792 456.885 52.5508C456.78 52.0224 456.834 51.4747 457.04 50.977C457.247 50.4792 457.596 50.0538 458.044 49.7545C458.492 49.4552 459.018 49.2954 459.557 49.2954C460.279 49.2954 460.972 49.5824 461.483 50.0932C461.994 50.6041 462.281 51.297 462.281 52.0194Z" fill="#37474F"/>
<path d="M473.386 52.0194C473.386 52.5582 473.226 53.0848 472.927 53.5328C472.627 53.9807 472.202 54.3299 471.704 54.5361C471.206 54.7422 470.659 54.7962 470.13 54.6911C469.602 54.586 469.117 54.3265 468.736 53.9456C468.355 53.5646 468.095 53.0792 467.99 52.5508C467.885 52.0224 467.939 51.4747 468.145 50.977C468.351 50.4792 468.7 50.0538 469.148 49.7545C469.596 49.4552 470.123 49.2954 470.662 49.2954C471.384 49.2954 472.077 49.5824 472.588 50.0932C473.099 50.6041 473.386 51.297 473.386 52.0194Z" fill="#EBEBEB"/>
<path d="M484.5 52.0194C484.5 52.5582 484.34 53.0848 484.041 53.5328C483.741 53.9807 483.316 54.3299 482.818 54.5361C482.32 54.7422 481.773 54.7962 481.244 54.6911C480.716 54.586 480.231 54.3265 479.85 53.9456C479.469 53.5646 479.209 53.0792 479.104 52.5508C478.999 52.0224 479.053 51.4747 479.259 50.977C479.465 50.4792 479.814 50.0538 480.262 49.7545C480.71 49.4552 481.237 49.2954 481.776 49.2954C482.498 49.2954 483.191 49.5824 483.702 50.0932C484.213 50.6041 484.5 51.297 484.5 52.0194Z" fill="#07F9A2"/>
<path d="M450.858 57.994H569.007" stroke="#EBEBEB" stroke-miterlimit="10"/>
<path d="M60.6816 46.6713V216.721H190.798V46.6713H60.6816ZM187.366 213.289H64.1139V50.1035H187.366V213.289Z" fill="#EBEBEB"/>
<path d="M187.366 50.1035V213.289H128.791V50.9934H125.367V213.289H64.1138V50.1035H187.366Z" fill="#0C5D4F"/>
<path d="M128.791 50.9933H125.367V215.005H128.791V50.9933Z" fill="#EBEBEB"/>
<path d="M57.5762 58.3844L193.912 58.3844V53.6083L57.5762 53.6083V58.3844Z" fill="#EBEBEB"/>
<path d="M57.5762 63.7598L193.912 63.7598V58.9837L57.5762 58.9837V63.7598Z" fill="#EBEBEB"/>
<path d="M57.5762 69.1351L193.912 69.1351V64.3591L57.5762 64.3591V69.1351Z" fill="#EBEBEB"/>
<path d="M57.5762 74.5105L193.912 74.5105V69.7344L57.5762 69.7344V74.5105Z" fill="#EBEBEB"/>
<path d="M57.5762 79.8768L193.912 79.8768V75.1007L57.5762 75.1007V79.8768Z" fill="#EBEBEB"/>
<path d="M57.5762 85.2522L193.912 85.2522V80.4761L57.5762 80.4761V85.2522Z" fill="#EBEBEB"/>
<path d="M57.5762 90.6276L193.912 90.6276V85.8515L57.5762 85.8515V90.6276Z" fill="#EBEBEB"/>
<path d="M57.5762 96.0029L193.912 96.0029V91.2268L57.5762 91.2268V96.0029Z" fill="#EBEBEB"/>
<path d="M57.5762 101.378L193.912 101.378V96.6021L57.5762 96.6021V101.378Z" fill="#EBEBEB"/>
<path d="M68.6174 52.6368H67.7639V162.759H68.6174V52.6368Z" fill="#263238"/>
<path d="M66.6743 166.754H69.7161L68.9534 162.378H67.437L66.6743 166.754Z" fill="#263238"/>
<path d="M65.5303 52.6368H64.6768V211.945H65.5303V52.6368Z" fill="#263238"/>
<path d="M63.5872 215.16H66.629L65.8662 210.783H64.3408L63.5872 215.16Z" fill="#263238"/>
<path d="M52.2554 55.9873L199.233 55.9873V45.9902L52.2554 45.9902V55.9873Z" fill="#DBDBDB"/>
<path d="M629.589 281.135H470.026L466.703 215.659H632.912L629.589 281.135Z" fill="#EBEBEB"/>
<path d="M476.128 222.905H545.545L544.301 245.605H477.608L476.128 222.905ZM544.7 223.704H476.981L478.343 244.824H543.538L544.7 223.704Z" fill="#DBDBDB"/>
<path d="M477.535 251.262H542.703L541.686 271.783H478.816L477.535 251.262ZM541.858 252.07H478.389L479.578 270.975H540.914L541.858 252.07Z" fill="#DBDBDB"/>
<path d="M503.813 231.25H516.434L515.726 236.698H504.521L503.813 231.25ZM515.517 232.058H504.73L505.229 235.926H515.017L515.517 232.058Z" fill="#DBDBDB"/>
<path d="M503.813 258.78H516.434L515.726 264.228H504.521L503.813 258.78ZM515.517 259.588H504.73L505.229 263.456H515.017L515.517 259.588Z" fill="#DBDBDB"/>
<path d="M554.597 222.905H624.014L622.761 245.605H556.059L554.597 222.905ZM623.169 223.704H555.451L556.813 244.824H621.98L623.169 223.704Z" fill="#0C5D4F"/>
<path d="M556.005 251.262H621.172L620.164 271.783H557.285L556.005 251.262ZM620.327 252.07H556.858L558.039 270.975H619.383L620.327 252.07Z" fill="#0C5D4F"/>
<path d="M582.282 231.25H594.903L594.195 236.698H582.99L582.282 231.25ZM593.986 232.058H583.199L583.699 235.926H593.487L593.986 232.058Z" fill="#DBDBDB"/>
<path d="M582.282 258.78H594.903L594.195 264.228H582.99L582.282 258.78ZM593.986 259.588H583.199L583.699 263.456H593.487L593.986 259.588Z" fill="#DBDBDB"/>
<path d="M615.279 281.135L616.287 288.272L618.302 302.6H622.234V281.135H615.279Z" fill="#EBEBEB"/>
<path d="M615.279 281.135L616.287 288.272H622.234V281.135H615.279Z" fill="#DBDBDB"/>
<path d="M484.336 281.135L483.328 288.272L481.313 302.6H477.372V281.135H484.336Z" fill="#EBEBEB"/>
<path d="M484.336 281.135L483.328 288.272H477.372V281.135H484.336Z" fill="#DBDBDB"/>
<path d="M612.809 215.641V184.905H605.073V215.641H612.809Z" fill="#C7C7C7"/>
<path d="M612.8 186.639V183.262H605.064V186.639H612.8Z" fill="#DBDBDB"/>
<path d="M612.809 192.215V190.962H605.073V192.215H612.809Z" fill="#DBDBDB"/>
<path d="M612.8 211.609V208.232H605.064V211.609H612.8Z" fill="#DBDBDB"/>
<path d="M605.064 215.65V179.793H599.652V215.65H605.064Z" fill="#DBDBDB"/>
<path d="M604.011 196.945V183.153H600.76V196.945H604.011Z" fill="#EBEBEB"/>
<path d="M564.936 215.64L590.437 190.432L586.632 186.584L561.132 211.792L564.936 215.64Z" fill="#C7C7C7"/>
<path d="M570.16 208.946L579.969 199.25L577.684 196.938L567.875 206.634L570.16 208.946Z" fill="#DBDBDB"/>
<path d="M599.661 215.641V188.41H590.472V215.641H599.661Z" fill="#A6A6A6"/>
<path d="M599.661 212.763V210.22H590.472V212.763H599.661Z" fill="#C7C7C7"/>
<path d="M599.652 208.559V207.578H590.463V208.559H599.652Z" fill="#C7C7C7"/>
<path d="M628.639 213.168L618.543 189.647L612.711 192.15L622.806 215.672L628.639 213.168Z" fill="#A6A6A6"/>
<path d="M627.569 210.665L626.627 208.47L620.794 210.974L621.736 213.168L627.569 210.665Z" fill="#C7C7C7"/>
<path d="M621.57 196.68L620.628 194.485L614.796 196.989L615.737 199.183L621.57 196.68Z" fill="#C7C7C7"/>
<path d="M622.582 199.034L622.217 198.183L616.384 200.687L616.749 201.538L622.582 199.034Z" fill="#C7C7C7"/>
<path d="M532.388 413.358C591.276 413.358 639.014 406.325 639.014 397.65C639.014 388.974 591.276 381.941 532.388 381.941C473.5 381.941 425.761 388.974 425.761 397.65C425.761 406.325 473.5 413.358 532.388 413.358Z" fill="#EBEBEB"/>
<path d="M93.2244 249.428C93.2244 249.428 101.178 220.862 107.534 211.155C113.89 201.449 125.694 190.798 125.694 190.798C125.694 190.798 125.467 234.845 93.2244 249.428Z" fill="#07F9A2"/>
<path d="M93.7874 248.946C96.4695 244.472 98.8947 239.849 101.051 235.099C101.961 229.992 103.282 224.967 105.001 220.072C105.008 220.054 105.023 220.039 105.04 220.032C105.058 220.024 105.078 220.024 105.097 220.031C105.115 220.038 105.129 220.052 105.137 220.07C105.144 220.088 105.145 220.108 105.137 220.126C104.084 224.666 102.858 229.116 101.741 233.61C104.956 226.664 108.007 219.618 111.838 213.044C112.72 209.867 113.957 206.8 115.525 203.901C115.525 203.819 115.707 203.901 115.661 203.955C114.694 206.187 113.866 208.476 113.182 210.81C114.987 207.879 117.008 205.086 119.23 202.457C119.366 202.293 119.647 202.457 119.511 202.647C114.39 209.185 110.858 216.613 107.498 224.131C111.114 220.206 114.451 216.034 117.486 211.646C117.486 211.6 117.586 211.646 117.559 211.7C114.389 216.614 110.811 221.252 106.863 225.565C104.411 231.077 102.005 236.607 99.081 241.846C104.919 236.915 109.405 230.532 113.854 224.376C113.873 224.347 113.903 224.327 113.937 224.32C113.972 224.313 114.007 224.32 114.036 224.34C114.065 224.359 114.085 224.389 114.092 224.423C114.098 224.457 114.091 224.492 114.072 224.521C109.623 231.286 104.992 237.651 98.6361 242.681C97.338 244.985 95.9102 247.213 94.3594 249.355C94.3053 249.431 94.2232 249.482 94.1312 249.497C94.0393 249.513 93.945 249.491 93.8691 249.437C93.7933 249.383 93.742 249.3 93.7267 249.208C93.7114 249.117 93.7332 249.022 93.7874 248.946Z" fill="#263238"/>
<path d="M90.8002 252.006C90.8002 252.006 105.11 225.674 100.952 200.123C96.793 174.572 92.3438 165.483 92.3438 165.483C92.3438 165.483 69.8072 205.208 90.8002 252.006Z" fill="#07F9A2"/>
<path d="M84.88 210.592C86.0917 217.829 87.9391 224.945 90.4006 231.858C90.443 222.487 90.6003 213.105 90.8727 203.71C89.2547 198.023 88.3398 192.159 88.1487 186.249C88.1487 186.076 88.3939 186.085 88.4121 186.249C88.8634 191.312 89.7012 196.332 90.9181 201.267C91.1361 193.531 91.3873 185.801 91.6718 178.077C91.6718 178.05 91.6823 178.025 91.701 178.006C91.7198 177.988 91.7452 177.977 91.7717 177.977C91.7982 177.977 91.8236 177.988 91.8423 178.006C91.861 178.025 91.8715 178.05 91.8715 178.077C91.8715 190.153 91.8715 202.239 91.7898 214.315C93.5341 209.643 94.9154 204.844 95.9212 199.96C95.9212 199.914 96.003 199.96 96.003 199.96C95.4294 205.59 94.0058 211.1 91.7807 216.304C91.7263 224.028 91.6234 231.749 91.472 239.467C93.8873 231.295 96.4751 223.313 97.1743 214.633C97.1743 214.609 97.1838 214.586 97.2009 214.569C97.2179 214.552 97.241 214.542 97.2651 214.542C97.2892 214.542 97.3122 214.552 97.3293 214.569C97.3463 214.586 97.3559 214.609 97.3559 214.633C97.1652 224.194 94.6954 233.91 91.5447 242.899C91.5144 242.989 91.4574 243.069 91.3812 243.126C91.3086 245.95 91.236 248.774 91.1361 251.589C91.1234 251.663 91.0851 251.73 91.0277 251.778C90.9704 251.826 90.8978 251.853 90.8228 251.853C90.7478 251.853 90.6752 251.826 90.6179 251.778C90.5606 251.73 90.5222 251.663 90.5095 251.589C90.4006 245.814 90.3552 240.042 90.3733 234.273C87.2534 226.714 85.3473 218.71 84.7256 210.556C84.7304 210.536 84.7432 210.518 84.761 210.507C84.7789 210.496 84.8005 210.492 84.8209 210.497C84.8414 210.502 84.8591 210.515 84.8702 210.533C84.8813 210.55 84.8848 210.572 84.88 210.592Z" fill="#263238"/>
<path d="M85.8605 206.516C86.3608 208.807 86.6946 211.131 86.8593 213.471C86.8593 213.553 86.7413 213.562 86.7231 213.471C86.1646 211.19 85.7732 208.871 85.5518 206.534C85.5246 206.37 85.8242 206.343 85.8605 206.516Z" fill="#263238"/>
<path d="M94.2234 187.257C94.2234 187.175 94.3596 187.202 94.3596 187.257C94.3446 188.884 94.1031 190.5 93.6423 192.06C93.6423 192.187 93.4243 192.133 93.4516 192.006C93.7603 190.435 93.9601 188.864 94.2234 187.257Z" fill="#263238"/>
<path d="M85.5337 254.022C85.5337 254.022 86.1239 226.519 78.2697 212.853C70.4155 199.188 57.2949 192.224 57.2949 192.224C57.2949 192.224 62.5341 240.693 85.5337 254.022Z" fill="#07F9A2"/>
<path d="M71.1602 230.505C74.3285 235.31 77.9008 239.836 81.8382 244.034C80.2583 238.417 78.4423 232.89 76.3902 227.454C71.9683 223.577 67.5826 219.554 64.8677 214.252C64.8623 214.234 64.8628 214.215 64.8694 214.198C64.8759 214.181 64.888 214.167 64.9037 214.157C64.9194 214.148 64.9378 214.144 64.956 214.146C64.9742 214.149 64.9911 214.157 65.0039 214.17C67.9186 218.873 71.823 222.633 75.8999 226.246C72.7351 218.058 69.0658 210.073 64.9131 202.339C64.889 202.299 64.8817 202.251 64.8928 202.206C64.9039 202.161 64.9324 202.122 64.9721 202.098C65.0119 202.074 65.0595 202.067 65.1047 202.078C65.1498 202.089 65.1887 202.117 65.2128 202.157C67.7379 206.214 70.0386 210.406 72.1045 214.715C71.3599 211.773 70.7697 208.767 70.0161 205.844C70.0161 205.762 70.1069 205.735 70.1432 205.844C71.6921 209.584 72.7777 213.499 73.3757 217.502C76.1383 223.602 78.4596 229.893 80.3219 236.325C80.1221 232.203 79.8588 228.09 79.4139 223.985C79.419 223.972 79.4283 223.96 79.4405 223.951C79.4527 223.943 79.4672 223.938 79.482 223.938C79.4968 223.938 79.5113 223.943 79.5235 223.951C79.5356 223.96 79.5449 223.972 79.5501 223.985C80.4479 228.53 80.8709 233.155 80.8122 237.787C81.9472 241.891 82.9097 246.032 83.6724 250.209C83.6724 250.327 83.5271 250.372 83.4999 250.263C83.0731 248.511 82.5919 246.767 82.1379 245.042C82.1379 245.042 82.0743 245.042 82.0471 245.042C77.8158 240.802 73.7934 235.962 71.1511 230.568C71.1057 230.496 71.142 230.478 71.1602 230.505Z" fill="#263238"/>
<path d="M62.0165 208.132C62.9245 209.04 63.7054 210.075 64.5499 211.056C65.3771 211.879 66.1391 212.765 66.8289 213.707C66.8355 213.716 66.8387 213.727 66.8379 213.737C66.8371 213.748 66.8324 213.759 66.8247 213.766C66.817 213.774 66.8067 213.779 66.7958 213.779C66.7849 213.78 66.7741 213.777 66.7654 213.771C65.7754 213.033 64.8923 212.162 64.1413 211.183C63.3118 210.261 62.5615 209.271 61.8985 208.223C61.8865 208.207 61.8811 208.187 61.8837 208.168C61.8862 208.148 61.8965 208.13 61.9121 208.118C61.9278 208.106 61.9476 208.101 61.9671 208.103C61.9867 208.106 62.0045 208.116 62.0165 208.132Z" fill="#263238"/>
<path d="M108.96 250.662L107.97 263.692L104.974 303.063H78.8509L75.8545 263.692L74.8557 250.662H108.96Z" fill="#455A64"/>
<path d="M108.96 250.662L107.97 263.692H75.8545L74.8557 250.662H108.96Z" fill="#37474F"/>
<path d="M72.5312 254.258H111.294V244.27H72.5312V254.258Z" fill="#455A64"/>
<path d="M46.0537 302.636L119.665 302.409L193.277 302.328L340.5 302.182L487.723 302.328L561.335 302.409L634.946 302.636L561.335 302.854L487.723 302.936L340.5 303.09L193.277 302.936L119.665 302.854L46.0537 302.636Z" fill="#263238"/>
<path d="M528.756 85.9695H152.244V337.831H528.756V85.9695Z" fill="#DBDBDB"/>
<path d="M526.023 89.0476H154.978V334.761H526.023V89.0476Z" fill="#37474F"/>
<path d="M577.797 356.717H103.203V374.005H577.797V356.717Z" fill="#C7C7C7"/>
<path d="M103.203 356.717L152.244 337.831H528.756L577.797 356.717H103.203Z" fill="#DBDBDB"/>
<path d="M156.621 350.025L188.265 337.831H492.735L524.379 350.025H156.621Z" fill="#263238"/>
<path d="M505.048 107.716H175.943V316.093H505.048V107.716Z" fill="white"/>
<path d="M505.048 107.716H175.943V115.734H505.048V107.716Z" fill="#263238"/>
<path d="M182.045 111.684C182.045 112.077 181.928 112.462 181.71 112.789C181.491 113.116 181.181 113.371 180.817 113.521C180.454 113.672 180.054 113.711 179.668 113.634C179.283 113.558 178.928 113.368 178.65 113.09C178.372 112.812 178.183 112.458 178.106 112.072C178.029 111.686 178.069 111.286 178.219 110.923C178.37 110.56 178.625 110.249 178.952 110.031C179.279 109.812 179.663 109.696 180.056 109.696C180.584 109.696 181.09 109.905 181.462 110.278C181.835 110.651 182.045 111.157 182.045 111.684Z" fill="#C7C7C7"/>
<path d="M190.163 111.684C190.163 112.077 190.046 112.462 189.827 112.789C189.609 113.116 189.298 113.371 188.935 113.521C188.572 113.672 188.172 113.711 187.786 113.634C187.4 113.558 187.046 113.368 186.768 113.09C186.49 112.812 186.3 112.458 186.224 112.072C186.147 111.686 186.186 111.286 186.337 110.923C186.487 110.56 186.742 110.249 187.069 110.031C187.396 109.812 187.781 109.696 188.174 109.696C188.701 109.696 189.207 109.905 189.58 110.278C189.953 110.651 190.163 111.157 190.163 111.684Z" fill="white"/>
<path d="M198.28 111.684C198.28 112.077 198.163 112.462 197.945 112.789C197.726 113.116 197.416 113.371 197.052 113.521C196.689 113.672 196.289 113.711 195.904 113.634C195.518 113.558 195.164 113.368 194.885 113.09C194.607 112.812 194.418 112.458 194.341 112.072C194.264 111.686 194.304 111.286 194.454 110.923C194.605 110.56 194.86 110.249 195.187 110.031C195.514 109.812 195.898 109.696 196.291 109.696C196.819 109.696 197.325 109.905 197.698 110.278C198.071 110.651 198.28 111.157 198.28 111.684Z" fill="#07F9A2"/>
<path d="M455.38 263.111H225.611V278.547H455.38V263.111Z" fill="#EBEBEB"/>
<path d="M353.049 266.017H228.126V275.968H353.049V266.017Z" fill="#07F9A2"/>
<path d="M301.338 241.346H303.272L301.029 251.888H307.186L306.822 253.595H298.732L301.338 241.346Z" fill="#263238"/>
<path d="M312.207 253.677C311.553 253.691 310.905 253.548 310.318 253.259C309.784 252.985 309.314 252.601 308.938 252.133C308.558 251.654 308.269 251.109 308.084 250.526C307.887 249.907 307.789 249.26 307.794 248.61C307.796 247.671 307.998 246.743 308.384 245.886C308.775 245.019 309.309 244.224 309.964 243.535C310.609 242.849 311.376 242.289 312.225 241.882C313.051 241.47 313.962 241.256 314.885 241.256C315.541 241.244 316.19 241.393 316.774 241.691C317.308 241.966 317.775 242.354 318.145 242.826C318.519 243.317 318.802 243.87 318.98 244.461C319.171 245.078 319.266 245.721 319.262 246.368C319.264 247.307 319.066 248.235 318.681 249.092C318.298 249.956 317.77 250.749 317.119 251.434C316.473 252.115 315.71 252.674 314.867 253.087C314.036 253.482 313.127 253.683 312.207 253.677ZM312.588 251.934C313.241 251.937 313.883 251.768 314.449 251.443C315.021 251.117 315.526 250.685 315.939 250.172C316.364 249.647 316.698 249.055 316.928 248.42C317.158 247.807 317.278 247.158 317.282 246.504C317.283 246.053 317.222 245.604 317.101 245.169C316.987 244.772 316.805 244.397 316.565 244.061C316.322 243.743 316.012 243.483 315.657 243.299C315.285 243.104 314.869 243.007 314.449 243.017C313.793 243.008 313.147 243.178 312.579 243.507C312.007 243.837 311.499 244.268 311.081 244.779C310.652 245.301 310.317 245.894 310.091 246.531C309.861 247.144 309.741 247.792 309.737 248.447C309.736 248.901 309.797 249.353 309.919 249.791C310.029 250.185 310.207 250.557 310.445 250.889C310.683 251.212 310.994 251.474 311.353 251.652C311.735 251.848 312.159 251.945 312.588 251.934Z" fill="#263238"/>
<path d="M325.427 241.346H327.134L329.096 253.595H327.062L326.58 250.263H322.177L320.297 253.595H318.263L325.427 241.346ZM326.508 248.828L325.818 243.571L322.821 248.828H326.508Z" fill="#263238"/>
<path d="M333.182 241.346H337.34C338.039 241.33 338.733 241.453 339.383 241.71C339.927 241.927 340.412 242.269 340.8 242.708C341.179 243.145 341.463 243.655 341.635 244.207C341.828 244.808 341.923 245.436 341.917 246.068C341.927 247.095 341.742 248.115 341.372 249.073C341.032 249.956 340.523 250.765 339.874 251.452C339.228 252.124 338.452 252.659 337.594 253.023C336.691 253.409 335.717 253.604 334.734 253.595H330.585L333.182 241.346ZM335.097 251.888C335.79 251.897 336.475 251.742 337.095 251.434C337.682 251.143 338.2 250.728 338.611 250.218C339.041 249.693 339.367 249.092 339.574 248.447C339.801 247.777 339.914 247.075 339.91 246.368C339.913 245.916 339.852 245.467 339.728 245.033C339.608 244.654 339.421 244.3 339.174 243.989C338.926 243.694 338.616 243.459 338.266 243.299C337.862 243.128 337.425 243.044 336.986 243.053H334.78L332.9 251.888H335.097Z" fill="#263238"/>
<path d="M345.122 241.365H347.074L344.468 253.595H342.516L345.122 241.365Z" fill="#263238"/>
<path d="M349.798 241.346H351.314L355.954 250.172L357.825 241.364H359.768L357.162 253.595H355.582L350.969 244.969L349.153 253.595H347.201L349.798 241.346Z" fill="#263238"/>
<path d="M368.348 252.088C367.364 253.059 366.052 253.626 364.671 253.677C364.043 253.688 363.421 253.551 362.855 253.278C362.326 253.011 361.859 252.637 361.484 252.179C361.078 251.701 360.77 251.149 360.576 250.554C360.374 249.92 360.273 249.258 360.276 248.592C360.282 247.653 360.483 246.725 360.866 245.868C361.243 244.996 361.775 244.199 362.437 243.517C363.083 242.845 363.846 242.297 364.689 241.9C365.506 241.499 366.403 241.291 367.313 241.292C368.254 241.241 369.185 241.499 369.965 242.027C370.606 242.512 371.069 243.195 371.281 243.971L369.592 245.042C369.452 244.438 369.101 243.904 368.603 243.535C368.097 243.193 367.497 243.018 366.886 243.035C366.251 243.028 365.625 243.188 365.07 243.498C364.507 243.815 364.008 244.233 363.599 244.733C363.173 245.257 362.833 245.846 362.592 246.477C362.35 247.115 362.227 247.792 362.228 248.474C362.226 248.935 362.29 249.394 362.419 249.836C362.543 250.236 362.737 250.611 362.991 250.944C363.235 251.259 363.545 251.516 363.899 251.698C364.268 251.882 364.676 251.976 365.089 251.97C365.778 251.924 366.451 251.739 367.067 251.427C367.683 251.115 368.23 250.682 368.675 250.154L368.957 248.856H366.541L366.85 247.43H370.863L369.556 253.623H367.931L368.348 252.088Z" fill="#263238"/>
<path d="M371.499 253.595L371.971 251.38H373.551L373.07 253.595H371.499Z" fill="#263238"/>
<path d="M375.158 253.595L375.622 251.38H377.211L376.729 253.595H375.158Z" fill="#263238"/>
<path d="M378.818 253.595L379.281 251.38H380.87L380.388 253.595H378.818Z" fill="#263238"/>
<path d="M340.464 197.554C341.978 197.554 343.206 196.326 343.206 194.811C343.206 193.297 341.978 192.069 340.464 192.069C338.949 192.069 337.722 193.297 337.722 194.811C337.722 196.326 338.949 197.554 340.464 197.554Z" fill="#07F9A2"/>
<path d="M329.186 201.649C330.52 201.649 331.602 200.567 331.602 199.233C331.602 197.899 330.52 196.818 329.186 196.818C327.852 196.818 326.771 197.899 326.771 199.233C326.771 200.567 327.852 201.649 329.186 201.649Z" fill="#07F9A2"/>
<path d="M324.338 208.168C324.767 208.166 325.188 208.292 325.546 208.529C325.904 208.767 326.183 209.105 326.349 209.501C326.515 209.898 326.559 210.334 326.476 210.756C326.393 211.177 326.188 211.565 325.884 211.869C325.581 212.174 325.195 212.381 324.773 212.466C324.352 212.55 323.915 212.508 323.518 212.344C323.121 212.18 322.782 211.902 322.543 211.545C322.304 211.188 322.177 210.768 322.177 210.338C322.175 210.054 322.23 209.772 322.338 209.508C322.446 209.245 322.605 209.006 322.806 208.804C323.007 208.603 323.246 208.443 323.508 208.333C323.771 208.224 324.053 208.168 324.338 208.168Z" fill="#07F9A2"/>
<path d="M327.47 220.317C327.725 220.066 328.049 219.896 328.4 219.828C328.752 219.76 329.116 219.798 329.446 219.936C329.776 220.074 330.058 220.307 330.256 220.605C330.455 220.903 330.56 221.253 330.56 221.611C330.56 221.969 330.455 222.319 330.256 222.617C330.058 222.915 329.776 223.148 329.446 223.286C329.116 223.424 328.752 223.462 328.4 223.394C328.049 223.326 327.725 223.156 327.47 222.905C327.299 222.736 327.162 222.535 327.069 222.312C326.976 222.09 326.928 221.852 326.928 221.611C326.928 221.37 326.976 221.132 327.069 220.91C327.162 220.688 327.299 220.486 327.47 220.317Z" fill="#07F9A2"/>
<path d="M339.864 227.899C340.662 227.899 341.308 227.253 341.308 226.455C341.308 225.658 340.662 225.011 339.864 225.011C339.067 225.011 338.421 225.658 338.421 226.455C338.421 227.253 339.067 227.899 339.864 227.899Z" fill="#07F9A2"/>
<path d="M350.397 222.778C350.201 222.582 350.091 222.315 350.091 222.038C350.091 221.76 350.201 221.494 350.397 221.298C350.594 221.101 350.86 220.991 351.137 220.991C351.415 220.991 351.681 221.101 351.877 221.298C351.976 221.394 352.054 221.509 352.108 221.636C352.161 221.763 352.189 221.9 352.189 222.038C352.189 222.176 352.161 222.312 352.108 222.439C352.054 222.566 351.976 222.681 351.877 222.778C351.78 222.875 351.665 222.953 351.538 223.005C351.411 223.058 351.275 223.085 351.137 223.085C351 223.085 350.864 223.058 350.737 223.005C350.61 222.953 350.494 222.875 350.397 222.778Z" fill="#07F9A2"/>
<path d="M355.981 211.7C355.831 211.7 355.683 211.655 355.558 211.572C355.432 211.488 355.335 211.369 355.277 211.229C355.219 211.09 355.204 210.937 355.233 210.789C355.263 210.641 355.335 210.505 355.442 210.398C355.549 210.291 355.685 210.219 355.833 210.189C355.981 210.16 356.134 210.175 356.273 210.233C356.413 210.29 356.532 210.388 356.616 210.514C356.699 210.639 356.744 210.787 356.744 210.937C356.744 211.14 356.664 211.334 356.521 211.477C356.378 211.62 356.184 211.7 355.981 211.7Z" fill="#07F9A2"/>
<path d="M351.95 200.042C351.874 200.119 351.777 200.172 351.671 200.194C351.565 200.216 351.455 200.205 351.355 200.165C351.255 200.124 351.169 200.054 351.109 199.964C351.048 199.874 351.016 199.768 351.016 199.66C351.016 199.552 351.048 199.446 351.109 199.356C351.169 199.267 351.255 199.197 351.355 199.156C351.455 199.115 351.565 199.105 351.671 199.127C351.777 199.149 351.874 199.202 351.95 199.279C352 199.329 352.041 199.388 352.068 199.453C352.095 199.519 352.109 199.589 352.109 199.66C352.109 199.731 352.095 199.801 352.068 199.867C352.041 199.932 352 199.992 351.95 200.042Z" fill="#07F9A2"/>
<path d="M238.472 265.732C273.159 231.046 273.159 174.807 238.472 140.121C203.785 105.434 147.547 105.434 112.861 140.121C78.1742 174.807 78.1742 231.046 112.861 265.732C147.547 300.419 203.785 300.419 238.472 265.732Z" fill="white"/>
<path d="M264.482 202.929C264.42 224.933 256.178 246.128 241.357 262.393C226.536 278.658 206.196 288.83 184.292 290.931C162.388 293.033 140.486 286.914 122.843 273.763C105.2 260.613 93.0778 241.372 88.8333 219.781C84.5887 198.19 88.5252 175.791 99.8773 156.941C111.229 138.091 129.186 124.136 150.255 117.79C171.325 111.443 194.001 113.159 213.876 122.603C233.751 132.047 249.403 148.545 257.79 168.888C262.233 179.686 264.506 191.253 264.482 202.929ZM264.482 202.929C264.503 180.922 256.339 159.694 241.577 143.373C226.815 127.052 206.511 116.804 184.613 114.623C162.714 112.442 140.788 118.483 123.096 131.571C105.405 144.66 93.2135 163.86 88.8932 185.439C84.5729 207.017 88.4324 229.431 99.7211 248.322C111.01 267.212 128.921 281.23 149.971 287.647C171.021 294.065 193.706 292.424 213.613 283.044C233.521 273.664 249.228 257.216 257.681 236.897C262.157 226.131 264.468 214.588 264.482 202.929Z" fill="#263238"/>
<path d="M240.048 202.929H174.835L220.771 156.993C226.883 162.979 231.737 170.126 235.048 178.015C238.358 185.903 240.058 194.374 240.048 202.929Z" fill="#07F9A2"/>
<path opacity="0.3" d="M240.048 202.929H174.835L220.771 156.993C226.883 162.979 231.737 170.126 235.048 178.015C238.358 185.903 240.058 194.374 240.048 202.929Z" fill="white"/>
<path d="M220.771 156.993L174.835 202.929V138.561H175.671C192.543 138.538 208.745 145.16 220.771 156.993Z" fill="#07F9A2"/>
<path opacity="0.5" d="M220.771 156.993L174.835 202.929V138.561H175.671C192.543 138.538 208.745 145.16 220.771 156.993Z" fill="white"/>
<path d="M174.835 138.561V202.929L129.735 157.819C141.624 145.679 157.844 138.752 174.835 138.561Z" fill="#07F9A2"/>
<path opacity="0.7" d="M174.835 138.561V202.929L129.735 157.819C141.624 145.679 157.844 138.752 174.835 138.561Z" fill="white"/>
<path d="M174.835 202.929H111.275C111.257 186.054 117.882 169.849 129.717 157.82L174.835 202.929Z" fill="#07F9A2"/>
<path opacity="0.8" d="M174.835 202.929H111.275C111.257 186.054 117.882 169.849 129.717 157.82L174.835 202.929Z" fill="white"/>
<path d="M174.835 202.929L129.735 248.038C117.9 236.009 111.275 219.804 111.293 202.929H174.835Z" fill="#07F9A2"/>
<path opacity="0.9" d="M174.835 202.929L129.735 248.038C117.9 236.009 111.275 219.804 111.293 202.929H174.835Z" fill="white"/>
<path d="M240.048 202.929C240.058 211.484 238.358 219.955 235.048 227.843C231.737 235.732 226.883 242.879 220.771 248.865L174.835 202.929H240.048Z" fill="#07F9A2"/>
<path d="M214.806 209.181C218.265 187.562 203.543 167.232 181.924 163.773C160.304 160.314 139.974 175.035 136.515 196.655C133.056 218.274 147.778 238.604 169.397 242.063C191.017 245.522 211.347 230.8 214.806 209.181Z" fill="white"/>
<path d="M180.855 206.752C180.449 207.446 179.909 208.052 179.266 208.535C178.623 209.018 177.89 209.368 177.11 209.564C176.33 209.76 175.518 209.798 174.723 209.677C173.928 209.556 173.165 209.277 172.479 208.857C171.793 208.438 171.198 207.885 170.728 207.233C170.258 206.58 169.923 205.84 169.742 205.056C169.562 204.273 169.539 203.461 169.676 202.668C169.813 201.876 170.107 201.119 170.541 200.441C170.804 200.014 205.181 155.758 205.181 155.758C205.181 155.758 181.11 206.334 180.855 206.752Z" fill="#263238"/>
<path d="M182.241 209.501C185.872 205.87 185.872 199.983 182.241 196.352C178.61 192.721 172.723 192.721 169.092 196.352C165.461 199.983 165.461 205.87 169.092 209.501C172.723 213.132 178.61 213.132 182.241 209.501Z" fill="#263238"/>
<path d="M133.73 168.888C137.402 163.545 142.184 159.057 147.75 155.731C153.302 152.358 159.412 150.003 165.792 148.776C172.172 147.565 178.714 147.482 185.123 148.531C191.517 149.51 197.674 151.665 203.283 154.887C200.44 153.394 197.46 152.178 194.385 151.255C191.326 150.303 188.195 149.602 185.023 149.157C181.858 148.724 178.665 148.529 175.471 148.576C172.278 148.655 169.098 149.005 165.964 149.62C159.673 150.799 153.634 153.057 148.113 156.294C145.346 157.898 142.737 159.762 140.322 161.86C137.861 163.941 135.649 166.299 133.73 168.888Z" fill="#263238"/>
<path d="M145.416 166.663C148.045 163.98 151.078 161.725 154.405 159.981C157.704 158.151 161.23 156.768 164.893 155.867C168.552 154.964 172.311 154.527 176.079 154.569C179.829 154.649 183.555 155.167 187.184 156.112C183.515 155.503 179.799 155.217 176.079 155.259C172.378 155.328 168.698 155.824 165.111 156.739C163.313 157.169 161.542 157.705 159.808 158.346C158.083 159 156.403 159.799 154.741 160.616C153.081 161.437 151.465 162.346 149.902 163.34C148.309 164.31 146.808 165.422 145.416 166.663Z" fill="#263238"/>
<path d="M201.576 163.74V162.832C211.818 162.832 452.493 162.75 454.363 162.786V163.694C452.511 163.658 204.109 163.74 201.576 163.74Z" fill="#A6A6A6"/>
<path d="M470.644 403.996C472.578 404.623 527.648 404.142 529.736 402.789C530.526 402.289 530.926 394.263 531.135 384.547C531.135 382.459 531.207 380.289 531.234 378.091L535.339 348.672L498.519 348.89L495.405 378.309L495.623 384.774C495.623 384.774 474.621 394.39 472.487 396.106C470.353 397.822 468.719 403.37 470.644 403.996Z" fill="#AD6359"/>
<path d="M470.644 403.996C472.578 404.623 527.648 404.142 529.736 402.789C530.699 402.171 531.089 390.458 531.234 378.091L495.405 378.3L495.623 384.765C495.623 384.765 474.621 394.381 472.487 396.097C470.353 397.813 468.719 403.37 470.644 403.996Z" fill="white"/>
<path d="M470.644 403.996C472.578 404.623 527.648 404.142 529.736 402.789C530.526 402.289 530.926 394.263 531.135 384.547L495.623 384.765C495.623 384.765 474.621 394.381 472.487 396.097C470.353 397.813 468.719 403.37 470.644 403.996Z" fill="#07F9A2"/>
<path d="M471.416 401.79C480.641 401.481 517.905 401.109 527.049 401.508C527.121 401.508 527.121 401.554 527.049 401.563C517.905 402.071 480.65 402.135 471.416 401.935C471.252 401.935 471.252 401.79 471.416 401.79Z" fill="#263238"/>
<path d="M476.019 394.072C477.045 394.035 478.067 394.212 479.021 394.592C479.975 394.972 480.839 395.546 481.558 396.278C482.862 397.583 483.616 399.338 483.664 401.182C483.664 401.236 483.565 401.245 483.556 401.182C483.225 399.356 482.312 397.687 480.953 396.423C479.595 395.159 477.864 394.37 476.019 394.172C476.011 394.175 476.002 394.177 475.993 394.176C475.984 394.175 475.975 394.172 475.968 394.167C475.96 394.163 475.954 394.156 475.949 394.148C475.945 394.14 475.943 394.131 475.943 394.122C475.943 394.113 475.945 394.104 475.949 394.096C475.954 394.088 475.96 394.081 475.968 394.076C475.975 394.071 475.984 394.068 475.993 394.068C476.002 394.067 476.011 394.068 476.019 394.072Z" fill="#263238"/>
<path d="M492.054 385.709C495.75 385.628 500.045 386.89 502.36 389.895C502.451 390.013 502.288 390.14 502.179 390.086C498.932 388.419 495.517 387.104 491.991 386.163C491.942 386.144 491.901 386.108 491.874 386.063C491.848 386.017 491.837 385.964 491.845 385.911C491.852 385.859 491.877 385.811 491.915 385.774C491.953 385.738 492.002 385.715 492.054 385.709Z" fill="#263238"/>
<path d="M489.212 386.808C492.908 386.726 497.203 387.997 499.518 390.994C499.609 391.112 499.446 391.239 499.337 391.184C496.092 389.516 492.676 388.204 489.149 387.271C489.094 387.255 489.047 387.221 489.016 387.173C488.985 387.125 488.972 387.068 488.98 387.012C488.987 386.956 489.015 386.904 489.058 386.866C489.101 386.829 489.156 386.808 489.212 386.808Z" fill="#263238"/>
<path d="M486.37 387.988C490.057 387.898 494.361 389.169 496.676 392.165C496.767 392.283 496.603 392.41 496.494 392.356C493.248 390.692 489.832 389.38 486.307 388.442C486.246 388.434 486.192 388.402 486.155 388.353C486.119 388.305 486.103 388.244 486.111 388.184C486.12 388.123 486.152 388.069 486.2 388.032C486.249 387.996 486.31 387.98 486.37 387.988Z" fill="#263238"/>
<path d="M483.519 389.123C487.215 389.042 491.509 390.304 493.834 393.309C493.925 393.427 493.761 393.545 493.652 393.491C490.404 391.83 486.989 390.519 483.465 389.577C483.404 389.57 483.349 389.539 483.312 389.492C483.275 389.444 483.258 389.383 483.265 389.323C483.272 389.263 483.303 389.208 483.351 389.171C483.398 389.133 483.459 389.116 483.519 389.123Z" fill="#263238"/>
<path d="M524.615 392.755C528.765 392.755 528.81 399.175 524.661 399.202C520.511 399.229 520.466 392.783 524.615 392.755Z" fill="#263238"/>
<path d="M488.313 381.296C490.329 383.857 493.38 385.446 496.031 387.244C496.093 387.278 496.162 387.297 496.233 387.3C496.303 387.303 496.373 387.289 496.438 387.26C496.502 387.231 496.559 387.187 496.603 387.132C496.648 387.078 496.679 387.013 496.694 386.944C496.709 386.946 496.724 386.944 496.737 386.939C496.751 386.934 496.764 386.926 496.774 386.915C496.785 386.905 496.793 386.892 496.798 386.878C496.803 386.865 496.805 386.85 496.803 386.835C496.509 383.445 495.321 380.193 493.362 377.41C492.2 375.812 489.83 374.323 487.968 375.885C486.107 377.446 487.133 379.807 488.313 381.296ZM488.114 378.236C488.45 374.214 492.1 377.274 492.917 378.491C493.43 379.284 493.889 380.113 494.288 380.969C495.09 382.749 495.802 384.567 496.422 386.417C495.169 385.455 493.852 384.601 492.572 383.693C491.046 382.604 487.932 380.452 488.114 378.236Z" fill="#263238"/>
<path d="M509.906 384.365C509.597 381.95 506.836 381.451 504.893 381.841C501.572 382.576 498.503 384.173 495.995 386.472C495.984 386.481 495.974 386.493 495.968 386.507C495.962 386.52 495.958 386.534 495.958 386.549C495.958 386.564 495.962 386.579 495.968 386.592C495.974 386.605 495.984 386.617 495.995 386.626C495.959 386.687 495.938 386.756 495.933 386.826C495.928 386.897 495.94 386.968 495.967 387.033C495.994 387.098 496.036 387.156 496.09 387.202C496.144 387.248 496.208 387.281 496.276 387.298C499.445 387.761 502.769 388.642 505.983 388.125C507.872 387.816 510.205 386.645 509.906 384.365ZM501.216 387.017C499.654 386.826 498.111 386.563 496.54 386.427C498.283 385.519 499.972 384.565 501.797 383.839C502.684 383.476 503.594 383.173 504.521 382.931C505.947 382.586 510.705 382.795 508.226 385.991C506.846 387.761 503.096 387.244 501.216 387.017Z" fill="#263238"/>
<path d="M587.757 212.227C587.757 212.227 545.899 285.484 544.8 290.56C543.138 298.432 534.812 376.039 534.812 376.039L493.616 375.785C493.616 375.785 500.444 307.367 507.427 284.767C511.24 272.436 531.289 238.986 540.696 222.487C541.531 221.007 541.286 214.261 541.286 214.261L587.757 212.227Z" fill="#263238"/>
<path d="M497.584 368.948C503.94 368.82 523.317 368.294 531.825 368.948C531.888 368.948 531.888 369.056 531.825 369.066C528.91 369.52 503.976 369.22 497.584 369.066C497.57 369.049 497.562 369.028 497.562 369.007C497.562 368.985 497.57 368.964 497.584 368.948Z" fill="#455A64"/>
<path d="M580.548 218.991C577.824 223.413 574.891 227.754 572.085 232.148C569.28 236.543 566.474 240.938 563.705 245.36C558.184 254.204 552.79 263.12 547.524 272.109C544.966 276.254 542.787 280.621 541.014 285.157C539.398 289.709 538.201 294.399 537.436 299.168C536.619 303.953 536.111 308.774 535.62 313.605C535.106 318.744 534.594 323.89 534.086 329.041C533.045 339.556 532.003 350.067 530.962 360.576C530.835 361.865 530.708 363.155 530.59 364.453C530.59 364.635 530.917 364.671 530.935 364.453C532.115 354.002 533.078 343.569 534.131 333.063C534.664 327.858 535.193 322.652 535.72 317.446C536.21 312.597 536.673 307.748 537.364 302.918C537.999 298.168 538.989 293.473 540.324 288.871C541.807 284.1 543.814 279.508 546.307 275.178C551.356 266.226 556.704 257.418 562.052 248.638C567.4 239.857 572.894 230.941 578.541 222.233C579.24 221.162 579.94 220.09 580.666 219.037C580.739 218.982 580.593 218.901 580.548 218.991Z" fill="#455A64"/>
<path d="M571.196 406.984C573.22 406.838 625.331 384.974 626.765 382.949C626.823 382.827 626.848 382.693 626.838 382.558C626.838 380.742 623.106 374.495 619.973 366.269C619.774 365.742 618.393 363.3 616.478 360.013C611.202 350.987 601.886 335.497 601.886 335.497L567.827 349.58L584.516 373.905L587.14 379.807C587.14 379.807 571.277 396.605 569.952 399.002C568.626 401.399 569.171 407.129 571.196 406.984Z" fill="#AD6359"/>
<path d="M571.196 406.984C573.22 406.838 625.331 384.974 626.765 382.949C626.823 382.827 626.848 382.693 626.838 382.558C626.838 380.742 623.106 374.495 619.973 366.269C619.774 365.742 618.393 363.3 616.478 360.013L584.516 373.878L587.14 379.78C587.14 379.78 571.277 396.578 569.952 398.975C568.626 401.372 569.171 407.129 571.196 406.984Z" fill="white"/>
<path d="M571.196 406.984C573.22 406.838 625.331 384.974 626.765 382.949C627.31 382.177 624.877 375.058 619.973 366.269L587.14 379.78C587.14 379.78 571.277 396.578 569.943 398.975C568.608 401.372 569.171 407.129 571.196 406.984Z" fill="#07F9A2"/>
<path d="M571.132 404.65C579.567 400.9 613.963 386.581 622.598 383.512C622.661 383.512 622.679 383.512 622.598 383.566C614.317 387.462 579.804 401.509 571.168 404.786C570.96 404.859 570.905 404.723 571.132 404.65Z" fill="#263238"/>
<path d="M572.458 395.788C573.397 395.372 574.413 395.158 575.44 395.158C576.468 395.158 577.484 395.372 578.423 395.788C580.125 396.506 581.485 397.852 582.219 399.547C582.219 399.602 582.146 399.638 582.119 399.593C581.124 398.029 579.649 396.83 577.916 396.175C576.182 395.52 574.283 395.445 572.503 395.961C572.48 395.967 572.456 395.963 572.435 395.951C572.415 395.939 572.4 395.92 572.394 395.897C572.388 395.874 572.391 395.85 572.403 395.829C572.415 395.809 572.435 395.794 572.458 395.788Z" fill="#263238"/>
<path d="M584.18 382.005C587.576 380.543 592.034 380.098 595.312 382.005C595.439 382.077 595.312 382.259 595.212 382.25C591.584 381.924 587.931 381.988 584.316 382.44C584.264 382.443 584.213 382.428 584.17 382.398C584.127 382.368 584.096 382.325 584.08 382.275C584.065 382.225 584.066 382.172 584.084 382.123C584.102 382.074 584.136 382.032 584.18 382.005Z" fill="#263238"/>
<path d="M581.974 384.084C585.369 382.622 589.828 382.186 593.106 384.084C593.233 384.166 593.106 384.338 592.997 384.329C589.368 384.007 585.716 384.071 582.101 384.52C582.049 384.52 581.999 384.504 581.958 384.473C581.917 384.442 581.887 384.399 581.873 384.35C581.858 384.301 581.86 384.248 581.879 384.2C581.897 384.152 581.93 384.111 581.974 384.084Z" fill="#263238"/>
<path d="M579.767 386.245C583.163 384.783 587.612 384.347 590.899 386.245C591.026 386.318 590.899 386.499 590.79 386.49C587.162 386.164 583.509 386.228 579.894 386.681C579.843 386.681 579.793 386.665 579.752 386.634C579.711 386.603 579.681 386.56 579.666 386.511C579.652 386.462 579.654 386.409 579.672 386.361C579.69 386.313 579.724 386.272 579.767 386.245Z" fill="#263238"/>
<path d="M577.561 388.361C580.948 386.899 585.406 386.463 588.684 388.361C588.811 388.433 588.684 388.606 588.584 388.597C584.955 388.275 581.303 388.339 577.688 388.787C577.636 388.792 577.583 388.779 577.54 388.749C577.496 388.72 577.464 388.676 577.449 388.626C577.434 388.576 577.437 388.522 577.457 388.473C577.478 388.425 577.514 388.385 577.561 388.361Z" fill="#263238"/>
<path d="M617.013 376.321C620.845 374.741 623.306 380.697 619.465 382.277C615.624 383.857 613.173 377.901 617.013 376.321Z" fill="#263238"/>
<path d="M579.059 379.317C581.892 380.924 585.315 381.26 588.448 381.932C588.765 382.005 588.974 381.678 588.947 381.405C589.001 381.405 589.047 381.333 589.011 381.26C587.464 378.234 585.146 375.669 582.291 373.824C580.602 372.77 577.851 372.28 576.716 374.423C575.581 376.566 577.415 378.373 579.059 379.317ZM577.733 376.593C576.535 372.734 581.066 374.196 582.273 375.022C583.049 375.576 583.787 376.183 584.48 376.838C585.932 378.155 587.204 379.653 588.493 381.097C586.977 380.67 585.442 380.379 583.953 380.016C582.092 379.544 578.396 378.681 577.733 376.557V376.593Z" fill="#263238"/>
<path d="M600.188 374.096C598.998 371.98 596.256 372.552 594.604 373.642C591.801 375.571 589.554 378.201 588.084 381.269C588.079 381.283 588.076 381.298 588.077 381.312C588.077 381.327 588.081 381.341 588.088 381.354C588.095 381.367 588.105 381.379 588.117 381.388C588.129 381.396 588.142 381.402 588.157 381.405C588.157 381.687 588.348 382.005 588.674 381.923C591.78 381.169 595.194 380.743 597.981 379.054C599.643 378.019 601.35 376.057 600.188 374.096ZM593.151 379.816C591.625 380.225 590.1 380.552 588.611 381.024C589.837 379.503 591.14 378.045 592.515 376.657C593.191 376.004 593.91 375.397 594.667 374.841C595.857 373.996 600.342 372.407 599.207 376.293C598.662 378.355 594.994 379.281 593.187 379.771L593.151 379.816Z" fill="#263238"/>
<path d="M581.856 372.534L619.992 356.59C619.992 356.59 571.622 287.327 571.205 282.134C570.842 277.53 591.181 237.197 591.889 225.511C592.624 212.899 586.441 203.21 579.694 197.245L541.259 214.288C541.259 214.288 544.618 221.143 551.247 224.775C551.247 224.775 531.552 271.347 532.878 285.611C534.204 299.876 581.856 372.534 581.856 372.534Z" fill="#263238"/>
<path d="M580.067 365.27C585.578 362.819 583.962 363.454 589.501 361.057C592.225 359.886 610.022 352.222 612.746 351.578C612.755 351.583 612.763 351.591 612.768 351.601C612.774 351.61 612.776 351.621 612.776 351.632C612.776 351.643 612.774 351.654 612.768 351.663C612.763 351.673 612.755 351.681 612.746 351.686C610.385 353.176 592.434 360.53 589.701 361.674C584.116 363.954 585.696 363.236 580.085 365.461C580.072 365.462 580.06 365.461 580.048 365.457C580.036 365.453 580.024 365.447 580.015 365.439C580.005 365.431 579.997 365.421 579.991 365.41C579.985 365.399 579.982 365.387 579.98 365.375C579.979 365.362 579.98 365.349 579.984 365.337C579.988 365.325 579.994 365.314 580.002 365.304C580.01 365.295 580.02 365.287 580.031 365.281C580.042 365.275 580.054 365.271 580.067 365.27Z" fill="#455A64"/>
<path d="M544.718 224.022C548.845 224.928 552.888 226.183 556.804 227.772C556.836 227.783 556.863 227.806 556.878 227.837C556.894 227.867 556.896 227.903 556.885 227.935C556.875 227.968 556.851 227.995 556.821 228.01C556.79 228.025 556.755 228.028 556.722 228.017C552.663 226.882 548.55 225.838 544.564 224.485C544.246 224.385 544.4 223.958 544.718 224.022Z" fill="#455A64"/>
<path d="M549.385 222.333C549.779 223.012 550.127 223.715 550.43 224.439C550.718 224.991 550.9 225.591 550.965 226.21C550.965 226.328 550.811 226.355 550.729 226.283C550.306 225.786 549.966 225.225 549.721 224.621C549.376 223.976 549.013 223.332 548.686 222.678C548.647 222.586 548.645 222.483 548.679 222.389C548.714 222.296 548.783 222.219 548.873 222.175C548.962 222.131 549.065 222.122 549.16 222.152C549.256 222.181 549.336 222.246 549.385 222.333Z" fill="#455A64"/>
<path d="M548.859 218.628C548.605 218.02 548.359 217.412 548.096 216.812C547.833 216.213 547.506 215.586 547.288 214.942C547.288 214.842 547.088 214.942 547.134 215.014C547.379 215.623 547.542 216.267 547.751 216.894C547.96 217.52 548.16 218.138 548.378 218.764C548.788 219.929 549.258 221.071 549.785 222.188C549.134 222.233 548.482 222.127 547.878 221.879C547.27 221.504 546.794 220.948 546.516 220.29C546.162 219.609 545.835 218.919 545.463 218.247C545.022 217.523 544.648 216.76 544.346 215.968C544.346 215.868 544.146 215.968 544.192 216.04C544.745 217.726 545.469 219.351 546.353 220.889C546.725 221.488 547.025 222.115 547.706 222.342C548.44 222.534 549.206 222.577 549.958 222.469C550.048 222.469 550.175 222.469 550.139 222.315C549.767 221.08 549.34 219.818 548.859 218.628Z" fill="#455A64"/>
<path d="M550.638 226.301C549.267 229.297 548.069 232.285 546.789 235.263C545.508 238.241 544.382 241.128 543.247 244.089C540.968 250.072 538.925 256.165 537.146 262.321C536.274 265.348 535.472 268.414 534.739 271.519C534.013 274.615 532.342 281.08 532.342 284.231C532.342 289.634 540.224 303.599 541.667 306.495C542.575 308.311 542.839 308.03 542.412 307.131C541.195 304.598 533.768 288.481 533.414 284.431C533.141 281.298 534.703 276.595 535.375 273.535C536.047 270.475 536.837 267.315 537.69 264.237C539.37 258.163 541.386 252.215 543.456 246.268C544.618 242.935 545.871 239.639 547.088 236.28C548.305 232.92 549.513 229.924 550.829 226.292C550.82 226.264 550.675 226.21 550.638 226.301Z" fill="#455A64"/>
<path d="M579.604 216.104C578.914 215.859 577.969 216.295 577.27 216.422C576.37 216.584 575.46 216.687 574.546 216.73C573.638 216.765 572.728 216.744 571.822 216.667C570.921 216.657 570.035 216.436 569.234 216.022C567.916 215.092 566.786 213.921 565.902 212.572C564.838 211.199 563.956 209.694 563.278 208.095C563.278 208.005 563.105 208.095 563.142 208.168C563.441 209.076 563.659 209.984 564.05 210.892C564.418 211.73 564.852 212.538 565.348 213.307C566.164 214.85 567.354 216.164 568.808 217.13C570.406 218.038 572.44 217.938 574.256 217.82C575.279 217.744 576.295 217.596 577.297 217.375C578.024 217.212 579.241 217.075 579.695 216.467C579.719 216.439 579.736 216.406 579.745 216.371C579.754 216.335 579.754 216.297 579.745 216.262C579.736 216.226 579.718 216.193 579.694 216.165C579.669 216.138 579.638 216.117 579.604 216.104Z" fill="#455A64"/>
<path d="M608.95 349.426C602.54 339.976 596.238 330.445 590.046 320.833C583.853 311.22 577.751 301.535 571.74 291.777C570.306 289.443 568.644 287.11 567.709 284.513C566.683 281.698 567.209 278.947 568.072 276.168C569.691 271.083 571.594 266.093 573.774 261.223C575.917 256.328 578.242 251.507 580.521 246.695C582.916 241.937 585.038 237.047 586.877 232.048C588.639 227.337 588.936 222.204 587.73 217.321C586.386 212.408 583.562 208.023 580.621 203.928C579.84 202.856 579.05 201.785 578.269 200.704C578.214 200.623 578.087 200.704 578.151 200.804C581.392 205.072 584.507 209.585 586.486 214.615C587.469 217.096 588.036 219.722 588.166 222.387C588.215 225.093 587.826 227.788 587.013 230.369C585.524 235.399 583.136 240.175 580.92 244.897C578.705 249.618 576.308 254.549 574.119 259.425C571.883 264.321 569.904 269.331 568.19 274.434C567.445 276.713 566.61 279.092 566.692 281.525C566.783 284.186 568.081 286.565 569.416 288.789C575.263 298.496 581.329 308.075 587.476 317.591C593.623 327.107 599.916 336.659 606.299 346.039C607.098 347.249 607.903 348.436 608.714 349.598C608.841 349.743 609.05 349.58 608.95 349.426Z" fill="#455A64"/>
<path d="M542.312 168.888C534.14 183.961 522.527 200.931 513.529 201.576C505.402 202.139 491.809 196.291 477.009 190.044C474.076 188.8 484.927 166.436 487.905 168.089C493.816 171.312 506.582 180.193 510.478 180.465C512.139 180.583 526.649 167.299 536.528 159.899C548.541 150.891 545.563 162.886 542.312 168.888Z" fill="#AD6359"/>
<path d="M466.639 189.309C471.552 190.798 479.27 192.414 482.33 191.86C485.199 191.325 490.593 169.769 488.077 168.143C480.259 163.095 467.729 161.787 462.862 163.776C457.995 165.764 461.546 187.756 466.639 189.309Z" fill="#AD6359"/>
<path d="M590.99 308.348C586.214 308.348 581.52 306.187 577.007 301.928C567.609 293.039 563.841 249.155 561.571 222.932C560.835 214.361 560.2 206.951 559.755 206.225C557.439 204.672 456.906 164.066 454.354 163.694L454.4 162.786C456.216 162.786 558.157 203.982 560.336 205.544C560.99 206.007 561.326 209.239 562.497 222.859C564.595 247.239 568.49 292.612 577.642 301.274C582.182 305.542 586.831 307.63 591.571 307.431C597.174 307.213 602.958 303.853 608.769 297.443L609.441 298.051C603.457 304.652 597.455 308.112 591.608 308.339L590.99 308.348Z" fill="#A6A6A6"/>
<path d="M470.952 162.296C472.768 164.321 469.336 165.301 469.336 165.301C469.336 165.301 474.612 165.074 475.692 167.889C476.773 170.704 472.532 171.648 472.233 171.721C472.514 171.721 477.363 171.63 478.144 174.572C478.925 177.514 474.575 177.95 474.294 177.968C474.557 178.041 478.062 179.076 478.153 181.446C478.298 185.504 469.254 183.107 466.485 184.878C466.485 184.878 466.975 189.263 467.012 189.418C467.012 189.418 460.347 187.974 458.159 184.097C457.835 183.538 457.712 182.885 457.809 182.246C457.907 181.607 458.219 181.021 458.694 180.583C458.694 180.583 455.825 180.211 455.144 177.913C454.79 176.733 456.361 175.126 456.361 175.126C455.725 175.002 455.134 174.706 454.654 174.271C454.174 173.836 453.822 173.277 453.637 172.656C453.246 171.004 454.881 169.651 454.881 169.651C454.881 169.651 452.865 168.252 453.019 166.427C453.265 162.759 467.048 157.992 470.952 162.296Z" fill="#AD6359"/>
<path d="M456.279 175.135C456.225 175.135 456.188 175.071 456.234 175.035C461.009 171.989 466.715 170.749 472.323 171.539C472.523 171.539 472.668 171.803 472.432 171.775C468.61 171.421 460.583 173.21 456.279 175.135Z" fill="#263238"/>
<path d="M474.657 178.168C469.209 177.45 463.997 178.558 458.849 180.465C458.785 180.465 458.758 180.392 458.849 180.356C461.119 178.74 464.524 177.868 467.23 177.414C469.736 176.944 472.322 177.138 474.73 177.977C474.775 178.013 474.775 178.186 474.657 178.168Z" fill="#263238"/>
<path d="M469.336 165.301C470.352 165.351 471.361 165.494 472.351 165.728C473.321 165.914 474.224 166.356 474.966 167.008C475.291 167.326 475.485 167.753 475.51 168.207C475.536 168.662 475.442 169.116 475.238 169.524C475.001 169.915 474.685 170.252 474.309 170.513C473.934 170.774 473.508 170.954 473.059 171.04L470.889 171.548L473.104 171.83C474.092 171.941 475.056 172.214 475.955 172.638C476.375 172.815 476.754 173.078 477.066 173.409C477.379 173.741 477.619 174.134 477.771 174.563C477.921 174.966 477.922 175.409 477.776 175.813C477.63 176.217 477.345 176.556 476.972 176.769C476.144 177.249 475.206 177.508 474.248 177.523L471.615 177.659L474.139 178.395C474.844 178.611 475.518 178.917 476.146 179.303C476.76 179.612 477.268 180.095 477.608 180.692C477.743 180.974 477.797 181.289 477.764 181.6C477.73 181.911 477.61 182.207 477.417 182.453C476.909 182.92 476.28 183.235 475.601 183.361C474.106 183.673 472.587 183.864 471.061 183.934C470.289 183.997 469.518 184.061 468.746 184.17C467.967 184.225 467.209 184.445 466.521 184.814C467.234 184.528 467.996 184.38 468.764 184.378C469.536 184.378 470.308 184.378 471.079 184.324C472.646 184.357 474.211 184.242 475.756 183.979C476.594 183.852 477.377 183.483 478.007 182.917C478.317 182.57 478.519 182.141 478.589 181.681C478.658 181.221 478.592 180.751 478.398 180.329C478.014 179.564 477.41 178.931 476.664 178.513C475.972 178.085 475.227 177.749 474.448 177.514L474.33 178.422C475.468 178.404 476.582 178.091 477.563 177.514C478.097 177.185 478.501 176.681 478.707 176.088C478.89 175.497 478.89 174.864 478.707 174.272C478.512 173.722 478.203 173.22 477.799 172.798C477.395 172.377 476.906 172.047 476.364 171.83C475.369 171.382 474.308 171.097 473.222 170.985V171.775C473.768 171.651 474.28 171.409 474.724 171.067C475.168 170.726 475.532 170.292 475.792 169.796C476.023 169.278 476.114 168.708 476.055 168.143C475.987 167.572 475.716 167.044 475.293 166.654C474.455 165.992 473.448 165.577 472.387 165.456C471.379 165.292 470.356 165.241 469.336 165.301Z" fill="#263238"/>
<path d="M486.062 166.981C486.062 166.981 467.665 152.126 465.377 161.333C464.696 164.057 465.159 176.116 467.575 176.061C470.707 176.007 471.452 170.94 471.415 167.689C471.415 167.689 476.409 173.264 481.331 170.94C483.209 170.029 484.834 168.669 486.062 166.981Z" fill="#AD6359"/>
<path d="M465.613 160.58C465.218 161.619 464.98 162.712 464.905 163.821C464.795 164.928 464.761 166.042 464.805 167.154C464.852 169.387 465.098 171.611 465.541 173.8C465.656 174.383 465.854 174.945 466.131 175.471C466.294 175.773 466.52 176.036 466.794 176.243C466.942 176.355 467.108 176.44 467.284 176.497C467.463 176.552 467.651 176.576 467.838 176.57C468.515 176.556 469.162 176.29 469.654 175.825C470.09 175.395 470.447 174.891 470.707 174.336C471.196 173.291 471.504 172.17 471.615 171.022C471.748 169.907 471.8 168.784 471.77 167.662L471.089 167.916C471.684 168.529 472.335 169.085 473.032 169.578C473.723 170.072 474.462 170.495 475.238 170.84C476.015 171.179 476.838 171.399 477.681 171.494C478.514 171.593 479.359 171.532 480.169 171.312C479.353 171.422 478.524 171.394 477.717 171.231C476.927 171.055 476.163 170.774 475.447 170.395C474.723 170.028 474.041 169.584 473.413 169.07C472.783 168.572 472.203 168.016 471.679 167.408L471.034 166.654V167.662C471.023 168.744 470.938 169.824 470.78 170.895C470.641 171.945 470.335 172.966 469.872 173.918C469.418 174.826 468.664 175.616 467.811 175.616C466.957 175.616 466.621 174.563 466.367 173.564C466.113 172.565 465.931 171.439 465.768 170.359C465.604 169.278 465.459 168.189 465.368 167.099C465.112 164.926 465.194 162.727 465.613 160.58Z" fill="#263238"/>
<path d="M528.402 192.659L515.381 176.315C515.381 176.315 528.601 163.603 536.937 158.464C545.272 153.325 548.868 156.367 543.71 167.49C538.553 178.613 528.402 192.659 528.402 192.659Z" fill="#07F9A2"/>
<path d="M518.532 174.717C520.529 176.715 522.354 178.912 524.161 181.073C525.968 183.234 527.693 185.432 529.319 187.72C529.319 187.765 529.319 187.82 529.246 187.783C527.348 185.677 525.523 183.507 523.716 181.328C521.909 179.148 520.084 177.024 518.45 174.772C518.414 174.735 518.468 174.672 518.532 174.717Z" fill="#263238"/>
<path opacity="0.1" d="M521.719 184.324L528.402 192.705C528.402 192.705 538.553 178.667 543.71 167.535C545.526 163.703 546.217 160.843 546.08 158.936L521.719 184.324Z" fill="black"/>
<path d="M540.678 216.858L584.362 200.977C584.362 200.977 565.775 166.854 552.128 157.701C545.917 153.543 541.232 155.486 537.908 159.862C537.082 160.961 528.647 183.044 530.099 188.764C531.988 196.173 536.991 197.681 536.991 197.681L540.678 216.858Z" fill="#07F9A2"/>
<path d="M549.73 156.358L537.472 160.716L537.681 160.253L549.231 156.176L549.73 156.358ZM553.154 158.428L535.902 164.575C535.847 164.72 535.793 164.875 535.729 165.029L553.471 158.673L553.154 158.428ZM556.214 161.016L534.422 168.797L534.258 169.251L556.522 161.297L556.214 161.016ZM558.938 163.74L532.996 172.974L532.86 173.419L559.192 164.03L558.938 163.74ZM561.435 166.536L531.797 177.06C531.797 177.205 531.716 177.35 531.679 177.496L561.643 166.79L561.435 166.536ZM563.786 169.387L530.79 181.191C530.79 181.337 530.726 181.482 530.708 181.618L564.022 169.723L563.786 169.387ZM566.02 172.275L530.09 185.096C530.09 185.232 530.09 185.359 530.09 185.495L566.301 172.574L566.02 172.275ZM568.172 175.18L530.118 188.8C530.118 188.918 530.181 189.036 530.208 189.145L568.39 175.525L568.172 175.18ZM570.242 178.122L531.289 192.024C531.352 192.133 531.407 192.251 531.461 192.36L570.505 178.44L570.242 178.122ZM572.267 181.091L533.223 195.011L533.486 195.302L572.43 181.4L572.267 181.091ZM574.228 184.07L536.564 197.517C536.709 197.585 536.857 197.642 537.009 197.69V197.744L574.428 184.387C574.346 184.324 574.274 184.17 574.21 184.061L574.228 184.07ZM576.126 187.048L537.59 200.795L537.663 201.158L576.326 187.366L576.126 187.048ZM577.996 190.062L538.253 204.3L538.326 204.663L578.196 190.444L577.996 190.062ZM579.812 193.086L538.898 207.687L538.971 208.059L580.03 193.404C579.958 193.322 579.894 193.213 579.831 193.104L579.812 193.086ZM581.628 196.128L539.579 211.137L539.652 211.5L581.81 196.455C581.746 196.364 581.683 196.255 581.628 196.128ZM583.381 199.188L540.242 214.624L540.314 214.996L583.562 199.56C583.494 199.447 583.433 199.328 583.381 199.206V199.188Z" fill="white"/>
<path d="M551.501 191.969C549.344 192.376 547.219 192.94 545.145 193.658C544.119 194.031 543.12 194.448 542.13 194.884C541.631 195.102 541.132 195.311 540.632 195.501C540.109 195.729 539.56 195.891 538.998 195.983C538.998 195.983 538.998 196.064 538.998 196.055C539.534 196.031 540.068 195.971 540.596 195.874C541.104 195.76 541.604 195.615 542.094 195.438C543.129 195.066 544.155 194.657 545.19 194.276C547.279 193.513 549.367 192.759 551.546 192.151C551.646 192.124 551.601 191.951 551.501 191.969Z" fill="#263238"/>
<path d="M557.049 193.404C555.229 193.388 553.41 193.479 551.601 193.676C550.693 193.767 549.785 193.921 548.931 194.094C548.505 194.176 548.087 194.266 547.669 194.366C547.252 194.466 546.761 194.639 546.289 194.739C546.244 194.739 546.289 194.82 546.289 194.811C546.734 194.73 547.197 194.73 547.633 194.675L548.968 194.503C549.876 194.394 550.784 194.294 551.692 194.176C553.508 193.94 555.26 193.722 557.058 193.549C557.158 193.504 557.14 193.404 557.049 193.404Z" fill="#263238"/>
<path d="M558.266 160.062C580.221 169.669 606.744 197.699 600.751 203.91C595.303 209.575 572.984 215.868 563.405 217.457C560.59 217.929 557.385 195.946 560.399 195.438C564.031 194.83 572.993 192.487 573.329 192.314C574.038 191.96 556.077 172.111 550.021 164.648C541.568 154.251 550.03 156.448 558.266 160.062Z" fill="#AD6359"/>
<path d="M532.133 201.994C532.038 202.681 532.156 203.381 532.471 204C532.786 204.618 533.283 205.126 533.895 205.453C533.11 206.33 532.657 207.455 532.615 208.631C532.615 210.71 535.911 211.582 535.911 211.582C535.285 212.662 535 213.906 535.093 215.151C535.311 217.139 538.489 218.492 538.489 218.492C538.452 219.815 538.898 221.106 539.742 222.124C542.094 224.73 547.361 223.795 550.711 223.232C554.062 222.669 563.051 217.947 564.858 217.221L561.453 195.665C561.453 195.665 545.699 193.894 541.849 195.111C538.607 196.128 532.587 199.379 532.133 201.994Z" fill="#AD6359"/>
<path d="M533.995 205.081C537.173 203.165 540.759 202.293 544.283 201.222C544.355 201.222 544.391 201.322 544.283 201.34C540.759 202.366 537.5 204.064 534.022 205.244C534.005 205.24 533.99 205.231 533.978 205.218C533.966 205.205 533.958 205.189 533.956 205.171C533.953 205.154 533.955 205.136 533.962 205.12C533.969 205.104 533.98 205.09 533.995 205.081Z" fill="#263238"/>
<path d="M535.929 211.292C536.696 210.924 537.508 210.659 538.344 210.502C539.252 210.284 540.088 210.084 540.968 209.893C542.73 209.512 544.491 209.176 546.271 208.885C546.344 208.885 546.389 208.994 546.271 209.012C544.519 209.394 542.766 209.802 541.032 210.256L538.435 210.956C537.635 211.236 536.807 211.428 535.965 211.528C535.94 211.523 535.916 211.51 535.898 211.491C535.88 211.472 535.868 211.448 535.865 211.422C535.861 211.397 535.865 211.37 535.876 211.347C535.888 211.323 535.906 211.304 535.929 211.292Z" fill="#263238"/>
<path d="M538.562 218.474C539.257 218.149 540.004 217.949 540.769 217.884L543.175 217.402C544.782 217.066 546.389 216.74 547.978 216.349C548.06 216.349 548.096 216.458 547.978 216.476C546.362 216.876 544.755 217.293 543.129 217.684L540.741 218.238C540.03 218.473 539.283 218.58 538.535 218.556L538.562 218.474Z" fill="#263238"/>
<path d="M582.691 173.219L566.592 186.558C566.592 186.558 553.59 173.6 548.305 165.374C543.02 157.147 545.971 153.488 557.194 158.419C568.417 163.349 582.691 173.219 582.691 173.219Z" fill="#07F9A2"/>
<path d="M564.776 182.808C566.737 180.774 568.898 178.903 571.032 177.051C573.166 175.199 575.318 173.419 577.57 171.757C577.57 171.757 577.67 171.757 577.633 171.83C575.572 173.773 573.438 175.643 571.277 177.487C569.116 179.33 567.055 181.182 564.831 182.889C564.776 182.926 564.776 182.853 564.776 182.808Z" fill="#263238"/>
<path d="M552.736 171.421C553.971 172.62 555.151 173.855 556.368 175.053C557.585 176.252 558.71 177.55 559.873 178.803L563.314 182.608L566.71 186.449H566.592C567.001 186.149 567.409 185.849 567.827 185.541C567.464 185.895 567.091 186.24 566.719 186.585L566.655 186.639L566.583 186.576C565.293 185.441 564.104 184.215 562.896 182.998C561.689 181.782 560.526 180.519 559.382 179.248C557.049 176.751 554.788 174.145 552.736 171.421Z" fill="#263238"/>
<path d="M558.42 177.795C556.835 176.889 555.408 175.73 554.198 174.363C554.999 174.802 555.756 175.315 556.459 175.898C557.167 176.471 557.824 177.106 558.42 177.795Z" fill="#263238"/>
<path d="M541.804 128.028C543.157 125.068 548.232 118.812 554.743 121.726C564.041 125.894 561.217 144.98 564.731 151.927C571.087 164.511 569.044 175.071 561.462 175.117C552.972 175.18 547.07 164.748 551.592 146.061C554.416 134.393 552.282 128.455 549.867 128.273C547.451 128.092 545.517 130.761 545.517 130.761L541.804 128.028Z" fill="#263238"/>
<path d="M542.394 126.957C543.204 125.635 544.171 124.415 545.272 123.325C546.387 122.181 547.73 121.284 549.213 120.691C550.744 120.092 552.424 119.991 554.016 120.401C555.593 120.808 557.047 121.59 558.257 122.68C559.437 123.789 560.366 125.139 560.981 126.639C561.572 128.099 561.995 129.622 562.243 131.179C562.68 134.273 562.768 137.408 562.506 140.522C562.437 137.428 562.134 134.344 561.598 131.297C561.292 129.806 560.839 128.349 560.245 126.947C559.665 125.573 558.802 124.335 557.712 123.315C556.607 122.314 555.282 121.586 553.844 121.191C552.414 120.791 550.896 120.838 549.494 121.327C548.062 121.833 546.742 122.613 545.608 123.624C545.021 124.124 544.463 124.657 543.937 125.222C543.393 125.773 542.878 126.351 542.394 126.957Z" fill="#263238"/>
<path d="M552.972 139.641C552.654 141.521 552.128 143.364 551.674 145.207C551.22 147.051 550.757 148.912 550.339 150.728C549.921 152.544 549.558 154.442 549.331 156.312C549.077 158.171 549.004 160.05 549.113 161.924C549.201 163.774 549.635 165.591 550.393 167.281C551.22 168.947 552.333 170.456 553.68 171.739C555.026 173.037 556.659 173.998 558.447 174.545C559.331 174.818 560.247 174.974 561.171 175.008C561.644 175.029 562.118 175.014 562.588 174.962C563.06 174.931 563.525 174.83 563.968 174.663C563.087 175.05 562.134 175.248 561.171 175.244C560.204 175.277 559.236 175.183 558.293 174.962C557.346 174.725 556.432 174.374 555.569 173.918C554.707 173.457 553.903 172.896 553.172 172.248C552.44 171.604 551.774 170.889 551.183 170.114L550.748 169.524L550.339 168.924C550.063 168.516 549.817 168.088 549.603 167.644C548.774 165.863 548.297 163.94 548.196 161.978C548.074 158.125 548.558 154.276 549.631 150.574C550.112 148.758 550.675 146.896 551.256 145.08C551.837 143.264 552.5 141.475 552.972 139.641Z" fill="#263238"/>
<path d="M541.232 128.028C541.322 127.12 542.14 126.076 542.703 125.994C543.266 125.912 547.315 128.282 547.542 129.417C547.769 130.552 545.726 131.279 545.726 131.279L541.232 128.028Z" fill="#07F9A2"/>
<path d="M546.262 159.808C546.189 160.716 542.848 167.072 538.789 167.517C537.463 167.653 536.401 160.462 536.401 160.462L536.201 159.953L533.405 152.771L541.286 145.843L542.43 144.935C542.43 144.935 543.066 146.951 543.828 149.475L543.937 149.838C543.991 149.972 544.036 150.108 544.074 150.247L544.428 151.382C544.509 151.672 544.591 151.963 544.673 152.29C544.755 152.617 544.836 152.898 544.927 153.198C545.523 155.368 545.969 157.577 546.262 159.808Z" fill="#AD6359"/>
<path d="M543.828 149.475C543.397 151.676 542.492 153.758 541.175 155.574C539.857 157.389 538.16 158.896 536.201 159.99L533.405 152.807L541.286 145.879L542.43 144.971C542.43 144.971 543.066 146.96 543.828 149.475Z" fill="#263238"/>
<path d="M522.1 140.867C520.502 154.296 528.365 156.766 531.262 157.102C533.895 157.411 542.884 158.128 545.853 144.944C548.822 131.76 543.084 126.784 537.109 125.74C531.135 124.696 523.644 127.438 522.1 140.867Z" fill="#AD6359"/>
<path d="M524.297 140.277C524.615 140.34 524.915 140.35 525.205 140.386C525.526 140.478 525.868 140.459 526.177 140.331C526.266 140.274 526.334 140.188 526.368 140.088C526.403 139.987 526.403 139.878 526.368 139.777C526.271 139.588 526.126 139.428 525.948 139.313C525.769 139.198 525.563 139.133 525.351 139.124C524.922 139.042 524.479 139.123 524.107 139.351C524.025 139.409 523.963 139.49 523.926 139.583C523.89 139.676 523.881 139.778 523.901 139.876C523.921 139.974 523.97 140.064 524.04 140.135C524.11 140.206 524.2 140.255 524.297 140.277Z" fill="#263238"/>
<path d="M533.232 139.759C532.925 139.7 532.621 139.621 532.324 139.523C531.983 139.491 531.663 139.343 531.416 139.106C531.354 139.021 531.321 138.92 531.321 138.815C531.321 138.71 531.354 138.609 531.416 138.524C531.576 138.384 531.771 138.29 531.98 138.25C532.189 138.21 532.405 138.226 532.606 138.297C533.032 138.386 533.412 138.624 533.677 138.969C533.729 139.047 533.759 139.138 533.762 139.232C533.766 139.326 533.743 139.419 533.697 139.501C533.651 139.583 533.583 139.65 533.501 139.696C533.419 139.741 533.326 139.763 533.232 139.759Z" fill="#263238"/>
<path d="M531.271 143.083C531.271 143.083 531.343 143.083 531.334 143.164C531.243 144.072 531.334 145.153 532.097 145.516C532.097 145.516 532.097 145.571 532.097 145.561C531.08 145.353 531.035 143.936 531.271 143.083Z" fill="#263238"/>
<path d="M532.161 142.184C533.641 142.184 533.55 145.144 532.161 145.153C530.772 145.162 530.917 142.184 532.161 142.184Z" fill="#263238"/>
<path d="M532.742 142.356C532.987 142.538 533.232 142.837 533.55 142.883C533.868 142.928 534.195 142.629 534.458 142.338C534.458 142.901 534.213 143.482 533.595 143.546C532.978 143.609 532.687 143.092 532.533 142.51C532.542 142.438 532.633 142.283 532.742 142.356Z" fill="#263238"/>
<path d="M526.095 142.556C526.095 142.556 526.023 142.601 526.023 142.638C526.023 143.546 525.886 144.617 525.042 144.899V144.953C526.068 144.817 526.25 143.409 526.095 142.556Z" fill="#263238"/>
<path d="M525.296 141.557C523.825 141.412 523.635 144.372 524.997 144.508C526.359 144.644 526.54 141.648 525.296 141.557Z" fill="#263238"/>
<path d="M524.67 141.711C524.425 141.857 524.17 142.129 523.889 142.129C523.607 142.129 523.344 141.793 523.162 141.466C523.162 141.466 523.162 141.466 523.108 141.466C523.062 142.029 523.208 142.629 523.744 142.774C524.279 142.919 524.651 142.447 524.806 141.866C524.824 141.82 524.77 141.648 524.67 141.711Z" fill="#263238"/>
<path d="M531.18 150.192C530.962 150.41 530.753 150.71 530.417 150.737C530.075 150.737 529.738 150.663 529.428 150.519C529.364 150.519 529.428 150.519 529.428 150.519C529.562 150.7 529.742 150.841 529.95 150.928C530.158 151.014 530.385 151.042 530.608 151.009C530.794 150.956 530.96 150.849 531.086 150.702C531.212 150.556 531.292 150.375 531.316 150.183C531.271 150.174 531.18 150.156 531.18 150.192Z" fill="#263238"/>
<path d="M527.466 146.696C527.466 146.696 527.221 148.058 527.185 148.712C527.185 148.767 527.339 148.803 527.557 148.83C528.109 148.955 528.684 148.926 529.22 148.746C529.756 148.567 530.233 148.244 530.599 147.813C530.605 147.8 530.608 147.786 530.606 147.771C530.604 147.757 530.597 147.743 530.587 147.733C530.578 147.722 530.565 147.714 530.551 147.711C530.537 147.707 530.522 147.708 530.508 147.713C529.658 148.246 528.656 148.485 527.657 148.394C527.657 148.213 528.166 146.079 528.066 146.061C527.559 146.083 527.058 146.174 526.577 146.333C527.021 143.473 527.911 140.704 528.311 137.852C528.305 137.834 528.293 137.819 528.278 137.807C528.262 137.796 528.244 137.79 528.225 137.79C528.205 137.79 528.187 137.796 528.171 137.807C528.156 137.819 528.144 137.834 528.138 137.852C527.088 140.797 526.334 143.839 525.886 146.932C525.85 147.223 527.203 146.796 527.466 146.696Z" fill="#263238"/>
<path d="M527.657 148.585C528.012 149.128 528.5 149.571 529.073 149.874C529.394 150.021 529.751 150.072 530.1 150.02C530.862 149.883 530.926 149.202 530.835 148.603C530.784 148.291 530.695 147.986 530.572 147.695C529.72 148.294 528.698 148.606 527.657 148.585Z" fill="#263238"/>
<path d="M529.073 149.874C529.394 150.021 529.751 150.072 530.1 150.02C530.862 149.883 530.926 149.202 530.835 148.603C530.441 148.586 530.053 148.702 529.734 148.933C529.414 149.164 529.181 149.495 529.073 149.874Z" fill="#FF99BA"/>
<path d="M544.564 145.516C541.241 145.289 540.632 135.047 540.569 133.794C540.569 134.584 540.569 138.788 540.215 138.942C539.859 138.928 539.509 138.851 539.18 138.715C539.191 138.212 539.167 137.708 539.107 137.208C539.107 136.972 538.998 137.707 538.844 138.615L538.235 138.416C538.307 137.343 538.236 136.265 538.026 135.21C537.945 134.82 537.781 136.6 537.345 138.143C534.543 137.221 531.647 136.612 528.71 136.327C527.884 136.264 527.167 136.254 526.531 136.264C526.531 135.02 526.758 133.703 526.658 133.984C526.384 134.726 526.183 135.492 526.059 136.273H525.151C525.151 134.52 526.059 131.733 525.759 132.168C524.892 133.461 524.276 134.906 523.943 136.427C522.745 136.618 522.409 136.836 522.382 136.527C522.863 133.088 524.549 129.932 527.14 127.619C531.416 123.86 539.733 123.161 544.192 129.336C544.192 129.336 547.951 131.978 548.414 136.037C548.877 140.095 546.48 145.643 544.564 145.516Z" fill="#263238"/>
<path d="M542.693 145.371C542.693 145.371 545.781 141.248 547.66 142.356C549.54 143.464 547.134 149.511 544.854 150.283C544.57 150.401 544.264 150.46 543.955 150.457C543.647 150.454 543.343 150.388 543.06 150.265C542.778 150.141 542.523 149.961 542.312 149.736C542.101 149.512 541.937 149.247 541.831 148.957L542.693 145.371Z" fill="#AD6359"/>
<path d="M546.925 144.072C546.925 144.072 546.925 144.118 546.925 144.136C546.191 144.472 545.536 144.958 545.003 145.564C544.47 146.169 544.069 146.88 543.828 147.65C543.925 147.495 544.054 147.364 544.207 147.264C544.36 147.164 544.532 147.099 544.712 147.072C544.893 147.045 545.077 147.058 545.252 147.109C545.427 147.16 545.589 147.249 545.726 147.368C545.726 147.368 545.726 147.459 545.726 147.45C545.452 147.351 545.154 147.341 544.873 147.421C544.593 147.5 544.345 147.666 544.164 147.895C543.861 148.275 543.6 148.686 543.383 149.121C543.302 149.257 543.057 149.175 543.111 149.012C543.111 146.969 544.8 144.208 546.925 144.072Z" fill="#263238"/>
</svg>
