<svg width="608" height="542" viewBox="0 0 608 542" fill="none" xmlns="http://www.w3.org/2000/svg">
<g filter="url(#filter0_d_969_16699)">
<path d="M588.156 425.604C446.422 328.255 588.156 120.187 588.156 47.1988C588.156 -25.7894 444.699 234.161 403.682 94.7407C362.666 -44.6793 96.9685 334.535 22.1294 425.604C-130.047 610.782 729.891 522.954 588.156 425.604Z" fill="#07F9A2"/>
</g>
<path d="M176.93 388.54H141.77V399.73H176.93V388.54Z" fill="#EBEBEB"/>
<path d="M380.61 209.779H345.45V220.969H380.61V209.779Z" fill="#EBEBEB"/>
<path d="M157.32 413.84L139.86 414.13L131.03 414.25H122.16H121.71V413.79V402.6V402.1H122.21L139.79 402.17L148.58 402.25L157.37 402.36H157.61V402.6L157.32 413.84ZM157.32 413.84L157.08 402.65L157.32 402.89L148.53 403L139.74 403.08L122.16 403.15L122.66 402.65V413.84L122.2 413.38L130.91 413.43L139.66 413.55L157.32 413.84Z" fill="#EBEBEB"/>
<path d="M344.5 317.73L327 318L318.17 318.12H309.3H308.85V317.66V306.47V306H309.35L326.93 306.07L335.72 306.15L344.51 306.26H344.75V306.5L344.5 317.73ZM344.5 317.73L344.26 306.54L344.5 306.78L335.71 306.88L326.92 306.97L309.34 307.04L309.84 306.54V317.73L309.38 317.27H318.09L326.84 317.4L344.5 317.73Z" fill="#EBEBEB"/>
<path d="M324.89 331.84L307.43 332.13L298.6 332.25H289.73H289.28V331.79L289.23 320.6V320.1H289.73L307.31 320.17L316.1 320.25L324.89 320.36H325.13V320.6L324.89 331.84ZM324.89 331.84L324.65 320.65L324.89 320.89L316.1 320.99L307.31 321.08L289.73 321.15L290.23 320.65V331.84L289.77 331.38H298.48L307.23 331.51L324.89 331.84Z" fill="#EBEBEB"/>
<path d="M305.36 306.54H270.2V317.73H305.36V306.54Z" fill="#EBEBEB"/>
<path d="M525.84 402.649H490.68V413.839H525.84V402.649Z" fill="#EBEBEB"/>
<path d="M506.23 44.9297H471.07V56.1197H506.23V44.9297Z" fill="#EBEBEB"/>
<path d="M525.84 70.23L508.38 70.53L499.55 70.65H490.68H490.23V70.19L490.18 59V58.5H490.68L508.26 58.57L517.05 58.66L525.84 58.77H526.08V59L525.84 70.23ZM525.84 70.23L525.6 59L525.84 59.24L517.05 59.35L508.26 59.43L490.68 59.5L491.18 59V70.19L490.72 69.74H499.43L508.18 69.86L525.84 70.23Z" fill="#EBEBEB"/>
<path d="M176.93 56.1196L159.47 56.4196L150.64 56.5396H141.77H141.32V56.0797V44.8896V44.3896H141.82L159.4 44.4596L168.19 44.5496L176.98 44.6596H177.22V44.8896L176.93 56.1196ZM176.93 56.1196L176.69 44.9296L176.93 45.1696L168.14 45.2796L159.35 45.3596L141.77 45.4296L142.27 44.9296V56.1196L141.81 55.6696H150.52L159.27 55.7896L176.93 56.1196Z" fill="#EBEBEB"/>
<path d="M126.55 432.67H372.29L377.4 331.84H121.44L126.55 432.67Z" fill="#EBEBEB"/>
<path d="M360.64 378H257.91L256 343H362.89L360.64 378ZM259.08 376.76H359.48L361.57 344.24H257.29L259.08 376.76Z" fill="#DBDBDB"/>
<path d="M358.74 418.26H261.93L260.36 386.67H360.72L358.74 418.26ZM263.11 417H357.58L359.4 387.89H261.66L263.11 417Z" fill="#DBDBDB"/>
<path d="M319.17 364.29H301.9L300.81 355.84H320.25L319.17 364.29ZM303 363.05H318.09L318.85 357.05H302.22L303 363.05Z" fill="#DBDBDB"/>
<path d="M319.17 406.689H301.9L300.81 398.239H320.25L319.17 406.689ZM303 405.449H318.09L318.85 399.449H302.22L303 405.449Z" fill="#DBDBDB"/>
<path d="M239.8 378H137.06L135.14 343H242.05L239.8 378ZM138.24 376.75H238.64L240.72 344.23H136.45L138.24 376.75Z" fill="#DBDBDB"/>
<path d="M237.9 418.26H141.09L139.52 386.67H239.88L237.9 418.26ZM142.27 417H236.74L238.56 387.89H140.82L142.27 417Z" fill="#DBDBDB"/>
<path d="M198.32 364.29H181.06L180 355.84H199.44L198.32 364.29ZM182.15 363.05H197.23L198 357.05H181.38L182.15 363.05Z" fill="#DBDBDB"/>
<path d="M198.32 406.689H181.06L180 398.239H199.44L198.32 406.689ZM182.15 405.449H197.23L198 399.449H181.38L182.15 405.449Z" fill="#DBDBDB"/>
<path d="M148.59 432.67L147.05 443.65L143.94 465.72H137.88V432.67H148.59Z" fill="#EBEBEB"/>
<path d="M148.59 432.67L147.05 443.65H137.88V432.67H148.59Z" fill="#DBDBDB"/>
<path d="M350.25 432.67L351.79 443.65L354.9 465.72H360.96V432.67H350.25Z" fill="#EBEBEB"/>
<path d="M350.25 432.67L351.79 443.65H360.96V432.67H350.25Z" fill="#DBDBDB"/>
<path d="M121.44 465.72L172.08 465.48L222.72 465.39L324 465.22L425.28 465.39L475.92 465.48L526.56 465.72L475.92 465.97L425.28 466.06L324 466.22L222.72 466.06L172.08 465.97L121.44 465.72Z" fill="#263238"/>
<path d="M508.13 62.21H139.86V295.19H508.13V62.21Z" fill="white"/>
<path d="M508.14 295.19L139.86 295.34H139.71V295.19L139.62 62.19V62H139.86L508.14 62.15H508.23V62.25L508.14 295.19ZM508.14 295.19L508.04 62.19L508.14 62.29L139.86 62.44L140.11 62.19L140.02 295.19L139.86 295.04L508.14 295.19Z" fill="#263238"/>
<path d="M508.13 62.21H139.86V71.18H508.13V62.21Z" fill="#263238"/>
<path d="M148.51 66.6897C148.512 67.0481 148.408 67.399 148.21 67.6979C148.012 67.9969 147.73 68.2305 147.4 68.369C147.069 68.5075 146.705 68.5448 146.353 68.4761C146.001 68.4074 145.678 68.2358 145.424 67.9831C145.17 67.7303 144.996 67.4078 144.926 67.0565C144.855 66.7051 144.89 66.3406 145.027 66.0093C145.164 65.678 145.396 65.3947 145.694 65.1954C145.991 64.9961 146.342 64.8897 146.7 64.8896C147.178 64.8896 147.637 65.079 147.976 65.4162C148.316 65.7535 148.507 66.2113 148.51 66.6897Z" fill="#521F14"/>
<path d="M155.89 66.6897C155.892 67.0481 155.788 67.399 155.59 67.6979C155.392 67.9969 155.11 68.2305 154.78 68.369C154.449 68.5075 154.085 68.5448 153.733 68.4761C153.381 68.4074 153.058 68.2358 152.804 67.9831C152.55 67.7303 152.376 67.4078 152.306 67.0565C152.235 66.7051 152.27 66.3406 152.407 66.0093C152.544 65.678 152.776 65.3947 153.073 65.1954C153.371 64.9961 153.722 64.8897 154.08 64.8896C154.558 64.8896 155.017 65.079 155.356 65.4162C155.695 65.7535 155.887 66.2113 155.89 66.6897Z" fill="white"/>
<path d="M163.26 66.6897C163.262 67.0481 163.158 67.399 162.96 67.6979C162.762 67.9969 162.48 68.2305 162.15 68.369C161.819 68.5075 161.455 68.5448 161.103 68.4761C160.751 68.4074 160.428 68.2358 160.174 67.9831C159.92 67.7303 159.746 67.4078 159.676 67.0565C159.605 66.7051 159.64 66.3406 159.777 66.0093C159.914 65.678 160.146 65.3947 160.444 65.1954C160.741 64.9961 161.092 64.8897 161.45 64.8896C161.928 64.8896 162.387 65.079 162.726 65.4162C163.066 65.7535 163.257 66.2113 163.26 66.6897Z" fill="#455A64"/>
<path d="M174.18 107.52H166.89V108.69H174.18V107.52Z" fill="#EBEBEB"/>
<path d="M174.18 112.77H166.89V113.94H174.18V112.77Z" fill="#EBEBEB"/>
<path d="M174.18 110.17H166.89V111.34H174.18V110.17Z" fill="#EBEBEB"/>
<path d="M302.12 110.17H258.62V112.77H302.12V110.17Z" fill="#EBEBEB"/>
<path d="M361.78 110.17H318.28V112.77H361.78V110.17Z" fill="#EBEBEB"/>
<path d="M421.45 110.17H377.95V112.77H421.45V110.17Z" fill="#142C52"/>
<path d="M481.11 110.17H437.61V112.77H481.11V110.17Z" fill="#EBEBEB"/>
<path d="M508.13 71.1797H139.86V92.4397H508.13V71.1797Z" fill="#142C52"/>
<path d="M481.02 77.2695H378.04V86.3295H481.02V77.2695Z" fill="white"/>
<path d="M481.11 86.4297H378V77.1797H481.11V86.4297Z" fill="white"/>
<path d="M481.1 77.1797H471.85V86.4297H481.1V77.1797Z" fill="#455A64"/>
<path d="M479.35 84.3502L478.52 84.9802L476.97 82.9802L476.4 82.2402C476.514 82.1904 476.622 82.1266 476.72 82.0502C476.912 81.9068 477.061 81.713 477.15 81.4902L477.76 82.2902L479.35 84.3502Z" fill="white"/>
<path d="M477.71 79.5297C477.446 79.1808 477.087 78.915 476.676 78.7639C476.265 78.6127 475.819 78.5825 475.392 78.6768C474.964 78.7712 474.573 78.9861 474.264 79.2961C473.954 79.6061 473.741 79.9982 473.648 80.426C473.554 80.8538 473.586 81.2994 473.738 81.7098C473.891 82.1203 474.157 82.4785 474.507 82.7419C474.857 83.0054 475.275 83.1631 475.711 83.1964C476.148 83.2297 476.585 83.1371 476.97 82.9297C477.081 82.8762 477.186 82.809 477.28 82.7297C477.464 82.5921 477.626 82.4268 477.76 82.2397C478.04 81.8409 478.186 81.3636 478.177 80.8766C478.168 80.3895 478.004 79.9179 477.71 79.5297ZM476.71 81.9997C476.612 82.0761 476.504 82.1399 476.39 82.1897C476.153 82.2849 475.894 82.312 475.643 82.268C475.391 82.2239 475.157 82.1104 474.967 81.9403C474.776 81.7701 474.637 81.5502 474.565 81.3052C474.493 81.0602 474.491 80.8 474.559 80.5538C474.627 80.3077 474.762 80.0854 474.95 79.9121C475.137 79.7389 475.37 79.6215 475.62 79.5732C475.871 79.525 476.13 79.5477 476.369 79.639C476.607 79.7303 476.816 79.8864 476.97 80.0897C477.117 80.2786 477.211 80.5037 477.241 80.7413C477.271 80.9789 477.236 81.2202 477.14 81.4397C477.054 81.6613 476.909 81.855 476.72 81.9997H476.71Z" fill="white"/>
<path d="M380.42 79.0596H379.93V84.5596H380.42V79.0596Z" fill="#C7C7C7"/>
<path d="M206.02 144.46H166.89V149.63H206.02V144.46Z" fill="#37474F"/>
<path d="M200.45 152.45H166.89V154.86H200.45V152.45Z" fill="#455A64"/>
<path d="M178.27 171.98L189.65 171.79L201.03 171.69L223.78 171.6L246.54 171.69L257.91 171.79L269.29 171.98L257.91 172.16L246.54 172.26L223.78 172.35L201.03 172.26L189.65 172.16L178.27 171.98Z" fill="#C7C7C7"/>
<path d="M178.27 178.1L189.65 177.92L201.03 177.82L223.78 177.73L246.54 177.81L257.91 177.92L269.29 178.1L257.91 178.29L246.54 178.39L223.78 178.48L201.03 178.39L189.65 178.28L178.27 178.1Z" fill="#C7C7C7"/>
<path d="M178.27 184.23L189.65 184.05L201.03 183.94L223.78 183.85L246.54 183.94L257.91 184.05L269.29 184.23L257.91 184.41L246.54 184.52L223.78 184.6L201.03 184.52L189.65 184.41L178.27 184.23Z" fill="#C7C7C7"/>
<path d="M178.27 190.36L189.65 190.17L201.03 190.07L223.78 189.98L246.54 190.07L257.91 190.17L269.29 190.36L257.91 190.54L246.54 190.65L223.78 190.73L201.03 190.64L189.65 190.54L178.27 190.36Z" fill="#C7C7C7"/>
<path d="M178.27 202.61L189.65 202.43L201.03 202.32L223.78 202.24L246.54 202.32L257.91 202.43L269.29 202.61L257.91 202.79L246.54 202.9L223.78 202.98L201.03 202.9L189.65 202.79L178.27 202.61Z" fill="#C7C7C7"/>
<path d="M178.27 208.74L189.65 208.55L201.03 208.45L223.78 208.36L246.54 208.45L257.91 208.55L269.29 208.74L257.91 208.92L246.54 209.03L223.78 209.11L201.03 209.02L189.65 208.92L178.27 208.74Z" fill="#C7C7C7"/>
<path d="M178.27 214.86L186.4 214.68L194.54 214.58L210.8 214.49L227.07 214.57L235.2 214.68L243.34 214.86L235.2 215.05L227.07 215.15L210.8 215.24L194.54 215.15L186.4 215.05L178.27 214.86Z" fill="#C7C7C7"/>
<path d="M166.89 250.49C170.59 250.34 174.28 250.26 177.98 250.2C181.68 250.14 185.37 250.2 189.07 250.12L200.16 250.2C203.86 250.26 207.55 250.33 211.25 250.49C207.55 250.65 203.86 250.72 200.16 250.78L189.07 250.86C185.37 250.86 181.68 250.86 177.98 250.78C174.28 250.7 170.59 250.64 166.89 250.49Z" fill="#C7C7C7"/>
<path d="M166.89 254.31C169.89 254.16 172.83 254.09 175.8 254.03C178.77 253.97 181.74 253.97 184.71 253.94C187.68 253.91 190.65 253.94 193.62 254.03C196.59 254.12 199.56 254.16 202.53 254.31C199.53 254.47 196.59 254.54 193.62 254.6C190.65 254.66 187.68 254.66 184.71 254.69C181.74 254.72 178.77 254.69 175.8 254.6C172.83 254.51 169.86 254.47 166.89 254.31Z" fill="#C7C7C7"/>
<path d="M175.56 236.31V242.52C175.517 242.81 175.39 243.081 175.194 243.3C174.999 243.518 174.744 243.675 174.46 243.75H174.28H172.57C172.57 243.75 172.57 243.69 172.57 243.66V240.5H173.93C173.99 240.5 174.01 240.5 174.01 240.42V239H172.58C172.58 238.77 172.58 238.55 172.58 238.32C172.581 238.277 172.591 238.235 172.609 238.196C172.627 238.157 172.653 238.122 172.684 238.093C172.716 238.064 172.753 238.042 172.794 238.027C172.834 238.013 172.877 238.007 172.92 238.01H174V236.54H172.89C172.58 236.535 172.278 236.633 172.03 236.82C171.818 236.969 171.64 237.161 171.507 237.383C171.375 237.605 171.291 237.853 171.26 238.11C171.245 238.38 171.245 238.65 171.26 238.92V239H170.26V240.41C170.26 240.47 170.26 240.47 170.33 240.47H171.33V243.81H168.16C167.961 243.781 167.77 243.709 167.6 243.6C167.291 243.402 167.061 243.101 166.95 242.75L166.89 242.5V236.29C166.922 236.09 166.99 235.896 167.09 235.72C167.285 235.409 167.582 235.176 167.93 235.06L168.17 235H174.28C174.573 235.05 174.844 235.185 175.061 235.387C175.277 235.59 175.43 235.852 175.5 236.14L175.56 236.31Z" fill="#142C52"/>
<path d="M190.41 235H184.41C184.234 235.001 184.061 235.037 183.899 235.106C183.738 235.175 183.592 235.275 183.469 235.4C183.346 235.526 183.25 235.674 183.184 235.837C183.119 236 183.087 236.175 183.09 236.35V242.5C183.087 242.675 183.119 242.85 183.184 243.013C183.25 243.176 183.346 243.324 183.469 243.45C183.592 243.575 183.738 243.675 183.899 243.744C184.061 243.813 184.234 243.849 184.41 243.85H190.41C190.586 243.849 190.76 243.813 190.922 243.744C191.084 243.676 191.231 243.576 191.355 243.45C191.478 243.325 191.576 243.177 191.642 243.014C191.708 242.85 191.741 242.676 191.74 242.5V236.35C191.741 236.174 191.708 236 191.642 235.836C191.576 235.673 191.478 235.525 191.355 235.4C191.231 235.274 191.084 235.174 190.922 235.106C190.76 235.037 190.586 235.001 190.41 235ZM190.82 237.24C190.82 237.24 190.82 237.29 190.82 237.32C190.659 237.546 190.467 237.748 190.25 237.92C190.227 237.934 190.208 237.955 190.197 237.98C190.187 238.005 190.184 238.033 190.19 238.06C190.204 238.758 190.035 239.448 189.7 240.06C189.458 240.57 189.105 241.019 188.667 241.375C188.23 241.732 187.718 241.986 187.17 242.12C186.39 242.322 185.568 242.283 184.81 242.01H184.7L184.3 241.81L184.01 241.64C184.73 241.68 185.438 241.452 186 241C185.899 240.988 185.798 240.968 185.7 240.94C185.475 240.894 185.266 240.792 185.091 240.644C184.916 240.495 184.781 240.305 184.7 240.09C184.694 240.076 184.69 240.061 184.69 240.045C184.69 240.029 184.694 240.014 184.7 240C184.7 240 184.7 240 184.78 240C184.949 240.03 185.121 240.03 185.29 240C185.229 239.96 185.161 239.929 185.09 239.91C184.838 239.811 184.619 239.643 184.458 239.426C184.297 239.208 184.201 238.95 184.18 238.68C184.18 238.56 184.18 238.56 184.29 238.6C184.455 238.681 184.636 238.725 184.82 238.73C184.686 238.631 184.569 238.514 184.47 238.38C184.31 238.163 184.214 237.907 184.191 237.638C184.168 237.37 184.219 237.101 184.34 236.86C184.34 236.81 184.34 236.78 184.44 236.86C185.031 237.59 185.865 238.083 186.79 238.25L187.2 238.31C187.28 238.31 187.31 238.31 187.3 238.21C187.266 238.023 187.27 237.83 187.311 237.644C187.353 237.458 187.432 237.282 187.543 237.128C187.654 236.973 187.795 236.842 187.958 236.742C188.12 236.643 188.301 236.578 188.49 236.55C188.703 236.514 188.921 236.529 189.127 236.595C189.332 236.661 189.518 236.776 189.67 236.93C189.683 236.952 189.702 236.969 189.726 236.978C189.75 236.987 189.776 236.988 189.8 236.98C190.027 236.921 190.248 236.841 190.46 236.74C190.513 236.712 190.56 236.675 190.6 236.63C190.581 236.8 190.511 236.96 190.4 237.09C190.296 237.216 190.179 237.33 190.05 237.43C190.304 237.397 190.552 237.334 190.79 237.24H190.82Z" fill="#142C52"/>
<path d="M207.89 239.31V237.18C207.905 237.01 207.905 236.839 207.89 236.67C207.856 236.326 207.727 235.999 207.516 235.725C207.306 235.451 207.023 235.241 206.7 235.12C206.358 235.012 205.998 234.968 205.64 234.99H201.58C201.36 234.975 201.14 234.975 200.92 234.99C200.588 235.028 200.273 235.16 200.011 235.368C199.75 235.577 199.552 235.854 199.44 236.17C199.328 236.491 199.277 236.83 199.29 237.17V241.49C199.295 241.724 199.315 241.958 199.35 242.19C199.394 242.479 199.509 242.753 199.683 242.989C199.857 243.224 200.086 243.413 200.35 243.54C200.69 243.699 201.065 243.771 201.44 243.75H205.74C205.958 243.753 206.175 243.737 206.39 243.7C206.707 243.645 207.004 243.507 207.25 243.3C207.496 243.092 207.683 242.823 207.79 242.52C207.9 242.198 207.948 241.859 207.93 241.52C207.93 240.76 207.93 240.01 207.93 239.26L207.89 239.31ZM206.77 240.61C206.78 241.076 206.626 241.531 206.336 241.897C206.046 242.262 205.637 242.514 205.18 242.61C205.04 242.62 204.9 242.62 204.76 242.61H202.38C202.113 242.61 201.849 242.556 201.603 242.453C201.357 242.349 201.134 242.197 200.948 242.006C200.761 241.815 200.615 241.589 200.518 241.34C200.42 241.092 200.373 240.827 200.38 240.56C200.38 239.74 200.38 238.93 200.38 238.11C200.366 237.654 200.508 237.208 200.783 236.844C201.058 236.48 201.448 236.221 201.89 236.11C202.061 236.07 202.235 236.05 202.41 236.05H203.58C204.04 236.05 204.5 236.05 204.95 236.05C205.379 236.086 205.784 236.259 206.107 236.543C206.429 236.828 206.651 237.209 206.74 237.63C206.755 237.786 206.755 237.943 206.74 238.1C206.78 239 206.78 239.8 206.77 240.61Z" fill="#142C52"/>
<path d="M204.61 239.41C204.597 239.604 204.527 239.79 204.409 239.945C204.291 240.1 204.131 240.217 203.947 240.282C203.764 240.347 203.565 240.358 203.376 240.311C203.187 240.265 203.015 240.165 202.882 240.023C202.749 239.88 202.661 239.702 202.627 239.511C202.594 239.319 202.618 239.121 202.695 238.943C202.772 238.764 202.9 238.612 203.063 238.505C203.225 238.398 203.416 238.34 203.61 238.34C203.884 238.353 204.141 238.472 204.328 238.672C204.514 238.872 204.616 239.136 204.61 239.41Z" fill="#142C52"/>
<path d="M204.79 236.7H202.36C202.169 236.699 201.98 236.736 201.803 236.809C201.626 236.882 201.466 236.99 201.332 237.126C201.198 237.262 201.092 237.424 201.021 237.601C200.951 237.779 200.916 237.969 200.92 238.16V240.65C200.916 240.841 200.95 241.03 201.02 241.207C201.09 241.384 201.195 241.545 201.328 241.681C201.462 241.817 201.621 241.925 201.796 241.999C201.971 242.072 202.16 242.11 202.35 242.11H204.79C204.981 242.11 205.17 242.072 205.346 241.999C205.522 241.925 205.682 241.817 205.816 241.681C205.95 241.546 206.055 241.384 206.126 241.207C206.198 241.03 206.233 240.841 206.23 240.65V238.16C206.233 237.969 206.198 237.78 206.126 237.603C206.055 237.426 205.95 237.265 205.816 237.129C205.682 236.993 205.522 236.885 205.346 236.812C205.17 236.738 204.981 236.7 204.79 236.7ZM203.57 241C203.247 241.006 202.929 240.916 202.657 240.74C202.385 240.565 202.171 240.312 202.043 240.015C201.915 239.718 201.879 239.389 201.938 239.071C201.997 238.753 202.15 238.46 202.377 238.229C202.604 237.998 202.894 237.839 203.211 237.774C203.528 237.709 203.857 237.739 204.157 237.862C204.456 237.984 204.713 238.193 204.893 238.462C205.074 238.73 205.17 239.047 205.17 239.37C205.173 239.798 205.006 240.21 204.706 240.515C204.407 240.821 203.998 240.995 203.57 241ZM205.32 238C205.268 238 205.217 237.99 205.169 237.97C205.121 237.949 205.077 237.92 205.041 237.882C205.005 237.845 204.976 237.801 204.957 237.753C204.938 237.704 204.929 237.652 204.93 237.6C204.93 237.497 204.971 237.398 205.044 237.324C205.118 237.251 205.217 237.21 205.32 237.21C205.424 237.21 205.523 237.251 205.596 237.324C205.669 237.398 205.71 237.497 205.71 237.6C205.712 237.652 205.702 237.704 205.683 237.753C205.664 237.801 205.636 237.845 205.6 237.882C205.563 237.92 205.52 237.949 205.472 237.97C205.424 237.99 205.372 238 205.32 238Z" fill="#142C52"/>
<path d="M508.13 92.4404H501.59V295.19H508.13V92.4404Z" fill="#DBDBDB"/>
<path d="M504.86 170.25C504.412 170.25 503.982 170.071 503.665 169.755C503.348 169.438 503.17 169.008 503.17 168.56V95.4595C503.17 95.0113 503.348 94.5815 503.665 94.2645C503.982 93.9476 504.412 93.7695 504.86 93.7695C505.308 93.7695 505.738 93.9476 506.055 94.2645C506.372 94.5815 506.55 95.0113 506.55 95.4595V168.56C506.55 169.008 506.372 169.438 506.055 169.755C505.738 170.071 505.308 170.25 504.86 170.25Z" fill="#A6A6A6"/>
<path d="M501.59 266.41H139.86V295.19H501.59V266.41Z" fill="#142C52"/>
<path d="M205.74 274.18L220.69 274L235.64 273.9L265.54 273.82L295.44 273.9L310.39 274L325.34 274.18L310.39 274.35L295.44 274.45L265.54 274.53L235.64 274.45L220.69 274.35L205.74 274.18Z" fill="white"/>
<path d="M205.74 278.59L220.69 278.42L235.64 278.32L265.54 278.24L295.44 278.32L310.39 278.42L325.34 278.59L310.39 278.77L295.44 278.87L265.54 278.95L235.64 278.87L220.69 278.77L205.74 278.59Z" fill="white"/>
<path d="M205.74 283.01L220.69 282.84L235.64 282.74L265.54 282.65L295.44 282.74L310.39 282.84L325.34 283.01L310.39 283.19L295.44 283.29L265.54 283.37L235.64 283.29L220.69 283.19L205.74 283.01Z" fill="white"/>
<path d="M205.74 287.43C210.74 287.28 215.74 287.21 220.69 287.16L235.64 287.07L250.64 287.15C255.64 287.21 260.64 287.28 265.59 287.43C260.59 287.58 255.59 287.65 250.64 287.7L235.64 287.79L220.69 287.7C215.71 287.65 210.72 287.58 205.74 287.43Z" fill="white"/>
<path d="M166.67 285.18V276.42L162.41 280.49L166.67 285.18Z" fill="white"/>
<path d="M475.01 276.42V285.18L479.27 281.12L475.01 276.42Z" fill="white"/>
<path d="M504.44 463.7C501.3 464.91 410.01 466.57 406.44 464.53C406.05 464.3 406.16 460.27 404.82 449.85C404.75 449.35 402.67 447.42 399.42 444.69C387.21 434.46 358.52 412.89 358.52 412.89L404.08 373.31L448.22 416.7L459.71 428C459.71 428 497 448.14 500.71 450.8C504.42 453.46 507.59 462.49 504.44 463.7Z" fill="#AD6359"/>
<path d="M504.44 463.7C501.3 464.92 410.01 466.57 406.44 464.53C406.06 464.3 406.17 460.27 404.82 449.85C404.75 449.35 402.67 447.42 399.41 444.69C395.17 441.13 393.15 439.51 386.84 434.59L444.75 413.29L448.23 416.71L459.7 428C459.7 428 497 448.13 500.7 450.8C504.4 453.47 507.59 462.49 504.44 463.7Z" fill="#EBEBEB"/>
<path d="M510.73 465C507.56 466.1 410.3 467.17 406.8 465C405.98 464.5 405.22 458.85 404.62 451.11C404.54 450.11 394.69 442.26 393.34 440.81L452.94 420.73L460.47 427.81C460.47 427.81 504.33 448.22 507.92 451C511.51 453.78 513.9 463.86 510.73 465Z" fill="#142C52"/>
<path d="M509.38 461.33C494.1 461.13 426.32 461.78 411.2 462.75C411.08 462.75 411.08 462.84 411.2 462.85C426.34 463.37 494.12 462.22 509.39 461.58C509.71 461.57 509.71 461.34 509.38 461.33Z" fill="#263238"/>
<path d="M465.33 428.43C459.33 427.38 451.96 428.38 447.42 432.72C447.25 432.89 447.49 433.14 447.68 433.07C453.404 431.148 459.318 429.847 465.32 429.19C465.406 429.171 465.483 429.124 465.539 429.056C465.595 428.987 465.626 428.902 465.627 428.814C465.628 428.726 465.599 428.64 465.545 428.57C465.491 428.5 465.415 428.451 465.33 428.43Z" fill="#263238"/>
<path d="M469.7 431C463.7 429.95 456.33 431 451.79 435.29C451.61 435.46 451.86 435.71 452.05 435.65C457.771 433.725 463.681 432.421 469.68 431.76C469.781 431.762 469.879 431.725 469.952 431.655C470.025 431.586 470.067 431.49 470.07 431.39C470.073 431.289 470.035 431.191 469.966 431.118C469.896 431.045 469.801 431.002 469.7 431Z" fill="#263238"/>
<path d="M474.07 433.56C468.07 432.5 460.7 433.51 456.16 437.85C455.98 438.02 456.23 438.26 456.42 438.2C462.141 436.279 468.051 434.978 474.05 434.32C474.15 434.323 474.248 434.285 474.321 434.216C474.394 434.146 474.437 434.051 474.44 433.95C474.442 433.849 474.405 433.751 474.336 433.678C474.266 433.605 474.171 433.563 474.07 433.56Z" fill="#263238"/>
<path d="M478.44 436.12C472.44 435.07 465.07 436.12 460.53 440.41C460.35 440.58 460.6 440.83 460.79 440.77C466.51 438.846 472.421 437.541 478.42 436.88C478.521 436.882 478.618 436.845 478.691 436.775C478.765 436.706 478.807 436.611 478.81 436.51C478.812 436.409 478.775 436.311 478.706 436.238C478.636 436.165 478.541 436.122 478.44 436.12Z" fill="#263238"/>
<path d="M476.27 414.4C473.87 411.17 469.49 412.68 467 414.82C462.806 418.571 459.671 423.357 457.91 428.7C457.9 428.724 457.896 428.749 457.899 428.775C457.901 428.8 457.909 428.825 457.923 428.846C457.937 428.868 457.955 428.886 457.977 428.899C457.999 428.912 458.024 428.919 458.05 428.92C458.047 429.037 458.072 429.153 458.122 429.259C458.172 429.365 458.246 429.457 458.339 429.529C458.431 429.601 458.539 429.65 458.654 429.673C458.768 429.696 458.887 429.691 459 429.66C463.94 427.76 469.46 426.34 473.68 422.99C476.14 421 478.54 417.45 476.27 414.4ZM465.91 425.25C463.5 426.25 461.06 427.11 458.69 428.19C460.381 425.431 462.214 422.761 464.18 420.19C465.149 418.963 466.198 417.8 467.32 416.71C469.09 415.06 476.13 411.52 475.15 418.12C474.61 421.78 468.78 424.07 465.91 425.25Z" fill="#263238"/>
<path d="M442.61 427.31C447.61 429.36 453.28 429.19 458.56 429.64C459.11 429.69 459.37 429.11 459.27 428.64C459.293 428.632 459.314 428.618 459.331 428.601C459.348 428.584 459.361 428.563 459.369 428.539C459.377 428.516 459.379 428.492 459.376 428.467C459.372 428.443 459.364 428.42 459.35 428.4C456.171 423.753 451.826 420.025 446.75 417.59C443.75 416.23 439.14 415.99 437.75 419.75C436.4 423.34 439.7 426.11 442.61 427.31ZM439.85 423.06C437.07 416.98 444.85 418.43 446.97 419.52C448.357 420.254 449.693 421.079 450.97 421.99C453.569 423.912 456.068 425.965 458.46 428.14C455.89 427.76 453.3 427.61 450.71 427.32C447.62 427 441.38 426.4 439.85 423.06Z" fill="#263238"/>
<path d="M448.85 414.28L392.54 443.46C392.54 443.46 333.88 390.36 328.54 389.97C323.32 389.59 244.24 443.12 204.54 443.29C163.39 443.46 161.3 400.35 161.3 400.35L221.3 386.56C264.58 365.23 309.65 326.93 339.13 330.5C371.12 334.38 448.85 414.28 448.85 414.28Z" fill="#263238"/>
<path d="M435.1 406.85C425.59 411.55 428.26 410.07 418.8 414.85C414.18 417.2 390.89 428.95 386.94 431.85C386.85 431.91 386.94 432.07 387.03 432.03C391.69 430.47 414.71 418.22 419.29 415.79C428.66 410.79 425.92 412.15 435.23 407.08C435.256 407.08 435.281 407.072 435.303 407.059C435.326 407.046 435.344 407.027 435.357 407.004C435.37 406.982 435.376 406.956 435.376 406.93C435.377 406.905 435.37 406.879 435.357 406.856C435.344 406.834 435.326 406.815 435.304 406.802C435.281 406.788 435.256 406.781 435.23 406.78C435.204 406.78 435.179 406.786 435.156 406.798C435.133 406.81 435.113 406.828 435.1 406.85Z" fill="#37474F"/>
<path d="M382.57 430C371.57 420.29 335.49 388.69 334.03 387.52C332.893 386.433 331.631 385.487 330.27 384.7C329.709 384.477 329.104 384.387 328.502 384.436C327.901 384.484 327.318 384.67 326.8 384.98C325.13 385.76 323.5 386.61 321.8 387.42L312.04 392.18C299.43 398.34 286.88 404.66 274.17 410.61C261.94 416.34 253.17 421.73 240.45 426.13C227.759 430.613 214.629 433.744 201.28 435.47C199.63 435.67 197.98 435.85 196.33 436C196.31 436.006 196.293 436.019 196.28 436.036C196.268 436.053 196.261 436.074 196.261 436.095C196.261 436.116 196.268 436.136 196.28 436.153C196.293 436.17 196.31 436.183 196.33 436.19C209.446 435.41 222.413 432.995 234.93 429C247.58 425.11 256.16 420.06 268.18 414.53C280.63 408.8 292.9 402.67 305.18 396.53C311.66 393.31 318.18 390.06 324.62 386.88C326.1 386.16 328.19 384.6 329.88 385.37C330.586 385.76 331.238 386.24 331.82 386.8L333.98 388.6C336.77 390.92 380.98 429 382.43 430.1C382.53 430.25 382.68 430.1 382.57 430Z" fill="#37474F"/>
<path d="M161.24 400.35C161.24 400.35 155.24 444.23 175.37 458.65C195.5 473.07 337.89 464.94 359.2 457C380.51 449.06 379.64 414.15 355.65 407.11C332.83 400.41 237.04 400.9 234.65 400.06C234.05 399.85 242.88 394.01 242.82 393.68L220.76 388L161.24 400.35Z" fill="#263238"/>
<path d="M189.73 402.75C189.73 402.59 189.44 402.65 189.45 402.81C189.636 407.337 188.22 411.785 185.45 415.37C182.31 419.37 177.53 421.69 173.2 424.12C172.79 424.36 173.14 425.01 173.57 424.86C176.249 423.903 178.818 422.659 181.23 421.15C183.449 419.839 185.376 418.086 186.89 416C188.257 414.11 189.215 411.955 189.704 409.674C190.193 407.393 190.202 405.035 189.73 402.75Z" fill="#37474F"/>
<path d="M232.89 396C231.89 394.78 230.72 393.63 229.63 392.45C227.07 389.66 224.5 386.86 221.82 384.17C221.57 383.92 221.11 384.31 221.35 384.6C223.16 386.77 225.08 388.86 226.97 390.97C227.93 392.056 228.9 393.136 229.88 394.21C230.89 395.172 231.804 396.231 232.61 397.37C233.33 398.59 232.5 399.69 231.21 399.89C230.068 399.969 228.939 399.611 228.05 398.89C225.97 397.43 224.29 395.29 222.53 393.48C221.45 392.366 220.367 391.263 219.28 390.17C218.12 389.01 216.89 387.91 215.73 386.75C215.66 386.68 215.53 386.75 215.59 386.88C216.59 388.16 217.59 389.5 218.59 390.78C219.59 392.06 220.65 393.33 221.7 394.59C222.75 395.85 223.7 396.95 224.79 398.08C225.672 399.09 226.716 399.945 227.88 400.61C229.77 401.61 233 401.71 233.88 399.28C234.026 398.695 234.01 398.081 233.836 397.504C233.662 396.926 233.335 396.407 232.89 396Z" fill="#37474F"/>
<path d="M356.24 457.25C348.81 457.72 341.39 458.48 333.95 458.97C326.51 459.46 319.19 459.82 311.8 460.08C296.96 460.586 282.116 460.663 267.27 460.31C252.27 459.94 236.08 459.16 221.13 457.76C213.98 457.09 206.74 456.59 199.65 455.39C193.281 454.47 187.309 451.746 182.44 447.54C172.44 438.63 168.06 425.08 165.95 412.04C165.66 410.29 165.42 408.54 165.2 406.78C165.2 406.66 165 406.67 165.01 406.78C166.48 420.18 169.18 434.1 178.11 444.53C181.887 449.083 186.799 452.56 192.35 454.61C199.12 456.98 206.54 457.28 213.6 457.93C228.6 459.29 244.86 460.14 259.92 460.64C274.98 461.14 290.22 461.2 305.37 460.76C320.52 460.32 335.65 459.43 350.74 458.02C352.58 457.85 354.42 457.66 356.26 457.41C356.36 457.41 356.35 457.25 356.24 457.25Z" fill="#37474F"/>
<path d="M306.79 402.15C302.07 401.67 297.37 401.21 292.64 400.93C287.91 400.65 283.07 400.43 278.29 400.23C268.83 399.85 259.35 399.55 249.88 399.52C244.5 399.52 239.13 399.72 233.76 400.03C233.58 400.03 233.61 400.28 233.76 400.29C243.24 400.73 252.76 400.91 262.22 401.12C271.68 401.33 281.16 401.74 290.62 402.22C295.99 402.5 301.35 402.65 306.72 402.85C307.14 402.87 307.19 402.19 306.79 402.15Z" fill="#37474F"/>
<path d="M243.9 393.15C240.204 394.944 236.665 397.045 233.32 399.43C229.902 401.688 226.647 404.184 223.58 406.9C223.5 406.98 223.58 407.09 223.71 407.04C227.31 405.18 230.71 402.89 234.17 400.69C237.643 398.544 240.982 396.19 244.17 393.64C244.37 393.46 244.21 393 243.9 393.15Z" fill="#37474F"/>
<path d="M206.87 318.94C212.54 343.94 224.33 373.83 229.38 378.7C235.77 384.85 278.11 396.21 280.22 396.44C285.45 396.98 296.02 359.34 290.45 358.52C281.97 357.28 251.14 355.52 249.29 353.62C247.44 351.72 234.4 335.19 221.06 316.62C211.85 303.77 203.35 303.46 206.87 318.94Z" fill="#AD6359"/>
<path d="M276 394.4C276.63 394.72 285.47 399.19 290.94 400.79C295.02 401.98 306.86 405.1 308.62 400.74C309.82 397.74 303.08 395.11 298.35 393.13C295.86 392.13 292.79 389.47 293.53 387.87C294.82 385.07 301.23 387.87 305.45 390.36C313.6 395.12 324.45 403.68 329.45 399.56C331.33 397.99 329.15 395.14 325.96 392.34C331.15 395.61 336.68 398.34 338.84 396.64C340.09 395.7 340.15 394.4 339.46 392.92C341.06 393.45 342.46 393.35 343.46 392.31C345.16 390.55 344.34 387.93 342.46 385.26C342.776 385.227 343.08 385.119 343.346 384.945C343.612 384.771 343.833 384.536 343.99 384.26C347.58 378.82 329.72 363.12 323.53 361.64C305.33 357.27 286.14 358.03 286.14 358.03C279 363.72 276 394.39 276 394.4Z" fill="#AD6359"/>
<path d="M302.84 377.7C307.182 378.383 311.328 379.985 315 382.4C319.61 385.46 322.66 389.04 326.53 392.64C326.63 392.73 326.53 392.89 326.39 392.8C324.54 391.08 316.91 384.65 314.94 383.18C311.37 380.487 307.237 378.637 302.85 377.77C302.78 377.76 302.8 377.69 302.84 377.7Z" fill="#263238"/>
<path d="M306.26 370C311.04 371.32 315.94 372.65 320.38 374.93C325.23 377.42 329.03 381.46 332.76 385.36C335 387.7 337.19 390.09 339.33 392.53C339.42 392.63 339.28 392.79 339.18 392.69C335.4 388.69 331.493 384.78 327.46 380.96C323.751 377.419 319.376 374.649 314.59 372.81C311.86 371.76 309.04 370.92 306.24 370.08L306.26 370Z" fill="#263238"/>
<path d="M311.38 363.23C316.03 364.23 320.09 365.02 324.2 367.53C329.64 370.84 334.89 376.41 336.74 378.38C338.74 380.57 340.74 382.81 342.66 385.09C342.73 385.18 342.58 385.32 342.49 385.23C338.082 380.236 333.356 375.533 328.34 371.15C325.983 369.026 323.311 367.278 320.42 365.97C317.502 364.815 314.491 363.908 311.42 363.26L311.38 363.23Z" fill="#263238"/>
<path d="M283.28 356.47L270.15 397.72C270.15 397.72 234.9 387.56 228.47 380.6C222.04 373.64 210.23 337.7 206.77 320.3C203.31 302.9 212.11 303.3 220.17 314.3C228.23 325.3 248.3 351.92 249.42 352.5C250.54 353.08 283.28 356.47 283.28 356.47Z" fill="#142C52"/>
<path d="M256.21 353.51C255.37 353.99 254.53 354.51 253.68 354.94C249.415 357.483 244.885 359.552 240.17 361.11C237.829 361.833 235.414 362.286 232.97 362.46C230.517 362.587 228.057 362.402 225.65 361.91C223.235 361.427 220.856 360.779 218.53 359.97L218.38 359.56C220.768 360.381 223.211 361.032 225.69 361.51C228.074 361.967 230.507 362.122 232.93 361.97C235.345 361.774 237.73 361.304 240.04 360.57C244.715 358.98 249.207 356.895 253.44 354.35L255.15 353.35L256.21 353.51ZM239.31 344.15C234.824 341.93 230.136 340.142 225.31 338.81C222.925 338.197 220.472 337.888 218.01 337.89C215.822 337.932 213.643 338.2 211.51 338.69C211.51 338.87 211.61 339.05 211.67 339.23C213.753 338.719 215.886 338.434 218.03 338.38C220.462 338.349 222.888 338.628 225.25 339.21C230.075 340.487 234.764 342.232 239.25 344.42C241.13 345.28 243 346.16 244.88 347.04L244.55 346.61L239.31 344.15ZM275.4 355.64H274.47C272.033 355.583 269.605 355.326 267.21 354.87C266.8 354.8 266.4 354.72 266 354.62L263.36 354.33C264.62 354.67 265.9 354.97 267.18 355.22C269.586 355.704 272.028 355.985 274.48 356.06C275.82 356.06 277.16 356.06 278.48 355.96L275.4 355.64ZM263.59 381.34C258.732 382.121 253.919 383.156 249.17 384.44C245.91 385.28 242.65 386.16 239.38 386.96L240.18 387.31C243.18 386.53 246.18 385.7 249.25 384.89C253.981 383.571 258.777 382.499 263.62 381.68C267.567 381.039 271.561 380.724 275.56 380.74V380.61C271.556 380.501 267.551 380.745 263.59 381.34ZM227.32 324C224.252 324.476 221.155 324.743 218.05 324.8C215.628 324.849 213.206 324.732 210.8 324.45C209.71 324.31 208.62 324.12 207.54 323.89C207.54 324.03 207.61 324.17 207.64 324.31C208.64 324.54 209.71 324.73 210.75 324.87C213.171 325.172 215.61 325.309 218.05 325.28C221.28 325.243 224.505 324.986 227.7 324.51L227.32 324ZM223.89 319.4C218.197 318.031 212.28 317.868 206.52 318.92L206.64 319.6C212.564 318.502 218.657 318.714 224.49 320.22C224.3 319.9 224.09 319.63 223.89 319.36V319.4Z" fill="white"/>
<path d="M266.81 379.37C268.4 374.51 270.03 369.66 271.44 364.74C272.24 361.94 273.06 359.15 273.83 356.34C273.83 356.24 273.68 356.17 273.64 356.27C271.86 361.09 270.07 365.93 268.51 370.83C266.95 375.73 265.34 380.56 263.85 385.46C262.996 388.24 262.23 391.044 261.55 393.87C261.55 393.93 261.63 393.96 261.65 393.87C263.6 389.14 265.21 384.27 266.81 379.37Z" fill="#263238"/>
<path opacity="0.1" d="M257.6 393.79C246.8 390.19 232.37 384.79 228.48 380.6C222.05 373.6 210.24 337.7 206.78 320.3C204.36 308.1 207.95 304.67 213.09 307.5C227.28 334.27 247 373.67 257.6 393.79Z" fill="black"/>
<path d="M242.2 396.31L158.45 406C158.45 404.28 175.11 320 196.74 306.92C200.89 304.41 212.07 305.92 213.61 307.45C225.33 318.82 243.29 395.18 242.2 396.31Z" fill="#142C52"/>
<path d="M234.53 362.31C234.01 362.377 233.49 362.427 232.97 362.46C230.516 362.587 228.057 362.402 225.65 361.91C220.784 360.831 216.035 359.28 211.47 357.28C206.83 355.39 202.23 353.34 197.54 351.66C194.744 350.641 191.897 349.769 189.01 349.05L187.92 348.8C186.37 348.45 184.81 348.16 183.24 347.95C180.831 347.626 178.4 347.495 175.97 347.56C175.2 347.56 174.42 347.64 173.65 347.72C173.65 347.57 173.76 347.42 173.81 347.26C174.52 347.2 175.24 347.16 175.96 347.14C178.405 347.089 180.85 347.243 183.27 347.6C184.983 347.853 186.683 348.187 188.37 348.6L189.37 348.87C192.137 349.588 194.864 350.452 197.54 351.46C202.22 353.18 206.85 355.14 211.49 357.01C216.049 358.969 220.788 360.479 225.64 361.52C228.024 361.977 230.457 362.131 232.88 361.98C233.367 361.98 233.857 361.93 234.35 361.83C234.44 362 234.48 362.14 234.53 362.31ZM227.86 339.53C227.01 339.26 226.15 339.02 225.29 338.81C222.905 338.196 220.452 337.887 217.99 337.89C215.54 337.948 213.104 338.283 210.73 338.89C205.968 340.2 201.364 342.028 197 344.34C194.12 345.78 191.27 347.24 188.37 348.59L187.92 348.8C186.49 349.46 185.05 350.09 183.59 350.67C179.75 352.257 175.713 353.319 171.59 353.83C171.52 354.06 171.44 354.29 171.37 354.52C175.626 354.035 179.796 352.965 183.76 351.34C185.53 350.65 187.26 349.87 188.98 349.05L189.39 348.86C192.01 347.6 194.6 346.25 197.19 344.95C201.518 342.623 206.084 340.769 210.81 339.42C213.154 338.814 215.559 338.478 217.98 338.42C220.412 338.389 222.838 338.667 225.2 339.25C226.13 339.47 227.05 339.72 227.97 340C228 339.81 227.91 339.67 227.86 339.53ZM240.54 386.67C238.97 387.06 237.4 387.44 235.82 387.78C235.507 387.86 235.197 387.93 234.89 387.99C230.135 389.101 225.288 389.771 220.41 389.99C217.988 390.085 215.562 390.015 213.15 389.78C210.735 389.5 208.348 389.025 206.01 388.36C204.49 387.933 202.99 387.433 201.51 386.86C201.16 386.73 200.81 386.6 200.51 386.45C197.749 385.339 195.052 384.077 192.43 382.67C188.02 380.34 183.76 377.67 179.43 375.13C175.526 372.742 171.432 370.678 167.19 368.96C167.19 369.09 167.12 369.22 167.09 369.34C171.328 371.012 175.419 373.036 179.32 375.39C183.65 377.9 187.95 380.5 192.32 382.87C194.826 384.244 197.403 385.486 200.04 386.59L201.04 387C202.66 387.64 204.29 388.21 205.95 388.7C208.294 389.398 210.692 389.9 213.12 390.2C215.544 390.453 217.983 390.547 220.42 390.48C225.318 390.312 230.19 389.683 234.97 388.6L235.87 388.4L236.77 388.19C238.08 387.88 239.39 387.55 240.7 387.19C240.62 387 240.58 386.85 240.54 386.67ZM241.28 390.12L236.72 388.17L235.82 387.78L234.71 387.31C232.436 386.338 230.097 385.526 227.71 384.88C225.346 384.242 222.93 383.821 220.49 383.62C215.585 383.255 210.654 383.691 205.89 384.91C204.05 385.35 202.23 385.91 200.41 386.43L199.97 386.57C197.2 387.45 194.44 388.42 191.69 389.34C187.073 391.026 182.289 392.213 177.42 392.88C175.014 393.155 172.585 393.155 170.18 392.88C167.779 392.558 165.427 391.936 163.18 391.03C162.68 390.83 162.18 390.63 161.68 390.4L161.59 390.79L163.06 391.42C165.336 392.36 167.722 393.012 170.16 393.36C172.59 393.66 175.046 393.68 177.48 393.42C182.381 392.813 187.201 391.666 191.85 390C194.9 389 197.94 387.94 200.99 387L201.47 386.86C202.98 386.41 204.47 385.99 206.01 385.62C210.721 384.406 215.597 383.963 220.45 384.31C222.867 384.509 225.262 384.914 227.61 385.52C229.973 386.148 232.291 386.933 234.55 387.87L234.89 388.01L235.82 388.4L241.39 390.73C241.36 390.51 241.32 390.32 241.28 390.12ZM222.62 324.52C221.1 324.66 219.62 324.74 218.05 324.76C215.628 324.809 213.206 324.692 210.8 324.41C208.392 324.091 206.014 323.576 203.69 322.87C202.18 322.41 200.69 321.87 199.21 321.28L198.21 320.87C195.475 319.703 192.805 318.391 190.21 316.94C189.55 316.58 188.9 316.21 188.21 315.83C188.17 315.884 188.133 315.941 188.1 316C188.76 316.39 189.43 316.77 190.1 317.14C192.584 318.556 195.141 319.841 197.76 320.99C198.09 321.15 198.41 321.29 198.76 321.42C200.37 322.09 202 322.7 203.65 323.21C205.981 323.947 208.369 324.489 210.79 324.83C213.211 325.132 215.65 325.268 218.09 325.24C219.68 325.24 221.27 325.15 222.86 325.02L222.62 324.52ZM220.21 318.65C219.57 318.56 218.94 318.48 218.3 318.41C213.405 317.944 208.466 318.282 203.68 319.41C201.83 319.81 200 320.3 198.17 320.84L197.74 320.96C194.95 321.78 192.18 322.71 189.41 323.58C187.17 324.29 184.92 324.97 182.65 325.53L182.29 326.25C184.73 325.67 187.14 324.95 189.54 324.25C192.6 323.25 195.65 322.3 198.72 321.43L199.21 321.29C200.73 320.86 202.21 320.47 203.78 320.13C208.512 319.005 213.395 318.651 218.24 319.08C219.01 319.16 219.77 319.26 220.53 319.38L220.21 318.65Z" fill="white"/>
<path d="M184.31 315.71C168.75 327.71 127.74 376.07 136.31 387.55C144.88 399.03 203.64 395.21 220.79 390.27C225.89 388.8 212.79 356.36 207.36 354.75C202.83 353.41 177.36 360.32 176.93 358.84C176.41 357.18 182.05 346.45 191.13 326.84C201.62 304.24 191.19 310.42 184.31 315.71Z" fill="#AD6359"/>
<path d="M232.42 349.12C244.17 349.42 247.14 351.31 257.2 346.29C263.8 343 268.73 345.8 264.25 352.02C256.91 362.2 241.67 365.02 236.1 364.44L232.42 349.12Z" fill="#AD6359"/>
<path d="M200.07 355.13C200.07 355.13 214.17 350.13 226.72 349.18C235.41 348.55 254.45 349.27 269.26 370.63C272.77 375.7 274.18 385.41 265.44 379.22C259.23 374.82 256.62 370.15 252.55 368.22C252.55 368.22 252.87 380.79 247.66 384.11C243.101 387.011 238.343 389.584 233.42 391.81C232.807 391 232.246 390.151 231.74 389.27C231.74 389.27 226.58 391.91 218.06 389.66L200.07 355.13Z" fill="#AD6359"/>
<path d="M235.11 349.9C238.76 352.64 246.39 358.58 250.94 365.62C256 373.43 263.64 389.84 257.84 393.51C253.58 396.21 250.11 390.2 250.11 390.2C250.11 390.2 251.84 397.65 247.46 399.2C243.46 400.65 241.07 395.84 241.07 395.84C241.07 395.84 241.34 400.54 237.23 401.2C232.29 401.99 232.53 392.01 226.83 388.49C225.55 387.74 235.11 349.9 235.11 349.9Z" fill="#AD6359"/>
<path d="M241.8 369.58C244.8 372.73 249.8 381.58 250.21 390.03C250.21 390.22 250.08 390.33 250.03 390.16C248.104 383.006 245.317 376.112 241.73 369.63C241.73 369.63 241.77 369.55 241.8 369.58Z" fill="#263238"/>
<path d="M234.06 374.92C236.38 377.92 241.12 387.29 241.23 395.83C241.23 396.02 241.09 396.12 241.05 395.95C239.497 388.724 237.132 381.696 234 375C234 375 234 374.88 234.06 374.92Z" fill="#263238"/>
<path d="M252.56 368.18C256.12 369.9 258.25 372.18 261.05 374.86C262.416 376.224 263.858 377.509 265.37 378.71C266.76 379.79 268.8 381.41 270.64 380.38C271.085 380.043 271.431 379.592 271.641 379.074C271.85 378.556 271.916 377.991 271.83 377.44C271.631 375.844 271.175 374.29 270.48 372.84C270.48 372.78 270.55 372.73 270.58 372.84C271.261 374.167 271.804 375.561 272.2 377C272.458 377.991 272.406 379.039 272.05 380C271.16 382 268.68 381.84 267.05 381C266.086 380.453 265.179 379.813 264.34 379.09C263.52 378.42 262.73 377.71 261.96 376.98C260.38 375.48 258.89 373.89 257.32 372.38C255.796 370.942 254.179 369.606 252.48 368.38C252.453 368.369 252.432 368.348 252.421 368.322C252.41 368.296 252.409 368.266 252.42 368.24C252.43 368.213 252.451 368.192 252.477 368.181C252.504 368.169 252.533 368.169 252.56 368.18Z" fill="#263238"/>
<path d="M258.22 382.65C256.622 377.729 254.701 372.918 252.47 368.25C252.462 368.238 252.459 368.224 252.462 368.209C252.465 368.195 252.473 368.183 252.485 368.175C252.497 368.167 252.511 368.164 252.525 368.167C252.539 368.17 252.552 368.178 252.56 368.19C255.02 371.44 258.49 379.57 259.2 382.1C259.91 384.63 260.64 387.79 260.2 390.38C259.55 394.29 256.83 394.6 255.84 394.64C254.667 394.648 253.526 394.26 252.6 393.54C251.533 392.611 250.665 391.474 250.05 390.2C250.05 390.14 250.1 390.08 250.14 390.14C251.24 391.91 253.24 393.8 255.42 393.88C255.897 393.91 256.375 393.845 256.826 393.689C257.277 393.533 257.693 393.288 258.05 392.97C258.785 392.124 259.193 391.042 259.2 389.92C259.289 387.459 258.957 385 258.22 382.65Z" fill="#263238"/>
<path d="M200.07 355.13L211.87 396.22C211.87 396.22 138.41 400.41 134.34 387.07C130.27 373.73 165.76 330 180.48 318C197.54 304.1 198.48 309.94 192.91 323.85C187.09 338.41 177.08 359.21 177.08 359.21L200.07 355.13Z" fill="#142C52"/>
<path d="M182.59 347.51L182.43 347.85C180.286 347.599 178.127 347.502 175.97 347.56C173.551 347.666 171.142 347.937 168.76 348.37C163.964 349.274 159.262 350.612 154.71 352.37L153.82 352.71C152.01 353.38 150.21 354.1 148.41 354.84L148.98 354.04C150.27 353.5 151.56 352.97 152.87 352.45L153.73 352.12L154.59 351.79C159.17 350.043 163.904 348.731 168.73 347.87C171.133 347.455 173.562 347.204 176 347.12C178.203 347.083 180.406 347.213 182.59 347.51ZM169.48 354C167.062 354.142 164.637 354.079 162.23 353.81C159.792 353.531 157.377 353.086 155 352.48L154.64 352.39L153.64 352.14L150.8 351.39L150.46 351.85L152.77 352.47L153.71 352.73L154.88 353.04C157.263 353.672 159.684 354.146 162.13 354.46C164.562 354.748 167.015 354.822 169.46 354.68C173.096 354.454 176.689 353.762 180.15 352.62C180.28 352.34 180.41 352.06 180.56 351.76C176.984 353.004 173.257 353.757 169.48 354ZM209.88 389.26C208.57 389 207.26 388.69 205.97 388.33C204.45 387.904 202.95 387.404 201.47 386.83C201.12 386.7 200.77 386.57 200.47 386.42C197.709 385.31 195.012 384.048 192.39 382.64C187.98 380.31 183.72 377.64 179.39 375.1C175.147 372.484 170.663 370.281 166 368.52C163.685 367.698 161.276 367.167 158.83 366.94C156.385 366.767 153.929 366.874 151.51 367.26C147.055 368.034 142.697 369.285 138.51 370.99C138.363 371.27 138.223 371.55 138.09 371.83C142.443 370.033 146.97 368.693 151.6 367.83C153.991 367.43 156.42 367.302 158.84 367.45C161.259 367.646 163.644 368.144 165.94 368.93C170.594 370.647 175.072 372.81 179.31 375.39C183.64 377.9 187.94 380.5 192.31 382.87C194.816 384.245 197.393 385.486 200.03 386.59L201.03 387C202.65 387.64 204.28 388.21 205.94 388.7C207.29 389.1 208.66 389.44 210.04 389.7L209.88 389.26ZM208.47 384.35C207.62 384.51 206.76 384.69 205.91 384.9C204.07 385.34 202.25 385.9 200.43 386.42L199.99 386.56C197.22 387.44 194.46 388.41 191.71 389.33C187.093 391.017 182.309 392.204 177.44 392.87C175.034 393.145 172.605 393.145 170.2 392.87C167.798 392.548 165.447 391.926 163.2 391.02C158.607 389.072 154.213 386.684 150.08 383.89C145.85 381.16 141.65 378.34 137.35 375.75L136.47 375.23L136.39 375.43L137.26 375.94C141.58 378.5 145.73 381.39 149.96 384.14C154.094 386.971 158.487 389.405 163.08 391.41C165.356 392.35 167.741 393.002 170.18 393.35C172.609 393.65 175.065 393.671 177.5 393.41C182.394 392.805 187.206 391.662 191.85 390C194.9 389 197.94 387.94 200.99 387L201.47 386.86C202.98 386.41 204.47 385.99 206.01 385.62C206.89 385.41 207.78 385.21 208.67 385.05L208.47 384.35ZM190.16 316.93C188.58 316.05 187.01 315.13 185.46 314.19L185.28 314.32C186.873 315.28 188.473 316.217 190.08 317.13C191.546 317.964 193.03 318.75 194.53 319.49C194.55 319.402 194.577 319.315 194.61 319.23C193.11 318.53 191.63 317.75 190.16 316.94V316.93ZM189.41 323.6C184.764 325.206 179.96 326.309 175.08 326.89C173.75 327.014 172.415 327.064 171.08 327.04C170.93 327.2 170.77 327.36 170.62 327.53C172.126 327.604 173.636 327.577 175.14 327.45C180.057 326.912 184.899 325.832 189.58 324.23L193.26 323.07L193.57 322.29L189.41 323.6Z" fill="white"/>
<path d="M153.87 365.81C157.538 364.088 161.324 362.631 165.2 361.45C169.038 360.302 172.955 359.436 176.92 358.86C179.18 358.51 181.45 358.27 183.72 358.01C183.79 358.01 183.8 358.11 183.72 358.12C179.739 358.72 175.796 359.548 171.91 360.6C168.036 361.606 164.186 362.686 160.36 363.84C158.19 364.49 156.06 365.24 153.92 365.96C153.83 366 153.78 365.86 153.87 365.81Z" fill="#263238"/>
<path d="M199.9 355C199.53 355 179.1 358.23 178.41 358.42C178.54 358.14 183.72 348.42 184.49 346.99C184.57 346.85 184.64 346.71 184.71 346.56C185.18 345.95 185.65 345.34 186.09 344.71L187.77 342.26L186 344.59C185.73 344.95 185.46 345.33 185.21 345.7C185.72 344.7 186.21 343.7 186.73 342.7C187.54 341.07 188.29 339.43 189.03 337.78C189.03 337.72 189.03 337.69 188.95 337.78C187.43 340.62 185.81 343.4 184.28 346.23C182.75 349.06 176.93 359.46 176.96 359.45C176.99 359.44 199.55 355.45 199.96 355.35C200.006 355.342 200.048 355.316 200.075 355.278C200.102 355.24 200.113 355.192 200.105 355.145C200.097 355.099 200.071 355.058 200.033 355.03C199.994 355.003 199.946 354.992 199.9 355Z" fill="#263238"/>
<path d="M197.09 380.06C195.8 375.48 194.55 370.88 193.09 366.35C192.26 363.77 191.44 361.19 190.59 358.62C190.59 358.52 190.39 358.57 190.41 358.67C191.52 363.32 192.65 367.98 193.98 372.58C195.31 377.18 196.57 381.74 197.98 386.3C198.767 388.887 199.63 391.45 200.57 393.99C200.57 394.04 200.67 393.99 200.66 393.99C199.67 389.27 198.39 384.67 197.09 380.06Z" fill="#263238"/>
<path d="M212.69 397C212.17 395.71 211.56 393.87 210.99 392.61C210.84 392.27 210.6 392.3 210.7 392.61C211.07 393.76 211.32 395.03 211.7 396.21L208.62 396.3L205.05 396.46C202.73 396.554 200.397 396.62 198.05 396.66C193.337 396.747 188.623 396.747 183.91 396.66C174.449 396.479 165.003 395.812 155.61 394.66C152.99 394.32 150.37 393.94 147.76 393.47C145.15 393 142.27 392.47 140.12 391.82C140.05 391.82 140.02 391.92 140.12 391.95C142.246 392.79 144.437 393.459 146.67 393.95C149.02 394.46 151.37 394.9 153.74 395.27C158.46 395.99 163.22 396.47 167.97 396.81C177.41 397.5 186.88 397.81 196.34 397.67C198.99 397.67 201.65 397.58 204.34 397.49C205.67 397.44 207.01 397.4 208.34 397.33C209.67 397.26 212.78 397.19 212.69 397Z" fill="#263238"/>
<path d="M211.57 323.63C206.69 324.24 199.3 316.07 196.71 309.82C196.53 309.39 197.61 305.19 198.71 300.03C199.35 296.9 199.99 293.39 200.34 290.15C200.41 289.48 220.14 297.3 220.14 297.3C218.537 301.226 217.422 305.333 216.82 309.53C216.78 309.976 216.78 310.424 216.82 310.87C216.825 310.947 216.825 311.024 216.82 311.1C216.94 313.67 216.3 323 211.57 323.63Z" fill="#AD6359"/>
<path d="M201.56 290.37C201.91 295.95 203.88 309.56 214.7 310.99C215.396 311.084 216.098 311.121 216.8 311.1C216.81 311.024 216.81 310.946 216.8 310.87C216.765 310.424 216.765 309.976 216.8 309.53C217.409 305.33 218.527 301.22 220.13 297.29C220.13 297.29 205.89 291.65 201.56 290.37Z" fill="#263238"/>
<path d="M205.16 263C200.73 269.16 197.62 290.22 201 296.3C205.91 305.12 217.29 309.67 225.63 303.01C233.71 296.55 237.27 269.01 233.18 263.15C227.16 254.51 211.7 253.92 205.16 263Z" fill="#AD6359"/>
<path d="M220.46 281.72C220.46 281.67 220.34 281.78 220.34 281.84C220.22 283.27 219.85 284.84 218.5 285.21V285.29C220.1 285.25 220.58 283.1 220.46 281.72Z" fill="#263238"/>
<path d="M219.36 280.09C217.09 279.65 216.36 284.23 218.49 284.63C220.62 285.03 221.26 280.45 219.36 280.09Z" fill="#263238"/>
<path d="M228.39 283C228.39 282.94 228.49 283.08 228.48 283.14C228.22 284.55 228.16 286.21 229.36 286.88C229.36 286.88 229.36 286.97 229.36 286.95C227.81 286.48 227.92 284.28 228.39 283Z" fill="#263238"/>
<path d="M229.89 281.7C232.19 281.88 231.67 286.48 229.53 286.31C227.39 286.14 228 281.55 229.89 281.7Z" fill="#263238"/>
<path d="M217.81 276.14C218.443 276.175 219.077 276.175 219.71 276.14C220.379 276.227 221.057 276.089 221.64 275.75C221.8 275.607 221.91 275.416 221.954 275.205C221.997 274.994 221.971 274.775 221.88 274.58C221.628 274.231 221.288 273.954 220.895 273.778C220.501 273.603 220.068 273.534 219.64 273.58C218.757 273.534 217.888 273.816 217.2 274.37C217.043 274.5 216.93 274.674 216.875 274.87C216.82 275.066 216.826 275.274 216.892 275.467C216.958 275.659 217.082 275.826 217.246 275.947C217.41 276.067 217.606 276.135 217.81 276.14Z" fill="#263238"/>
<path d="M232.5 278.68C231.904 278.461 231.319 278.21 230.75 277.93C230.099 277.75 229.526 277.359 229.12 276.82C229.028 276.625 229.003 276.406 229.046 276.195C229.089 275.984 229.199 275.793 229.36 275.65C229.725 275.421 230.144 275.294 230.574 275.28C231.004 275.266 231.431 275.366 231.81 275.57C232.645 275.869 233.34 276.467 233.76 277.25C233.869 277.432 233.917 277.644 233.898 277.855C233.879 278.066 233.793 278.266 233.653 278.425C233.512 278.585 233.325 278.695 233.118 278.741C232.91 278.786 232.694 278.765 232.5 278.68Z" fill="#263238"/>
<path d="M216.07 294.53C216.36 294.92 216.63 295.42 217.13 295.53C217.66 295.597 218.198 295.553 218.71 295.4C218.718 295.404 218.725 295.411 218.73 295.419C218.735 295.427 218.738 295.436 218.738 295.445C218.738 295.455 218.735 295.464 218.73 295.472C218.725 295.48 218.718 295.486 218.71 295.49C218.465 295.736 218.158 295.911 217.822 295.998C217.486 296.084 217.133 296.078 216.8 295.98C216.521 295.86 216.284 295.66 216.119 295.406C215.953 295.151 215.867 294.854 215.87 294.55C215.91 294.49 216 294.47 216.07 294.53Z" fill="#263238"/>
<path d="M218.21 290.52C218.485 291.134 218.883 291.686 219.38 292.14C219.878 292.594 220.463 292.941 221.1 293.16C221.657 293.356 222.24 293.474 222.83 293.51C222.943 293.52 223.057 293.52 223.17 293.51H223.48C223.558 293.508 223.634 293.48 223.695 293.432C223.756 293.383 223.8 293.315 223.82 293.24C223.825 293.193 223.825 293.146 223.82 293.1V292.97C224.01 291.89 224.16 290.21 224.16 290.21C224.53 290.47 226.42 291.7 226.48 291.12C226.92 286.36 227.42 281.06 226.85 276.23C226.85 276.195 226.836 276.162 226.812 276.138C226.787 276.113 226.754 276.1 226.72 276.1C226.685 276.1 226.652 276.113 226.628 276.138C226.603 276.162 226.59 276.195 226.59 276.23C225.98 280.79 226.18 285.43 225.59 290.02C224.915 289.59 224.185 289.254 223.42 289.02C223.26 289.02 223.19 292.27 223.06 292.75C223.064 292.766 223.064 292.783 223.06 292.8C221.19 292.75 219.9 291.98 218.31 290.48C218.27 290.31 218.14 290.39 218.21 290.52Z" fill="#263238"/>
<path d="M222.27 292.85C221.55 293.54 220.665 294.032 219.7 294.28C219.171 294.399 218.617 294.347 218.12 294.13C217.04 293.66 217.12 292.62 217.51 291.76C217.699 291.307 217.94 290.877 218.23 290.48C219.288 291.683 220.704 292.514 222.27 292.85Z" fill="#263238"/>
<path d="M219.7 294.28C219.171 294.398 218.617 294.346 218.12 294.13C217.04 293.66 217.12 292.62 217.51 291.76C218.105 291.872 218.646 292.182 219.043 292.639C219.441 293.096 219.672 293.674 219.7 294.28Z" fill="#FF98B9"/>
<path opacity="0.2" d="M200 279.75C201.37 279.75 205.94 276.81 207 273.41C207.71 271.15 210.94 260.31 211.38 258.15C208.809 259.149 206.572 260.854 204.93 263.07C203 265.71 201 273.91 200 279.75Z" fill="#263238"/>
<path d="M226.79 268.51C225.871 269.261 224.778 269.765 223.611 269.977C222.444 270.188 221.243 270.1 220.12 269.72C218.972 269.331 217.943 268.654 217.131 267.754C216.318 266.855 215.75 265.762 215.48 264.58C215.48 264.51 215.36 264.53 215.37 264.58C215.54 265.848 216.054 267.045 216.856 268.041C217.658 269.037 218.718 269.794 219.92 270.23C221.125 270.604 222.407 270.651 223.637 270.368C224.866 270.086 225.999 269.482 226.92 268.62C226.927 268.603 226.928 268.584 226.923 268.566C226.919 268.547 226.908 268.531 226.894 268.519C226.88 268.507 226.862 268.5 226.843 268.498C226.825 268.497 226.806 268.501 226.79 268.51Z" fill="#263238"/>
<path d="M222.73 250.32C218.73 249.7 214.73 251.24 212.73 253.69C211.642 255.082 211.063 256.804 211.09 258.57C211.09 258.64 211.23 258.65 211.24 258.57C211.428 257.044 212.023 255.596 212.963 254.379C213.902 253.162 215.151 252.219 216.58 251.65C218.152 250.977 219.859 250.678 221.567 250.777C223.274 250.876 224.936 251.37 226.42 252.22C227.869 253.019 228.989 254.305 229.58 255.85C229.58 256 229.95 255.96 229.91 255.8C229.31 253.14 226.34 250.89 222.73 250.32Z" fill="#263238"/>
<path d="M243.39 264.38C243.056 262.617 242.057 261.049 240.6 260C238.51 258.18 235.84 257.89 233.19 257.65C233.12 257.65 233.11 257.75 233.19 257.76C235.468 257.801 237.69 258.473 239.61 259.7C241.149 260.817 242.26 262.426 242.76 264.26C243.016 265.08 243.102 265.944 243.012 266.798C242.922 267.652 242.659 268.479 242.239 269.228C241.819 269.977 241.25 270.632 240.567 271.154C239.885 271.675 239.103 272.052 238.27 272.26C237.197 272.598 236.068 272.721 234.947 272.621C233.827 272.522 232.737 272.202 231.74 271.68C231.66 271.68 231.58 271.75 231.66 271.79C235.29 273.79 240.11 272.99 242.47 269.73C242.981 268.949 243.326 268.071 243.484 267.151C243.643 266.231 243.611 265.288 243.39 264.38Z" fill="#263238"/>
<path d="M202.93 266.78C202.93 266.78 200.46 258.99 204.37 255.46C206.58 253.46 212.45 254.85 212.45 254.85C213.447 253.829 214.636 253.014 215.949 252.453C217.262 251.892 218.672 251.595 220.1 251.58C225.27 251.35 233.91 257.69 233.91 257.69C233.91 257.69 238.12 257.96 240.51 260.48C243.79 263.93 242.79 270.71 236.05 272.58C231.31 273.9 226.12 268.96 226.12 268.96C225.54 268.96 219.12 271.37 215.64 265.38C215.64 265.38 211.49 267.9 208.69 265.08C208.018 265.918 207.106 266.529 206.076 266.833C205.047 267.137 203.949 267.119 202.93 266.78Z" fill="#263238"/>
<path d="M203.91 280.62C203.91 280.62 201.44 272.73 198 273.41C194.56 274.09 195 284.52 198 286.9C198.368 287.23 198.8 287.482 199.268 287.641C199.736 287.8 200.232 287.862 200.725 287.825C201.218 287.788 201.699 287.651 202.138 287.423C202.577 287.195 202.965 286.881 203.28 286.5L203.91 280.62Z" fill="#AD6359"/>
<path d="M198.2 276.4C198.14 276.4 198.11 276.45 198.2 276.48C200.3 278.22 200.86 280.86 201.02 283.48C200.96 283.192 200.837 282.919 200.66 282.684C200.483 282.448 200.255 282.254 199.994 282.117C199.734 281.979 199.445 281.901 199.151 281.888C198.856 281.874 198.562 281.927 198.29 282.04C198.22 282.04 198.29 282.18 198.29 282.19C198.756 282.192 199.21 282.336 199.591 282.604C199.973 282.873 200.262 283.252 200.42 283.69C200.674 284.43 200.849 285.194 200.94 285.97C200.94 286.22 201.41 286.23 201.41 285.97V285.91C202.43 282.81 201.4 277.75 198.2 276.4Z" fill="#263238"/>
<path d="M311.94 404.5H225.19V408.39H311.94V404.5Z" fill="#C7C7C7"/>
<path d="M311.94 404.5V408.38H252.97L255.94 404.5H311.94Z" fill="#A6A6A6"/>
<path d="M259.69 408.39H344.24L351.28 350.96H266.73L259.69 408.39Z" fill="#C7C7C7"/>
<path d="M300.34 379.68C300.321 380.348 300.437 381.013 300.68 381.636C300.922 382.259 301.288 382.827 301.754 383.306C302.22 383.785 302.778 384.166 303.394 384.426C304.009 384.686 304.671 384.82 305.34 384.82C306.711 384.815 308.026 384.275 309.005 383.315C309.983 382.355 310.549 381.05 310.58 379.68C310.6 379.005 310.484 378.334 310.238 377.706C309.992 377.078 309.621 376.506 309.149 376.025C308.676 375.544 308.111 375.163 307.487 374.906C306.863 374.649 306.194 374.521 305.52 374.53C304.157 374.548 302.854 375.095 301.887 376.056C300.921 377.017 300.366 378.317 300.34 379.68Z" fill="white"/>
<path d="M432.67 122.62V171.05H481.11V122.62H432.67ZM436.33 167.4V126.27H477.45V167.4H436.33Z" fill="#142C52"/>
<path d="M460.72 132.29H342.74V254.1H460.72V132.29Z" fill="#455A64"/>
<path d="M311.1 176.12V238.76H373.74V176.12H311.1ZM315.83 234V180.85H369V234H315.83Z" fill="#A6A6A6"/>
<path d="M394.24 165.31C384.58 172.51 359.11 198.85 357.78 200.7C354.31 205.52 350.34 229.62 364.94 226.92C379.54 224.22 397.55 184.38 403.08 170.85C406 163.68 402.13 159.43 394.24 165.31Z" fill="#142C52"/>
<path opacity="0.1" d="M370.05 224.63C383.49 215.45 398.18 182.83 403.05 170.85C404.84 166.48 404.05 163.19 401.45 162.63L370.05 224.63Z" fill="black"/>
<path d="M369.27 170.18C368.21 166.57 342.84 170.91 343.66 176.39C346.66 196.46 352.84 216.26 355.66 220.53C359.43 226.14 367.44 225.04 370.54 221.61C374.88 216.85 370.32 173.76 369.27 170.18Z" fill="#AD6359"/>
<path d="M344 178.52C343 175.52 339.36 161.26 339.24 157.08C339.12 152.9 339.68 140.82 342.88 140.41C346.08 140 346.2 143.54 346.2 143.54C346.2 143.54 347.2 138.48 350.49 138.36C353.78 138.24 353.76 143.76 353.76 143.76C353.76 143.76 355.2 138.64 358.46 138.76C361.72 138.88 360.79 144.43 360.79 144.43C360.79 144.43 361.9 139.69 364.54 140.91C367.72 142.38 364.7 150.91 365.17 155.5C365.28 156.5 368.85 176.58 368.85 176.58L344 178.52Z" fill="#AD6359"/>
<path d="M360.89 143.94C358.68 150.21 358.8 153.33 360.26 159.71C360.26 159.83 360.11 159.9 360.07 159.78C358.07 153.66 357.36 149.78 360.6 143.78C360.75 143.53 361 143.64 360.89 143.94Z" fill="#263238"/>
<path d="M354 143.271C352.28 149.971 352.37 153.361 353.41 160.151C353.41 160.251 353.26 160.281 353.24 160.151C351.67 153.571 351.04 149.671 353.65 143.151C353.74 142.941 354.05 143.001 354 143.271Z" fill="#263238"/>
<path d="M346.29 143.88C345.09 150.5 345.03 154.22 346.88 160.68C346.892 160.711 346.891 160.745 346.878 160.775C346.865 160.805 346.841 160.828 346.81 160.84C346.78 160.852 346.746 160.851 346.716 160.838C346.686 160.825 346.662 160.801 346.65 160.77C344.12 154.36 344.16 149.71 346.08 143.87C346.22 143.47 346.36 143.47 346.29 143.88Z" fill="#263238"/>
<path d="M369.89 180.631C369.89 180.631 374.06 173.421 375.19 169.851C376.32 166.281 375.65 151.431 372.44 151.391C368.28 151.391 366.98 159.991 366.9 164.311C366.9 164.311 357.29 164.191 355.01 170.201C352.73 176.211 369.89 180.631 369.89 180.631Z" fill="#AD6359"/>
<path d="M371.29 151.75C367.47 154.44 367.73 160.12 367.29 164.3C367.289 164.362 367.272 164.423 367.242 164.477C367.211 164.531 367.168 164.577 367.115 164.611C367.063 164.644 367.003 164.664 366.941 164.67C366.88 164.675 366.817 164.665 366.76 164.64C362.76 164.86 357.11 166.34 354.86 169.96C354.845 169.976 354.825 169.986 354.804 169.989C354.782 169.993 354.76 169.989 354.741 169.979C354.722 169.969 354.707 169.953 354.697 169.933C354.688 169.913 354.686 169.891 354.69 169.87C356.57 165.66 361.97 163.75 366.4 163.8C366.74 159.5 366.73 153.8 371.23 151.71L371.29 151.75Z" fill="#263238"/>
<path d="M375.35 178.53L343.82 188.85C343.82 188.85 350.82 222.58 358.16 225.99C363.06 228.28 369.99 228.86 372.87 219.07C375.75 209.28 375.35 178.53 375.35 178.53Z" fill="#142C52"/>
<path d="M375.58 182.57C375.879 184.556 376.03 186.562 376.03 188.57C376.09 190.57 376.09 192.57 376.03 194.57C375.846 198.597 375.388 202.606 374.66 206.57C374.27 208.8 373.79 211.01 373.35 213.22C373.35 213.28 373.25 213.22 373.27 213.22C373.67 211.22 373.94 209.22 374.18 207.22C374.42 205.22 374.61 203.22 374.76 201.22C375.04 197.22 375.25 193.29 375.35 189.32C375.35 188.21 375.35 187.1 375.35 185.98C375.35 184.86 375.35 183.67 375.41 182.52C375.42 182.51 375.56 182.47 375.58 182.57Z" fill="#263238"/>
<path d="M373.66 186.381C372.81 186.551 371.98 186.841 371.16 187.091L368.61 187.851C366.89 188.361 365.17 188.901 363.46 189.451C360.05 190.551 356.63 191.631 353.23 192.791C352.29 193.101 351.36 193.421 350.44 193.791C349.52 194.161 348.52 194.581 347.54 194.941C347.48 194.941 347.54 195.041 347.54 195.031C348.4 194.781 349.27 194.601 350.13 194.361C350.99 194.121 351.88 193.851 352.75 193.581C354.47 193.047 356.18 192.501 357.88 191.941C361.24 190.831 364.6 189.741 367.93 188.561L370.72 187.561C371.72 187.221 372.72 186.921 373.64 186.491C373.73 186.451 373.71 186.371 373.66 186.381Z" fill="#263238"/>
<path d="M449 254.1H374.9C374.72 253.89 372.58 245.26 373.68 239.81C377.8 219.43 395.04 168.11 400.68 160.89C402.22 158.94 407.21 158.44 411.45 159.01C412.555 159.147 413.646 159.381 414.71 159.71H414.82C415.676 159.972 416.481 160.378 417.2 160.91C428.91 170.45 450.3 234.01 451.68 240.3C452.88 245.78 449.31 253.8 449 254.1Z" fill="#142C52"/>
<path opacity="0.1" d="M430 251.35L428.29 242.65L428.53 242.76C426.53 242.56 417.12 239.99 412.75 233.23C409.3 227.9 408.14 220.8 408.14 220.8L408.57 221.16L387.93 221.44L388.42 220.96C388.354 222.667 388.17 224.368 387.87 226.05C387.58 227.753 387.139 229.426 386.55 231.05C385.989 232.694 385.173 234.24 384.13 235.63C383.068 237.057 381.666 238.195 380.05 238.94L380.35 238.57L377.8 252L377.33 251.44C386.04 251.35 394.74 251.35 403.5 251.36L430 251.35ZM430 251.35L403.84 251.91C395.06 252.09 386.21 252.28 377.37 252.37H376.8L376.91 251.81L379.35 238.34L379.4 238.09L379.65 237.97C381.1 237.288 382.357 236.257 383.31 234.97C384.273 233.652 385.038 232.199 385.58 230.66C386.162 229.108 386.594 227.504 386.87 225.87C387.178 224.242 387.369 222.595 387.44 220.94V220.46H387.9L408.54 220.3H408.9C408.9 220.3 408.95 220.57 408.97 220.66C409.51 225.4 412.51 232.45 414.37 234.41C418.1 238.41 424.54 241.77 428.37 242.41H428.54L428.6 242.55L430 251.35Z" fill="black"/>
<path d="M425.91 167.75C445.09 185.57 460.84 204.12 460.69 210.57C460.52 217.67 439.39 235.83 428.49 242.29C427.59 242.82 417.49 238.45 414.49 234.59C410.3 229.19 408.79 220.78 408.96 220.66C411.72 218.66 431.16 207.15 431.16 205.66C431.16 203.51 421.16 186.85 416.29 175.66C411.1 163.84 417 159.5 425.91 167.75Z" fill="#AD6359"/>
<path d="M432.65 246.33L409.51 218.16C409.51 218.16 430 206.11 430 205C430 203.29 420.76 187.47 416.31 176.86C410.76 163.62 414.65 156.65 426.78 168C441.27 181.54 460.33 203.2 461.7 209.82C463.07 216.44 432.65 246.33 432.65 246.33Z" fill="#142C52"/>
<path d="M437.16 238.67C436.408 237.622 435.593 236.62 434.72 235.67C433.99 234.77 433.27 233.85 432.53 232.96C430.91 231.01 429.3 229.06 427.67 227.12C426.04 225.18 424.43 223.24 422.79 221.32C421.15 219.4 419.57 217.44 417.79 215.63C417.776 215.619 417.758 215.613 417.74 215.613C417.721 215.614 417.704 215.62 417.69 215.632C417.676 215.643 417.666 215.66 417.663 215.677C417.659 215.695 417.662 215.714 417.67 215.73C419.02 217.85 420.59 219.84 422.12 221.84C423.65 223.84 425.2 225.73 426.79 227.63C428.38 229.53 430.09 231.46 431.79 233.34C432.6 234.24 433.45 235.12 434.29 236C435.142 236.988 436.057 237.92 437.03 238.79C437.12 238.79 437.2 238.73 437.16 238.67Z" fill="#263238"/>
<path d="M429.05 242C430.37 243.36 431.66 244.75 432.9 246.18H432.42C435.02 243.39 437.68 240.66 440.35 237.93L444.35 233.87L448.35 229.8C446.082 232.883 443.623 235.822 440.99 238.6C438.37 241.39 435.67 244.09 432.82 246.6L432.55 246.84L432.34 246.57C431.234 245.05 430.137 243.526 429.05 242Z" fill="#263238"/>
<path d="M410.64 219.54L409.45 218.22L409.39 218.15L409.47 218.09L419.8 211.42C421.53 210.32 423.26 209.22 424.96 208.1C425.82 207.53 426.66 206.96 427.5 206.38C427.91 206.08 428.32 205.79 428.72 205.48C428.91 205.33 429.11 205.17 429.28 205.02C429.358 204.958 429.428 204.888 429.49 204.81C429.388 204.358 429.244 203.916 429.06 203.49C428.87 203.02 428.67 202.56 428.45 202.1C428.03 201.17 427.58 200.25 427.13 199.34L424.36 193.86C422.52 190.19 420.59 186.57 419 182.78C420 184.59 421 186.37 422 188.14L425 193.51C426 195.29 427 197.11 427.91 198.93C428.38 199.85 428.85 200.77 429.29 201.7C429.51 202.16 429.73 202.64 429.93 203.12C430.166 203.628 430.34 204.162 430.45 204.71C430.473 204.833 430.473 204.958 430.45 205.08C430.418 205.204 430.36 205.32 430.28 205.42C430.18 205.543 430.07 205.657 429.95 205.76C429.743 205.94 429.533 206.11 429.32 206.27C428.9 206.58 428.47 206.88 428.05 207.17C427.19 207.75 426.33 208.32 425.47 208.87C423.74 209.97 422 211.06 420.24 212.12C416.71 214.21 413.16 216.28 409.56 218.23V218.11L410.64 219.54Z" fill="#263238"/>
<path d="M418.86 185.05C419.43 185.58 419.92 186.13 420.42 186.69L421.14 187.54C421.392 187.827 421.629 188.127 421.85 188.44C421.142 188.09 420.513 187.6 420 187C419.503 186.426 419.116 185.765 418.86 185.05Z" fill="#263238"/>
<path d="M403.82 173.49C403.82 173.49 414.39 163.1 421.26 163.32L427.1 168.48C427.1 168.48 429.02 169.1 429.6 167.88C431.06 164.88 431.34 157.63 425.09 152.94C419.36 148.64 407.64 149.55 399.84 151.62C392.35 153.62 388.23 158.04 390.54 162.92C392.85 167.8 403.82 173.49 403.82 173.49Z" fill="#142C52"/>
<path opacity="0.1" d="M403.06 171.19C403.06 171.19 394.45 165.08 393.55 161.44C392.65 157.8 399.93 154.3 404.64 152.93C411.91 150.8 416.88 151.26 420.97 155.14C425.06 159.02 403.06 171.19 403.06 171.19Z" fill="black"/>
<path d="M403.61 170.33C406.9 170.71 413.11 166.14 414.85 161.33C414.97 161 413.99 157.85 412.98 153.97C412.38 151.62 411.76 148.97 411.37 146.53C411.3 146.02 396.61 152.69 396.61 152.69C397.981 155.612 398.988 158.692 399.61 161.86C399.654 162.191 399.671 162.526 399.66 162.86V163C399.63 165 400.09 169.93 403.61 170.33Z" fill="#AD6359"/>
<path d="M399.63 162.84C399.625 162.897 399.625 162.954 399.63 163.01C400.16 162.994 400.688 162.937 401.21 162.84C410.21 161.21 410.82 149.52 410.82 146.58C408.15 147.4 396.59 152.65 396.59 152.65C397.961 155.573 398.969 158.652 399.59 161.82C399.632 162.158 399.646 162.5 399.63 162.84Z" fill="#263238"/>
<path d="M413.2 128.61C414.82 134.14 411.73 150.03 407.77 153.54C402.03 158.62 392.71 159.01 388.42 152.13C384.25 145.45 388.65 124.81 393.07 121.63C399.57 117 410.81 120.43 413.2 128.61Z" fill="#AD6359"/>
<path d="M399.85 138.32C399.85 138.32 399.92 138.39 399.91 138.43C399.67 139.5 399.58 140.76 400.48 141.3C399.31 141 399.45 139.29 399.85 138.32Z" fill="#263238"/>
<path d="M401 137.38C402.74 137.58 402.22 141.06 400.6 140.88C398.98 140.7 399.55 137.22 401 137.38Z" fill="#263238"/>
<path d="M393.21 137.36C393.21 137.36 393.12 137.36 393.11 137.44C392.99 138.53 392.66 139.75 391.63 139.96V140.02C392.84 140 393.26 138.41 393.21 137.36Z" fill="#263238"/>
<path d="M392.42 136.09C390.7 135.7 390.04 139.16 391.63 139.52C393.22 139.88 393.85 136.42 392.42 136.09Z" fill="#263238"/>
<path d="M402.63 136C402.19 135.8 401.763 135.573 401.35 135.32C400.865 135.149 400.452 134.817 400.18 134.38C400.12 134.228 400.111 134.06 400.157 133.903C400.202 133.745 400.298 133.607 400.43 133.51C400.721 133.355 401.048 133.282 401.378 133.298C401.707 133.314 402.026 133.418 402.3 133.6C402.915 133.876 403.404 134.372 403.67 134.99C403.725 135.134 403.736 135.291 403.703 135.442C403.669 135.592 403.592 135.729 403.482 135.837C403.371 135.944 403.232 136.017 403.08 136.046C402.929 136.075 402.773 136.059 402.63 136Z" fill="#263238"/>
<path d="M391.49 133C391.972 132.971 392.453 132.918 392.93 132.84C393.441 132.858 393.944 132.707 394.36 132.41C394.475 132.291 394.547 132.137 394.565 131.972C394.583 131.807 394.546 131.641 394.46 131.5C394.245 131.252 393.968 131.065 393.657 130.958C393.346 130.85 393.013 130.827 392.69 130.89C392.016 130.915 391.377 131.193 390.9 131.67C390.798 131.785 390.732 131.926 390.709 132.078C390.685 132.229 390.706 132.384 390.768 132.524C390.83 132.665 390.931 132.784 391.059 132.868C391.187 132.952 391.337 132.998 391.49 133Z" fill="#263238"/>
<path d="M398.18 145C397.842 145.386 397.427 145.698 396.963 145.917C396.498 146.135 395.994 146.256 395.48 146.27C395.033 146.288 394.585 146.241 394.15 146.13C394.068 146.117 393.987 146.093 393.91 146.06L393.68 145.99C393.624 145.972 393.576 145.936 393.543 145.887C393.51 145.838 393.495 145.779 393.5 145.72C393.496 145.684 393.496 145.647 393.5 145.61V145.52C393.6 144.69 393.87 143.43 393.87 143.43C393.54 143.54 391.87 144.01 391.98 143.58C392.639 139.848 393.674 136.193 395.07 132.67C395.08 132.647 395.098 132.628 395.12 132.618C395.143 132.607 395.169 132.606 395.193 132.613C395.217 132.621 395.237 132.637 395.249 132.658C395.262 132.68 395.266 132.706 395.26 132.73C394.67 136.18 393.49 139.5 392.84 142.96C393.429 142.789 394.038 142.698 394.65 142.69C394.77 142.74 394.09 145.1 394.07 145.48C394.744 145.654 395.445 145.69 396.133 145.585C396.82 145.48 397.48 145.237 398.07 144.87C398.18 144.81 398.26 144.89 398.18 145Z" fill="#263238"/>
<path d="M394.71 145.75C395.077 146.413 395.607 146.971 396.25 147.37C396.608 147.573 397.02 147.661 397.43 147.62C398.33 147.52 398.43 146.73 398.43 146.03C398.393 145.66 398.316 145.294 398.2 144.94C397.154 145.578 395.93 145.862 394.71 145.75Z" fill="#263238"/>
<path d="M396.25 147.37C396.608 147.573 397.02 147.66 397.43 147.62C398.33 147.52 398.43 146.73 398.43 146.03C397.969 145.973 397.501 146.075 397.105 146.318C396.709 146.562 396.408 146.933 396.25 147.37Z" fill="#FF9BBC"/>
<path opacity="0.2" d="M412.23 142.161C411.23 141.871 408.7 138.931 408.64 136.361C408.64 134.641 408.54 126.481 408.64 124.891C410.224 126.1 411.434 127.733 412.13 129.601C413 131.821 412.7 137.901 412.23 142.161Z" fill="#263238"/>
<path d="M395.91 129C396.393 129.71 397.051 130.283 397.82 130.665C398.588 131.047 399.443 131.224 400.3 131.18C401.174 131.137 402.024 130.873 402.767 130.411C403.511 129.949 404.124 129.305 404.55 128.54C404.55 128.54 404.64 128.54 404.62 128.54C404.242 129.38 403.644 130.103 402.888 130.631C402.133 131.159 401.249 131.473 400.33 131.54C399.422 131.552 398.527 131.326 397.734 130.884C396.94 130.441 396.277 129.799 395.81 129.02C395.814 129.01 395.82 129.002 395.827 128.995C395.835 128.989 395.844 128.984 395.854 128.982C395.865 128.98 395.875 128.981 395.885 128.984C395.894 128.987 395.903 128.993 395.91 129Z" fill="#263238"/>
<path d="M402.38 117.18C403.7 117.324 404.963 117.797 406.053 118.555C407.143 119.313 408.026 120.333 408.62 121.52C409.095 122.706 409.152 124.018 408.78 125.24C408.78 125.24 408.67 125.24 408.68 125.24C408.853 124.143 408.728 123.019 408.318 121.986C407.908 120.954 407.229 120.05 406.35 119.37C405.394 118.589 404.269 118.04 403.065 117.766C401.861 117.492 400.61 117.5 399.41 117.79C398.242 118.05 397.206 118.721 396.49 119.68C396.42 119.77 396.21 119.68 396.27 119.58C397.25 117.82 399.76 116.85 402.38 117.18Z" fill="#263238"/>
<path d="M385.22 122.801C385.8 121.641 386.807 120.752 388.03 120.321C389.85 119.471 391.76 119.811 393.65 120.171C393.7 120.171 393.65 120.261 393.65 120.251C392.063 119.82 390.387 119.841 388.81 120.311C387.518 120.774 386.424 121.667 385.71 122.841C385.362 123.358 385.124 123.942 385.011 124.555C384.898 125.169 384.912 125.799 385.053 126.406C385.193 127.014 385.457 127.586 385.829 128.088C386.2 128.589 386.67 129.009 387.21 129.321C387.887 129.771 388.646 130.084 389.444 130.24C390.242 130.396 391.063 130.393 391.86 130.231C391.92 130.231 391.95 130.311 391.86 130.321C390.443 130.667 388.949 130.495 387.648 129.835C386.347 129.174 385.326 128.069 384.77 126.721C384.575 126.071 384.515 125.388 384.592 124.714C384.67 124.04 384.883 123.389 385.22 122.801Z" fill="#263238"/>
<path d="M412.81 132.58C412.81 132.58 416.09 127.67 414.09 124.43C412.95 122.6 408.6 122.43 408.6 122.43C407.616 120.594 405.944 119.224 403.95 118.62C400.41 117.43 393.14 120.09 393.14 120.09C391.405 119.733 389.601 119.951 388 120.71C385 122.45 384.36 127.35 388.67 130C391.67 131.86 396.28 129.48 396.28 129.48C396.69 129.58 400.69 132.56 404.28 129.09C404.28 129.09 406.65 131.68 409.16 130.28C409.462 130.989 409.974 131.589 410.626 132C411.278 132.411 412.04 132.613 412.81 132.58Z" fill="#263238"/>
<path d="M409 141.72C409 141.72 412.76 136.72 415.05 138.04C417.34 139.36 414.41 146.78 411.63 147.71C411.286 147.845 410.919 147.911 410.55 147.903C410.18 147.895 409.816 147.814 409.479 147.664C409.141 147.514 408.836 147.299 408.582 147.03C408.329 146.762 408.131 146.446 408 146.1L409 141.72Z" fill="#AD6359"/>
<path d="M414.19 140.141V140.211C412.24 140.931 411.19 142.681 410.41 144.511C410.527 144.321 410.683 144.159 410.869 144.037C411.054 143.914 411.264 143.833 411.484 143.8C411.704 143.766 411.928 143.781 412.142 143.844C412.355 143.906 412.553 144.014 412.72 144.161C412.72 144.161 412.72 144.271 412.67 144.261C412.335 144.144 411.972 144.133 411.63 144.229C411.288 144.326 410.985 144.525 410.76 144.801C410.391 145.265 410.072 145.768 409.81 146.301C409.71 146.471 409.41 146.371 409.48 146.171C409.53 143.671 411.55 140.301 414.19 140.141Z" fill="#263238"/>
<path d="M401 117.32C403.242 116.811 405.547 116.636 407.84 116.8C410.39 117.03 415.63 117.69 418.84 121.96C421.47 125.5 420.09 130.8 419.9 131.89C419.71 132.98 417.81 139.41 415.1 140.47C412.39 141.53 414.59 130.39 411.66 125.89C408.73 121.39 401 117.32 401 117.32Z" fill="#142C52"/>
<path opacity="0.1" d="M401 117.32C401 117.32 408.69 121.4 411.62 125.9C414.55 130.4 412.35 141.53 415.06 140.47C416.26 140 416.99 139.08 417.79 137.47C418.01 134.12 417.79 128.81 415.85 124.73C414.03 120.92 410.04 118.32 405.5 116.73C403.986 116.8 402.481 116.998 401 117.32Z" fill="black"/>
<path d="M412.94 146.91C413.37 143.91 412.09 135.34 409.94 130.12C407.79 124.9 399.09 120.22 397.78 120.01C394.59 119.51 393.32 120.23 392.88 119.84C392.44 119.45 396.2 117.84 397.2 117.45C398.2 117.06 400.86 116.38 402.2 116.72C403.54 117.06 411.81 119.72 414.09 123.99C416.37 128.26 418.5 139.28 417.09 141.69C416.77 142.27 415.86 142.48 415.4 143.31C414.81 144.38 414.27 145.66 413.75 146.39C413.23 147.12 412.9 147.17 412.94 146.91Z" fill="#142C52"/>
<path d="M409.65 127.92C410.466 127.653 411.259 127.318 412.02 126.92C412.794 126.511 413.519 126.015 414.18 125.44C414.18 125.44 414.3 125.44 414.25 125.5C413.679 126.185 413.004 126.775 412.25 127.25C411.472 127.698 410.618 128 409.73 128.14C409.716 128.146 409.7 128.148 409.685 128.147C409.67 128.147 409.655 128.143 409.641 128.136C409.627 128.13 409.614 128.121 409.604 128.109C409.594 128.098 409.586 128.085 409.58 128.07C409.575 128.056 409.573 128.041 409.573 128.025C409.574 128.01 409.578 127.995 409.584 127.981C409.591 127.967 409.6 127.954 409.611 127.944C409.623 127.934 409.636 127.926 409.65 127.92Z" fill="#263238"/>
<path d="M413.61 144C413.753 143.811 413.906 143.631 414.07 143.46C414.234 143.25 414.378 143.026 414.5 142.79C414.664 142.313 414.882 141.857 415.15 141.43C415.419 141.117 415.724 140.839 416.06 140.6C416.458 140.35 416.756 139.967 416.9 139.52C416.9 139.46 417.02 139.52 417 139.52C416.81 140.42 416.07 140.93 415.51 141.59C415.228 142.054 414.981 142.539 414.77 143.04C414.56 143.492 414.209 143.864 413.77 144.1C413.65 144.12 413.57 144 413.61 144Z" fill="#263238"/>
<path d="M413.29 140.55C413.64 140.27 414.01 140.04 414.29 139.73C414.602 139.417 414.892 139.082 415.16 138.73C415.43 138.4 415.67 138.04 415.93 137.73C416.19 137.42 416.6 136.96 416.93 136.55C416.93 136.49 417.04 136.55 417.01 136.61C416.71 137.04 416.48 137.53 416.2 137.97C415.946 138.347 415.669 138.708 415.37 139.05C415.09 139.383 414.779 139.688 414.44 139.96C414.107 140.248 413.719 140.465 413.3 140.6L413.29 140.55Z" fill="#263238"/>
<path d="M412.84 137.42C413.576 137.036 414.25 136.544 414.84 135.96C415.41 135.39 415.96 134.78 416.49 134.17C416.49 134.17 416.61 134.17 416.57 134.22C416.15 134.943 415.647 135.614 415.07 136.22C414.768 136.512 414.432 136.767 414.07 136.98C413.682 137.199 413.269 137.37 412.84 137.49C412.84 137.53 412.79 137.45 412.84 137.42Z" fill="#263238"/>
<path d="M412.28 134.4C412.655 134.268 412.996 134.057 413.28 133.78C413.61 133.51 413.94 133.22 414.28 132.93C414.62 132.64 414.89 132.38 415.18 132.09C415.509 131.819 415.772 131.477 415.95 131.09C415.95 131.03 416.06 131.09 416.05 131.09C415.927 131.488 415.723 131.856 415.45 132.17C415.173 132.529 414.865 132.864 414.53 133.17C414.201 133.475 413.85 133.756 413.48 134.01C413.17 134.266 412.791 134.423 412.39 134.46C412.38 134.468 412.367 134.472 412.354 134.473C412.341 134.473 412.328 134.47 412.317 134.464C412.305 134.458 412.296 134.449 412.289 134.437C412.283 134.426 412.28 134.413 412.28 134.4Z" fill="#263238"/>
<path d="M412.2 130.71C412.53 130.5 412.86 130.29 413.2 130.06C413.54 129.83 413.82 129.57 414.11 129.32C414.4 129.07 414.75 128.79 415.04 128.51C415.09 128.51 415.16 128.51 415.12 128.58C414.882 128.914 414.621 129.231 414.34 129.53C414.05 129.815 413.743 130.082 413.42 130.33C413.103 130.577 412.769 130.801 412.42 131C412.084 131.228 411.707 131.387 411.31 131.47C411.25 131.47 411.21 131.39 411.25 131.35C411.546 131.108 411.864 130.894 412.2 130.71Z" fill="#263238"/>
<path d="M407.75 125.75C408.12 125.45 408.48 125.16 408.88 124.89C409.28 124.62 409.71 124.38 410.14 124.16C410.979 123.734 411.86 123.399 412.77 123.16C412.82 123.16 412.87 123.22 412.82 123.25C411.16 124.14 409.46 124.96 407.82 125.87C407.75 125.86 407.7 125.79 407.75 125.75Z" fill="#263238"/>
<path d="M406.52 122.83C406.892 122.538 407.298 122.293 407.73 122.1C408.642 121.709 409.595 121.42 410.57 121.24C410.584 121.24 410.596 121.246 410.606 121.255C410.615 121.264 410.62 121.277 410.62 121.29C410.62 121.303 410.615 121.316 410.606 121.326C410.596 121.335 410.584 121.34 410.57 121.34C409.69 121.68 408.81 122.01 407.95 122.4C407.525 122.586 407.111 122.796 406.71 123.03C406.31 123.27 405.97 123.59 405.58 123.85H405.53C405.785 123.444 406.122 123.097 406.52 122.83Z" fill="#263238"/>
<path d="M404.31 121.13C404.662 120.845 405.041 120.593 405.44 120.38C406.205 119.984 407.029 119.717 407.88 119.59C407.94 119.59 407.95 119.67 407.88 119.69C407.066 119.953 406.276 120.288 405.52 120.69C405.14 120.89 404.77 121.12 404.4 121.34C404.051 121.597 403.687 121.834 403.31 122.05C403.31 122.05 403.26 122.05 403.31 121.99C403.617 121.673 403.951 121.385 404.31 121.13Z" fill="#263238"/>
<path d="M402.85 119.27C403.22 119.09 403.59 118.92 403.97 118.76C404.331 118.581 404.72 118.462 405.12 118.41C405.18 118.41 405.19 118.48 405.12 118.5C404.41 118.85 403.71 119.22 403 119.58C402.377 119.96 401.797 120.406 401.27 120.91C401.27 120.91 401.2 120.91 401.22 120.91C401.587 120.213 402.155 119.641 402.85 119.27Z" fill="#263238"/>
<path d="M400.74 118.31C401.428 117.901 402.189 117.63 402.98 117.51C402.98 117.51 403.05 117.6 402.98 117.61C402.236 117.832 401.53 118.17 400.89 118.61C400.241 119.024 399.637 119.507 399.09 120.05C399.09 120.05 399.01 120.05 399.03 120.05C399.456 119.344 400.042 118.748 400.74 118.31Z" fill="#263238"/>
<path d="M397.54 119.001C397.65 118.861 397.77 118.731 397.9 118.611C398.149 118.358 398.428 118.136 398.73 117.951C399.364 117.574 400.034 117.263 400.73 117.021C400.79 117.021 400.82 117.091 400.73 117.121C400.07 117.373 399.445 117.709 398.87 118.121C398.586 118.314 398.318 118.532 398.07 118.771C397.943 118.883 397.823 119.003 397.71 119.131C397.614 119.262 397.503 119.383 397.38 119.491C397.376 119.497 397.37 119.502 397.363 119.505C397.356 119.509 397.348 119.511 397.34 119.511C397.333 119.511 397.325 119.509 397.318 119.505C397.311 119.502 397.305 119.497 397.3 119.491C397.347 119.313 397.429 119.146 397.54 119.001Z" fill="#263238"/>
<path d="M395.73 118.77C395.949 118.573 396.179 118.389 396.42 118.22C396.657 118.055 396.904 117.905 397.16 117.77C397.43 117.63 397.7 117.5 397.95 117.35C397.962 117.344 397.976 117.342 397.989 117.346C398.002 117.349 398.013 117.358 398.02 117.37C398.027 117.382 398.028 117.396 398.025 117.409C398.021 117.422 398.012 117.434 398 117.44C397.732 117.575 397.477 117.736 397.24 117.92L396.55 118.42L395.86 118.92C395.641 119.108 395.411 119.281 395.17 119.44L395.12 119.38C395.3 119.155 395.505 118.95 395.73 118.77Z" fill="#263238"/>
<path d="M403.06 171.19C403.06 171.19 411.52 156.79 422.13 155.34L421.26 163.34C421.26 163.34 414.93 163.34 403.82 173.51L403.06 171.19Z" fill="#142C52"/>
<path d="M424.12 163.45C422.189 163.301 420.249 163.567 418.43 164.23C416.605 164.843 414.856 165.665 413.22 166.68C411.564 167.668 409.977 168.767 408.47 169.97L406.26 171.84L404.13 173.84L403.89 174.06L403.62 173.92C401.637 172.909 399.726 171.763 397.9 170.49C396.978 169.877 396.093 169.209 395.25 168.49C394.403 167.768 393.629 166.964 392.94 166.09C394.544 167.6 396.316 168.922 398.22 170.03C399.15 170.61 400.11 171.15 401.08 171.66C402.05 172.17 403.03 172.66 404.01 173.16L403.5 173.24L405.64 171.24C406.37 170.59 407.13 169.96 407.89 169.33C408.65 168.7 409.46 168.14 410.27 167.58C411.08 167.02 411.92 166.5 412.8 166.05C414.52 165.074 416.359 164.321 418.27 163.81C418.75 163.68 419.27 163.59 419.72 163.49C420.17 163.39 420.72 163.35 421.19 163.33C422.166 163.205 423.157 163.245 424.12 163.45Z" fill="#263238"/>
<path d="M427.1 168.48C424.955 167 422.994 165.267 421.26 163.32C423.412 164.793 425.374 166.526 427.1 168.48Z" fill="#263238"/>
<path d="M407.52 167.771C408.449 171.012 409.098 174.328 409.46 177.68C409.73 180.02 409.61 188.501 406.98 188.441C404.35 188.381 408.08 182.561 408.41 178.071C408.74 173.581 407.26 170.431 406.85 167.801L407.52 167.771Z" fill="#142C52"/>
<g opacity="0.1">
<path d="M407.52 167.771C408.449 171.012 409.098 174.328 409.46 177.68C409.73 180.02 409.61 188.501 406.98 188.441C404.35 188.381 408.08 182.561 408.41 178.071C408.74 173.581 407.26 170.431 406.85 167.801L407.52 167.771Z" fill="black"/>
</g>
<path d="M398 168.12C397.369 171.112 396.998 174.154 396.89 177.21C396.8 179.34 397.46 187 399.84 186.77C402.22 186.54 398.46 181.53 397.84 177.48C397.22 173.43 398.39 170.48 398.59 168.09L398 168.12Z" fill="#142C52"/>
<g opacity="0.1">
<path d="M398 168.12C397.369 171.112 396.998 174.154 396.89 177.21C396.8 179.34 397.46 187 399.84 186.77C402.22 186.54 398.46 181.53 397.84 177.48C397.22 173.43 398.39 170.48 398.59 168.09L398 168.12Z" fill="black"/>
</g>
<defs>
<filter id="filter0_d_969_16699" x="0" y="34" width="608" height="508" filterUnits="userSpaceOnUse" color-interpolation-filters="sRGB">
<feFlood flood-opacity="0" result="BackgroundImageFix"/>
<feColorMatrix in="SourceAlpha" type="matrix" values="0 0 0 0 0 0 0 0 0 0 0 0 0 0 0 0 0 0 127 0" result="hardAlpha"/>
<feOffset dy="4"/>
<feGaussianBlur stdDeviation="2"/>
<feComposite in2="hardAlpha" operator="out"/>
<feColorMatrix type="matrix" values="0 0 0 0 0 0 0 0 0 0 0 0 0 0 0 0 0 0 0.25 0"/>
<feBlend mode="normal" in2="BackgroundImageFix" result="effect1_dropShadow_969_16699"/>
<feBlend mode="normal" in="SourceGraphic" in2="effect1_dropShadow_969_16699" result="shape"/>
</filter>
</defs>
</svg>
