<svg width="600" height="500" viewBox="0 0 600 500" fill="none" xmlns="http://www.w3.org/2000/svg">
<path d="M15.8436 391.604C157.578 294.255 15.8436 86.187 15.8436 13.1988C15.8436 -59.7894 159.301 200.161 200.318 60.7407C241.334 -78.6793 507.032 300.535 581.871 391.604C734.047 576.782 -125.891 488.954 15.8436 391.604Z" fill="#07F9A2"/>
<g clip-path="url(#clip0_1156_1802)">
<path d="M565 412.4H65V412.65H565V412.4Z" fill="#EBEBEB"/>
<path d="M514.9 428.49H481.78V428.74H514.9V428.49Z" fill="#EBEBEB"/>
<path d="M396.22 431.21H387.53V431.46H396.22V431.21Z" fill="#EBEBEB"/>
<path d="M480.78 419.21H461.59V419.46H480.78V419.21Z" fill="#EBEBEB"/>
<path d="M160.65 420.89H117.46V421.14H160.65V420.89Z" fill="#EBEBEB"/>
<path d="M175.89 420.89H169.56V421.14H175.89V420.89Z" fill="#EBEBEB"/>
<path d="M290.15 425.11H196.47V425.36H290.15V425.11Z" fill="#EBEBEB"/>
<path d="M302 367.8H108.91C107.397 367.797 105.948 367.195 104.879 366.124C103.81 365.054 103.21 363.603 103.21 362.09V90.66C103.223 89.156 103.829 87.718 104.896 86.6582C105.964 85.5985 107.406 85.0026 108.91 85H302C303.514 85 304.967 85.6016 306.038 86.6724C307.108 87.7433 307.71 89.1956 307.71 90.71V362.09C307.71 363.604 307.108 365.057 306.038 366.128C304.967 367.198 303.514 367.8 302 367.8ZM108.91 85.2C107.464 85.2026 106.077 85.7791 105.056 86.8027C104.034 87.8264 103.46 89.2136 103.46 90.66V362.09C103.46 363.536 104.034 364.924 105.056 365.947C106.077 366.971 107.464 367.547 108.91 367.55H302C303.447 367.547 304.834 366.971 305.858 365.948C306.881 364.924 307.457 363.537 307.46 362.09V90.66C307.457 89.2127 306.881 87.8255 305.858 86.8021C304.834 85.7787 303.447 85.2026 302 85.2H108.91Z" fill="#EBEBEB"/>
<path d="M518.31 367.8H325.21C323.696 367.797 322.246 367.195 321.175 366.125C320.105 365.054 319.503 363.604 319.5 362.09V90.66C319.516 89.1551 320.124 87.7171 321.193 86.6576C322.262 85.5981 323.705 85.0025 325.21 85H518.31C519.812 85.0052 521.252 85.6022 522.317 86.6617C523.382 87.7212 523.987 89.1578 524 90.66V362.09C524 363.601 523.401 365.05 522.335 366.121C521.268 367.191 519.821 367.795 518.31 367.8ZM325.21 85.2C323.763 85.2026 322.375 85.7787 321.352 86.8021C320.329 87.8255 319.753 89.2127 319.75 90.66V362.09C319.753 363.537 320.329 364.924 321.352 365.948C322.375 366.971 323.763 367.547 325.21 367.55H518.31C519.757 367.547 521.145 366.971 522.168 365.948C523.191 364.924 523.767 363.537 523.77 362.09V90.66C523.767 89.2127 523.191 87.8255 522.168 86.8021C521.145 85.7787 519.757 85.2026 518.31 85.2H325.21Z" fill="#EBEBEB"/>
<path d="M302.13 143.69C301.154 143.692 300.193 143.931 299.33 144.387C298.468 144.844 297.73 145.504 297.18 146.31L284 139.46C284.259 138.787 284.395 138.072 284.4 137.35C284.397 136.628 284.262 135.913 284 135.24L297.18 128.38C297.975 129.578 299.173 130.451 300.557 130.84C301.942 131.229 303.419 131.108 304.722 130.498C306.024 129.889 307.064 128.833 307.653 127.521C308.242 126.209 308.341 124.73 307.93 123.352C307.52 121.974 306.629 120.789 305.419 120.013C304.208 119.237 302.76 118.921 301.336 119.123C299.913 119.325 298.609 120.032 297.663 121.114C296.716 122.196 296.19 123.583 296.18 125.02C296.182 125.742 296.318 126.458 296.58 127.13L283.37 134C282.651 132.936 281.609 132.131 280.398 131.703C279.187 131.275 277.87 131.247 276.642 131.623C275.414 132 274.339 132.76 273.575 133.793C272.811 134.825 272.399 136.076 272.399 137.36C272.399 138.645 272.811 139.895 273.575 140.928C274.339 141.961 275.414 142.721 276.642 143.097C277.87 143.473 279.187 143.446 280.398 143.018C281.609 142.59 282.651 141.785 283.37 140.72L296.55 147.57C296.095 148.768 296.036 150.079 296.38 151.313C296.724 152.547 297.454 153.638 298.463 154.427C299.472 155.216 300.707 155.661 301.987 155.698C303.268 155.734 304.526 155.361 305.578 154.631C306.631 153.901 307.422 152.853 307.837 151.641C308.251 150.429 308.266 149.116 307.881 147.895C307.496 146.673 306.73 145.607 305.695 144.853C304.66 144.098 303.411 143.694 302.13 143.7V143.69Z" fill="#EBEBEB"/>
<path d="M342.58 413.29H296.34C296.146 413.29 295.959 413.213 295.82 413.077C295.682 412.94 295.603 412.754 295.6 412.56V372C295.6 371.803 295.678 371.615 295.817 371.477C295.956 371.338 296.144 371.26 296.34 371.26C296.437 371.26 296.533 371.279 296.622 371.316C296.711 371.354 296.792 371.408 296.86 371.477C296.928 371.546 296.981 371.628 297.017 371.717C297.054 371.807 297.071 371.903 297.07 372V411.85H342.58C342.684 411.838 342.789 411.848 342.889 411.879C342.988 411.91 343.08 411.963 343.158 412.032C343.236 412.101 343.298 412.187 343.341 412.282C343.384 412.377 343.406 412.48 343.406 412.585C343.406 412.689 343.384 412.792 343.341 412.888C343.298 412.983 343.236 413.068 343.158 413.138C343.08 413.207 342.988 413.259 342.889 413.29C342.789 413.322 342.684 413.332 342.58 413.32V413.29Z" fill="#EBEBEB"/>
<path d="M296.49 407.72L296.18 404.79C296.45 404.79 323.49 401.66 335.37 383.79L337.82 385.43C325.17 404.46 297.66 407.6 296.49 407.72Z" fill="#EBEBEB"/>
<path d="M338.26 382.16L332.65 384.47L338.27 388.22L338.26 382.16Z" fill="#EBEBEB"/>
<path d="M494.88 322.65H469.8C469.694 322.65 469.592 322.607 469.517 322.532C469.442 322.457 469.4 322.356 469.4 322.25V300.25C469.4 300.144 469.442 300.042 469.517 299.967C469.592 299.892 469.694 299.85 469.8 299.85C469.906 299.85 470.008 299.892 470.083 299.967C470.158 300.042 470.2 300.144 470.2 300.25V321.86H494.88C494.986 321.86 495.088 321.902 495.163 321.977C495.238 322.052 495.28 322.154 495.28 322.26C495.28 322.366 495.238 322.467 495.163 322.542C495.088 322.617 494.986 322.66 494.88 322.66V322.65Z" fill="#EBEBEB"/>
<path d="M469.89 319.63L469.72 318.04C469.86 318.04 484.53 316.34 490.97 306.66L492.3 307.55C485.44 317.86 470.52 319.56 469.89 319.63Z" fill="#EBEBEB"/>
<path d="M492.54 305.76L489.5 307.01L492.54 309.05V305.76Z" fill="#EBEBEB"/>
<path d="M138.52 255.24V271.18C138.52 272.67 141.14 273.88 144.32 273.88H159C159.796 273.88 160.559 273.564 161.121 273.001C161.684 272.438 162 271.675 162 270.88V266.88C162.001 265.701 162.318 264.544 162.92 263.53C163.525 262.514 163.843 261.352 163.84 260.17V256.31C163.84 255.514 163.524 254.751 162.961 254.188C162.399 253.626 161.636 253.31 160.84 253.31H149V243.25C149 240.91 148.34 237.76 145.55 237.76C145.55 237.76 144.77 248 139.55 252.16C139.166 252.568 138.875 253.055 138.697 253.587C138.52 254.119 138.459 254.682 138.52 255.24Z" fill="#EBEBEB"/>
<path d="M137.28 255.04H132.33V271.8H137.28V255.04Z" fill="#EBEBEB"/>
<path d="M405.94 193.83V203.76C405.94 204.69 407.57 205.44 409.55 205.44H418.67C419.161 205.44 419.631 205.245 419.978 204.898C420.325 204.551 420.52 204.081 420.52 203.59V201.1C420.517 200.363 420.718 199.64 421.1 199.01C421.472 198.373 421.668 197.648 421.67 196.91V194.51C421.67 194.02 421.475 193.549 421.128 193.202C420.781 192.855 420.311 192.66 419.82 192.66H412.47V186.37C412.47 184.91 412.05 182.95 410.32 182.95C410.32 182.95 409.83 189.32 406.61 191.95C406.37 192.197 406.186 192.493 406.07 192.817C405.955 193.142 405.91 193.487 405.94 193.83Z" fill="#EBEBEB"/>
<path d="M405.16 193.71H402.08V204.14H405.16V193.71Z" fill="#EBEBEB"/>
<path d="M216.686 136.045C221.755 130.976 221.755 122.758 216.686 117.689C211.617 112.62 203.398 112.62 198.329 117.689C193.26 122.758 193.26 130.976 198.329 136.045C203.398 141.114 211.617 141.114 216.686 136.045Z" fill="#EBEBEB"/>
<path d="M207.51 138.18C213.757 138.18 218.82 133.116 218.82 126.87C218.82 120.623 213.757 115.56 207.51 115.56C201.264 115.56 196.2 120.623 196.2 126.87C196.2 133.116 201.264 138.18 207.51 138.18Z" fill="#E0E0E0"/>
<path d="M208.2 132V133.62H207V132.02C205.727 131.983 204.493 131.565 203.46 130.82L204.11 129.36C204.949 129.994 205.952 130.376 207 130.46V127.61C205.4 127.22 203.68 126.7 203.68 124.69C203.68 123.22 204.75 121.93 207 121.69V120.08H208.19V121.69C209.226 121.725 210.236 122.028 211.12 122.57L210.54 124C209.824 123.578 209.026 123.312 208.2 123.22V126.13C209.8 126.52 211.55 127.03 211.55 129.04C211.55 130.54 210.46 131.81 208.2 132ZM207 125.86V123.29C206 123.45 205.54 123.97 205.54 124.6C205.54 125.23 206.17 125.61 207 125.86ZM209.69 129.2C209.69 128.49 209.05 128.2 208.19 127.91V130.47C209.25 130.31 209.7 129.82 209.7 129.2H209.69Z" fill="#EBEBEB"/>
<path d="M474.074 153.989C475.551 147.732 471.676 141.463 465.419 139.986C459.162 138.509 452.893 142.384 451.417 148.641C449.94 154.898 453.815 161.167 460.071 162.644C466.328 164.12 472.597 160.245 474.074 153.989Z" fill="#EBEBEB"/>
<path d="M462.76 161.46C468.36 161.46 472.9 156.92 472.9 151.32C472.9 145.72 468.36 141.18 462.76 141.18C457.16 141.18 452.62 145.72 452.62 151.32C452.62 156.92 457.16 161.46 462.76 161.46Z" fill="#E0E0E0"/>
<path d="M463.38 156V157.45H462.31V156C461.169 155.974 460.063 155.601 459.14 154.93L459.72 153.62C460.472 154.191 461.37 154.538 462.31 154.62V152C460.87 151.65 459.31 151.19 459.31 149.39C459.31 148.07 460.31 146.91 462.31 146.72V145.25H463.38V146.69C464.305 146.736 465.204 147.007 466 147.48L465.47 148.79C464.829 148.415 464.118 148.177 463.38 148.09V150.71C464.81 151.06 466.38 151.51 466.38 153.31C466.38 154.61 465.41 155.75 463.38 156ZM462.31 150.46V148.15C461.39 148.29 461 148.76 461 149.33C461 149.9 461.56 150.2 462.31 150.42V150.46ZM464.72 153.46C464.72 152.82 464.15 152.53 463.38 152.31V154.6C464.32 154.41 464.72 154 464.72 153.41V153.46Z" fill="#EBEBEB"/>
<path d="M383.789 375.538C385.266 369.282 381.391 363.013 375.134 361.536C368.877 360.059 362.608 363.934 361.131 370.191C359.655 376.447 363.53 382.717 369.786 384.193C376.043 385.67 382.312 381.795 383.789 375.538Z" fill="#EBEBEB"/>
<path d="M372.47 383.02C378.07 383.02 382.61 378.48 382.61 372.88C382.61 367.28 378.07 362.74 372.47 362.74C366.87 362.74 362.33 367.28 362.33 372.88C362.33 378.48 366.87 383.02 372.47 383.02Z" fill="#E0E0E0"/>
<path d="M373.08 377.52V379H372V377.56C370.859 377.534 369.753 377.161 368.83 376.49L369.41 375.18C370.162 375.751 371.06 376.098 372 376.18V373.59C370.56 373.24 369 372.78 369 370.98C369 369.66 370 368.5 372 368.31V366.84H373.06V368.28C373.989 368.32 374.893 368.591 375.69 369.07L375.16 370.38C374.516 370.003 373.801 369.765 373.06 369.68V372.3C374.5 372.65 376.06 373.1 376.06 374.9C376.09 376.17 375.12 377.31 373.08 377.52ZM372 372V369.69C371.08 369.83 370.69 370.3 370.69 370.87C370.69 371.44 371.27 371.76 372 372ZM374.41 375C374.41 374.36 373.84 374.07 373.06 373.85V376.14C374 376 374.43 375.53 374.43 375H374.41Z" fill="#EBEBEB"/>
<path d="M177.997 388.814C179.474 382.557 175.599 376.288 169.342 374.811C163.086 373.335 156.817 377.209 155.34 383.466C153.863 389.723 157.738 395.992 163.995 397.469C170.251 398.945 176.521 395.071 177.997 388.814Z" fill="#EBEBEB"/>
<path d="M166.66 396.29C172.26 396.29 176.8 391.75 176.8 386.15C176.8 380.55 172.26 376.01 166.66 376.01C161.06 376.01 156.52 380.55 156.52 386.15C156.52 391.75 161.06 396.29 166.66 396.29Z" fill="#E0E0E0"/>
<path d="M167.28 390.78V392.24H166.22V390.8C165.062 390.773 163.94 390.396 163 389.72L163.59 388.41C164.339 388.985 165.239 389.333 166.18 389.41V386.82C164.74 386.47 163.18 386 163.18 384.2C163.18 382.88 164.18 381.73 166.18 381.53V380.07H167.24V381.51C168.17 381.545 169.075 381.817 169.87 382.3L169.34 383.6C168.695 383.225 167.981 382.987 167.24 382.9V385.52C168.68 385.87 170.24 386.32 170.24 388.12C170.29 389.44 169.31 390.58 167.28 390.78ZM166.22 385.24V382.93C165.3 383.08 164.91 383.54 164.91 384.11C164.91 384.68 165.47 385 166.22 385.24ZM168.63 388.24C168.63 387.61 168.06 387.31 167.28 387.09V389.38C168.23 389.23 168.63 388.79 168.63 388.23V388.24Z" fill="#EBEBEB"/>
<path d="M228.79 184.08L236.79 161.99C239.786 163.08 242.529 164.767 244.851 166.951C247.174 169.134 249.028 171.767 250.3 174.69L228.79 184.08Z" fill="#F5F5F5"/>
<path d="M228.79 184.08L235.64 206.57C233.419 207.241 231.11 207.578 228.79 207.57C225.622 207.701 222.461 207.189 219.496 206.067C216.531 204.945 213.823 203.235 211.536 201.04C209.248 198.845 207.428 196.21 206.185 193.294C204.941 190.378 204.3 187.24 204.3 184.07C204.3 180.899 204.941 177.762 206.185 174.846C207.428 171.929 209.248 169.294 211.536 167.099C213.823 164.904 216.531 163.194 219.496 162.072C222.461 160.95 225.622 160.439 228.79 160.57C231.493 160.566 234.177 161.033 236.72 161.95L228.79 184.08Z" fill="#E0E0E0"/>
<path d="M228.79 184.08L250.39 174.79C251.691 177.821 252.341 181.092 252.297 184.39C252.252 187.688 251.515 190.94 250.133 193.935C248.75 196.929 246.754 199.6 244.272 201.773C241.791 203.947 238.881 205.574 235.73 206.55L228.79 184.08Z" fill="#EBEBEB"/>
<path d="M443.29 300.47L447.66 288.47C449.29 289.06 450.78 289.979 452.04 291.17C453.315 292.352 454.336 293.781 455.04 295.37L443.29 300.47Z" fill="#F5F5F5"/>
<path d="M443.29 300.47L447 312.69C445.064 313.282 443.016 313.405 441.023 313.051C439.031 312.696 437.151 311.874 435.539 310.65C433.926 309.427 432.627 307.839 431.749 306.015C430.871 304.192 430.438 302.186 430.486 300.163C430.534 298.14 431.063 296.157 432.027 294.378C432.992 292.598 434.365 291.074 436.034 289.929C437.703 288.784 439.62 288.052 441.628 287.793C443.635 287.535 445.675 287.756 447.58 288.44L443.29 300.47Z" fill="#E0E0E0"/>
<path d="M443.29 300.47L455 295.42C455.675 297.017 456.016 298.736 456 300.47C455.996 303.198 455.12 305.854 453.502 308.05C451.883 310.246 449.605 311.868 447 312.68L443.29 300.47Z" fill="#EBEBEB"/>
<path d="M400.53 255.09C398.484 245.304 394.613 235.992 389.12 227.64L398.94 215.77L377.94 194.77L366.07 204.6C357.721 199.1 348.407 195.228 338.62 193.19L337.18 177.89H307.45L306 193.17C296.213 195.211 286.9 199.082 278.55 204.58L266.68 194.75L245.68 215.75L255.51 227.62C250.008 235.968 246.137 245.282 244.1 255.07L228.8 256.51V286.23L244.1 287.67C246.139 297.457 250.01 306.771 255.51 315.12L245.67 327L266.67 348L278.54 338.17C286.891 343.679 296.207 347.56 306 349.61L307.44 364.91H337.16L338.6 349.61C348.387 347.571 357.701 343.7 366.05 338.2L377.93 348L398.93 327L389.11 315.13C394.602 306.777 398.472 297.464 400.52 287.68L415.82 286.24V256.53L400.53 255.09ZM362.53 271.39C362.53 279.346 360.17 287.124 355.75 293.74C351.329 300.356 345.046 305.512 337.695 308.557C330.344 311.602 322.255 312.399 314.451 310.847C306.647 309.294 299.479 305.463 293.853 299.837C288.227 294.21 284.395 287.042 282.843 279.238C281.291 271.434 282.087 263.345 285.132 255.994C288.177 248.643 293.333 242.36 299.949 237.94C306.565 233.519 314.343 231.16 322.3 231.16C327.584 231.158 332.816 232.198 337.698 234.219C342.58 236.24 347.016 239.203 350.753 242.939C354.49 246.675 357.454 251.11 359.477 255.992C361.499 260.874 362.54 266.106 362.54 271.39H362.53Z" fill="#F0F0F0"/>
<path d="M495.73 209.55C495.329 207.604 494.562 205.751 493.47 204.09L495.42 201.73L491.24 197.55L488.88 199.5C487.217 198.411 485.365 197.641 483.42 197.23L483.14 194.23H477.23L476.94 197.23C474.996 197.643 473.144 198.413 471.48 199.5L469.12 197.55L465 201.73L466.95 204.09C465.855 205.751 465.085 207.603 464.68 209.55L461.68 209.83V215.74L464.68 216.03C465.087 217.974 465.857 219.823 466.95 221.48L465 223.84L469.17 228.02L471.53 226.02C473.192 227.112 475.044 227.882 476.99 228.29L477.28 231.29H483.19L483.47 228.29C485.417 227.884 487.269 227.114 488.93 226.02L491.29 228.02L495.47 223.84L493.52 221.48C494.61 219.822 495.377 217.973 495.78 216.03L498.78 215.74V209.83L495.73 209.55ZM488.18 212.79C488.18 214.373 487.711 215.919 486.832 217.235C485.953 218.551 484.703 219.576 483.242 220.182C481.78 220.787 480.171 220.945 478.619 220.637C477.068 220.328 475.642 219.566 474.523 218.447C473.404 217.329 472.643 215.903 472.334 214.351C472.025 212.799 472.184 211.191 472.789 209.729C473.395 208.267 474.42 207.018 475.736 206.139C477.051 205.26 478.598 204.79 480.18 204.79C482.302 204.79 484.337 205.633 485.837 207.134C487.337 208.634 488.18 210.669 488.18 212.79Z" fill="#F0F0F0"/>
<path d="M216.39 308C215.977 306.056 215.208 304.205 214.12 302.54L216.07 300.18L211.89 296L209.53 298C207.87 296.905 206.017 296.135 204.07 295.73L203.79 292.73H197.88L197.59 295.73C195.647 296.137 193.798 296.907 192.14 298L189.78 296L185.6 300.17L187.6 302.53C186.508 304.192 185.738 306.044 185.33 307.99L182.33 308.28V314.19L185.33 314.47C185.737 316.417 186.507 318.269 187.6 319.93L185.6 322.29L189.78 326.47L192.14 324.47C193.795 325.568 195.645 326.338 197.59 326.74L197.88 329.74H203.79L204.07 326.74C206.019 326.34 207.872 325.57 209.53 324.47L211.89 326.47L216.07 322.29L214.12 319.93C215.209 318.267 215.979 316.416 216.39 314.47L219.39 314.19V308.28L216.39 308ZM208.83 311.24C208.83 312.823 208.361 314.369 207.482 315.685C206.603 317.001 205.353 318.026 203.892 318.632C202.43 319.237 200.821 319.395 199.269 319.087C197.718 318.778 196.292 318.016 195.173 316.897C194.054 315.778 193.292 314.353 192.984 312.801C192.675 311.249 192.834 309.641 193.439 308.179C194.045 306.717 195.07 305.468 196.386 304.589C197.701 303.71 199.248 303.24 200.83 303.24C202.952 303.24 204.987 304.083 206.487 305.584C207.987 307.084 208.83 309.119 208.83 311.24Z" fill="#F0F0F0"/>
<path d="M267.86 373.78C267.456 371.832 266.685 369.98 265.59 368.32L267.59 365.96L263.41 361.78L261.05 363.78C259.388 362.688 257.536 361.918 255.59 361.51L255.3 358.51H249.4L249.11 361.51C247.164 361.918 245.312 362.688 243.65 363.78L241.29 361.78L237.07 366L239.07 368.36C237.974 370.02 237.204 371.872 236.8 373.82L233.8 374.11V380L236.8 380.28C237.204 382.227 237.974 384.08 239.07 385.74L237.07 388.1L241.25 392.28L243.61 390.28C245.27 391.375 247.122 392.146 249.07 392.55L249.36 395.6H255.26L255.55 392.55C257.492 392.151 259.342 391.387 261 390.3L263.36 392.3L267.54 388.12L265.54 385.76C266.635 384.1 267.406 382.247 267.81 380.3L270.81 380.02V374.11L267.86 373.78ZM260.31 377C260.31 378.582 259.841 380.129 258.962 381.444C258.083 382.76 256.833 383.785 255.371 384.391C253.909 384.996 252.301 385.155 250.749 384.846C249.197 384.537 247.772 383.775 246.653 382.657C245.534 381.538 244.772 380.112 244.464 378.56C244.155 377.009 244.313 375.4 244.919 373.938C245.524 372.476 246.55 371.227 247.865 370.348C249.181 369.469 250.728 369 252.31 369C254.432 369 256.466 369.843 257.967 371.343C259.467 372.843 260.31 374.878 260.31 377Z" fill="#F0F0F0"/>
<path d="M161.84 187.57C161.573 186.289 161.064 185.07 160.34 183.98L161.63 182.42L158.88 179.67L157.32 181C156.23 180.276 155.011 179.767 153.73 179.5L153.54 177.5H149.65L149.46 179.5C148.176 179.769 146.955 180.278 145.86 181L144.31 179.71L141.56 182.46L142.85 184C142.126 185.09 141.617 186.309 141.35 187.59L139.35 187.78V191.67L141.35 191.86C141.617 193.144 142.126 194.366 142.85 195.46L141.56 197L144.31 199.75L145.86 198.47C146.958 199.185 148.178 199.69 149.46 199.96L149.65 201.96H153.54L153.73 199.96C155.009 199.692 156.227 199.186 157.32 198.47L158.88 199.75L161.63 197L160.34 195.45C161.064 194.356 161.573 193.134 161.84 191.85L163.84 191.66V187.77L161.84 187.57ZM156.84 189.71C156.84 190.752 156.531 191.771 155.952 192.638C155.373 193.504 154.55 194.18 153.587 194.579C152.624 194.978 151.564 195.082 150.542 194.879C149.52 194.675 148.581 194.173 147.844 193.436C147.107 192.699 146.605 191.76 146.401 190.738C146.198 189.716 146.302 188.656 146.701 187.693C147.1 186.73 147.776 185.907 148.642 185.328C149.509 184.749 150.528 184.44 151.57 184.44C152.264 184.437 152.951 184.572 153.593 184.835C154.235 185.099 154.818 185.487 155.309 185.976C155.801 186.466 156.191 187.048 156.457 187.689C156.723 188.329 156.86 189.016 156.86 189.71H156.84Z" fill="#F0F0F0"/>
<path d="M177.06 173.63C176.874 172.695 176.515 171.803 176 171L176.94 169.86L174.94 167.86L173.8 168.81C172.997 168.28 172.101 167.907 171.16 167.71L171.02 166.24H168.17L168.03 167.71C167.088 167.907 166.192 168.28 165.39 168.81L164.25 167.86L162.25 169.86L163.19 171C162.633 171.795 162.229 172.687 162 173.63L160.53 173.77V176.63L162 176.76C162.198 177.7 162.567 178.595 163.09 179.4L162.15 180.54L164.15 182.54L165.29 181.6C166.092 182.13 166.988 182.503 167.93 182.7L168.07 184.17H171L171.14 182.7C172.081 182.503 172.977 182.13 173.78 181.6L174.92 182.54L176.92 180.54L176 179.4C176.526 178.597 176.896 177.701 177.09 176.76L178.56 176.63V173.77L177.06 173.63ZM173.41 175.2C173.41 175.966 173.183 176.715 172.757 177.351C172.331 177.988 171.726 178.484 171.018 178.777C170.311 179.069 169.532 179.145 168.781 178.995C168.03 178.845 167.341 178.475 166.8 177.933C166.259 177.391 165.891 176.7 165.743 175.949C165.595 175.198 165.673 174.419 165.967 173.712C166.262 173.005 166.759 172.402 167.397 171.978C168.035 171.554 168.784 171.328 169.55 171.33C170.058 171.33 170.56 171.43 171.029 171.625C171.498 171.82 171.924 172.105 172.283 172.464C172.641 172.824 172.925 173.251 173.119 173.72C173.312 174.189 173.411 174.692 173.41 175.2Z" fill="#F0F0F0"/>
<path d="M436.7 408.1C428.863 407.957 421.396 404.743 415.905 399.15C410.414 393.558 407.337 386.033 407.337 378.195C407.337 370.357 410.414 362.832 415.905 357.24C421.396 351.647 428.863 348.433 436.7 348.29H436.94C444.777 348.425 452.248 351.631 457.745 357.219C463.242 362.806 466.326 370.328 466.334 378.166C466.342 386.004 463.273 393.532 457.787 399.13C452.301 404.728 444.837 407.949 437 408.1H436.7ZM438 405.76L439.24 405.46C443.51 404.46 447.34 400.77 450.03 395.15L450.56 394.03L449.35 393.75C445.949 392.992 442.483 392.563 439 392.47H438V405.76ZM434.62 392.47C431.15 392.566 427.698 392.994 424.31 393.75L423.09 394.03L423.63 395.15C426.31 400.77 430.15 404.44 434.42 405.46L435.65 405.76V392.43L434.62 392.47ZM452.42 395.47C451.653 397.172 450.729 398.799 449.66 400.33L450.99 401.76C452.95 400.58 454.757 399.163 456.37 397.54L457.37 396.54L456.08 395.93C455.33 395.58 454.52 395.25 453.66 394.93L452.8 394.62L452.42 395.47ZM420 395C419.15 395.31 418.34 395.64 417.59 396L416.3 396.6L417.3 397.6C418.913 399.223 420.72 400.64 422.68 401.82L424.02 400.39C422.944 398.862 422.016 397.235 421.25 395.53L420.87 394.7L420 395ZM409.39 380.46C409.786 385.33 411.477 390.005 414.29 394L414.8 394.72L415.58 394.31C416.715 393.716 417.892 393.205 419.1 392.78L420.01 392.45L419.71 391.53C418.555 387.887 417.883 384.108 417.71 380.29L417.66 379.29H409.24L409.39 380.46ZM455.93 380.34C455.762 384.159 455.09 387.938 453.93 391.58L453.64 392.5L454.55 392.83C455.757 393.259 456.933 393.77 458.07 394.36L458.84 394.76L459.35 394.05C462.183 390.044 463.886 385.35 464.28 380.46L464.37 379.38H456L455.93 380.34ZM420.13 380.43C420.289 384 420.917 387.534 422 390.94L422.28 391.83L423.18 391.61C426.963 390.721 430.826 390.219 434.71 390.11H435.71V379.37H420.11L420.13 380.43ZM438 390.08H439C442.884 390.188 446.747 390.69 450.53 391.58L451.43 391.8L451.72 390.91C452.791 387.498 453.416 383.962 453.58 380.39L453.63 379.34H438V390.08ZM458.08 362.08C456.942 362.668 455.766 363.179 454.56 363.61L453.65 363.94L453.94 364.86C455.101 368.502 455.773 372.281 455.94 376.1V377.05H464.36L464.27 375.97C463.862 371.087 462.164 366.401 459.35 362.39L458.85 361.67L458.08 362.08ZM450.5 364.82C446.727 365.699 442.873 366.188 439 366.28H438V377H453.6L453.55 376C453.389 372.428 452.764 368.891 451.69 365.48L451.4 364.6L450.5 364.82ZM421.97 365.49C420.891 368.896 420.265 372.43 420.11 376L420.05 377H435.65V366.31H434.65C430.766 366.205 426.903 365.706 423.12 364.82L422.22 364.6L421.97 365.49ZM414.29 362.39C411.475 366.399 409.78 371.087 409.38 375.97L409.29 377.05H417.7L417.75 376.1C417.922 372.282 418.594 368.503 419.75 364.86L420.05 363.94L419.14 363.61C417.933 363.181 416.757 362.669 415.62 362.08L414.84 361.67L414.29 362.39ZM438 364H439C442.469 363.894 445.921 363.466 449.31 362.72L450.52 362.44L449.99 361.31C447.3 355.69 443.47 352.03 439.2 351L437.96 350.71L438 364ZM434.42 351C430.15 352 426.31 355.69 423.63 361.31L423.09 362.44L424.31 362.72C427.699 363.467 431.151 363.896 434.62 364H435.62V350.64L434.42 351ZM422.71 354.59C420.722 355.78 418.894 357.218 417.27 358.87L416.27 359.87L417.55 360.47C418.31 360.82 419.13 361.16 419.98 361.47L420.85 361.78L421.23 360.95C421.991 359.214 422.918 357.556 424 356L422.71 354.59ZM449.61 356.02C450.7 357.568 451.641 359.215 452.42 360.94L452.81 361.78L453.67 361.47C454.52 361.17 455.34 360.83 456.1 360.47L457.38 359.87L456.38 358.87C454.752 357.218 452.921 355.78 450.93 354.59L449.61 356.02Z" fill="#EBEBEB"/>
<path d="M359.41 171.29C354.784 171.18 350.385 169.266 347.153 165.956C343.92 162.645 342.111 158.202 342.111 153.575C342.111 148.949 343.92 144.505 347.153 141.195C350.385 137.885 354.784 135.97 359.41 135.86H359.55C364.175 135.97 368.574 137.885 371.807 141.195C375.039 144.505 376.849 148.949 376.849 153.575C376.849 158.202 375.039 162.645 371.807 165.956C368.574 169.266 364.175 171.18 359.55 171.29H359.37H359.41ZM360.18 169.9L360.91 169.73C363.44 169.12 365.71 166.95 367.3 163.62L367.62 162.95L366.9 162.79C364.892 162.342 362.846 162.088 360.79 162.03H360.18V169.9ZM358.18 162.03C356.127 162.088 354.084 162.342 352.08 162.79L351.35 162.95L351.67 163.62C353.27 166.95 355.54 169.12 358.07 169.73L358.8 169.9V162L358.18 162.03ZM368.74 163.84C368.28 164.847 367.731 165.811 367.1 166.72L367.89 167.57C369.047 166.868 370.115 166.029 371.07 165.07L371.67 164.47L370.91 164.11C370.46 163.9 369.98 163.71 369.47 163.53L368.96 163.34L368.74 163.84ZM349.51 163.52C349.01 163.7 348.51 163.9 348.08 164.11L347.32 164.47L347.91 165.07C348.871 166.024 349.942 166.859 351.1 167.56L351.89 166.72C351.259 165.811 350.71 164.847 350.25 163.84L350.03 163.34L349.51 163.52ZM343.22 154.91C343.461 157.805 344.469 160.584 346.14 162.96L346.44 163.38L346.9 163.14C347.576 162.792 348.274 162.489 348.99 162.23L349.53 162.04L349.35 161.5C348.678 159.34 348.288 157.101 348.19 154.84V154.27H343.19L343.22 154.91ZM370.8 154.84C370.704 157.102 370.31 159.341 369.63 161.5L369.46 162.04L370 162.24C370.717 162.491 371.415 162.792 372.09 163.14L372.54 163.38L372.84 162.96C374.519 160.588 375.528 157.807 375.76 154.91L375.82 154.27H370.82L370.8 154.84ZM349.59 154.84C349.686 156.956 350.056 159.05 350.69 161.07L350.86 161.6L351.39 161.47C353.631 160.947 355.919 160.648 358.22 160.58H358.8V154.23H349.56L349.59 154.84ZM360.19 160.57H360.76C363.064 160.638 365.355 160.936 367.6 161.46L368.13 161.59L368.3 161.06C368.934 159.04 369.304 156.946 369.4 154.83V154.21H360.16L360.19 160.57ZM372.08 144C371.405 144.352 370.707 144.656 369.99 144.91L369.45 145.11L369.62 145.65C370.3 147.809 370.694 150.049 370.79 152.31V152.88H375.79L375.74 152.24C375.491 149.364 374.487 146.604 372.83 144.24L372.53 143.81L372.08 144ZM367.59 145.63C365.347 146.161 363.054 146.456 360.75 146.51H360.18V152.86H369.42V152.23C369.322 150.115 368.952 148.021 368.32 146L368.15 145.48L367.59 145.63ZM350.68 146.02C350.048 148.041 349.678 150.135 349.58 152.25V152.88H358.82V146.53H358.24C355.939 146.47 353.651 146.176 351.41 145.65L350.88 145.52L350.68 146.02ZM346.13 144.19C344.473 146.554 343.469 149.314 343.22 152.19L343.17 152.83H348.17V152.26C348.268 150 348.658 147.761 349.33 145.6L349.51 145.06L348.97 144.86C348.253 144.606 347.554 144.302 346.88 143.95L346.42 143.71L346.13 144.19ZM360.18 145.19H360.79C362.846 145.128 364.891 144.874 366.9 144.43L367.62 144.27L367.3 143.6C365.71 140.27 363.44 138.1 360.91 137.49L360.18 137.31V145.19ZM358.06 137.47C355.53 138.08 353.26 140.25 351.66 143.58L351.34 144.25L352.07 144.41C354.075 144.853 356.117 145.108 358.17 145.17H358.79V137.27L358.06 137.47ZM351.12 139.59C349.941 140.299 348.856 141.152 347.89 142.13L347.3 142.73L348.06 143.08C348.51 143.29 349 143.49 349.5 143.67L350.02 143.86L350.24 143.36C350.705 142.341 351.264 141.367 351.91 140.45L351.12 139.59ZM367.06 140.44C367.703 141.361 368.262 142.339 368.73 143.36L368.95 143.85L369.46 143.67C369.97 143.49 370.46 143.29 370.9 143.08L371.66 142.73L371.07 142.13C370.11 141.149 369.028 140.295 367.85 139.59L367.06 140.44Z" fill="#EBEBEB"/>
<path d="M315 457.56C422.082 457.56 508.89 452.492 508.89 446.24C508.89 439.988 422.082 434.92 315 434.92C207.917 434.92 121.11 439.988 121.11 446.24C121.11 452.492 207.917 457.56 315 457.56Z" fill="#F5F5F5"/>
<path d="M408.29 339.83V195.87H221.19V339.83H247.57V436.58L240.46 439.11V441.73H262.93V439.11L255.81 436.58V339.83H377.58V436.58L370.47 439.11V441.73H392.93V439.11L385.82 436.58V339.83H408.29Z" fill="#263238"/>
<path d="M405.83 197.87H223.66V335.24H405.83V197.87Z" fill="#142C52"/>
<path opacity="0.9" d="M405.83 197.87H223.66V335.24H405.83V197.87Z" fill="white"/>
<path d="M355.42 280.98H349.68V286.72H355.42V280.98Z" fill="#263238"/>
<path d="M355.42 297.49H349.68V303.23H355.42V297.49Z" fill="#263238"/>
<path d="M355.42 314H349.68V319.74H355.42V314Z" fill="#142C52"/>
<path opacity="0.7" d="M355.42 297.49H349.68V303.23H355.42V297.49Z" fill="white"/>
<path opacity="0.1" d="M336.66 221.09C336.726 221.09 336.79 221.063 336.837 221.016C336.884 220.97 336.91 220.906 336.91 220.84C336.91 220.773 336.884 220.71 336.837 220.663C336.79 220.616 336.726 220.59 336.66 220.59H334.36V211.21H336.66C336.726 211.21 336.79 211.183 336.837 211.136C336.884 211.09 336.91 211.026 336.91 210.96C336.91 210.893 336.884 210.83 336.837 210.783C336.79 210.736 336.726 210.71 336.66 210.71H334.36V208.14C334.36 208.073 334.334 208.01 334.287 207.963C334.24 207.916 334.176 207.89 334.11 207.89C334.044 207.89 333.98 207.916 333.933 207.963C333.886 208.01 333.86 208.073 333.86 208.14V210.71H323.63V208.14C323.63 208.073 323.604 208.01 323.557 207.963C323.51 207.916 323.446 207.89 323.38 207.89C323.314 207.89 323.25 207.916 323.203 207.963C323.156 208.01 323.13 208.073 323.13 208.14V210.71H312.91V208.14C312.91 208.073 312.884 208.01 312.837 207.963C312.79 207.916 312.726 207.89 312.66 207.89C312.594 207.89 312.53 207.916 312.483 207.963C312.436 208.01 312.41 208.073 312.41 208.14V210.71H302.18V208.14C302.18 208.073 302.154 208.01 302.107 207.963C302.06 207.916 301.996 207.89 301.93 207.89C301.864 207.89 301.8 207.916 301.753 207.963C301.706 208.01 301.68 208.073 301.68 208.14V210.71H291.46V208.14C291.46 208.073 291.434 208.01 291.387 207.963C291.34 207.916 291.276 207.89 291.21 207.89C291.144 207.89 291.08 207.916 291.033 207.963C290.986 208.01 290.96 208.073 290.96 208.14V210.71H280.74V208.14C280.74 208.073 280.714 208.01 280.667 207.963C280.62 207.916 280.556 207.89 280.49 207.89C280.424 207.89 280.36 207.916 280.313 207.963C280.266 208.01 280.24 208.073 280.24 208.14V210.71H270V208.14C270 208.073 269.974 208.01 269.927 207.963C269.88 207.916 269.816 207.89 269.75 207.89C269.684 207.89 269.62 207.916 269.573 207.963C269.526 208.01 269.5 208.073 269.5 208.14V210.71H259.29V208.14C259.29 208.073 259.264 208.01 259.217 207.963C259.17 207.916 259.106 207.89 259.04 207.89C258.974 207.89 258.91 207.916 258.863 207.963C258.816 208.01 258.79 208.073 258.79 208.14V210.71H248.57V208.14C248.57 208.073 248.544 208.01 248.497 207.963C248.45 207.916 248.386 207.89 248.32 207.89C248.254 207.89 248.19 207.916 248.143 207.963C248.096 208.01 248.07 208.073 248.07 208.14V210.71H238V211.21H248.09V220.59H238V221.09H248.09V230.48H238V230.98H248.09V240.36H238V240.86H248.09V250.25H238V250.75H248.09V260.83C248.09 260.896 248.116 260.96 248.163 261.006C248.21 261.053 248.274 261.08 248.34 261.08C248.406 261.08 248.47 261.053 248.517 261.006C248.564 260.96 248.59 260.896 248.59 260.83V250.75H258.81V260.83C258.81 260.896 258.836 260.96 258.883 261.006C258.93 261.053 258.994 261.08 259.06 261.08C259.126 261.08 259.19 261.053 259.237 261.006C259.284 260.96 259.31 260.896 259.31 260.83V250.75H269.54V260.83C269.54 260.896 269.566 260.96 269.613 261.006C269.66 261.053 269.724 261.08 269.79 261.08C269.856 261.08 269.92 261.053 269.967 261.006C270.014 260.96 270.04 260.896 270.04 260.83V250.75H280.26V260.83C280.26 260.896 280.286 260.96 280.333 261.006C280.38 261.053 280.444 261.08 280.51 261.08C280.576 261.08 280.64 261.053 280.687 261.006C280.734 260.96 280.76 260.896 280.76 260.83V250.75H291V260.83C291 260.896 291.026 260.96 291.073 261.006C291.12 261.053 291.184 261.08 291.25 261.08C291.316 261.08 291.38 261.053 291.427 261.006C291.474 260.96 291.5 260.896 291.5 260.83V250.75H301.72V260.83C301.72 260.896 301.746 260.96 301.793 261.006C301.84 261.053 301.904 261.08 301.97 261.08C302.036 261.08 302.1 261.053 302.147 261.006C302.194 260.96 302.22 260.896 302.22 260.83V250.75H312.45V260.83C312.45 260.896 312.476 260.96 312.523 261.006C312.57 261.053 312.634 261.08 312.7 261.08C312.766 261.08 312.83 261.053 312.877 261.006C312.924 260.96 312.95 260.896 312.95 260.83V250.75H323.17V260.83C323.17 260.896 323.196 260.96 323.243 261.006C323.29 261.053 323.354 261.08 323.42 261.08C323.486 261.08 323.55 261.053 323.597 261.006C323.644 260.96 323.67 260.896 323.67 260.83V250.75H333.9V260.83C333.9 260.896 333.926 260.96 333.973 261.006C334.02 261.053 334.084 261.08 334.15 261.08C334.216 261.08 334.28 261.053 334.327 261.006C334.374 260.96 334.4 260.896 334.4 260.83V250.75H336.7C336.766 250.75 336.83 250.723 336.877 250.676C336.924 250.63 336.95 250.566 336.95 250.5C336.95 250.433 336.924 250.37 336.877 250.323C336.83 250.276 336.766 250.25 336.7 250.25H334.4V240.86H336.7C336.766 240.86 336.83 240.833 336.877 240.786C336.924 240.74 336.95 240.676 336.95 240.61C336.95 240.543 336.924 240.48 336.877 240.433C336.83 240.386 336.766 240.36 336.7 240.36H334.4V231H336.7C336.766 231 336.83 230.973 336.877 230.926C336.924 230.88 336.95 230.816 336.95 230.75C336.95 230.683 336.924 230.62 336.877 230.573C336.83 230.526 336.766 230.5 336.7 230.5H334.4V221.11L336.66 221.09ZM258.79 250.25H248.57V240.86H258.79V250.25ZM258.79 240.36H248.57V231H258.79V240.36ZM258.79 230.48H248.57V221.09H258.79V230.48ZM258.79 220.59H248.57V211.21H258.79V220.59ZM269.52 250.25H259.29V240.86H269.52V250.25ZM269.52 240.36H259.29V231H269.52V240.36ZM269.52 230.48H259.29V221.09H269.52V230.48ZM269.52 220.59H259.29V211.21H269.52V220.59ZM280.24 250.25H270V240.86H280.22L280.24 250.25ZM280.24 240.36H270V231H280.22L280.24 240.36ZM280.24 230.48H270V221.09H280.22L280.24 230.48ZM280.24 220.59H270V211.21H280.22L280.24 220.59ZM291 250.25H280.74V240.86H291V250.25ZM291 240.36H280.74V231H291V240.36ZM291 230.48H280.74V221.09H291V230.48ZM291 220.59H280.74V211.21H291V220.59ZM301.72 250.25H291.46V240.86H301.68L301.72 250.25ZM301.72 240.36H291.46V231H301.68L301.72 240.36ZM301.72 230.48H291.46V221.09H301.68L301.72 230.48ZM301.72 220.59H291.46V211.21H301.68L301.72 220.59ZM312.45 250.25H302.18V240.86H312.41L312.45 250.25ZM312.45 240.36H302.18V231H312.41L312.45 240.36ZM312.45 230.48H302.18V221.09H312.41L312.45 230.48ZM312.45 220.59H302.18V211.21H312.41L312.45 220.59ZM323.17 250.25H312.91V240.86H323.13L323.17 250.25ZM323.17 240.36H312.91V231H323.13L323.17 240.36ZM323.17 230.48H312.91V221.09H323.13L323.17 230.48ZM323.17 220.59H312.91V211.21H323.13L323.17 220.59ZM333.9 250.25H323.63V240.86H333.86L333.9 250.25ZM333.9 240.36H323.63V231H333.86L333.9 240.36ZM333.9 230.48H323.63V221.09H333.86L333.9 230.48ZM333.9 220.59H323.63V211.21H333.86L333.9 220.59Z" fill="black"/>
<path d="M254.23 245.28H248.02V260.56H254.23V245.28Z" fill="#142C52"/>
<path opacity="0.2" d="M254.24 245.28H252.28V260.56H254.24V245.28Z" fill="white"/>
<path d="M270.86 238.76H264.65V260.56H270.86V238.76Z" fill="#142C52"/>
<path opacity="0.2" d="M270.86 238.76H268.9V260.56H270.86V238.76Z" fill="white"/>
<path d="M287.48 242.4H281.27V260.55H287.48V242.4Z" fill="#142C52"/>
<path opacity="0.2" d="M287.49 242.4H285.53V260.55H287.49V242.4Z" fill="white"/>
<path d="M304.11 235.39H297.9V260.56H304.11V235.39Z" fill="#142C52"/>
<path opacity="0.2" d="M304.11 235.39H302.15V260.56H304.11V235.39Z" fill="white"/>
<path d="M320.74 222.55H314.53V260.56H320.74V222.55Z" fill="#142C52"/>
<path opacity="0.2" d="M320.74 222.55H318.78V260.56H320.74V222.55Z" fill="white"/>
<path d="M340.93 261.33H238.05C237.917 261.33 237.79 261.277 237.696 261.184C237.602 261.09 237.55 260.963 237.55 260.83V206.46C237.55 206.327 237.602 206.2 237.696 206.106C237.79 206.013 237.917 205.96 238.05 205.96C238.182 205.96 238.31 206.013 238.403 206.106C238.497 206.2 238.55 206.327 238.55 206.46V260.33H340.93C341.062 260.33 341.19 260.383 341.283 260.476C341.377 260.57 341.43 260.697 341.43 260.83C341.43 260.963 341.377 261.09 341.283 261.184C341.19 261.277 341.062 261.33 340.93 261.33Z" fill="#263238"/>
<path d="M240.7 248C240.613 248.001 240.529 247.979 240.453 247.937C240.378 247.895 240.315 247.834 240.27 247.76C240.204 247.645 240.186 247.508 240.219 247.379C240.253 247.25 240.336 247.139 240.45 247.07L250.87 240.87L266.69 234.32C266.784 234.291 266.885 234.291 266.98 234.32L284.33 237.93L300.74 231L326.2 211.5C326.307 211.423 326.439 211.391 326.57 211.409C326.7 211.428 326.819 211.497 326.9 211.6C326.98 211.705 327.016 211.838 326.999 211.969C326.982 212.1 326.914 212.219 326.81 212.3L301.3 231.79C301.265 231.814 301.228 231.834 301.19 231.85L284.57 238.85C284.475 238.88 284.374 238.88 284.28 238.85L266.93 235.24L251.32 241.7L241 247.91C240.913 247.973 240.807 248.005 240.7 248Z" fill="#263238"/>
<g opacity="0.5">
<path d="M340.93 261.33H238.05C237.917 261.33 237.79 261.277 237.696 261.184C237.602 261.09 237.55 260.963 237.55 260.83V206.46C237.55 206.327 237.602 206.2 237.696 206.106C237.79 206.013 237.917 205.96 238.05 205.96C238.182 205.96 238.31 206.013 238.403 206.106C238.497 206.2 238.55 206.327 238.55 206.46V260.33H340.93C341.062 260.33 341.19 260.383 341.283 260.476C341.377 260.57 341.43 260.697 341.43 260.83C341.43 260.963 341.377 261.09 341.283 261.184C341.19 261.277 341.062 261.33 340.93 261.33Z" fill="white"/>
</g>
<path d="M328.31 210.49L323.47 212.24L325.38 214.72L328.31 210.49Z" fill="#263238"/>
<path d="M369.41 235.28L375.62 255.67C372.391 256.653 368.974 256.855 365.652 256.26C362.329 255.665 359.195 254.289 356.508 252.247C353.821 250.204 351.657 247.552 350.195 244.51C348.733 241.468 348.014 238.122 348.097 234.747C348.181 231.373 349.064 228.067 350.675 225.1C352.286 222.134 354.578 219.592 357.363 217.685C360.147 215.777 363.345 214.558 366.693 214.128C370.041 213.698 373.443 214.069 376.62 215.21L369.41 235.28Z" fill="#142C52"/>
<path d="M369.41 235.28L376.7 215.28C379.422 216.258 381.917 217.781 384.032 219.754C386.146 221.728 387.837 224.112 389 226.76L369.41 235.28Z" fill="#142C52"/>
<path d="M369.41 235.281L389 226.851C390.185 229.598 390.777 232.565 390.739 235.556C390.701 238.548 390.034 241.499 388.78 244.216C387.527 246.932 385.715 249.355 383.463 251.325C381.211 253.295 378.569 254.769 375.71 255.651L369.41 235.281Z" fill="#142C52"/>
<path opacity="0.7" d="M369.41 235.28L375.62 255.67C372.391 256.653 368.974 256.855 365.652 256.26C362.329 255.665 359.195 254.289 356.508 252.247C353.821 250.204 351.657 247.552 350.195 244.51C348.733 241.468 348.014 238.122 348.097 234.747C348.181 231.373 349.064 228.067 350.675 225.1C352.286 222.134 354.578 219.592 357.363 217.685C360.147 215.777 363.345 214.558 366.693 214.128C370.041 213.698 373.443 214.069 376.62 215.21L369.41 235.28Z" fill="white"/>
<path opacity="0.4" d="M369.41 235.281L389 226.851C390.185 229.598 390.777 232.565 390.739 235.556C390.701 238.548 390.034 241.499 388.78 244.216C387.527 246.932 385.715 249.355 383.463 251.325C381.211 253.295 378.569 254.769 375.71 255.651L369.41 235.281Z" fill="white"/>
<path opacity="0.1" d="M336.66 287.1C336.726 287.1 336.79 287.073 336.837 287.026C336.884 286.98 336.91 286.916 336.91 286.85C336.91 286.783 336.884 286.72 336.837 286.673C336.79 286.626 336.726 286.6 336.66 286.6H334.36V277.21H336.66C336.726 277.21 336.79 277.183 336.837 277.136C336.884 277.09 336.91 277.026 336.91 276.96C336.91 276.893 336.884 276.83 336.837 276.783C336.79 276.736 336.726 276.71 336.66 276.71H334.36V274.14C334.36 274.073 334.334 274.01 334.287 273.963C334.24 273.916 334.176 273.89 334.11 273.89C334.044 273.89 333.98 273.916 333.933 273.963C333.886 274.01 333.86 274.073 333.86 274.14V276.71H323.63V274.14C323.63 274.073 323.604 274.01 323.557 273.963C323.51 273.916 323.446 273.89 323.38 273.89C323.314 273.89 323.25 273.916 323.203 273.963C323.156 274.01 323.13 274.073 323.13 274.14V276.71H312.91V274.14C312.91 274.073 312.884 274.01 312.837 273.963C312.79 273.916 312.726 273.89 312.66 273.89C312.594 273.89 312.53 273.916 312.483 273.963C312.436 274.01 312.41 274.073 312.41 274.14V276.71H302.18V274.14C302.18 274.073 302.154 274.01 302.107 273.963C302.06 273.916 301.996 273.89 301.93 273.89C301.864 273.89 301.8 273.916 301.753 273.963C301.706 274.01 301.68 274.073 301.68 274.14V276.71H291.46V274.14C291.46 274.073 291.434 274.01 291.387 273.963C291.34 273.916 291.276 273.89 291.21 273.89C291.144 273.89 291.08 273.916 291.033 273.963C290.986 274.01 290.96 274.073 290.96 274.14V276.71H280.74V274.14C280.74 274.073 280.714 274.01 280.667 273.963C280.62 273.916 280.556 273.89 280.49 273.89C280.424 273.89 280.36 273.916 280.313 273.963C280.266 274.01 280.24 274.073 280.24 274.14V276.71H270V274.14C270 274.073 269.974 274.01 269.927 273.963C269.88 273.916 269.816 273.89 269.75 273.89C269.684 273.89 269.62 273.916 269.573 273.963C269.526 274.01 269.5 274.073 269.5 274.14V276.71H259.29V274.14C259.29 274.073 259.264 274.01 259.217 273.963C259.17 273.916 259.106 273.89 259.04 273.89C258.974 273.89 258.91 273.916 258.863 273.963C258.816 274.01 258.79 274.073 258.79 274.14V276.71H248.57V274.14C248.57 274.073 248.544 274.01 248.497 273.963C248.45 273.916 248.386 273.89 248.32 273.89C248.254 273.89 248.19 273.916 248.143 273.963C248.096 274.01 248.07 274.073 248.07 274.14V276.71H238V277.21H248.09V286.6H238V287.1H248.09V296.48H238V296.98H248.09V306.37H238V306.87H248.09V316.25H238V316.75H248.09V326.84C248.09 326.906 248.116 326.97 248.163 327.016C248.21 327.063 248.274 327.09 248.34 327.09C248.406 327.09 248.47 327.063 248.517 327.016C248.564 326.97 248.59 326.906 248.59 326.84V316.75H258.81V326.84C258.81 326.906 258.836 326.97 258.883 327.016C258.93 327.063 258.994 327.09 259.06 327.09C259.126 327.09 259.19 327.063 259.237 327.016C259.284 326.97 259.31 326.906 259.31 326.84V316.75H269.54V326.84C269.54 326.906 269.566 326.97 269.613 327.016C269.66 327.063 269.724 327.09 269.79 327.09C269.856 327.09 269.92 327.063 269.967 327.016C270.014 326.97 270.04 326.906 270.04 326.84V316.75H280.26V326.84C280.26 326.906 280.286 326.97 280.333 327.016C280.38 327.063 280.444 327.09 280.51 327.09C280.576 327.09 280.64 327.063 280.687 327.016C280.734 326.97 280.76 326.906 280.76 326.84V316.75H291V326.84C291 326.906 291.026 326.97 291.073 327.016C291.12 327.063 291.184 327.09 291.25 327.09C291.316 327.09 291.38 327.063 291.427 327.016C291.474 326.97 291.5 326.906 291.5 326.84V316.75H301.72V326.84C301.72 326.906 301.746 326.97 301.793 327.016C301.84 327.063 301.904 327.09 301.97 327.09C302.036 327.09 302.1 327.063 302.147 327.016C302.194 326.97 302.22 326.906 302.22 326.84V316.75H312.45V326.84C312.45 326.906 312.476 326.97 312.523 327.016C312.57 327.063 312.634 327.09 312.7 327.09C312.766 327.09 312.83 327.063 312.877 327.016C312.924 326.97 312.95 326.906 312.95 326.84V316.75H323.17V326.84C323.17 326.906 323.196 326.97 323.243 327.016C323.29 327.063 323.354 327.09 323.42 327.09C323.486 327.09 323.55 327.063 323.597 327.016C323.644 326.97 323.67 326.906 323.67 326.84V316.75H333.9V326.84C333.9 326.906 333.926 326.97 333.973 327.016C334.02 327.063 334.084 327.09 334.15 327.09C334.216 327.09 334.28 327.063 334.327 327.016C334.374 326.97 334.4 326.906 334.4 326.84V316.75H336.7C336.766 316.75 336.83 316.723 336.877 316.676C336.924 316.63 336.95 316.566 336.95 316.5C336.95 316.433 336.924 316.37 336.877 316.323C336.83 316.276 336.766 316.25 336.7 316.25H334.4V306.87H336.7C336.766 306.87 336.83 306.843 336.877 306.796C336.924 306.75 336.95 306.686 336.95 306.62C336.95 306.553 336.924 306.49 336.877 306.443C336.83 306.396 336.766 306.37 336.7 306.37H334.4V297H336.7C336.766 297 336.83 296.973 336.877 296.926C336.924 296.88 336.95 296.816 336.95 296.75C336.95 296.683 336.924 296.62 336.877 296.573C336.83 296.526 336.766 296.5 336.7 296.5H334.4V287.1H336.66ZM258.79 316.25H248.57V306.87H258.79V316.25ZM258.79 306.37H248.57V297H258.79V306.37ZM258.79 296.48H248.57V287.1H258.79V296.48ZM258.79 286.6H248.57V277.21H258.79V286.6ZM269.52 316.25H259.29V306.87H269.52V316.25ZM269.52 306.37H259.29V297H269.52V306.37ZM269.52 296.48H259.29V287.1H269.52V296.48ZM269.52 286.6H259.29V277.21H269.52V286.6ZM280.24 316.25H270V306.87H280.22L280.24 316.25ZM280.24 306.37H270V297H280.22L280.24 306.37ZM280.24 296.48H270V287.1H280.22L280.24 296.48ZM280.24 286.6H270V277.21H280.22L280.24 286.6ZM291 316.25H280.74V306.87H291V316.25ZM291 306.37H280.74V297H291V306.37ZM291 296.48H280.74V287.1H291V296.48ZM291 286.6H280.74V277.21H291V286.6ZM301.72 316.25H291.46V306.87H301.68L301.72 316.25ZM301.72 306.37H291.46V297H301.68L301.72 306.37ZM301.72 296.48H291.46V287.1H301.68L301.72 296.48ZM301.72 286.6H291.46V277.21H301.68L301.72 286.6ZM312.45 316.25H302.18V306.87H312.41L312.45 316.25ZM312.45 306.37H302.18V297H312.41L312.45 306.37ZM312.45 296.48H302.18V287.1H312.41L312.45 296.48ZM312.45 286.6H302.18V277.21H312.41L312.45 286.6ZM323.17 316.25H312.91V306.87H323.13L323.17 316.25ZM323.17 306.37H312.91V297H323.13L323.17 306.37ZM323.17 296.48H312.91V287.1H323.13L323.17 296.48ZM323.17 286.6H312.91V277.21H323.13L323.17 286.6ZM333.9 316.25H323.63V306.87H333.86L333.9 316.25ZM333.9 306.37H323.63V297H333.86L333.9 306.37ZM333.9 296.48H323.63V287.1H333.86L333.9 296.48ZM333.9 286.6H323.63V277.21H333.86L333.9 286.6Z" fill="black"/>
<path d="M238 316.25C238 316.25 244.53 306.37 248.59 306.37C252.87 306.37 255.14 311.88 258.81 311.88C262.48 311.88 265.1 299.75 269.54 299.75C273.98 299.75 276.31 314.83 280.76 314.83C285.21 314.83 289.44 296.48 294.14 296.48C298.84 296.48 299.34 302.25 301.7 302.25C304.53 302.25 306.7 286.6 312.93 286.6C318.93 286.6 318.93 296.48 323.65 296.48C328.37 296.48 327.37 280.98 334.38 280.98V327.09H238.05L238 316.25Z" fill="#142C52"/>
<path opacity="0.4" d="M238 316.25C238 316.25 244.53 306.37 248.59 306.37C252.87 306.37 255.14 311.88 258.81 311.88C262.48 311.88 265.1 299.75 269.54 299.75C273.98 299.75 276.31 314.83 280.76 314.83C285.21 314.83 289.44 296.48 294.14 296.48C298.84 296.48 299.34 302.25 301.7 302.25C304.53 302.25 306.7 286.6 312.93 286.6C318.93 286.6 318.93 296.48 323.65 296.48C328.37 296.48 327.37 280.98 334.38 280.98V327.09H238.05L238 316.25Z" fill="white"/>
<path d="M238.4 316.53L237.56 315.98C237.83 315.56 244.29 305.87 248.56 305.87C250.97 305.87 252.72 307.41 254.41 308.87C255.85 310.14 257.2 311.34 258.78 311.34C260.36 311.34 261.78 308.61 263.18 305.97C265 302.65 266.88 299.21 269.51 299.21C272.14 299.21 273.76 303.01 275.57 307.04C277.09 310.44 278.83 314.29 280.73 314.29C282.63 314.29 284.83 309.67 286.73 305.59C289.11 300.59 291.36 295.94 294.06 295.94C297.06 295.94 298.5 298.07 299.63 299.78C300.32 300.78 300.91 301.71 301.63 301.71C302.35 301.71 303.63 298.81 304.54 296.48C306.42 291.84 308.76 286.06 312.85 286.06C316.32 286.06 317.94 289.06 319.37 291.71C320.6 293.98 321.66 295.94 323.57 295.94C325.32 295.94 326.25 292.94 327.24 289.69C328.57 285.36 330.08 280.44 334.3 280.44V281.44C330.82 281.44 329.48 285.79 328.19 289.99C327.1 293.56 326.06 296.99 323.57 296.99C321.08 296.99 319.75 294.57 318.49 292.23C317.13 289.71 315.72 287.11 312.85 287.11C309.43 287.11 307.23 292.54 305.46 296.91C304.09 300.3 303.1 302.76 301.63 302.76C300.37 302.76 299.63 301.6 298.79 300.38C297.79 298.79 296.55 296.99 294.06 296.99C291.99 296.99 289.68 301.82 287.63 306.08C285.35 310.84 283.19 315.34 280.68 315.34C278.17 315.34 276.42 311.53 274.6 307.5C273.08 304.11 271.35 300.26 269.46 300.26C267.57 300.26 265.61 303.57 264.01 306.5C262.41 309.43 260.78 312.39 258.73 312.39C256.68 312.39 255.21 311.01 253.73 309.67C252.25 308.33 250.58 306.88 248.55 306.88C245.46 306.87 240.17 313.84 238.4 316.53Z" fill="#142C52"/>
<path d="M258 319.55C257.893 319.56 257.786 319.56 257.68 319.55C255.33 319.27 254.04 316.45 252.99 314.18C252.677 313.447 252.316 312.736 251.91 312.05C250.85 310.45 249.66 309.71 248.37 309.86C246.37 310.1 244.64 311.76 243.09 313.22L242.42 313.85C241.02 315.14 239.65 316.5 238.37 317.91L237.63 317.24C238.94 315.81 240.32 314.42 241.74 313.11C241.96 312.92 242.17 312.71 242.4 312.5C243.98 311 245.95 309.14 248.26 308.87C249.92 308.66 251.48 309.58 252.74 311.5C253.181 312.224 253.569 312.98 253.9 313.76C254.84 315.76 256.01 318.34 257.8 318.56C259.59 318.78 261.6 315.44 262.73 313.44C262.94 313.05 263.14 312.71 263.31 312.44C263.98 311.34 264.63 310.23 265.31 309.12C266.42 307.22 267.58 305.24 268.82 303.37C269.797 301.88 270.869 300.453 272.03 299.1C273.7 297.17 275.3 296.19 276.8 296.18C277.399 296.192 277.988 296.339 278.522 296.609C279.057 296.879 279.525 297.266 279.89 297.74C281.447 299.691 282.668 301.888 283.5 304.24C284.093 305.764 284.799 307.241 285.61 308.66C285.923 309.258 286.389 309.761 286.96 310.12C287.89 310.59 288.96 309.8 289.66 309.04C291.281 307.229 292.712 305.255 293.93 303.15L294.25 302.64C294.39 302.41 294.54 302.16 294.69 301.89C295.69 300.18 297.09 297.82 299.33 297.76C300.76 297.76 301.82 299.03 302.81 300.3C303.95 301.75 304.71 302.6 305.63 302.3C306.026 302.114 306.37 301.832 306.63 301.48C308.289 299.349 309.636 296.992 310.63 294.48C311 293.66 311.36 292.84 311.74 292.04C311.969 291.519 312.268 291.031 312.63 290.59C312.897 290.237 313.251 289.96 313.658 289.784C314.065 289.609 314.51 289.542 314.95 289.59C316.95 289.92 318.46 293.2 319.33 295.17C319.45 295.43 319.55 295.66 319.64 295.84L319.77 296.12C320.66 297.98 321.58 299.91 323.06 300.43C323.497 300.552 323.953 300.586 324.403 300.529C324.853 300.473 325.287 300.327 325.68 300.1L326.56 299.67C329.11 298.42 331.31 297.34 334.47 297.34V298.34C331.54 298.34 329.53 299.34 327 300.56L326.11 301C325.601 301.289 325.039 301.47 324.458 301.534C323.877 301.597 323.289 301.542 322.73 301.37C320.85 300.71 319.8 298.5 318.87 296.55L318.74 296.27C318.65 296.08 318.54 295.85 318.42 295.57C317.73 294.03 316.31 290.82 314.79 290.57C314.514 290.556 314.239 290.611 313.991 290.732C313.742 290.853 313.529 291.035 313.37 291.26C313.074 291.632 312.832 292.042 312.65 292.48C312.26 293.27 311.91 294.08 311.55 294.88C310.534 297.479 309.154 299.92 307.45 302.13C307.083 302.616 306.598 302.998 306.04 303.24C304.36 303.86 303.16 302.33 302.04 300.97C301.2 299.91 300.34 298.81 299.39 298.81C297.71 298.81 296.54 300.81 295.6 302.45C295.43 302.73 295.28 302.99 295.13 303.22L294.82 303.73C293.562 305.894 292.088 307.925 290.42 309.79C289.06 311.22 287.71 311.66 286.55 311.07C285.808 310.63 285.203 309.993 284.8 309.23C283.961 307.77 283.232 306.249 282.62 304.68C281.832 302.428 280.669 300.325 279.18 298.46C278.908 298.099 278.56 297.802 278.161 297.59C277.762 297.377 277.321 297.255 276.87 297.23C275.67 297.23 274.32 298.11 272.87 299.8C271.742 301.122 270.7 302.515 269.75 303.97C268.51 305.82 267.37 307.78 266.26 309.68C265.61 310.79 264.95 311.91 264.26 313.01C264.1 313.28 263.91 313.62 263.7 314.01C262.3 316.18 260.4 319.55 258 319.55Z" fill="#263238"/>
<path opacity="0.7" d="M258 319.55C257.893 319.56 257.786 319.56 257.68 319.55C255.33 319.27 254.04 316.45 252.99 314.18C252.677 313.447 252.316 312.736 251.91 312.05C250.85 310.45 249.66 309.71 248.37 309.86C246.37 310.1 244.64 311.76 243.09 313.22L242.42 313.85C241.02 315.14 239.65 316.5 238.37 317.91L237.63 317.24C238.94 315.81 240.32 314.42 241.74 313.11C241.96 312.92 242.17 312.71 242.4 312.5C243.98 311 245.95 309.14 248.26 308.87C249.92 308.66 251.48 309.58 252.74 311.5C253.181 312.224 253.569 312.98 253.9 313.76C254.84 315.76 256.01 318.34 257.8 318.56C259.59 318.78 261.6 315.44 262.73 313.44C262.94 313.05 263.14 312.71 263.31 312.44C263.98 311.34 264.63 310.23 265.31 309.12C266.42 307.22 267.58 305.24 268.82 303.37C269.797 301.88 270.869 300.453 272.03 299.1C273.7 297.17 275.3 296.19 276.8 296.18C277.399 296.192 277.988 296.339 278.522 296.609C279.057 296.879 279.525 297.266 279.89 297.74C281.447 299.691 282.668 301.888 283.5 304.24C284.093 305.764 284.799 307.241 285.61 308.66C285.923 309.258 286.389 309.761 286.96 310.12C287.89 310.59 288.96 309.8 289.66 309.04C291.281 307.229 292.712 305.255 293.93 303.15L294.25 302.64C294.39 302.41 294.54 302.16 294.69 301.89C295.69 300.18 297.09 297.82 299.33 297.76C300.76 297.76 301.82 299.03 302.81 300.3C303.95 301.75 304.71 302.6 305.63 302.3C306.026 302.114 306.37 301.832 306.63 301.48C308.289 299.349 309.636 296.992 310.63 294.48C311 293.66 311.36 292.84 311.74 292.04C311.969 291.519 312.268 291.031 312.63 290.59C312.897 290.237 313.251 289.96 313.658 289.784C314.065 289.609 314.51 289.542 314.95 289.59C316.95 289.92 318.46 293.2 319.33 295.17C319.45 295.43 319.55 295.66 319.64 295.84L319.77 296.12C320.66 297.98 321.58 299.91 323.06 300.43C323.497 300.552 323.953 300.586 324.403 300.529C324.853 300.473 325.287 300.327 325.68 300.1L326.56 299.67C329.11 298.42 331.31 297.34 334.47 297.34V298.34C331.54 298.34 329.53 299.34 327 300.56L326.11 301C325.601 301.289 325.039 301.47 324.458 301.534C323.877 301.597 323.289 301.542 322.73 301.37C320.85 300.71 319.8 298.5 318.87 296.55L318.74 296.27C318.65 296.08 318.54 295.85 318.42 295.57C317.73 294.03 316.31 290.82 314.79 290.57C314.514 290.556 314.239 290.611 313.991 290.732C313.742 290.853 313.529 291.035 313.37 291.26C313.074 291.632 312.832 292.042 312.65 292.48C312.26 293.27 311.91 294.08 311.55 294.88C310.534 297.479 309.154 299.92 307.45 302.13C307.083 302.616 306.598 302.998 306.04 303.24C304.36 303.86 303.16 302.33 302.04 300.97C301.2 299.91 300.34 298.81 299.39 298.81C297.71 298.81 296.54 300.81 295.6 302.45C295.43 302.73 295.28 302.99 295.13 303.22L294.82 303.73C293.562 305.894 292.088 307.925 290.42 309.79C289.06 311.22 287.71 311.66 286.55 311.07C285.808 310.63 285.203 309.993 284.8 309.23C283.961 307.77 283.232 306.249 282.62 304.68C281.832 302.428 280.669 300.325 279.18 298.46C278.908 298.099 278.56 297.802 278.161 297.59C277.762 297.377 277.321 297.255 276.87 297.23C275.67 297.23 274.32 298.11 272.87 299.8C271.742 301.122 270.7 302.515 269.75 303.97C268.51 305.82 267.37 307.78 266.26 309.68C265.61 310.79 264.95 311.91 264.26 313.01C264.1 313.28 263.91 313.62 263.7 314.01C262.3 316.18 260.4 319.55 258 319.55Z" fill="white"/>
<path d="M238.31 316.631L237.65 315.881C237.87 315.681 243.11 311.061 248 311.061C250.023 311.086 252.021 311.511 253.88 312.311C255.429 312.996 257.097 313.37 258.79 313.411C260.79 313.411 262.6 310.801 264.35 308.271C266.1 305.741 267.64 303.531 269.52 303.531C271.4 303.531 272.95 305.291 274.64 307.151C276.33 309.011 278.2 311.061 280.24 311.061C282.28 311.061 285.03 307.881 287.52 305.061C290.22 302.061 292.76 299.151 294.89 299.151C295.857 299.185 296.808 299.414 297.684 299.825C298.56 300.235 299.345 300.819 299.99 301.541C300.74 302.221 301.33 302.761 301.99 302.761C302.51 302.501 303.75 299.231 304.74 296.601C307.06 290.501 309.68 283.601 312.95 283.601C315.85 283.601 317.95 287.931 319.95 292.131C321.37 295.041 322.95 298.351 324.26 298.351C325.57 298.351 326.87 296.421 328.19 294.351C329.81 291.851 331.64 289.031 334.3 289.031H334.37V290.031C332.23 290.031 330.6 292.481 329.04 294.891C327.48 297.301 326.17 299.311 324.27 299.311C322.37 299.311 320.83 296.171 319.06 292.521C317.29 288.871 315.2 284.521 312.93 284.521C310.35 284.521 307.53 291.971 305.66 296.901C303.79 301.831 302.99 303.701 301.97 303.701C300.941 303.548 300.004 303.021 299.34 302.221C298.783 301.586 298.103 301.07 297.342 300.704C296.581 300.338 295.754 300.129 294.91 300.091C293.23 300.091 290.72 302.921 288.29 305.671C285.4 308.921 282.67 312.001 280.29 312.001C277.91 312.001 275.85 309.841 273.95 307.761C272.41 306.071 270.95 304.471 269.57 304.471C268.19 304.471 266.69 306.671 265.22 308.781C263.32 311.521 261.36 314.351 258.84 314.351C257.028 314.31 255.241 313.916 253.58 313.191C251.832 312.435 249.953 312.031 248.05 312.001C243.49 312.061 238.36 316.581 238.31 316.631Z" fill="#263238"/>
<path d="M340.93 327.34H238.05C237.917 327.34 237.79 327.287 237.696 327.193C237.602 327.1 237.55 326.973 237.55 326.84V272.46C237.55 272.327 237.602 272.2 237.696 272.106C237.79 272.013 237.917 271.96 238.05 271.96C238.182 271.96 238.31 272.013 238.403 272.106C238.497 272.2 238.55 272.327 238.55 272.46V326.34H340.93C341.062 326.34 341.19 326.393 341.283 326.486C341.377 326.58 341.43 326.707 341.43 326.84C341.43 326.973 341.377 327.1 341.283 327.193C341.19 327.287 341.062 327.34 340.93 327.34Z" fill="#263238"/>
<g opacity="0.5">
<path d="M340.93 327.34H238.05C237.917 327.34 237.79 327.287 237.696 327.193C237.602 327.1 237.55 326.973 237.55 326.84V272.46C237.55 272.327 237.602 272.2 237.696 272.106C237.79 272.013 237.917 271.96 238.05 271.96C238.182 271.96 238.31 272.013 238.403 272.106C238.497 272.2 238.55 272.327 238.55 272.46V326.34H340.93C341.062 326.34 341.19 326.393 341.283 326.486C341.377 326.58 341.43 326.707 341.43 326.84C341.43 326.973 341.377 327.1 341.283 327.193C341.19 327.287 341.062 327.34 340.93 327.34Z" fill="white"/>
</g>
<g opacity="0.3">
<path d="M388.11 280.48H363.47V281.48H388.11V280.48Z" fill="black"/>
<path d="M388.11 283.32H363.47V284.32H388.11V283.32Z" fill="black"/>
<path d="M388.11 286.15H363.47V287.15H388.11V286.15Z" fill="black"/>
<path d="M378.11 288.99H363.47V289.99H378.11V288.99Z" fill="black"/>
</g>
<g opacity="0.3">
<path d="M388.11 296.99H363.47V297.99H388.11V296.99Z" fill="black"/>
<path d="M388.11 299.82H363.47V300.82H388.11V299.82Z" fill="black"/>
<path d="M388.11 302.66H363.47V303.66H388.11V302.66Z" fill="black"/>
<path d="M371.11 305.5H363.47V306.5H371.11V305.5Z" fill="black"/>
</g>
<g opacity="0.3">
<path d="M388.11 313.5H363.47V314.5H388.11V313.5Z" fill="black"/>
<path d="M388.11 316.33H363.47V317.33H388.11V316.33Z" fill="black"/>
<path d="M388.11 319.17H363.47V320.17H388.11V319.17Z" fill="black"/>
<path d="M383.11 322H363.47V323H383.11V322Z" fill="black"/>
</g>
<path d="M429.57 118.86H398C395.119 118.862 392.357 120.009 390.32 122.047C388.284 124.085 387.14 126.848 387.14 129.73V160.44C387.14 163.32 388.284 166.082 390.321 168.119C392.358 170.155 395.12 171.3 398 171.3H415.59L420.94 182.77L422.94 171.3H429.64C432.521 171.3 435.285 170.156 437.323 168.119C439.361 166.083 440.507 163.321 440.51 160.44V129.73C440.51 128.296 440.227 126.877 439.676 125.554C439.125 124.23 438.318 123.029 437.302 122.018C436.285 121.008 435.078 120.209 433.751 119.667C432.425 119.125 431.003 118.85 429.57 118.86Z" fill="#142C52"/>
<path d="M421.34 146.379C422.6 143.109 425.68 141.249 428.24 142.229C430.8 143.209 431.84 146.659 430.59 149.929C429.34 153.199 426.24 155.049 423.69 154.069C421.14 153.089 420.08 149.649 421.34 146.379Z" fill="#142C52"/>
<path d="M400.6 138.54L404.88 127C404.88 127 410.2 135.14 416.51 137.56L414.31 143.29L413.96 144.19L411.76 149.93C405.45 147.5 396.05 149.93 396.05 149.93L400.6 138.54Z" fill="#142C52"/>
<path opacity="0.8" d="M421.34 146.379C422.6 143.109 425.68 141.249 428.24 142.229C430.8 143.209 431.84 146.659 430.59 149.929C429.34 153.199 426.24 155.049 423.69 154.069C421.14 153.089 420.08 149.649 421.34 146.379Z" fill="white"/>
<path opacity="0.8" d="M400.6 138.54L404.88 127C404.88 127 410.2 135.14 416.51 137.56L414.31 143.29L413.96 144.19L411.76 149.93C405.45 147.5 396.05 149.93 396.05 149.93L400.6 138.54Z" fill="white"/>
<path d="M422.64 152.589C422.64 152.589 419.31 159.279 415.7 162.069C415.582 162.171 415.431 162.227 415.275 162.227C415.119 162.227 414.968 162.171 414.85 162.069L410.85 158.399C410.784 158.33 410.733 158.248 410.702 158.157C410.671 158.067 410.66 157.971 410.669 157.876C410.679 157.781 410.709 157.689 410.757 157.607C410.806 157.524 410.872 157.454 410.95 157.399C412.5 156.399 416.09 153.989 417.95 151.039C420.39 147.109 422.64 152.589 422.64 152.589Z" fill="#263238"/>
<path d="M396.15 150.28C397.6 150.84 400.79 146.04 403.27 139.57C405.75 133.1 406.6 127.41 405.15 126.85C403.7 126.29 400.52 131.09 398.03 137.56C395.54 144.03 394.71 149.72 396.15 150.28Z" fill="white"/>
<path opacity="0.4" d="M404.85 129.62C404.575 132.456 403.902 135.24 402.85 137.89L402.44 138.98C402.32 139.28 402.21 139.59 402.08 139.88C401.087 142.528 399.741 145.03 398.08 147.32C397.39 148.18 396.8 148.6 396.4 148.44C395.24 148 396.07 143.04 398.25 137.37C400.43 131.7 403.13 127.46 404.25 127.9C404.7 128 404.87 128.66 404.85 129.62Z" fill="black"/>
<path opacity="0.2" d="M404.85 129.619C404.575 132.456 403.902 135.24 402.85 137.889L402.44 138.979C402.32 139.279 402.21 139.589 402.08 139.879C401.087 142.527 399.741 145.03 398.08 147.319C398.413 144.108 399.229 140.966 400.5 137.999C401.542 135.012 403.007 132.19 404.85 129.619Z" fill="black"/>
<path d="M424.39 155.11C424.39 155.11 425.68 153.88 427.62 148.84C429.71 143.39 429.43 141.99 429.43 141.99L415.34 136.58C415.34 136.58 415.44 138.43 413.48 143.58C411.52 148.73 410.3 149.73 410.3 149.73L424.39 155.11Z" fill="#263238"/>
<path d="M402.11 139.879C402.24 139.579 402.35 139.279 402.47 138.969C402.59 138.659 402.75 138.239 402.88 137.879L401.47 137.649C401.32 137.629 401.168 137.663 401.041 137.746C400.915 137.828 400.822 137.954 400.78 138.099L400.7 138.309C400.633 138.444 400.618 138.598 400.657 138.744C400.695 138.889 400.785 139.015 400.91 139.099L402.11 139.879Z" fill="white"/>
<path opacity="0.2" d="M402.11 139.879C402.24 139.579 402.35 139.279 402.47 138.969C402.59 138.659 402.75 138.239 402.88 137.879L401.47 137.649C401.32 137.629 401.168 137.663 401.041 137.746C400.915 137.828 400.822 137.954 400.78 138.099L400.7 138.309C400.633 138.444 400.618 138.598 400.657 138.744C400.695 138.889 400.785 139.015 400.91 139.099L402.11 139.879Z" fill="black"/>
<path opacity="0.2" d="M424.39 155.11C424.39 155.11 425.68 153.88 427.62 148.84C429.71 143.39 429.43 141.99 429.43 141.99L415.34 136.58C415.34 136.58 415.44 138.43 413.48 143.58C411.52 148.73 410.3 149.73 410.3 149.73L424.39 155.11Z" fill="white"/>
<path d="M437.02 440.29H429.87L429.58 423.73H436.73L437.02 440.29Z" fill="#E4897B"/>
<path d="M429.94 439.46H437.75C437.891 439.46 438.028 439.508 438.138 439.598C438.247 439.687 438.322 439.811 438.35 439.95L439.6 446.31C439.629 446.465 439.624 446.625 439.584 446.779C439.545 446.932 439.471 447.074 439.37 447.196C439.269 447.317 439.142 447.415 438.998 447.481C438.855 447.547 438.698 447.581 438.54 447.58C435.72 447.53 431.66 447.36 428.11 447.36C423.98 447.36 420.39 447.59 415.54 447.59C412.6 447.59 411.86 444.59 413.1 444.35C418.72 443.13 423.3 443 428.2 440.02C428.717 439.676 429.319 439.482 429.94 439.46Z" fill="#263238"/>
<path d="M439.37 434.91H426.72C425.37 418.6 420.97 364.22 420.72 345.62C420.55 330.72 421.64 300.62 422.3 284.08H447C445.68 300.53 443.34 330.74 442.51 347.3C441.63 365.53 439.89 418.79 439.37 434.91Z" fill="#142C52"/>
<path opacity="0.7" d="M420.75 345.62C420.97 364.22 425.36 418.62 426.75 434.91H439.41C439.79 422.75 440.88 389.43 441.79 365.99C442.08 358.36 442.35 351.78 442.58 347.3C443.08 337.3 444.13 322.42 445.16 308.54C445.85 299.36 446.53 290.63 447.06 284.08H422.33C421.67 300.58 420.58 330.72 420.75 345.62Z" fill="white"/>
<path d="M424.9 432.39C424.84 432.39 425.46 437.39 425.46 437.39H440.19L440.7 432.9L424.9 432.39Z" fill="#142C52"/>
<path opacity="0.1" d="M441.75 366C442.04 358.37 442.31 351.79 442.54 347.31C443.04 337.31 443.81 326.24 444.84 312.36C442.05 311.58 437.49 309.56 436.6 308.01L439.84 312.35C439.3 323 439.92 347.91 441.75 366Z" fill="black"/>
<path d="M463.16 440.29H456.01L454.98 423.73H462.13L463.16 440.29Z" fill="#E4897B"/>
<path d="M464.87 434.91H452.22C451.49 429.2 450.22 418.83 448.76 406.91C446.1 384.91 442.99 357.67 442.32 345.58C441.91 338.05 441.64 326.63 441.47 315.04C441.3 303.7 441.23 292.21 441.19 284.04H464.19C464.57 304.52 464.29 330.69 464.19 347.25C464.07 365.53 464.68 418.79 464.87 434.91Z" fill="#142C52"/>
<path opacity="0.7" d="M464.87 434.91H452.22C451.49 429.2 450.22 418.83 448.76 406.91C446.1 384.91 442.99 357.67 442.32 345.58C441.91 338.05 441.64 326.63 441.47 315.04C441.3 303.7 441.23 292.21 441.19 284.04H464.19C464.57 304.52 464.29 330.69 464.19 347.25C464.07 365.53 464.68 418.79 464.87 434.91Z" fill="white"/>
<path d="M450.39 432.39C450.34 432.39 451.17 437.39 451.17 437.39H465.91L466.22 432.9L450.39 432.39Z" fill="#142C52"/>
<path opacity="0.6" d="M424.9 432.39C424.84 432.39 425.46 437.39 425.46 437.39H440.19L440.7 432.9L424.9 432.39Z" fill="white"/>
<path opacity="0.6" d="M450.39 432.39C450.34 432.39 451.17 437.39 451.17 437.39H465.91L466.22 432.9L450.39 432.39Z" fill="white"/>
<path d="M456 439.46H463.81C463.952 439.459 464.091 439.507 464.202 439.597C464.313 439.686 464.39 439.811 464.42 439.95L465.95 446.31C465.992 446.462 465.999 446.621 465.968 446.776C465.937 446.93 465.87 447.076 465.773 447.199C465.675 447.323 465.55 447.422 465.407 447.488C465.264 447.554 465.107 447.586 464.95 447.58C462.13 447.53 458.06 447.36 454.52 447.36C450.38 447.36 446.81 447.59 441.95 447.59C439.02 447.59 438.15 444.59 439.37 444.35C444.94 443.13 449.51 443 454.29 440.02C454.794 439.672 455.388 439.478 456 439.46Z" fill="#263238"/>
<path d="M387.94 238.6L380.15 233.1L385.98 227.1C385.98 227.1 391.98 230.18 391.39 235.7L387.94 238.6Z" fill="#E4897B"/>
<path d="M377.09 227.05L382.5 223.65L385.98 227.15L380.15 233.1L377.09 227.05Z" fill="#E4897B"/>
<path d="M426.32 224.41C418.92 226.59 415.32 239.58 409.19 251.85L391.43 234.21L385.79 239.21C385.79 239.21 402.05 265.03 409.73 265.04C419.3 265.04 429.25 238.42 429.25 238.42L426.32 224.41Z" fill="#263238"/>
<path opacity="0.1" d="M429.25 238.44C429.25 238.44 427.67 242.65 425.17 247.73C422.75 252.65 419.45 258.39 415.88 261.86C413.88 263.81 411.79 265.05 409.72 265.05C402.05 265.05 385.8 239.22 385.8 239.22L391.43 234.22L409.19 251.86C415.28 239.59 418.92 226.6 426.32 224.42L429.25 238.44Z" fill="white"/>
<path opacity="0.2" d="M425.17 247.73C422.75 252.65 419.45 258.39 415.88 261.86C416.27 250.09 422.04 238.6 422.04 238.6C423.655 241.416 424.717 244.515 425.17 247.73Z" fill="black"/>
<path d="M468.19 226.4C461.89 261.4 464.19 284.09 464.19 284.09C464.19 284.09 434.38 284.77 422.34 284.09C415.92 241.63 426.34 224.41 426.34 224.41C429.483 223.778 432.663 223.34 435.86 223.1C436.53 223.1 437.22 223.02 437.92 222.99C443.601 223 449.277 223.334 454.92 223.99C455.99 224.1 457.08 224.25 458.13 224.4C463.46 225.16 468.19 226.4 468.19 226.4Z" fill="#263238"/>
<path opacity="0.1" d="M468.19 226.39C467.41 230.74 466.76 234.9 466.19 238.83C465.35 245.05 464.78 250.75 464.41 255.83C464.3 257.37 464.2 258.83 464.12 260.28C463.82 265.51 463.74 269.96 463.75 273.57C463.75 280.35 464.16 284.08 464.16 284.08C464.16 284.08 434.35 284.77 422.31 284.08C415.88 241.63 426.31 224.41 426.31 224.41C429.453 223.778 432.632 223.344 435.83 223.11C436.5 223.05 437.19 223.02 437.89 222.99C443.571 223 449.247 223.334 454.89 223.99C455.95 224.1 457.03 224.25 458.09 224.4C463.46 225.16 468.19 226.39 468.19 226.39Z" fill="white"/>
<path d="M452.44 223.61C449.88 226.29 445.84 228.53 439.38 228.29C434.43 228.1 433.74 224.98 434.61 223.29C437.61 222.67 438.98 221.36 439.39 219.7C439.8 218.04 439.23 215.78 438.39 213.7L446.74 206.7L448.16 205.51C448.16 205.91 448.1 206.33 448.08 206.78C447.985 208.412 447.985 210.048 448.08 211.68C448.34 216.23 449.43 221.25 452.44 223.61Z" fill="#E4897B"/>
<path opacity="0.2" d="M448.07 211.63C446.51 214.81 443.78 218.63 439.39 219.69C439.85 217.92 439.23 215.77 438.39 213.69L446.74 206.69C447.19 206.69 447.63 206.69 448.08 206.77C447.983 208.389 447.98 210.012 448.07 211.63Z" fill="black"/>
<path d="M444 229.15C442.49 230.01 441 230.87 439.46 231.75C438.848 243.155 438.822 254.583 439.38 265.99C438.62 267.27 437.87 268.55 437.13 269.85C436.13 268.44 435.21 267.03 434.27 265.6C434.865 254.238 436.036 242.913 437.78 231.67C437.26 230.67 436.78 229.67 436.24 228.67L440.75 227.04C441.82 227.74 442.91 228.45 444 229.15Z" fill="white"/>
<path opacity="0.2" d="M439.18 257.19C450.3 257.62 459.38 259.05 464.18 258.98C463.88 264.2 463.8 269.98 463.81 273.57C442.81 269.45 436.21 263.57 436.21 263.57L439.18 257.19Z" fill="black"/>
<path opacity="0.2" d="M466.22 238.83C465.38 245.05 464.81 250.75 464.44 255.83C460.44 247.67 463.44 237.83 463.44 237.83L466.22 238.83Z" fill="black"/>
<path d="M428.88 192.66C427.65 195.47 427.5 201.48 431.77 199.99C436.04 198.5 431 187.85 428.88 192.66Z" fill="#263238"/>
<path d="M449.36 198.87C448.99 206.38 449.16 210.79 445.41 214.65C439.77 220.46 430.41 217.05 428.56 209.56C426.86 202.82 427.75 191.68 435.07 188.67C436.692 188.004 438.457 187.761 440.2 187.962C441.942 188.164 443.605 188.804 445.032 189.823C446.46 190.842 447.606 192.207 448.362 193.789C449.119 195.371 449.462 197.119 449.36 198.87Z" fill="#E4897B"/>
<path d="M438 201C438 201.61 437.69 202.1 437.29 202.1C436.89 202.1 436.56 201.61 436.56 201C436.56 200.39 436.87 199.89 437.27 199.89C437.67 199.89 438 200.38 438 201Z" fill="#263238"/>
<path d="M431.07 201C431.07 201.61 430.75 202.11 430.35 202.11C429.95 202.11 429.62 201.62 429.62 201.01C429.62 200.4 429.93 199.9 430.33 199.9C430.73 199.9 431.06 200.4 431.07 201Z" fill="#263238"/>
<path d="M433.27 201.31C432.536 203.119 431.557 204.818 430.36 206.36C430.784 206.64 431.262 206.828 431.764 206.91C432.265 206.993 432.778 206.969 433.27 206.84V201.31Z" fill="#DE5753"/>
<path d="M440.09 198.76C440.026 198.768 439.961 198.76 439.901 198.735C439.841 198.711 439.789 198.671 439.75 198.62C439.484 198.256 439.136 197.958 438.735 197.752C438.334 197.545 437.891 197.435 437.44 197.43C437.345 197.436 437.251 197.405 437.179 197.343C437.106 197.282 437.06 197.195 437.05 197.1C437.046 197.053 437.051 197.005 437.065 196.96C437.08 196.915 437.103 196.873 437.134 196.836C437.164 196.8 437.202 196.77 437.244 196.749C437.286 196.727 437.332 196.714 437.38 196.71C437.952 196.708 438.516 196.84 439.027 197.098C439.538 197.355 439.981 197.729 440.32 198.19C440.36 198.239 440.386 198.297 440.395 198.359C440.405 198.421 440.398 198.485 440.374 198.543C440.35 198.602 440.312 198.653 440.262 198.691C440.212 198.729 440.152 198.753 440.09 198.76Z" fill="#263238"/>
<path d="M428.05 198.64C427.984 198.659 427.915 198.659 427.85 198.64C427.807 198.619 427.769 198.591 427.737 198.556C427.705 198.521 427.681 198.48 427.665 198.435C427.649 198.39 427.643 198.343 427.645 198.296C427.648 198.249 427.659 198.203 427.68 198.16C427.916 197.647 428.272 197.198 428.717 196.85C429.163 196.502 429.685 196.265 430.24 196.16C430.333 196.151 430.427 196.178 430.501 196.236C430.575 196.293 430.625 196.377 430.64 196.47C430.654 196.564 430.63 196.66 430.574 196.737C430.518 196.814 430.434 196.865 430.34 196.88C429.899 196.965 429.486 197.158 429.138 197.44C428.789 197.723 428.515 198.087 428.34 198.5C428.307 198.545 428.263 198.582 428.212 198.606C428.162 198.631 428.106 198.642 428.05 198.64Z" fill="#263238"/>
<path d="M437.57 192.85C437.57 192.85 439.64 191.38 440.57 192.97C441.5 194.56 441.46 198.82 441.46 198.82L441.87 198.06C441.87 198.06 444.53 207.54 448.4 205.16C452.27 202.78 457.95 193.16 448.92 188.24C448.92 188.24 447.92 185.95 441.99 184.82C436.06 183.69 428.81 187.38 427.58 191.32C426.35 195.26 428.07 197.46 428.07 197.46C428.268 196.602 428.662 195.801 429.22 195.12C429.298 195.523 429.475 195.9 429.736 196.218C429.996 196.536 430.33 196.784 430.71 196.94C430.649 196.134 430.815 195.326 431.19 194.61C431.382 195.308 431.723 195.957 432.19 196.51C432.62 192.45 435.38 191.62 436.26 191.65C436.579 191.681 436.879 191.815 437.115 192.032C437.351 192.248 437.511 192.535 437.57 192.85Z" fill="#263238"/>
<path d="M452.33 205.09C452.059 205.983 451.613 206.812 451.017 207.53C450.421 208.248 449.687 208.839 448.86 209.27C446.63 210.41 445 208.53 445.18 206.16C445.35 204.03 446.7 200.87 449.18 200.72C449.712 200.701 450.241 200.814 450.719 201.048C451.197 201.282 451.611 201.631 451.922 202.063C452.234 202.495 452.434 202.998 452.505 203.525C452.576 204.053 452.516 204.591 452.33 205.09Z" fill="#E4897B"/>
<path d="M433.51 209.36C434.154 210.034 434.749 210.752 435.29 211.51L435.73 211.29C437.73 210.29 438.31 209.17 438.37 208.22C438.379 207.762 438.284 207.307 438.09 206.89C437.987 206.651 437.849 206.429 437.68 206.23C436.724 207.395 435.531 208.343 434.18 209.01C433.78 209.24 433.51 209.36 433.51 209.36Z" fill="#263238"/>
<path d="M434.18 209L434.72 209.62C436.6 208.67 437.79 207.75 438.09 206.88C437.987 206.641 437.849 206.418 437.68 206.22C436.724 207.385 435.531 208.332 434.18 209Z" fill="white"/>
<path d="M435.73 211.29C437.73 210.29 438.31 209.17 438.37 208.22C437.615 208.615 436.937 209.143 436.37 209.78C436.004 210.204 435.78 210.732 435.73 211.29Z" fill="#A24E3F"/>
<path d="M451.24 220.55C451.24 220.55 448.89 223.55 440.45 226.4C439.056 224.896 438.189 222.98 437.98 220.94L433.51 222.94C433.51 222.94 432.15 227.03 434.18 229.94L440.4 227.16L445.17 231.22C445.17 231.22 452.94 226.28 454.34 223.83L451.24 220.55Z" fill="#263238"/>
<path d="M437.82 274.07H416.51C416.105 274.064 415.716 273.909 415.419 273.633C415.122 273.358 414.937 272.983 414.9 272.58L411.9 244.3C411.88 244.11 411.901 243.919 411.96 243.738C412.02 243.557 412.117 243.39 412.245 243.249C412.374 243.109 412.531 242.997 412.706 242.921C412.88 242.845 413.069 242.807 413.26 242.81H434.56C434.966 242.815 435.356 242.97 435.655 243.245C435.954 243.52 436.141 243.895 436.18 244.3L439.18 272.58C439.201 272.77 439.182 272.962 439.123 273.143C439.064 273.325 438.967 273.492 438.838 273.633C438.709 273.774 438.552 273.886 438.376 273.962C438.201 274.037 438.011 274.074 437.82 274.07Z" fill="#263238"/>
<path opacity="0.6" d="M437.82 274.07H416.51C416.105 274.064 415.716 273.909 415.419 273.633C415.122 273.358 414.937 272.983 414.9 272.58L411.9 244.3C411.88 244.11 411.901 243.919 411.96 243.738C412.02 243.557 412.117 243.39 412.245 243.249C412.374 243.109 412.531 242.997 412.706 242.921C412.88 242.845 413.069 242.807 413.26 242.81H434.56C434.966 242.815 435.356 242.97 435.655 243.245C435.954 243.52 436.141 243.895 436.18 244.3L439.18 272.58C439.201 272.77 439.182 272.962 439.123 273.143C439.064 273.325 438.967 273.492 438.838 273.633C438.709 273.774 438.552 273.886 438.376 273.962C438.201 274.037 438.011 274.074 437.82 274.07Z" fill="white"/>
<path opacity="0.2" d="M436.93 274.07H416.51C416.105 274.064 415.716 273.909 415.419 273.633C415.122 273.358 414.937 272.983 414.9 272.58L411.9 244.3C411.88 244.11 411.901 243.919 411.96 243.738C412.02 243.557 412.117 243.39 412.245 243.249C412.374 243.109 412.531 242.997 412.706 242.921C412.88 242.845 413.069 242.807 413.26 242.81H433.7C434.105 242.817 434.494 242.973 434.792 243.248C435.091 243.522 435.278 243.896 435.32 244.3L438.32 272.58C438.342 272.772 438.322 272.967 438.261 273.151C438.2 273.335 438.1 273.503 437.968 273.645C437.836 273.787 437.675 273.898 437.496 273.971C437.316 274.045 437.123 274.078 436.93 274.07Z" fill="white"/>
<path d="M424.51 256.13C424.214 256.124 423.92 256.181 423.648 256.298C423.375 256.415 423.131 256.588 422.931 256.807C422.732 257.026 422.581 257.285 422.489 257.566C422.398 257.848 422.367 258.146 422.4 258.44C422.461 259.065 422.75 259.645 423.21 260.071C423.671 260.497 424.273 260.739 424.9 260.75C425.196 260.756 425.49 260.699 425.762 260.582C426.035 260.466 426.279 260.292 426.479 260.074C426.678 259.855 426.829 259.596 426.921 259.314C427.012 259.033 427.043 258.735 427.01 258.44C426.383 258.429 425.781 258.187 425.32 257.761C424.86 257.335 424.571 256.755 424.51 256.13Z" fill="#263238"/>
<path opacity="0.3" d="M429.12 245.05H417.86C417.582 245.046 417.311 244.964 417.078 244.814C416.844 244.664 416.658 244.451 416.54 244.2L415.87 242.81H430.72L430.29 244.2C430.215 244.45 430.06 244.669 429.849 244.823C429.637 244.976 429.381 245.056 429.12 245.05Z" fill="black"/>
<path d="M431.9 255.68L426.98 255.27L427.19 261.82L431.33 263.99L440.83 263.12L441.6 258.71C438.45 254.13 431.9 255.68 431.9 255.68Z" fill="#E4897B"/>
<path d="M463.16 228.47C458.16 234.81 463.65 247.22 466.28 260.66L441.45 257.48L440 264.89C440 264.89 468.63 275.47 474.72 270.8C482.32 264.98 477.39 243.8 473.46 233.37C472.507 230.519 470.645 228.06 468.16 226.37C467.223 226.323 466.287 226.488 465.421 226.851C464.556 227.215 463.783 227.768 463.16 228.47Z" fill="#263238"/>
<path opacity="0.1" d="M463.16 228.47C458.16 234.81 463.65 247.22 466.28 260.66L441.45 257.48L440 264.89C440 264.89 468.63 275.47 474.72 270.8C482.32 264.98 477.39 243.8 473.46 233.37C472.507 230.519 470.645 228.06 468.16 226.37C467.223 226.323 466.287 226.488 465.421 226.851C464.556 227.215 463.783 227.768 463.16 228.47Z" fill="white"/>
<path d="M448.82 285.3C454.04 285.227 459.256 285.07 464.47 284.83C464.47 285.72 464.56 286.62 464.6 287.51C459.34 287.763 454.08 287.917 448.82 287.97V285.3Z" fill="#263238"/>
<path d="M428 287.75C426 287.677 424 287.597 422 287.51L422.12 284.83C424.12 284.93 426.06 285 428.04 285.07L428 287.75Z" fill="#263238"/>
<path d="M428.9 285.1C435.113 285.3 441.327 285.37 447.54 285.31V288C441.327 288.06 435.113 287.993 428.9 287.8V285.1Z" fill="#263238"/>
<path d="M434.17 288.24L438.87 288.33C438.903 288.333 438.936 288.329 438.968 288.318C438.999 288.307 439.028 288.29 439.052 288.267C439.077 288.245 439.096 288.217 439.11 288.187C439.123 288.156 439.13 288.123 439.13 288.09V285.34C439.127 285.275 439.1 285.213 439.054 285.166C439.007 285.12 438.945 285.093 438.88 285.09L434.18 285C434.147 284.999 434.115 285.004 434.085 285.016C434.054 285.027 434.027 285.044 434.003 285.067C433.98 285.089 433.962 285.116 433.949 285.146C433.936 285.176 433.93 285.208 433.93 285.24V288C433.93 288.064 433.955 288.125 434 288.17C434.045 288.215 434.106 288.24 434.17 288.24Z" fill="white"/>
<path d="M187.503 237.643C194.517 230.629 194.517 219.258 187.503 212.244C180.489 205.23 169.118 205.23 162.104 212.244C155.09 219.258 155.09 230.629 162.104 237.643C169.118 244.657 180.489 244.657 187.503 237.643Z" fill="#142C52"/>
<path d="M177.46 221.13C177.46 219.62 176.16 218.59 174.09 218.59C173.241 218.541 172.394 218.706 171.625 219.07C170.857 219.433 170.191 219.983 169.69 220.67L167.07 218.97C168.58 216.92 171.01 215.68 174.38 215.68C178.38 215.68 180.99 217.49 180.99 220.59C180.99 224.99 176.38 225.39 176.38 228.59H173C173 224.58 177.46 223.83 177.46 221.13ZM172.52 232.92C172.51 232.493 172.627 232.073 172.857 231.713C173.087 231.353 173.418 231.07 173.81 230.899C174.201 230.728 174.634 230.678 175.054 230.754C175.474 230.831 175.862 231.031 176.168 231.328C176.474 231.626 176.685 232.008 176.773 232.425C176.861 232.843 176.823 233.278 176.663 233.674C176.504 234.07 176.23 234.409 175.877 234.649C175.523 234.888 175.107 235.018 174.68 235.02C174.398 235.032 174.117 234.987 173.853 234.886C173.589 234.786 173.349 234.633 173.147 234.436C172.944 234.239 172.784 234.003 172.677 233.743C172.569 233.482 172.515 233.202 172.52 232.92Z" fill="white"/>
<path d="M174.8 237.771L172.35 241.09L174.8 248.421L177.26 241.09L174.8 237.771Z" fill="#142C52"/>
<path d="M190.03 380.42L191.83 447.59H189.29L186.33 380.42H190.03Z" fill="#263238"/>
<path d="M181.54 381.95H158.81L151.61 447.59H148.67L155.3 377.28L181.54 377.98V381.95Z" fill="#263238"/>
<path d="M183.2 377.98H215.4H217.06L224.14 447.59H222.54L222.23 445.06L222.48 447.59H220.88L212.75 382.11H186.26L186.05 447.59H184.39H184.27H182.61L181.54 377.98H183.2Z" fill="#263238"/>
<path opacity="0.2" d="M184.27 447.59L183.19 377.98H217.06L224.14 447.59H222.54L214.4 382.11H186.26L186.05 447.59H184.27Z" fill="white"/>
<path opacity="0.2" d="M158.81 381.95H156.96L149.94 447.59H151.61L158.81 381.95Z" fill="white"/>
<path d="M194.05 367.61L186.92 308.21C186.53 304.58 183.83 301.84 180.62 301.84H147.42C146.993 301.871 146.597 302.069 146.316 302.391C146.035 302.713 145.892 303.133 145.92 303.56V365.7C145.92 373 151.1 378.92 157.51 378.92H223.9C224.105 378.904 224.296 378.809 224.431 378.653C224.566 378.498 224.634 378.295 224.62 378.09C224.62 374.82 222.3 372.17 219.43 372.17H198.55C197.37 372.097 196.258 371.592 195.428 370.75C194.597 369.909 194.107 368.791 194.05 367.61Z" fill="#263238"/>
<path opacity="0.5" d="M145.92 303.56V365.69C145.92 373 151.1 378.92 157.5 378.92H223.9C224.106 378.904 224.298 378.809 224.434 378.654C224.571 378.499 224.641 378.296 224.63 378.09C224.643 376.556 224.103 375.069 223.11 373.9C222.658 373.362 222.095 372.928 221.46 372.628C220.825 372.328 220.133 372.168 219.43 372.16H198.55C198.089 372.161 197.632 372.079 197.2 371.92C196.323 371.567 195.563 370.975 195.006 370.211C194.45 369.447 194.118 368.543 194.05 367.6L186.91 308.21C186.54 304.57 183.83 301.84 180.62 301.84H147.42C147.143 301.847 146.874 301.932 146.644 302.086C146.414 302.24 146.232 302.456 146.12 302.71C145.985 302.973 145.916 303.264 145.92 303.56Z" fill="white"/>
<path opacity="0.3" d="M152.05 301.84V358.7C152.05 366 157.24 371.92 163.64 371.92H197.2C196.323 371.567 195.563 370.975 195.006 370.211C194.449 369.447 194.118 368.543 194.05 367.6L186.91 308.21C186.54 304.57 183.83 301.84 180.62 301.84H152.05Z" fill="white"/>
<path d="M194.34 342.29C193.483 339.957 192.46 337.688 191.28 335.5L162.88 337.06C162.88 337.06 152.79 365.17 165 372.38C168.67 374.56 174.73 375.38 181.4 375.56C183.238 375.604 185.067 375.28 186.778 374.608C188.489 373.935 190.049 372.927 191.365 371.644C192.681 370.36 193.728 368.826 194.443 367.132C195.158 365.438 195.528 363.619 195.53 361.78C195.53 361.78 195.51 347 194.34 342.29Z" fill="#263238"/>
<path d="M168.92 362.68V374C179.03 376.92 200.02 375.81 212.49 374.79C215.199 374.569 217.726 373.336 219.568 371.337C221.41 369.338 222.431 366.719 222.43 364V354.7C222.432 353.194 221.973 351.722 221.115 350.484C220.257 349.245 219.041 348.298 217.63 347.77C211.63 345.49 200.63 342.1 189.07 342.28C183.705 342.351 178.583 344.531 174.812 348.349C171.041 352.166 168.925 357.315 168.92 362.68Z" fill="#263238"/>
<path d="M221.36 395.48C217.69 405.42 213.44 417.86 208.9 433.56L208.66 434.42L208.39 435.32L203.71 434.18L201.95 433.75C201.95 433.75 202.01 433.06 202.16 431.83C202.16 431.57 202.22 431.29 202.25 431C203.51 420.05 208.37 379.85 213.19 371.5C210.022 372.073 206.788 372.181 203.59 371.82C200.59 371.31 196.99 350.66 196.99 350.66C202.018 349.309 207.193 348.577 212.4 348.48H212.51C212.51 348.48 227.71 352.06 230.63 356.36C234.23 361.62 230.9 369.7 221.36 395.48Z" fill="#FFB573"/>
<path d="M215.3 447.59L204.3 442.75L200.83 438.87L199.76 440.33L198.45 439.76C197.83 434.89 200.2 432.61 201.45 431.58L201.82 431.29L201.96 431.18H202.02L202.19 431.05L202.29 430.99L208.29 433.65C208.29 433.65 208.39 433.97 208.58 434.48C209.18 436.17 210.67 440.04 212.31 442.1L212.52 442.35C212.7 442.576 212.904 442.78 213.13 442.96C217.82 446.61 215.3 447.59 215.3 447.59Z" fill="#142C52"/>
<path d="M212.6 442.29C210.89 442.96 208.46 441.29 206.6 439.05C205.491 437.513 204.518 435.884 203.69 434.18C203.282 433.33 202.761 432.539 202.14 431.83C201.89 431.6 201.65 431.5 201.44 431.6L201.81 431.31L201.95 431.2H202.01L202.18 431.07L202.28 431.01C202.91 430.54 203.61 430.01 203.61 430.01L208.45 432.15C208.45 432.15 208.59 432.72 208.83 433.6C209.46 435.84 210.83 440.1 212.32 442.08L212.6 442.29Z" fill="#FFB573"/>
<path opacity="0.1" d="M221.36 395.48C217.69 405.42 213.44 417.86 208.9 433.56C209.53 435.8 210.9 440.06 212.39 442.04L212.6 442.29C212.78 442.516 212.984 442.72 213.21 442.9C217.82 446.61 215.3 447.59 215.3 447.59L204.3 442.75L200.83 438.87L199.76 440.33L198.45 439.76C197.83 434.89 200.2 432.61 201.45 431.58L201.82 431.29L201.96 431.18H202.02L202.19 431.05C203.45 420.1 208.31 379.9 213.13 371.55C209.962 372.123 206.728 372.231 203.53 371.87C200.53 371.36 196.93 350.71 196.93 350.71C201.958 349.359 207.133 348.627 212.34 348.53H212.45C212.45 348.53 210.61 348.7 208.11 351.85C208.11 351.85 218.32 353.75 221.11 359.15C222.26 361.28 222 377.24 221.36 395.48Z" fill="black"/>
<path d="M197 350.66C197 350.66 214.47 353.4 217.4 357.66C222.4 365.04 213.4 379.56 196.82 437.49L190.37 435.9C190.37 435.9 194.09 383.34 199.67 373.65C199.67 373.65 192.21 374.65 188.07 373.97C182.75 373.11 179.38 355.36 197 350.66Z" fill="#FFB573"/>
<path d="M189.31 447.22H190.74L191.13 445.45L195.87 447.59H207.87C207.87 447.59 209.78 445.67 204.07 444.14C203.79 444.064 203.519 443.96 203.26 443.83C200.21 442.41 195.88 437.58 195.88 437.58H189.3C189.099 437.885 188.919 438.202 188.76 438.53C188 440 186.79 443 189.31 447.22Z" fill="#142C52"/>
<path d="M188.75 438.53C189.62 437.53 193.57 441.82 196.47 443.27C199.05 444.55 201.96 445.12 203.25 443.81C200.2 442.39 195.41 436.15 195.41 436.15H190.12C190.12 436.15 189.06 437.91 188.75 438.53Z" fill="#FFB573"/>
<path d="M229.17 347.17V349.55C229.17 350.16 228.45 350.41 227.85 350.41H180.23C179.62 350.41 178.88 350.16 178.88 349.55V347.17H229.17Z" fill="#263238"/>
<path opacity="0.4" d="M229.17 347.17V349.55C229.17 350.16 228.45 350.41 227.85 350.41H180.23C179.62 350.41 178.88 350.16 178.88 349.55V347.17H229.17Z" fill="white"/>
<path opacity="0.2" d="M229.17 347.17V349.55C229.17 350.16 228.45 350.41 227.85 350.41H196.44C195.83 350.41 195.1 350.16 195.1 349.55V347.17H229.17Z" fill="black"/>
<path d="M237.14 322.43L231.47 348.14C231.368 348.552 231.132 348.92 230.799 349.184C230.466 349.448 230.055 349.594 229.63 349.6H198.63C198.442 349.589 198.258 349.536 198.094 349.445C197.929 349.354 197.787 349.227 197.678 349.073C197.57 348.919 197.497 348.742 197.466 348.557C197.435 348.371 197.447 348.18 197.5 348L203.16 322.48C203.275 322.09 203.521 321.753 203.856 321.523C204.191 321.294 204.595 321.187 205 321.22H236C236.8 321.21 237.32 321.59 237.14 322.43Z" fill="#263238"/>
<path opacity="0.4" d="M237.14 322.43L231.47 348.14C231.368 348.553 231.132 348.92 230.799 349.184C230.466 349.449 230.055 349.595 229.63 349.6H199.72C199.527 349.596 199.338 349.547 199.167 349.458C198.996 349.369 198.849 349.241 198.735 349.085C198.622 348.93 198.546 348.75 198.514 348.56C198.482 348.37 198.494 348.175 198.55 347.99L204.22 322.47C204.332 322.079 204.577 321.739 204.913 321.509C205.249 321.279 205.654 321.174 206.06 321.21H236C236.8 321.21 237.32 321.59 237.14 322.43Z" fill="white"/>
<path opacity="0.2" d="M221.87 335.5C221.773 336.543 221.308 337.518 220.559 338.251C219.81 338.984 218.825 339.426 217.78 339.5C216.05 339.5 215.03 337.72 215.52 335.5C216.01 333.28 217.73 331.59 219.43 331.5C218.93 333.7 219.99 335.5 221.71 335.5H221.87Z" fill="black"/>
<path d="M193.65 293.42C198.99 297.95 204.3 303.2 210.55 306.34L210.64 306.39C210.03 306.259 209.395 306.304 208.81 306.52C207.975 306.819 207.271 307.401 206.82 308.164C206.369 308.928 206.199 309.825 206.34 310.7C206.368 310.891 206.432 311.074 206.53 311.24C204.53 307.97 201.75 305.07 199.29 302.07C196.55 298.9 193.8 295.68 191.08 292.45C190.728 292.026 190.544 291.486 190.564 290.935C190.583 290.383 190.805 289.858 191.186 289.459C191.568 289.061 192.083 288.816 192.633 288.772C193.183 288.728 193.73 288.887 194.17 289.22C197.57 291.83 200.86 294.54 204.05 297.4C207.4 300.52 210.87 303.4 213.5 307.28C213.729 307.659 213.923 308.057 214.08 308.47C214.356 309.169 214.449 309.927 214.349 310.672C214.25 311.416 213.961 312.123 213.511 312.725C213.061 313.326 212.464 313.802 211.778 314.108C211.091 314.414 210.338 314.538 209.59 314.47C208.969 314.4 208.356 314.269 207.76 314.08C199.87 311.15 193.61 305.58 187.51 300.08C183.33 295.88 189.2 289.6 193.67 293.5L193.65 293.42Z" fill="#E9B376"/>
<path d="M202.56 299.63C202.23 306.04 197.56 312.68 197.56 312.68L196.45 312.06L190.91 309.06C190.91 309.06 190.79 308.76 190.6 308.25C190.41 307.74 190.17 307.14 189.87 306.35C188.32 302.23 185.5 294.51 184.96 291.24C191.48 290.44 194.66 293.29 202.56 299.63Z" fill="#142C52"/>
<path opacity="0.7" d="M202.56 299.63C202.23 306.04 197.56 312.68 197.56 312.68L196.45 312.06L190.91 309.06C190.91 309.06 190.79 308.76 190.6 308.25C190.41 307.74 190.17 307.14 189.87 306.35C188.32 302.23 185.5 294.51 184.96 291.24C191.48 290.44 194.66 293.29 202.56 299.63Z" fill="white"/>
<path opacity="0.2" d="M196.48 312.06L190.94 309.06C190.94 309.06 190.82 308.76 190.63 308.25C190.693 306.631 190.856 305.018 191.12 303.42C192.585 304.386 193.823 305.66 194.749 307.151C195.674 308.643 196.265 310.318 196.48 312.06Z" fill="black"/>
<path d="M157.74 300.46C157.74 300.62 157.8 300.77 157.84 300.93C159.23 306.52 160.26 311.29 161.01 315.45C161.835 319.797 162.37 324.193 162.61 328.61C162.758 331.713 162.671 334.821 162.35 337.91L192.11 338.91C193.28 329.24 193.87 323.44 194.3 317.54C194.69 313.506 194.807 309.45 194.65 305.4C194.65 300.15 190.97 293.98 185.74 293.07C184.28 292.82 182.74 292.58 181.31 292.4L180.52 292.31C175.027 291.748 169.481 292.021 164.07 293.12C161.12 293.81 157.05 296.32 157.74 300.46Z" fill="#142C52"/>
<path opacity="0.7" d="M157.74 300.46C157.74 300.62 157.8 300.77 157.84 300.93C159.23 306.52 160.26 311.29 161.01 315.45C161.835 319.797 162.37 324.193 162.61 328.61C162.758 331.713 162.671 334.821 162.35 337.91L192.11 338.91C193.28 329.24 193.87 323.44 194.3 317.54C194.69 313.506 194.807 309.45 194.65 305.4C194.65 300.15 190.97 293.98 185.74 293.07C184.28 292.82 182.74 292.58 181.31 292.4L180.52 292.31C175.027 291.748 169.481 292.021 164.07 293.12C161.12 293.81 157.05 296.32 157.74 300.46Z" fill="white"/>
<path opacity="0.2" d="M162.61 328.61C162.366 324.193 161.829 319.796 161 315.45C164.33 310.8 167.53 306.9 167.53 306.9C167.53 306.9 174.54 321.3 162.61 328.61Z" fill="black"/>
<path d="M165.55 306.34C165.16 312.67 163.96 322.45 164.4 328.6L164.18 327.82C163.99 327.46 164.12 327.82 164.33 328.03C166.72 330.69 169.82 332.76 172.77 334.93C175.95 337.21 180.64 340.36 183.92 342.61C184.45 342.884 184.85 343.358 185.031 343.928C185.212 344.497 185.159 345.114 184.885 345.645C184.61 346.175 184.136 346.575 183.567 346.756C182.998 346.937 182.38 346.884 181.85 346.61C179.66 345.76 177.57 344.81 175.45 343.85C170.45 341.36 157.71 335.68 156.39 330.08C155.04 321.67 155.78 313.78 156.58 305.46C156.702 304.266 157.293 303.17 158.223 302.413C159.153 301.655 160.346 301.298 161.54 301.42C162.733 301.542 163.829 302.133 164.587 303.063C165.345 303.993 165.702 305.186 165.58 306.38L165.55 306.34Z" fill="#E9B376"/>
<path d="M191.38 341.49L189.48 340.34C189.129 340.124 188.731 339.995 188.321 339.966C187.91 339.936 187.498 340.006 187.12 340.17L183.54 341.72C182.832 342.024 182.208 342.493 181.719 343.088C181.23 343.683 180.891 344.387 180.73 345.14L180.53 346.08C183.53 348.21 188.38 348.27 188.38 348.27L189.75 348.45C190.031 348.494 190.318 348.481 190.595 348.413C190.871 348.345 191.131 348.223 191.36 348.054C191.589 347.884 191.782 347.671 191.928 347.427C192.074 347.182 192.169 346.911 192.21 346.63L192.59 343.91C192.645 343.432 192.561 342.949 192.346 342.519C192.131 342.089 191.795 341.732 191.38 341.49Z" fill="#EBB376"/>
<path d="M164.38 293.13C158.38 294.52 156.17 299.34 154.83 309.76C157.5 312.82 166.52 314.02 166.52 314.02C166.52 314.02 169.92 298.38 164.38 293.13Z" fill="#142C52"/>
<path d="M166.05 292.71C165.37 292.8 167.78 300.08 178.05 301.3C188.32 302.52 186.75 293.3 185.77 291.08C185.73 291.08 173.43 291.67 166.05 292.71Z" fill="#EBB376"/>
<path d="M166.37 259.22C166.37 259.22 171.61 252.35 182.43 254.78C193.25 257.21 194.36 276.09 189.56 283.36C181.139 283.758 172.805 285.234 164.76 287.75C164.76 287.75 158.55 274.51 160.41 266.27C162.27 258.03 166.37 259.22 166.37 259.22Z" fill="#263238"/>
<path d="M170 277.84C171 282.23 172.21 290.24 169.29 293.05C169.29 293.05 173.43 292.57 182 298.26C184.65 294.71 182.8 293.49 182.8 293.49C177.91 292.17 177.88 288.57 178.59 285.21L170 277.84Z" fill="#EBB376"/>
<path opacity="0.2" d="M173.53 280.85L178.61 285.21C178.433 285.995 178.329 286.795 178.3 287.6C176.43 287.27 173.81 285.15 173.53 283.2C173.386 282.423 173.386 281.626 173.53 280.85Z" fill="black"/>
<path d="M166.6 269C167.69 276.07 168 279.07 171.9 282.57C177.76 287.83 186.12 285.43 187.15 278.3C188.08 271.88 186.15 261.4 178.98 258.85C177.462 258.25 175.811 258.067 174.198 258.319C172.585 258.571 171.068 259.25 169.806 260.285C168.543 261.32 167.581 262.674 167.017 264.206C166.453 265.739 166.309 267.394 166.6 269Z" fill="#EBB376"/>
<path d="M175.53 270.46C175.6 271.05 175.96 271.53 176.34 271.46C176.72 271.39 176.98 270.95 176.91 270.35C176.84 269.75 176.48 269.28 176.1 269.3C175.72 269.32 175.47 269.86 175.53 270.46Z" fill="#263238"/>
<path d="M183 269.93C183.06 270.52 183.42 271 183.8 270.93C184.18 270.86 184.44 270.42 184.38 269.82C184.32 269.22 183.95 268.75 183.57 268.77C183.19 268.79 182.88 269.33 183 269.93Z" fill="#263238"/>
<path d="M183.35 268.86L184.71 268.39C184.71 268.39 184.11 269.54 183.35 268.86Z" fill="#263238"/>
<path d="M180.82 271.33C181.494 272.673 182.334 273.926 183.32 275.06C183.043 275.283 182.72 275.442 182.374 275.525C182.028 275.608 181.668 275.613 181.32 275.54L180.82 271.33Z" fill="#D58745"/>
<path d="M174 266.761C174.045 266.765 174.092 266.759 174.135 266.744C174.178 266.728 174.217 266.703 174.25 266.671C174.534 266.354 174.894 266.114 175.297 265.974C175.699 265.834 176.13 265.799 176.55 265.871C176.593 265.881 176.638 265.882 176.682 265.874C176.726 265.867 176.768 265.85 176.805 265.826C176.843 265.802 176.875 265.77 176.9 265.733C176.924 265.696 176.941 265.654 176.95 265.611C176.962 265.516 176.94 265.42 176.887 265.34C176.833 265.261 176.752 265.204 176.66 265.181C176.128 265.091 175.583 265.136 175.073 265.311C174.563 265.485 174.105 265.784 173.74 266.181C173.676 266.246 173.64 266.334 173.64 266.426C173.64 266.517 173.676 266.605 173.74 266.671C173.775 266.702 173.816 266.727 173.86 266.742C173.905 266.758 173.953 266.764 174 266.761Z" fill="#263238"/>
<path d="M185.56 265.88C185.625 265.887 185.692 265.875 185.75 265.845C185.809 265.815 185.858 265.768 185.891 265.711C185.924 265.654 185.939 265.588 185.936 265.522C185.932 265.456 185.909 265.393 185.87 265.34C185.555 264.87 185.135 264.479 184.644 264.198C184.154 263.917 183.604 263.753 183.04 263.72C182.995 263.719 182.951 263.728 182.911 263.747C182.871 263.765 182.834 263.791 182.805 263.824C182.776 263.857 182.754 263.896 182.741 263.939C182.728 263.981 182.724 264.026 182.73 264.07C182.737 264.164 182.779 264.251 182.847 264.316C182.916 264.381 183.006 264.418 183.1 264.42C183.544 264.454 183.975 264.589 184.359 264.814C184.744 265.039 185.072 265.349 185.32 265.72C185.376 265.803 185.462 265.86 185.56 265.88Z" fill="#263238"/>
<path d="M175.94 269.39L177.29 268.92C177.29 268.92 176.7 270.07 175.94 269.39Z" fill="#263238"/>
<path d="M168.43 273.13C168.43 273.13 173.56 268.38 171.76 261.74C171.76 261.74 181.25 257.06 185.93 266.63C185.93 266.63 186.06 258.11 176.69 257.21C167.32 256.31 157.46 269.71 168.69 278.33L168.43 273.13Z" fill="#263238"/>
<path d="M164.81 274.91C165.641 276.183 166.943 277.075 168.43 277.39C170.34 277.74 171.02 275.84 170.26 273.99C169.58 272.33 167.77 270.15 165.96 270.63C164.15 271.11 163.75 273.31 164.81 274.91Z" fill="#EBB376"/>
<path d="M187.33 270.7C187.288 270.699 187.247 270.685 187.213 270.66C187.18 270.635 187.154 270.6 187.14 270.56C182.6 258.46 171.2 261.96 171.08 262C171.03 262.016 170.975 262.011 170.928 261.987C170.881 261.963 170.846 261.921 170.83 261.87C170.821 261.845 170.817 261.818 170.818 261.791C170.82 261.763 170.827 261.737 170.839 261.712C170.851 261.688 170.868 261.667 170.889 261.649C170.91 261.631 170.934 261.618 170.96 261.61C171.08 261.61 182.84 257.96 187.52 270.42C187.53 270.445 187.534 270.472 187.533 270.499C187.532 270.525 187.526 270.552 187.515 270.576C187.504 270.6 187.488 270.622 187.468 270.64C187.448 270.658 187.425 270.672 187.4 270.68L187.33 270.7Z" fill="#263238"/>
<path d="M180.8 278.561C180.66 278.561 177.44 278.501 176.22 276.371C176.191 276.316 176.184 276.252 176.2 276.192C176.217 276.133 176.256 276.082 176.31 276.051C176.336 276.035 176.366 276.025 176.397 276.02C176.428 276.016 176.459 276.019 176.489 276.027C176.519 276.036 176.547 276.05 176.571 276.069C176.595 276.089 176.615 276.113 176.63 276.141C177.71 278.041 180.77 278.141 180.8 278.141C180.831 278.139 180.862 278.144 180.891 278.155C180.92 278.166 180.946 278.183 180.969 278.204C180.991 278.226 181.009 278.252 181.021 278.28C181.034 278.309 181.04 278.339 181.04 278.371C181.028 278.425 180.998 278.474 180.954 278.509C180.91 278.543 180.856 278.562 180.8 278.561Z" fill="#263238"/>
<path d="M182.84 310.92C182.784 310.92 182.731 310.898 182.69 310.86C176.965 305.671 172.343 299.383 169.1 292.37C169.08 292.31 169.083 292.245 169.109 292.187C169.135 292.13 169.182 292.084 169.24 292.06C169.268 292.048 169.298 292.043 169.329 292.043C169.359 292.044 169.389 292.05 169.417 292.062C169.445 292.074 169.47 292.092 169.491 292.114C169.512 292.136 169.529 292.161 169.54 292.19C172.693 299.018 177.17 305.153 182.71 310.24C183.19 308.19 185.17 298.36 180.83 291.39C180.797 291.338 180.786 291.275 180.799 291.215C180.812 291.155 180.848 291.103 180.9 291.07C180.952 291.037 181.014 291.025 181.074 291.039C181.134 291.052 181.187 291.088 181.22 291.14C186.22 299.09 183.1 310.63 183.07 310.75C183.06 310.788 183.04 310.824 183.012 310.852C182.984 310.88 182.949 310.9 182.91 310.91L182.84 310.92Z" fill="#263238"/>
<path d="M183.13 310.471L183.98 311.381C184.046 311.465 184.081 311.569 184.081 311.676C184.081 311.782 184.046 311.886 183.98 311.971L183.29 313.041C183.251 313.1 183.199 313.151 183.139 313.188C183.078 313.225 183.01 313.249 182.939 313.256C182.868 313.264 182.796 313.256 182.729 313.232C182.662 313.209 182.601 313.171 182.55 313.121L181.76 312.361C181.685 312.288 181.636 312.193 181.62 312.091C181.603 311.988 181.621 311.882 181.67 311.791L182.3 310.581C182.331 310.501 182.384 310.432 182.451 310.38C182.518 310.327 182.598 310.294 182.683 310.282C182.767 310.271 182.853 310.283 182.932 310.316C183.01 310.349 183.079 310.402 183.13 310.471Z" fill="white"/>
<path opacity="0.7" d="M164.38 293.13C158.38 294.52 156.17 299.34 154.83 309.76C157.5 312.82 166.52 314.02 166.52 314.02C166.52 314.02 169.92 298.38 164.38 293.13Z" fill="white"/>
<path d="M195.85 291.14L193.42 284.94L188.42 290.33C188.42 290.33 190.92 295.73 193.64 294.33L195.85 291.14Z" fill="#EBB376"/>
<path d="M188.18 280.95L185.42 287.05L188.38 290.33L193.42 284.94L188.18 280.95Z" fill="#EBB376"/>
<path d="M203.35 312.1C204.442 312.712 205.579 313.244 206.75 313.69L207.75 314.04L208.37 314.21L208.67 314.29H208.75H208.95L209.37 314.35H209.58H209.87H210.47C210.81 314.316 211.146 314.242 211.47 314.13C211.929 313.969 212.358 313.732 212.74 313.43C213.19 313.075 213.564 312.633 213.84 312.13C213.969 311.89 214.076 311.639 214.16 311.38C214.222 311.187 214.268 310.99 214.3 310.79C214.338 310.595 214.362 310.398 214.37 310.2C214.38 310.073 214.38 309.946 214.37 309.82C214.359 309.592 214.332 309.364 214.29 309.14C214.239 308.878 214.169 308.621 214.08 308.37L213.87 307.86L213.68 307.48L213.5 307.18C213.133 306.578 212.718 306.006 212.26 305.47C211.87 304.99 211.48 304.56 211.1 304.13C210.33 303.29 209.56 302.5 208.78 301.73C207.22 300.2 205.66 298.73 204.05 297.3C200.86 294.44 197.57 291.73 194.17 289.12C193.73 288.787 193.182 288.627 192.632 288.671C192.082 288.715 191.568 288.96 191.186 289.359C190.805 289.757 190.583 290.282 190.563 290.834C190.544 291.385 190.728 291.925 191.08 292.35C193.8 295.57 196.55 298.79 199.28 301.95C200.63 303.55 202 305.12 203.28 306.72C203.94 307.51 204.57 308.3 205.16 309.08C205.45 309.46 205.73 309.85 205.98 310.22C206.179 310.508 206.36 310.808 206.52 311.12C206.492 311.077 206.472 311.029 206.46 310.98C206.414 310.856 206.377 310.729 206.35 310.6C206.319 310.438 206.299 310.274 206.29 310.11V309.83C206.291 309.662 206.308 309.495 206.34 309.33C206.369 309.167 206.409 309.007 206.46 308.85C206.533 308.617 206.63 308.393 206.75 308.18C207.001 307.733 207.342 307.341 207.75 307.03C208.084 306.773 208.454 306.567 208.85 306.42C209.108 306.326 209.376 306.266 209.65 306.24C209.783 306.225 209.917 306.225 210.05 306.24H210.36H210.58H210.68H210.61L210.47 306.18L209.98 305.96C209.29 305.62 208.52 305.15 207.74 304.66C206.11 303.75 201.29 311 203.35 312.1Z" fill="#E9B376"/>
</g>
<defs>
<clipPath id="clip0_1156_1802">
<rect width="459" height="373" fill="white" transform="translate(65 85)"/>
</clipPath>
</defs>
</svg>
