<svg width="608" height="526" viewBox="0 0 608 526" fill="none" xmlns="http://www.w3.org/2000/svg">
<g filter="url(#filter0_d_969_16692)">
<path d="M588.156 409.604C446.422 312.255 588.156 104.187 588.156 31.1988C588.156 -41.7894 444.699 218.161 403.682 78.7407C362.666 -60.6793 96.9685 318.535 22.1294 409.604C-130.047 594.782 729.891 506.954 588.156 409.604Z" fill="#07F9A2"/>
</g>
<g clip-path="url(#clip0_969_16692)">
<path d="M498.71 349.14H318C316.447 349.137 314.958 348.519 313.859 347.421C312.761 346.322 312.143 344.833 312.14 343.28V79.9999C312.145 78.4483 312.765 76.9619 313.863 75.8656C314.961 74.7694 316.448 74.1525 318 74.1499H498.71C500.262 74.1525 501.749 74.7694 502.847 75.8656C503.945 76.9619 504.565 78.4483 504.57 79.9999V343.28C504.567 344.833 503.949 346.322 502.851 347.421C501.752 348.519 500.263 349.137 498.71 349.14ZM318 74.3999C317.261 74.3946 316.528 74.5355 315.843 74.8145C315.159 75.0934 314.536 75.5049 314.011 76.0253C313.486 76.5457 313.069 77.1647 312.784 77.8468C312.499 78.5289 312.351 79.2606 312.35 79.9999V343.28C312.35 344.768 312.941 346.195 313.993 347.247C315.045 348.299 316.472 348.89 317.96 348.89H498.71C500.198 348.89 501.625 348.299 502.677 347.247C503.729 346.195 504.32 344.768 504.32 343.28V79.9999C504.32 78.512 503.729 77.0851 502.677 76.033C501.625 74.981 500.198 74.3899 498.71 74.3899L318 74.3999Z" fill="#F0F0F0"/>
<path d="M290.28 349.14H109.53C107.977 349.137 106.488 348.519 105.389 347.421C104.291 346.322 103.673 344.833 103.67 343.28V80.0001C103.673 78.4468 104.291 76.9578 105.389 75.8594C106.488 74.761 107.977 74.1428 109.53 74.1401H290.28C291.833 74.1428 293.322 74.761 294.421 75.8594C295.519 76.9578 296.137 78.4468 296.14 80.0001V343.28C296.137 344.833 295.519 346.322 294.421 347.421C293.322 348.519 291.833 349.137 290.28 349.14ZM109.53 74.4001C108.044 74.4001 106.618 74.9898 105.567 76.0397C104.515 77.0897 103.923 78.514 103.92 80.0001V343.28C103.92 344.768 104.511 346.195 105.563 347.247C106.615 348.299 108.042 348.89 109.53 348.89H290.28C291.768 348.89 293.195 348.299 294.247 347.247C295.299 346.195 295.89 344.768 295.89 343.28V80.0001C295.89 78.5123 295.299 77.0854 294.247 76.0333C293.195 74.9812 291.768 74.3901 290.28 74.3901L109.53 74.4001Z" fill="#F0F0F0"/>
<path d="M554.79 410.21H54.79V410.46H554.79V410.21Z" fill="#E0E0E0"/>
<path d="M235.22 99.5503H266.79C267.618 99.5503 268.29 98.8787 268.29 98.0503V90.9203C268.29 90.0919 267.618 89.4203 266.79 89.4203H235.22C234.392 89.4203 233.72 90.0919 233.72 90.9203V98.0503C233.72 98.8787 234.392 99.5503 235.22 99.5503Z" fill="#F0F0F0"/>
<path d="M216.36 112.46H247.93C248.759 112.46 249.43 111.788 249.43 110.96V103.83C249.43 103.002 248.759 102.33 247.93 102.33H216.36C215.532 102.33 214.86 103.002 214.86 103.83V110.96C214.86 111.788 215.532 112.46 216.36 112.46Z" fill="#F0F0F0"/>
<path d="M151.46 277.13H119.89C119.062 277.13 118.39 277.802 118.39 278.63V285.76C118.39 286.589 119.062 287.26 119.89 287.26H151.46C152.289 287.26 152.96 286.589 152.96 285.76V278.63C152.96 277.802 152.289 277.13 151.46 277.13Z" fill="#F0F0F0"/>
<path d="M170.32 290.04H138.75C137.922 290.04 137.25 290.712 137.25 291.54V298.67C137.25 299.498 137.922 300.17 138.75 300.17H170.32C171.148 300.17 171.82 299.498 171.82 298.67V291.54C171.82 290.712 171.148 290.04 170.32 290.04Z" fill="#F0F0F0"/>
<path d="M366.52 88.0303H334.95C334.122 88.0303 333.45 88.7018 333.45 89.5303V96.6603C333.45 97.4887 334.122 98.1603 334.95 98.1603H366.52C367.349 98.1603 368.02 97.4887 368.02 96.6603V89.5303C368.02 88.7018 367.349 88.0303 366.52 88.0303Z" fill="#F0F0F0"/>
<path d="M404.23 88.0303H372.66C371.832 88.0303 371.16 88.7018 371.16 89.5303V96.6603C371.16 97.4887 371.832 98.1603 372.66 98.1603H404.23C405.059 98.1603 405.73 97.4887 405.73 96.6603V89.5303C405.73 88.7018 405.059 88.0303 404.23 88.0303Z" fill="#F0F0F0"/>
<path d="M385.37 100.94H353.8C352.971 100.94 352.3 101.612 352.3 102.44V109.57C352.3 110.398 352.971 111.07 353.8 111.07H385.37C386.198 111.07 386.87 110.398 386.87 109.57V102.44C386.87 101.612 386.198 100.94 385.37 100.94Z" fill="#F0F0F0"/>
<path d="M492.97 91.48H422.65V262.33H492.97V91.48Z" fill="#F0F0F0"/>
<path d="M488.68 95.77H426.94V258.04H488.68V95.77Z" fill="#FAFAFA"/>
<path d="M488.68 102.72V114.97L426.94 176.72V164.46L488.68 102.72Z" fill="white"/>
<path d="M488.68 145.09V162.37L426.94 224.11V206.82L488.68 145.09Z" fill="white"/>
<path d="M459.94 91.48H455.69V262.33H459.94V91.48Z" fill="#F0F0F0"/>
<path d="M492.97 174.72H422.65V179.08H492.97V174.72Z" fill="#F0F0F0"/>
<path d="M188.71 91.48H118.39V262.33H188.71V91.48Z" fill="#F0F0F0"/>
<path d="M184.42 95.77H122.68V258.04H184.42V95.77Z" fill="#FAFAFA"/>
<path d="M184.42 102.72V114.97L122.68 176.72V164.46L184.42 102.72Z" fill="white"/>
<path d="M184.42 145.09V162.37L122.68 224.11V206.82L184.42 145.09Z" fill="white"/>
<path d="M155.67 91.48H151.42V262.33H155.67V91.48Z" fill="#F0F0F0"/>
<path d="M188.71 174.72H118.39V179.08H188.71V174.72Z" fill="#F0F0F0"/>
<path d="M505.05 342.27L499.43 361L498.68 363.51L495.74 373.27C495.343 374.59 494.531 375.747 493.425 376.57C492.32 377.393 490.978 377.838 489.6 377.84H331.47C330.092 377.839 328.752 377.394 327.647 376.571C326.543 375.748 325.734 374.59 325.34 373.27L322.4 363.51L321.64 361L316 342.27C315.893 341.923 315.87 341.556 315.931 341.198C315.993 340.84 316.137 340.502 316.353 340.21C316.569 339.918 316.85 339.681 317.175 339.518C317.499 339.355 317.857 339.27 318.22 339.27H502.83C503.193 339.27 503.551 339.355 503.875 339.518C504.199 339.681 504.481 339.918 504.697 340.21C504.913 340.502 505.057 340.84 505.118 341.198C505.18 341.556 505.156 341.923 505.05 342.27Z" fill="#F0F0F0"/>
<path d="M499.43 360.95L498.68 363.46H322.4L321.64 360.95H499.43Z" fill="#E0E0E0"/>
<path d="M479.34 389.08H339.37V392.27H479.34V389.08Z" fill="#E0E0E0"/>
<path d="M346.13 377.79L326.73 410.21H335.18L359.27 377.79H346.13Z" fill="#E0E0E0"/>
<path d="M473.18 377.79L492.57 410.21H484.13L460.04 377.79H473.18Z" fill="#E0E0E0"/>
<path d="M522.48 454C522.48 457.5 425.89 460.34 306.74 460.34C187.59 460.34 91 457.52 91 454C91 450.48 187.59 447.67 306.74 447.67C425.89 447.67 522.48 450.52 522.48 454Z" fill="#F5F5F5"/>
<path d="M364.04 219.55H222.37C199.163 219.55 180.35 238.361 180.35 261.565C180.35 284.769 199.163 303.58 222.37 303.58H364.04C387.247 303.58 406.06 284.769 406.06 261.565C406.06 238.361 387.247 219.55 364.04 219.55Z" fill="#142C52"/>
<path opacity="0.7" d="M364.04 219.55H222.37C199.163 219.55 180.35 238.361 180.35 261.565C180.35 284.769 199.163 303.58 222.37 303.58H364.04C387.247 303.58 406.06 284.769 406.06 261.565C406.06 238.361 387.247 219.55 364.04 219.55Z" fill="white"/>
<path opacity="0.3" d="M222.36 300.58C212.016 300.58 202.097 296.471 194.783 289.157C187.469 281.843 183.36 271.923 183.36 261.58C183.36 251.236 187.469 241.316 194.783 234.002C202.097 226.689 212.016 222.58 222.36 222.58H364C369.121 222.58 374.193 223.588 378.925 225.548C383.656 227.508 387.956 230.381 391.577 234.002C395.199 237.624 398.071 241.923 400.031 246.655C401.991 251.387 403 256.458 403 261.58C403 266.701 401.991 271.773 400.031 276.504C398.071 281.236 395.199 285.535 391.577 289.157C387.956 292.778 383.656 295.651 378.925 297.611C374.193 299.571 369.121 300.58 364 300.58H222.36Z" fill="white"/>
<path d="M364 299.33C384.86 299.33 401.77 282.42 401.77 261.56C401.77 240.7 384.86 223.79 364 223.79C343.14 223.79 326.23 240.7 326.23 261.56C326.23 282.42 343.14 299.33 364 299.33Z" fill="#142C52"/>
<path d="M380.71 272.41C381.095 272.794 381.4 273.251 381.608 273.754C381.817 274.257 381.924 274.795 381.924 275.34C381.924 275.884 381.817 276.423 381.608 276.925C381.4 277.428 381.095 277.885 380.71 278.27C380.325 278.654 379.868 278.96 379.366 279.168C378.863 279.376 378.324 279.483 377.78 279.483C377.236 279.483 376.697 279.376 376.194 279.168C375.692 278.96 375.235 278.654 374.85 278.27L364 267.42L353.16 278.27C352.775 278.654 352.318 278.96 351.816 279.168C351.313 279.376 350.774 279.483 350.23 279.483C349.686 279.483 349.147 279.376 348.644 279.168C348.142 278.96 347.685 278.654 347.3 278.27C346.915 277.885 346.61 277.428 346.402 276.925C346.194 276.423 346.086 275.884 346.086 275.34C346.086 274.795 346.194 274.257 346.402 273.754C346.61 273.251 346.915 272.794 347.3 272.41L358.14 261.57L347.3 250.72C346.523 249.943 346.086 248.889 346.086 247.79C346.086 246.691 346.523 245.637 347.3 244.86C348.077 244.083 349.131 243.646 350.23 243.646C351.329 243.646 352.383 244.083 353.16 244.86L364 255.71L374.85 244.86C375.627 244.083 376.681 243.646 377.78 243.646C378.879 243.646 379.933 244.083 380.71 244.86C381.487 245.637 381.924 246.691 381.924 247.79C381.924 248.889 381.487 249.943 380.71 250.72L369.87 261.57L380.71 272.41Z" fill="white"/>
<path d="M364.04 125.88H222.37C199.163 125.88 180.35 144.691 180.35 167.895C180.35 191.099 199.163 209.91 222.37 209.91H364.04C387.247 209.91 406.06 191.099 406.06 167.895C406.06 144.691 387.247 125.88 364.04 125.88Z" fill="#142C52"/>
<path opacity="0.2" d="M222.36 206.91C212.016 206.91 202.097 202.801 194.783 195.487C187.469 188.173 183.36 178.253 183.36 167.91C183.36 157.566 187.469 147.646 194.783 140.333C202.097 133.019 212.016 128.91 222.36 128.91H364C374.343 128.91 384.263 133.019 391.577 140.333C398.891 147.646 403 157.566 403 167.91C403 178.253 398.891 188.173 391.577 195.487C384.263 202.801 374.343 206.91 364 206.91H222.36Z" fill="black"/>
<path d="M263.31 205.67C284.17 205.67 301.08 188.76 301.08 167.9C301.08 147.04 284.17 130.13 263.31 130.13C242.45 130.13 225.54 147.04 225.54 167.9C225.54 188.76 242.45 205.67 263.31 205.67Z" fill="#142C52"/>
<path opacity="0.7" d="M263.31 205.67C284.17 205.67 301.08 188.76 301.08 167.9C301.08 147.04 284.17 130.13 263.31 130.13C242.45 130.13 225.54 147.04 225.54 167.9C225.54 188.76 242.45 205.67 263.31 205.67Z" fill="white"/>
<path d="M256.71 181.1C255.797 181.099 254.921 180.74 254.27 180.1L244.91 170.74C244.59 170.42 244.337 170.041 244.163 169.623C243.99 169.205 243.901 168.757 243.901 168.305C243.901 167.853 243.99 167.405 244.163 166.987C244.337 166.569 244.59 166.19 244.91 165.87C245.23 165.55 245.609 165.297 246.027 165.123C246.445 164.95 246.893 164.861 247.345 164.861C247.797 164.861 248.245 164.95 248.663 165.123C249.081 165.297 249.46 165.55 249.78 165.87L256.71 172.8L276.85 152.66C277.496 152.014 278.372 151.651 279.285 151.651C280.198 151.651 281.074 152.014 281.72 152.66C282.366 153.306 282.729 154.182 282.729 155.095C282.729 156.008 282.366 156.884 281.72 157.53L259.14 180.1C258.494 180.741 257.62 181.1 256.71 181.1Z" fill="white"/>
<path d="M409.16 428.82V446.19L402.14 446.75L398.7 430.48L409.16 428.82Z" fill="#FF8B7B"/>
<path d="M404.18 445.11C404.18 445.11 401.97 440.88 400.67 441.33C399.37 441.78 398.84 446.92 398.84 446.92C398.84 446.92 391.77 449.28 389.84 449.41C387.91 449.54 386.27 450.65 386.01 454.51H410.16C410.16 454.51 410 445.8 409.95 444.31C409.9 442.82 407.78 444.68 407.78 444.68L404.18 445.11Z" fill="#263238"/>
<path d="M409.84 447.62C409.41 447.858 409.033 448.182 408.732 448.571C408.431 448.96 408.213 449.407 408.09 449.883C407.967 450.359 407.943 450.856 408.019 451.342C408.094 451.828 408.268 452.293 408.53 452.71C408.547 452.729 408.56 452.752 408.568 452.777C408.575 452.802 408.577 452.829 408.574 452.855C408.57 452.881 408.561 452.905 408.547 452.927C408.533 452.949 408.514 452.968 408.492 452.982C408.47 452.996 408.445 453.005 408.419 453.008C408.393 453.012 408.367 453.009 408.342 453.002C408.317 452.994 408.294 452.981 408.274 452.963C408.255 452.946 408.24 452.924 408.23 452.9C407.94 452.444 407.746 451.935 407.659 451.402C407.572 450.869 407.593 450.324 407.722 449.8C407.851 449.276 408.085 448.784 408.409 448.352C408.734 447.921 409.142 447.559 409.61 447.29C409.81 447.16 410.04 447.5 409.84 447.62Z" fill="white"/>
<path d="M409.88 453.13L390.94 453.32L386.53 453.37C386.29 453.37 386.24 452.99 386.53 452.99L405.48 452.79L409.88 452.74C410.13 452.74 410.18 453.12 409.93 453.13H409.88Z" fill="white"/>
<path d="M399.88 448.44C398.88 447.26 397.45 446.92 396.36 447.82C396.18 447.96 395.95 447.63 396.13 447.48C397.37 446.48 399.07 446.9 400.19 448.25C400.36 448.45 400.05 448.64 399.88 448.44Z" fill="white"/>
<path d="M397.88 449.07C397.697 448.789 397.459 448.548 397.18 448.363C396.901 448.177 396.586 448.051 396.256 447.992C395.926 447.933 395.588 447.942 395.262 448.019C394.935 448.096 394.628 448.24 394.36 448.44C394.18 448.59 393.95 448.26 394.13 448.11C395.37 447.11 397.07 447.53 398.19 448.87C398.36 449.07 398.05 449.27 397.88 449.07Z" fill="white"/>
<path d="M395.82 449.69C395.636 449.409 395.396 449.169 395.115 448.985C394.835 448.8 394.52 448.675 394.189 448.617C393.858 448.559 393.519 448.569 393.193 448.647C392.866 448.725 392.559 448.869 392.29 449.07C392.11 449.22 391.88 448.89 392.06 448.74C393.3 447.74 395 448.16 396.12 449.5C396.29 449.7 395.98 449.89 395.82 449.69Z" fill="white"/>
<path d="M413.37 256.64C413.17 259.74 413.6 269.26 413.18 274.37C412.39 284.11 411.33 296.74 410.49 309.37C409.49 324.02 408.81 338.69 409.16 348.87C410.06 375.01 409.86 434.25 409.86 434.25H398.52C398.52 434.25 385.2 375.37 382.71 348.87C380.63 326.87 381.71 270.3 382.08 256.62L413.37 256.64Z" fill="#142C52"/>
<path opacity="0.3" d="M413.37 256.64C413.17 259.74 413.6 269.26 413.18 274.37C412.39 284.11 411.33 296.74 410.49 309.37C409.49 324.02 408.81 338.69 409.16 348.87C410.06 375.01 409.86 434.25 409.86 434.25H398.52C398.52 434.25 385.2 375.37 382.71 348.87C380.63 326.87 381.71 270.3 382.08 256.62L413.37 256.64Z" fill="white"/>
<path opacity="0.2" d="M413.18 274.37C412.39 284.11 411.33 296.74 410.49 309.37C404.91 292.85 410.09 267.89 410.09 267.89L413.18 274.37Z" fill="black"/>
<path d="M410.84 434.67H397.53L396.56 430.43L411.19 430.25L410.84 434.67Z" fill="#142C52"/>
<path d="M471.77 425.58L474.42 442.75L467.57 444.37L461.69 428.82L471.77 425.58Z" fill="#FF8B7B"/>
<path d="M469.33 442.44C469.33 442.44 466.51 438.59 465.33 439.24C464.15 439.89 464.33 445.04 464.33 445.04C464.33 445.04 457.7 448.46 455.77 448.88C453.84 449.3 452.43 450.66 452.77 454.51L476.63 450.83C476.63 450.83 475.14 442.24 474.87 440.77C474.6 439.3 472.78 441.47 472.78 441.47L469.33 442.44Z" fill="#263238"/>
<path d="M475.32 444.05C474.93 444.35 474.606 444.727 474.367 445.157C474.128 445.588 473.979 446.062 473.931 446.552C473.882 447.042 473.934 447.537 474.083 448.006C474.233 448.475 474.477 448.908 474.8 449.28C474.96 449.49 474.69 449.73 474.52 449.52C474.164 449.113 473.894 448.639 473.726 448.125C473.558 447.611 473.496 447.069 473.544 446.531C473.592 445.992 473.748 445.469 474.003 444.993C474.259 444.517 474.608 444.097 475.03 443.76C475.21 443.61 475.49 443.9 475.32 444.05Z" fill="white"/>
<path d="M476.19 449.49L457.5 452.58L453.16 453.3C452.91 453.3 452.81 452.96 453.05 452.92L471.74 449.84L476.08 449.12C476.33 449.12 476.43 449.45 476.19 449.49Z" fill="white"/>
<path d="M465.6 446.38C465.374 446.131 465.101 445.931 464.796 445.792C464.49 445.653 464.16 445.578 463.825 445.572C463.489 445.565 463.156 445.627 462.846 445.754C462.536 445.881 462.254 446.07 462.02 446.31C461.87 446.48 461.58 446.19 461.74 446.02C462.81 444.82 464.55 445.02 465.87 446.15C466.07 446.32 465.79 446.56 465.6 446.38Z" fill="white"/>
<path d="M463.72 447.31C463.495 447.061 463.222 446.86 462.917 446.72C462.613 446.581 462.282 446.505 461.947 446.497C461.612 446.49 461.278 446.551 460.968 446.677C460.657 446.803 460.375 446.991 460.14 447.23C459.99 447.41 459.7 447.11 459.86 446.94C460.93 445.74 462.67 445.94 463.99 447.07C464.19 447.25 463.91 447.48 463.72 447.31Z" fill="white"/>
<path d="M461.77 448.25C461.546 448 461.274 447.798 460.969 447.657C460.664 447.516 460.333 447.44 459.997 447.433C459.662 447.425 459.328 447.487 459.017 447.613C458.706 447.74 458.425 447.93 458.19 448.17C458.04 448.34 457.75 448.05 457.91 447.88C458.98 446.68 460.73 446.88 462.04 448.01C462.24 448.18 461.96 448.42 461.77 448.25Z" fill="white"/>
<path d="M431.83 351.18C438.83 376.85 462.4 432.38 462.4 432.38L473.57 430.43C473.57 430.43 461.93 372.66 456.57 347.07C451.73 323.97 446.41 270.92 444.69 255.12L407.19 258.5C409.19 272.03 426.01 329.88 431.83 351.18Z" fill="#142C52"/>
<path opacity="0.3" d="M431.83 351.18C438.83 376.85 462.4 432.38 462.4 432.38L473.57 430.43C473.57 430.43 461.93 372.66 456.57 347.07C451.73 323.97 446.41 270.92 444.69 255.12L407.19 258.5C409.19 272.03 426.01 329.88 431.83 351.18Z" fill="white"/>
<path d="M474.61 430.67L461.5 432.95L459.81 428.94L474.42 426.27L474.61 430.67Z" fill="#142C52"/>
<path d="M446.88 255.12C446.861 256.019 446.524 256.882 445.929 257.555C445.334 258.229 444.519 258.67 443.63 258.8L383.8 261.56C382.05 261.64 380 260.44 380.05 258.69C380.65 238.05 385.46 167.04 387.05 162.56C389.05 157.06 400.12 155.08 404.96 154.64C412.598 154.128 420.262 154.128 427.9 154.64C431.63 154.82 435.03 155.15 437.85 155.5C438.867 155.624 439.848 155.952 440.736 156.465C441.623 156.977 442.398 157.663 443.014 158.482C443.63 159.301 444.075 160.235 444.322 161.23C444.568 162.224 444.612 163.258 444.45 164.27C443.198 172.156 442.38 180.104 442 188.08L441.94 189.23C441.81 191.92 441.69 194.58 441.68 197.23C441.68 197.75 441.68 198.28 441.68 198.8C442 225.5 445.41 238.59 446.88 255.12Z" fill="#263238"/>
<path opacity="0.2" d="M442 188.08L441.94 189.23C441.81 191.92 441.69 194.58 441.68 197.23L430.17 174.64L442 188.08Z" fill="black"/>
<path d="M409 114.21C409 114.21 398.63 109.32 394.34 111.74C390.97 113.64 393.22 117.55 393.22 117.55C393.22 117.55 386.89 117.75 386.89 121.75C386.884 122.673 387.235 123.563 387.871 124.232C388.507 124.901 389.377 125.298 390.3 125.34C390.3 125.34 388.05 129.2 390.52 130.09C392.99 130.98 395.88 125.88 395.88 125.88L409 114.21Z" fill="#263238"/>
<path d="M420 134.27C420 134.27 422.73 138.22 422.18 139.27C421.36 140.91 419.18 139.05 419.18 139.05C419.18 139.05 421.18 141.74 419.18 143.05C417.18 144.36 415.93 137.78 415.93 137.78L420 134.27Z" fill="#263238"/>
<path d="M404.33 114.68C406.446 114.135 408.651 114.032 410.808 114.376C412.965 114.72 415.029 115.504 416.87 116.68C419.28 118.26 421.28 120.5 420.92 123.54C420.07 130.62 416.92 142.27 416.92 142.27L394.11 128.36C394.11 128.36 393.11 122.36 396.01 118.66C397.5 116.73 401.17 115.46 404.33 114.68Z" fill="#263238"/>
<path d="M405.55 150.05V150.14L406.66 154.21C406.756 155.03 406.773 155.857 406.71 156.68C406.664 157.353 406.571 158.021 406.43 158.68C405.54 159.91 405.13 162.68 408.32 162.68C412.32 162.68 419.69 156.74 419.94 154.96C418.04 149.47 416.44 143.05 416.7 137.79L412.14 142.79L405.55 150.05Z" fill="#FF8B7B"/>
<g opacity="0.2">
<path d="M405.58 150.15L406.69 154.22C409.2 153.05 411.82 150.56 412.4 147.87C412.81 145.93 411.93 144.13 411.14 144.04L405.58 150.15Z" fill="black"/>
</g>
<path d="M395.33 141.67C395.57 142.56 395.84 143.43 396.14 144.29C398.73 151.89 408.14 152.51 413.93 146.85C414.46 146.336 414.948 145.781 415.39 145.19C419.06 140.28 418.1 136.53 417.48 128.01C417.361 126.025 416.735 124.104 415.663 122.43C414.591 120.755 413.108 119.383 411.355 118.445C409.602 117.506 407.639 117.032 405.651 117.068C403.663 117.104 401.717 117.649 400 118.65C392.93 122.72 392.87 132.81 395.33 141.67Z" fill="#FF8B7B"/>
<path d="M400.93 143.07H400.7C400.632 143.062 400.571 143.029 400.528 142.976C400.485 142.924 400.464 142.857 400.47 142.79C400.472 142.756 400.481 142.723 400.497 142.693C400.513 142.663 400.534 142.636 400.56 142.615C400.587 142.593 400.617 142.577 400.649 142.568C400.682 142.558 400.716 142.556 400.75 142.56C401.245 142.605 401.745 142.549 402.219 142.395C402.692 142.241 403.129 141.992 403.503 141.663C403.877 141.335 404.181 140.934 404.395 140.485C404.609 140.035 404.73 139.547 404.75 139.05C404.76 138.982 404.795 138.922 404.85 138.88C404.904 138.839 404.972 138.821 405.04 138.83C405.106 138.842 405.165 138.878 405.206 138.932C405.247 138.986 405.266 139.053 405.26 139.12C405.2 140.214 404.713 141.242 403.903 141.981C403.093 142.72 402.025 143.111 400.93 143.07Z" fill="#263238"/>
<path d="M417.6 128.79C417.6 128.79 415.03 128.93 414.93 131.13C414.83 133.33 415.06 133.62 415.06 133.62L412.06 134.27C412.06 134.27 412.86 125.87 410.65 125.99C408.44 126.11 410.82 122.32 409.49 121.78C406.34 120.51 397.79 120.47 394.49 125.63C394.49 125.63 395.34 120.55 399.38 117.79C403.42 115.03 411.59 114.42 414.91 118.41C418.23 122.4 417.6 128.79 417.6 128.79Z" fill="#263238"/>
<path d="M421.89 133.14C421.729 134.191 421.363 135.2 420.812 136.109C420.262 137.019 419.537 137.811 418.68 138.44C416.38 140.12 414.24 138.29 414.06 135.6C413.89 133.18 414.89 129.4 417.6 128.79C420.31 128.18 422.26 130.53 421.89 133.14Z" fill="#FF8B7B"/>
<path d="M404.91 133.78C405 134.45 404.72 135.04 404.29 135.1C403.86 135.16 403.43 134.66 403.29 134C403.15 133.34 403.48 132.74 403.92 132.68C404.36 132.62 404.78 133.12 404.92 133.78" fill="#263238"/>
<path d="M397.6 134.68C397.69 135.35 397.41 135.94 396.97 136C396.53 136.06 396.11 135.56 395.97 134.9C395.83 134.24 396.16 133.64 396.6 133.59C397.04 133.54 397.46 134.02 397.6 134.68Z" fill="#263238"/>
<path d="M394.77 132.14C394.83 132.132 394.886 132.108 394.933 132.071C394.981 132.034 395.018 131.986 395.04 131.93C395.113 131.701 395.232 131.489 395.39 131.309C395.548 131.128 395.742 130.982 395.96 130.88C396.408 130.714 396.902 130.714 397.35 130.88C397.391 130.898 397.436 130.907 397.481 130.908C397.526 130.908 397.57 130.9 397.612 130.883C397.654 130.866 397.692 130.842 397.724 130.81C397.757 130.779 397.782 130.741 397.8 130.7C397.818 130.658 397.827 130.614 397.828 130.569C397.828 130.524 397.82 130.479 397.803 130.438C397.786 130.396 397.762 130.358 397.73 130.325C397.699 130.293 397.661 130.268 397.62 130.25C397.001 130.018 396.319 130.018 395.7 130.25C395.398 130.384 395.127 130.579 394.905 130.823C394.683 131.068 394.514 131.356 394.41 131.67C394.392 131.711 394.383 131.755 394.383 131.8C394.383 131.845 394.393 131.89 394.41 131.931C394.428 131.972 394.454 132.009 394.487 132.04C394.519 132.071 394.558 132.094 394.6 132.11C394.653 132.135 394.712 132.146 394.77 132.14Z" fill="#263238"/>
<path d="M406.52 130.79C406.57 130.78 406.618 130.76 406.66 130.73C406.734 130.679 406.785 130.601 406.801 130.513C406.818 130.425 406.8 130.334 406.75 130.26C406.366 129.723 405.802 129.342 405.16 129.19C404.833 129.14 404.499 129.158 404.179 129.242C403.859 129.326 403.56 129.475 403.3 129.68C403.257 129.702 403.219 129.734 403.19 129.772C403.16 129.81 403.139 129.854 403.128 129.901C403.117 129.949 403.116 129.997 403.125 130.045C403.134 130.092 403.153 130.137 403.181 130.177C403.209 130.216 403.245 130.249 403.287 130.274C403.329 130.298 403.375 130.313 403.424 130.318C403.472 130.323 403.52 130.318 403.566 130.303C403.612 130.287 403.654 130.263 403.69 130.23C403.877 130.081 404.092 129.971 404.322 129.908C404.552 129.844 404.793 129.828 405.03 129.86C405.498 129.972 405.909 130.249 406.19 130.64C406.226 130.692 406.276 130.734 406.334 130.761C406.392 130.787 406.456 130.797 406.52 130.79Z" fill="#263238"/>
<path d="M400.41 133.41C399.599 135.258 398.905 137.155 398.33 139.09C398.23 139.87 400.72 139.85 400.72 139.85L400.41 133.41Z" fill="#FF5652"/>
<path d="M444.06 159C448.8 165.32 453.33 171.8 457.78 178.33C460.02 181.58 462.19 184.88 464.4 188.14L467.65 193.04L469.26 195.43L470.06 196.59L470.44 197.13L470.7 197.56L470.92 197.95L471.09 198.27L471.38 198.86L471.61 199.38C472.16 200.7 472.51 201.75 472.85 202.81C473.19 203.87 473.48 204.88 473.77 205.89C474.34 207.89 474.85 209.89 475.32 211.89C476.26 215.83 477.14 219.74 477.92 223.67C479.5 231.51 480.92 239.35 481.97 247.29C482.116 248.38 481.857 249.485 481.241 250.397C480.626 251.308 479.698 251.962 478.632 252.235C477.567 252.507 476.438 252.38 475.461 251.875C474.484 251.371 473.725 250.526 473.33 249.5C470.49 242.12 467.83 234.65 465.17 227.26C463.82 223.57 462.51 219.87 461.17 216.26C460.48 214.45 459.8 212.65 459.11 210.92C458.76 210.05 458.41 209.2 458.11 208.4C457.814 207.695 457.481 207.008 457.11 206.34C457.083 206.288 457.053 206.238 457.02 206.19C457.02 206.19 456.97 206.12 456.97 206.13V206.21L457.03 206.32C457.03 206.4 457.13 206.48 457.19 206.56V206.51L457.05 206.35L456.77 206.02L456.23 205.36L454.32 202.98L450.59 198.28C448.16 195.13 445.73 192 443.35 188.83C438.59 182.49 433.93 176.09 429.49 169.52C428.272 167.584 427.837 165.257 428.274 163.012C428.71 160.767 429.984 158.772 431.838 157.433C433.691 156.094 435.985 155.51 438.254 155.801C440.522 156.092 442.594 157.236 444.05 159H444.06Z" fill="#263238"/>
<path d="M474.33 250.94C474.33 250.94 471.6 259.94 472.26 261.81C472.92 263.68 475.03 259.81 475.03 259.81L474.33 250.94Z" fill="#FF8B7B"/>
<path d="M482.25 248.61L486 257C486.9 259.42 479.33 264 476 262.27C473.34 260.88 474.22 250.53 474.22 250.53C475.32 249.614 476.617 248.964 478.01 248.631C479.403 248.298 480.854 248.291 482.25 248.61Z" fill="#FF8B7B"/>
<path d="M486 257C487 259.7 487.27 265.18 482.91 266.28C481.962 266.563 480.979 266.708 479.99 266.71C479.99 266.71 480.22 269.12 478.94 269.53C477.66 269.94 475.08 261.13 475.08 261.13L486 257Z" fill="#FF8B7B"/>
<path d="M398.31 175.19C393.97 177.83 389.58 180.29 385.11 182.65C383.65 183.417 382.18 184.173 380.7 184.92C379.41 185.58 378.12 186.23 376.82 186.92C373.13 188.72 369.42 190.47 365.56 192.14C363.62 192.96 361.67 193.77 359.47 194.58C358.94 194.78 358.31 194.98 357.68 195.19L356.61 195.52L355.86 195.7L355.49 195.79H355.29L354.83 195.87C354.52 195.87 354.17 195.96 353.9 195.98H353.27C352.936 195.981 352.602 195.964 352.27 195.93C351.94 195.93 351.74 195.88 351.49 195.85L350.82 195.74C350.108 195.61 349.404 195.443 348.71 195.24C346.53 194.595 344.384 193.84 342.28 192.98C340.28 192.2 338.37 191.35 336.48 190.49C332.69 188.78 329 187 325.35 185.13C318.05 181.41 310.91 177.51 303.92 173.21L306.85 166.61C314.64 168.81 322.36 171.23 330.03 173.61C333.87 174.77 337.69 175.96 341.47 177.06L347.09 178.62C348.83 179.08 350.62 179.51 352.09 179.74H352.16C352.48 179.59 352.8 179.45 353.16 179.25C354.69 178.51 356.4 177.59 358.09 176.66C361.5 174.81 364.97 172.86 368.44 170.92C375.39 167.03 382.44 163.12 389.55 159.52L398.31 175.19Z" fill="#263238"/>
<path opacity="0.2" d="M386.06 171.15L385.17 182.38L385.11 182.65C383.65 183.417 382.18 184.173 380.7 184.92L386.06 171.15Z" fill="black"/>
<path d="M303.7 173.27C306.58 173.79 310.46 172.19 308.39 167C307.068 163.761 305.566 160.6 303.89 157.53C302.5 154.85 296.67 153.73 296.67 153.73C296.67 153.73 293.67 151.15 293.23 152.55C292.79 153.95 297.23 157.39 297.75 158.39C299.48 161.51 301.26 164.65 301.18 165.21C301.1 165.77 299.03 161.29 297.18 160.91C295.33 160.53 298.97 165.67 299.33 167.8C299.69 169.93 302.36 173 303.7 173.27Z" fill="#FF8B7B"/>
<path opacity="0.2" d="M297.28 154C299.318 155.319 300.946 157.183 301.98 159.38C302.06 159.55 301.8 159.71 301.72 159.54C300.708 157.392 299.119 155.567 297.13 154.27C296.97 154.16 297.13 153.89 297.28 154Z" fill="black"/>
<path opacity="0.2" d="M302 157.91C301.427 156.826 300.613 155.889 299.62 155.17C299.47 155.05 299.68 154.83 299.84 154.95C300.848 155.688 301.676 156.645 302.26 157.75C302.36 157.93 302.09 158.09 302 157.91Z" fill="black"/>
</g>
<defs>
<filter id="filter0_d_969_16692" x="0" y="18" width="608" height="508" filterUnits="userSpaceOnUse" color-interpolation-filters="sRGB">
<feFlood flood-opacity="0" result="BackgroundImageFix"/>
<feColorMatrix in="SourceAlpha" type="matrix" values="0 0 0 0 0 0 0 0 0 0 0 0 0 0 0 0 0 0 127 0" result="hardAlpha"/>
<feOffset dy="4"/>
<feGaussianBlur stdDeviation="2"/>
<feComposite in2="hardAlpha" operator="out"/>
<feColorMatrix type="matrix" values="0 0 0 0 0 0 0 0 0 0 0 0 0 0 0 0 0 0 0.25 0"/>
<feBlend mode="normal" in2="BackgroundImageFix" result="effect1_dropShadow_969_16692"/>
<feBlend mode="normal" in="SourceGraphic" in2="effect1_dropShadow_969_16692" result="shape"/>
</filter>
<clipPath id="clip0_969_16692">
<rect width="500" height="500" fill="white" transform="translate(54)"/>
</clipPath>
</defs>
</svg>
