<svg width="608" height="508" viewBox="0 0 608 508" fill="none" xmlns="http://www.w3.org/2000/svg">
<g filter="url(#filter0_d_969_16695)">
<path d="M588.156 391.604C446.422 294.255 588.156 86.187 588.156 13.1988C588.156 -59.7894 444.699 200.161 403.682 60.7407C362.666 -78.6793 96.9685 300.535 22.1294 391.604C-130.047 576.782 729.891 488.954 588.156 391.604Z" fill="#07F9A2"/>
</g>
<path d="M462.58 339.542C480.149 339.542 494.392 334.041 494.392 327.256C494.392 320.47 480.149 314.97 462.58 314.97C445.011 314.97 430.768 320.47 430.768 327.256C430.768 334.041 445.011 339.542 462.58 339.542Z" fill="#E6E6E6"/>
<path d="M465.592 113.455L470.152 114.874V106.748C470.152 100.304 476.5 98.7586 483.352 101.986C490.24 105.203 495.82 113.037 495.82 119.482V120.658C496.789 120.416 497.814 120.356 498.816 120.482C499.818 120.608 500.771 120.918 501.604 121.387C504.225 122.77 506.404 124.636 507.964 126.832C509.524 129.028 510.421 131.492 510.58 134.023V134.528L516.94 137.503C518.66 138.411 520.09 139.636 521.116 141.076C522.142 142.517 522.734 144.133 522.844 145.794C522.844 148.846 520.204 150.09 516.94 148.554L465.592 124.517C463.872 123.608 462.442 122.384 461.416 120.943C460.39 119.502 459.798 117.886 459.688 116.225C459.688 113.144 462.328 111.929 465.592 113.455Z" fill="#F0F0F0"/>
<path d="M277.156 365.757V366.155C277.179 366.494 277.3 366.823 277.508 367.116C277.716 367.41 278.007 367.66 278.356 367.847L349.684 401.196C350.055 401.353 350.466 401.434 350.884 401.434C351.302 401.434 351.714 401.353 352.084 401.196L457.432 351.935C457.783 351.748 458.075 351.496 458.283 351.201C458.492 350.905 458.611 350.574 458.632 350.234V349.845C458.609 349.506 458.489 349.175 458.281 348.88C458.072 348.584 457.782 348.333 457.432 348.144L386.116 314.795C385.744 314.643 385.333 314.563 384.916 314.563C384.499 314.563 384.088 314.643 383.716 314.795L278.356 364.065C278.007 364.252 277.716 364.502 277.508 364.796C277.3 365.089 277.179 365.419 277.156 365.757Z" fill="#E0E0E0"/>
<path d="M277.156 365.757V366.155C277.179 366.493 277.3 366.823 277.508 367.116C277.716 367.41 278.007 367.66 278.356 367.846L349.684 401.196C350.052 401.357 350.466 401.437 350.884 401.429V393.809L282.82 361.976L278.356 364.065C278.007 364.252 277.716 364.502 277.508 364.796C277.3 365.089 277.179 365.418 277.156 365.757Z" fill="#E6E6E6"/>
<path d="M278.356 365.193L349.684 398.542C350.055 398.699 350.466 398.781 350.884 398.781C351.302 398.781 351.714 398.699 352.084 398.542L457.432 349.281C458.104 348.97 458.104 348.465 457.432 348.144L386.116 314.795C385.744 314.643 385.333 314.563 384.916 314.563C384.499 314.563 384.088 314.643 383.716 314.795L278.356 364.065C278.209 364.104 278.081 364.18 277.991 364.281C277.9 364.382 277.851 364.504 277.851 364.629C277.851 364.754 277.9 364.876 277.991 364.978C278.081 365.079 278.209 365.154 278.356 365.193Z" fill="white"/>
<path d="M369.232 378.5L321.232 356.037C320.392 355.648 320.356 355.065 321.136 354.666C321.595 354.49 322.099 354.402 322.607 354.411C323.115 354.419 323.614 354.523 324.064 354.715L372.064 377.168C372.904 377.567 372.94 378.14 372.16 378.539C371.703 378.719 371.199 378.81 370.69 378.803C370.182 378.797 369.682 378.693 369.232 378.5Z" fill="#EBEBEB"/>
<path d="M335.2 381.124L311.512 370.053C310.672 369.665 310.636 369.081 311.416 368.683C311.87 368.496 312.372 368.398 312.88 368.398C313.389 368.398 313.891 368.496 314.344 368.683L338.032 379.764C338.872 380.152 338.908 380.736 338.128 381.134C337.675 381.322 337.172 381.419 336.663 381.417C336.154 381.416 335.652 381.315 335.2 381.124Z" fill="#E0E0E0"/>
<path d="M341.932 378.179L325.276 370.403C324.688 370.121 324.664 369.694 325.204 369.431C325.523 369.297 325.877 369.228 326.236 369.228C326.595 369.228 326.949 369.297 327.268 369.431L343.936 377.207C344.524 377.489 344.548 377.917 343.996 378.179C343.676 378.311 343.323 378.379 342.964 378.379C342.606 378.379 342.252 378.311 341.932 378.179Z" fill="#EBEBEB"/>
<path d="M377.752 374.485L329.752 352.032C328.912 351.633 328.876 351.06 329.656 350.661C330.11 350.474 330.611 350.377 331.12 350.377C331.629 350.377 332.131 350.474 332.584 350.661L380.584 373.124C381.424 373.513 381.46 374.096 380.68 374.495C380.225 374.677 379.723 374.771 379.215 374.77C378.707 374.768 378.206 374.67 377.752 374.485Z" fill="#EBEBEB"/>
<path d="M386.272 370.519L338.272 348.056C337.432 347.667 337.396 347.084 338.176 346.686C338.63 346.499 339.131 346.401 339.64 346.401C340.149 346.401 340.651 346.499 341.104 346.686L389.104 369.149C389.932 369.537 389.98 370.121 389.188 370.519C388.736 370.705 388.237 370.801 387.73 370.801C387.224 370.801 386.724 370.705 386.272 370.519Z" fill="#EBEBEB"/>
<path d="M394.792 366.544L369.436 354.647C368.596 354.258 368.56 353.675 369.34 353.277C369.8 353.1 370.303 353.013 370.811 353.021C371.32 353.03 371.818 353.134 372.268 353.325L397.6 365.213C398.428 365.611 398.476 366.185 397.696 366.583C397.242 366.759 396.743 366.848 396.239 366.841C395.735 366.834 395.24 366.733 394.792 366.544Z" fill="#EBEBEB"/>
<path d="M418.852 355.25L370.852 332.797C370.024 332.408 369.976 331.825 370.756 331.426C371.212 331.239 371.716 331.142 372.226 331.142C372.737 331.142 373.241 331.239 373.696 331.426L421.696 353.889C422.524 354.278 422.572 354.861 421.78 355.26C421.327 355.447 420.824 355.544 420.315 355.543C419.806 355.541 419.304 355.441 418.852 355.25Z" fill="#EBEBEB"/>
<path d="M427.384 351.284L379.384 328.821C378.556 328.432 378.508 327.849 379.3 327.45C379.753 327.261 380.255 327.162 380.764 327.162C381.274 327.162 381.776 327.261 382.228 327.45L430.228 349.903C431.056 350.292 431.104 350.875 430.324 351.274C429.87 351.464 429.367 351.564 428.856 351.566C428.345 351.567 427.84 351.471 427.384 351.284Z" fill="#EBEBEB"/>
<path d="M410.332 359.225L362.332 336.762C361.492 336.373 361.456 335.79 362.236 335.392C362.696 335.215 363.199 335.128 363.707 335.136C364.216 335.145 364.714 335.249 365.164 335.44L413.164 357.903C414.004 358.292 414.052 358.875 413.26 359.264C412.803 359.445 412.299 359.536 411.791 359.529C411.282 359.522 410.782 359.418 410.332 359.225Z" fill="#EBEBEB"/>
<path d="M435.904 347.308L387.904 324.845C387.064 324.457 387.028 323.873 387.808 323.485C388.262 323.298 388.763 323.2 389.272 323.2C389.781 323.2 390.283 323.298 390.736 323.485L438.736 345.948C439.576 346.336 439.612 346.92 438.832 347.318C438.377 347.5 437.875 347.595 437.367 347.593C436.858 347.591 436.358 347.494 435.904 347.308Z" fill="#EBEBEB"/>
<path d="M353.752 381.833C351.992 381.115 350.048 380.74 348.076 380.74C346.105 380.74 344.161 381.115 342.4 381.833C339.268 383.301 339.268 385.721 342.4 387.14C344.159 387.864 346.104 388.242 348.076 388.242C350.049 388.242 351.994 387.864 353.752 387.14C356.884 385.682 356.884 383.301 353.752 381.833Z" fill="#E0E0E0"/>
<path d="M278.392 257.272L233.392 278.316C231.571 279.289 230.282 280.793 229.792 282.515L218.608 334.818C218.479 335.63 218.636 336.455 219.06 337.198C219.485 337.941 220.16 338.571 221.008 339.017L250.024 352.625C250.955 353.002 251.982 353.199 253.024 353.199C254.065 353.199 255.092 353.002 256.024 352.625L318.04 323.621C318.951 323.228 319.713 322.642 320.245 321.926C320.776 321.209 321.057 320.389 321.057 319.553C321.057 318.717 320.776 317.897 320.245 317.18C319.713 316.463 318.951 315.877 318.04 315.485L295.72 305.055C294.825 304.58 294.062 303.959 293.481 303.23C292.901 302.502 292.514 301.684 292.348 300.827L287.38 261.354C287.235 260.523 286.876 259.726 286.326 259.014C285.776 258.302 285.048 257.692 284.188 257.223C283.284 256.863 282.289 256.68 281.283 256.689C280.276 256.697 279.286 256.897 278.392 257.272Z" fill="#263238"/>
<path d="M253.06 343.391V353.169C254.113 353.185 255.153 352.985 256.084 352.586L318.1 323.582C318.962 323.144 319.685 322.548 320.21 321.842C320.735 321.136 321.048 320.341 321.124 319.519C321.057 318.558 320.64 317.634 319.924 316.865H309.76L253.06 343.391Z" fill="#37474F"/>
<path d="M284.068 259.916L239.056 280.97C237.228 281.937 235.937 283.443 235.456 285.169L225.304 332.641C225.173 333.455 225.328 334.282 225.753 335.027C226.178 335.772 226.854 336.404 227.704 336.85L250 347.28C250.932 347.657 251.959 347.853 253 347.853C254.042 347.853 255.069 347.657 256 347.28L318.1 318.236C319.768 317.459 319.768 316.195 318.1 315.408L295.78 304.978C294.885 304.503 294.122 303.881 293.542 303.153C292.961 302.425 292.575 301.606 292.408 300.75L287.44 261.277C287.446 260.958 287.341 260.644 287.137 260.371C286.932 260.099 286.636 259.878 286.283 259.736C285.931 259.594 285.536 259.535 285.144 259.567C284.752 259.599 284.379 259.72 284.068 259.916Z" fill="#263238"/>
<path d="M318.1 315.447L295.78 305.017C294.885 304.561 294.13 303.946 293.572 303.219L225.712 334.955C226.127 335.736 226.826 336.397 227.716 336.85L250 347.28C250.931 347.657 251.958 347.853 253 347.853C254.041 347.853 255.068 347.657 256 347.28L318.1 318.236C319.768 317.497 319.768 316.234 318.1 315.447Z" fill="#455A64"/>
<path d="M135.388 361.296L132.496 359.944C131.266 359.293 130.242 358.416 129.508 357.384C128.774 356.352 128.351 355.195 128.272 354.006V197.514C128.351 196.325 128.776 195.168 129.512 194.138C130.248 193.107 131.275 192.232 132.508 191.584L368.608 81.7484C369.921 81.2095 371.372 80.9287 372.844 80.9287C374.316 80.9287 375.767 81.2095 377.08 81.7484L379.276 82.7204C380.509 83.371 381.535 84.2478 382.271 85.2796C383.007 86.3115 383.432 87.4694 383.512 88.6593V245.249C383.433 246.439 383.008 247.597 382.272 248.629C381.536 249.661 380.509 250.537 379.276 251.187L143.848 361.296C142.536 361.832 141.087 362.112 139.618 362.112C138.149 362.112 136.7 361.832 135.388 361.296Z" fill="#455A64"/>
<path d="M145.288 201.46L129.508 194.083C128.759 195.109 128.346 196.273 128.308 197.465V354.006C128.387 355.195 128.81 356.352 129.544 357.384C130.278 358.416 131.302 359.293 132.532 359.945L135.424 361.296C136.736 361.832 138.185 362.112 139.654 362.112C141.124 362.112 142.572 361.832 143.884 361.296L145.324 360.615L145.288 201.46Z" fill="#263238"/>
<path d="M139.6 359.313V202.821C139.679 201.63 140.104 200.472 140.84 199.44C141.576 198.408 142.603 197.532 143.836 196.882L379.276 86.7249C381.616 85.6363 383.512 86.5208 383.512 88.6689V245.248C383.433 246.439 383.008 247.597 382.272 248.629C381.536 249.661 380.509 250.537 379.276 251.187L143.848 361.295C141.508 362.384 139.6 361.5 139.6 359.313Z" fill="#37474F"/>
<path d="M250.168 300.964L272.476 290.525C274.156 289.747 275.5 290.301 275.5 291.769C275.429 292.592 275.118 293.389 274.592 294.095C274.066 294.802 273.341 295.397 272.476 295.832L250.168 306.271C248.5 307.049 247.144 306.495 247.144 305.027C247.22 304.205 247.533 303.409 248.058 302.703C248.584 301.998 249.306 301.402 250.168 300.964Z" fill="#263238"/>
<path d="M150.46 201.596L372.184 97.5919C373.528 96.9698 374.584 97.4753 374.584 98.7194V235.198C374.542 235.876 374.303 236.537 373.885 237.127C373.468 237.716 372.885 238.218 372.184 238.59L150.46 342.283C149.128 342.905 148.06 342.4 148.06 341.146V205.066C148.091 204.375 148.325 203.699 148.742 203.096C149.16 202.493 149.749 201.978 150.46 201.596Z" fill="white"/>
<path d="M164.956 242.488L162.688 241.448C161.808 240.984 161.075 240.359 160.55 239.622C160.024 238.886 159.721 238.059 159.664 237.21V211.015C159.721 210.165 160.024 209.339 160.55 208.603C161.075 207.866 161.808 207.241 162.688 206.777L247.396 167.158C248.328 166.781 249.355 166.584 250.396 166.584C251.437 166.584 252.465 166.781 253.396 167.158L255.652 168.218C256.532 168.682 257.264 169.308 257.789 170.044C258.314 170.78 258.618 171.606 258.676 172.456V198.68C258.618 199.531 258.315 200.358 257.789 201.096C257.264 201.834 256.532 202.461 255.652 202.928L170.944 242.537C170.012 242.911 168.983 243.101 167.943 243.093C166.902 243.085 165.879 242.877 164.956 242.488Z" fill="#142C52"/>
<path opacity="0.4" d="M164.956 242.488L162.688 241.448C161.808 240.984 161.075 240.359 160.55 239.622C160.024 238.886 159.721 238.059 159.664 237.21V211.015C159.721 210.165 160.024 209.339 160.55 208.603C161.075 207.866 161.808 207.241 162.688 206.777L247.396 167.158C248.328 166.781 249.355 166.584 250.396 166.584C251.437 166.584 252.465 166.781 253.396 167.158L255.652 168.218C256.532 168.682 257.264 169.308 257.789 170.044C258.314 170.78 258.618 171.606 258.676 172.456V198.68C258.618 199.531 258.315 200.358 257.789 201.096C257.264 201.834 256.532 202.461 255.652 202.928L170.944 242.537C170.012 242.911 168.983 243.101 167.943 243.093C166.902 243.085 165.879 242.877 164.956 242.488Z" fill="#142C52"/>
<path opacity="0.3" d="M164.956 242.488L162.688 241.448C161.808 240.984 161.075 240.359 160.55 239.622C160.024 238.886 159.721 238.059 159.664 237.21V211.015C159.721 210.165 160.024 209.339 160.55 208.603C161.075 207.866 161.808 207.241 162.688 206.777L247.396 167.158C248.328 166.781 249.355 166.584 250.396 166.584C251.437 166.584 252.465 166.781 253.396 167.158L255.652 168.218C256.532 168.682 257.264 169.308 257.789 170.044C258.314 170.78 258.618 171.606 258.676 172.456V198.68C258.618 199.531 258.315 200.358 257.789 201.096C257.264 201.834 256.532 202.461 255.652 202.928L170.944 242.537C170.012 242.911 168.983 243.101 167.943 243.093C166.902 243.085 165.879 242.877 164.956 242.488Z" fill="white"/>
<path d="M173.644 214.728L160.552 208.604C160.011 209.334 159.706 210.163 159.664 211.015V237.191C159.721 238.04 160.024 238.866 160.55 239.603C161.075 240.339 161.808 240.965 162.688 241.428L164.956 242.488C165.885 242.871 166.913 243.071 167.956 243.071C168.999 243.071 170.027 242.871 170.956 242.488L173.608 241.253L173.644 214.728Z" fill="#142C52"/>
<path opacity="0.2" d="M173.644 214.728L160.552 208.604C160.011 209.334 159.706 210.163 159.664 211.015V237.191C159.721 238.04 160.024 238.866 160.55 239.603C161.075 240.339 161.808 240.965 162.688 241.428L164.956 242.488C165.885 242.871 166.913 243.071 167.956 243.071C168.999 243.071 170.027 242.871 170.956 242.488L173.608 241.253L173.644 214.728Z" fill="black"/>
<path d="M167.968 214.903V241.079C167.968 242.634 169.324 243.275 170.992 242.488L255.7 202.879C256.58 202.413 257.312 201.785 257.837 201.047C258.363 200.309 258.667 199.482 258.724 198.631V172.436C258.724 170.881 257.368 170.249 255.7 171.027L170.992 210.636C170.109 211.104 169.375 211.735 168.85 212.476C168.324 213.217 168.022 214.049 167.968 214.903Z" fill="#142C52"/>
<path d="M204.16 200.459L233.452 186.754C234.652 186.2 235.6 186.452 235.6 187.317C235.513 187.852 235.274 188.363 234.901 188.81C234.528 189.257 234.032 189.628 233.452 189.893L204.16 203.598C202.96 204.153 202 203.9 202 203.035C202.088 202.499 202.33 201.987 202.704 201.54C203.079 201.093 203.578 200.723 204.16 200.459Z" fill="white"/>
<path d="M203.824 208.575L251.2 186.394C252.208 185.927 253.024 186.141 253.024 186.87C252.952 187.324 252.749 187.757 252.432 188.135C252.115 188.513 251.693 188.826 251.2 189.048L203.788 211.229C202.78 211.695 201.964 211.481 201.964 210.752C202.04 210.296 202.248 209.861 202.571 209.483C202.894 209.104 203.324 208.793 203.824 208.575Z" fill="white"/>
<path d="M203.824 213.882L251.2 191.701C252.208 191.235 253.024 191.448 253.024 192.177C252.952 192.631 252.749 193.064 252.432 193.442C252.115 193.82 251.693 194.133 251.2 194.355L203.788 216.526C202.78 217.002 201.964 216.788 201.964 216.05C202.042 215.595 202.251 215.162 202.574 214.786C202.897 214.409 203.325 214.1 203.824 213.882Z" fill="white"/>
<path d="M203.824 219.18L251.2 197.008C252.208 196.542 253.024 196.756 253.024 197.485C252.95 197.936 252.747 198.367 252.43 198.744C252.113 199.12 251.692 199.431 251.2 199.652L203.788 221.823C202.78 222.29 201.964 222.076 201.964 221.347C202.042 220.893 202.251 220.46 202.574 220.083C202.897 219.707 203.325 219.397 203.824 219.18Z" fill="white"/>
<path d="M176.068 213.591L193.912 205.251C195.256 204.619 196.312 205.124 196.312 206.378V223.077C196.27 223.756 196.03 224.417 195.613 225.006C195.196 225.596 194.613 226.097 193.912 226.47L176.068 234.819C174.724 235.441 173.668 234.936 173.668 233.682V216.993C173.71 216.313 173.949 215.65 174.366 215.059C174.783 214.468 175.366 213.965 176.068 213.591Z" fill="#142C52"/>
<path opacity="0.3" d="M176.068 213.591L193.912 205.251C195.256 204.619 196.312 205.124 196.312 206.378V223.077C196.27 223.756 196.03 224.417 195.613 225.006C195.196 225.596 194.613 226.097 193.912 226.47L176.068 234.819C174.724 235.441 173.668 234.936 173.668 233.682V216.993C173.71 216.313 173.949 215.65 174.366 215.059C174.783 214.468 175.366 213.965 176.068 213.591Z" fill="white"/>
<path d="M177.592 220.91C177.214 220.911 176.843 220.834 176.512 220.686C176.117 220.478 175.797 220.188 175.586 219.846C175.375 219.504 175.281 219.123 175.312 218.742C175.365 217.844 175.682 216.97 176.237 216.192C176.793 215.414 177.57 214.756 178.504 214.271C178.882 214.025 179.342 213.877 179.826 213.847C180.309 213.816 180.792 213.906 181.212 214.102C181.632 214.299 181.968 214.594 182.176 214.949C182.385 215.303 182.456 215.701 182.38 216.088C182.33 216.985 182.015 217.859 181.461 218.637C180.908 219.415 180.133 220.074 179.2 220.56C178.711 220.789 178.157 220.909 177.592 220.91ZM179.2 215.204C178.483 215.592 177.886 216.109 177.455 216.714C177.024 217.319 176.772 217.996 176.716 218.693C176.642 218.88 176.649 219.081 176.736 219.263C176.823 219.445 176.985 219.598 177.194 219.696C177.403 219.794 177.647 219.83 177.885 219.8C178.124 219.77 178.342 219.674 178.504 219.529C179.222 219.142 179.82 218.626 180.251 218.021C180.682 217.415 180.934 216.737 180.988 216.04C181.062 215.854 181.055 215.653 180.968 215.47C180.881 215.288 180.72 215.135 180.511 215.037C180.302 214.94 180.057 214.903 179.819 214.933C179.581 214.964 179.362 215.059 179.2 215.204Z" fill="white"/>
<path d="M196.336 217.148L192.928 214.232C192.76 214.095 192.554 213.992 192.326 213.933C192.099 213.874 191.857 213.86 191.622 213.893C191.387 213.925 191.165 214.003 190.974 214.119C190.784 214.236 190.631 214.388 190.528 214.563L185.632 223.311L183.232 221.561C183.07 221.445 182.879 221.357 182.672 221.305C182.465 221.254 182.247 221.238 182.032 221.26C181.818 221.283 181.613 221.344 181.431 221.438C181.248 221.532 181.093 221.657 180.976 221.804L173.644 231.028V233.128L182.284 222.436L190.168 228.219L191.428 227.626L186.688 224.146L191.764 215.058H191.92L196.336 218.859V217.148Z" fill="white"/>
<path d="M164.956 286.228L162.688 285.188C161.808 284.724 161.075 284.099 160.55 283.362C160.024 282.626 159.721 281.799 159.664 280.95V254.755C159.721 253.905 160.024 253.079 160.55 252.342C161.075 251.606 161.808 250.98 162.688 250.517L247.396 210.898C248.328 210.521 249.355 210.324 250.396 210.324C251.437 210.324 252.465 210.521 253.396 210.898L255.652 211.957C256.532 212.422 257.264 213.047 257.789 213.784C258.314 214.52 258.618 215.346 258.676 216.195V242.42C258.618 243.27 258.315 244.098 257.789 244.836C257.264 245.574 256.532 246.201 255.652 246.667L170.944 286.276C170.012 286.651 168.983 286.841 167.943 286.833C166.902 286.824 165.879 286.617 164.956 286.228Z" fill="#142C52"/>
<path opacity="0.4" d="M164.956 286.228L162.688 285.188C161.808 284.724 161.075 284.099 160.55 283.362C160.024 282.626 159.721 281.799 159.664 280.95V254.755C159.721 253.905 160.024 253.079 160.55 252.342C161.075 251.606 161.808 250.98 162.688 250.517L247.396 210.898C248.328 210.521 249.355 210.324 250.396 210.324C251.437 210.324 252.465 210.521 253.396 210.898L255.652 211.957C256.532 212.422 257.264 213.047 257.789 213.784C258.314 214.52 258.618 215.346 258.676 216.195V242.42C258.618 243.27 258.315 244.098 257.789 244.836C257.264 245.574 256.532 246.201 255.652 246.667L170.944 286.276C170.012 286.651 168.983 286.841 167.943 286.833C166.902 286.824 165.879 286.617 164.956 286.228Z" fill="#142C52"/>
<path opacity="0.3" d="M164.956 286.228L162.688 285.188C161.808 284.724 161.075 284.099 160.55 283.362C160.024 282.626 159.721 281.799 159.664 280.95V254.755C159.721 253.905 160.024 253.079 160.55 252.342C161.075 251.606 161.808 250.98 162.688 250.517L247.396 210.898C248.328 210.521 249.355 210.324 250.396 210.324C251.437 210.324 252.465 210.521 253.396 210.898L255.652 211.957C256.532 212.422 257.264 213.047 257.789 213.784C258.314 214.52 258.618 215.346 258.676 216.195V242.42C258.618 243.27 258.315 244.098 257.789 244.836C257.264 245.574 256.532 246.201 255.652 246.667L170.944 286.276C170.012 286.651 168.983 286.841 167.943 286.833C166.902 286.824 165.879 286.617 164.956 286.228Z" fill="white"/>
<path d="M173.644 258.467L160.552 252.344C160.011 253.074 159.706 253.903 159.664 254.754V280.93C159.721 281.78 160.024 282.606 160.55 283.342C161.075 284.079 161.808 284.704 162.688 285.168L164.956 286.228C165.885 286.611 166.913 286.811 167.956 286.811C168.999 286.811 170.027 286.611 170.956 286.228L173.608 284.993L173.644 258.467Z" fill="#142C52"/>
<path opacity="0.2" d="M173.644 258.467L160.552 252.344C160.011 253.074 159.706 253.903 159.664 254.754V280.93C159.721 281.78 160.024 282.606 160.55 283.342C161.075 284.079 161.808 284.704 162.688 285.168L164.956 286.228C165.885 286.611 166.913 286.811 167.956 286.811C168.999 286.811 170.027 286.611 170.956 286.228L173.608 284.993L173.644 258.467Z" fill="black"/>
<path d="M167.968 258.642V284.818C167.968 286.374 169.324 287.015 170.992 286.228L255.7 246.619C256.58 246.152 257.312 245.525 257.837 244.787C258.363 244.049 258.667 243.222 258.724 242.371V216.176C258.724 214.621 257.368 213.989 255.7 214.766L170.992 254.375C170.109 254.844 169.375 255.474 168.85 256.216C168.324 256.957 168.022 257.789 167.968 258.642Z" fill="#142C52"/>
<path d="M204.16 244.199L233.452 230.493C234.652 229.939 235.6 230.192 235.6 231.057C235.513 231.592 235.274 232.103 234.901 232.55C234.528 232.997 234.032 233.368 233.452 233.633L204.16 247.338C202.96 247.892 202 247.64 202 246.774C202.088 246.239 202.33 245.727 202.704 245.28C203.079 244.833 203.578 244.463 204.16 244.199Z" fill="white"/>
<path d="M203.824 252.315L251.2 230.134C252.208 229.667 253.024 229.881 253.024 230.61C252.952 231.063 252.749 231.497 252.432 231.875C252.115 232.253 251.693 232.566 251.2 232.787L203.788 254.968C202.78 255.435 201.964 255.221 201.964 254.492C202.04 254.036 202.248 253.601 202.571 253.223C202.894 252.844 203.324 252.533 203.824 252.315Z" fill="white"/>
<path d="M203.824 257.622L251.2 235.441C252.208 234.975 253.024 235.189 253.024 235.918C252.952 236.371 252.749 236.804 252.432 237.182C252.115 237.561 251.693 237.873 251.2 238.095L203.788 260.266C202.78 260.743 201.964 260.529 201.964 259.79C202.042 259.336 202.251 258.903 202.574 258.526C202.897 258.149 203.325 257.84 203.824 257.622Z" fill="white"/>
<path d="M203.824 262.919L251.2 240.748C252.208 240.281 253.024 240.495 253.024 241.224C252.95 241.676 252.747 242.107 252.43 242.484C252.113 242.86 251.692 243.171 251.2 243.392L203.788 265.563C202.78 266.03 201.964 265.816 201.964 265.087C202.042 264.633 202.251 264.2 202.574 263.823C202.897 263.446 203.325 263.137 203.824 262.919Z" fill="white"/>
<path d="M176.068 257.331L193.912 248.991C195.256 248.359 196.312 248.865 196.312 250.119V266.817C196.27 267.496 196.03 268.157 195.613 268.746C195.196 269.336 194.613 269.837 193.912 270.21L176.068 278.559C174.724 279.181 173.668 278.676 173.668 277.422V260.733C173.71 260.053 173.949 259.391 174.366 258.8C174.783 258.209 175.366 257.705 176.068 257.331Z" fill="#142C52"/>
<path opacity="0.3" d="M176.068 257.331L193.912 248.991C195.256 248.359 196.312 248.865 196.312 250.119V266.817C196.27 267.496 196.03 268.157 195.613 268.746C195.196 269.336 194.613 269.837 193.912 270.21L176.068 278.559C174.724 279.181 173.668 278.676 173.668 277.422V260.733C173.71 260.053 173.949 259.391 174.366 258.8C174.783 258.209 175.366 257.705 176.068 257.331Z" fill="white"/>
<path d="M177.592 264.65C177.214 264.651 176.843 264.574 176.512 264.426C176.117 264.218 175.797 263.928 175.586 263.586C175.375 263.245 175.281 262.863 175.312 262.482C175.365 261.585 175.682 260.71 176.237 259.933C176.793 259.155 177.57 258.496 178.504 258.011C178.882 257.765 179.342 257.617 179.826 257.587C180.309 257.557 180.792 257.646 181.212 257.843C181.632 258.039 181.968 258.334 182.176 258.689C182.385 259.043 182.456 259.441 182.38 259.829C182.33 260.726 182.015 261.6 181.461 262.378C180.908 263.155 180.133 263.815 179.2 264.3C178.711 264.529 178.157 264.65 177.592 264.65ZM179.2 258.944C178.483 259.332 177.886 259.849 177.455 260.454C177.024 261.059 176.772 261.737 176.716 262.434C176.642 262.62 176.649 262.821 176.736 263.003C176.823 263.186 176.985 263.338 177.194 263.436C177.403 263.534 177.647 263.571 177.885 263.54C178.124 263.51 178.342 263.414 178.504 263.27C179.222 262.883 179.82 262.366 180.251 261.761C180.682 261.155 180.934 260.478 180.988 259.78C181.062 259.594 181.055 259.393 180.968 259.211C180.881 259.028 180.72 258.875 180.511 258.778C180.302 258.68 180.057 258.643 179.819 258.673C179.581 258.704 179.362 258.799 179.2 258.944Z" fill="white"/>
<path d="M196.336 260.888L192.928 257.972C192.76 257.835 192.554 257.732 192.326 257.673C192.099 257.614 191.857 257.6 191.622 257.632C191.387 257.665 191.165 257.742 190.974 257.859C190.784 257.976 190.631 258.128 190.528 258.302L185.632 267.05L183.232 265.301C183.07 265.184 182.879 265.097 182.672 265.045C182.465 264.993 182.247 264.978 182.032 264.999C181.818 265.023 181.613 265.084 181.431 265.178C181.248 265.272 181.093 265.397 180.976 265.544L173.644 274.768V276.877L182.284 266.137L190.168 271.92L191.428 271.327L186.688 267.847L191.764 258.759H191.92L196.336 262.56V260.888Z" fill="white"/>
<path d="M164.956 328.996L162.688 327.956C161.808 327.493 161.075 326.867 160.55 326.131C160.024 325.394 159.721 324.568 159.664 323.718V297.523C159.721 296.674 160.024 295.847 160.55 295.111C161.075 294.375 161.808 293.749 162.688 293.285L247.396 253.666C248.328 253.289 249.355 253.093 250.396 253.093C251.437 253.093 252.465 253.289 253.396 253.666L255.652 254.726C256.532 255.19 257.264 255.816 257.789 256.552C258.314 257.289 258.618 258.115 258.676 258.964V285.188C258.618 286.039 258.315 286.866 257.789 287.604C257.264 288.342 256.532 288.97 255.652 289.436L170.944 329.045C170.012 329.419 168.983 329.61 167.943 329.601C166.902 329.593 165.879 329.386 164.956 328.996Z" fill="#142C52"/>
<path opacity="0.4" d="M164.956 328.996L162.688 327.956C161.808 327.493 161.075 326.867 160.55 326.131C160.024 325.394 159.721 324.568 159.664 323.718V297.523C159.721 296.674 160.024 295.847 160.55 295.111C161.075 294.375 161.808 293.749 162.688 293.285L247.396 253.666C248.328 253.289 249.355 253.093 250.396 253.093C251.437 253.093 252.465 253.289 253.396 253.666L255.652 254.726C256.532 255.19 257.264 255.816 257.789 256.552C258.314 257.289 258.618 258.115 258.676 258.964V285.188C258.618 286.039 258.315 286.866 257.789 287.604C257.264 288.342 256.532 288.97 255.652 289.436L170.944 329.045C170.012 329.419 168.983 329.61 167.943 329.601C166.902 329.593 165.879 329.386 164.956 328.996Z" fill="#142C52"/>
<path opacity="0.3" d="M164.956 328.996L162.688 327.956C161.808 327.493 161.075 326.867 160.55 326.131C160.024 325.394 159.721 324.568 159.664 323.718V297.523C159.721 296.674 160.024 295.847 160.55 295.111C161.075 294.375 161.808 293.749 162.688 293.285L247.396 253.666C248.328 253.289 249.355 253.093 250.396 253.093C251.437 253.093 252.465 253.289 253.396 253.666L255.652 254.726C256.532 255.19 257.264 255.816 257.789 256.552C258.314 257.289 258.618 258.115 258.676 258.964V285.188C258.618 286.039 258.315 286.866 257.789 287.604C257.264 288.342 256.532 288.97 255.652 289.436L170.944 329.045C170.012 329.419 168.983 329.61 167.943 329.601C166.902 329.593 165.879 329.386 164.956 328.996Z" fill="white"/>
<path d="M173.644 301.236L160.552 295.112C160.011 295.843 159.706 296.672 159.664 297.523V323.699C159.721 324.548 160.024 325.375 160.55 326.111C161.075 326.847 161.808 327.473 162.688 327.937L164.956 328.996C165.885 329.379 166.913 329.579 167.956 329.579C168.999 329.579 170.027 329.379 170.956 328.996L173.608 327.762L173.644 301.236Z" fill="#142C52"/>
<path opacity="0.2" d="M173.644 301.236L160.552 295.112C160.011 295.843 159.706 296.672 159.664 297.523V323.699C159.721 324.548 160.024 325.375 160.55 326.111C161.075 326.847 161.808 327.473 162.688 327.937L164.956 328.996C165.885 329.379 166.913 329.579 167.956 329.579C168.999 329.579 170.027 329.379 170.956 328.996L173.608 327.762L173.644 301.236Z" fill="black"/>
<path d="M167.968 301.411V327.587C167.968 329.142 169.324 329.784 170.992 328.996L255.7 289.387C256.58 288.921 257.312 288.293 257.837 287.556C258.363 286.818 258.667 285.99 258.724 285.14V258.944C258.724 257.389 257.368 256.757 255.7 257.535L170.992 297.144C170.109 297.612 169.375 298.243 168.85 298.984C168.324 299.726 168.022 300.557 167.968 301.411Z" fill="#142C52"/>
<path d="M204.16 286.967L233.452 273.262C234.652 272.708 235.6 272.96 235.6 273.825C235.513 274.36 235.274 274.871 234.901 275.318C234.528 275.765 234.032 276.136 233.452 276.401L204.16 290.106C202.96 290.66 202 290.408 202 289.543C202.088 289.007 202.33 288.495 202.704 288.048C203.079 287.601 203.578 287.231 204.16 286.967Z" fill="white"/>
<path d="M203.824 295.083L251.2 272.902C252.208 272.436 253.024 272.65 253.024 273.379C252.952 273.832 252.749 274.265 252.432 274.643C252.115 275.022 251.693 275.334 251.2 275.556L203.788 297.737C202.78 298.204 201.964 297.99 201.964 297.261C202.04 296.805 202.248 296.37 202.571 295.991C202.894 295.613 203.324 295.302 203.824 295.083Z" fill="white"/>
<path d="M203.824 300.39L251.2 278.209C252.208 277.742 253.024 277.956 253.024 278.685C252.952 279.139 252.749 279.572 252.432 279.95C252.115 280.328 251.693 280.641 251.2 280.863L203.788 303.034C202.78 303.51 201.964 303.296 201.964 302.558C202.042 302.103 202.251 301.67 202.574 301.294C202.897 300.917 203.325 300.607 203.824 300.39Z" fill="white"/>
<path d="M203.824 305.688L251.2 283.517C252.208 283.05 253.024 283.264 253.024 283.993C252.95 284.444 252.747 284.876 252.43 285.252C252.113 285.629 251.692 285.94 251.2 286.16L203.788 308.332C202.78 308.798 201.964 308.584 201.964 307.855C202.042 307.401 202.251 306.968 202.574 306.591C202.897 306.215 203.325 305.905 203.824 305.688Z" fill="white"/>
<path d="M176.068 300.098L193.912 291.759C195.256 291.127 196.312 291.632 196.312 292.886V309.585C196.27 310.264 196.03 310.924 195.613 311.514C195.196 312.103 194.613 312.605 193.912 312.977L176.068 321.327C174.724 321.949 173.668 321.443 173.668 320.19V303.5C173.71 302.82 173.949 302.158 174.366 301.567C174.783 300.976 175.366 300.473 176.068 300.098Z" fill="#142C52"/>
<path opacity="0.3" d="M176.068 300.098L193.912 291.759C195.256 291.127 196.312 291.632 196.312 292.886V309.585C196.27 310.264 196.03 310.924 195.613 311.514C195.196 312.103 194.613 312.605 193.912 312.977L176.068 321.327C174.724 321.949 173.668 321.443 173.668 320.19V303.5C173.71 302.82 173.949 302.158 174.366 301.567C174.783 300.976 175.366 300.473 176.068 300.098Z" fill="white"/>
<path d="M177.592 307.417C177.214 307.419 176.843 307.342 176.512 307.194C176.117 306.986 175.797 306.696 175.586 306.354C175.375 306.012 175.281 305.631 175.312 305.25C175.365 304.352 175.682 303.478 176.237 302.7C176.793 301.922 177.57 301.263 178.504 300.779C178.882 300.532 179.342 300.384 179.826 300.354C180.309 300.324 180.792 300.413 181.212 300.61C181.632 300.807 181.968 301.102 182.176 301.457C182.385 301.811 182.456 302.208 182.38 302.596C182.33 303.493 182.015 304.367 181.461 305.145C180.908 305.923 180.133 306.582 179.2 307.068C178.711 307.296 178.157 307.417 177.592 307.417ZM179.2 301.712C178.483 302.1 177.886 302.617 177.455 303.222C177.024 303.827 176.772 304.504 176.716 305.201C176.642 305.387 176.649 305.588 176.736 305.771C176.823 305.953 176.985 306.106 177.194 306.204C177.403 306.301 177.647 306.338 177.885 306.308C178.124 306.278 178.342 306.182 178.504 306.037C179.222 305.65 179.82 305.134 180.251 304.528C180.682 303.923 180.934 303.245 180.988 302.548C181.062 302.362 181.055 302.161 180.968 301.978C180.881 301.796 180.72 301.643 180.511 301.545C180.302 301.447 180.057 301.411 179.819 301.441C179.581 301.471 179.362 301.567 179.2 301.712Z" fill="white"/>
<path d="M196.336 303.656L192.928 300.74C192.76 300.603 192.554 300.501 192.326 300.441C192.099 300.382 191.857 300.368 191.622 300.401C191.387 300.433 191.165 300.511 190.974 300.628C190.784 300.744 190.631 300.896 190.528 301.071L185.632 309.819L183.232 308.069C183.07 307.953 182.879 307.866 182.672 307.814C182.465 307.762 182.247 307.746 182.032 307.768C181.818 307.792 181.613 307.853 181.431 307.947C181.248 308.041 181.093 308.165 180.976 308.312L173.644 317.537V319.646L182.284 308.905L190.168 314.689L191.428 314.096L186.688 310.616L191.764 301.528H191.92L196.336 305.328V303.656Z" fill="white"/>
<path d="M272.716 276.965L270.46 275.905C269.58 275.442 268.847 274.816 268.322 274.08C267.796 273.343 267.493 272.517 267.436 271.667V160.616C267.494 159.767 267.798 158.941 268.323 158.205C268.848 157.469 269.58 156.843 270.46 156.379L400.54 95.5411C401.47 95.1594 402.498 94.9604 403.54 94.9604C404.582 94.9604 405.61 95.1594 406.54 95.5411L408.844 96.62C409.724 97.0865 410.456 97.714 410.981 98.4518C411.507 99.1897 411.81 100.017 411.868 100.868V211.889C411.81 212.739 411.506 213.565 410.981 214.301C410.456 215.037 409.724 215.663 408.844 216.127L278.8 276.965C277.859 277.358 276.816 277.563 275.758 277.563C274.7 277.563 273.657 277.358 272.716 276.965Z" fill="#142C52"/>
<path d="M281.416 164.33L268.324 158.206C267.778 158.935 267.472 159.765 267.436 160.617V271.668C267.493 272.517 267.796 273.343 268.322 274.08C268.847 274.816 269.58 275.442 270.46 275.906L272.716 276.965C273.646 277.347 274.674 277.546 275.716 277.546C276.758 277.546 277.786 277.347 278.716 276.965L281.368 275.731L281.416 164.33Z" fill="#E6E6E6"/>
<path d="M281.416 164.33L268.324 158.206C267.778 158.935 267.472 159.765 267.436 160.617V165.749L275.74 169.637L281.416 164.33Z" fill="#142C52"/>
<g opacity="0.2">
<path d="M281.416 164.33L268.324 158.206C267.778 158.935 267.472 159.765 267.436 160.617V165.749L275.74 169.637L281.416 164.33Z" fill="black"/>
</g>
<path d="M275.74 164.505V275.556C275.74 277.111 277.096 277.752 278.764 276.965L408.844 216.176C409.724 215.712 410.456 215.086 410.981 214.35C411.507 213.613 411.811 212.787 411.868 211.938V100.839C411.868 99.2736 410.512 98.6419 408.844 99.4195L278.8 160.267C277.913 160.727 277.174 161.351 276.642 162.088C276.11 162.825 275.801 163.653 275.74 164.505Z" fill="#F5F5F5"/>
<path d="M289.924 168.694C294.616 166.497 298.432 168.276 298.432 172.669C298.272 175.061 297.418 177.388 295.94 179.461C294.462 181.535 292.401 183.298 289.924 184.605C285.22 186.812 281.416 185.023 281.416 180.63C281.575 178.238 282.428 175.911 283.907 173.837C285.385 171.763 287.447 170.001 289.924 168.694Z" fill="#142C52"/>
<path d="M307.132 163.144L335.116 150.08C336.784 149.302 338.14 149.856 338.14 151.314C338.065 152.138 337.752 152.935 337.227 153.643C336.702 154.35 335.979 154.948 335.116 155.387L307.132 168.451C305.452 169.228 304.108 168.674 304.108 167.216C304.181 166.393 304.493 165.595 305.018 164.887C305.544 164.179 306.268 163.582 307.132 163.144Z" fill="#142C52"/>
<path d="M305.62 172.562L325.276 163.367C326.116 162.978 326.788 163.251 326.788 163.989C326.751 164.401 326.595 164.799 326.333 165.152C326.07 165.505 325.708 165.803 325.276 166.021L305.62 175.216C304.78 175.605 304.108 175.333 304.108 174.594C304.144 174.183 304.3 173.784 304.563 173.431C304.826 173.078 305.188 172.78 305.62 172.562Z" fill="#142C52"/>
<path d="M284.44 192.479L403.18 136.948C404.848 136.171 406.204 136.802 406.204 138.367V206.981C406.147 207.83 405.844 208.657 405.318 209.393C404.793 210.129 404.06 210.755 403.18 211.219L284.38 266.778C282.712 267.556 281.416 266.924 281.416 265.369V196.736C281.47 195.883 281.772 195.053 282.298 194.314C282.823 193.574 283.557 192.945 284.44 192.479Z" fill="#142C52"/>
<path d="M312.856 237.822C312.456 237.826 312.062 237.742 311.716 237.579C311.305 237.351 310.977 237.037 310.766 236.672C310.555 236.306 310.469 235.901 310.516 235.499V198.68C310.573 197.73 310.909 196.806 311.495 195.983C312.081 195.159 312.902 194.461 313.888 193.946L373.048 166.283C373.457 166.049 373.936 165.91 374.436 165.881C374.935 165.852 375.434 165.934 375.88 166.118C376.29 166.345 376.617 166.657 376.828 167.021C377.039 167.385 377.126 167.788 377.08 168.188V204.978C377.026 205.927 376.691 206.851 376.105 207.673C375.518 208.495 374.696 209.191 373.708 209.702L314.548 237.365C314.045 237.639 313.461 237.797 312.856 237.822ZM374.704 167.041C374.349 167.056 374.006 167.147 373.708 167.304L314.548 194.967C313.776 195.383 313.134 195.938 312.672 196.589C312.21 197.24 311.94 197.969 311.884 198.719V235.499C311.816 235.702 311.831 235.918 311.927 236.114C312.023 236.309 312.195 236.474 312.417 236.584C312.639 236.694 312.899 236.742 313.158 236.721C313.416 236.701 313.66 236.613 313.852 236.471L373.012 208.798C373.784 208.384 374.428 207.831 374.892 207.182C375.356 206.532 375.629 205.805 375.688 205.056V168.227C375.717 168.022 375.684 167.814 375.589 167.623C375.495 167.431 375.343 167.261 375.148 167.129C375.012 167.069 374.859 167.039 374.704 167.041Z" fill="white"/>
<path d="M320.992 206.932C320.352 206.936 319.723 206.802 319.168 206.543C318.481 206.165 317.931 205.645 317.576 205.036C317.222 204.428 317.075 203.753 317.152 203.083C317.247 201.389 317.841 199.739 318.885 198.269C319.929 196.799 321.392 195.554 323.152 194.636C323.803 194.201 324.602 193.937 325.443 193.88C326.284 193.823 327.127 193.975 327.858 194.317C328.589 194.658 329.173 195.173 329.534 195.791C329.894 196.409 330.012 197.102 329.872 197.776C329.77 199.468 329.173 201.117 328.129 202.585C327.086 204.054 325.627 205.301 323.872 206.223C323.005 206.658 322.012 206.902 320.992 206.932ZM323.872 195.608C322.322 196.428 321.032 197.532 320.107 198.831C319.181 200.129 318.646 201.586 318.544 203.083C318.403 203.557 318.455 204.055 318.693 204.503C318.93 204.951 319.341 205.324 319.862 205.567C320.384 205.81 320.989 205.91 321.586 205.851C322.184 205.792 322.742 205.578 323.176 205.241C324.722 204.421 326.009 203.318 326.932 202.021C327.856 200.725 328.39 199.271 328.492 197.776C328.633 197.303 328.582 196.806 328.346 196.359C328.11 195.912 327.701 195.538 327.182 195.295C326.662 195.051 326.059 194.95 325.463 195.006C324.866 195.063 324.308 195.274 323.872 195.608Z" fill="white"/>
<path d="M311.764 231.942L310.564 231.32L331.12 206.184C331.416 205.826 331.873 205.576 332.394 205.489C332.915 205.402 333.457 205.484 333.904 205.717L355.504 217.294L354.724 218.266L333.124 206.699C333.057 206.662 332.982 206.637 332.903 206.624C332.824 206.611 332.742 206.611 332.663 206.623C332.584 206.636 332.508 206.661 332.441 206.698C332.374 206.734 332.317 206.781 332.272 206.835L311.764 231.942Z" fill="white"/>
<path d="M343.888 211.666L342.688 211.141L358.792 186.676C358.946 186.441 359.169 186.241 359.441 186.092C359.713 185.942 360.026 185.849 360.352 185.821C360.679 185.797 361.009 185.837 361.313 185.936C361.618 186.036 361.889 186.193 362.104 186.394L376.936 200.809L375.868 201.528L361 187.123C360.938 187.061 360.857 187.012 360.766 186.981C360.674 186.95 360.575 186.937 360.476 186.945C360.378 186.953 360.283 186.98 360.2 187.025C360.118 187.069 360.051 187.13 360.004 187.201L343.888 211.666Z" fill="white"/>
<path d="M411.868 100.839C411.868 99.2736 410.512 98.6419 408.844 99.4195L278.8 160.267C277.92 160.73 277.187 161.356 276.662 162.092C276.136 162.829 275.833 163.655 275.776 164.505V169.627L411.868 105.971V100.839Z" fill="#142C52"/>
<path opacity="0.1" d="M411.868 100.839C411.868 99.2736 410.512 98.6419 408.844 99.4195L278.8 160.267C277.92 160.73 277.187 161.356 276.662 162.092C276.136 162.829 275.833 163.655 275.776 164.505V169.627L411.868 105.971V100.839Z" fill="black"/>
<path d="M452.164 220.443C448.648 223.845 442.24 230.338 438.964 233.682C437.22 235.431 436.279 237.615 436.3 239.864C436.3 241.535 436.888 242.925 438.892 242.216C440.611 241.531 442.141 240.572 443.392 239.397C445.3 237.871 452.056 231.291 452.056 231.291C452.056 231.291 457.24 220.249 460.096 219.549C461.643 219.137 463.271 218.962 464.896 219.034C461.464 218.12 456.616 216.176 452.164 220.443Z" fill="#F28F8F"/>
<path d="M466.612 216.817C463.084 214.669 457.132 215.233 453.832 218.46C451.432 220.822 445.672 226.596 445.672 226.596C446.374 227.861 447.395 228.993 448.67 229.919C449.946 230.845 451.447 231.544 453.076 231.971L466.612 216.817Z" fill="#142C52"/>
<path opacity="0.1" d="M466.612 216.817C463.084 214.669 457.132 215.233 453.832 218.46C451.432 220.822 445.672 226.596 445.672 226.596C446.374 227.861 447.395 228.993 448.67 229.919C449.946 230.845 451.447 231.544 453.076 231.971L466.612 216.817Z" fill="black"/>
<path d="M412.456 304.783L391.468 324.223C391.335 324.348 391.157 324.435 390.959 324.473C390.762 324.511 390.555 324.498 390.367 324.436C390.179 324.374 390.02 324.265 389.911 324.126C389.803 323.987 389.752 323.824 389.764 323.66L391.864 297.756L412.456 304.783Z" fill="#455A64"/>
<path d="M389.764 323.63C389.752 323.794 389.803 323.958 389.911 324.097C390.02 324.236 390.179 324.344 390.367 324.407C390.555 324.469 390.762 324.482 390.959 324.444C391.157 324.405 391.335 324.318 391.468 324.194L395.56 320.413C394.581 320.494 393.593 320.355 392.704 320.012C391.815 319.67 391.06 319.136 390.52 318.469L390.22 318.1L389.764 323.63Z" fill="#263238"/>
<path d="M443.2 197.134L442.072 199.341L440.704 201.994L391.864 297.727C393.148 300.446 395.662 302.667 398.896 303.938C403.696 306.027 409.48 306.397 412.444 304.783L460.948 209.761L463.552 204.667C461.644 207.885 441.364 200.381 443.2 197.134Z" fill="#37474F"/>
<path d="M438.904 205.484L436.396 210.412C435.616 211.831 438.904 213.999 443.092 215.768C448.624 218.13 455.728 219.763 456.772 217.896L458.608 214.261L459.268 212.959C458.224 214.825 451.12 213.192 445.576 210.83C441.568 209.129 438.376 207.049 438.844 205.639C438.845 205.584 438.866 205.53 438.904 205.484Z" fill="#455A64"/>
<path d="M438.292 206.757C436.456 210.033 456.82 217.507 458.692 214.232L461.224 209.304C459.388 212.579 439.024 205.105 440.824 201.829L438.292 206.757Z" fill="#37474F"/>
<path d="M443.2 197.134L440.704 201.994C438.88 205.202 458.452 212.57 460.924 209.77C460.977 209.717 461.022 209.658 461.056 209.595L463.528 204.677C461.644 207.885 441.364 200.381 443.2 197.134Z" fill="#455A64"/>
<path d="M453.808 176.47L443.2 197.134C442.408 198.524 445.6 200.692 449.788 202.461C455.32 204.833 462.436 206.514 463.528 204.667L473.704 184.79C476.548 180.319 466.744 174.681 459.688 174.351C457.096 174.195 454.864 174.798 453.808 176.47Z" fill="#263238"/>
<path d="M461.632 206.874C466.351 206.874 470.176 203.776 470.176 199.953C470.176 196.131 466.351 193.033 461.632 193.033C456.913 193.033 453.088 196.131 453.088 199.953C453.088 203.776 456.913 206.874 461.632 206.874Z" fill="#263238"/>
<path d="M482.08 317.03H476.068V325.37H482.08V317.03Z" fill="#FFA8A7"/>
<path d="M461.224 316.593L455.212 316.759L454.912 307.923L460.924 307.758L461.224 316.593Z" fill="#FFA8A7"/>
<path d="M481.696 250.896C481.696 255.551 482.44 283.749 482.44 283.749C482.572 285.09 484.132 287.559 483.796 292.701C483.34 299.69 482.596 317.857 482.596 317.857C482.596 317.857 479.764 320.121 475.78 317.857C475.78 317.857 470.332 292.73 469.264 285.781C468.316 279.744 466.72 263.327 466.72 263.327L461.2 282.67C461.2 282.67 462.184 287.209 462.4 290.446C462.616 293.683 461.38 310.431 461.38 310.431C460.406 310.927 459.288 311.207 458.138 311.243C456.988 311.279 455.847 311.069 454.828 310.635C454.828 310.635 450.028 285.363 449.38 282.447C448.732 279.531 453.604 250.954 453.604 250.954L481.696 250.896Z" fill="#37474F"/>
<path d="M475.912 217.225C477.195 217.406 478.383 217.892 479.325 218.62C480.268 219.349 480.921 220.288 481.204 221.318C481.529 222.534 481.694 223.776 481.696 225.021V250.896C477.472 254.609 462.76 256.339 453.544 250.896C453.544 250.896 453.736 228.034 454.42 224.282C455.62 217.76 459.472 215.427 463.348 215.68L472.636 216.749L475.912 217.225Z" fill="#142C52"/>
<path d="M476.404 204.872C475.888 206.942 475.239 208.989 474.46 211.005C474.09 211.539 473.479 211.936 472.756 212.113L472.852 208.41L476.404 204.872Z" fill="#263238"/>
<path d="M474.664 197.329C475.147 197.281 475.638 197.323 476.098 197.453C476.557 197.583 476.974 197.796 477.316 198.077C478.456 199.049 477.82 201.965 476.404 204.881L473.788 205.124L474.664 197.329Z" fill="#263238"/>
<path d="M473.008 205.114C473.536 205.367 474.28 204.56 474.928 204.006C475.18 203.771 475.503 203.591 475.866 203.485C476.228 203.379 476.618 203.35 476.998 203.401C477.379 203.451 477.736 203.58 478.038 203.775C478.339 203.969 478.574 204.223 478.72 204.512C479.788 206.339 477.796 208.75 476.14 209.168C473.284 209.897 472.852 208.41 472.852 208.41L472.636 216.759C472.004 217.878 471.04 218.852 469.829 219.595C468.619 220.338 467.2 220.826 465.7 221.016C460.636 221.57 461.68 218.188 463.3 216.535V213.999C462.03 214.16 460.743 214.212 459.46 214.154C457.348 213.892 456.028 212.55 455.392 210.713C454.372 207.797 453.988 205.367 454.852 199.545C455.8 193.169 464.956 193.101 469.9 195.657C474.844 198.213 473.008 205.114 473.008 205.114Z" fill="#FFA8A7"/>
<path d="M473.008 205.824C473.272 205.824 474.268 204.492 474.928 204.006C475.828 203.345 474.664 197.329 474.664 197.329C474.891 196.805 474.93 196.24 474.775 195.699C474.62 195.159 474.277 194.665 473.788 194.277C472.588 193.178 470.488 193.062 466.96 192.605C465.112 192.372 462.316 191.954 460.468 191.633C458.26 191.302 456.436 190.952 454.876 192.051C454.267 192.48 453.837 193.051 453.643 193.686C453.45 194.321 453.503 194.989 453.796 195.599C453.953 195.876 454.164 196.132 454.42 196.357C454.839 196.763 455.386 197.068 456.004 197.241C456.004 197.241 456.976 197.931 460.312 198.262C463.402 198.454 466.509 198.405 469.588 198.116C470.56 198.009 470.788 198.777 471.28 200.857C471.748 202.723 472.12 205.814 473.008 205.824Z" fill="#263238"/>
<path d="M474.652 197.796L477.82 196.415C477.718 196.243 477.574 196.089 477.397 195.963C477.22 195.836 477.013 195.74 476.789 195.68C476.564 195.62 476.328 195.598 476.092 195.614C475.857 195.63 475.628 195.684 475.42 195.774C474.998 195.969 474.685 196.286 474.542 196.662C474.399 197.037 474.439 197.443 474.652 197.796Z" fill="#263238"/>
<path d="M463.348 213.999C465.512 213.665 467.633 213.17 469.684 212.521C470.645 212.118 471.432 211.487 471.94 210.713C471.695 211.489 471.258 212.217 470.656 212.852C469.456 214.096 463.348 215.01 463.348 215.01V213.999Z" fill="#F28F8F"/>
<path d="M464.476 204.172C464.461 204.279 464.474 204.388 464.515 204.491C464.555 204.594 464.622 204.689 464.711 204.769C464.8 204.85 464.909 204.915 465.031 204.959C465.153 205.003 465.285 205.026 465.418 205.026C465.552 205.026 465.684 205.003 465.805 204.959C465.927 204.915 466.036 204.85 466.125 204.769C466.214 204.689 466.281 204.594 466.322 204.491C466.362 204.388 466.375 204.279 466.36 204.172C466.363 204.07 466.342 203.969 466.296 203.874C466.251 203.779 466.182 203.693 466.095 203.619C466.008 203.546 465.904 203.488 465.789 203.447C465.674 203.407 465.55 203.386 465.424 203.384C465.298 203.386 465.174 203.407 465.058 203.447C464.942 203.487 464.837 203.546 464.749 203.619C464.661 203.692 464.591 203.778 464.545 203.873C464.498 203.968 464.475 204.069 464.476 204.172Z" fill="#263238"/>
<path d="M465.472 201.295L467.488 202.189C467.631 201.966 467.663 201.707 467.576 201.466C467.488 201.225 467.289 201.021 467.02 200.896C466.887 200.838 466.74 200.802 466.589 200.79C466.438 200.779 466.286 200.792 466.142 200.829C465.997 200.866 465.863 200.927 465.748 201.007C465.633 201.087 465.539 201.185 465.472 201.295Z" fill="#263238"/>
<path d="M463.78 209.42L461.632 210.072C461.678 210.188 461.752 210.296 461.851 210.389C461.949 210.482 462.07 210.558 462.205 210.612C462.341 210.667 462.488 210.699 462.639 210.706C462.79 210.713 462.941 210.696 463.084 210.655C463.376 210.563 463.612 210.383 463.742 210.152C463.872 209.922 463.885 209.659 463.78 209.42Z" fill="#F28F8F"/>
<path d="M456.1 201.927L457.936 200.78C457.753 200.6 457.492 200.484 457.206 200.455C456.92 200.426 456.632 200.486 456.4 200.624C456.156 200.77 455.989 200.986 455.933 201.228C455.878 201.469 455.937 201.719 456.1 201.927Z" fill="#263238"/>
<path d="M456.664 203.948C456.669 204.099 456.729 204.246 456.836 204.37C456.944 204.494 457.094 204.589 457.268 204.644C457.443 204.699 457.633 204.711 457.816 204.678C457.998 204.646 458.165 204.57 458.294 204.461C458.424 204.352 458.511 204.214 458.544 204.065C458.578 203.916 458.556 203.763 458.482 203.624C458.407 203.485 458.284 203.367 458.127 203.284C457.97 203.202 457.787 203.159 457.6 203.161C457.474 203.162 457.35 203.183 457.235 203.224C457.12 203.264 457.016 203.323 456.929 203.396C456.842 203.469 456.773 203.556 456.728 203.65C456.682 203.745 456.661 203.846 456.664 203.948Z" fill="#263238"/>
<path d="M461.452 203.229L461.14 207.807L458.188 206.991L461.452 203.229Z" fill="#F28F8F"/>
<path d="M476.068 322.97V322.27C475.492 322.474 474.16 326.615 471.772 328.374C469.876 329.774 467.284 331.397 466.624 332.962C465.964 334.527 470.224 335.489 472 335.227C474.064 334.935 477.64 333.759 478.528 332.671C479.416 331.582 479.848 329.978 480.58 329.171C481.312 328.365 482.98 327.49 483.376 326.566C483.498 325.701 483.379 324.824 483.028 324C482.752 323.145 482.452 322.192 482.092 322.27V322.805C481.233 323.349 480.171 323.641 479.08 323.631C478.204 323.66 476.068 323.514 476.068 322.97Z" fill="#263238"/>
<path d="M455.2 315.252C454.888 315.252 454.624 315.621 454 316.224C452.952 317.071 451.735 317.767 450.4 318.284C448.144 319.198 443.764 320.608 441.784 321.327C440.584 321.784 440.584 322.989 441.88 323.679C443.176 324.369 446.26 324.865 449.968 324.194C451.984 323.825 454.624 322.318 456.292 322.396C457.96 322.474 461.092 322.464 462.292 321.774C463.492 321.084 463.024 319.626 462.676 318.362C462.328 317.099 461.752 314.882 461.188 314.98V315.407C460.468 316.292 456.784 316.661 455.188 316L455.2 315.252Z" fill="#263238"/>
<path d="M466.72 263.347C463.601 262.567 460.733 261.239 458.32 259.459C459.928 261.453 462.138 263.083 464.74 264.193L462.94 276.654L466.72 263.347Z" fill="#263238"/>
<path d="M433.036 245.161C434.528 245.324 436.006 245.558 437.464 245.861C438.68 246.29 440.006 246.474 441.328 246.396C443.044 246.308 447.532 244.588 451.504 242.634C455.856 240.333 459.691 237.446 462.844 234.1C466.444 229.969 470.428 223.456 472.336 220.968C474.244 218.48 476.044 218.217 478.156 218.295C480.652 218.373 482.236 220.239 480.052 224.059C476.921 229.285 473.086 234.213 468.616 238.756C465.18 242.048 461.097 244.859 456.532 247.076C452.574 248.943 448.351 250.415 443.956 251.46C442.684 251.8 441.844 252.315 439.516 253.2C438.579 253.614 437.573 253.915 436.528 254.094C435.219 254.249 433.889 254.249 432.58 254.094C430.92 253.911 429.352 253.367 428.044 252.519C427.321 252.06 426.744 251.467 426.364 250.789C425.987 250.104 425.915 249.335 426.16 248.612C426.21 248.467 426.3 248.334 426.424 248.223C426.704 248.066 427.048 248.003 427.384 248.048C429.256 248.048 431.26 248.378 433.12 248.272C434.692 248.184 435.796 247.941 435.52 247.756C435.244 247.572 434.32 247.688 433.12 247.251C431.92 246.814 431.044 245.832 431.38 245.307C431.716 244.782 431.716 244.889 433.036 245.161Z" fill="#FFA8A7"/>
<path d="M477.352 217.576C477.941 217.567 478.525 217.657 479.069 217.84C479.613 218.023 480.105 218.295 480.513 218.639C480.921 218.983 481.236 219.392 481.44 219.839C481.644 220.287 481.731 220.764 481.696 221.24C481.696 223.894 476.632 231.582 472.756 235.966C472.756 235.966 466.756 235.655 463.552 231.971C463.552 231.971 469.192 224.7 470.752 222.387C472.096 220.307 474.556 217.469 477.352 217.576Z" fill="#142C52"/>
<path d="M427.12 228.666C428.939 228.026 430.947 227.823 432.904 228.083C434.488 228.287 434.488 232.554 429.412 233.915C426.112 234.79 424.132 234.401 423.064 236.598C423.064 236.598 420.928 236.374 421.42 233.915C421.952 231.388 423.344 229.032 425.44 227.111C426.892 225.721 426.988 224.555 427.708 224.943C428.428 225.332 428.14 226.693 428.14 226.693L427.12 228.666Z" fill="#FFA8A7"/>
<defs>
<filter id="filter0_d_969_16695" x="0" y="0" width="608" height="508" filterUnits="userSpaceOnUse" color-interpolation-filters="sRGB">
<feFlood flood-opacity="0" result="BackgroundImageFix"/>
<feColorMatrix in="SourceAlpha" type="matrix" values="0 0 0 0 0 0 0 0 0 0 0 0 0 0 0 0 0 0 127 0" result="hardAlpha"/>
<feOffset dy="4"/>
<feGaussianBlur stdDeviation="2"/>
<feComposite in2="hardAlpha" operator="out"/>
<feColorMatrix type="matrix" values="0 0 0 0 0 0 0 0 0 0 0 0 0 0 0 0 0 0 0.25 0"/>
<feBlend mode="normal" in2="BackgroundImageFix" result="effect1_dropShadow_969_16695"/>
<feBlend mode="normal" in="SourceGraphic" in2="effect1_dropShadow_969_16695" result="shape"/>
</filter>
</defs>
</svg>
