<svg width="424" height="447" viewBox="0 0 424 447" fill="none" xmlns="http://www.w3.org/2000/svg">
<path d="M377.769 176.772C364.539 157.522 333.679 153.772 316.249 169.342C316.069 161.47 313.584 153.824 309.101 147.35C304.619 140.877 298.337 135.86 291.032 132.921C283.727 129.983 275.721 129.251 268.004 130.817C260.288 132.383 253.2 136.178 247.619 141.732C250.109 132.982 240.929 124.452 231.849 123.982C222.769 123.512 214.359 128.392 206.569 133.082C198.779 137.772 190.319 142.602 181.239 141.992C171.409 141.332 163.239 134.472 154.059 130.922C131.579 122.232 103.129 137.652 98.1489 161.232C73.2689 151.232 41.3489 167.632 35.0889 193.722L399.369 197.972C398.07 192.792 395.365 188.071 391.554 184.33C387.742 180.59 382.972 177.974 377.769 176.772Z" fill="#F5F5F5"/>
<path d="M363.109 59.5415C363.739 54.9615 357.279 51.1915 352.419 50.8015C350.109 50.6215 347.699 50.9715 345.509 50.2115C340.759 48.5515 338.859 42.4115 334.229 40.4615C330.759 38.9915 326.769 40.3015 323.409 41.9915C320.049 43.6815 316.729 45.8115 312.969 46.0515C309.709 46.2615 306.159 45.0515 303.309 46.6415C301.179 47.8315 300.059 50.2815 298.099 51.7315C296.139 53.1815 293.679 53.4415 291.289 53.5715C288.899 53.7015 286.449 53.7315 284.289 54.7215C282.129 55.7115 280.289 58.0115 280.779 60.3515L363.109 59.5415Z" fill="#FAFAFA"/>
<path d="M45.9992 21.8815C46.3492 19.3215 42.7492 17.2215 39.9992 17.0115C38.7333 17.0531 37.4672 16.9389 36.2292 16.6715C33.5792 15.7515 32.5192 12.3215 29.9292 11.2315C27.9992 10.4215 25.7692 11.1415 23.9292 12.0915C22.0892 13.0415 20.1192 14.1815 18.0292 14.3515C16.1992 14.4715 14.2292 13.7915 12.6292 14.6815C11.4392 15.3515 10.8192 16.6815 9.72917 17.5215C8.58597 18.2156 7.26592 18.563 5.92917 18.5215C4.59411 18.4898 3.2648 18.7068 2.00917 19.1615C1.38075 19.3978 0.846005 19.8316 0.485336 20.3979C0.124668 20.9641 -0.0424268 21.6322 0.00917256 22.3015L45.9992 21.8815Z" fill="#FAFAFA"/>
<path d="M421.489 106.232C422.209 100.972 414.789 96.6416 409.209 96.2316C406.539 96.0116 403.779 96.4216 401.209 95.5416C395.749 93.6416 393.569 86.5416 388.209 84.3316C384.209 82.6516 379.639 84.1516 375.769 86.0916C371.899 88.0316 368.089 90.4816 363.769 90.7616C360.009 91.0016 355.939 89.6116 352.649 91.4416C350.209 92.8116 348.929 95.6316 346.649 97.2916C344.369 98.9516 341.559 99.2915 338.829 99.4115C336.099 99.5315 333.249 99.5916 330.759 100.732C328.269 101.872 326.199 104.512 326.759 107.202L421.489 106.232Z" fill="#EBEBEB"/>
<path d="M411.3 15.9516C411.81 12.2416 406.58 9.20156 402.65 8.88156C400.78 8.73156 398.83 9.02156 397.06 8.40156C393.21 7.06156 391.68 2.09156 387.93 0.511558C385.12 -0.668442 381.93 0.381556 379.18 1.75156C376.43 3.12156 373.77 4.84155 370.73 5.03155C368.09 5.20155 365.22 4.22156 362.91 5.51156C361.19 6.51156 360.29 8.51156 358.7 9.63156C357.058 10.6455 355.158 11.163 353.23 11.1216C351.295 11.0794 349.37 11.3946 347.55 12.0516C345.8 12.8516 344.35 14.7116 344.71 16.6116L411.3 15.9516Z" fill="#EBEBEB"/>
<path d="M61.0495 104.382C61.4295 101.622 57.5395 99.3816 54.6195 99.1216C53.2198 99.1792 51.8185 99.0582 50.4495 98.7616C47.5895 97.7616 46.4495 94.0716 43.6595 92.8916C41.5695 92.0116 39.1695 92.8016 37.1495 93.8116C35.1295 94.8216 33.1495 96.1116 30.8695 96.2616C28.8695 96.3816 26.7695 95.6616 25.0495 96.6216C23.7595 97.3316 23.0495 98.8116 21.9095 99.6816C20.6783 100.439 19.2545 100.824 17.8095 100.792C16.3721 100.757 14.9409 100.991 13.5895 101.482C12.9177 101.742 12.3482 102.213 11.9662 102.824C11.5841 103.435 11.4098 104.153 11.4695 104.872L61.0495 104.382Z" fill="#EBEBEB"/>
<path d="M163.849 62.1116C164.649 56.2916 156.429 51.5016 150.259 51.0016C147.309 50.7616 144.259 51.2116 141.459 50.2416C135.459 48.1316 132.999 40.3216 127.109 37.8416C122.699 35.9816 117.619 37.6316 113.349 39.7816C109.079 41.9316 104.849 44.6416 100.069 44.9516C95.9188 45.2116 91.4088 43.6716 87.7688 45.7016C85.0588 47.2116 83.6488 50.3316 81.1488 52.1816C78.6488 54.0316 75.5188 54.3616 72.4888 54.5216C69.4588 54.6816 66.3288 54.7216 63.5688 55.9816C60.8088 57.2416 58.5288 60.1816 59.0988 63.1816L163.849 62.1116Z" fill="#F5F5F5"/>
<path d="M30.8096 403.962C31.0617 403.649 31.343 403.361 31.6496 403.102L34.0196 400.862C36.0196 398.962 38.7596 396.342 41.7196 393.352C44.6796 390.362 47.2796 387.602 49.1496 385.582L51.3696 383.182C51.6275 382.877 51.912 382.596 52.2196 382.342C52.0009 382.673 51.7569 382.988 51.4896 383.282C50.9996 383.882 50.2696 384.732 49.3596 385.762C47.5396 387.832 44.9596 390.632 41.9996 393.622C39.0396 396.612 36.2296 399.182 34.2296 401.072C33.2296 401.982 32.3596 402.722 31.7696 403.222C31.4696 403.493 31.1486 403.741 30.8096 403.962Z" fill="#E0E0E0"/>
<path d="M394.52 406.832C394.52 406.832 394.36 406.652 394.11 406.272L393.11 404.562C392.21 403.082 390.95 400.902 389.44 398.192C386.44 392.762 382.44 385.122 378.16 376.642C373.88 368.162 369.98 360.482 367.06 354.992L363.58 348.512L362.64 346.732C362.513 346.533 362.415 346.318 362.35 346.092C362.511 346.263 362.649 346.454 362.76 346.662L363.76 348.362C364.66 349.842 365.92 352.022 367.43 354.742C370.43 360.172 374.43 367.802 378.71 376.292C382.99 384.782 386.89 392.442 389.81 397.932L393.29 404.422L394.23 406.182C394.353 406.385 394.451 406.604 394.52 406.832Z" fill="#E0E0E0"/>
<path d="M391.579 188.572H39.0095C30.9627 188.572 24.4395 195.095 24.4395 203.142V426.422C24.4395 434.468 30.9627 440.992 39.0095 440.992H391.579C399.626 440.992 406.149 434.468 406.149 426.422V203.142C406.149 195.095 399.626 188.572 391.579 188.572Z" fill="#455A64"/>
<path d="M9.51953 424.692H423.08V429.352C423.08 433.972 421.244 438.403 417.977 441.669C414.71 444.936 410.28 446.772 405.66 446.772H26.9395C22.3195 446.772 17.8886 444.936 14.6217 441.669C11.3548 438.403 9.51953 433.972 9.51953 429.352V424.692Z" fill="#455A64"/>
<path d="M394.83 198.602H34.6797V411.772H394.83V198.602Z" fill="#263238"/>
<path d="M177.659 422.332L182.799 430.492H255.009L259.769 422.332H177.659Z" fill="#263238"/>
<path d="M384.89 205.822H45.3696C43.5636 205.822 42.0996 207.286 42.0996 209.092V407.822C42.0996 409.628 43.5636 411.092 45.3696 411.092H384.89C386.696 411.092 388.16 409.628 388.16 407.822V209.092C388.16 207.286 386.696 205.822 384.89 205.822Z" fill="#EBEBEB"/>
<path d="M387.789 411.392H41.7295L42.0995 221.162H387.789V411.392Z" fill="#FAFAFA"/>
<path d="M70.4799 213.752C70.478 214.297 70.3144 214.83 70.0099 215.282C69.7055 215.735 69.2737 216.087 68.7692 216.294C68.2647 216.502 67.7101 216.555 67.1754 216.447C66.6407 216.34 66.1498 216.076 65.7648 215.69C65.3798 215.303 65.118 214.811 65.0123 214.276C64.9066 213.741 64.9618 213.187 65.171 212.683C65.3802 212.179 65.734 211.749 66.1876 211.446C66.6413 211.143 67.1745 210.982 67.7199 210.982C68.0832 210.982 68.443 211.053 68.7785 211.193C69.114 211.332 69.4187 211.536 69.6751 211.794C69.9315 212.051 70.1346 212.356 70.2727 212.692C70.4108 213.028 70.4813 213.388 70.4799 213.752Z" fill="#263238"/>
<path d="M53.7295 213.752C53.7295 214.3 53.5667 214.836 53.2619 215.292C52.9571 215.747 52.5239 216.102 52.0172 216.312C51.5104 216.521 50.953 216.575 50.4154 216.468C49.8778 216.36 49.3842 216.095 48.9972 215.707C48.6102 215.318 48.3472 214.824 48.2415 214.286C48.1357 213.748 48.192 213.191 48.4032 212.685C48.6144 212.179 48.971 211.747 49.4278 211.444C49.8847 211.14 50.4212 210.98 50.9695 210.982C51.3327 210.982 51.6925 211.053 52.028 211.193C52.3635 211.332 52.6682 211.536 52.9246 211.794C53.181 212.051 53.3841 212.356 53.5222 212.692C53.6604 213.028 53.7308 213.388 53.7295 213.752Z" fill="#263238"/>
<path d="M61.77 213.752C61.768 214.297 61.6045 214.83 61.3 215.282C60.9955 215.735 60.5638 216.087 60.0593 216.294C59.5548 216.502 59.0002 216.555 58.4654 216.447C57.9307 216.34 57.4398 216.076 57.0549 215.69C56.6699 215.303 56.408 214.811 56.3023 214.276C56.1966 213.741 56.2519 213.187 56.461 212.683C56.6702 212.179 57.024 211.749 57.4777 211.446C57.9313 211.143 58.4645 210.982 59.01 210.982C59.3733 210.982 59.733 211.053 60.0685 211.193C60.404 211.332 60.7087 211.536 60.9651 211.794C61.2216 212.051 61.4247 212.356 61.5628 212.692C61.7009 213.028 61.7713 213.388 61.77 213.752Z" fill="#263238"/>
<path d="M402.869 422.332C402.869 422.462 318.149 422.572 213.659 422.572C109.169 422.572 24.4395 422.462 24.4395 422.332C24.4395 422.202 109.139 422.082 213.659 422.082C318.179 422.082 402.869 422.182 402.869 422.332Z" fill="#263238"/>
<path d="M351.34 303.062C346.517 307.219 342.938 312.628 340.997 318.691C339.056 324.755 338.828 331.237 340.34 337.422C335.83 336.532 331.171 336.763 326.772 338.095C322.373 339.427 318.368 341.819 315.109 345.061C311.851 348.303 309.438 352.295 308.083 356.688C306.729 361.08 306.473 365.738 307.34 370.252C297.43 363.432 282.28 365.982 275.15 375.682C275 369.282 274.75 362.532 271.39 357.082C268.03 351.632 260.39 348.272 255 351.732C257.042 349.404 258.283 346.482 258.54 343.395C258.796 340.309 258.054 337.222 256.423 334.589C254.791 331.957 252.358 329.918 249.48 328.773C246.603 327.629 243.433 327.439 240.44 328.232C240.29 320.552 235.44 266.172 231.44 220.292H197.28C193.28 265.372 188.71 317.152 188.56 324.642C185.558 323.832 182.375 324.012 179.484 325.156C176.594 326.3 174.149 328.346 172.514 330.991C170.88 333.635 170.142 336.737 170.412 339.834C170.681 342.931 171.943 345.859 174.01 348.182C168.62 344.722 161.01 348.092 157.62 353.532C154.23 358.972 154 365.732 153.85 372.132C146.72 362.442 131.58 359.882 121.66 366.702C122.526 362.188 122.271 357.53 120.916 353.138C119.561 348.745 117.148 344.753 113.89 341.511C110.631 338.269 106.627 335.877 102.227 334.545C97.8281 333.213 93.1691 332.982 88.6596 333.872C90.2619 327.687 90.0758 321.174 88.1229 315.091C86.17 309.008 82.5305 303.604 77.6276 299.508C72.7247 295.411 66.7598 292.791 60.4263 291.95C54.0928 291.11 47.6509 292.085 41.8496 294.762V411.292H387.15V298.292C381.322 295.703 374.892 294.778 368.571 295.62C362.25 296.462 356.286 299.038 351.34 303.062Z" fill="#D9E5FF"/>
<path d="M349.23 388.022C343.033 383.859 336.048 381.012 328.707 379.657C321.366 378.302 313.825 378.468 306.55 380.143C299.276 381.819 292.422 384.97 286.414 389.401C280.406 393.831 275.371 399.447 271.62 405.902C268.582 401.797 264.613 398.473 260.04 396.202C260.364 395.339 260.634 394.457 260.85 393.562C261.735 389.73 261.627 385.737 260.537 381.959C259.447 378.181 257.41 374.744 254.621 371.973C251.831 369.202 248.38 367.189 244.594 366.125C240.809 365.061 236.815 364.98 232.99 365.892L222.77 220.292H209.37V354.182C201.07 355.452 195.28 365.282 198.21 373.182C195.318 373.631 192.579 374.777 190.228 376.518C187.876 378.26 185.983 380.547 184.71 383.182C183.91 384.902 183.79 388.542 184.48 392.662C179.421 392.754 174.449 393.999 169.944 396.302C165.438 398.605 161.518 401.905 158.48 405.952C154.729 399.497 149.694 393.881 143.685 389.451C137.677 385.02 130.824 381.869 123.549 380.193C116.275 378.518 108.734 378.352 101.393 379.707C94.0516 381.062 87.0666 383.909 80.8697 388.072C77.3597 371.072 58.3497 358.992 41.4697 363.072V411.602L197.26 411.402C198.33 411.707 199.437 411.862 200.55 411.862L238.63 411.412L388.7 411.602V362.982C371.78 358.942 352.77 371.022 349.23 388.022Z" fill="#AAC1F6"/>
<path d="M201.48 174.712C193.8 178.362 190.32 188.882 194.32 196.392C195.9 199.392 198.48 201.962 198.82 205.302C199.34 210.422 194.5 214.422 193 219.302C192.239 222.226 192.639 225.332 194.115 227.969C195.591 230.606 198.029 232.571 200.92 233.452C203.55 234.142 206.7 234.022 208.46 236.092C210.71 238.732 209.08 243.092 211.01 246.002C212.74 248.612 216.79 248.742 219.4 247.002C222.01 245.262 223.45 242.252 224.48 239.292C225.51 236.332 226.28 233.222 228.06 230.642C230.06 227.812 233.01 225.872 235.39 223.382C241.11 217.382 242.86 208.382 241.57 200.172C240.28 191.962 236.31 184.452 231.82 177.482" fill="#0AF89B"/>
<g opacity="0.3">
<path d="M201.48 174.712C193.8 178.362 190.32 188.882 194.32 196.392C195.9 199.392 198.48 201.962 198.82 205.302C199.34 210.422 194.5 214.422 193 219.302C192.239 222.226 192.639 225.332 194.115 227.969C195.591 230.606 198.029 232.571 200.92 233.452C203.55 234.142 206.7 234.022 208.46 236.092C210.71 238.732 209.08 243.092 211.01 246.002C212.74 248.612 216.79 248.742 219.4 247.002C222.01 245.262 223.45 242.252 224.48 239.292C225.51 236.332 226.28 233.222 228.06 230.642C230.06 227.812 233.01 225.872 235.39 223.382C241.11 217.382 242.86 208.382 241.57 200.172C240.28 191.962 236.31 184.452 231.82 177.482" fill="white"/>
</g>
<path d="M208.23 179.032C201.72 181.902 198.87 190.932 202.55 197.032C204.8 200.752 209.16 204.112 208.1 208.322C207.38 211.182 204.32 212.932 203.44 215.742C202.27 219.482 205.81 223.452 209.71 223.922C213.61 224.392 217.37 222.312 220.32 219.722C230.53 210.722 233.02 193.122 226.65 181.112" fill="#0AF89B"/>
<path d="M241.79 121.792C241.79 121.792 275.23 143.912 271.58 182.182L240.84 168.382L241.79 121.792Z" fill="#0AF89B"/>
<path d="M186.23 167.612L193.83 180.202H233.24L240.84 168.332L186.23 167.612Z" fill="#263238"/>
<path d="M211.49 40.5816C203.991 41.0842 196.974 44.4571 191.897 49.9994C186.82 55.5417 184.074 62.8272 184.23 70.3416L186.23 168.342H240.84L242.66 70.2916C242.737 66.2436 241.972 62.2238 240.413 58.4871C238.854 54.7504 236.536 51.3785 233.606 48.585C230.675 45.7916 227.196 43.6377 223.389 42.26C219.581 40.8822 215.53 40.3107 211.49 40.5816Z" fill="#0AF89B"/>
<g opacity="0.8">
<path d="M211.49 40.5816C203.991 41.0842 196.974 44.4571 191.897 49.9994C186.82 55.5417 184.074 62.8272 184.23 70.3416L186.23 168.342H240.84L242.66 70.2916C242.737 66.2436 241.972 62.2238 240.413 58.4871C238.854 54.7504 236.536 51.3785 233.606 48.585C230.675 45.7916 227.196 43.6377 223.389 42.26C219.581 40.8822 215.53 40.3107 211.49 40.5816Z" fill="white"/>
</g>
<path d="M185.23 121.792C185.23 121.792 151.83 143.912 155.49 182.182L186.23 168.362L185.23 121.792Z" fill="#0AF89B"/>
<path d="M184.53 67.0916C196.08 56.9816 232.33 57.2016 242.06 65.4316C239.56 29.0516 211.78 15.4316 211.78 15.4316C183.36 35.1116 184.53 67.0916 184.53 67.0916Z" fill="#0AF89B"/>
<path d="M211.78 15.4416L212.11 15.7416C212.32 15.9416 212.64 16.2316 213.04 16.6216L214.56 18.0616L215.56 18.9816L216.56 20.1016C217.28 20.8916 218.1 21.7616 218.97 22.7416L221.63 26.0616C222.08 26.6716 222.53 27.3316 223 27.9916C223.47 28.6516 224 29.3316 224.42 30.0816C225.31 31.5616 226.3 33.0816 227.15 34.8316C229.101 38.5511 230.614 42.4839 231.66 46.5516C232.25 48.8131 232.688 51.1116 232.97 53.4316C233.14 54.6316 233.23 55.8516 233.4 57.0616C233.509 58.3185 233.552 59.5802 233.53 60.8416C233.53 70.9916 233.4 82.1516 233.27 93.8416C232.99 117.282 232.66 138.492 232.41 153.842C232.28 161.512 232.17 167.722 232.09 172.022C232.09 174.162 232.01 175.832 231.99 177.022C231.99 177.582 231.99 178.022 231.99 178.302C231.99 178.582 231.99 178.742 231.99 178.742C231.99 178.742 231.99 178.592 231.99 178.302C231.99 178.012 231.99 177.582 231.99 177.022C231.99 175.882 231.99 174.212 232.04 172.022C232.09 167.722 232.17 161.512 232.26 153.842C232.46 138.472 232.73 117.262 233.04 93.8416C233.17 82.1216 233.32 70.9616 233.32 60.8416C233.348 59.5935 233.304 58.3448 233.19 57.1016C233.03 55.8716 232.94 54.6616 232.78 53.4716C232.501 51.1584 232.067 48.8666 231.48 46.6116C230.448 42.5612 228.955 38.6423 227.03 34.9316C226.13 33.1816 225.14 31.6616 224.23 30.1816C223.79 29.4316 223.23 28.7716 222.82 28.0916C222.41 27.4116 221.92 26.7716 221.47 26.1616L218.83 22.8316C217.97 21.8316 217.16 20.9816 216.44 20.1816L215.44 19.0516L214.49 18.1216L212.99 16.6616L212.08 15.7616L211.78 15.4416Z" fill="#263238"/>
<path d="M211.46 102.382C219.424 102.382 225.88 96.3822 225.88 88.9816C225.88 81.581 219.424 75.5816 211.46 75.5816C203.496 75.5816 197.04 81.581 197.04 88.9816C197.04 96.3822 203.496 102.382 211.46 102.382Z" fill="#FAFAFA"/>
<path d="M214.57 74.9016C214.494 74.9127 214.417 74.9127 214.34 74.9016L213.69 74.8116L213.21 74.7316H212.62H211.94C211.69 74.7316 211.43 74.7316 211.16 74.7316C210.552 74.7694 209.947 74.8496 209.35 74.9716C208.64 75.1221 207.944 75.3329 207.27 75.6016C205.624 76.2586 204.117 77.2224 202.83 78.4416C201.271 79.9133 200.052 81.7087 199.26 83.7016C199.04 84.2453 198.856 84.8032 198.71 85.3716C198.64 85.6616 198.55 85.9516 198.48 86.2416L198.33 87.1416L198.25 87.6016V88.0616C198.25 88.3716 198.2 88.6916 198.18 89.0016C198.16 89.3116 198.18 89.6316 198.18 89.9516V90.4316L198.23 90.9216C198.494 93.6385 199.535 96.2217 201.23 98.3616C203.015 100.687 205.563 102.309 208.425 102.942C211.288 103.575 214.281 103.178 216.88 101.822C219.306 100.578 221.326 98.6662 222.7 96.3116L222.95 95.9016L223.16 95.4616L223.58 94.6116L223.91 93.7316L224.07 93.2916L224.2 92.8416L224.44 91.9616C224.51 91.6716 224.54 91.3716 224.6 91.0816C224.701 90.5026 224.768 89.9183 224.8 89.3316C224.933 87.1902 224.592 85.0458 223.8 83.0516C222.885 80.7176 221.345 78.68 219.35 77.1616C218.859 76.7956 218.344 76.4616 217.81 76.1616C217.56 76.0416 217.34 75.9016 217.12 75.8016L216.49 75.5416L215.94 75.3216L215.48 75.1816L214.84 74.9916C214.767 74.9729 214.697 74.9461 214.63 74.9116H214.85L215.49 75.0716L215.97 75.2016L216.52 75.4116L217.16 75.6616L217.86 76.0116C218.408 76.3104 218.936 76.6444 219.44 77.0116C220.025 77.4539 220.576 77.9386 221.09 78.4616C222.334 79.7522 223.319 81.2697 223.99 82.9316C224.817 84.9488 225.182 87.1251 225.06 89.3016C225.036 89.8984 224.973 90.4931 224.87 91.0816C224.81 91.3816 224.78 91.6816 224.71 91.9816C224.64 92.2816 224.55 92.5816 224.46 92.8816L224.34 93.3316L224.18 93.7716L223.84 94.6716L223.42 95.5416L223.21 95.9916L222.95 96.4116C221.562 98.8181 219.506 100.77 217.03 102.032C214.375 103.425 211.313 103.835 208.386 103.189C205.458 102.543 202.852 100.883 201.03 98.5016C199.319 96.3102 198.277 93.671 198.03 90.9016V90.4116V89.9216C198.03 89.6016 198.03 89.2716 198.03 88.9216C198.03 88.5716 198.03 88.2816 198.11 87.9216V87.4516L198.18 86.9816C198.24 86.6816 198.29 86.3716 198.34 86.0716C198.39 85.7716 198.5 85.4816 198.58 85.1816C198.728 84.6049 198.919 84.04 199.15 83.4916C199.956 81.4658 201.203 79.645 202.8 78.1616C204.112 76.9374 205.646 75.9766 207.32 75.3316C208.005 75.0657 208.711 74.8583 209.43 74.7116C210.034 74.596 210.646 74.5225 211.26 74.4916C211.54 74.4916 211.8 74.4916 212.05 74.4916H212.74H213.33L213.81 74.5816L214.46 74.7016L214.57 74.9016Z" fill="#263238"/>
<path d="M197.65 86.8216C197.65 86.9916 194.57 86.9116 190.86 87.5816C187.15 88.2516 184.29 89.3716 184.23 89.2116C184.781 88.8113 185.397 88.5101 186.05 88.3216C189.113 87.1725 192.36 86.5963 195.63 86.6216C196.31 86.5781 196.992 86.6456 197.65 86.8216Z" fill="#263238"/>
<path d="M241.8 86.8016C240.974 86.807 240.15 86.7299 239.34 86.5716C237.84 86.3916 235.76 86.1516 233.46 85.9816C231.16 85.8116 229.07 85.7716 227.55 85.7416C226.728 85.7855 225.904 85.7487 225.09 85.6316C225.889 85.424 226.714 85.3297 227.54 85.3516C229.54 85.2608 231.543 85.2875 233.54 85.4316C235.519 85.5692 237.489 85.8196 239.44 86.1816C240.249 86.2897 241.042 86.498 241.8 86.8016Z" fill="#263238"/>
<path d="M242.1 142.882C241.908 142.908 241.712 142.908 241.52 142.882L239.87 142.752L233.8 142.292C228.68 141.932 221.59 141.582 213.8 141.592C206.01 141.602 198.88 141.962 193.75 142.332L187.69 142.812L186.04 142.932C185.848 142.96 185.652 142.96 185.46 142.932C185.644 142.867 185.836 142.826 186.03 142.812L187.67 142.582C189.09 142.392 191.16 142.162 193.67 141.932C198.79 141.452 205.9 141.032 213.75 141.022C221.6 141.012 228.75 141.422 233.82 141.892C236.39 142.122 238.45 142.342 239.88 142.532L241.52 142.752C241.718 142.769 241.913 142.812 242.1 142.882Z" fill="#263238"/>
<path d="M199.1 100.872C199.1 100.952 198.76 100.982 198.53 101.372C198.463 101.472 198.419 101.586 198.4 101.705C198.381 101.824 198.388 101.945 198.42 102.062C198.471 102.185 198.557 102.29 198.667 102.365C198.777 102.439 198.907 102.48 199.04 102.482C199.174 102.502 199.31 102.482 199.433 102.425C199.556 102.368 199.659 102.277 199.73 102.162C199.78 102.052 199.805 101.932 199.805 101.812C199.805 101.691 199.78 101.572 199.73 101.462C199.56 101.042 199.23 100.962 199.25 100.882C199.27 100.802 199.71 100.732 200.08 101.272C200.184 101.433 200.25 101.616 200.271 101.807C200.291 101.998 200.267 102.192 200.2 102.372C200.099 102.596 199.929 102.782 199.715 102.902C199.501 103.023 199.254 103.072 199.01 103.042C198.8 103.03 198.597 102.96 198.425 102.839C198.252 102.718 198.118 102.55 198.036 102.356C197.955 102.162 197.93 101.949 197.964 101.741C197.998 101.533 198.09 101.339 198.23 101.182C198.67 100.652 199.14 100.802 199.1 100.872Z" fill="#263238"/>
<path d="M211 107.282C211 107.372 210.66 107.402 210.43 107.792C210.365 107.891 210.322 108.003 210.303 108.12C210.284 108.237 210.29 108.357 210.32 108.472C210.368 108.597 210.453 108.705 210.564 108.782C210.674 108.859 210.806 108.9 210.94 108.902C211.075 108.919 211.212 108.898 211.334 108.839C211.457 108.781 211.56 108.688 211.63 108.572C211.677 108.463 211.701 108.345 211.701 108.227C211.701 108.108 211.677 107.99 211.63 107.882C211.45 107.462 211.12 107.382 211.14 107.302C211.16 107.222 211.6 107.152 211.97 107.692C212.075 107.851 212.14 108.033 212.161 108.222C212.182 108.412 212.157 108.603 212.09 108.782C211.99 109.007 211.82 109.194 211.606 109.316C211.392 109.438 211.145 109.489 210.9 109.462C210.68 109.459 210.466 109.391 210.284 109.267C210.102 109.144 209.96 108.969 209.877 108.765C209.794 108.561 209.773 108.338 209.816 108.122C209.859 107.906 209.965 107.708 210.12 107.552C210.57 107.072 211.04 107.182 211 107.282Z" fill="#263238"/>
<path d="M224.131 101.812C224.131 101.902 223.801 101.932 223.561 102.322C223.496 102.421 223.453 102.533 223.434 102.65C223.415 102.767 223.42 102.887 223.451 103.002C223.503 103.127 223.59 103.234 223.702 103.31C223.814 103.386 223.945 103.429 224.081 103.432C224.214 103.451 224.35 103.431 224.472 103.372C224.593 103.313 224.694 103.219 224.761 103.102C224.808 102.993 224.832 102.875 224.832 102.757C224.832 102.638 224.808 102.521 224.761 102.412C224.591 101.992 224.251 101.912 224.271 101.822C224.291 101.732 224.731 101.682 225.101 102.222C225.209 102.379 225.277 102.561 225.3 102.751C225.323 102.94 225.299 103.133 225.231 103.312C225.126 103.536 224.954 103.721 224.739 103.843C224.524 103.965 224.276 104.017 224.031 103.992C223.785 103.981 223.549 103.894 223.357 103.741C223.165 103.588 223.026 103.378 222.961 103.142C222.921 102.955 222.927 102.761 222.977 102.576C223.028 102.392 223.121 102.222 223.251 102.082C223.701 101.602 224.171 101.752 224.131 101.812Z" fill="#263238"/>
<path d="M228.401 92.0016C228.401 92.0816 228.06 92.1116 227.82 92.5016C227.757 92.6035 227.716 92.7174 227.698 92.8361C227.681 92.9549 227.689 93.0759 227.72 93.1916C227.769 93.3172 227.854 93.4254 227.964 93.5021C228.075 93.5788 228.206 93.6205 228.34 93.6216C228.474 93.6387 228.609 93.6166 228.73 93.558C228.85 93.4993 228.952 93.4068 229.02 93.2916C229.068 93.1826 229.092 93.0652 229.092 92.9466C229.092 92.8279 229.068 92.7105 229.02 92.6016C228.85 92.1816 228.52 92.0916 228.53 92.0116C228.54 91.9316 228.991 91.8716 229.371 92.4116C229.476 92.5707 229.541 92.7525 229.562 92.9421C229.583 93.1316 229.559 93.3234 229.49 93.5016C229.389 93.7248 229.218 93.9099 229.005 94.0303C228.791 94.1506 228.544 94.2001 228.3 94.1716C228.054 94.1619 227.817 94.0745 227.623 93.9219C227.429 93.7692 227.288 93.5591 227.22 93.3216C227.182 93.1345 227.188 92.941 227.238 92.7568C227.289 92.5725 227.382 92.4028 227.51 92.2616C227.96 91.7916 228.431 91.9416 228.401 92.0016Z" fill="#263238"/>
<path d="M194.76 91.0516C194.76 91.1316 194.42 91.1616 194.19 91.5516C194.126 91.653 194.083 91.7665 194.064 91.8852C194.045 92.0039 194.051 92.1252 194.08 92.2416C194.13 92.3665 194.215 92.4739 194.325 92.5505C194.436 92.627 194.566 92.6691 194.7 92.6716C194.835 92.687 194.971 92.6642 195.093 92.6058C195.215 92.5474 195.318 92.4559 195.39 92.3416C195.44 92.2333 195.466 92.1156 195.466 91.9966C195.466 91.8775 195.44 91.7599 195.39 91.6516C195.22 91.2316 194.89 91.1416 194.91 91.0616C194.93 90.9816 195.37 90.9216 195.74 91.4616C195.846 91.6207 195.911 91.8025 195.932 91.9921C195.953 92.1816 195.929 92.3734 195.86 92.5516C195.76 92.7758 195.59 92.9618 195.376 93.0824C195.162 93.2029 194.914 93.2517 194.67 93.2216C194.424 93.212 194.186 93.1246 193.992 92.9719C193.799 92.8192 193.658 92.6091 193.59 92.3716C193.551 92.1838 193.558 91.9893 193.61 91.8048C193.663 91.6202 193.759 91.451 193.89 91.3116C194.33 90.8416 194.8 90.9916 194.76 91.0516Z" fill="#263238"/>
<path d="M224.11 77.5916C224.11 77.5116 224.45 77.4816 224.68 77.0916C224.747 76.9912 224.792 76.8776 224.811 76.7586C224.83 76.6395 224.823 76.5178 224.79 76.4016C224.739 76.2782 224.653 76.1721 224.543 76.0959C224.433 76.0197 224.304 75.9766 224.17 75.9716C224.037 75.9545 223.902 75.9766 223.781 76.0352C223.66 76.0938 223.559 76.1864 223.49 76.3016C223.438 76.4091 223.411 76.5271 223.411 76.6466C223.411 76.7661 223.438 76.8841 223.49 76.9916C223.66 77.4116 223.99 77.5016 223.97 77.5816C223.95 77.6616 223.51 77.7216 223.14 77.1816C223.035 77.0225 222.969 76.8406 222.949 76.6511C222.928 76.4615 222.952 76.2697 223.02 76.0916C223.121 75.8674 223.291 75.6814 223.505 75.5608C223.719 75.4402 223.966 75.3914 224.21 75.4216C224.43 75.4243 224.645 75.4918 224.827 75.6157C225.009 75.7396 225.15 75.9143 225.233 76.1181C225.317 76.3218 225.338 76.5456 225.295 76.7614C225.252 76.9773 225.146 77.1756 224.99 77.3316C224.54 77.8116 224.07 77.6516 224.11 77.5916Z" fill="#263238"/>
<path d="M210.98 71.7716C210.98 71.6916 211.32 71.6616 211.55 71.2716C211.615 71.1702 211.658 71.0566 211.677 70.938C211.696 70.8193 211.69 70.698 211.66 70.5816C211.607 70.4574 211.519 70.351 211.408 70.2748C211.296 70.1986 211.165 70.1559 211.03 70.1516C210.897 70.1345 210.762 70.1566 210.641 70.2152C210.52 70.2738 210.419 70.3664 210.35 70.4816C210.303 70.5905 210.279 70.7079 210.279 70.8266C210.279 70.9452 210.303 71.0627 210.35 71.1716C210.52 71.6016 210.86 71.6816 210.84 71.7616C210.82 71.8416 210.38 71.9116 210.01 71.3616C209.878 71.1842 209.801 70.9712 209.79 70.75C209.78 70.5287 209.836 70.3093 209.951 70.1201C210.066 69.9308 210.235 69.7803 210.436 69.6879C210.637 69.5955 210.862 69.5654 211.08 69.6016C211.326 69.6118 211.561 69.6996 211.754 69.8523C211.946 70.0051 212.085 70.2149 212.15 70.4516C212.189 70.6386 212.183 70.8322 212.133 71.0164C212.082 71.2006 211.989 71.3703 211.86 71.5116C211.41 71.9916 210.94 71.8416 210.98 71.7716Z" fill="#263238"/>
<path d="M198 77.5916C198 77.5116 198.34 77.4816 198.57 77.0916C198.634 76.9902 198.677 76.8766 198.696 76.7579C198.715 76.6393 198.71 76.518 198.68 76.4016C198.627 76.2774 198.539 76.1709 198.427 76.0948C198.316 76.0186 198.185 75.9759 198.05 75.9716C197.917 75.9545 197.781 75.9766 197.661 76.0352C197.54 76.0938 197.439 76.1864 197.37 76.3016C197.323 76.4105 197.298 76.5279 197.298 76.6466C197.298 76.7652 197.323 76.8826 197.37 76.9916C197.54 77.4116 197.88 77.5016 197.86 77.5816C197.84 77.6616 197.4 77.7216 197.03 77.1816C196.897 77.0042 196.821 76.7912 196.81 76.5699C196.799 76.3487 196.855 76.1293 196.97 75.9401C197.085 75.7508 197.254 75.6003 197.456 75.5079C197.657 75.4155 197.881 75.3854 198.1 75.4216C198.345 75.4317 198.581 75.5195 198.773 75.6723C198.966 75.825 199.104 76.0349 199.17 76.2716C199.209 76.4586 199.202 76.6522 199.152 76.8364C199.102 77.0206 199.008 77.1903 198.88 77.3316C198.43 77.8116 197.96 77.6516 198 77.5916Z" fill="#263238"/>
<path d="M209.32 125.812L210.49 184.322C210.508 185.134 210.848 185.906 211.435 186.469C212.022 187.031 212.807 187.338 213.62 187.322C214.41 187.304 215.163 186.982 215.721 186.423C216.28 185.864 216.602 185.112 216.62 184.322C216.74 173.782 217.13 138.322 217.19 125.752C217.192 125.184 217.071 124.623 216.836 124.107C216.601 123.591 216.257 123.132 215.827 122.762C215.398 122.391 214.893 122.118 214.348 121.961C213.803 121.804 213.231 121.766 212.67 121.852C211.727 121.994 210.867 122.474 210.251 123.203C209.635 123.931 209.304 124.858 209.32 125.812Z" fill="#0AF89B"/>
<g opacity="0.3">
<path d="M209.32 125.812L210.49 184.322C210.508 185.134 210.848 185.906 211.435 186.469C212.022 187.031 212.807 187.338 213.62 187.322C214.41 187.304 215.163 186.982 215.721 186.423C216.28 185.864 216.602 185.112 216.62 184.322C216.74 173.782 217.13 138.322 217.19 125.752C217.192 125.184 217.071 124.623 216.836 124.107C216.601 123.591 216.257 123.132 215.827 122.762C215.398 122.391 214.893 122.118 214.348 121.961C213.803 121.804 213.231 121.766 212.67 121.852C211.727 121.994 210.867 122.474 210.251 123.203C209.635 123.931 209.304 124.858 209.32 125.812Z" fill="black"/>
</g>
<path d="M211.13 18.7816C211.3 18.9816 209.36 20.8616 206.53 24.1616C205.11 25.8016 203.53 27.8416 201.86 30.1616C200.084 32.7073 198.449 35.3479 196.96 38.0716C195.51 40.8115 194.211 43.6291 193.07 46.5116C192.07 49.1816 191.22 51.6316 190.63 53.7216C189.44 57.9016 188.94 60.5616 188.63 60.5216C188.32 60.4816 188.52 57.7616 189.44 53.4316C189.991 50.9012 190.706 48.4093 191.58 45.9716C192.663 42.9854 193.953 40.0783 195.44 37.2716C196.968 34.4947 198.678 31.8221 200.56 29.2716C202.114 27.1977 203.801 25.2269 205.61 23.3716C208.76 20.1816 211 18.6316 211.13 18.7816Z" fill="white"/>
<path d="M184.001 127.612C184.161 127.862 181.391 129.612 177.531 133.232L176.041 134.652C175.521 135.152 175.041 135.722 174.501 136.272C173.411 137.372 172.391 138.672 171.281 140.002C168.963 142.959 166.906 146.11 165.131 149.422C163.4 152.76 161.955 156.239 160.811 159.822C160.341 161.482 159.811 163.062 159.551 164.572C159.391 165.332 159.201 166.052 159.081 166.762C158.961 167.472 158.851 168.142 158.751 168.762C157.971 173.972 158.041 177.262 157.751 177.272C157.631 177.272 157.521 176.462 157.421 174.962C157.421 174.582 157.371 174.162 157.351 173.712C157.331 173.262 157.351 172.762 157.351 172.232C157.358 171.025 157.429 169.82 157.561 168.622C157.631 167.952 157.711 167.252 157.791 166.522C157.871 165.792 158.041 165.042 158.171 164.272C158.421 162.702 158.871 161.072 159.321 159.352C161.443 151.892 165.105 144.96 170.071 139.002C171.148 137.705 172.289 136.464 173.491 135.282C174.051 134.732 174.581 134.172 175.131 133.692L176.731 132.322C177.647 131.534 178.605 130.797 179.601 130.112C180.031 129.802 180.431 129.502 180.811 129.252L181.881 128.612C183.231 127.882 183.931 127.512 184.001 127.612Z" fill="white"/>
<path d="M278.66 332.682C278.059 332.994 277.555 333.464 277.203 334.043C276.85 334.621 276.662 335.284 276.66 335.962C276.684 336.717 276.951 337.445 277.422 338.037C277.893 338.628 278.542 339.052 279.273 339.245C280.004 339.438 280.777 339.389 281.479 339.107C282.18 338.825 282.772 338.324 283.165 337.678C283.559 337.033 283.733 336.278 283.663 335.525C283.593 334.772 283.282 334.062 282.775 333.501C282.269 332.939 281.595 332.556 280.854 332.409C280.112 332.261 279.343 332.357 278.66 332.682Z" fill="#0AF89B"/>
<g opacity="0.8">
<path d="M278.66 332.682C278.059 332.994 277.555 333.464 277.203 334.043C276.85 334.621 276.662 335.284 276.66 335.962C276.684 336.717 276.951 337.445 277.422 338.037C277.893 338.628 278.542 339.052 279.273 339.245C280.004 339.438 280.777 339.389 281.479 339.107C282.18 338.825 282.772 338.324 283.165 337.678C283.559 337.033 283.733 336.278 283.663 335.525C283.593 334.772 283.282 334.062 282.775 333.501C282.269 332.939 281.595 332.556 280.854 332.409C280.112 332.261 279.343 332.357 278.66 332.682Z" fill="white"/>
</g>
<path d="M249.9 285H187.74C176.838 285 168 293.838 168 304.74V307.51C168 318.412 176.838 327.25 187.74 327.25H249.9C260.802 327.25 269.64 318.412 269.64 307.51V304.74C269.64 293.838 260.802 285 249.9 285Z" fill="#07F9A2"/>
<path d="M198.39 308.92L199.08 307.39C199.929 307.98 200.936 308.3 201.97 308.31C203.17 308.31 203.66 307.91 203.66 307.37C203.66 305.73 198.56 306.85 198.56 303.6C198.56 302.11 199.77 300.87 202.26 300.87C203.31 300.854 204.346 301.12 205.26 301.64L204.64 303.18C203.901 302.749 203.064 302.515 202.21 302.5C201 302.5 200.54 302.95 200.54 303.5C200.54 305.11 205.64 304 205.64 307.22C205.64 308.68 204.42 309.94 201.92 309.94C200.667 309.962 199.437 309.607 198.39 308.92Z" fill="white"/>
<path d="M208.76 302.67H205.95V301.02H213.59V302.67H210.79V309.79H208.79L208.76 302.67Z" fill="white"/>
<path d="M220.01 307.87H215.94L215.17 309.75H213.09L216.99 300.98H218.99L222.91 309.75H220.78L220.01 307.87ZM219.37 306.33L217.98 302.97L216.59 306.33H219.37Z" fill="white"/>
<path d="M229.42 309.79L227.72 307.34H225.86V309.79H223.86V301.02H227.66C230 301.02 231.46 302.23 231.46 304.2C231.484 304.791 231.323 305.375 231.001 305.871C230.678 306.367 230.21 306.751 229.66 306.97L231.66 309.79H229.42ZM227.51 302.67H225.86V305.73H227.51C228.75 305.73 229.38 305.15 229.38 304.2C229.38 303.25 228.75 302.67 227.51 302.67Z" fill="white"/>
<path d="M234.72 302.67H231.92V301.02H239.56V302.67H236.75V309.79H234.75L234.72 302.67Z" fill="white"/>
<path d="M368.313 409.776L380.133 413.926L380.003 425.286C374.343 426.886 373.553 429.746 373.553 429.746L385.383 429.476L395.673 408.546L387.533 403.226L372.313 396.566" fill="#07F9A2"/>
<g opacity="0.6">
<path d="M395.674 408.546L385.384 429.476L373.554 429.746L374.844 427.936L384.454 427.186L393.944 407.416L395.674 408.546Z" fill="white"/>
</g>
<path d="M379.964 420.086C380.054 420.206 380.724 419.796 381.644 419.806C382.564 419.816 383.234 420.176 383.324 420.056C383.414 419.936 382.754 419.266 381.644 419.286C380.534 419.306 379.854 420.026 379.964 420.086Z" fill="#263238"/>
<path d="M380.133 417.266C380.253 417.346 380.763 416.636 381.703 416.426C382.643 416.216 383.403 416.636 383.473 416.516C383.543 416.396 383.373 416.266 383.043 416.086C382.59 415.871 382.077 415.814 381.588 415.924C381.098 416.035 380.66 416.307 380.343 416.696C380.073 417.026 380.033 417.226 380.133 417.266Z" fill="#263238"/>
<path d="M379.934 413.646C380.064 413.706 380.454 413.016 381.274 412.716C382.094 412.416 382.834 412.666 382.894 412.526C382.954 412.386 382.764 412.306 382.434 412.196C381.994 412.047 381.516 412.055 381.082 412.219C380.648 412.383 380.284 412.693 380.054 413.096C379.884 413.396 379.874 413.626 379.934 413.646Z" fill="#263238"/>
<path d="M379.064 413.636C379.214 413.636 379.124 412.856 379.474 412.056C379.824 411.256 380.404 410.796 380.334 410.666C380.264 410.536 379.414 410.866 378.994 411.856C378.574 412.846 378.934 413.706 379.064 413.636Z" fill="#263238"/>
<path d="M377.664 412.306C377.839 411.794 377.933 411.258 377.944 410.716C377.994 410.146 378.044 409.576 378.104 408.986C378.155 408.621 378.155 408.251 378.104 407.886C378.043 407.644 377.893 407.434 377.684 407.296C377.564 407.218 377.423 407.176 377.279 407.176C377.135 407.176 376.994 407.218 376.874 407.296C376.554 407.574 376.321 407.939 376.204 408.346C376.083 408.691 376.012 409.051 375.994 409.416C375.959 410.029 376.065 410.641 376.304 411.206C376.724 412.206 377.304 412.516 377.304 412.476C377.043 412.024 376.81 411.556 376.604 411.076C376.437 410.554 376.375 410.003 376.424 409.456C376.459 409.138 376.533 408.826 376.644 408.526C376.733 408.223 376.898 407.947 377.124 407.726C377.16 407.699 377.204 407.685 377.249 407.685C377.294 407.685 377.338 407.699 377.374 407.726C377.472 407.789 377.543 407.885 377.574 407.996C377.609 408.309 377.609 408.624 377.574 408.936C377.574 409.526 377.574 410.106 377.524 410.676C377.483 411.224 377.53 411.774 377.664 412.306Z" fill="#263238"/>
<path d="M377.473 412.826C377.523 412.826 377.173 412.276 376.263 411.976C375.648 411.79 374.99 411.806 374.385 412.022C373.78 412.238 373.261 412.643 372.903 413.176C372.877 413.252 372.868 413.332 372.876 413.412C372.885 413.491 372.911 413.568 372.953 413.636C373.027 413.75 373.136 413.838 373.263 413.886C373.443 413.951 373.632 413.988 373.823 413.996C374.156 414.029 374.49 414.029 374.823 413.996C375.361 413.948 375.888 413.813 376.383 413.596C377.233 413.226 377.623 412.796 377.583 412.756C377.543 412.716 377.083 412.996 376.263 413.256C375.784 413.41 375.286 413.497 374.783 413.516C374.494 413.541 374.202 413.541 373.913 413.516C373.777 413.506 373.643 413.479 373.513 413.436C373.413 413.376 373.443 413.386 373.443 413.356C373.498 413.247 373.576 413.151 373.673 413.076C373.78 412.972 373.897 412.878 374.023 412.796C374.255 412.633 374.512 412.508 374.783 412.426C375.247 412.285 375.738 412.261 376.213 412.356C376.644 412.482 377.065 412.639 377.473 412.826Z" fill="#263238"/>
<g opacity="0.6">
<path d="M386.234 408.406C386.238 408.59 386.278 408.771 386.352 408.94C386.426 409.108 386.532 409.26 386.665 409.387C386.798 409.515 386.954 409.614 387.126 409.681C387.297 409.748 387.48 409.78 387.664 409.776C387.848 409.772 388.029 409.732 388.197 409.658C388.366 409.584 388.518 409.478 388.645 409.345C388.772 409.212 388.872 409.056 388.939 408.884C389.005 408.713 389.038 408.53 389.034 408.346C389.03 408.162 388.99 407.981 388.916 407.813C388.842 407.644 388.735 407.492 388.602 407.365C388.47 407.238 388.313 407.138 388.142 407.071C387.97 407.005 387.788 406.972 387.604 406.976C387.42 406.98 387.239 407.02 387.07 407.094C386.902 407.168 386.75 407.275 386.623 407.408C386.495 407.54 386.396 407.697 386.329 407.868C386.262 408.04 386.23 408.222 386.234 408.406Z" fill="white"/>
</g>
<path d="M307.674 405.026L307.834 420.506C307.834 420.506 292.144 425.876 291.894 428.736L321.894 429.506L322.634 405.366L307.674 405.026Z" fill="#07F9A2"/>
<g opacity="0.6">
<path d="M317.133 419.446C317.419 419.543 317.659 419.74 317.808 420.002C317.958 420.264 318.006 420.571 317.943 420.866C317.857 421.155 317.665 421.4 317.405 421.552C317.145 421.704 316.837 421.752 316.543 421.686C316.24 421.583 315.985 421.373 315.827 421.094C315.669 420.816 315.617 420.49 315.683 420.176C315.804 419.882 316.033 419.646 316.324 419.517C316.615 419.388 316.945 419.377 317.243 419.486" fill="white"/>
</g>
<g opacity="0.6">
<path d="M321.933 429.506V427.066L293.143 427.246C293.143 427.246 291.783 427.786 291.913 428.736L321.933 429.506Z" fill="white"/>
</g>
<path d="M307.343 420.346C307.343 420.486 308.083 420.576 308.793 421.066C309.503 421.556 309.863 422.186 310.003 422.126C310.143 422.066 309.943 421.216 309.073 420.646C308.203 420.076 307.323 420.206 307.343 420.346Z" fill="#263238"/>
<path d="M304.134 421.566C304.134 421.706 304.724 421.976 305.204 422.566C305.684 423.156 305.814 423.856 305.964 423.856C306.114 423.856 306.224 423.026 305.614 422.246C305.004 421.466 304.134 421.426 304.134 421.566Z" fill="#263238"/>
<path d="M302.273 425.286C302.413 425.286 302.633 424.596 302.273 423.786C301.913 422.976 301.273 422.636 301.173 422.786C301.073 422.936 301.523 423.346 301.813 424.016C302.103 424.686 302.133 425.276 302.273 425.286Z" fill="#263238"/>
<path d="M307.703 416.806C307.763 416.946 308.433 416.806 309.263 416.806C310.093 416.806 310.733 417.166 310.813 417.036C310.893 416.906 310.283 416.376 309.303 416.296C308.323 416.216 307.633 416.696 307.703 416.806Z" fill="#263238"/>
<g opacity="0.3">
<path d="M307.703 408.086L307.733 410.846L322.493 411.096L322.573 408.606L307.703 408.086Z" fill="black"/>
</g>
<path d="M307.724 413.686C308.218 413.824 308.74 413.824 309.234 413.686C309.776 413.605 310.307 413.457 310.814 413.246C311.117 413.12 311.411 412.973 311.694 412.806C311.866 412.721 312.021 412.606 312.154 412.466C312.253 412.365 312.316 412.233 312.332 412.092C312.349 411.95 312.317 411.808 312.244 411.686C312.172 411.584 312.078 411.499 311.969 411.438C311.86 411.378 311.738 411.343 311.614 411.336C311.422 411.333 311.23 411.353 311.044 411.396C310.721 411.466 310.407 411.567 310.104 411.696C309.591 411.911 309.115 412.205 308.694 412.566C307.974 413.196 307.694 413.736 307.774 413.766C307.854 413.796 308.194 413.366 308.914 412.856C309.333 412.556 309.79 412.314 310.274 412.136C310.556 412.029 310.847 411.946 311.144 411.886C311.464 411.816 311.734 411.816 311.814 411.966C311.894 412.116 311.814 412.036 311.814 412.126C311.716 412.229 311.601 412.314 311.474 412.376C311.204 412.546 310.934 412.686 310.674 412.816C310.199 413.03 309.707 413.204 309.204 413.336C308.702 413.413 308.207 413.53 307.724 413.686Z" fill="#263238"/>
<path d="M307.914 413.906C308.204 413.479 308.354 412.973 308.344 412.456C308.389 411.901 308.335 411.342 308.184 410.806C308.099 410.487 307.978 410.178 307.824 409.886C307.748 409.685 307.622 409.506 307.458 409.368C307.293 409.23 307.095 409.136 306.884 409.096C306.749 409.096 306.617 409.134 306.503 409.207C306.39 409.28 306.3 409.384 306.244 409.506C306.164 409.678 306.107 409.86 306.074 410.046C306.026 410.378 306.026 410.715 306.074 411.046C306.137 411.612 306.343 412.153 306.674 412.616C307.244 413.406 307.844 413.616 307.864 413.546C307.884 413.476 307.404 413.176 306.974 412.416C306.729 411.979 306.579 411.495 306.534 410.996C306.511 410.705 306.528 410.413 306.584 410.126C306.644 409.806 306.764 409.556 306.884 409.586C307.004 409.616 307.284 409.836 307.404 410.096C307.542 410.36 307.659 410.634 307.754 410.916C307.906 411.406 307.99 411.914 308.004 412.426C308.004 413.336 307.834 413.876 307.914 413.906Z" fill="#263238"/>
<path d="M377.494 397.136L342.904 384.276L379.264 379.166L381.094 361.456L313.104 367.386L303.504 381.216L306.024 398.556L372.274 415.396L377.494 397.136Z" fill="#263238"/>
<path d="M304.133 409.526L300.823 346.226C300.913 343.195 301.776 340.237 303.33 337.633C304.884 335.029 307.078 332.865 309.703 331.346C311.885 330.082 314.31 329.295 316.818 329.038C319.327 328.781 321.861 329.06 324.253 329.856L368.363 344.566L392.573 350.796C392.573 350.796 396.703 360.966 394.273 368.866C391.903 376.606 383.423 381.756 375.963 379.546C366.693 376.796 324.153 358.546 324.153 358.546V410.026L304.133 409.526Z" fill="#263238"/>
<path d="M375.344 379.706L375.084 379.626L374.324 379.336L371.434 378.176L360.824 373.846L325.874 359.426L324.094 358.686L324.384 358.496C324.384 372.826 324.334 385.696 324.314 395.026C324.314 399.656 324.314 403.406 324.254 406.026C324.254 407.296 324.254 408.296 324.254 409.026C324.254 409.346 324.254 409.606 324.254 409.796C324.269 409.886 324.269 409.977 324.254 410.066C324.245 409.976 324.245 409.886 324.254 409.796V409.026C324.254 408.316 324.254 407.316 324.254 406.026C324.254 403.406 324.254 399.656 324.194 395.026C324.194 385.696 324.194 372.826 324.134 358.496V358.196L324.414 358.306L326.194 359.046L361.094 373.576L371.494 378.026L374.354 379.256L375.094 379.586L375.344 379.706Z" fill="#455A64"/>
<path d="M334.603 379.786C337.802 380.346 340.721 381.962 342.893 384.376C342.803 384.466 341.233 383.006 338.893 381.736C336.553 380.466 334.563 379.906 334.603 379.786Z" fill="#455A64"/>
<path d="M320.333 349.936C321.283 351.263 322.068 352.7 322.673 354.216C323.395 355.678 323.946 357.218 324.313 358.806C324.203 358.806 323.393 356.806 322.313 354.386C321.233 351.966 320.233 350.026 320.333 349.936Z" fill="#455A64"/>
<path d="M320.433 322.046L312.633 320.586L304.443 328.946L305.953 334.276L315.503 330.756L320.433 322.046Z" fill="#FFBE9D"/>
<path d="M248.363 302.966L257.233 300.966L271.513 303.196L270.963 312.306C270.963 312.306 266.533 312.946 264.963 312.426C264.018 312.116 263.001 312.095 262.043 312.366C262.043 312.366 262.913 314.156 261.413 314.446C259.913 314.736 257.463 315.366 257.003 313.246C256.627 313.269 256.253 313.16 255.948 312.937C255.644 312.715 255.426 312.392 255.333 312.026C255.333 312.026 254.173 312.446 253.653 310.416C253.133 308.386 253.433 305.336 257.443 304.366C257.653 304.316 257.753 303.836 257.353 303.856L251.013 305.046C251.013 305.046 246.753 305.236 248.363 302.966Z" fill="#FFBE9D"/>
<path d="M255.914 309.316C256.404 309.165 256.911 309.074 257.424 309.046C257.98 308.962 258.541 308.912 259.104 308.896C259.294 308.9 259.482 308.943 259.654 309.024C259.826 309.105 259.98 309.222 260.104 309.366C260.227 309.543 260.299 309.752 260.309 309.968C260.32 310.183 260.269 310.398 260.164 310.586C259.955 310.886 259.686 311.139 259.375 311.33C259.063 311.521 258.716 311.646 258.354 311.696C257.815 311.849 257.267 311.97 256.714 312.056C256.205 312.156 255.682 312.156 255.174 312.056C255.664 311.923 256.161 311.82 256.664 311.746C257.124 311.646 257.664 311.506 258.254 311.316C258.554 311.242 258.848 311.145 259.134 311.026C259.421 310.889 259.661 310.669 259.824 310.396C259.898 310.274 259.937 310.134 259.937 309.991C259.937 309.848 259.898 309.708 259.824 309.586C259.636 309.378 259.374 309.252 259.094 309.236C258.524 309.236 257.934 309.296 257.464 309.306C256.95 309.375 256.429 309.378 255.914 309.316Z" fill="#EB996E"/>
<path d="M257.434 307.356C257.434 307.466 256.994 307.696 256.654 308.226C256.314 308.756 256.264 309.276 256.154 309.286C256.044 309.296 255.904 308.646 256.334 308.006C256.764 307.366 257.434 307.256 257.434 307.356Z" fill="#EB996E"/>
<path d="M259.874 310.606C259.874 310.606 259.964 310.606 260.104 310.606C260.244 310.606 260.404 310.896 260.524 311.086C260.618 311.233 260.68 311.398 260.706 311.57C260.732 311.743 260.721 311.918 260.674 312.086C260.603 312.286 260.48 312.463 260.319 312.6C260.157 312.737 259.962 312.829 259.754 312.866C259.116 313.065 258.464 313.212 257.804 313.306C257.294 313.356 256.974 313.306 256.974 313.256C256.974 313.206 257.284 313.156 257.764 313.036C258.244 312.916 258.904 312.706 259.644 312.506C259.795 312.482 259.938 312.422 260.06 312.329C260.182 312.237 260.28 312.115 260.344 311.976C260.441 311.736 260.441 311.467 260.344 311.226C260.224 310.976 260.184 310.816 260.084 310.736C259.984 310.656 259.854 310.626 259.874 310.606Z" fill="#EB996E"/>
<path d="M260.464 312.156C260.464 312.156 260.564 311.976 260.844 311.936C261.197 311.913 261.547 312.004 261.844 312.196C261.996 312.303 262.121 312.443 262.209 312.606C262.298 312.769 262.347 312.951 262.354 313.136C262.354 313.396 262.354 313.556 262.264 313.556C262.174 313.556 262.164 313.406 262.084 313.186C262.014 312.924 261.859 312.692 261.644 312.526C261.404 312.369 261.135 312.261 260.854 312.206C260.634 312.166 260.494 312.206 260.464 312.156Z" fill="#EB996E"/>
<path d="M264.884 305.076L260.884 306.666L257.134 309.326C257.134 309.326 257.134 310.246 259.264 309.906C260.604 309.682 261.883 309.185 263.024 308.446C263.024 308.446 265.814 310.206 268.284 309.796" fill="#FFBE9D"/>
<path d="M268.243 309.796C268.243 309.796 268.113 309.846 267.853 309.896C267.474 309.938 267.092 309.938 266.713 309.896C265.361 309.73 264.06 309.28 262.893 308.576H263.073C261.676 309.52 260.048 310.066 258.363 310.156C258.078 310.166 257.794 310.125 257.523 310.036C257.362 309.988 257.218 309.895 257.108 309.767C256.998 309.64 256.927 309.483 256.903 309.316V309.226L256.983 309.166L260.783 306.526C262.013 306.056 263.023 305.676 263.733 305.426C264.094 305.272 264.469 305.155 264.853 305.076C264.517 305.282 264.162 305.456 263.793 305.596C263.103 305.896 262.113 306.316 260.893 306.816L257.133 309.506L257.213 309.346C257.213 309.466 257.383 309.636 257.583 309.706C257.812 309.782 258.053 309.816 258.293 309.806C259.903 309.715 261.461 309.205 262.813 308.326L262.913 308.266H263.003C264.122 308.965 265.365 309.444 266.663 309.676C267.186 309.754 267.714 309.794 268.243 309.796Z" fill="#EB996E"/>
<path d="M259.063 304.876C259.063 304.986 258.593 304.976 258.133 304.696C257.673 304.416 257.443 304.006 257.523 303.946C257.603 303.886 257.923 304.126 258.323 304.366C258.723 304.606 259.133 304.776 259.063 304.876Z" fill="#EB996E"/>
<path d="M270.743 314.716L304.603 319.636C307.967 320.699 311.613 320.393 314.753 318.786L344.913 303.316L335.913 283.406C334.749 283.805 333.613 284.283 332.513 284.836L307.703 302.716L271.703 301.456L270.743 314.716Z" fill="#07F9A2"/>
<path d="M391.924 350.646L389.764 346.856L366.684 341.076L369.404 345.776L391.924 350.646Z" fill="#FFBE9D"/>
<path d="M335.883 283.406C335.883 284.206 332.493 309.266 332.493 314.406C332.493 319.546 342.293 325.076 342.293 325.076L353.023 347.866H391.253L378.183 323.326L372.273 303.666C370.033 296.226 370.273 292.376 364.723 286.926L354.033 279.726L335.883 283.406Z" fill="#07F9A2"/>
<path d="M346.984 303.186L353.404 330.126L321.024 321.026L315.504 330.786L357.634 349.966C360.153 351.112 362.993 351.339 365.662 350.608C368.331 349.878 370.66 348.235 372.244 345.966C373.223 344.566 373.888 342.971 374.194 341.29C374.499 339.609 374.438 337.881 374.014 336.226L364.584 299.376C364.278 298.175 363.728 297.049 362.967 296.07C362.206 295.091 361.251 294.28 360.162 293.688C359.073 293.095 357.873 292.734 356.638 292.627C355.403 292.52 354.159 292.67 352.984 293.066C350.936 293.752 349.203 295.152 348.101 297.01C347 298.868 346.603 301.06 346.984 303.186Z" fill="#07F9A2"/>
<path d="M342.893 326.326C342.614 325.814 342.278 325.334 341.893 324.896C341.653 324.776 341.313 324.596 340.893 324.346C339.655 323.649 338.469 322.863 337.343 321.996C335.618 320.739 334.191 319.117 333.163 317.246C332.163 315.006 332.163 312.246 332.573 309.546C332.983 306.846 333.573 304.286 333.853 301.936C334.133 299.586 334.463 297.476 334.593 295.696C334.723 293.916 334.753 292.466 334.753 291.466C334.753 290.466 334.753 289.906 334.753 289.906C334.794 290.036 334.817 290.17 334.823 290.306C334.823 290.566 334.883 290.956 334.913 291.456C334.987 292.875 334.987 294.297 334.913 295.716C334.823 297.506 334.603 299.646 334.263 301.996C333.923 304.346 333.403 306.906 333.013 309.606C332.623 312.306 332.573 314.956 333.533 317.086C334.519 318.913 335.882 320.508 337.533 321.766C338.637 322.646 339.788 323.464 340.983 324.216C341.737 324.804 342.384 325.517 342.893 326.326Z" fill="#263238"/>
<path d="M355.773 281.506C355.606 281.751 355.408 281.973 355.183 282.166C354.793 282.566 354.183 283.166 353.473 283.816C352.003 285.186 349.913 287.026 347.473 288.946C345.033 290.866 342.833 292.506 341.173 293.646C340.343 294.216 339.663 294.646 339.173 294.956C338.935 295.13 338.676 295.274 338.403 295.386C338.611 295.177 338.839 294.99 339.083 294.826L340.993 293.406C342.603 292.216 344.823 290.546 347.213 288.626C349.603 286.706 351.713 284.916 353.213 283.626L355.013 282.066C355.244 281.85 355.499 281.662 355.773 281.506Z" fill="#263238"/>
<path d="M346.984 303.186C347.054 303.354 347.107 303.528 347.144 303.706C347.244 304.08 347.374 304.58 347.534 305.206C347.874 306.556 348.344 308.456 348.934 310.826C350.104 315.646 351.734 322.366 353.594 330.076L353.674 330.406L353.354 330.316L345.134 328.026L321.024 321.176L321.194 321.106L317.104 328.206L315.964 330.126L315.664 330.616C315.594 330.736 315.554 330.786 315.544 330.786C315.563 330.72 315.59 330.656 315.624 330.596L315.894 330.086L316.954 328.086L320.954 320.916L321.014 320.816H321.124L345.264 327.556L353.524 329.896L353.274 330.126C351.464 322.406 349.884 315.676 348.744 310.846C348.204 308.466 347.744 306.546 347.464 305.196C347.324 304.556 347.214 304.056 347.134 303.676C347.072 303.517 347.021 303.353 346.984 303.186Z" fill="#263238"/>
<path d="M364.724 301.506C364.797 301.655 364.851 301.813 364.884 301.976C364.984 302.326 365.104 302.766 365.264 303.316L366.564 308.316C367.634 312.556 369.104 318.316 370.714 324.726C371.504 327.936 372.284 330.986 372.944 333.786C373.6 336.263 373.807 338.837 373.554 341.386C373.35 343.111 372.732 344.761 371.754 346.196C371.402 346.724 370.962 347.188 370.454 347.566C370.872 347.106 371.259 346.618 371.614 346.106C372.531 344.671 373.1 343.041 373.274 341.346C373.476 338.831 373.239 336.3 372.574 333.866C371.874 331.086 371.114 328.036 370.314 324.866L366.314 308.426L365.134 303.426L364.834 302.066C364.781 301.883 364.744 301.696 364.724 301.506Z" fill="#263238"/>
<g opacity="0.3">
<path d="M370.604 347.846C375.344 348.276 378.094 345.576 378.604 341.846C378.716 339.791 378.353 337.738 377.544 335.846C374.634 327.326 371.694 318.736 367.084 310.996C368.824 318.736 371.084 326.166 372.794 333.906C373.346 336.058 373.592 338.276 373.524 340.496C373.416 343.204 372.385 345.794 370.604 347.836" fill="black"/>
</g>
<path d="M331.733 309.026C331.005 308.408 330.36 307.699 329.813 306.916C328.417 305.093 327.227 303.121 326.263 301.036C325.298 298.948 324.57 296.757 324.093 294.506C323.854 293.582 323.733 292.631 323.733 291.676C324.023 292.576 324.263 293.491 324.453 294.416C325.027 296.612 325.79 298.753 326.733 300.816C327.684 302.873 328.815 304.84 330.113 306.696C331.133 308.166 331.793 309.026 331.733 309.026Z" fill="#FAFAFA"/>
<path d="M322.454 314.556C321.873 313.888 321.364 313.16 320.934 312.386C320.054 311.006 318.934 309.066 317.714 306.876C316.494 304.686 315.514 302.666 314.834 301.186C314.416 300.407 314.08 299.586 313.834 298.736C314.339 299.457 314.774 300.224 315.134 301.026L318.134 306.626C319.284 308.726 320.334 310.626 321.204 312.196C321.689 312.945 322.108 313.734 322.454 314.556Z" fill="#FAFAFA"/>
<path d="M309.683 319.536C308.996 316.905 308.474 314.233 308.123 311.536C307.603 308.864 307.253 306.162 307.073 303.446C307.761 306.077 308.282 308.749 308.633 311.446C309.159 314.117 309.509 316.82 309.683 319.536Z" fill="#FAFAFA"/>
<path d="M298.324 318.766C298.142 318.02 298.055 317.254 298.064 316.486C297.974 315.066 297.924 313.106 297.974 310.936C298.024 308.766 298.174 306.816 298.324 305.406C298.353 304.637 298.477 303.875 298.694 303.136C298.776 303.897 298.776 304.665 298.694 305.426C298.634 306.846 298.554 308.796 298.494 310.946C298.434 313.096 298.434 315.056 298.434 316.476C298.484 317.241 298.448 318.01 298.324 318.766Z" fill="#FAFAFA"/>
<path d="M286.953 302.226C287.131 302.919 287.225 303.631 287.233 304.346C287.333 305.666 287.393 307.496 287.363 309.516C287.333 311.536 287.193 313.366 287.043 314.676C287.019 315.396 286.897 316.109 286.683 316.796C286.533 316.796 286.773 313.526 286.833 309.506C286.893 305.486 286.793 302.236 286.953 302.226Z" fill="#FAFAFA"/>
<path d="M277.614 303.426C277.686 305.464 277.589 307.504 277.324 309.526C277.231 311.563 276.96 313.587 276.514 315.576C276.533 311.502 276.901 307.437 277.614 303.426Z" fill="#FAFAFA"/>
<path d="M333.904 294.176C333.754 294.176 333.154 292.556 332.134 290.656C331.114 288.756 330.134 287.316 330.214 287.226C332.128 289.109 333.417 291.536 333.904 294.176Z" fill="#FAFAFA"/>
<path d="M351.503 321.386C351.251 321.465 350.986 321.496 350.723 321.476C350.006 321.506 349.288 321.489 348.573 321.426C346.208 321.245 343.881 320.726 341.663 319.886C339.439 319.061 337.341 317.926 335.433 316.516C334.856 316.09 334.305 315.629 333.783 315.136C333.413 314.786 333.223 314.586 333.253 314.556C333.283 314.526 334.163 315.216 335.643 316.216C339.534 318.834 343.988 320.496 348.643 321.066C350.383 321.286 351.503 321.296 351.503 321.386Z" fill="#FAFAFA"/>
<path d="M347.853 308.616C347.152 308.647 346.451 308.569 345.773 308.386C344.114 308.073 342.479 307.638 340.883 307.086C339.284 306.541 337.729 305.873 336.233 305.086C335.587 304.807 334.985 304.436 334.443 303.986C334.523 303.846 337.343 305.316 341.053 306.586C344.763 307.856 347.883 308.466 347.853 308.616Z" fill="#FAFAFA"/>
<path d="M345.734 299.436C343.926 299.55 342.116 299.26 340.435 298.587C338.754 297.914 337.244 296.875 336.014 295.546C338.875 297.639 342.218 298.977 345.734 299.436Z" fill="#FAFAFA"/>
<path d="M360.704 292.896C360.654 292.976 359.874 292.446 358.454 292.046C356.604 291.533 354.64 291.606 352.834 292.256C351.039 292.943 349.506 294.178 348.454 295.786C347.634 297.016 347.394 297.926 347.304 297.896C347.391 297.071 347.675 296.278 348.134 295.586C349.151 293.828 350.747 292.479 352.65 291.769C354.553 291.059 356.644 291.033 358.564 291.696C359.362 291.921 360.096 292.332 360.704 292.896Z" fill="#FAFAFA"/>
<path d="M362.474 305.176C361.965 305.6 361.391 305.938 360.774 306.176C357.885 307.43 354.762 308.051 351.614 307.996C350.962 308.035 350.309 307.961 349.684 307.776C349.684 307.616 352.684 307.776 356.184 307.066C359.684 306.356 362.404 305.026 362.474 305.176Z" fill="#FAFAFA"/>
<path d="M367.594 320.586C365.287 321.073 362.947 321.39 360.594 321.536C358.247 321.85 355.881 321.994 353.514 321.966C355.82 321.475 358.16 321.157 360.514 321.016C362.86 320.702 365.226 320.558 367.594 320.586Z" fill="#FAFAFA"/>
<path d="M372.133 341.936C371.86 341.927 371.59 341.873 371.333 341.776C370.624 341.58 369.926 341.343 369.243 341.066C366.981 340.156 364.819 339.014 362.793 337.656C360.778 336.303 358.835 334.844 356.973 333.286C356.166 332.691 355.416 332.021 354.733 331.286C355.581 331.798 356.383 332.38 357.133 333.026C358.623 334.136 360.673 335.686 363.023 337.246C365.029 338.579 367.135 339.753 369.323 340.756C371.033 341.486 372.133 341.856 372.133 341.936Z" fill="#FAFAFA"/>
<path d="M347.863 345.186C347.696 344.442 347.642 343.677 347.703 342.916C347.782 339.234 348.662 335.613 350.283 332.306C350.575 331.603 350.973 330.949 351.463 330.366C350.459 332.718 349.61 335.133 348.923 337.596C348.408 340.101 348.054 342.636 347.863 345.186Z" fill="#FAFAFA"/>
<path d="M335.673 338.656C335.286 334.461 336.568 330.282 339.243 327.026C338.305 328.846 337.49 330.727 336.803 332.656C336.288 334.628 335.91 336.632 335.673 338.656Z" fill="#FAFAFA"/>
<path d="M328.874 322.696C327.467 324.369 326.221 326.17 325.154 328.076C324.241 330.063 323.521 332.132 323.004 334.256C322.934 333.586 322.985 332.909 323.154 332.256C323.453 330.702 323.968 329.198 324.684 327.786C325.4 326.375 326.312 325.072 327.394 323.916C327.815 323.429 328.315 323.017 328.874 322.696Z" fill="#FAFAFA"/>
<path d="M373.793 308.726C373.045 309.661 372.066 310.385 370.952 310.827C369.839 311.269 368.629 311.414 367.443 311.246C367.443 311.086 369.003 311.046 370.753 310.336C372.503 309.626 373.683 308.616 373.793 308.726Z" fill="#FAFAFA"/>
<path d="M369.213 294.696C368.869 295.7 368.214 296.569 367.343 297.176C366.577 297.916 365.59 298.386 364.533 298.516C364.533 298.376 365.733 297.826 367.013 296.766C368.293 295.706 369.133 294.606 369.213 294.696Z" fill="#FAFAFA"/>
<path d="M352.884 285.356C353.771 285.881 354.47 286.672 354.884 287.616C355.449 288.483 355.739 289.501 355.714 290.536C355.564 290.536 355.204 289.286 354.424 287.866C353.644 286.446 352.784 285.456 352.884 285.356Z" fill="#FAFAFA"/>
<path d="M377.133 321.936C376.262 322.717 375.193 323.242 374.043 323.456C372.938 323.829 371.75 323.888 370.613 323.626C370.613 323.476 372.133 323.416 373.913 322.946C375.693 322.476 377.073 321.806 377.133 321.936Z" fill="#FAFAFA"/>
<path d="M384.133 334.246C380.527 334.899 376.867 335.207 373.203 335.166C374.99 334.755 376.811 334.514 378.643 334.446C380.462 334.199 382.301 334.132 384.133 334.246Z" fill="#FAFAFA"/>
<path d="M388.993 344.146C383.627 344.36 378.252 344.226 372.903 343.746C378.27 343.533 383.644 343.666 388.993 344.146Z" fill="#FAFAFA"/>
<path d="M353.604 244.906C354.274 248.296 359.144 249.646 359.604 253.066C359.804 254.526 359.104 255.986 359.164 257.466C359.224 259.466 360.614 261.136 361.314 262.996C362.774 266.836 361.134 271.386 358.044 274.096C354.954 276.806 350.734 277.906 346.634 277.986" fill="#263238"/>
<path d="M326.024 248.406C326.454 250.216 325.504 252.036 324.504 253.606C323.504 255.176 322.374 256.816 322.394 258.666C322.394 261.966 326.054 264.456 325.914 267.746C325.834 269.506 324.654 271.096 324.674 272.866C324.759 273.718 325.025 274.541 325.455 275.281C325.884 276.021 326.467 276.66 327.164 277.156C328.464 278.256 329.724 277.866 330.924 279.086C332.307 280.448 333.959 281.507 335.774 282.196C339.604 283.566 343.404 280.096 345.034 279.326" fill="#263238"/>
<path d="M354.603 246.756C354.383 245.086 352.603 244.046 351.003 243.686C349.403 243.326 347.613 243.366 346.083 242.686C344.812 241.918 343.62 241.027 342.523 240.026C341.045 238.934 339.304 238.255 337.477 238.059C335.65 237.863 333.804 238.157 332.128 238.91C330.452 239.664 329.007 240.849 327.941 242.346C326.875 243.843 326.227 245.596 326.063 247.426C325.843 249.886 326.693 252.616 328.803 253.896C331.253 255.376 334.403 254.466 337.083 253.456C339.763 252.446 342.813 251.396 345.383 252.656C346.853 253.574 348.111 254.795 349.073 256.236C350.153 257.576 351.463 258.916 353.163 259.236C354.863 259.556 356.903 258.236 356.703 256.516" fill="#263238"/>
<path d="M355.183 282.166L351.183 249.776C351.087 249.078 350.732 248.442 350.19 247.992C349.648 247.543 348.957 247.312 348.253 247.346L332.933 245.916C328.133 246.156 325.933 252.456 326.333 257.246C326.823 262.556 327.623 269.036 328.863 272.866C331.343 280.566 337.553 280.626 337.553 280.626C337.553 280.626 338.673 292.026 339.133 294.826" fill="#FFBE9D"/>
<path d="M328.393 263.156C328.409 263.289 328.452 263.417 328.518 263.533C328.584 263.649 328.673 263.751 328.779 263.832C328.886 263.913 329.007 263.972 329.137 264.006C329.266 264.039 329.401 264.046 329.533 264.026C329.795 264.001 330.037 263.873 330.205 263.671C330.374 263.469 330.455 263.209 330.433 262.946C330.417 262.814 330.375 262.685 330.309 262.569C330.242 262.453 330.153 262.352 330.047 262.27C329.941 262.189 329.819 262.13 329.69 262.097C329.56 262.064 329.425 262.057 329.293 262.076C329.031 262.102 328.79 262.229 328.621 262.431C328.453 262.634 328.371 262.894 328.393 263.156Z" fill="#263238"/>
<path d="M328.133 261.156C328.283 261.276 328.963 260.586 330.053 260.416C331.143 260.246 332.053 260.676 332.123 260.516C332.193 260.356 332.003 260.236 331.623 260.036C331.099 259.78 330.509 259.693 329.933 259.786C329.365 259.873 328.839 260.139 328.433 260.546C328.133 260.856 328.033 261.106 328.133 261.156Z" fill="#263238"/>
<path d="M339.384 261.546C339.4 261.678 339.442 261.805 339.507 261.921C339.573 262.036 339.661 262.137 339.766 262.218C339.871 262.299 339.992 262.358 340.12 262.392C340.248 262.426 340.382 262.435 340.514 262.416C340.774 262.391 341.014 262.265 341.182 262.065C341.35 261.865 341.433 261.607 341.414 261.346C341.398 261.215 341.356 261.087 341.29 260.972C341.224 260.857 341.136 260.755 341.031 260.674C340.926 260.593 340.806 260.534 340.677 260.5C340.549 260.466 340.415 260.458 340.284 260.476C340.024 260.502 339.784 260.628 339.616 260.828C339.447 261.028 339.364 261.286 339.384 261.546Z" fill="#263238"/>
<path d="M338.854 259.696C339.004 259.806 339.684 259.116 340.774 258.956C341.864 258.796 342.774 259.206 342.844 259.056C342.914 258.906 342.724 258.766 342.334 258.566C341.813 258.313 341.225 258.229 340.654 258.326C340.088 258.414 339.564 258.676 339.154 259.076C338.864 259.386 338.784 259.646 338.854 259.696Z" fill="#263238"/>
<path d="M336.134 268.396C335.529 268.324 334.918 268.324 334.314 268.396C334.034 268.396 333.764 268.396 333.684 268.206C333.612 267.924 333.633 267.626 333.744 267.356C333.894 266.646 334.064 265.896 334.234 265.106C334.721 263.192 335.055 261.243 335.234 259.276C334.594 261.147 334.106 263.067 333.774 265.016C333.614 265.81 333.464 266.56 333.324 267.266C333.194 267.628 333.194 268.024 333.324 268.386C333.379 268.479 333.455 268.557 333.545 268.616C333.635 268.675 333.737 268.713 333.844 268.726C334.007 268.742 334.171 268.742 334.334 268.726C334.946 268.696 335.551 268.585 336.134 268.396Z" fill="#263238"/>
<path d="M337.514 280.626C341.216 280.184 344.711 278.676 347.574 276.286C346.734 278.199 345.358 279.828 343.611 280.975C341.865 282.121 339.823 282.737 337.734 282.746L337.514 280.626Z" fill="#EB996E"/>
<path d="M337.023 270.956C337.192 270.664 337.431 270.419 337.72 270.244C338.008 270.069 338.336 269.97 338.673 269.956C338.917 269.941 339.161 269.975 339.391 270.056C339.621 270.137 339.832 270.263 340.013 270.426C340.187 270.586 340.308 270.795 340.36 271.026C340.412 271.256 340.392 271.497 340.303 271.716C340.16 271.939 339.952 272.114 339.708 272.218C339.463 272.321 339.193 272.349 338.933 272.296C338.387 272.198 337.867 271.99 337.403 271.686C337.271 271.614 337.15 271.523 337.043 271.416C336.996 271.36 336.965 271.292 336.954 271.22C336.944 271.147 336.954 271.073 336.983 271.006" fill="#EB996E"/>
<path d="M339.483 268.656C339.303 268.656 339.483 269.856 338.603 270.846C337.723 271.836 336.443 271.916 336.453 272.076C336.463 272.236 336.773 272.266 337.313 272.196C338.012 272.086 338.65 271.732 339.113 271.196C339.557 270.692 339.793 270.038 339.773 269.366C339.743 268.906 339.563 268.636 339.483 268.656Z" fill="#263238"/>
<path d="M337.874 256.726C338.034 257.006 339.104 256.726 340.404 256.646C341.704 256.566 342.794 256.786 342.924 256.496C343.054 256.206 342.754 256.106 342.294 255.886C341.683 255.62 341.02 255.497 340.354 255.526C339.688 255.556 339.038 255.737 338.454 256.056C338.014 256.316 337.814 256.586 337.874 256.726Z" fill="#263238"/>
<path d="M328.014 257.946C328.244 258.156 328.954 257.786 329.854 257.636C330.754 257.486 331.554 257.536 331.684 257.256C331.814 256.976 331.584 256.886 331.214 256.706C330.725 256.487 330.179 256.428 329.654 256.536C329.124 256.625 328.634 256.876 328.254 257.256C327.974 257.566 327.914 257.836 328.014 257.946Z" fill="#263238"/>
<path d="M355.624 274.026C353.524 274.806 353.154 273.736 351.294 272.476C350.367 271.84 349.601 270.996 349.058 270.012C348.514 269.028 348.208 267.93 348.164 266.806C348.104 264.806 348.834 262.686 347.874 260.956C346.594 258.676 343.074 258.466 341.794 256.186C341.044 254.856 341.254 253.136 340.444 251.856C340.001 251.295 339.45 250.828 338.823 250.485C338.196 250.141 337.506 249.927 336.794 249.856C335.367 249.717 333.97 249.356 332.654 248.786C331.404 248.096 330.454 246.566 330.984 245.236C336.994 245.015 343.01 245.508 348.904 246.706C350.298 246.858 351.609 247.442 352.654 248.376C353.531 249.572 354.011 251.013 354.024 252.496C354.817 259.636 355.604 266.78 356.384 273.926" fill="#263238"/>
<path d="M358.044 257.126C357.965 255.795 358.322 254.474 359.061 253.363C359.8 252.253 360.881 251.413 362.14 250.971C363.398 250.53 364.766 250.51 366.037 250.915C367.308 251.32 368.413 252.128 369.184 253.216C369.841 254.294 370.256 255.501 370.399 256.755C370.542 258.009 370.411 259.278 370.014 260.476C369.224 263.366 367.124 266.216 364.144 266.546C361.354 266.856 358.734 264.776 357.514 262.236C356.294 259.696 356.164 256.796 356.054 253.986" fill="#263238"/>
<path d="M361.304 267.706C361.451 267.554 361.567 267.374 361.644 267.176C361.876 266.65 361.991 266.081 361.984 265.506C361.968 264.656 361.809 263.814 361.514 263.016C361.214 262.116 360.744 261.196 360.354 260.196C359.95 259.282 359.733 258.296 359.714 257.296C359.714 256.396 360.034 255.586 360.114 254.856C360.201 254.283 360.124 253.698 359.894 253.166C359.704 252.796 359.504 252.656 359.494 252.676C359.484 252.696 359.624 252.856 359.764 253.216C359.933 253.736 359.968 254.29 359.864 254.826C359.656 255.636 359.499 256.457 359.394 257.286C359.395 258.319 359.609 259.34 360.024 260.286C360.424 261.286 360.904 262.216 361.214 263.086C361.506 263.849 361.681 264.651 361.734 265.466C361.761 266.236 361.614 267.002 361.304 267.706Z" fill="#455A64"/>
<path d="M359.924 258.196C360.301 258.635 360.778 258.978 361.314 259.196C362.578 259.823 364.002 260.054 365.399 259.858C366.796 259.661 368.102 259.047 369.144 258.096C369.597 257.736 369.963 257.278 370.214 256.756C370.164 256.756 369.794 257.256 368.984 257.906C367.938 258.754 366.685 259.306 365.354 259.506C364.019 259.684 362.661 259.498 361.424 258.966C360.464 258.566 359.954 258.146 359.924 258.196Z" fill="#455A64"/>
<path d="M360.504 259.376C360.719 259.805 361.015 260.188 361.374 260.506C362.192 261.332 363.173 261.979 364.254 262.406C365.326 262.846 366.476 263.064 367.634 263.046C368.113 263.073 368.593 263.002 369.044 262.836C368.578 262.808 368.11 262.808 367.644 262.836C365.388 262.736 363.234 261.864 361.544 260.366C361.218 260.015 360.871 259.684 360.504 259.376Z" fill="#455A64"/>
<path d="M360.233 270.576C360.233 270.576 360.233 270.576 360.313 270.466C360.373 270.353 360.427 270.236 360.473 270.116C360.665 269.653 360.77 269.158 360.783 268.656C360.806 267.857 360.635 267.064 360.283 266.346C359.824 265.374 359.033 264.598 358.053 264.156C356.876 263.775 355.771 263.201 354.783 262.456C354.546 262.224 354.359 261.945 354.235 261.637C354.111 261.329 354.053 260.998 354.063 260.666C354.104 259.935 354.224 259.211 354.423 258.506C354.614 257.707 354.638 256.876 354.491 256.067C354.345 255.258 354.032 254.488 353.573 253.806C353.088 253.079 352.433 252.481 351.663 252.066C350.852 251.681 349.97 251.47 349.073 251.446C348.193 251.386 347.323 251.446 346.493 251.296C345.678 251.217 344.895 250.939 344.213 250.486C343.596 250.001 343.162 249.321 342.983 248.556C342.788 247.794 342.54 247.045 342.243 246.316C341.668 244.953 340.727 243.776 339.523 242.916C338.461 242.178 337.197 241.784 335.903 241.786C334.828 241.769 333.776 242.099 332.903 242.726C332.253 243.193 331.73 243.815 331.383 244.536C331.163 244.988 331.024 245.476 330.973 245.976C330.949 246.149 330.949 246.324 330.973 246.496C331.017 245.834 331.193 245.188 331.493 244.596C331.913 243.804 332.546 243.144 333.319 242.691C334.092 242.237 334.977 242.007 335.873 242.026C337.111 242.043 338.315 242.437 339.323 243.156C340.475 243.994 341.375 245.132 341.923 246.446C342.201 247.169 342.438 247.907 342.633 248.656C342.833 249.489 343.309 250.229 343.983 250.756C344.706 251.251 345.542 251.557 346.413 251.646C347.283 251.766 348.153 251.736 349.023 251.796C349.869 251.819 350.7 252.02 351.463 252.386C352.188 252.764 352.807 253.318 353.263 253.996C353.697 254.642 353.993 255.371 354.132 256.137C354.271 256.903 354.251 257.689 354.073 258.446C353.876 259.171 353.759 259.916 353.723 260.666C353.712 261.038 353.779 261.409 353.921 261.753C354.062 262.098 354.274 262.409 354.543 262.666C355.561 263.435 356.705 264.02 357.923 264.396C358.853 264.789 359.614 265.497 360.073 266.396C360.426 267.087 360.611 267.851 360.613 268.626C360.616 269.295 360.487 269.958 360.233 270.576Z" fill="#455A64"/>
<path d="M356.224 248.616C356.254 248.491 356.254 248.361 356.224 248.236C356.195 247.867 356.048 247.516 355.804 247.236C355.414 246.787 354.887 246.478 354.304 246.356C353.533 246.233 352.742 246.33 352.024 246.636C351.224 246.926 350.414 247.386 349.504 247.716C349.046 247.927 348.548 248.035 348.044 248.035C347.54 248.035 347.042 247.927 346.584 247.716C345.651 247.062 344.909 246.172 344.434 245.136C343.826 244.016 343.039 243.002 342.104 242.136C340.292 240.457 337.975 239.426 335.514 239.206C334.434 239.133 333.354 239.336 332.374 239.796C331.519 240.204 330.798 240.845 330.294 241.646C329.883 242.318 329.694 243.101 329.754 243.886C329.792 244.471 329.974 245.038 330.284 245.536C330.473 245.851 330.721 246.126 331.014 246.346C331.118 246.419 331.229 246.483 331.344 246.536C330.97 246.235 330.649 245.873 330.394 245.466C330.125 244.974 329.971 244.427 329.944 243.866C329.912 243.129 330.108 242.399 330.504 241.776C330.995 241.026 331.689 240.43 332.504 240.056C333.443 239.628 334.476 239.449 335.504 239.536C337.884 239.762 340.124 240.767 341.874 242.396C342.782 243.229 343.552 244.201 344.154 245.276C344.656 246.361 345.444 247.287 346.434 247.956C346.94 248.225 347.513 248.343 348.084 248.296C348.608 248.255 349.124 248.138 349.614 247.946C350.564 247.586 351.354 247.116 352.124 246.816C352.797 246.513 353.541 246.402 354.274 246.496C354.822 246.596 355.324 246.869 355.704 247.276C355.952 247.53 356.113 247.855 356.164 248.206C356.234 248.476 356.204 248.616 356.224 248.616Z" fill="#455A64"/>
</svg>
